<?xml version="1.0" encoding="UTF-8" standalone="no"?>
<!DOCTYPE svg PUBLIC "-//W3C//DTD SVG 1.1//EN" "http://www.w3.org/Graphics/SVG/1.1/DTD/svg11.dtd">
<svg version="1.1" xmlns="http://www.w3.org/2000/svg" xmlns:xlink="http://www.w3.org/1999/xlink" preserveAspectRatio="xMidYMid meet" viewBox="221.6715601275083 232.38857142857137 55.6370113010631 62.834285714285784" width="55.64" height="62.83"><defs><path d="M276.57 287.89C276.5 287.86 276.46 287.82 276.39 287.79C274.19 284.71 272.3 281.46 270.7 278.03C270.42 277.44 270.17 276.8 269.6 276.41C268.82 275.89 267.93 275.54 267.09 275.13C265.1 274.17 263.13 273.21 261.14 272.25C260.94 272.16 260.75 272.21 260.59 272.3C257.17 274.08 253.26 275.22 249.46 274.83C249.46 274.67 249.39 274.51 249.23 274.4C247.47 273.33 246.49 271.54 246.03 269.6C246.08 269.49 246.08 269.37 245.97 269.3C245.81 268.57 245.74 267.82 245.71 267.09C245.69 266.01 245.81 264.96 246.03 263.93C246.06 263.89 246.08 263.82 246.08 263.75C246.51 261.99 247.31 260.3 248.34 258.79C251.73 253.85 258.01 251.79 263.77 252.46C265.39 253.51 267.09 254.45 268.85 255.31C269.05 255.41 269.26 255.36 269.39 255.25C269.4 255.25 269.46 255.25 269.46 255.25C269.49 255.25 269.51 255.25 269.53 255.25C269.69 255.52 270.03 255.68 270.29 255.36C272.78 252.21 274.9 248.78 276.62 245.14C276.64 245.1 276.66 245.05 276.66 244.98C276.85 244.8 276.89 244.53 276.66 244.3C274.74 242.49 272.23 241.33 269.94 240.02C267.29 238.51 264.66 237.01 262.01 235.5C261.9 235.43 261.78 235.41 261.67 235.43C259.31 234.15 256.73 233.26 254.06 232.8C248.57 231.86 242.93 232.91 237.87 235.13C235.29 236.27 232.85 237.78 230.65 239.57C228.39 241.42 226.74 243.79 225.44 246.4C222.83 251.57 221.53 257.39 221.83 263.18C222.29 272.32 227.38 280.73 234.93 285.74C240.43 290.86 247.66 293.55 255.04 294.58C262.29 295.61 272 295.82 276.71 289.19C276.82 289.14 276.91 289.05 276.98 288.94C277.23 288.8 277.37 288.41 277.12 288.18C277.03 288 276.8 287.86 276.57 287.89ZM274.51 286.83C272.48 285.76 270.49 284.62 268.53 283.41C268.53 283.41 268.53 283.41 268.53 283.41C268.53 283.41 268.53 283.41 268.53 283.41C268.48 283.33 268.07 282.71 268.02 282.63C269.62 283.31 271.25 283.98 272.85 284.66C272.94 284.73 273.03 284.71 273.1 284.64C273.55 285.37 274.01 286.1 274.51 286.83ZM267.47 281.76C267.45 281.76 267.43 281.74 267.41 281.74C267.31 281.6 266.56 280.46 266.47 280.32C266.88 280.46 267.27 280.62 267.66 280.75C269.1 281.3 270.51 281.94 271.91 282.63C272.18 283.09 272.43 283.52 272.69 283.95C270.95 283.22 269.21 282.49 267.47 281.76ZM269.26 280.73C268.69 280.48 268.09 280.25 267.5 280.05C267.22 279.93 266.56 279.79 266.01 279.61C265.85 279.36 264.55 277.39 264.39 277.14C266.38 278.15 268.39 279.04 270.47 279.89C270.77 280.5 271.09 281.1 271.43 281.71C270.72 281.37 269.99 281.05 269.26 280.73ZM268.62 277.01C269.44 277.42 269.74 278.29 270.08 279.06C267.91 278.17 265.81 277.19 263.73 276.11C263.58 275.89 262.43 274.14 262.29 273.92C263.47 274.51 264.69 275.11 265.9 275.68C266.81 276.11 267.7 276.55 268.62 277.01ZM245.01 273.55C243.7 272.91 242.61 272.02 241.71 270.97C243.13 271.45 244.57 271.95 245.99 272.43C246.42 273.21 246.99 273.92 247.7 274.54C246.79 274.31 245.87 273.99 245.01 273.55ZM244.71 266.79C244.69 267.45 244.73 268.14 244.82 268.78C242.88 267.91 240.98 266.95 239.13 265.9C238.88 265.01 238.72 264.09 238.61 263.15C240.66 264.3 242.7 265.49 244.69 266.77C244.69 266.77 244.71 266.77 244.71 266.79ZM238.47 261.05C238.47 260.62 238.49 260.21 238.54 259.77C240.75 261.03 242.93 262.35 245.1 263.7C244.91 264.48 244.8 265.28 244.73 266.1C242.72 264.8 240.64 263.59 238.51 262.45C238.49 261.99 238.47 261.51 238.47 261.05ZM245.58 271.63C244.09 271.13 242.61 270.63 241.14 270.13C241.12 270.13 241.07 270.1 241.05 270.1C240.32 269.07 239.77 267.93 239.36 266.72C241.19 267.73 243.04 268.64 244.91 269.49C245.05 270.24 245.28 270.97 245.58 271.63ZM238.63 259.11C238.72 258.38 238.88 257.67 239.06 256.98C241.3 258.47 243.54 259.98 245.78 261.46C245.58 261.99 245.39 262.54 245.26 263.09C243.06 261.71 240.87 260.39 238.63 259.11ZM246.01 260.89C243.84 259.43 241.65 257.99 239.47 256.53C239.45 256.43 239.38 256.34 239.27 256.3C239.27 256.3 239.27 256.3 239.25 256.3C239.52 255.47 239.89 254.67 240.3 253.92C242.74 255.29 245.07 256.82 247.27 258.54C247.25 258.63 247.18 258.72 247.13 258.81C246.72 259.45 246.35 260.14 246.01 260.89ZM247.45 257.9C245.28 256.23 243.02 254.72 240.64 253.39C240.94 252.91 241.28 252.46 241.62 252C243.89 253.51 246.1 255.09 248.25 256.73C248.55 256.96 248.98 256.55 248.69 256.3C246.51 254.63 244.3 253.03 242.01 251.52C242.49 250.99 243.02 250.49 243.57 250.03C243.59 250.03 243.61 250.06 243.66 250.03C243.66 250.03 243.66 250.03 243.66 250.03C244.48 250.88 245.55 251.57 246.45 252.34C247.61 253.33 248.73 254.35 249.85 255.38C249.9 255.43 249.97 255.45 250.03 255.47C249.21 256.21 248.46 257.01 247.77 257.9C247.68 257.85 247.54 257.85 247.45 257.9ZM250.31 254.97C249.28 254.03 248.25 253.1 247.18 252.18C246.19 251.34 245.03 250.56 244.11 249.65C244.62 249.28 245.14 248.94 245.69 248.64C245.71 248.62 245.76 248.62 245.78 248.59C245.81 248.64 245.83 248.69 245.87 248.73C248.02 250.4 250.13 252.14 252.16 253.94C252.16 253.94 252.18 253.94 252.18 253.97C251.57 254.31 250.97 254.72 250.4 255.2C250.4 255.13 250.38 255.04 250.31 254.97ZM252.59 253.46C250.56 251.66 248.48 249.94 246.33 248.27C246.99 247.95 247.7 247.7 248.41 247.52C248.34 248.07 249.76 248.75 249.99 248.91C251.66 250.03 253.23 251.29 254.74 252.62C254.03 252.91 253.35 253.26 252.69 253.62C252.69 253.58 252.64 253.51 252.59 253.46ZM255.27 252.27C254.33 251.45 253.37 250.67 252.39 249.9C251.82 249.46 251.22 249.03 250.61 248.62C250.31 248.41 249.58 247.79 249.19 247.7C249.19 247.7 249.19 247.68 249.19 247.68C249.21 247.54 249.21 247.45 249.17 247.36C250.1 247.18 251.06 247.09 252.05 247.13C253.9 248.69 255.75 250.22 257.6 251.77C256.82 251.93 256.09 252.14 255.36 252.41C255.34 252.37 255.31 252.32 255.27 252.27ZM253.07 247.2C254.54 247.36 255.98 247.75 257.35 248.37C258.29 249.37 259.2 250.38 260.14 251.38C259.54 251.43 258.95 251.52 258.35 251.61C256.59 250.15 254.83 248.66 253.07 247.2ZM258.97 249.23C259.34 249.46 259.7 249.71 260.05 249.99C260.18 250.1 260.32 250.1 260.46 250.06C260.5 250.13 260.55 250.19 260.62 250.26C261.1 250.63 261.6 250.99 262.1 251.34C261.69 251.31 261.3 251.34 260.91 251.34C260.27 250.63 259.61 249.92 258.97 249.23ZM269.46 254.26C269.44 254.26 269.28 254.26 269.26 254.26C269.19 254.26 269.12 254.29 269.05 254.31C266.47 253.03 264 251.52 261.67 249.81C261.87 249.42 262.08 249.03 262.29 248.64C263.84 249.35 265.39 250.1 266.93 250.88C267.7 251.27 268.48 251.68 269.26 252.11C269.76 252.39 270.29 252.73 270.81 253.01C270.49 253.44 270.15 253.92 269.78 254.38C269.69 254.31 269.58 254.26 269.46 254.26ZM269.26 251.38C268.48 250.97 267.7 250.56 266.9 250.17C265.49 249.44 264.05 248.75 262.58 248.11C262.81 247.7 263.06 247.29 263.31 246.88C263.34 246.86 263.34 246.83 263.36 246.81C263.63 247.25 264.96 247.7 265.3 247.89C266.01 248.25 266.72 248.62 267.41 248.98C268.94 249.76 270.45 250.56 271.95 251.36C271.95 251.36 271.95 251.36 271.95 251.36C271.7 251.73 271.45 252.09 271.18 252.48C270.51 252.16 269.87 251.73 269.26 251.38ZM272.05 250.63C271.98 250.56 271.89 250.56 271.79 250.56C269.85 249.53 267.91 248.53 265.97 247.52C265.74 247.41 264.53 246.61 263.66 246.33C263.95 245.85 264.27 245.37 264.59 244.89C265.12 245.26 266.06 245.51 266.38 245.65C268.73 246.74 271.02 247.98 273.28 249.3C272.94 249.81 272.62 250.33 272.3 250.83C272.21 250.77 272.11 250.7 272.05 250.63ZM269.37 246.47C268.59 246.06 267.79 245.67 266.99 245.28C266.65 245.12 266.31 244.96 265.97 244.8C265.74 244.69 265.51 244.59 265.28 244.48C265.19 244.39 265.07 244.34 264.98 244.32C265.01 244.3 265.01 244.25 265.01 244.23C265.37 243.68 265.76 243.15 266.17 242.61C267.59 243.09 268.87 244.05 270.13 244.82C271.45 245.65 272.78 246.47 274.1 247.29C274.19 247.36 274.29 247.34 274.38 247.31C274.1 247.82 273.85 248.3 273.55 248.78C272.18 247.98 270.79 247.2 269.37 246.47ZM274.56 246.99C274.56 246.9 274.51 246.83 274.42 246.79C272.98 245.9 271.54 245.01 270.1 244.14C268.96 243.43 267.82 242.61 266.56 242.15C266.81 241.83 267.06 241.49 267.34 241.17C270.17 242.24 272.98 243.41 275.54 245.07C275.22 245.71 274.9 246.38 274.56 246.99ZM269.49 240.91C268.87 240.66 268.27 240.43 267.66 240.18C267.63 240.16 267.61 240.11 267.59 240.09C267.43 239.91 267.25 239.73 267.09 239.54C267.63 239.86 268.18 240.18 268.75 240.5C268.98 240.64 269.23 240.78 269.49 240.91ZM234.97 284.41C234.83 284.27 234.67 284.25 234.51 284.27C231.27 281.94 228.55 278.9 226.51 275.47C223.68 270.7 222.51 265.17 222.81 259.63C223.11 254.4 224.8 249.17 227.5 244.69C230.22 240.21 235.06 237.26 239.86 235.38C248.89 231.86 259.77 233.19 266.54 240.46C264.32 243.2 262.38 246.15 260.75 249.28C260.73 249.28 260.71 249.28 260.71 249.3C260.69 249.23 260.62 249.17 260.55 249.1C256.55 246.01 250.93 245.17 246.26 247.22C241.51 249.3 238.38 253.65 237.65 258.77C236.94 263.73 238.22 269.26 242.01 272.71C246.06 276.43 252.09 276.55 257.07 274.93C258.33 274.51 259.54 273.97 260.73 273.37C262.97 276.78 265.21 280.21 267.47 283.61C262.26 287.59 255.73 289.53 249.28 289.26C249.26 289.26 249.26 289.23 249.23 289.23C249.12 289.14 248.98 289.17 248.91 289.26C244.87 289.03 240.89 287.95 237.28 285.99C236.69 285.69 236.14 285.37 235.61 285.03C235.38 284.82 235.18 284.62 234.97 284.41ZM244.96 289.85C245.94 290.65 246.99 291.38 248.07 292.05C245.33 291.18 242.67 290.01 240.21 288.5C241.76 289.1 243.34 289.55 244.96 289.85ZM250.7 292.78C250.67 292.75 250.65 292.73 250.63 292.73C249.05 292 247.59 291.11 246.19 290.06C247.34 290.22 248.5 290.31 249.65 290.33C251.34 291.52 253.07 292.59 254.9 293.58C254.83 293.55 254.74 293.55 254.65 293.53C253.33 293.33 252 293.07 250.7 292.78ZM256.21 293.55C254.31 292.59 252.48 291.52 250.74 290.33C251.59 290.31 252.43 290.26 253.28 290.17C255.13 291.45 256.98 292.73 258.83 293.99C257.99 293.94 257.17 293.85 256.37 293.76C256.37 293.69 256.32 293.6 256.21 293.55ZM254.19 290.08C255.13 289.97 256.09 289.78 257.01 289.58C257.07 289.65 257.14 289.69 257.23 289.78C257.87 290.35 258.54 290.9 259.2 291.43C260.41 292.39 261.67 293.3 262.97 294.15C261.99 294.17 260.98 294.15 260 294.08C258.06 292.75 256.14 291.41 254.19 290.08ZM263.47 293.74C262.45 293.07 261.44 292.37 260.46 291.63C259.89 291.2 259.34 290.77 258.79 290.31C258.51 290.08 258.22 289.83 257.94 289.6C257.92 289.58 257.85 289.51 257.76 289.42C258.33 289.26 258.93 289.1 259.5 288.91C259.52 288.94 259.57 288.96 259.61 288.98C259.63 289.01 259.68 289.01 259.7 289.03C259.79 289.07 259.91 289.03 259.98 288.96C260.09 289.44 261.05 290.13 261.28 290.35C261.85 290.9 262.47 291.41 263.11 291.91C264.05 292.64 265.03 293.3 266.06 293.92C265.23 294.01 264.41 294.08 263.59 294.13C263.63 293.99 263.63 293.83 263.47 293.74ZM266.88 293.69C265.12 292.69 263.47 291.5 261.94 290.15C261.74 289.94 261.05 289.07 260.41 288.57C261.05 288.34 261.69 288.09 262.33 287.79C263.79 288.85 265.28 289.85 266.79 290.83C267.54 291.34 268.3 291.82 269.07 292.3C269.37 292.48 269.69 292.78 270.06 292.91C269.07 293.28 268.05 293.55 266.97 293.76C266.95 293.74 266.93 293.71 266.88 293.69ZM270.65 292.34C270.56 292.23 270.4 292.25 270.29 292.3C270.26 292.3 270.26 292.32 270.24 292.32C270.06 292.21 269.9 292.09 269.71 292C269.39 291.79 269.05 291.59 268.73 291.38C267.98 290.9 267.2 290.4 266.45 289.92C265.28 289.14 264.11 288.34 262.97 287.54C264.05 287.04 265.07 286.47 266.08 285.85C266.08 285.85 266.08 285.85 266.08 285.85C266.29 286.01 266.49 286.17 266.72 286.35C267.04 286.61 267.36 286.86 267.68 287.09C268.32 287.59 268.94 288.07 269.58 288.57C270.77 289.51 271.98 290.42 273.17 291.36C272.41 291.84 271.63 292.27 270.79 292.64C270.79 292.53 270.74 292.46 270.65 292.34ZM269.35 287.63C268.02 286.59 267.28 286.01 267.13 285.9C266.97 285.76 266.81 285.62 266.63 285.46C267.13 285.12 267.63 284.75 268.14 284.37C270.61 285.87 273.14 287.29 275.73 288.59C275.75 288.64 275.77 288.66 275.82 288.71C275.18 289.58 274.47 290.33 273.65 290.97C273.07 290.53 271.64 289.41 269.35 287.63Z" id="baAF7lxIm"></path><path d="M261.99 295.22C259.86 295.22 257.6 295.04 254.99 294.67C246.81 293.53 239.84 290.47 234.83 285.81C227.06 280.66 222.15 272.21 221.71 263.2C221.42 257.44 222.67 251.63 225.35 246.38C226.86 243.41 228.57 241.17 230.58 239.52C232.8 237.71 235.25 236.23 237.83 235.09C241.87 233.3 245.97 232.39 249.92 232.39C251.31 232.39 252.71 232.5 254.06 232.73C256.75 233.19 259.34 234.08 261.67 235.36C261.78 235.34 261.92 235.36 262.03 235.43C262.83 235.88 269.17 239.5 269.97 239.95C270.45 240.23 270.97 240.5 271.45 240.78C273.28 241.78 275.18 242.81 276.69 244.23C276.8 244.34 276.87 244.48 276.87 244.62C276.87 244.75 276.82 244.89 276.71 245.01C276.69 245.05 276.69 245.1 276.66 245.14C274.97 248.75 272.82 252.18 270.31 255.38C270.17 255.54 270.03 255.59 269.92 255.59C269.74 255.59 269.55 255.47 269.44 255.31C269.44 255.31 269.42 255.31 269.42 255.31C269.41 255.31 269.38 255.31 269.37 255.31C269.19 255.45 268.96 255.47 268.75 255.36C267.04 254.51 265.33 253.55 263.7 252.53C263.02 252.43 262.31 252.41 261.6 252.41C256.07 252.41 251.13 254.81 248.37 258.83C247.29 260.39 246.54 262.06 246.13 263.75C246.13 263.82 246.1 263.89 246.08 263.95C245.83 265.01 245.71 266.06 245.76 267.09C245.78 267.84 245.87 268.57 246.01 269.26C246.1 269.35 246.15 269.49 246.08 269.6C246.58 271.75 247.68 273.37 249.26 274.33C249.42 274.42 249.51 274.58 249.53 274.77C250.01 274.81 250.51 274.83 250.99 274.83C253.97 274.83 257.28 273.94 260.55 272.23C260.71 272.09 260.94 272.07 261.17 272.18C261.76 272.47 266.51 274.77 267.11 275.06C267.34 275.18 267.54 275.27 267.77 275.38C268.39 275.68 269.05 275.98 269.62 276.37C270.15 276.71 270.4 277.28 270.65 277.83C270.66 277.85 270.73 278.01 270.74 278.03C272.34 281.42 274.24 284.69 276.43 287.75C276.45 287.76 276.56 287.81 276.57 287.82C276.82 287.79 277.05 287.93 277.17 288.14C277.28 288.25 277.33 288.39 277.3 288.55C277.28 288.73 277.17 288.91 277.01 289.01C276.94 289.12 276.85 289.19 276.73 289.26C273.94 293.21 268.98 295.22 261.99 295.22C261.99 295.22 261.99 295.22 261.99 295.22ZM237.9 235.22C235.31 236.37 232.89 237.85 230.67 239.63C228.66 241.26 226.97 243.5 225.49 246.45C222.83 251.68 221.6 257.46 221.87 263.2C222.33 272.16 227.2 280.57 234.95 285.69C239.95 290.33 246.88 293.37 255.04 294.54C257.62 294.9 259.89 295.09 262.01 295.09C268.94 295.09 273.87 293.1 276.66 289.19C276.66 289.19 276.67 289.18 276.69 289.17C276.7 289.17 276.71 289.17 276.71 289.17C276.8 289.12 276.89 289.05 276.94 288.96C276.94 288.96 276.94 288.95 276.94 288.94C276.95 288.92 276.96 288.92 276.96 288.91C277.1 288.85 277.19 288.69 277.21 288.55C277.21 288.48 277.21 288.37 277.1 288.25C277.09 288.25 277.08 288.23 277.07 288.23C277.01 288.07 276.8 287.95 276.62 287.98C276.62 287.98 276.61 287.98 276.59 287.98C276.46 287.91 276.38 287.87 276.37 287.86C274.17 284.78 272.25 281.49 270.65 278.1C270.64 278.08 270.57 277.92 270.56 277.9C270.31 277.37 270.06 276.82 269.58 276.5C269.01 276.11 268.37 275.82 267.75 275.54C267.52 275.43 267.29 275.34 267.09 275.22C266.49 274.93 261.74 272.63 261.14 272.34C260.98 272.27 260.82 272.27 260.69 272.39C257.39 274.1 254.06 275.02 251.06 275.02C250.54 275.02 250.01 274.99 249.51 274.93C249.5 274.93 249.48 274.93 249.44 274.93C249.44 274.88 249.44 274.86 249.44 274.86C249.44 274.7 249.37 274.58 249.23 274.49C247.63 273.51 246.51 271.84 245.99 269.65C245.99 269.64 245.99 269.64 245.99 269.62C245.99 269.61 245.99 269.6 245.99 269.6C246.01 269.55 246.03 269.46 245.94 269.39C245.94 269.39 245.93 269.39 245.92 269.37C245.92 269.36 245.92 269.35 245.92 269.35C245.76 268.64 245.69 267.89 245.67 267.11C245.65 266.08 245.76 265.01 246.01 263.93C246.01 263.93 246.01 263.91 246.01 263.91C246.03 263.86 246.06 263.82 246.03 263.77C246.03 263.77 246.03 263.77 246.03 263.77C246.03 263.77 246.03 263.77 246.03 263.77C246.47 262.03 247.22 260.37 248.3 258.79C251.09 254.72 256.07 252.3 261.65 252.3C262.35 252.3 263.09 252.34 263.79 252.41C263.8 252.41 263.81 252.43 263.82 252.43C265.44 253.49 267.15 254.45 268.87 255.29C269.03 255.36 269.21 255.36 269.35 255.25C269.35 255.24 269.36 255.24 269.37 255.22C269.43 255.22 269.46 255.22 269.46 255.22C269.49 255.22 269.49 255.22 269.51 255.22C269.51 255.22 269.53 255.22 269.55 255.22C269.58 255.25 269.6 255.27 269.6 255.27C269.69 255.43 269.83 255.52 269.97 255.52C270.06 255.52 270.15 255.47 270.24 255.38C272.75 252.21 274.88 248.78 276.57 245.19C276.59 245.14 276.59 245.1 276.62 245.05C276.62 245.05 276.62 245.04 276.62 245.03C276.63 245.01 276.64 245.01 276.64 245.01C276.73 244.91 276.78 244.8 276.78 244.71C276.78 244.62 276.73 244.53 276.64 244.43C275.13 243.02 273.26 241.99 271.43 241.01C270.93 240.73 270.42 240.46 269.92 240.18C269.13 239.73 262.78 236.11 261.99 235.66C261.9 235.61 261.81 235.59 261.69 235.61C261.69 235.61 261.68 235.61 261.67 235.61C261.65 235.6 261.65 235.59 261.65 235.59C259.31 234.31 256.75 233.44 254.06 232.96C252.73 232.66 251.34 232.55 249.94 232.55C245.99 232.55 241.94 233.44 237.9 235.22ZM260 294.17C260 294.17 259.99 294.17 259.98 294.17L253.99 290.03C254.11 290.02 254.18 290.01 254.19 290.01C255.11 289.9 256.07 289.71 257.01 289.51C257.01 289.51 257.02 289.51 257.05 289.51C257.07 289.52 257.07 289.53 257.07 289.53C257.12 289.58 257.17 289.6 257.21 289.65C257.22 289.65 257.29 289.73 257.3 289.74C257.87 290.24 258.49 290.77 259.27 291.38C260.41 292.3 261.65 293.17 263.04 294.08C263.05 294.09 263.12 294.13 263.25 294.22C263.09 294.22 263.01 294.22 262.99 294.22C262.7 294.22 262.38 294.22 262.08 294.22C261.42 294.22 260.71 294.19 260 294.17ZM262.08 294.06C262.31 294.06 262.51 294.06 262.74 294.06C261.42 293.19 260.25 292.34 259.15 291.47C258.38 290.86 257.74 290.33 257.17 289.83C257.16 289.82 257.08 289.77 257.07 289.76C257.03 289.74 257.01 289.69 256.96 289.67C256.09 289.87 255.22 290.03 254.38 290.15C254.75 290.41 256.64 291.69 260.02 294.01C260.95 294.04 261.64 294.06 262.08 294.06ZM263.5 294.08C263.54 293.99 263.54 293.87 263.41 293.78C262.38 293.12 261.37 292.41 260.39 291.68C259.77 291.22 259.2 290.74 258.72 290.35C258.45 290.13 258.15 289.87 257.87 289.65C257.87 289.65 257.85 289.62 257.81 289.58C257.78 289.53 257.74 289.49 257.67 289.44C257.66 289.43 257.63 289.4 257.58 289.35C257.66 289.33 257.71 289.33 257.71 289.33C258.24 289.19 258.81 289.03 259.43 288.82C259.43 288.82 259.45 288.81 259.47 288.8C259.49 288.81 259.5 288.82 259.5 288.82C259.52 288.85 259.57 288.87 259.59 288.87C259.6 288.87 259.67 288.91 259.68 288.91C259.73 288.94 259.82 288.91 259.89 288.87C259.89 288.86 259.92 288.84 259.98 288.8C259.99 288.87 260 288.91 260 288.91C260.09 289.26 260.69 289.78 261.05 290.08C261.14 290.17 261.23 290.24 261.28 290.29C261.78 290.77 262.38 291.27 263.11 291.84C263.98 292.53 264.96 293.19 266.06 293.85C266.07 293.86 266.13 293.9 266.24 293.97C266.12 293.98 266.05 293.99 266.03 293.99C265.23 294.1 264.41 294.17 263.57 294.22C263.56 294.22 263.52 294.21 263.45 294.19C263.48 294.13 263.49 294.09 263.5 294.08ZM257.94 289.49C257.97 289.51 257.99 289.53 257.99 289.55C258.26 289.78 258.54 290.03 258.83 290.26C259.31 290.65 259.89 291.13 260.5 291.59C261.49 292.32 262.49 293.03 263.52 293.69C263.66 293.78 263.7 293.92 263.68 294.06C264.41 294.01 265.14 293.97 265.83 293.87C264.8 293.26 263.89 292.64 263.06 291.98C262.33 291.41 261.74 290.9 261.23 290.42C261.19 290.38 261.1 290.31 261.01 290.22C260.64 289.92 260.09 289.46 259.93 289.07C259.84 289.12 259.75 289.12 259.68 289.1C259.67 289.09 259.6 289.06 259.59 289.05C259.57 289.03 259.52 289.03 259.5 289.01C258.88 289.17 258.38 289.3 257.9 289.44C257.92 289.46 257.92 289.46 257.94 289.49ZM258.83 294.08C258.03 294.01 257.21 293.94 256.37 293.83C256.36 293.83 256.34 293.83 256.3 293.83C256.3 293.79 256.3 293.76 256.3 293.76C256.3 293.69 256.25 293.65 256.18 293.62C254.31 292.66 252.46 291.59 250.7 290.4C250.68 290.39 250.61 290.35 250.49 290.26C250.64 290.26 250.73 290.26 250.74 290.26C251.54 290.24 252.39 290.19 253.28 290.1C253.28 290.1 253.29 290.1 253.3 290.1L259.11 294.1C258.94 294.09 258.85 294.08 258.83 294.08ZM258.56 293.92C258.03 293.55 253.81 290.63 253.28 290.26C252.5 290.33 251.73 290.38 250.99 290.4C252.69 291.54 254.45 292.57 256.25 293.49C256.34 293.53 256.41 293.6 256.43 293.69C257.17 293.78 257.87 293.85 258.56 293.92ZM266.9 293.81C266.88 293.78 266.86 293.76 266.83 293.76C265.07 292.75 263.41 291.57 261.9 290.22C261.83 290.15 261.71 290.01 261.55 289.83C261.23 289.46 260.8 288.96 260.39 288.64C260.38 288.63 260.34 288.6 260.27 288.55C260.36 288.52 260.4 288.51 260.41 288.5C261.03 288.27 261.67 288.02 262.33 287.73C262.33 287.72 262.35 287.72 262.38 287.7C262.4 287.72 262.42 287.72 262.42 287.73C263.91 288.78 265.39 289.81 266.88 290.77C267.54 291.2 268.27 291.66 269.17 292.23C269.26 292.3 269.37 292.37 269.49 292.43C269.69 292.59 269.92 292.75 270.15 292.82C270.16 292.83 270.22 292.85 270.33 292.89C270.22 292.93 270.16 292.96 270.15 292.96C269.19 293.3 268.14 293.6 267.04 293.78C267.03 293.79 266.99 293.8 266.93 293.83C266.91 293.81 266.9 293.81 266.9 293.81ZM261.67 289.71C261.83 289.87 261.94 290.01 262.01 290.08C263.52 291.43 265.17 292.62 266.93 293.62C266.95 293.65 266.97 293.65 266.99 293.67C268.02 293.49 268.98 293.23 269.87 292.91C269.69 292.82 269.53 292.69 269.35 292.57C269.23 292.5 269.14 292.43 269.05 292.37C268.16 291.79 267.43 291.34 266.77 290.9C265.3 289.94 263.82 288.91 262.35 287.89C261.74 288.14 261.14 288.39 260.57 288.59C260.96 288.91 261.37 289.37 261.67 289.71ZM254.65 293.62C253.33 293.42 252 293.17 250.7 292.85C250.69 292.84 250.68 292.83 250.67 292.82C250.65 292.8 250.63 292.8 250.63 292.78C249.05 292.05 247.57 291.13 246.19 290.1C246.18 290.09 246.1 290.03 245.97 289.92C246.14 289.95 246.24 289.96 246.26 289.97C247.38 290.13 248.55 290.22 249.71 290.24C249.72 290.24 249.72 290.24 249.74 290.24C249.75 290.25 249.76 290.26 249.76 290.26C251.43 291.45 253.19 292.53 254.99 293.49C255.02 293.5 255.13 293.58 255.34 293.71C254.93 293.66 254.7 293.63 254.65 293.62ZM254.51 293.44C252.85 292.53 251.2 291.52 249.65 290.42C248.59 290.4 247.52 290.31 246.49 290.17C247.79 291.13 249.19 291.95 250.67 292.66C250.7 292.66 250.72 292.69 250.74 292.71C251.98 293.01 253.23 293.26 254.51 293.44ZM270.72 292.64C270.72 292.55 270.7 292.48 270.61 292.39C270.54 292.32 270.45 292.32 270.33 292.37C270.33 292.37 270.3 292.37 270.26 292.39C270.21 292.36 270.18 292.35 270.17 292.34C270.01 292.25 269.85 292.14 269.69 292.05C269.37 291.84 269.03 291.63 268.71 291.43C268.05 290.99 267.31 290.54 266.42 289.94C265.33 289.21 264.18 288.43 262.95 287.57C262.94 287.56 262.9 287.54 262.83 287.5C262.9 287.47 262.94 287.45 262.95 287.45C264 286.95 265.05 286.38 266.03 285.76C266.04 285.76 266.08 285.73 266.15 285.69L266.15 285.78L273.26 291.34C273.2 291.38 273.17 291.4 273.17 291.41C272.46 291.91 271.66 292.34 270.79 292.71C270.78 292.71 270.76 292.73 270.72 292.75C270.72 292.69 270.72 292.65 270.72 292.64ZM270.72 292.3C270.79 292.39 270.83 292.46 270.86 292.53C271.63 292.18 272.37 291.79 273.03 291.34C272.33 290.8 266.77 286.46 266.08 285.92C265.14 286.51 264.14 287.06 263.13 287.52C264.34 288.37 265.44 289.12 266.49 289.83C267.38 290.4 268.09 290.88 268.75 291.29C269.07 291.5 269.42 291.7 269.74 291.91C269.9 292 270.06 292.11 270.22 292.21C270.22 292.21 270.23 292.21 270.24 292.21C270.24 292.21 270.24 292.21 270.24 292.21C270.33 292.21 270.4 292.18 270.47 292.18C270.56 292.18 270.65 292.23 270.72 292.3ZM248.05 292.11C245.19 291.22 242.51 290.01 240.16 288.57C240.17 288.56 240.22 288.45 240.23 288.43C241.74 289.01 243.34 289.46 244.98 289.78C244.99 289.79 245 289.8 245.01 289.81C245.99 290.61 247.04 291.34 248.11 292C248.15 292.02 248.33 292.12 248.66 292.3C248.29 292.19 248.09 292.13 248.05 292.11ZM247.5 291.77C246.61 291.2 245.74 290.58 244.91 289.92C243.57 289.67 242.24 289.3 240.94 288.85C242.95 290.01 245.14 290.99 247.5 291.77ZM267.11 285.97C266.99 285.87 266.9 285.78 266.79 285.69C266.72 285.65 266.67 285.58 266.61 285.53C266.6 285.53 266.58 285.5 266.54 285.46C266.59 285.44 266.62 285.42 266.63 285.42C267.09 285.12 267.57 284.75 268.11 284.34C268.12 284.34 268.13 284.33 268.16 284.32C268.19 284.33 268.2 284.34 268.21 284.34C270.65 285.85 273.21 287.27 275.77 288.57C275.77 288.57 275.78 288.58 275.79 288.59L275.91 288.75C275.89 288.78 275.89 288.8 275.89 288.8C275.27 289.65 274.54 290.4 273.71 291.06C273.71 291.06 273.7 291.06 273.67 291.06C269.73 288 267.55 286.31 267.11 285.97ZM266.88 285.58C266.99 285.67 267.09 285.76 267.2 285.85C267.84 286.35 273 290.38 273.65 290.88C274.42 290.26 275.13 289.53 275.7 288.73C275.7 288.73 275.66 288.69 275.66 288.69C273.1 287.41 270.56 285.99 268.14 284.48C267.63 284.85 267.2 285.19 266.77 285.46C266.81 285.51 266.83 285.53 266.88 285.58ZM249.26 289.37C249.26 289.37 249.25 289.37 249.23 289.37C249.19 289.34 249.17 289.33 249.17 289.33C249.07 289.26 248.98 289.3 248.94 289.33C248.94 289.33 248.93 289.33 248.91 289.35C248.9 289.35 248.89 289.35 248.89 289.35C244.78 289.12 240.73 287.98 237.23 286.06C236.69 285.76 236.14 285.44 235.61 285.07C235.36 284.82 235.15 284.64 234.95 284.46C234.83 284.34 234.72 284.32 234.58 284.34C234.58 284.34 234.57 284.34 234.56 284.34C234.55 284.33 234.54 284.32 234.54 284.32C231.36 282.03 228.59 278.99 226.51 275.5C223.77 270.88 222.49 265.37 222.81 259.61C223.09 254.49 224.78 249.17 227.52 244.64C229.87 240.78 234.15 237.55 239.91 235.31C243.06 234.08 246.49 233.44 249.83 233.44C256.5 233.44 262.49 235.91 266.67 240.41C266.68 240.41 266.69 240.43 266.72 240.46C266.69 240.48 266.68 240.5 266.67 240.5C264.46 243.27 262.51 246.22 260.89 249.3C260.89 249.3 260.88 249.31 260.87 249.33C260.85 249.33 260.85 249.33 260.85 249.33C260.82 249.33 260.82 249.33 260.8 249.35C260.8 249.35 260.77 249.36 260.73 249.37C260.72 249.33 260.71 249.31 260.71 249.3C260.69 249.23 260.64 249.17 260.57 249.12C258.08 247.2 254.95 246.15 251.77 246.15C249.87 246.15 248.05 246.51 246.35 247.27C241.74 249.3 238.54 253.58 237.78 258.74C237.01 264.14 238.65 269.46 242.13 272.62C244.39 274.7 247.5 275.82 251.09 275.82C253.05 275.82 255.13 275.47 257.12 274.83C258.24 274.47 259.45 273.97 260.78 273.28C260.78 273.28 260.8 273.27 260.85 273.26L267.66 283.61C267.63 283.64 267.61 283.65 267.61 283.66C262.7 287.36 256.62 289.39 250.42 289.39C250.03 289.39 249.65 289.39 249.26 289.37ZM250.42 289.23C256.57 289.23 262.58 287.25 267.36 283.61C266.69 282.6 261.37 274.5 260.71 273.49C259.41 274.15 258.22 274.65 257.1 275.02C255.11 275.66 253.01 276 251.02 276C247.41 276 244.27 274.88 241.97 272.78C238.47 269.58 236.8 264.21 237.58 258.77C238.33 253.55 241.58 249.21 246.24 247.18C247.95 246.42 249.78 246.06 251.7 246.06C254.93 246.06 258.08 247.13 260.59 249.07C260.64 249.12 260.69 249.17 260.73 249.21C262.33 246.17 264.25 243.25 266.45 240.5C262.29 236.07 256.37 233.65 249.76 233.65C246.45 233.65 243.02 234.29 239.89 235.5C234.15 237.71 229.9 240.94 227.57 244.75C224.82 249.26 223.15 254.56 222.88 259.66C222.56 265.39 223.84 270.86 226.56 275.45C228.59 278.9 231.36 281.92 234.51 284.21C234.7 284.18 234.86 284.23 234.99 284.37C235.18 284.55 235.38 284.75 235.63 284.98C236.16 285.33 236.71 285.65 237.23 285.94C240.71 287.86 244.71 288.98 248.8 289.21C248.91 289.12 249.07 289.12 249.21 289.21C249.22 289.21 249.24 289.21 249.28 289.21C249.78 289.23 250.16 289.23 250.42 289.23ZM274.47 286.9C272.43 285.83 270.42 284.69 268.48 283.47C268.48 283.47 268.46 283.46 268.43 283.43L267.79 282.47C270.83 283.74 272.51 284.45 272.85 284.59C272.87 284.62 272.91 284.62 272.94 284.62C272.94 284.62 272.94 284.62 272.94 284.62C272.98 284.62 273.01 284.59 273.03 284.57C273.03 284.57 273.06 284.54 273.1 284.5C273.12 284.56 273.14 284.59 273.14 284.59C273.6 285.35 274.08 286.08 274.56 286.79C274.57 286.81 274.63 286.89 274.74 287.04C274.58 286.96 274.49 286.91 274.47 286.9ZM274.29 286.63C273.87 286.01 273.49 285.39 273.07 284.75C273.03 284.78 272.98 284.78 272.94 284.78C272.94 284.78 272.94 284.78 272.94 284.78C272.89 284.78 272.85 284.78 272.8 284.75C272.49 284.62 270.96 283.98 268.21 282.81L268.57 283.36C271.09 284.85 272.99 285.94 274.29 286.63ZM267.45 281.83C267.43 281.83 267.43 281.81 267.41 281.81C267.4 281.81 267.4 281.81 267.38 281.81L266.31 280.18C266.43 280.22 266.5 280.25 266.51 280.25C266.93 280.39 267.31 280.55 267.7 280.69C269.05 281.19 270.42 281.81 271.95 282.56C271.96 282.56 271.96 282.56 271.98 282.56C271.99 282.57 272 282.58 272 282.58C272.23 282.97 272.46 283.41 272.78 283.91C272.78 283.92 272.81 283.99 272.87 284.11C269.62 282.74 267.81 281.98 267.45 281.83ZM267.52 281.69C268.02 281.9 272.03 283.58 272.53 283.79C272.27 283.38 272.07 283.02 271.89 282.7C270.38 281.94 269.01 281.35 267.68 280.85C267.36 280.73 267.04 280.59 266.7 280.48C266.75 280.56 267.01 280.96 267.47 281.67C267.49 281.67 267.5 281.68 267.52 281.69ZM271.38 281.81C270.61 281.44 269.9 281.12 269.21 280.82C268.64 280.59 268.05 280.34 267.47 280.14C267.36 280.09 267.15 280.05 266.93 279.98C266.63 279.91 266.29 279.82 265.99 279.7C265.99 279.7 265.98 279.7 265.97 279.7L264.18 276.98C264.33 277.07 264.42 277.11 264.43 277.12C266.4 278.1 268.43 279.02 270.49 279.84C270.49 279.84 270.5 279.84 270.51 279.84C270.53 279.85 270.54 279.86 270.54 279.86C270.83 280.46 271.15 281.1 271.5 281.71C271.5 281.73 271.53 281.79 271.59 281.9C271.47 281.84 271.4 281.81 271.38 281.81ZM266.95 279.82C267.18 279.89 267.38 279.93 267.5 279.98C268.09 280.21 268.66 280.43 269.26 280.66C269.87 280.91 270.51 281.21 271.22 281.53C270.93 280.98 270.65 280.46 270.4 279.91C268.43 279.13 266.49 278.24 264.59 277.3C264.69 277.45 265.18 278.2 266.06 279.54C266.47 279.66 266.77 279.76 266.95 279.82ZM270.03 279.13C267.89 278.26 265.76 277.26 263.68 276.18C263.68 276.18 263.67 276.18 263.66 276.18L262.06 273.76C264.84 275.12 266.39 275.87 266.7 276.02C267.34 276.34 267.98 276.64 268.62 276.96C269.37 277.33 269.69 278.06 269.99 278.77C270.03 278.86 270.08 278.97 270.13 279.06C270.13 279.07 270.16 279.12 270.22 279.2C270.11 279.16 270.05 279.14 270.03 279.13ZM269.92 278.9C269.9 278.86 269.87 278.81 269.87 278.79C269.58 278.1 269.28 277.39 268.57 277.05C267.93 276.73 267.29 276.43 266.65 276.11C266.37 275.98 264.99 275.31 262.49 274.1L263.77 276.05C266.48 277.39 268.53 278.34 269.92 278.9ZM247.7 274.63C246.77 274.4 245.83 274.06 244.98 273.65C243.73 273.03 242.61 272.14 241.67 271.04C241.66 271.03 241.6 270.96 241.49 270.83L246.03 272.39C246.05 272.4 246.06 272.41 246.06 272.41C246.51 273.21 247.09 273.92 247.77 274.51C247.79 274.53 247.86 274.59 248 274.7C247.82 274.66 247.72 274.63 247.7 274.63ZM245.03 273.49C245.78 273.85 246.58 274.17 247.43 274.38C246.83 273.83 246.33 273.19 245.92 272.48C245.65 272.39 244.33 271.94 241.94 271.13C243.22 272.32 244.25 273.1 245.03 273.49ZM241.12 270.19C241.1 270.19 241.07 270.19 241.05 270.17C241.05 270.17 241.03 270.17 241.01 270.17C240.99 270.16 240.98 270.15 240.98 270.15C240.27 269.14 239.7 268 239.29 266.74C239.29 266.73 239.26 266.67 239.22 266.56C239.32 266.61 239.37 266.65 239.38 266.65C241.19 267.63 243.06 268.57 244.94 269.39C244.94 269.4 244.96 269.4 244.98 269.42C244.98 269.44 244.98 269.46 244.98 269.46C245.12 270.22 245.35 270.95 245.65 271.61C245.65 271.62 245.68 271.68 245.74 271.77C242.97 270.83 241.43 270.3 241.12 270.19ZM241.17 270.06C241.59 270.2 245.01 271.37 245.44 271.52C245.19 270.9 244.98 270.24 244.85 269.53C243.04 268.73 241.23 267.84 239.5 266.88C239.91 268.05 240.43 269.1 241.1 270.03C241.12 270.03 241.14 270.03 241.17 270.06ZM244.8 268.87C242.83 267.98 240.91 267.02 239.09 265.99C239.08 265.99 239.08 265.98 239.06 265.97C239.06 265.95 239.06 265.94 239.06 265.94C238.81 265.05 238.65 264.14 238.54 263.2C238.54 263.19 238.53 263.15 238.51 263.06C238.6 263.1 238.64 263.13 238.65 263.13C240.75 264.27 242.81 265.49 244.75 266.74C244.76 266.74 244.77 266.75 244.8 266.77C244.81 266.79 244.82 266.81 244.82 266.81C244.8 267.47 244.85 268.14 244.91 268.8C244.91 268.81 244.91 268.85 244.91 268.91C244.85 268.89 244.81 268.87 244.8 268.87ZM244.73 268.64C244.66 268.05 244.64 267.43 244.64 266.81C242.74 265.58 240.73 264.41 238.7 263.29C238.79 264.18 238.95 265.03 239.18 265.85C240.94 266.83 242.81 267.77 244.73 268.64ZM244.69 266.15C242.65 264.85 240.57 263.63 238.47 262.51C238.47 262.51 238.45 262.51 238.42 262.49C238.42 262.46 238.42 262.45 238.42 262.45C238.4 261.99 238.38 261.51 238.38 261.05C238.38 260.64 238.4 260.21 238.45 259.77C238.45 259.76 238.45 259.73 238.45 259.66C238.5 259.7 238.53 259.72 238.54 259.73C240.73 260.98 242.95 262.31 245.1 263.66C245.1 263.66 245.12 263.67 245.14 263.68C245.13 263.71 245.12 263.72 245.12 263.73C244.94 264.5 244.82 265.3 244.75 266.1C244.76 266.11 244.77 266.15 244.8 266.22C244.73 266.18 244.69 266.15 244.69 266.15ZM244.69 265.97C244.75 265.23 244.87 264.48 245.03 263.75C242.93 262.42 240.78 261.14 238.63 259.91C238.61 260.3 238.58 260.69 238.58 261.05C238.56 261.49 238.56 261.94 238.61 262.4C240.66 263.5 242.7 264.71 244.69 265.97ZM245.21 263.15C243.02 261.78 240.78 260.43 238.58 259.18C238.58 259.18 238.56 259.17 238.54 259.15C238.54 259.13 238.54 259.11 238.54 259.11C238.63 258.38 238.79 257.65 238.97 256.96C238.97 256.95 238.98 256.92 238.99 256.87L245.85 261.44C245.84 261.47 245.83 261.48 245.83 261.49C245.62 262.01 245.46 262.54 245.3 263.09C245.3 263.09 245.3 263.13 245.3 263.2C245.25 263.17 245.22 263.16 245.21 263.15ZM245.21 262.95C245.35 262.45 245.51 261.97 245.69 261.49C245.03 261.05 239.77 257.54 239.11 257.1C238.93 257.74 238.79 258.4 238.7 259.06C240.87 260.3 243.04 261.6 245.21 262.95ZM239.43 256.57C239.43 256.56 239.43 256.55 239.43 256.55C239.41 256.5 239.38 256.41 239.29 256.39C239.29 256.39 239.26 256.38 239.22 256.37C239.22 256.32 239.22 256.3 239.22 256.3C239.5 255.45 239.86 254.65 240.3 253.9C240.3 253.89 240.32 253.87 240.34 253.83C240.38 253.86 240.41 253.87 240.41 253.87C242.86 255.25 245.21 256.82 247.41 258.51C247.41 258.52 247.42 258.53 247.45 258.56C247.4 258.64 247.37 258.69 247.36 258.7C247.31 258.77 247.27 258.83 247.22 258.88C246.81 259.5 246.45 260.21 246.13 260.96C246.12 260.96 246.1 260.98 246.06 261.01L239.43 256.57ZM245.99 260.78C246.31 260.05 246.67 259.38 247.06 258.77C247.11 258.7 247.15 258.63 247.2 258.58C247.2 258.58 247.2 258.56 247.2 258.56C245.05 256.89 242.77 255.38 240.34 254.01C239.95 254.72 239.61 255.47 239.36 256.25C239.45 256.32 239.52 256.39 239.54 256.48C240.83 257.34 245.34 260.35 245.99 260.78ZM247.41 257.97C245.23 256.3 242.95 254.79 240.59 253.46C240.59 253.46 240.57 253.44 240.53 253.42C240.55 253.38 240.57 253.35 240.57 253.35C240.87 252.87 241.21 252.39 241.58 251.95C241.58 251.95 241.6 251.94 241.62 251.91C241.66 251.94 241.69 251.95 241.69 251.95C243.98 253.46 246.22 255.06 248.32 256.71C248.46 256.82 248.66 256.73 248.73 256.59C248.75 256.53 248.73 256.46 248.66 256.41C246.51 254.74 244.27 253.14 242.01 251.63C242.01 251.63 241.98 251.62 241.94 251.59C241.98 251.55 242.01 251.52 242.01 251.52C242.49 250.99 243.02 250.49 243.59 250.01C243.59 250.01 243.6 250 243.61 249.99C243.64 249.99 243.65 249.99 243.66 249.99C243.68 249.99 243.68 249.99 243.7 249.99C243.7 249.99 243.71 250.02 243.73 250.06L243.73 249.99L243.77 249.99C243.79 250 243.79 250.01 243.79 250.01C244.3 250.51 244.91 250.99 245.51 251.45C245.87 251.73 246.24 252.02 246.58 252.32C247.66 253.23 248.78 254.24 249.99 255.36C250.03 255.41 250.08 255.43 250.13 255.43C250.14 255.43 250.2 255.44 250.31 255.45C250.23 255.52 250.18 255.56 250.17 255.57C249.33 256.3 248.57 257.1 247.91 257.97C247.91 257.97 247.89 257.98 247.86 258.01C247.84 258 247.82 257.99 247.82 257.99C247.75 257.94 247.63 257.94 247.57 257.99C247.56 257.99 247.52 257.99 247.45 257.99C247.42 257.97 247.41 257.97 247.41 257.97ZM247.45 257.81C247.54 257.76 247.63 257.76 247.75 257.81C248 257.49 248.25 257.19 248.5 256.89C248.39 256.91 248.3 256.87 248.21 256.8C246.1 255.18 243.91 253.6 241.65 252.09C241.33 252.5 241.01 252.94 240.73 253.37C243.04 254.67 245.3 256.18 247.45 257.81ZM248.73 256.25C248.82 256.32 248.87 256.41 248.87 256.48C249.19 256.14 249.53 255.82 249.9 255.5C249.87 255.47 249.85 255.47 249.83 255.45C248.59 254.33 247.5 253.33 246.42 252.41C246.08 252.11 245.71 251.84 245.35 251.54C244.78 251.09 244.16 250.63 243.66 250.13C243.63 250.13 243.63 250.13 243.61 250.13C243.09 250.56 242.58 251.04 242.13 251.52C244.37 253.01 246.58 254.61 248.73 256.25ZM250.33 255.18C250.33 255.11 250.31 255.06 250.26 255.02C249.23 254.08 248.18 253.14 247.13 252.23C246.74 251.89 246.33 251.57 245.92 251.25C245.28 250.74 244.62 250.24 244.07 249.67C244.06 249.66 244.04 249.64 244 249.6C244.04 249.57 244.06 249.56 244.07 249.55C244.57 249.19 245.12 248.85 245.67 248.53C245.68 248.52 245.73 248.49 245.83 248.43C245.84 248.48 245.85 248.5 245.85 248.5C245.87 248.55 245.9 248.57 245.92 248.59C248.05 250.24 250.17 251.98 252.21 253.81C252.21 253.81 252.24 253.83 252.3 253.87C252.26 253.92 252.23 253.94 252.23 253.94C251.59 254.33 250.99 254.77 250.45 255.2C250.44 255.21 250.39 255.26 250.31 255.36C250.32 255.25 250.33 255.19 250.33 255.18ZM246.01 251.15C246.42 251.47 246.83 251.79 247.22 252.14C248.27 253.05 249.33 253.99 250.35 254.93C250.4 254.97 250.42 255.02 250.45 255.06C250.95 254.65 251.5 254.29 252.07 253.92C250.03 252.11 247.95 250.4 245.85 248.78C245.83 248.75 245.78 248.73 245.76 248.69C245.76 248.69 245.74 248.69 245.74 248.69C245.21 248.96 244.71 249.28 244.23 249.65C244.78 250.17 245.39 250.67 246.01 251.15ZM269.74 254.42C269.65 254.35 269.55 254.31 269.46 254.31C269.44 254.31 269.28 254.31 269.26 254.31C269.19 254.31 269.14 254.33 269.07 254.35C269.07 254.36 269.07 254.36 269.05 254.38C269.04 254.36 269.03 254.36 269.03 254.35C266.45 253.07 263.95 251.54 261.62 249.83C261.62 249.83 261.6 249.81 261.58 249.78C261.59 249.74 261.6 249.72 261.6 249.71C261.81 249.33 262.01 248.94 262.24 248.55C262.24 248.54 262.25 248.52 262.26 248.48C262.3 248.49 262.33 248.5 262.33 248.5C263.91 249.21 265.46 249.97 266.99 250.74C267.68 251.09 268.43 251.47 269.35 251.98C269.58 252.11 269.83 252.25 270.06 252.39C270.33 252.55 270.61 252.71 270.9 252.87C270.91 252.87 270.93 252.89 270.97 252.91C270.94 252.96 270.93 252.98 270.93 252.98C270.54 253.53 270.19 253.97 269.87 254.38C269.87 254.38 269.85 254.41 269.81 254.47C269.76 254.44 269.74 254.43 269.74 254.42ZM269.46 254.17C269.58 254.17 269.67 254.19 269.78 254.26C270.08 253.9 270.38 253.49 270.72 253.01C270.47 252.87 270.19 252.71 269.94 252.57C269.71 252.43 269.46 252.3 269.23 252.16C268.32 251.68 267.59 251.29 266.9 250.93C265.42 250.17 263.86 249.42 262.31 248.73C262.13 249.07 261.92 249.42 261.74 249.78C264.02 251.47 266.49 252.96 269.03 254.24C269.12 254.19 269.19 254.17 269.26 254.17C269.3 254.17 269.44 254.17 269.46 254.17ZM252.62 253.65C252.62 253.6 252.59 253.58 252.55 253.53C250.56 251.77 248.46 250.03 246.29 248.34C246.28 248.34 246.25 248.32 246.19 248.27C246.26 248.25 246.3 248.23 246.31 248.23C246.97 247.91 247.68 247.66 248.39 247.47C248.4 247.47 248.43 247.47 248.5 247.45C248.49 247.52 248.48 247.56 248.48 247.57C248.43 247.98 249.39 248.53 249.81 248.75C249.9 248.8 249.99 248.85 250.01 248.89C251.59 249.97 253.14 251.18 254.77 252.59C254.77 252.6 254.8 252.63 254.86 252.69C254.79 252.71 254.75 252.73 254.74 252.73C254.03 253.03 253.35 253.35 252.69 253.71C252.68 253.72 252.67 253.72 252.64 253.74C252.63 253.68 252.62 253.65 252.62 253.65ZM252.66 253.44C252.69 253.46 252.73 253.51 252.73 253.53C253.33 253.19 253.97 252.89 254.61 252.62C253.03 251.25 251.5 250.06 249.97 249.01C249.92 248.98 249.85 248.94 249.76 248.89C249.28 248.62 248.43 248.11 248.34 247.66C247.7 247.82 247.09 248.05 246.49 248.32C248.62 249.97 250.7 251.68 252.66 253.44ZM271.13 252.55C270.74 252.37 270.35 252.14 269.99 251.91C269.71 251.75 269.46 251.59 269.21 251.45C268.53 251.09 267.79 250.7 266.86 250.24C265.53 249.55 264.11 248.89 262.54 248.18C262.53 248.18 262.51 248.16 262.47 248.14C262.5 248.1 262.51 248.07 262.51 248.07C262.72 247.7 262.95 247.31 263.25 246.83C263.27 246.81 263.29 246.79 263.29 246.77C263.3 246.76 263.32 246.72 263.36 246.65C263.4 246.72 263.42 246.76 263.43 246.77C263.63 247.09 264.46 247.43 264.94 247.63C265.1 247.7 265.23 247.77 265.33 247.79C266.03 248.16 266.74 248.53 267.43 248.89C268.85 249.62 270.33 250.4 271.98 251.27C271.98 251.27 272 251.29 272.05 251.31C272.02 251.36 272 251.38 272 251.38C271.7 251.84 271.45 252.18 271.22 252.53C271.22 252.53 271.21 252.54 271.2 252.57C271.16 252.56 271.14 252.55 271.13 252.55ZM266.95 250.1C267.86 250.56 268.62 250.95 269.3 251.31C269.55 251.45 269.83 251.61 270.1 251.77C270.45 251.98 270.81 252.21 271.18 252.37C271.38 252.07 271.61 251.73 271.89 251.34C270.26 250.49 268.8 249.71 267.41 249.01C266.7 248.64 266.01 248.27 265.3 247.93C265.23 247.89 265.1 247.84 264.94 247.77C264.43 247.57 263.7 247.25 263.41 246.93C263.11 247.34 262.9 247.7 262.7 248.07C264.23 248.78 265.62 249.44 266.95 250.1ZM255.27 252.43C255.27 252.39 255.25 252.37 255.2 252.34C254.29 251.54 253.33 250.74 252.32 249.99C251.82 249.6 251.27 249.21 250.56 248.71C250.49 248.66 250.4 248.59 250.31 248.5C249.97 248.25 249.46 247.86 249.19 247.79C249.18 247.79 249.15 247.79 249.1 247.77C249.11 247.72 249.12 247.69 249.12 247.68C249.14 247.57 249.14 247.47 249.1 247.41C249.09 247.4 249.08 247.37 249.05 247.31C249.11 247.3 249.14 247.29 249.14 247.29C250.08 247.11 251.06 247.02 252.02 247.06C252.02 247.06 252.03 247.06 252.05 247.06L257.74 251.82C257.64 251.83 257.59 251.84 257.58 251.84C256.8 252.02 256.05 252.23 255.34 252.48C255.33 252.48 255.32 252.49 255.29 252.5C255.28 252.46 255.27 252.44 255.27 252.43ZM250.4 248.37C250.49 248.43 250.58 248.5 250.65 248.55C251.38 249.05 251.93 249.46 252.43 249.83C253.44 250.61 254.4 251.41 255.31 252.21C255.34 252.23 255.36 252.27 255.38 252.3C256.02 252.07 256.71 251.86 257.42 251.7C256.88 251.25 252.54 247.63 252 247.18C251.09 247.15 250.15 247.22 249.26 247.41C249.3 247.5 249.3 247.59 249.28 247.66C249.6 247.77 250.06 248.11 250.4 248.37ZM252.82 247.11C252.97 247.12 253.06 247.13 253.07 247.13C254.56 247.29 256 247.68 257.37 248.3C257.37 248.3 257.38 248.31 257.39 248.32L260.3 251.45C260.2 251.47 260.15 251.47 260.14 251.47C259.54 251.52 258.95 251.59 258.38 251.7C258.37 251.7 258.36 251.7 258.33 251.7L252.82 247.11ZM258.38 251.54C258.9 251.45 259.43 251.38 259.98 251.34C259.71 251.05 257.57 248.72 257.3 248.43C256.02 247.86 254.67 247.47 253.33 247.31C254.34 248.16 257.87 251.12 258.38 251.54ZM258.51 248.87C258.8 249.05 258.96 249.15 258.99 249.17C259.38 249.39 259.75 249.67 260.09 249.92C260.21 250.01 260.32 250.03 260.41 249.99C260.42 249.99 260.44 249.98 260.48 249.97C260.49 250.01 260.5 250.03 260.5 250.03C260.53 250.1 260.57 250.17 260.64 250.22C261.07 250.54 261.55 250.9 262.13 251.29C262.14 251.3 262.21 251.35 262.33 251.43C262.18 251.43 262.1 251.43 262.08 251.43C261.69 251.43 261.3 251.43 260.91 251.43C260.91 251.43 260.9 251.43 260.87 251.43L258.51 248.87ZM260.94 251.27C261.26 251.27 261.55 251.25 261.83 251.25C261.35 250.9 260.94 250.61 260.55 250.31C260.48 250.26 260.43 250.19 260.39 250.13C260.25 250.15 260.11 250.13 259.98 250.01C259.82 249.9 259.63 249.76 259.43 249.62C259.73 249.95 260.79 251.1 260.94 251.27ZM272 250.7C271.95 250.65 271.89 250.63 271.82 250.65C271.82 250.65 271.81 250.65 271.79 250.65C271.78 250.64 271.77 250.63 271.77 250.63C269.76 249.58 267.79 248.55 265.94 247.59C265.9 247.57 265.78 247.5 265.67 247.43C265.21 247.15 264.34 246.63 263.66 246.4C263.65 246.4 263.62 246.39 263.57 246.38C263.59 246.32 263.61 246.29 263.61 246.29C263.89 245.83 264.21 245.35 264.55 244.85C264.55 244.84 264.57 244.82 264.59 244.78C264.64 244.8 264.66 244.82 264.66 244.82C265.01 245.07 265.58 245.26 265.97 245.42C266.15 245.49 266.31 245.53 266.42 245.6C268.66 246.65 270.99 247.89 273.33 249.26C273.33 249.26 273.35 249.28 273.39 249.3C273.37 249.34 273.35 249.37 273.35 249.37C273.03 249.9 272.71 250.42 272.39 250.9C272.38 250.91 272.36 250.92 272.32 250.95C272.13 250.8 272.02 250.71 272 250.7ZM272.09 250.58C272.11 250.6 272.26 250.73 272.27 250.74C272.57 250.31 272.85 249.83 273.14 249.35C270.83 248 268.53 246.79 266.33 245.74C266.24 245.69 266.08 245.65 265.9 245.58C265.51 245.44 264.98 245.26 264.62 245.01C264.32 245.46 264.05 245.9 263.77 246.31C264.46 246.56 265.28 247.04 265.71 247.31C265.85 247.38 265.94 247.45 265.99 247.47C267.84 248.43 269.81 249.44 271.82 250.49C271.82 250.49 271.84 250.49 271.84 250.49C271.93 250.49 272.02 250.51 272.09 250.58ZM273.51 248.85C272.11 248.02 270.72 247.25 269.33 246.54C268.64 246.17 267.89 245.81 266.95 245.35C266.61 245.19 266.26 245.03 265.92 244.87C265.69 244.75 265.46 244.66 265.23 244.55C265.23 244.55 265.21 244.53 265.21 244.53C265.12 244.46 265.05 244.41 264.96 244.39C264.95 244.39 264.92 244.39 264.87 244.39C264.9 244.33 264.91 244.3 264.91 244.3C264.91 244.27 264.94 244.25 264.94 244.23C264.94 244.23 264.94 244.22 264.94 244.21C264.95 244.19 264.96 244.18 264.96 244.18C265.35 243.63 265.74 243.09 266.13 242.56C266.13 242.56 266.13 242.54 266.15 242.51C266.18 242.53 266.19 242.54 266.19 242.54C267.29 242.9 268.3 243.57 269.28 244.21C269.58 244.39 269.87 244.59 270.17 244.78C270.57 245.02 273.75 247 274.15 247.25C274.22 247.29 274.29 247.29 274.33 247.27C274.34 247.26 274.4 247.24 274.49 247.2C274.48 247.09 274.47 247.03 274.47 247.02C274.47 246.95 274.42 246.9 274.35 246.86C273.92 246.59 270.47 244.47 270.03 244.21C269.78 244.05 269.55 243.91 269.3 243.75C268.41 243.18 267.5 242.58 266.49 242.22C266.49 242.21 266.45 242.2 266.4 242.17C266.44 242.12 266.46 242.09 266.47 242.08C266.77 241.69 267.02 241.37 267.25 241.1C267.25 241.09 267.26 241.08 267.29 241.05C267.32 241.07 267.33 241.07 267.34 241.07C270.35 242.26 273.07 243.38 275.57 245.01C275.57 245.01 275.58 245.02 275.61 245.05C275.6 245.09 275.59 245.12 275.59 245.12C275.29 245.76 274.95 246.4 274.61 247.06C274.6 247.08 274.56 247.15 274.49 247.27L274.49 247.27C274.45 247.34 274.43 247.38 274.42 247.38C274.13 247.93 273.85 248.41 273.6 248.85C273.6 248.85 273.59 248.86 273.58 248.89C273.54 248.86 273.51 248.85 273.51 248.85ZM266.01 244.75C266.35 244.91 266.7 245.07 267.04 245.23C267.98 245.69 268.73 246.06 269.42 246.42C270.79 247.13 272.16 247.89 273.53 248.69C273.76 248.3 273.99 247.91 274.24 247.43C274.19 247.43 274.13 247.41 274.08 247.38C273.68 247.14 270.5 245.16 270.1 244.91C269.81 244.73 269.51 244.55 269.21 244.34C268.25 243.73 267.27 243.09 266.22 242.72C265.85 243.22 265.46 243.75 265.1 244.27C265.1 244.27 265.1 244.27 265.1 244.27C265.17 244.3 265.26 244.34 265.33 244.43C265.55 244.53 265.78 244.64 266.01 244.75ZM269.42 243.59C269.67 243.75 269.9 243.91 270.15 244.05C270.58 244.31 274.04 246.43 274.47 246.7C274.51 246.72 274.56 246.77 274.58 246.79C274.88 246.22 275.18 245.62 275.45 245.07C273.01 243.47 270.33 242.38 267.36 241.21C267.15 241.49 266.93 241.76 266.67 242.08C267.66 242.47 268.55 243.04 269.42 243.59ZM267.61 240.25C267.61 240.25 267.6 240.25 267.59 240.25C267.57 240.24 267.57 240.23 267.57 240.23C267.54 240.21 267.52 240.18 267.52 240.16C267.36 239.98 267.18 239.79 267.02 239.61C266.99 239.59 266.87 239.47 266.65 239.25C267.93 239.97 268.64 240.38 268.78 240.46C269.01 240.59 269.26 240.73 269.51 240.87C269.5 240.88 269.48 240.91 269.44 240.98C268.63 240.66 268.02 240.42 267.61 240.25ZM268.41 240.39C268.32 240.34 267.57 239.92 267.47 239.86C267.52 239.93 267.59 239.98 267.63 240.05C267.66 240.07 267.68 240.09 267.7 240.11C267.93 240.21 268.18 240.3 268.41 240.39Z" id="a2myki1T6Z"></path></defs><g><g><g><use xlink:href="#baAF7lxIm" opacity="1" fill="#000000" fill-opacity="1"></use><g><use xlink:href="#baAF7lxIm" opacity="1" fill-opacity="0" stroke="#000000" stroke-width="1" stroke-opacity="0"></use></g></g><g><use xlink:href="#a2myki1T6Z" opacity="1" fill="#180f0b" fill-opacity="1"></use><g><use xlink:href="#a2myki1T6Z" opacity="1" fill-opacity="0" stroke="#000000" stroke-width="1" stroke-opacity="0"></use></g></g></g></g></svg>