<?xml version="1.0" encoding="UTF-8" standalone="no"?>
<!DOCTYPE svg PUBLIC "-//W3C//DTD SVG 1.1//EN" "http://www.w3.org/Graphics/SVG/1.1/DTD/svg11.dtd">
<svg version="1.1" xmlns="http://www.w3.org/2000/svg" xmlns:xlink="http://www.w3.org/1999/xlink" preserveAspectRatio="xMidYMid meet" viewBox="383.6285714285714 233.18857142857132 51.05945151471684 62.35428571428582" width="51.06" height="62.35"><defs><path d="M430.4 279.43C428.71 278.22 427.06 276.91 425.49 275.54C425.33 275.41 425.14 275.38 424.98 275.45C424.89 275.34 424.75 275.27 424.62 275.27C418.86 275.2 413.1 275.13 407.31 275.04C407.34 274.31 407.45 273.42 407.36 272.66C409.33 272.66 425.07 272.66 427.04 272.66C427.15 272.66 427.25 272.64 427.31 272.57C427.68 272.5 427.91 271.91 427.5 271.61C427.45 271.57 427.38 271.54 427.34 271.5C427.34 269.71 427.34 267.93 427.36 266.13C427.36 265.85 427.38 265.55 427.38 265.26C427.54 265.14 427.59 264.89 427.41 264.75C427.45 263.66 427.38 262.56 426.58 261.74C424.07 259.15 421.07 256.94 418.03 255.02C417.78 254.86 417.53 254.95 417.39 255.13C413.99 254.67 410.58 254.31 407.15 254.06C407.09 253.55 407.06 253.05 407.09 252.53C415.61 252.66 424.14 252.75 432.66 252.78C432.73 252.78 432.78 252.78 432.82 252.75C433.14 252.94 433.44 252.73 433.51 252.43C433.58 252.34 433.65 252.23 433.62 252.09C433.37 248.23 433.3 244.39 433.37 240.53C433.37 240.34 433.28 240.16 433.12 240.09C429.62 238.22 426.1 236.32 422.61 234.45C422.51 234.4 422.4 234.38 422.33 234.38C422.26 234.22 422.1 234.1 421.9 234.08C409.65 233.81 397.39 233.53 385.14 233.28C384.8 233.28 384.64 233.55 384.66 233.83C384.39 233.78 384.07 233.94 384.07 234.31C383.98 252.05 383.91 269.78 383.82 287.5C383.82 287.5 383.82 287.5 383.82 287.5C383.63 287.7 383.61 288.09 383.91 288.27C383.95 288.3 384 288.34 384.05 288.37C384.11 288.55 384.25 288.71 384.5 288.73C384.55 288.73 384.57 288.73 384.62 288.73C387.52 290.61 390.45 292.46 393.35 294.33C393.42 294.49 393.55 294.65 393.81 294.65C406.88 295.34 419.98 295.59 433.05 295.36C433.23 295.36 433.35 295.29 433.44 295.18C433.62 295.11 433.78 294.97 433.9 294.81C434.19 294.9 434.58 294.74 434.58 294.35C434.72 290.42 434.38 286.45 433.55 282.56C433.23 280.96 431.63 280.3 430.4 279.43ZM425.12 283.52C425.12 282.79 425.12 282.06 425.12 281.33C427.93 283.15 430.65 285.1 433.3 287.18C433.39 288.02 433.49 288.89 433.53 289.74C430.72 287.66 427.93 285.6 425.12 283.52ZM430.81 280.94C431.13 281.14 431.43 281.37 431.75 281.58C432.37 281.99 432.53 282.51 432.66 283.2C432.87 284.23 433.05 285.28 433.19 286.33C430.58 284.3 427.89 282.4 425.12 280.59C425.12 279.25 425.12 277.87 425.12 276.53C426.29 277.53 427.47 278.47 428.69 279.41C429.39 279.93 430.1 280.46 430.81 280.94ZM406.74 271.73C406.74 271.73 406.74 271.73 406.74 271.73C406.19 271.38 405.67 271.02 405.12 270.67C403.45 269.58 401.78 268.5 400.11 267.41C401.39 267.45 402.67 267.5 403.95 267.57C406.01 269.01 408.14 270.38 410.29 271.66C410.07 271.66 408.98 271.66 407.02 271.66C406.88 271.66 406.79 271.68 406.74 271.73ZM399.34 271.06C399.36 271.06 399.38 271.09 399.38 271.09C400.16 271.59 400.96 272.07 401.74 272.57C403.02 273.37 404.3 274.19 405.58 274.99C405.18 274.99 402 274.95 401.6 274.95C401.58 274.9 401.55 274.88 401.51 274.86C400.75 274.35 400 273.87 399.25 273.37C399.27 272.59 399.29 271.84 399.34 271.06ZM399.22 274.93C399.22 274.65 399.22 274.35 399.22 274.08C399.66 274.38 400.09 274.65 400.53 274.95C400.27 274.94 399.35 274.93 399.22 274.93ZM400.71 271.2C400.61 271.14 399.8 270.62 399.7 270.56C399.61 270.51 399.5 270.45 399.38 270.38C399.43 269.67 399.47 268.94 399.54 268.23C401.81 269.69 404.07 271.18 406.33 272.64C406.33 273.35 406.33 274.03 406.33 274.74C405.12 273.99 403.91 273.23 402.72 272.48C402.06 272.05 401.37 271.63 400.71 271.2ZM411.31 271.52C411.25 271.47 411.2 271.45 411.13 271.45C409.05 270.24 407.02 268.94 405.05 267.59C405.94 267.63 406.83 267.66 407.73 267.7C409.69 269.17 411.75 270.49 413.9 271.63C413.74 271.63 412.93 271.63 411.47 271.63C411.4 271.57 411.34 271.54 411.31 271.52ZM415.13 271.59C412.91 270.47 410.81 269.17 408.8 267.73C410.38 267.79 411.93 267.84 413.51 267.91C413.53 267.93 413.55 267.95 413.58 267.98C415.43 269.19 417.28 270.4 419.11 271.61C418.85 271.61 417.55 271.61 415.2 271.61C415.17 271.61 415.15 271.6 415.13 271.59ZM418.93 267.04C418.97 266.31 419.02 265.55 419.04 264.82C421.46 266.06 423.91 267.27 426.33 268.5C426.33 269.28 426.33 270.06 426.33 270.83C423.98 269.35 421.44 268.23 418.93 267.04ZM426.35 267.82C421.98 265.62 419.55 264.4 419.06 264.16C419.06 263.57 419.06 262.95 419.06 262.35C421.35 264 423.77 265.37 426.35 266.49C426.35 266.51 426.35 266.51 426.35 266.54C426.35 266.71 426.35 267.13 426.35 267.82ZM419.04 261.58C419.02 261.1 418.99 260.59 418.95 260.11C421.33 261.85 423.79 263.43 426.35 264.89C426.35 265.21 426.35 265.51 426.35 265.83C423.77 264.69 421.33 263.27 419.04 261.58ZM426.35 263.84C426.35 263.95 426.35 264.09 426.35 264.21C423.77 262.72 421.28 261.1 418.88 259.34C418.81 258.42 418.7 257.51 418.56 256.62C420.87 258.15 423.04 259.86 425.1 261.76C425.76 262.38 426.35 262.86 426.35 263.84ZM425.71 271.63C425.35 271.63 423.52 271.63 420.23 271.63C416.88 269.43 415.02 268.2 414.65 267.95C415.89 268 417.14 268.05 418.38 268.09C418.49 268.11 418.58 268.09 418.67 268.02C421.05 269.14 423.47 270.24 425.71 271.63ZM406.51 251.63C404.46 250.35 402.49 248.91 400.64 247.31C401.62 247.22 402.61 247.15 403.59 247.06C403.73 247.2 403.89 247.29 404.02 247.43C404.66 247.98 405.33 248.53 405.99 249.05C407.11 249.94 408.27 250.77 409.44 251.59C408.57 251.57 407.7 251.57 406.81 251.54C406.7 251.54 406.58 251.57 406.51 251.63ZM400.3 248.34C402.15 249.9 404.09 251.31 406.15 252.59C406.13 253.07 406.13 253.55 406.19 254.03C406.06 254.03 405.94 254.01 405.81 254.01C405.78 253.97 405.74 253.94 405.69 253.9C403.77 252.87 401.99 251.73 400.27 250.45C400.3 249.74 400.3 249.03 400.3 248.34ZM399.98 253.69C400.09 252.85 400.18 252.02 400.23 251.18C401.58 252.16 402.99 253.07 404.46 253.9C402.97 253.81 401.46 253.74 399.98 253.69ZM410.51 251.57C409.39 250.83 408.32 250.06 407.25 249.26C406.58 248.75 405.94 248.25 405.3 247.73C405.17 247.61 404.71 247.31 404.37 247.04C405.28 246.97 406.19 246.9 407.11 246.83C408.96 248.69 410.99 250.31 413.23 251.66C412.34 251.63 411.45 251.61 410.56 251.61C410.54 251.59 410.54 251.59 410.51 251.57ZM414.03 251.41C411.79 250.1 409.76 248.55 407.91 246.74C408.96 246.67 410.03 246.61 411.09 246.51C413.19 248.25 415.27 250.06 417.46 251.68C416.37 251.68 415.27 251.68 414.17 251.66C414.17 251.57 414.13 251.47 414.03 251.41ZM418.08 251.41C415.95 249.87 413.97 248.16 411.95 246.47C412.98 246.4 413.99 246.33 415.02 246.29C415.02 246.33 415.04 246.38 415.09 246.42C416.75 248.34 418.56 250.1 420.5 251.73C419.75 251.73 418.97 251.7 418.22 251.7C418.24 251.59 418.19 251.47 418.08 251.41ZM421.33 251.61C419.31 249.99 417.44 248.18 415.73 246.24C416.89 246.17 418.06 246.1 419.22 246.06C419.22 246.1 419.27 246.17 419.31 246.22C421.35 248.27 423.57 250.13 425.97 251.77C424.46 251.75 422.95 251.75 421.42 251.73C421.39 251.68 421.37 251.66 421.33 251.61ZM420 246.03C421.07 245.99 422.13 245.94 423.2 245.9C423.27 245.9 423.34 245.87 423.38 245.85C423.91 246.22 424.32 246.79 424.75 247.25C425.39 247.91 426.19 248.43 426.97 248.94C428.41 249.9 429.87 250.83 431.34 251.79C429.92 251.79 428.5 251.77 427.09 251.77C424.53 250.1 422.17 248.18 420 246.03ZM427.22 247.89C426.35 247.31 425.58 246.67 424.89 245.87C424.53 245.44 424.11 245.05 423.63 244.8C423.57 244.21 423.5 243.59 423.43 242.99C426.58 245.28 429.65 247.7 432.57 250.26C432.59 250.65 432.62 251.04 432.64 251.43C430.83 250.24 429.03 249.07 427.22 247.89ZM423.31 242.19C423.22 241.49 423.15 240.8 423.06 240.09C426.4 242.06 429.53 244.34 432.43 246.95C432.48 247.77 432.5 248.62 432.53 249.44C429.58 246.88 426.49 244.48 423.31 242.19ZM422.83 238.03C426.1 239.95 429.44 241.81 432.32 244.3C432.34 244.32 432.37 244.34 432.41 244.34C432.41 244.94 432.43 245.53 432.43 246.13C429.51 243.54 426.35 241.28 422.99 239.34C422.96 239.08 422.85 238.16 422.83 238.03ZM432.41 243.57C429.46 241.1 426.06 239.22 422.77 237.28C422.7 236.71 422.63 236.11 422.56 235.54C425.85 237.3 429.14 239.06 432.43 240.85C432.41 241.76 432.41 242.65 432.41 243.57ZM384.87 287.52C384.96 269.78 385.03 252.05 385.12 234.33C385.12 234.33 385.12 234.31 385.12 234.31C385.14 234.31 385.17 234.31 385.19 234.31C397.3 234.58 409.39 234.83 421.51 235.11C421.87 238.26 422.24 241.44 422.63 244.59C422.49 244.66 422.4 244.78 422.35 244.91C417.23 245.14 412.11 245.44 406.99 245.81C406.88 245.74 406.74 245.76 406.65 245.83C404.34 246.01 402.03 246.19 399.73 246.4C399.47 246.42 399.2 246.61 399.22 246.9C399.41 249.28 399.31 251.68 398.93 254.03C398.88 254.35 399.06 254.67 399.41 254.67C405.46 254.86 411.5 255.36 417.51 256.18C418.08 259.79 418.22 263.45 417.94 267.09C411.68 266.83 405.42 266.61 399.15 266.35C398.86 266.33 398.67 266.61 398.65 266.86C398.65 266.9 398.65 266.95 398.63 266.99C398.51 267.15 398.49 267.36 398.58 267.52C398.51 268.27 398.45 269.05 398.4 269.83C398.24 269.9 398.1 270.08 398.22 270.26C398.26 270.31 398.31 270.38 398.35 270.42C398.31 271.25 398.26 272.05 398.26 272.87C398.08 272.96 397.99 273.26 398.22 273.42C398.22 273.42 398.24 273.44 398.24 273.44C398.22 274.1 398.22 274.77 398.22 275.43C398.22 275.7 398.45 275.93 398.72 275.93C407.18 276.05 415.66 276.14 424.11 276.25C424.11 279.61 424.11 282.97 424.11 286.33C419.84 286.9 415.54 287.34 411.25 287.63C411.11 287.41 410.81 287.47 410.72 287.68C409.53 287.75 408.37 287.84 407.18 287.89C407.06 287.82 406.97 287.84 406.9 287.91C399.61 288.25 392.3 288.21 385.01 287.77C384.94 287.75 384.89 287.7 384.85 287.68C384.87 287.63 384.87 287.59 384.87 287.52ZM393.97 293.51C391.57 291.98 389.14 290.42 386.74 288.89C387.68 288.94 388.64 288.98 389.58 289.01C392.02 290.54 394.42 292.14 396.78 293.81C395.89 293.76 395.02 293.74 394.13 293.69C394.08 293.62 394.03 293.55 393.97 293.51ZM390.77 289.05C392.25 289.1 393.71 289.12 395.2 289.14C395.22 289.17 395.25 289.17 395.27 289.17C395.86 289.37 396.59 290.22 397.07 290.63C397.67 291.11 398.26 291.59 398.86 292.05C399.77 292.75 400.69 293.44 401.69 294.01C400.41 293.97 399.15 293.92 397.9 293.87C395.57 292.21 393.19 290.61 390.77 289.05ZM402.86 294.01C401.35 293.23 400 292.23 398.7 291.18C398.08 290.7 397.49 290.19 396.87 289.71C396.66 289.55 396.46 289.35 396.25 289.17C397.21 289.17 398.17 289.17 399.13 289.17C399.45 289.51 400.14 289.92 400.34 290.08C401.03 290.61 401.74 291.11 402.45 291.59C403.84 292.55 405.28 293.42 406.74 294.22C405.46 294.17 404.21 294.13 402.95 294.08C402.93 294.06 402.9 294.03 402.86 294.01ZM407.15 293.74C405.21 292.66 403.34 291.5 401.53 290.19C401.07 289.87 400.66 289.49 400.21 289.12C401.12 289.1 402.01 289.07 402.93 289.05C405.33 290.83 407.77 292.57 410.24 294.26C410.26 294.29 410.29 294.29 410.29 294.29C409.26 294.26 408.23 294.24 407.2 294.22C407.34 294.08 407.36 293.85 407.15 293.74ZM410.54 293.76C408.3 292.23 406.08 290.65 403.91 289.05C405.1 289.01 406.29 288.96 407.47 288.89C409.92 290.72 412.34 292.57 414.79 294.4C413.35 294.35 411.91 294.33 410.47 294.31C410.67 294.24 410.77 293.92 410.54 293.76ZM415.75 294.35C413.3 292.5 410.86 290.67 408.41 288.82C409.39 288.78 410.38 288.71 411.36 288.64C411.63 288.85 411.95 289.03 412.27 289.23C412.58 289.43 414.99 290.98 415.29 291.18C417.01 292.27 418.72 293.37 420.41 294.47C418.88 294.45 417.33 294.42 415.79 294.4C415.77 294.38 415.77 294.38 415.75 294.35ZM421.33 294.29C419.63 293.21 417.97 292.14 416.27 291.06C415.5 290.56 414.7 290.06 413.92 289.55C413.44 289.26 412.8 288.94 412.23 288.57C413.51 288.48 414.79 288.37 416.07 288.25C418.79 290.35 421.55 292.39 424.32 294.45C423.34 294.45 422.38 294.45 421.44 294.45C421.42 294.38 421.37 294.33 421.33 294.29ZM425.23 294.4C422.47 292.32 419.68 290.26 416.94 288.16C418.03 288.05 419.15 287.93 420.25 287.82C422.86 290.26 425.65 292.48 428.62 294.45C427.5 294.45 426.4 294.45 425.28 294.45C425.26 294.42 425.26 294.42 425.23 294.4ZM429.69 294.42C429.69 294.42 429.69 294.42 429.67 294.42C426.58 292.46 423.7 290.22 421.03 287.73C422.26 287.59 423.52 287.43 424.75 287.25C424.75 287.25 424.78 287.25 424.78 287.25C427.25 289.53 429.81 291.77 432.43 293.85C432.3 294.01 432.21 294.19 432.21 294.4C431.36 294.42 430.54 294.42 429.69 294.42ZM430.29 290.72C428.53 289.26 426.81 287.75 425.14 286.19C425.14 286 425.14 284.47 425.14 284.27C427.95 286.35 430.77 288.43 433.58 290.51C433.62 291.47 433.65 292.46 433.65 293.42C433.39 293.21 433.14 293.05 432.98 292.91C432.07 292.21 431.18 291.45 430.29 290.72Z" id="hZkEMK1MK"></path><path d="M393.85 294.74C393.62 294.72 393.44 294.61 393.35 294.4C392.77 294.03 389.87 292.17 384.64 288.82C384.59 288.82 384.55 288.82 384.55 288.82C384.3 288.8 384.11 288.66 384.02 288.43C384.01 288.43 383.92 288.35 383.91 288.34C383.77 288.25 383.68 288.11 383.63 287.95C383.61 287.79 383.66 287.61 383.77 287.47C383.8 282.16 384 239.6 384.02 234.29C384.02 233.92 384.32 233.71 384.62 233.71C384.62 233.71 384.62 233.71 384.62 233.71C384.62 233.58 384.66 233.44 384.75 233.35C384.85 233.23 384.98 233.19 385.17 233.19C388.84 233.27 418.27 233.91 421.94 233.99C422.15 233.99 422.33 234.1 422.42 234.29C422.51 234.29 422.61 234.31 422.7 234.35C423.75 234.92 432.16 239.44 433.21 240C433.39 240.09 433.51 240.3 433.51 240.5C433.42 244.34 433.51 248.23 433.76 252.07C433.76 252.23 433.71 252.37 433.62 252.46C433.55 252.71 433.33 252.89 433.1 252.89C433.01 252.89 432.94 252.87 432.85 252.82C432.8 252.85 432.73 252.85 432.69 252.85C424.25 252.82 415.66 252.75 407.18 252.59C407.15 253.07 407.18 253.53 407.22 253.97C410.61 254.22 414.01 254.58 417.35 255.04C417.53 254.83 417.81 254.79 418.06 254.95C421.58 257.21 424.37 259.41 426.61 261.69C427.43 262.54 427.47 263.7 427.45 264.73C427.52 264.8 427.57 264.89 427.57 264.98C427.57 265.1 427.52 265.21 427.43 265.3C427.41 265.58 427.41 265.85 427.41 266.13C427.4 266.48 427.4 268.26 427.38 271.45C427.41 271.47 427.43 271.47 427.43 271.47C427.45 271.5 427.5 271.52 427.52 271.54C427.73 271.68 427.82 271.91 427.75 272.16C427.7 272.39 427.52 272.57 427.31 272.62C427.22 272.69 427.13 272.71 426.99 272.71C425.04 272.71 409.36 272.71 407.41 272.71C407.45 273.21 407.43 273.74 407.38 274.26C407.36 274.49 407.36 274.72 407.36 274.93C409.08 274.95 422.85 275.13 424.57 275.15C424.71 275.15 424.87 275.22 424.96 275.31C425.14 275.27 425.35 275.31 425.49 275.45C427.18 276.91 428.78 278.19 430.4 279.34C430.65 279.52 430.93 279.68 431.2 279.86C432.25 280.53 433.33 281.21 433.6 282.51C434.4 286.42 434.77 290.42 434.67 294.38C434.67 294.74 434.38 294.95 434.08 294.95C434.08 294.95 434.08 294.95 434.08 294.95C434.03 294.95 433.99 294.95 433.94 294.93C433.83 295.06 433.67 295.18 433.51 295.27C433.44 295.36 433.3 295.47 433.07 295.47C430.08 295.52 426.99 295.54 423.95 295.54C413.97 295.54 403.84 295.27 393.85 294.74ZM384.18 234.31C384.17 237.86 384.08 255.6 383.93 287.54C383.92 287.56 383.91 287.56 383.91 287.57C383.82 287.68 383.77 287.82 383.79 287.95C383.82 288.07 383.89 288.16 384 288.25C384.01 288.26 384.06 288.3 384.16 288.37C384.16 288.38 384.16 288.39 384.16 288.39C384.18 288.48 384.27 288.69 384.55 288.69C384.56 288.69 384.6 288.69 384.69 288.69L384.71 288.69L393.46 294.29C393.46 294.3 393.46 294.31 393.46 294.31C393.51 294.4 393.6 294.56 393.85 294.58C403.82 295.11 413.94 295.38 423.93 295.38C426.97 295.38 430.06 295.36 433.1 295.31C433.23 295.31 433.35 295.27 433.42 295.15C433.42 295.15 433.43 295.15 433.44 295.13C433.45 295.13 433.46 295.13 433.46 295.13C433.62 295.06 433.78 294.95 433.9 294.79C433.9 294.79 433.91 294.77 433.92 294.74C433.95 294.76 433.96 294.76 433.97 294.77C434.19 294.83 434.54 294.72 434.56 294.38C434.65 290.42 434.29 286.45 433.49 282.56C433.23 281.33 432.18 280.64 431.15 280C430.88 279.84 430.61 279.66 430.35 279.47C428.75 278.33 427.13 277.05 425.44 275.57C425.33 275.45 425.17 275.43 425.01 275.47C425 275.48 424.99 275.48 424.96 275.5C424.95 275.47 424.94 275.45 424.94 275.45C424.85 275.36 424.73 275.31 424.62 275.29C423.46 275.28 417.67 275.2 407.25 275.06C407.25 275.02 407.25 275 407.25 274.99C407.25 274.77 407.27 274.51 407.29 274.24C407.31 273.69 407.36 273.12 407.29 272.62C407.29 272.61 407.29 272.58 407.29 272.53C419.15 272.53 425.74 272.53 427.06 272.53C427.15 272.53 427.22 272.5 427.29 272.46C427.29 272.45 427.31 272.44 427.31 272.43C427.47 272.41 427.59 272.25 427.63 272.07C427.66 271.98 427.68 271.75 427.45 271.61C427.43 271.59 427.38 271.57 427.36 271.54C427.35 271.54 427.32 271.52 427.27 271.47C427.28 268.24 427.29 266.44 427.29 266.08C427.29 265.81 427.31 265.51 427.31 265.21C427.31 265.21 427.31 265.19 427.31 265.17C427.33 265.15 427.34 265.14 427.34 265.14C427.41 265.1 427.45 265.01 427.45 264.94C427.45 264.89 427.43 264.82 427.36 264.78C427.36 264.78 427.34 264.77 427.31 264.75C427.31 264.73 427.31 264.71 427.31 264.71C427.34 263.7 427.31 262.56 426.51 261.76C424.3 259.5 421.51 257.28 417.99 255.04C417.81 254.93 417.6 254.97 417.46 255.13C417.46 255.13 417.45 255.15 417.44 255.18C417.41 255.18 417.4 255.18 417.39 255.18C414.03 254.72 410.58 254.35 407.18 254.1C407.17 254.1 407.15 254.1 407.11 254.1C407.11 254.06 407.11 254.04 407.11 254.03C407.04 253.53 407.02 253.03 407.04 252.5C407.04 252.5 407.04 252.48 407.04 252.43C407.08 252.43 407.1 252.43 407.11 252.43C415.61 252.57 424.23 252.66 432.69 252.69C432.73 252.69 432.78 252.69 432.82 252.66C432.82 252.66 432.83 252.66 432.85 252.66C432.86 252.68 432.87 252.68 432.87 252.69C433.1 252.82 433.37 252.69 433.46 252.41C433.47 252.41 433.48 252.39 433.49 252.39C433.55 252.32 433.6 252.23 433.58 252.09C433.33 248.25 433.26 244.37 433.33 240.5C433.33 240.37 433.23 240.21 433.12 240.14C432.07 239.57 423.66 235.06 422.61 234.49C422.54 234.45 422.45 234.42 422.35 234.45C422.35 234.45 422.34 234.45 422.31 234.45C422.29 234.42 422.29 234.4 422.29 234.4C422.24 234.29 422.13 234.15 421.9 234.15C418.22 234.07 388.82 233.43 385.14 233.35C385.14 233.35 385.14 233.35 385.14 233.35C385.01 233.35 384.91 233.39 384.85 233.46C384.78 233.55 384.73 233.67 384.73 233.81C384.73 233.81 384.73 233.84 384.73 233.9C384.68 233.88 384.65 233.88 384.64 233.87C384.66 233.92 384.64 233.9 384.62 233.9C384.41 233.9 384.18 234.03 384.18 234.31ZM424.3 294.54C423.34 294.54 422.38 294.54 421.44 294.54C421.44 294.54 421.42 294.54 421.39 294.54C421.38 294.51 421.37 294.49 421.37 294.49C421.35 294.45 421.33 294.4 421.28 294.38C420.54 293.9 414.61 290.12 413.87 289.65C413.67 289.51 413.42 289.37 413.17 289.23C412.85 289.05 412.5 288.87 412.18 288.66C412.17 288.66 412.11 288.62 412 288.55C412.14 288.53 412.21 288.53 412.23 288.53C413.46 288.43 414.74 288.32 416.07 288.21C416.07 288.21 416.08 288.21 416.09 288.21C416.11 288.22 416.11 288.23 416.11 288.23C418.13 289.78 420.18 291.31 422.19 292.8C422.93 293.35 423.63 293.87 424.37 294.42C424.38 294.43 424.43 294.47 424.53 294.54C424.39 294.54 424.31 294.54 424.3 294.54ZM424.07 294.38C423.41 293.87 422.74 293.39 422.08 292.89C420.09 291.41 418.03 289.87 416.02 288.32C414.79 288.43 413.6 288.53 412.43 288.62C412.69 288.78 412.96 288.91 413.21 289.07C413.46 289.21 413.71 289.35 413.92 289.49C414.66 289.96 420.59 293.74 421.33 294.22C421.39 294.26 421.44 294.31 421.49 294.38C422.35 294.38 423.22 294.38 424.07 294.38ZM425.23 294.51C425.23 294.49 425.21 294.49 425.19 294.47C424.23 293.76 423.29 293.05 422.33 292.34C420.53 290.99 418.67 289.62 416.87 288.23C416.86 288.22 416.8 288.18 416.71 288.11C416.82 288.1 416.88 288.09 416.89 288.09C417.92 288 418.99 287.89 420.21 287.75C420.21 287.75 420.22 287.75 420.25 287.75C420.27 287.76 420.27 287.77 420.27 287.77C422.86 290.19 425.67 292.43 428.64 294.38C428.65 294.39 428.72 294.43 428.85 294.51C428.69 294.51 428.61 294.51 428.59 294.51C427.5 294.51 426.38 294.54 425.28 294.54C425.28 294.54 425.27 294.54 425.26 294.54C425.24 294.52 425.24 294.52 425.23 294.51ZM422.45 292.21C423.41 292.91 424.34 293.62 425.3 294.33C425.33 294.33 425.33 294.35 425.35 294.35C426.35 294.35 427.38 294.35 428.39 294.33C425.51 292.41 422.77 290.24 420.25 287.86C419.11 288.02 418.1 288.14 417.14 288.23C418.9 289.58 420.71 290.93 422.45 292.21ZM420.43 294.51C418.74 294.51 417.23 294.49 415.82 294.47C415.82 294.47 415.81 294.47 415.79 294.47C415.78 294.45 415.77 294.45 415.77 294.45C415.75 294.42 415.75 294.42 415.73 294.4C415.23 294.02 412.73 292.14 408.23 288.75C408.35 288.74 408.42 288.73 408.43 288.73C409.33 288.69 410.24 288.62 411.38 288.55C411.38 288.55 411.39 288.55 411.41 288.55C411.42 288.56 411.43 288.57 411.43 288.57C411.63 288.73 411.84 288.87 412.07 289.01C412.16 289.05 412.25 289.12 412.32 289.17C412.88 289.52 415.67 291.31 420.69 294.51C420.53 294.51 420.45 294.51 420.43 294.51ZM420.14 294.38C419.34 293.87 413 289.81 412.21 289.3C412.11 289.26 412.02 289.19 411.95 289.14C411.75 289.01 411.52 288.87 411.34 288.73C410.31 288.8 409.44 288.87 408.64 288.91C409.36 289.45 415.1 293.77 415.82 294.31C415.79 294.31 415.82 294.31 415.82 294.33C417.17 294.35 418.58 294.35 420.14 294.38ZM429.67 294.51C426.58 292.55 423.66 290.29 420.98 287.79C420.98 287.79 420.94 287.75 420.87 287.68C420.96 287.67 421.02 287.66 421.03 287.66C422.31 287.5 423.54 287.36 424.75 287.18C424.76 287.18 424.77 287.18 424.8 287.18C424.83 287.19 424.84 287.2 424.85 287.2C427.73 289.85 430.15 291.95 432.5 293.81C432.51 293.81 432.53 293.82 432.57 293.85C432.54 293.89 432.53 293.92 432.53 293.92C432.39 294.06 432.32 294.24 432.3 294.42C432.3 294.43 432.3 294.45 432.3 294.49C432.26 294.49 432.23 294.49 432.23 294.49C431.45 294.49 430.65 294.51 429.87 294.51C429.86 294.51 429.79 294.51 429.67 294.51C429.67 294.51 429.67 294.51 429.67 294.51ZM429.74 294.35C429.75 294.35 429.84 294.35 429.85 294.35C430.61 294.35 431.38 294.33 432.14 294.33C432.16 294.17 432.23 294.01 432.34 293.87C430.01 292.05 427.61 289.97 424.78 287.34C423.61 287.5 422.42 287.63 421.21 287.79C423.86 290.24 426.72 292.43 429.74 294.35ZM414.79 294.47C413.28 294.45 411.93 294.42 410.67 294.4C410.67 294.4 410.67 294.4 410.67 294.4C410.44 294.4 410.31 294.4 410.29 294.4C409.26 294.38 408.23 294.35 407.2 294.31C407.19 294.31 407.14 294.31 407.04 294.31L407.04 294.31C406.85 294.31 406.74 294.31 406.72 294.31C405.46 294.26 404.21 294.24 402.95 294.17C402.95 294.17 402.93 294.17 402.9 294.17C402.89 294.16 402.88 294.15 402.88 294.15C402.86 294.13 402.83 294.1 402.81 294.08C401.26 293.28 399.89 292.23 398.63 291.25C398.22 290.9 397.78 290.58 397.37 290.24C397.31 290.19 396.86 289.83 396.8 289.78C396.66 289.67 396.55 289.55 396.41 289.44C396.34 289.37 396.27 289.3 396.18 289.23C396.17 289.23 396.12 289.18 396.02 289.1C396.15 289.1 396.21 289.1 396.23 289.1C397.19 289.1 398.15 289.1 399.09 289.1C399.09 289.1 399.09 289.1 399.11 289.1C399.12 289.11 399.13 289.12 399.13 289.12C399.36 289.37 399.77 289.65 400.07 289.83C400.18 289.92 400.3 289.97 400.34 290.03C400.94 290.49 401.6 290.97 402.45 291.54C403.75 292.43 405.14 293.3 406.74 294.17C406.76 294.18 406.85 294.23 407.02 294.31C407.09 294.24 407.12 294.2 407.13 294.19C407.18 294.13 407.22 294.06 407.2 293.99C407.2 293.92 407.15 293.87 407.09 293.85C405.14 292.8 403.25 291.59 401.46 290.29C401.14 290.06 400.85 289.81 400.55 289.55C400.41 289.44 400.27 289.33 400.14 289.21C400.13 289.2 400.07 289.16 399.98 289.07C400.1 289.07 400.17 289.07 400.18 289.07C401.05 289.05 401.94 289.05 402.9 289.01C402.9 289.01 402.91 289.01 402.93 289.01C402.94 289.02 402.95 289.03 402.95 289.03C405.37 290.83 407.82 292.57 410.24 294.24C410.26 294.24 410.26 294.26 410.29 294.26C410.29 294.26 410.31 294.27 410.35 294.29C410.4 294.27 410.42 294.26 410.42 294.26C410.49 294.24 410.56 294.15 410.56 294.06C410.56 294.01 410.56 293.92 410.47 293.85C408.3 292.37 406.06 290.77 403.84 289.14C403.83 289.13 403.77 289.09 403.66 289.01C403.79 289.01 403.87 289.01 403.89 289.01C404.96 288.96 406.08 288.91 407.45 288.85C407.45 288.85 407.46 288.85 407.47 288.85L407.5 288.87L415.02 294.47C414.88 294.47 414.8 294.47 414.79 294.47ZM414.56 294.29C413.85 293.75 408.16 289.47 407.45 288.94C406.19 289.01 405.12 289.05 404.14 289.07C406.31 290.67 408.48 292.21 410.61 293.67C410.72 293.76 410.79 293.87 410.77 294.03C410.74 294.1 410.72 294.17 410.67 294.22C411.86 294.24 413.14 294.26 414.56 294.29ZM410.01 294.22C407.63 292.59 405.26 290.88 402.9 289.14C402.03 289.17 401.21 289.19 400.41 289.19C400.5 289.26 400.57 289.33 400.66 289.39C400.96 289.65 401.26 289.9 401.58 290.13C403.36 291.43 405.26 292.62 407.2 293.67C407.31 293.71 407.36 293.81 407.38 293.92C407.38 293.99 407.38 294.08 407.34 294.15C408.23 294.17 409.12 294.19 410.01 294.22ZM406.42 294.1C404.94 293.28 403.61 292.46 402.4 291.61C401.58 291.04 400.89 290.56 400.3 290.08C400.23 290.03 400.14 289.97 400.02 289.9C399.73 289.69 399.34 289.44 399.09 289.19C398.22 289.19 397.33 289.21 396.46 289.19C396.48 289.21 396.5 289.23 396.53 289.26C396.66 289.39 396.8 289.51 396.91 289.6C396.97 289.65 397.43 290.01 397.49 290.06C397.9 290.4 398.33 290.74 398.74 291.06C399.98 292.05 401.35 293.07 402.9 293.9C402.93 293.94 402.97 293.97 402.99 293.99C404.14 294.03 405.28 294.08 406.42 294.1ZM401.67 294.08C400.41 294.03 399.15 293.99 397.9 293.92C397.9 293.92 397.89 293.92 397.87 293.92C397.86 293.91 397.85 293.9 397.85 293.9C395.54 292.25 393.14 290.63 390.72 289.07C390.7 289.07 390.63 289.02 390.49 288.94C390.66 288.94 390.75 288.94 390.77 288.94C392.21 288.98 393.69 289.01 395.2 289.03C395.2 289.03 395.21 289.03 395.22 289.03C395.24 289.03 395.24 289.03 395.25 289.03C395.27 289.05 395.29 289.05 395.29 289.05C395.73 289.19 396.21 289.65 396.62 290.06C396.8 290.24 396.98 290.4 397.14 290.54C397.17 290.56 397.35 290.7 397.37 290.72C397.87 291.13 398.4 291.54 398.93 291.95C399.95 292.78 400.85 293.39 401.74 293.92C401.75 293.93 401.83 293.99 401.97 294.1C401.79 294.09 401.69 294.08 401.67 294.08ZM401.37 293.92C400.55 293.42 399.73 292.82 398.79 292.09C398.26 291.68 397.76 291.27 397.23 290.86C397.21 290.84 397.03 290.69 397.01 290.67C396.85 290.54 396.66 290.38 396.48 290.19C396.07 289.81 395.61 289.35 395.2 289.23C395.18 289.23 395.15 289.21 395.13 289.21C393.74 289.19 392.34 289.17 390.99 289.12C393.37 290.63 395.68 292.21 397.92 293.78C399.06 293.83 400.23 293.87 401.37 293.92ZM396 293.85C395.38 293.83 394.74 293.78 394.13 293.76C394.12 293.76 394.11 293.76 394.08 293.76C394.07 293.73 394.06 293.72 394.06 293.71C394.01 293.65 393.97 293.6 393.92 293.55C393.42 293.24 390.93 291.64 386.45 288.78C386.62 288.79 386.72 288.8 386.74 288.8C387.59 288.85 388.53 288.89 389.58 288.91C389.58 288.91 389.59 288.91 389.6 288.91C389.61 288.91 389.62 288.91 389.62 288.91C392.05 290.42 394.47 292.05 396.85 293.71C396.86 293.73 396.92 293.79 397.03 293.9C396.41 293.87 396.07 293.85 396 293.85ZM396 293.71C396.05 293.72 396.45 293.73 396.5 293.74C394.19 292.11 391.86 290.56 389.53 289.1C388.59 289.05 387.77 289.03 386.99 288.98C387.69 289.43 393.29 293.01 393.99 293.46C394.06 293.49 394.13 293.55 394.17 293.62C394.79 293.65 395.38 293.69 396 293.71ZM433.6 293.46C433.46 293.35 433.3 293.23 433.17 293.14C433.07 293.07 433.01 293.03 432.94 292.98C432.11 292.34 431.22 291.61 430.24 290.79C428.57 289.39 426.88 287.91 425.1 286.26C425.1 286.26 425.09 286.25 425.07 286.24L425.07 284.14L433.67 290.49C433.67 290.52 433.67 290.53 433.67 290.54C433.71 291.52 433.74 292.5 433.74 293.44C433.74 293.45 433.73 293.49 433.71 293.58C433.65 293.51 433.61 293.47 433.6 293.46ZM430.33 290.65C431.34 291.47 432.21 292.21 433.03 292.85C433.1 292.89 433.17 292.94 433.26 293.01C433.35 293.07 433.46 293.14 433.58 293.23C433.58 292.37 433.55 291.45 433.51 290.54C432.96 290.13 430.19 288.09 425.21 284.41L425.21 286.15C427.51 288.24 429.22 289.74 430.33 290.65ZM425.05 283.57L425.05 281.21C425.12 281.25 425.16 281.28 425.17 281.28C428 283.11 430.74 285.07 433.35 287.13C433.35 287.13 433.36 287.14 433.37 287.15C433.37 287.17 433.37 287.18 433.37 287.18C433.46 288.02 433.55 288.89 433.6 289.74C433.6 289.75 433.61 289.8 433.62 289.9L425.05 283.57ZM433.44 289.58C433.39 288.8 433.33 288 433.23 287.22C430.67 285.21 427.98 283.27 425.21 281.49C425.21 281.62 425.21 282.28 425.21 283.47C430.15 287.14 432.89 289.17 433.44 289.58ZM384.98 287.84C384.98 287.84 384.97 287.84 384.96 287.84L384.73 287.7C384.75 287.68 384.75 287.66 384.75 287.66C384.78 287.61 384.78 287.57 384.78 287.52C384.79 283.97 384.88 266.24 385.03 234.33L385.03 234.22C385.1 234.23 385.14 234.24 385.14 234.24C385.14 234.24 385.17 234.24 385.17 234.24C387.59 234.29 399.72 234.56 421.55 235.04L421.55 235.11L422.67 244.66C422.65 244.68 422.63 244.68 422.63 244.69C422.51 244.73 422.45 244.85 422.4 244.96C422.4 244.96 422.39 244.98 422.38 245.01C422.35 245.01 422.33 245.01 422.33 245.01C417.26 245.21 412.09 245.53 406.97 245.9C406.97 245.9 406.96 245.9 406.95 245.9C406.93 245.88 406.93 245.88 406.93 245.87C406.86 245.83 406.77 245.83 406.67 245.9C406.67 245.9 406.67 245.91 406.65 245.92C406.64 245.92 406.63 245.92 406.63 245.92C404.23 246.1 401.9 246.29 399.7 246.49C399.47 246.51 399.25 246.67 399.27 246.93C399.45 249.35 399.36 251.75 398.97 254.08C398.95 254.24 398.97 254.38 399.06 254.49C399.13 254.58 399.25 254.63 399.38 254.63C405.44 254.81 411.54 255.31 417.49 256.14C417.49 256.14 417.5 256.14 417.53 256.14C417.53 256.16 417.53 256.18 417.53 256.18C418.1 259.77 418.24 263.43 417.97 267.11C417.97 267.11 417.97 267.14 417.97 267.18C406.65 266.74 400.37 266.49 399.11 266.45C399.11 266.45 399.11 266.45 399.11 266.45C398.83 266.45 398.7 266.67 398.67 266.88C398.67 266.9 398.65 267.02 398.65 267.04C398.56 267.18 398.54 267.36 398.61 267.5C398.61 267.5 398.61 267.51 398.61 267.52C398.61 267.53 398.61 267.54 398.61 267.54C398.54 268.27 398.47 269.05 398.42 269.83C398.42 269.83 398.42 269.85 398.42 269.87C398.4 269.89 398.38 269.9 398.38 269.9C398.29 269.92 398.22 269.99 398.19 270.06C398.17 270.1 398.19 270.15 398.22 270.19C398.24 270.24 398.29 270.29 398.35 270.33C398.36 270.33 398.36 270.34 398.38 270.35C398.38 270.38 398.38 270.4 398.38 270.4C398.33 271.2 398.29 272.02 398.29 272.85C398.29 272.85 398.29 272.86 398.29 272.89C398.26 272.91 398.24 272.91 398.24 272.91C398.17 272.96 398.1 273.03 398.1 273.12C398.1 273.19 398.13 273.26 398.22 273.33C398.22 273.33 398.24 273.34 398.29 273.37C398.29 273.4 398.29 273.41 398.29 273.42C398.26 274.15 398.26 274.81 398.26 275.41C398.26 275.63 398.45 275.84 398.7 275.84C400.39 275.86 408.88 275.97 424.16 276.16L424.16 286.38C424.12 286.38 424.1 286.38 424.09 286.38C419.84 286.95 415.52 287.38 411.2 287.7C411.2 287.7 411.18 287.7 411.15 287.7C411.14 287.68 411.13 287.66 411.13 287.66C411.09 287.57 411.02 287.54 410.95 287.54C410.86 287.54 410.77 287.59 410.72 287.68C410.72 287.68 410.71 287.7 410.7 287.73C410.67 287.73 410.65 287.73 410.65 287.73C409.35 287.82 408.21 287.89 407.11 287.93C407.11 287.93 407.1 287.93 407.09 287.93C407.07 287.92 407.06 287.91 407.06 287.91C406.99 287.86 406.93 287.86 406.86 287.91C406.86 287.91 406.85 287.92 406.83 287.93C406.82 287.93 406.81 287.93 406.81 287.93C403.66 288.14 400.37 288.21 397.12 288.21C393.1 288.21 389.01 288.09 384.98 287.84ZM397.14 288.07C400.37 288.07 403.66 288 406.88 287.84C406.97 287.77 407.11 287.77 407.2 287.82C408.27 287.77 409.42 287.7 410.67 287.61C410.74 287.5 410.88 287.43 411.02 287.43C411.13 287.43 411.22 287.47 411.29 287.57C415.57 287.27 419.84 286.83 424.05 286.26C424.05 285.6 424.05 282.29 424.05 276.32C408.85 276.13 400.41 276.02 398.72 276C398.4 276 398.15 275.73 398.15 275.43C398.15 274.83 398.15 274.19 398.17 273.46C398.06 273.39 397.99 273.26 398.01 273.12C398.01 272.98 398.08 272.87 398.19 272.8C398.22 272 398.24 271.2 398.29 270.42C398.24 270.38 398.19 270.33 398.17 270.29C398.1 270.19 398.08 270.1 398.13 270.01C398.15 269.92 398.24 269.83 398.33 269.76C398.38 268.98 398.45 268.23 398.51 267.52C398.42 267.34 398.45 267.13 398.56 266.95C398.56 266.94 398.56 266.85 398.56 266.83C398.58 266.56 398.79 266.26 399.13 266.26C399.13 266.26 399.14 266.26 399.15 266.26C410.39 266.7 416.63 266.95 417.87 266.99C418.15 263.38 418.01 259.77 417.44 256.23C411.52 255.43 405.44 254.93 399.41 254.72C399.22 254.72 399.09 254.65 398.97 254.51C398.86 254.38 398.81 254.19 398.83 253.99C399.2 251.68 399.31 249.28 399.13 246.88C399.11 246.54 399.41 246.31 399.7 246.29C401.9 246.08 404.23 245.9 406.61 245.71C406.72 245.62 406.88 245.62 406.99 245.69C412.09 245.33 417.23 245.01 422.29 244.8C422.33 244.69 422.42 244.57 422.54 244.5C422.46 243.88 422.1 240.75 421.44 235.13L385.21 234.33C385.06 266.22 384.98 283.93 384.96 287.47C384.96 287.52 384.96 287.57 384.94 287.59C384.94 287.6 384.97 287.63 385.03 287.7C390.42 287.95 394.46 288.07 397.14 288.07ZM433.17 286.4C430.56 284.37 427.84 282.45 425.1 280.69C425.09 280.68 425.08 280.68 425.05 280.66L425.05 276.39C425.12 276.46 425.16 276.5 425.17 276.5C426.31 277.49 427.52 278.45 428.73 279.36C429.35 279.82 430.01 280.32 430.86 280.89C431.15 281.1 431.47 281.3 431.79 281.53C432.43 281.97 432.59 282.51 432.75 283.22C432.96 284.23 433.14 285.28 433.28 286.35C433.28 286.36 433.29 286.42 433.3 286.51C433.22 286.45 433.17 286.41 433.17 286.4ZM433.1 286.17C432.96 285.17 432.8 284.18 432.59 283.22C432.46 282.54 432.32 282.03 431.7 281.65C431.38 281.44 431.09 281.23 430.77 281.01C429.92 280.41 429.23 279.93 428.62 279.45C427.45 278.56 426.29 277.65 425.19 276.69C425.19 276.94 425.2 278.24 425.21 280.57C428.76 282.98 431.39 284.85 433.1 286.17ZM401.55 275.04C401.54 275.01 401.53 275 401.53 274.99C401.51 274.97 401.49 274.95 401.46 274.93C401.31 274.83 400.55 274.32 399.18 273.42C399.18 273.39 399.18 273.37 399.18 273.37C399.2 272.59 399.22 271.82 399.27 271.06C399.27 271.05 399.27 271.01 399.27 270.93L399.43 271.02L405.85 275.09L401.55 275.04ZM405.33 274.93C401.77 272.68 399.8 271.43 399.41 271.18C399.38 271.89 399.34 272.59 399.34 273.33C399.56 273.47 401.33 274.64 401.55 274.79C401.58 274.81 401.62 274.86 401.65 274.88C402.14 274.89 403.36 274.9 405.33 274.93ZM399.15 274.99C399.15 274.95 399.15 274.93 399.15 274.93C399.15 274.65 399.15 274.35 399.15 274.08C399.15 274.07 399.15 274.03 399.15 273.94L400.8 275.02L399.15 274.99ZM400.27 274.88C399.7 274.5 399.38 274.28 399.31 274.24C399.29 274.42 399.29 274.65 399.29 274.86C399.42 274.86 399.75 274.87 400.27 274.88ZM399.63 270.63C399.57 270.58 399.47 270.54 399.36 270.47C399.35 270.47 399.32 270.45 399.27 270.42C399.27 270.4 399.27 270.38 399.27 270.38C399.31 269.55 399.36 268.87 399.43 268.23C399.43 268.22 399.43 268.17 399.43 268.09C399.5 268.13 399.54 268.16 399.54 268.16C401.81 269.62 404.07 271.11 406.33 272.57C406.33 272.57 406.35 272.58 406.38 272.59L406.38 274.88C402.33 272.33 400.08 270.91 399.63 270.63ZM399.45 270.33C399.57 270.38 399.66 270.45 399.75 270.49C400.18 270.77 402.35 272.14 406.26 274.61C406.26 273.45 406.26 272.81 406.26 272.69C404.05 271.25 401.83 269.81 399.61 268.37C399.52 268.96 399.5 269.6 399.45 270.33C399.45 270.33 399.45 270.33 399.45 270.33ZM406.7 271.79C405.72 271.16 405.18 270.81 405.07 270.74C403.41 269.65 401.74 268.57 400.07 267.47C400.05 267.46 399.98 267.41 399.84 267.31L403.98 267.47C403.99 267.49 404 267.5 404 267.5C406.03 268.91 408.18 270.29 410.33 271.59C410.35 271.6 410.42 271.64 410.56 271.73C408.45 271.73 407.27 271.73 407.04 271.73C406.95 271.73 406.88 271.75 406.81 271.79C406.81 271.8 406.78 271.8 406.74 271.82L406.7 271.79ZM405.14 270.61C405.3 270.71 406.58 271.53 406.74 271.63C406.83 271.59 406.93 271.57 407.02 271.57C407.31 271.57 409.69 271.57 409.99 271.57C407.91 270.33 405.87 269.01 403.91 267.63C403.67 267.63 402.49 267.58 400.37 267.5C402.48 268.88 404.08 269.92 405.14 270.61ZM420.21 271.73L414.38 267.89C416.78 267.98 418.11 268.04 418.38 268.05C418.38 268.05 418.38 268.05 418.38 268.05C418.47 268.05 418.54 268.02 418.61 267.98C418.61 267.98 418.62 267.97 418.65 267.95C418.68 267.97 418.69 267.98 418.7 267.98C418.99 268.11 419.31 268.27 419.61 268.41C421.67 269.37 423.79 270.38 425.76 271.59C425.78 271.6 425.85 271.64 425.99 271.73L420.21 271.73ZM425.44 271.57C423.57 270.42 421.51 269.46 419.54 268.53C419.25 268.39 418.95 268.25 418.65 268.11C418.56 268.16 418.47 268.18 418.38 268.18C418.38 268.18 418.37 268.18 418.35 268.18L414.9 268.05L420.25 271.57C423.36 271.57 425.09 271.57 425.44 271.57ZM415.18 271.73C415.16 271.71 415.16 271.7 415.15 271.7C415.13 271.68 415.13 271.68 415.11 271.68C412.91 270.56 410.79 269.26 408.78 267.82C408.76 267.81 408.69 267.76 408.57 267.68L413.55 267.89C413.57 267.9 413.58 267.91 413.58 267.91C413.6 267.93 413.62 267.95 413.65 267.95C414.03 268.21 415.94 269.46 419.38 271.73L415.18 271.73ZM418.88 271.57C415.68 269.47 413.91 268.3 413.55 268.07C413.53 268.05 413.51 268.02 413.49 268C413.04 267.98 409.52 267.84 409.07 267.82C411.02 269.19 413.07 270.45 415.18 271.52C415.18 271.54 415.2 271.54 415.22 271.57C415.71 271.57 416.93 271.57 418.88 271.57ZM411.45 271.73C411.34 271.64 411.28 271.6 411.27 271.59C411.22 271.57 411.2 271.54 411.15 271.54C411.15 271.54 411.15 271.54 411.13 271.54C411.12 271.53 411.11 271.52 411.11 271.52C409.05 270.31 406.99 269.01 405.01 267.66C404.99 267.65 404.91 267.59 404.78 267.5L407.75 267.61C407.76 267.63 407.77 267.63 407.77 267.63C409.71 269.1 411.79 270.42 413.94 271.57C413.96 271.58 414.04 271.63 414.19 271.73L411.45 271.73ZM413.6 271.57C411.54 270.45 409.58 269.17 407.7 267.77C407.47 267.76 405.56 267.69 405.33 267.68C407.22 268.98 409.19 270.22 411.18 271.38C411.25 271.38 411.31 271.41 411.38 271.45C411.39 271.46 411.43 271.5 411.5 271.57C412.76 271.57 413.46 271.57 413.6 271.57ZM426.29 270.9C424.32 269.67 422.15 268.64 420.07 267.66C419.68 267.47 419.29 267.29 418.9 267.11C418.9 267.11 418.88 267.1 418.86 267.09C418.86 267.06 418.86 267.04 418.86 267.04C418.9 266.35 418.95 265.62 418.97 264.82C418.97 264.82 418.97 264.78 418.97 264.71L426.42 268.46L426.4 270.97C426.33 270.93 426.29 270.91 426.29 270.9ZM420.14 267.52C422.19 268.48 424.3 269.49 426.26 270.7C426.26 270.55 426.26 269.83 426.26 268.53C421.97 266.37 419.59 265.18 419.11 264.94C419.09 265.69 419.06 266.35 419.02 266.99C419.38 267.18 419.77 267.34 420.14 267.52ZM418.99 264.18C418.99 264.16 418.99 264.14 418.99 264.14C418.99 263.54 418.99 262.95 418.99 262.33C418.99 262.32 418.99 262.27 418.99 262.17C419.06 262.23 419.1 262.26 419.11 262.26C421.37 263.89 423.84 265.28 426.38 266.4C426.38 266.4 426.4 266.41 426.42 266.42L426.42 267.93L418.99 264.18ZM426.26 267.68C426.26 266.99 426.26 266.61 426.26 266.54C423.75 265.44 421.35 264.09 419.13 262.49C419.13 263.04 419.15 263.59 419.13 264.09C420.08 264.57 422.46 265.77 426.26 267.68ZM426.31 265.9C423.7 264.75 421.26 263.31 418.97 261.65C418.97 261.64 418.96 261.64 418.95 261.62C418.95 261.6 418.95 261.58 418.95 261.58C418.93 261.14 418.9 260.66 418.86 260.11C418.86 260.1 418.86 260.05 418.86 259.95C418.94 260.01 418.99 260.04 418.99 260.05C421.37 261.76 423.84 263.36 426.4 264.8C426.4 264.8 426.42 264.81 426.45 264.82C426.45 264.85 426.45 264.87 426.45 264.87C426.45 265.19 426.45 265.49 426.45 265.81C426.44 265.81 426.44 265.86 426.42 265.94C426.35 265.92 426.32 265.9 426.31 265.9ZM426.29 265.71C426.29 265.46 426.29 265.19 426.29 264.94C423.79 263.52 421.37 261.97 419.04 260.27C419.06 260.73 419.09 261.17 419.11 261.55C421.33 263.18 423.75 264.59 426.29 265.71ZM426.31 264.25C423.75 262.79 421.23 261.14 418.83 259.38C418.83 259.38 418.83 259.37 418.81 259.36C418.81 259.35 418.81 259.34 418.81 259.34C418.72 258.4 418.63 257.49 418.49 256.62C418.49 256.61 418.48 256.55 418.47 256.46C418.55 256.51 418.6 256.54 418.61 256.55C420.89 258.1 423.09 259.82 425.12 261.71C425.13 261.73 425.22 261.82 425.23 261.83C425.85 262.4 426.4 262.9 426.4 263.84C426.4 263.91 426.4 264 426.4 264.07C426.4 264.09 426.41 264.17 426.42 264.32C426.35 264.28 426.32 264.26 426.31 264.25ZM426.26 264.07C426.26 264.07 426.26 264.07 426.26 264.07C426.26 264 426.26 263.91 426.26 263.84C426.26 262.95 425.76 262.49 425.14 261.92C425.13 261.91 425.04 261.82 425.03 261.81C423.04 259.98 420.89 258.29 418.67 256.75C418.79 257.58 418.88 258.42 418.95 259.29C421.3 261.01 423.75 262.63 426.26 264.07ZM405.71 254.06C405.7 254.03 405.69 254.01 405.69 254.01C405.67 253.99 405.65 253.94 405.6 253.94C403.75 252.94 401.92 251.77 400.21 250.51C400.2 250.51 400.2 250.51 400.18 250.49C400.18 250.46 400.18 250.45 400.18 250.45C400.21 249.74 400.21 249.03 400.21 248.34C400.21 248.33 400.21 248.28 400.21 248.18C400.29 248.25 400.33 248.29 400.34 248.3C402.17 249.85 404.14 251.27 406.17 252.53C406.17 252.53 406.19 252.53 406.22 252.55C406.22 252.58 406.22 252.59 406.22 252.59C406.19 253.07 406.19 253.55 406.26 254.01C406.26 254.02 406.25 254.05 406.24 254.1L405.71 254.06ZM406.08 253.94C406.03 253.51 406.03 253.07 406.03 252.64C404.05 251.41 402.15 250.03 400.34 248.53C400.37 249.14 400.34 249.78 400.32 250.45C402.03 251.7 403.82 252.85 405.67 253.85C405.74 253.83 405.78 253.87 405.81 253.92C405.86 253.92 406.05 253.94 406.08 253.94ZM404.46 253.97C402.95 253.87 401.44 253.81 399.98 253.76C399.97 253.76 399.94 253.76 399.89 253.76C399.9 253.71 399.91 253.67 399.91 253.67C400.02 252.85 400.11 252 400.16 251.15C400.16 251.15 400.16 251.1 400.16 251.02C400.23 251.07 400.27 251.1 400.27 251.11C401.62 252.09 403.04 253.01 404.5 253.83C404.52 253.84 404.61 253.89 404.78 253.99C404.59 253.97 404.48 253.97 404.46 253.97ZM404.14 253.81C402.81 253.03 401.53 252.21 400.3 251.31C400.25 252.09 400.16 252.87 400.05 253.62C401.37 253.67 402.74 253.74 404.14 253.81ZM431.36 251.86C429.94 251.86 428.5 251.86 427.09 251.84C427.08 251.84 427.08 251.84 427.06 251.84C427.05 251.83 427.04 251.82 427.04 251.82C424.48 250.15 422.1 248.23 419.95 246.06C419.95 246.05 419.91 246.01 419.84 245.94C419.94 245.94 419.99 245.94 420 245.94C421.07 245.9 422.13 245.85 423.2 245.81C423.25 245.81 423.31 245.78 423.36 245.76C423.36 245.76 423.38 245.75 423.41 245.74C423.42 245.75 423.43 245.76 423.43 245.76C423.79 246.01 424.11 246.38 424.41 246.72C424.55 246.88 424.69 247.04 424.82 247.18C425.44 247.82 426.22 248.32 426.95 248.82C426.96 248.83 427.01 248.86 427.02 248.87C428.37 249.76 429.76 250.67 431.11 251.54C431.14 251.56 431.31 251.67 431.61 251.86C431.46 251.86 431.38 251.86 431.36 251.86ZM431.11 251.73C431.1 251.72 431.07 251.68 431.06 251.68C429.71 250.81 428.32 249.9 426.97 249.01C426.96 249 426.91 248.96 426.9 248.96C426.15 248.46 425.37 247.95 424.75 247.29C424.62 247.15 424.48 246.97 424.34 246.83C424.07 246.51 423.77 246.17 423.43 245.94C423.36 245.97 423.31 245.97 423.25 245.99C422.24 246.03 421.23 246.08 420.21 246.13C422.29 248.21 424.62 250.08 427.11 251.7C428.43 251.7 429.76 251.73 431.11 251.73ZM425.97 251.84C424.46 251.84 422.93 251.82 421.42 251.79C421.41 251.79 421.4 251.79 421.37 251.79C421.36 251.77 421.35 251.75 421.35 251.75C421.33 251.73 421.33 251.7 421.28 251.68C419.27 250.06 417.39 248.25 415.68 246.29C415.67 246.28 415.64 246.24 415.59 246.17C415.68 246.17 415.74 246.17 415.75 246.17C416.91 246.1 418.08 246.03 419.25 245.99C419.25 245.99 419.27 245.99 419.31 245.99C419.33 246.03 419.34 246.05 419.34 246.06C419.34 246.1 419.36 246.13 419.41 246.17C421.42 248.23 423.66 250.08 426.03 251.7C426.05 251.71 426.11 251.76 426.22 251.84C426.07 251.84 425.98 251.84 425.97 251.84ZM425.71 251.68C423.41 250.08 421.23 248.25 419.27 246.26C419.22 246.22 419.2 246.17 419.18 246.13C418.08 246.17 416.98 246.24 415.91 246.31C417.6 248.21 419.43 249.97 421.39 251.57C421.42 251.59 421.46 251.63 421.46 251.66C422.88 251.68 424.3 251.68 425.71 251.68ZM419.57 251.79C419.11 251.79 418.67 251.79 418.22 251.77C418.21 251.77 418.18 251.77 418.13 251.77C418.13 251.72 418.13 251.69 418.13 251.68C418.13 251.63 418.13 251.52 418.03 251.45C416.32 250.22 414.67 248.82 413.07 247.5C412.69 247.18 412.3 246.86 411.91 246.54C411.9 246.53 411.85 246.49 411.77 246.42C411.88 246.41 411.94 246.4 411.95 246.4C412.98 246.33 413.99 246.26 415.02 246.22C415.02 246.22 415.04 246.22 415.09 246.22C415.1 246.26 415.11 246.28 415.11 246.29C415.11 246.33 415.13 246.35 415.15 246.38C416.8 248.27 418.63 250.06 420.57 251.68C420.58 251.69 420.64 251.73 420.73 251.79C420.03 251.79 419.64 251.79 419.57 251.79ZM419.57 251.63C419.64 251.63 420.22 251.63 420.3 251.63C418.4 250.06 416.64 248.32 415.02 246.45C414.99 246.42 414.97 246.38 414.95 246.35C414.01 246.4 413.07 246.47 412.14 246.51C412.48 246.79 412.8 247.09 413.14 247.36C414.74 248.71 416.39 250.08 418.1 251.31C418.22 251.41 418.29 251.52 418.29 251.63C418.72 251.63 419.13 251.63 419.57 251.63ZM417.46 251.77C416.37 251.75 415.27 251.75 414.17 251.73C414.17 251.73 414.14 251.73 414.1 251.73C414.1 251.68 414.1 251.66 414.1 251.66C414.1 251.61 414.08 251.54 413.99 251.47C411.77 250.17 409.69 248.59 407.84 246.81C407.83 246.8 407.79 246.77 407.73 246.7C407.82 246.68 407.88 246.68 407.89 246.67C408.94 246.61 410.01 246.54 411.06 246.45C411.06 246.45 411.07 246.45 411.09 246.45C411.1 246.46 411.11 246.47 411.11 246.47C411.63 246.9 412.16 247.34 412.69 247.79C414.24 249.1 415.82 250.42 417.46 251.63C417.48 251.64 417.55 251.69 417.69 251.77C417.55 251.77 417.48 251.77 417.46 251.77ZM417.21 251.63C415.63 250.47 414.1 249.17 412.62 247.93C412.09 247.5 411.59 247.06 411.06 246.63C410.08 246.7 409.07 246.77 408.09 246.83C409.9 248.57 411.91 250.1 414.08 251.36C414.17 251.41 414.22 251.5 414.24 251.59C415.22 251.61 416.23 251.61 417.21 251.63ZM406.47 251.7C404.41 250.42 402.42 248.96 400.59 247.38C400.59 247.38 400.54 247.34 400.46 247.27C400.57 247.25 400.63 247.25 400.64 247.25C401.62 247.15 402.61 247.09 403.59 246.99C403.59 246.99 403.6 246.99 403.61 246.99C403.63 247.01 403.63 247.02 403.63 247.02C403.7 247.09 403.79 247.15 403.89 247.22C403.95 247.27 404.02 247.31 404.07 247.38C404.64 247.86 405.26 248.39 406.03 249.01C407.09 249.85 408.23 250.67 409.49 251.52C409.5 251.53 409.57 251.57 409.69 251.66C408.95 251.64 408.54 251.64 408.46 251.63C407.91 251.63 407.34 251.61 406.79 251.61C406.79 251.61 406.79 251.61 406.79 251.61C406.67 251.61 406.61 251.63 406.54 251.68C406.54 251.68 406.53 251.7 406.51 251.73C406.49 251.71 406.47 251.7 406.47 251.7ZM406.51 251.54C406.61 251.5 406.7 251.47 406.81 251.47C407.38 251.47 407.93 251.5 408.5 251.5C408.58 251.5 409.16 251.5 409.23 251.5C408.05 250.67 406.99 249.9 405.99 249.1C405.21 248.48 404.57 247.95 404.02 247.47C403.95 247.43 403.91 247.38 403.84 247.31C403.77 247.25 403.68 247.2 403.61 247.13C402.65 247.25 401.74 247.31 400.82 247.38C402.61 248.89 404.5 250.29 406.51 251.54ZM412.37 251.7C411.77 251.7 411.15 251.68 410.56 251.68C410.56 251.68 410.55 251.68 410.54 251.68C410.52 251.67 410.52 251.66 410.51 251.66C410.51 251.66 410.49 251.63 410.47 251.63C409.37 250.9 408.25 250.13 407.2 249.33C406.63 248.89 406.03 248.41 405.26 247.79C405.19 247.75 405.07 247.66 404.94 247.57C404.75 247.43 404.5 247.27 404.32 247.11C404.31 247.1 404.26 247.06 404.16 246.99C404.27 246.98 404.33 246.97 404.34 246.97C405.26 246.9 406.17 246.83 407.09 246.77C407.09 246.77 407.1 246.77 407.13 246.77C407.15 246.78 407.15 246.79 407.15 246.79C408.98 248.64 411.04 250.26 413.28 251.61C413.3 251.62 413.37 251.66 413.51 251.73C412.82 251.71 412.44 251.7 412.37 251.7ZM412.37 251.57C412.43 251.57 412.9 251.57 412.96 251.57C410.83 250.24 408.85 248.66 407.06 246.9C406.22 246.97 405.39 247.02 404.55 247.09C404.71 247.2 404.87 247.34 405.01 247.43C405.14 247.52 405.26 247.61 405.33 247.66C406.08 248.27 406.7 248.75 407.27 249.19C408.32 249.99 409.44 250.77 410.54 251.5C410.56 251.52 410.58 251.52 410.58 251.54C411.18 251.54 411.77 251.57 412.37 251.57ZM431.47 250.74C430.08 249.83 428.62 248.89 427.2 247.93C426.29 247.31 425.51 246.65 424.85 245.92C424.53 245.55 424.11 245.12 423.61 244.87C423.61 244.87 423.59 244.86 423.57 244.85L423.34 242.83C423.42 242.89 423.47 242.92 423.47 242.93C426.63 245.21 429.69 247.66 432.62 250.19C432.62 250.2 432.63 250.2 432.64 250.22C432.64 250.23 432.64 250.24 432.64 250.24C432.66 250.63 432.69 251.02 432.71 251.38C432.71 251.4 432.72 251.46 432.73 251.57C431.98 251.07 431.56 250.8 431.47 250.74ZM424.94 245.83C425.6 246.56 426.35 247.22 427.25 247.82C428.66 248.75 430.13 249.69 431.52 250.61C431.62 250.67 432.43 251.2 432.53 251.27C432.5 250.95 432.48 250.63 432.48 250.31C429.6 247.82 426.58 245.42 423.5 243.18C423.51 243.28 423.58 243.81 423.7 244.75C424.31 245.21 424.72 245.57 424.94 245.83ZM432.48 249.51C429.53 246.97 426.45 244.53 423.29 242.26C423.29 242.26 423.28 242.25 423.27 242.24L422.99 239.95C423.08 240 423.12 240.02 423.13 240.02C426.49 241.99 429.65 244.32 432.5 246.9C432.5 246.9 432.51 246.91 432.53 246.93C432.53 246.94 432.53 246.95 432.53 246.95C432.55 247.89 432.57 248.69 432.62 249.44C432.62 249.45 432.62 249.51 432.62 249.62C432.53 249.55 432.49 249.52 432.48 249.51ZM432.46 249.28C432.43 248.59 432.41 247.84 432.39 246.99C429.58 244.46 426.49 242.19 423.2 240.23C423.21 240.36 423.28 241 423.41 242.15C427.5 245.23 430.52 247.6 432.46 249.28ZM432.37 246.19C429.46 243.63 426.29 241.35 422.95 239.41C422.95 239.4 422.94 239.4 422.93 239.38L422.74 237.9C422.83 237.94 422.87 237.96 422.88 237.97C423.2 238.15 423.54 238.35 423.86 238.54C426.77 240.23 429.78 241.99 432.37 244.23C432.39 244.25 432.41 244.25 432.43 244.27C432.44 244.28 432.45 244.28 432.48 244.3C432.48 244.32 432.48 244.34 432.48 244.34C432.48 244.94 432.5 245.53 432.5 246.13C432.5 246.14 432.5 246.2 432.5 246.31C432.42 246.24 432.37 246.2 432.37 246.19ZM432.34 245.97C432.34 245.44 432.32 244.91 432.32 244.39C432.3 244.37 432.27 244.37 432.25 244.34C429.67 242.13 426.67 240.37 423.77 238.67C423.5 238.51 423.2 238.33 422.93 238.17C422.93 238.25 422.98 238.62 423.06 239.29C427.34 242.06 430.44 244.29 432.34 245.97ZM432.37 243.61C429.81 241.49 426.88 239.75 424.05 238.1C423.61 237.85 423.18 237.6 422.74 237.33C422.74 237.32 422.73 237.32 422.72 237.3L422.49 235.38L432.53 240.78C432.53 240.8 432.53 240.82 432.53 240.82C432.5 241.69 432.5 242.61 432.5 243.54C432.5 243.56 432.49 243.62 432.48 243.73C432.41 243.66 432.37 243.62 432.37 243.61ZM424.11 237.99C426.9 239.63 429.81 241.33 432.34 243.41C432.34 242.54 432.34 241.69 432.37 240.89C431.72 240.54 428.49 238.81 422.67 235.68L422.83 237.23C423.4 237.57 423.82 237.82 424.11 237.99Z" id="gaLS2oaEN"></path></defs><g><g><g><use xlink:href="#hZkEMK1MK" opacity="1" fill="#000000" fill-opacity="1"></use><g><use xlink:href="#hZkEMK1MK" opacity="1" fill-opacity="0" stroke="#000000" stroke-width="1" stroke-opacity="0"></use></g></g><g><use xlink:href="#gaLS2oaEN" opacity="1" fill="#180f0b" fill-opacity="1"></use><g><use xlink:href="#gaLS2oaEN" opacity="1" fill-opacity="0" stroke="#000000" stroke-width="1" stroke-opacity="0"></use></g></g></g></g></svg>