<?xml version="1.0" encoding="UTF-8" standalone="no"?>
<!DOCTYPE svg PUBLIC "-//W3C//DTD SVG 1.1//EN" "http://www.w3.org/Graphics/SVG/1.1/DTD/svg11.dtd">
<svg version="1.1" xmlns="http://www.w3.org/2000/svg" xmlns:xlink="http://www.w3.org/1999/xlink" preserveAspectRatio="xMidYMid meet" viewBox="456.0685714285715 232.23428571428573 54.13142857142867 65.97514176379033" width="50.13" height="61.98"><defs><path d="M506.65 240.05C505.6 239.48 497.19 234.96 496.14 234.4C496.05 234.35 495.95 234.33 495.86 234.33C495.77 234.15 495.59 234.06 495.38 234.03C491.71 233.95 462.28 233.31 458.61 233.23C458.45 233.23 458.31 233.3 458.19 233.39C458.1 233.49 458.06 233.62 458.06 233.76C458.06 233.76 458.06 233.76 458.06 233.76C457.76 233.76 457.49 233.94 457.46 234.33C457.44 239.65 457.24 282.2 457.21 287.52C457.1 287.66 457.05 287.84 457.07 288C457.1 288.14 457.17 288.25 457.26 288.32C457.21 290.35 457.35 292.39 457.65 294.42C457.69 294.7 457.97 294.81 458.19 294.83C462.79 295.41 467.41 295.31 471.98 294.63C472.14 294.77 472.37 294.83 472.62 294.7C474.35 293.74 475.82 292.48 477.21 291.09C477.23 291.06 477.23 291.06 477.26 291.04C477.28 291.06 477.3 291.06 477.33 291.09C477.65 291.34 477.97 290.86 477.74 290.56C478.22 290.08 478.72 289.58 479.18 289.05C479.31 289.03 479.43 288.89 479.45 288.73C479.66 288.46 479.86 288.18 480.05 287.91C480.11 287.95 480.18 288 480.25 288.07C480.62 288.34 480.94 287.75 480.59 287.47C480.53 287.43 480.46 287.36 480.37 287.31C480.46 287.11 480.55 286.9 480.64 286.7C480.85 286.1 480.96 285.46 481.01 284.78C481.03 284.73 481.03 284.66 481.01 284.62C481.1 283.22 480.94 281.74 480.94 280.43C480.94 278.1 480.94 275.77 480.91 273.44C480.91 273.35 480.89 273.28 480.87 273.21C480.87 273.05 480.87 272.89 480.85 272.73C482.8 272.73 498.48 272.73 500.43 272.73C500.55 272.73 500.66 272.71 500.75 272.64C500.96 272.59 501.12 272.41 501.19 272.18C501.23 271.93 501.14 271.7 500.96 271.57C500.94 271.54 500.89 271.52 500.87 271.5C500.87 271.5 500.85 271.49 500.82 271.47C500.84 268.28 500.84 266.5 500.85 266.15C500.85 265.87 500.87 265.6 500.87 265.33C500.96 265.26 501.01 265.12 501.01 265.01C501.01 264.91 500.96 264.82 500.89 264.75C500.91 263.73 500.87 262.58 500.05 261.71C497.81 259.43 495.02 257.23 491.5 254.97C491.25 254.81 490.97 254.86 490.79 255.06C487.45 254.61 484.05 254.26 480.66 253.99C480.59 253.55 480.59 253.1 480.62 252.62C489.1 252.75 497.69 252.85 506.13 252.87C506.17 252.87 506.22 252.87 506.29 252.85C506.38 252.89 506.45 252.91 506.54 252.91C506.77 252.91 506.99 252.73 507.06 252.48C507.15 252.39 507.2 252.25 507.2 252.09C506.95 248.27 506.86 244.39 506.95 240.55C506.95 240.34 506.83 240.14 506.65 240.05ZM472.71 274.83C472.71 274.63 472.71 274.42 472.71 274.22C472.77 274.26 473.1 274.47 473.69 274.86C473.1 274.84 472.77 274.84 472.71 274.83ZM473.78 267.5C474.14 267.51 476.97 267.62 477.33 267.63C479.29 269.01 481.35 270.33 483.41 271.57C483.11 271.57 480.73 271.57 480.43 271.57C480.32 271.57 480.23 271.59 480.16 271.63C480.05 271.57 479.52 271.22 478.56 270.61C476.43 269.22 474.83 268.18 473.78 267.5ZM473.17 270.49C473.1 270.45 472.98 270.4 472.89 270.33C472.89 270.33 472.89 270.33 472.89 270.33C472.94 269.58 472.98 268.96 473.03 268.34C475.25 269.78 477.46 271.22 479.68 272.66C479.68 272.85 479.68 274.35 479.68 274.54C478.24 273.53 476.75 272.62 475.22 271.79C474.81 271.53 473.37 270.62 473.17 270.49ZM487.02 271.57C486.88 271.57 486.18 271.57 484.91 271.57C484.83 271.5 484.79 271.46 484.78 271.45C484.71 271.41 484.64 271.38 484.57 271.38C482.61 270.22 480.64 268.98 478.72 267.68C478.88 267.69 479.68 267.72 481.12 267.77C483.7 269.55 485.66 270.82 487.02 271.57ZM486.97 268.07C487.33 268.3 489.1 269.47 492.3 271.57C490.1 271.57 488.88 271.57 488.64 271.57C488.62 271.57 488.62 271.54 488.59 271.54C486.47 270.47 484.43 269.21 482.49 267.84C482.79 267.85 484.26 267.9 486.9 268C486.93 268.03 486.96 268.05 486.97 268.07ZM472.73 273.33C472.75 272.66 472.78 272.02 472.8 271.38C473.23 271.59 473.67 271.79 474.1 272C474.53 272.27 477.93 274.41 478.35 274.67C478.4 274.67 478.45 274.67 478.49 274.67C478.49 274.67 478.49 274.67 478.49 274.67C478.54 274.67 478.58 274.67 478.65 274.67C479.04 274.95 479.43 275.22 479.82 275.5C479.82 276.14 479.82 276.78 479.82 277.42C477.58 276 475.29 274.67 472.94 273.46C472.9 273.44 472.75 273.34 472.73 273.33ZM479.77 274.63C479.79 274.63 479.79 274.63 479.79 274.65C479.79 274.65 479.79 274.65 479.79 274.65C479.78 274.64 479.77 274.63 479.77 274.63ZM492.39 259.29C492.32 258.42 492.21 257.58 492.09 256.75C494.33 258.26 496.48 259.98 498.45 261.81C498.46 261.82 498.55 261.91 498.56 261.92C499.18 262.49 499.68 262.95 499.68 263.84C499.7 263.91 499.7 263.98 499.7 264.07C499.7 264.07 499.7 264.07 499.7 264.07C496.38 262.04 493.94 260.45 492.39 259.29ZM499.7 265.71C497.17 264.57 494.77 263.18 492.53 261.55C492.5 261.17 492.48 260.75 492.46 260.3C494.77 261.97 497.21 263.52 499.7 264.94C499.7 265.19 499.7 265.46 499.7 265.71ZM499.68 270.7C497.74 269.49 495.61 268.48 493.55 267.52C493.19 267.34 492.8 267.18 492.43 266.99C492.48 266.35 492.53 265.69 492.55 264.94C493.02 265.18 495.4 266.37 499.68 268.53C499.68 269.83 499.68 270.55 499.68 270.7ZM498.88 271.57C498.53 271.57 496.8 271.57 493.69 271.57L488.37 268.05L491.82 268.18C491.83 268.18 491.84 268.18 491.84 268.18C491.93 268.18 492.02 268.16 492.11 268.11C492.39 268.25 492.69 268.39 492.98 268.53C494.95 269.44 496.98 270.4 498.88 271.57ZM499.68 266.54C499.68 266.61 499.68 266.99 499.68 267.68C495.4 265.53 493.02 264.33 492.55 264.09C492.57 263.59 492.57 263.04 492.55 262.49C494.79 264.09 497.19 265.44 499.68 266.54ZM480.5 246.9C482.26 248.69 484.25 250.26 486.4 251.57C486.34 251.57 485.87 251.57 485.81 251.57C485.21 251.57 484.62 251.54 484.02 251.54C484 251.54 484 251.52 483.98 251.52C482.88 250.79 481.78 250.01 480.71 249.21C480.14 248.78 479.54 248.3 478.77 247.68C478.7 247.63 478.58 247.54 478.45 247.45C478.31 247.31 478.15 247.2 477.99 247.09C478.83 247.02 479.66 246.95 480.5 246.9ZM477.01 247.15C477.07 247.22 477.17 247.29 477.23 247.34C477.3 247.38 477.37 247.43 477.42 247.5C477.99 247.98 478.61 248.5 479.38 249.12C480.39 249.92 481.44 250.7 482.63 251.52C482.56 251.52 481.97 251.52 481.9 251.52C481.35 251.52 480.78 251.5 480.21 251.5C480.09 251.5 480 251.52 479.91 251.57C477.94 250.31 476.02 248.91 474.26 247.38C475.18 247.31 476.09 247.22 477.01 247.15ZM479.47 252.62C479.45 253.07 479.47 253.49 479.52 253.92C479.49 253.92 479.27 253.9 479.25 253.9C479.22 253.85 479.18 253.83 479.13 253.81C477.28 252.8 475.5 251.66 473.78 250.4C473.78 249.78 473.78 249.14 473.78 248.5C475.57 250.01 477.49 251.38 479.47 252.62ZM473.46 253.62C473.58 252.87 473.65 252.09 473.69 251.31C474.95 252.21 476.25 253.05 477.55 253.81C476.18 253.71 474.81 253.67 473.46 253.62ZM492.71 246.29C494.67 248.27 496.85 250.1 499.15 251.7C497.74 251.7 496.32 251.68 494.9 251.68C494.88 251.66 494.86 251.61 494.83 251.59C492.87 250.01 491.04 248.23 489.35 246.33C490.42 246.26 491.52 246.19 492.62 246.15C492.64 246.19 492.66 246.24 492.71 246.29ZM488.46 246.47C490.06 248.32 491.84 250.06 493.74 251.66C493.66 251.66 493.08 251.66 493.01 251.66C492.57 251.66 492.16 251.66 491.73 251.66C491.73 251.54 491.66 251.45 491.57 251.36C489.85 250.13 488.21 248.73 486.61 247.41C486.26 247.13 485.94 246.83 485.6 246.56C486.51 246.49 487.45 246.42 488.39 246.38C488.41 246.42 488.43 246.45 488.46 246.47ZM486.03 247.91C487.52 249.14 489.05 250.45 490.63 251.61C489.65 251.61 488.64 251.59 487.66 251.57C487.63 251.47 487.57 251.38 487.47 251.34C485.3 250.08 483.29 248.55 481.49 246.81C482.49 246.74 483.5 246.67 484.48 246.61C485.01 247.04 485.53 247.47 486.03 247.91ZM497.53 237.99C497.1 237.74 496.69 237.49 496.25 237.23C496.24 237.13 496.18 236.61 496.07 235.68C501.88 238.81 505.11 240.54 505.76 240.89C505.76 241.69 505.76 242.54 505.76 243.41C503.22 241.3 500.34 239.61 497.53 237.99ZM496.5 239.29C496.49 239.18 496.38 238.3 496.37 238.19C496.64 238.35 496.94 238.54 497.21 238.7C500.11 240.39 503.11 242.15 505.69 244.37C505.71 244.39 505.74 244.39 505.76 244.41C505.76 244.91 505.76 245.44 505.78 245.97C502.9 243.45 499.79 241.21 496.5 239.29ZM496.59 240.23C499.89 242.17 502.97 244.46 505.78 246.99C505.81 247.84 505.83 248.59 505.85 249.28C502.97 246.77 499.93 244.39 496.82 242.15C496.78 241.76 496.62 240.42 496.59 240.23ZM496.8 245.92C497.14 246.17 497.44 246.49 497.71 246.81C497.85 246.97 497.99 247.13 498.13 247.27C498.77 247.91 499.52 248.43 500.27 248.94C500.28 248.94 500.34 248.98 500.34 248.98C501.69 249.87 503.09 250.79 504.43 251.66C504.44 251.66 504.48 251.7 504.48 251.7C503.15 251.7 501.83 251.7 500.48 251.68C497.99 250.06 495.66 248.18 493.55 246.08C494.61 246.06 495.61 246.01 496.62 245.97C496.69 245.97 496.73 245.94 496.8 245.92ZM497.12 244.75C497.1 244.59 496.96 243.31 496.94 243.15C500.02 245.39 503.04 247.79 505.92 250.29C505.94 250.61 505.94 250.93 505.97 251.25C505.87 251.18 505.06 250.65 504.96 250.58C503.57 249.67 502.1 248.73 500.69 247.79C499.77 247.22 499.02 246.56 498.35 245.83C498.03 245.46 497.62 245.03 497.12 244.75ZM472.64 274.9C473.03 274.9 473.44 274.88 473.83 274.88C473.83 274.88 473.83 274.88 473.83 274.88C473.87 274.88 473.9 274.88 473.94 274.88C473.94 274.88 473.97 274.88 473.97 274.88C473.97 274.88 473.97 274.88 473.97 274.88C474.01 274.88 474.06 274.88 474.13 274.88C476.07 275.93 477.97 277.05 479.82 278.26C479.82 278.72 479.82 279.15 479.82 279.61C479.82 280.02 479.82 280.43 479.84 280.87C477.44 279.18 475.02 277.51 472.62 275.82C472.62 275.73 472.62 275.01 472.62 274.93C472.62 274.9 472.64 274.9 472.64 274.9C472.64 274.9 472.64 274.9 472.64 274.9ZM458.45 287.02C458.45 286.88 458.42 286.79 458.38 286.7C458.39 283.21 458.48 265.77 458.63 234.38L494.86 235.18C495.52 240.8 495.88 243.92 495.95 244.55C495.84 244.62 495.77 244.71 495.7 244.85C490.65 245.05 485.51 245.37 480.41 245.74C480.3 245.67 480.14 245.69 480.02 245.76C477.65 245.94 475.31 246.13 473.12 246.33C472.82 246.35 472.53 246.58 472.55 246.93C472.73 249.33 472.64 251.73 472.25 254.03C472.23 254.24 472.27 254.42 472.39 254.56C472.5 254.67 472.64 254.77 472.82 254.77C478.86 254.95 484.94 255.45 490.86 256.27C491.41 259.79 491.57 263.43 491.29 267.04C490.04 266.99 483.8 266.75 472.57 266.31C472.56 266.31 472.55 266.31 472.55 266.31C472.23 266.31 472.02 266.61 471.98 266.88C471.98 266.89 471.98 266.98 471.98 266.99C471.86 267.18 471.84 267.38 471.93 267.57C471.86 268.27 471.82 269.03 471.75 269.81C471.63 269.85 471.57 269.94 471.54 270.06C471.52 270.15 471.54 270.24 471.59 270.33C471.61 270.38 471.66 270.42 471.7 270.47C471.66 271.25 471.63 272.05 471.61 272.85C471.52 272.91 471.45 273.03 471.43 273.17C471.43 273.3 471.47 273.42 471.59 273.51C471.59 273.71 471.59 273.9 471.59 274.08C471.52 274.17 471.5 274.26 471.5 274.4C471.5 276.27 471.52 291.27 471.52 293.14C471.52 293.33 471.59 293.46 471.7 293.55C467.38 294.17 463.02 294.24 458.7 293.74C458.4 291.5 458.31 289.26 458.45 287.02ZM472.62 293.12C472.62 292.89 472.62 291.08 472.62 290.86C473.26 291.22 473.9 291.61 474.51 292.05C473.9 292.53 473.23 293.01 472.53 293.44C472.59 293.35 472.62 293.26 472.62 293.12ZM472.62 290.06C472.62 289.84 472.62 288.1 472.62 287.89C473.87 288.66 475.11 289.51 476.32 290.38C475.91 290.79 475.5 291.18 475.06 291.57C474.29 291.02 473.46 290.51 472.62 290.06ZM472.62 287.06C472.62 286.91 472.62 285.68 472.62 285.53C474.61 286.26 476.48 287.25 478.22 288.46C477.78 288.96 477.28 289.44 476.82 289.87C475.45 288.89 474.06 287.95 472.62 287.06ZM472.62 284.8C472.62 284.65 472.62 283.46 472.62 283.31C474.88 284.48 477.05 285.78 479.13 287.25C478.99 287.5 478.81 287.73 478.65 287.93C476.8 286.61 474.77 285.55 472.62 284.8ZM479.45 286.65C477.28 285.12 474.99 283.75 472.64 282.56C472.64 282.31 472.64 280.28 472.64 280.02C475.04 281.53 477.44 283.04 479.86 284.57C479.79 284.94 479.77 285.3 479.73 285.67C479.68 286.01 479.59 286.33 479.45 286.65ZM472.62 279.2C472.62 277.65 472.62 276.79 472.62 276.62C475.04 278.31 477.44 280 479.86 281.67C479.86 282.38 479.89 283.09 479.86 283.77C478.9 283.16 476.48 281.64 472.62 279.2Z" id="db8fzaAH3"></path></defs><g><g><use xlink:href="#db8fzaAH3" opacity="1" fill="#000000" fill-opacity="1"></use><g><use xlink:href="#db8fzaAH3" opacity="1" fill-opacity="0" stroke="#000000" stroke-width="1" stroke-opacity="0"></use></g></g></g></svg>