<?xml version="1.0" encoding="UTF-8" standalone="no"?>
<!DOCTYPE svg PUBLIC "-//W3C//DTD SVG 1.1//EN" "http://www.w3.org/Graphics/SVG/1.1/DTD/svg11.dtd">
<svg version="1.1" xmlns="http://www.w3.org/2000/svg" xmlns:xlink="http://www.w3.org/1999/xlink" preserveAspectRatio="xMidYMid meet" viewBox="520.9263787647349 234.35428571428574 55.34790694955075 60.434285714285664" width="55.35" height="60.43"><defs><path d="M575.34 270.15C572.96 268.69 570.61 267.22 568.23 265.74C568.23 265.58 568.23 265.42 568.25 265.26C568.25 264.98 568.02 264.75 567.75 264.75C563.25 264.82 558.74 264.89 554.24 264.94C553.97 264.94 553.71 265.17 553.74 265.44C553.87 268.59 554.19 271.82 554.15 274.99C554.13 276.23 551.91 276.64 550.97 276.85C549.87 277.1 548.75 277.17 547.63 277.14C547.61 277.1 547.57 277.05 547.52 277.01C545.17 274.83 543.84 271.95 543.59 268.98C543.73 268.87 543.77 268.59 543.59 268.46C543.59 268.46 543.57 268.43 543.57 268.43C543.54 267.79 543.54 267.15 543.61 266.54C543.73 266.45 543.77 266.24 543.66 266.08C543.98 263.82 544.91 261.62 546.49 259.77C551.36 254.06 559.57 253.6 566.15 256.21C566.47 256.34 566.7 256.11 566.74 255.84C566.79 255.86 566.81 255.86 566.86 255.89C566.77 256.34 567.34 256.8 567.68 256.37C570.63 252.78 573.28 248.96 575.54 244.91C575.68 244.66 575.61 244.37 575.36 244.23C572.32 242.45 569.14 240.94 565.85 239.73C565.83 239.63 565.76 239.54 565.65 239.45C557.28 233.67 546.03 232.85 536.82 237.1C527.98 241.19 522.17 250.26 521.12 259.79C520.53 265.12 521.78 270.29 523.98 275.11C526.24 280.09 529.37 284.91 534.24 287.66C534.67 287.91 535.11 288.14 535.57 288.34C535.61 288.43 535.66 288.53 535.77 288.59C543.86 293.97 553.6 295.34 563.13 294.4C563.15 294.42 563.15 294.42 563.18 294.45C563.34 294.63 563.57 294.54 563.66 294.35C567.5 293.94 571.31 293.17 574.95 292.14C575.18 292.07 575.31 291.89 575.31 291.66C575.31 291.38 575.34 291.11 575.34 290.83C575.61 290.65 575.7 290.19 575.36 289.94C575.41 288.78 575.43 287.59 575.47 286.42C575.77 286.49 576 286.03 575.7 285.87C575.63 285.83 575.57 285.81 575.5 285.76C575.66 280.98 575.82 276.21 575.98 271.41C576.25 271.25 576.34 270.79 576 270.56C575.98 270.19 575.61 270.06 575.34 270.15ZM574.88 274.22C573.69 273.42 572.48 272.64 571.29 271.84C570.63 271.41 569.99 270.97 569.33 270.54C568.91 270.26 568.59 269.94 568.11 269.99C568.14 268.96 568.16 267.93 568.21 266.9C570.47 268.32 572.71 269.71 574.97 271.11C574.95 272.14 574.9 273.17 574.88 274.22ZM546.08 277.03C544.46 276.78 542.9 276.25 541.46 275.45C542.77 275.73 544.05 275.98 545.35 276.25C545.37 276.25 545.39 276.25 545.42 276.25C545.62 276.53 545.85 276.78 546.08 277.03ZM540.23 274.56C540.18 274.56 540.14 274.56 540.09 274.56C538.33 273.3 536.89 271.66 535.91 269.71C535.7 269.28 535.52 268.85 535.36 268.41C537.97 269.03 540.43 270.08 542.7 271.52C542.81 271.59 542.95 271.57 543.02 271.5C543.43 272.96 544.05 274.31 544.89 275.52C543.34 275.2 541.78 274.88 540.23 274.56ZM542.51 267.77C540.07 266.19 537.42 264.98 534.61 264.16C534.58 263.36 534.65 262.56 534.77 261.76C537.51 262.95 540.11 264.41 542.61 266.1C542.54 266.65 542.51 267.2 542.51 267.77ZM535.52 258.65C537.97 260.23 540.48 261.71 543.06 263.11C543.15 263.15 543.25 263.15 543.34 263.13C543.06 263.89 542.86 264.66 542.72 265.44C540.23 263.75 537.6 262.33 534.86 261.12C535.02 260.27 535.22 259.45 535.52 258.65ZM542.86 270.97C540.55 269.51 538.06 268.46 535.38 267.84C535.29 267.82 535.22 267.84 535.15 267.89C534.86 266.88 534.67 265.85 534.61 264.8C537.42 265.62 540.07 266.88 542.51 268.5C542.56 269.33 542.67 270.15 542.86 270.97ZM543.47 262.72C543.45 262.67 543.41 262.63 543.36 262.61C540.75 261.21 538.22 259.7 535.73 258.1C535.86 257.78 536 257.46 536.16 257.14C538.65 258.42 541.07 259.84 543.41 261.39C543.73 261.6 544.05 261.07 543.7 260.87C541.35 259.31 538.93 257.9 536.41 256.59C536.59 256.25 536.78 255.93 536.98 255.61C537.19 255.29 537.39 254.99 537.6 254.72C540.11 256.18 542.49 257.87 544.69 259.79C544.98 260.05 545.42 259.61 545.12 259.36C542.9 257.44 540.53 255.73 537.99 254.24C538.4 253.74 538.86 253.28 539.36 252.85C541.74 254.54 544.09 256.23 546.47 257.94C546.79 258.17 547.09 257.65 546.77 257.42C544.46 255.75 542.15 254.1 539.84 252.43C540.32 252.05 540.85 251.68 541.37 251.36C541.3 251.5 541.3 251.66 541.49 251.75C543.98 253.12 546.26 254.81 548.27 256.82C547.2 257.58 546.24 258.47 545.37 259.54C544.57 260.53 543.95 261.6 543.47 262.72ZM548.66 256.39C546.63 254.33 544.3 252.59 541.76 251.22C541.71 251.2 541.67 251.18 541.62 251.18C542.26 250.81 542.93 250.49 543.61 250.22C543.63 250.24 543.66 250.29 543.7 250.31C545.94 251.79 548.05 253.42 550.06 255.2C550.35 255.45 550.79 255.04 550.49 254.77C548.53 253.03 546.47 251.43 544.3 249.97C545.05 249.71 545.83 249.51 546.63 249.35C546.65 249.39 546.67 249.46 546.74 249.49C548.96 251.06 551.15 252.64 553.37 254.19C553.69 254.42 553.99 253.9 553.67 253.67C551.59 252.18 549.49 250.7 547.41 249.21C548.18 249.1 548.96 249.05 549.74 249.05C549.71 249.17 549.74 249.26 549.81 249.42C549.85 249.51 549.97 249.58 550.06 249.58C550.08 249.58 550.13 249.58 550.15 249.58C550.24 249.58 550.31 249.53 550.35 249.49C550.42 249.55 550.49 249.6 550.58 249.62C550.9 249.85 551.2 250.08 551.5 250.29C552.11 250.74 552.73 251.18 553.35 251.63C554.31 252.34 555.25 253.07 556.21 253.81C553.55 254.13 550.99 254.97 548.73 256.48C548.71 256.46 548.71 256.41 548.66 256.39ZM553.69 251.13C552.98 250.61 552.25 250.08 551.54 249.55C551.36 249.42 551.18 249.26 550.99 249.12C552.05 249.21 553.1 249.39 554.1 249.69C554.13 249.74 554.15 249.76 554.19 249.78C555.98 251.02 557.69 252.32 559.31 253.74C558.58 253.69 557.85 253.69 557.12 253.74C555.98 252.87 554.83 251.98 553.69 251.13ZM559.82 253.35C558.63 252.32 557.39 251.34 556.14 250.4C556.69 250.65 557.21 250.93 557.74 251.22C557.78 251.29 557.83 251.34 557.92 251.38C559.75 252.41 561.58 253.39 563.45 254.31C562.24 254.03 561.03 253.83 559.82 253.76C559.93 253.65 559.95 253.49 559.82 253.35ZM558.95 250.81C559.29 250.24 559.63 249.67 560 249.1C562.72 250.83 565.51 252.43 568.34 253.94C568.05 254.33 567.73 254.7 567.43 255.09C564.55 253.78 561.71 252.37 558.95 250.81ZM574.42 244.87C572.71 247.86 570.81 250.72 568.73 253.46C568.73 253.46 568.71 253.44 568.71 253.44C565.85 251.95 563.04 250.33 560.32 248.59C560.62 248.11 560.91 247.63 561.19 247.15C563.86 248.59 566.51 250.1 569.14 251.66C569.49 251.86 569.78 251.34 569.44 251.13C566.83 249.58 564.18 248.07 561.51 246.63C561.83 246.1 562.15 245.6 562.45 245.07C565.3 246.51 568.09 248.05 570.83 249.69C571.18 249.9 571.47 249.37 571.13 249.17C568.39 247.52 565.6 245.99 562.74 244.55C563.15 243.89 563.54 243.22 563.95 242.56C564.14 242.67 564.34 242.79 564.53 242.88C564.87 243.09 565.19 243.27 565.53 243.47C566.31 243.93 567.09 244.41 567.86 244.87C569.3 245.74 570.74 246.63 572.16 247.54C572.48 247.75 572.8 247.22 572.46 247.02C570.58 245.83 568.71 244.66 566.81 243.54C565.97 243.04 565.1 242.54 564.23 242.03C564.57 241.53 564.87 241.05 565.17 240.57C568.37 241.71 571.45 243.15 574.42 244.87ZM523.93 272.39C521.99 267.38 521.51 262.06 522.65 256.78C524.55 248.11 530.63 240.57 538.93 237.33C547.09 234.1 556.73 235.06 564.14 239.7C564.11 239.86 564.14 240.02 564.23 240.14C562.63 242.77 561.03 245.39 559.43 248.02C559.15 247.93 558.95 248.3 559.13 248.53C558.79 249.1 558.42 249.69 558.08 250.26C553.99 247.93 549.07 247.45 544.59 248.75C542.49 249.37 540.62 250.42 539.02 251.79C539 251.79 538.89 251.71 538.88 251.7C538.56 251.47 538.29 251.98 538.56 252.21C538.06 252.66 537.6 253.17 537.17 253.69C537.14 253.67 537.12 253.67 537.1 253.65C536.75 253.46 536.46 253.97 536.78 254.17C535.98 255.25 535.29 256.43 534.77 257.69C533.01 261.92 533.21 266.95 535.43 270.97C537.58 274.83 541.78 277.35 546.08 277.99C548.71 278.38 552.05 278.15 554.31 276.59C555.66 275.68 555.06 273.39 555.02 272.05C554.93 270.01 554.83 267.95 554.74 265.92C558.72 265.87 562.7 265.81 566.67 265.76C566.7 265.87 566.77 265.99 566.9 266.08C567.02 266.15 567.11 266.22 567.22 266.26C567.09 271.2 566.97 276.16 566.83 281.1C566.63 281.19 566.51 281.51 566.77 281.65C566.79 281.65 566.79 281.67 566.81 281.67C566.8 281.95 566.75 284.24 566.74 284.53C566.74 284.64 566.77 284.75 566.83 284.82C562.08 287.68 556.71 289.37 551.18 289.81C545.44 290.29 539.18 289.44 534.17 286.49C529.12 283.5 525.99 277.71 523.93 272.39ZM545.78 290.86C545.81 290.9 545.85 290.97 545.92 290.99C546.26 291.19 549.01 292.76 549.35 292.96C546.22 292.37 543.18 291.43 540.3 290.03C542.1 290.47 543.95 290.72 545.78 290.86ZM546.99 290.9C548.16 290.95 549.33 290.93 550.47 290.88C550.56 290.88 550.65 290.86 550.74 290.86C552.62 291.57 554.38 292.5 556 293.67C554.35 293.62 552.71 293.49 551.06 293.23C549.71 292.46 548.34 291.68 546.99 290.9ZM556.66 293.39C555.25 292.34 553.71 291.45 552.09 290.74C553.03 290.65 553.97 290.51 554.9 290.35C556.55 291.41 558.17 292.5 559.77 293.65C558.79 293.69 557.78 293.71 556.8 293.69C556.8 293.58 556.78 293.49 556.66 293.39ZM555.75 290.19C556.34 290.08 556.94 289.94 557.53 289.78C557.55 289.83 557.6 289.9 557.65 289.92C559.31 290.93 560.82 292.14 562.19 293.49C561.74 293.55 561.26 293.58 560.75 293.6C559.11 292.43 557.44 291.29 555.75 290.19ZM558.26 289.6C558.95 289.42 559.66 289.19 560.32 288.96C562.15 290.22 563.86 291.61 565.49 293.14C564.66 293.26 563.84 293.35 563.02 293.44C561.6 291.98 560 290.7 558.26 289.6ZM566.06 292.82C564.48 291.34 562.81 289.97 561.05 288.71C561.71 288.46 562.35 288.21 563.02 287.93C564.94 289.49 566.86 291.04 568.78 292.59C567.89 292.75 567.02 292.91 566.15 293.05C566.15 292.98 566.13 292.89 566.06 292.82ZM569.51 292.43C567.54 290.86 565.6 289.26 563.63 287.68C564.25 287.41 564.89 287.09 565.49 286.79C567.86 288.32 570.13 290.01 572.25 291.86C571.34 292.05 570.42 292.25 569.53 292.46C569.53 292.45 569.51 292.44 569.51 292.43ZM572.78 291.7C572.8 291.61 572.78 291.52 572.69 291.45C570.61 289.62 568.39 287.95 566.08 286.45C566.15 286.4 566.22 286.38 566.29 286.33C566.56 286.17 566.83 286.03 567.09 285.87C567.25 286.01 567.47 286.03 567.66 285.92C567.68 285.9 567.73 285.87 567.75 285.87C567.75 285.87 567.77 285.85 567.77 285.85C568.16 286.08 568.69 286.56 568.87 286.7C569.07 286.84 570.66 287.95 570.86 288.09C572.02 288.89 573.17 289.69 574.33 290.51C574.33 290.74 574.33 291.02 574.31 291.29C573.81 291.43 573.28 291.57 572.78 291.7ZM571.04 286.97C570.26 286.42 569.49 285.9 568.71 285.35C568.53 285.23 568.39 285.12 568.23 285.01C568.34 284.69 568.07 284.27 567.7 284.32C567.73 283.61 567.75 282.93 567.75 282.22C569.99 283.43 572.23 284.64 574.45 285.87C574.47 287.02 574.42 288.16 574.38 289.28C573.71 288.82 571.37 287.2 571.04 286.97ZM567.82 281.55C567.84 280.55 567.86 279.54 567.89 278.54C567.95 278.54 568.05 278.49 568.09 278.45C570.33 279.77 572.48 281.23 574.56 282.81C574.58 282.81 574.58 282.83 574.61 282.83C574.56 283.63 574.54 284.43 574.51 285.21C572.3 283.98 570.06 282.74 567.82 281.55ZM567.93 277.65C567.95 277.05 567.95 276.46 567.98 275.86C570.22 277.26 572.46 278.65 574.7 280.07C574.67 280.73 574.65 281.42 574.63 282.1C572.48 280.48 570.24 278.99 567.93 277.65ZM568.02 275.18C568 275.18 568 275.15 567.98 275.15C568 274.38 568.02 273.6 568.05 272.82C570.33 274.31 572.57 275.84 574.79 277.44C574.74 278.08 574.74 278.72 574.72 279.36C572.48 277.97 570.26 276.57 568.02 275.18ZM568.11 270.74C568.16 270.74 568.18 270.74 568.23 270.74C568.32 270.74 568.39 270.7 568.46 270.65C568.87 270.81 569.44 271.34 569.69 271.5C570.35 271.93 570.99 272.37 571.66 272.8C572.73 273.51 573.81 274.22 574.86 274.93C574.83 275.52 574.81 276.11 574.79 276.71C572.59 275.13 570.33 273.6 568.07 272.11C568.09 271.66 568.09 271.2 568.11 270.74Z" id="ad0MPtc27"></path><path d="M535.73 288.69C535.63 288.62 535.57 288.53 535.52 288.43C535.06 288.23 534.63 288 534.22 287.77C530.08 285.44 526.72 281.3 523.93 275.18C521.51 269.83 520.53 264.66 521.07 259.82C521.6 255.02 523.31 250.38 526.01 246.38C528.8 242.24 532.55 239.02 536.8 237.05C540.62 235.29 544.89 234.35 549.17 234.35C555.11 234.35 560.96 236.14 565.67 239.41C565.76 239.47 565.85 239.57 565.87 239.68C569.17 240.89 572.37 242.4 575.36 244.18C575.63 244.34 575.73 244.71 575.57 244.98C573.3 249.01 570.65 252.85 567.68 256.46C567.54 256.62 567.38 256.66 567.29 256.66C567.13 256.66 566.97 256.57 566.86 256.43C566.77 256.32 566.72 256.21 566.7 256.07C566.58 256.32 566.33 256.43 566.06 256.32C563.54 255.31 560.85 254.79 558.26 254.79C553.44 254.79 549.28 256.59 546.49 259.86C544.98 261.62 544.02 263.79 543.68 266.1C543.79 266.26 543.75 266.49 543.61 266.61C543.54 267.2 543.54 267.82 543.57 268.43C543.66 268.5 543.73 268.62 543.73 268.73C543.73 268.85 543.68 268.96 543.61 269.05C543.89 272.11 545.28 274.93 547.52 276.98C547.57 277.03 547.59 277.05 547.63 277.12C547.82 277.12 548 277.12 548.18 277.12C549.19 277.12 550.06 277.03 550.9 276.82C550.97 276.8 551.06 276.78 551.15 276.78C552.16 276.55 554.01 276.11 554.03 275.04C554.06 272.89 553.92 270.67 553.78 268.55C553.71 267.54 553.65 266.51 553.6 265.51C553.6 265.37 553.65 265.23 553.76 265.12C553.87 265.01 554.03 264.94 554.19 264.94C555.55 264.92 566.35 264.77 567.7 264.75C567.7 264.75 567.7 264.75 567.7 264.75C567.86 264.75 568 264.82 568.11 264.94C568.23 265.05 568.27 265.19 568.27 265.35C568.27 265.38 568.27 265.52 568.27 265.78C572.5 268.4 574.84 269.86 575.31 270.15C575.61 270.08 576 270.19 576.05 270.61C576.18 270.72 576.27 270.88 576.27 271.04C576.27 271.22 576.18 271.43 576.02 271.54C575.99 272.49 575.84 277.25 575.57 285.81C575.66 285.86 575.72 285.89 575.73 285.9C575.89 285.99 575.95 286.13 575.91 286.31C575.86 286.49 575.7 286.61 575.54 286.61C575.53 286.95 575.44 289.67 575.43 290.01C575.57 290.13 575.66 290.29 575.63 290.47C575.63 290.65 575.54 290.86 575.38 290.97C575.38 291.05 575.36 291.67 575.36 291.75C575.36 292.02 575.18 292.23 574.93 292.3C571.13 293.37 567.34 294.13 563.66 294.51C563.59 294.63 563.45 294.7 563.34 294.7C563.25 294.7 563.15 294.65 563.09 294.58C563.09 294.58 563.09 294.58 563.09 294.58C561.28 294.7 559.45 294.79 557.69 294.79C549.19 294.79 541.81 292.73 535.73 288.69ZM536.87 237.21C528.43 241.1 522.31 249.99 521.21 259.84C520.69 264.66 521.65 269.78 524.07 275.11C526.83 281.21 530.19 285.3 534.29 287.63C534.7 287.86 535.15 288.09 535.61 288.32C535.61 288.32 535.62 288.33 535.63 288.34C535.63 288.36 535.63 288.36 535.63 288.37C535.66 288.46 535.73 288.53 535.79 288.57C541.85 292.59 549.21 294.63 557.67 294.63C559.43 294.63 561.26 294.54 563.11 294.35C563.11 294.35 563.13 294.35 563.15 294.35C563.2 294.4 563.22 294.42 563.22 294.42C563.34 294.54 563.52 294.49 563.59 294.35C563.59 294.35 563.6 294.34 563.61 294.31C563.64 294.31 563.65 294.31 563.66 294.31C567.34 293.92 571.13 293.17 574.95 292.09C575.13 292.05 575.27 291.89 575.27 291.68C575.27 291.62 575.28 291.33 575.29 290.81C575.31 290.8 575.31 290.79 575.31 290.79C575.43 290.7 575.52 290.56 575.52 290.4C575.52 290.26 575.45 290.13 575.34 290.03C575.34 290.03 575.33 290.03 575.31 290.01L575.43 286.35C575.48 286.37 575.51 286.38 575.52 286.38C575.66 286.4 575.77 286.31 575.79 286.19C575.82 286.15 575.82 286.03 575.7 285.97C575.69 285.96 575.6 285.91 575.45 285.83L575.93 271.41C575.95 271.39 575.95 271.38 575.95 271.38C576.09 271.29 576.16 271.13 576.16 270.99C576.16 270.9 576.14 270.77 575.98 270.65C575.98 270.65 575.97 270.64 575.95 270.63C575.95 270.6 575.95 270.59 575.95 270.58C575.93 270.26 575.61 270.15 575.38 270.24C575.38 270.24 575.37 270.24 575.36 270.24L568.18 265.78C568.2 265.48 568.2 265.31 568.21 265.28C568.21 265.17 568.16 265.07 568.09 264.98C568 264.89 567.91 264.85 567.79 264.85C566.44 264.86 555.62 265.01 554.26 265.03C554.15 265.03 554.03 265.07 553.94 265.17C553.87 265.23 553.83 265.35 553.83 265.44C553.87 266.45 553.94 267.5 554.01 268.48C554.15 270.61 554.29 272.82 554.26 274.99C554.24 276.18 552.3 276.64 551.27 276.87C551.18 276.89 551.11 276.91 551.02 276.91C550.17 277.12 549.28 277.21 548.27 277.21C548.07 277.21 547.86 277.21 547.68 277.21C547.68 277.21 547.66 277.21 547.63 277.21C547.62 277.18 547.61 277.17 547.61 277.17C547.59 277.12 547.57 277.07 547.52 277.05C545.23 274.97 543.84 272.09 543.57 268.98C543.57 268.98 543.57 268.96 543.57 268.94C543.58 268.92 543.59 268.92 543.59 268.91C543.66 268.87 543.68 268.78 543.68 268.71C543.68 268.66 543.66 268.57 543.59 268.53C543.59 268.52 543.58 268.52 543.57 268.5C543.55 268.48 543.54 268.46 543.54 268.46C543.52 267.79 543.52 267.15 543.59 266.54C543.59 266.54 543.59 266.53 543.59 266.51C543.6 266.5 543.61 266.49 543.61 266.49C543.7 266.42 543.75 266.26 543.66 266.15C543.66 266.15 543.65 266.14 543.63 266.13C543.63 266.11 543.63 266.1 543.63 266.1C543.98 263.75 544.96 261.55 546.49 259.77C549.3 256.48 553.53 254.65 558.38 254.65C560.98 254.65 563.7 255.18 566.24 256.18C566.29 256.21 566.35 256.21 566.4 256.21C566.58 256.21 566.7 256.05 566.74 255.86C566.74 255.86 566.75 255.83 566.77 255.77L567.02 255.89C567.02 255.93 567.02 255.95 567.02 255.95C566.99 256.09 567.04 256.23 567.13 256.34C567.29 256.55 567.54 256.57 567.73 256.37C570.7 252.78 573.33 248.94 575.59 244.91C575.7 244.71 575.63 244.43 575.43 244.32C572.43 242.56 569.23 241.05 565.94 239.82C565.94 239.82 565.92 239.81 565.9 239.79C565.9 239.77 565.9 239.75 565.9 239.75C565.87 239.66 565.81 239.59 565.74 239.52C560.91 236.32 555.09 234.54 549.19 234.54C544.91 234.54 540.66 235.45 536.87 237.21ZM556.8 293.78C556.79 293.78 556.76 293.78 556.71 293.78C556.71 293.73 556.71 293.7 556.71 293.69C556.71 293.65 556.71 293.53 556.62 293.46C555.2 292.41 553.67 291.52 552.07 290.83C552.05 290.83 551.96 290.79 551.79 290.72C551.97 290.71 552.07 290.7 552.09 290.7C553.03 290.61 553.97 290.47 554.88 290.31C554.88 290.31 554.89 290.31 554.9 290.31C554.92 290.32 554.92 290.33 554.93 290.33C556.55 291.36 558.17 292.48 559.82 293.62C559.83 293.63 559.89 293.68 560 293.76C559.86 293.76 559.79 293.76 559.77 293.76C559.06 293.76 558.35 293.78 557.67 293.78C557.37 293.78 557.1 293.78 556.8 293.78ZM559.54 293.6C557.99 292.5 556.41 291.45 554.88 290.47C554.06 290.61 553.21 290.74 552.39 290.81C553.92 291.5 555.38 292.34 556.71 293.35C556.8 293.42 556.87 293.51 556.87 293.62C557.74 293.65 558.63 293.62 559.54 293.6ZM556 293.76C554.31 293.69 552.64 293.55 551.04 293.33C551.04 293.33 551.03 293.33 551.02 293.33L546.67 290.86C546.85 290.86 546.95 290.86 546.97 290.86C548.11 290.9 549.28 290.88 550.45 290.83C550.49 290.83 550.54 290.83 550.61 290.83C550.61 290.83 550.66 290.83 550.74 290.83C550.76 290.83 550.76 290.83 550.77 290.83C552.64 291.52 554.4 292.48 556.05 293.65C556.06 293.65 556.13 293.69 556.25 293.76C556.1 293.76 556.02 293.76 556 293.76ZM555.75 293.58C554.17 292.48 552.5 291.59 550.72 290.93C550.71 290.93 550.62 290.93 550.61 290.93C550.56 290.93 550.49 290.93 550.45 290.93C549.39 290.97 548.32 290.99 547.27 290.97C547.52 291.12 548.8 291.85 551.09 293.17C553.13 293.41 554.68 293.55 555.75 293.58ZM560.73 293.69C559.09 292.53 557.42 291.38 555.7 290.29C555.69 290.28 555.64 290.25 555.54 290.19C555.65 290.17 555.71 290.15 555.73 290.15C556.3 290.03 556.89 289.9 557.51 289.74C557.51 289.74 557.54 289.73 557.58 289.71C557.59 289.76 557.6 289.78 557.6 289.78C557.62 289.83 557.65 289.85 557.69 289.9C559.34 290.9 560.87 292.11 562.26 293.46C562.27 293.47 562.31 293.51 562.38 293.58C562.28 293.59 562.23 293.6 562.22 293.6C561.69 293.65 561.21 293.67 560.75 293.71C560.75 293.71 560.75 293.71 560.73 293.69C560.73 293.69 560.73 293.69 560.73 293.69ZM560.78 293.53C561.19 293.51 561.6 293.49 562.06 293.44C560.71 292.14 559.22 290.97 557.62 290.01C557.58 289.99 557.53 289.94 557.51 289.9C556.98 290.01 556.46 290.15 555.95 290.24C557.6 291.31 559.22 292.41 560.78 293.53ZM562.97 293.49C561.55 292.05 559.98 290.77 558.24 289.67C558.23 289.66 558.19 289.63 558.1 289.58C558.2 289.55 558.25 289.53 558.26 289.53C558.95 289.35 559.63 289.12 560.32 288.89C560.32 288.89 560.34 288.88 560.37 288.87C560.38 288.88 560.39 288.89 560.39 288.89C562.22 290.13 563.95 291.54 565.55 293.07C565.56 293.08 565.6 293.12 565.67 293.19C565.57 293.2 565.52 293.21 565.51 293.21C564.62 293.33 563.79 293.44 563.02 293.51C563.02 293.51 563.01 293.51 562.99 293.51C562.98 293.49 562.97 293.49 562.97 293.49ZM563.04 293.35C563.75 293.28 564.5 293.19 565.33 293.07C563.75 291.61 562.08 290.24 560.32 289.03C559.7 289.26 559.09 289.46 558.45 289.62C560.11 290.7 561.67 291.95 563.04 293.35ZM566.06 293.05C566.06 292.98 566.03 292.94 565.99 292.89C564.43 291.41 562.77 290.03 560.98 288.8C560.98 288.79 560.94 288.76 560.87 288.71C560.95 288.68 561 288.67 561.01 288.66C561.67 288.43 562.31 288.16 562.97 287.89C562.97 287.88 562.99 287.88 563.02 287.86L568.94 292.66C568.84 292.68 568.79 292.68 568.78 292.69C567.86 292.87 566.99 293.01 566.17 293.14C566.16 293.14 566.13 293.14 566.06 293.14C566.06 293.09 566.06 293.06 566.06 293.05ZM566.1 292.75C566.17 292.82 566.19 292.89 566.22 292.94C566.97 292.82 567.75 292.69 568.59 292.53C568.03 292.07 563.55 288.45 562.99 288C562.4 288.27 561.78 288.53 561.19 288.73C562.93 289.97 564.57 291.31 566.1 292.75ZM549.33 293.03C546.08 292.41 543.04 291.43 540.25 290.1C540.21 290.08 540 289.97 539.61 289.78C540.04 289.88 540.27 289.93 540.32 289.94C542.03 290.35 543.86 290.63 545.81 290.77C545.81 290.77 545.82 290.77 545.85 290.77C545.87 290.79 545.87 290.81 545.87 290.81C545.9 290.86 545.92 290.9 545.97 290.93C546.22 291.07 547.48 291.8 549.76 293.12C549.5 293.07 549.35 293.03 549.33 293.03ZM548.89 292.78C548.59 292.6 546.16 291.21 545.85 291.04C545.78 290.99 545.74 290.95 545.71 290.9C544.07 290.81 542.47 290.58 540.96 290.26C543.43 291.38 546.08 292.23 548.89 292.78ZM569.46 292.5C569.44 292.48 569.44 292.48 569.44 292.48C569.04 292.16 567.05 290.55 563.47 287.66C563.54 287.63 563.58 287.61 563.59 287.61C564.21 287.34 564.82 287.04 565.44 286.72C565.44 286.72 565.46 286.71 565.49 286.7C565.51 286.71 565.53 286.72 565.53 286.72C567.91 288.25 570.17 289.94 572.3 291.79C572.3 291.8 572.34 291.83 572.41 291.89C572.33 291.91 572.28 291.93 572.27 291.93C571.34 292.16 570.45 292.37 569.55 292.55C569.55 292.55 569.53 292.54 569.49 292.53C569.47 292.51 569.46 292.5 569.46 292.5ZM569.53 292.37C569.53 292.37 569.53 292.37 569.53 292.37C570.35 292.21 571.2 292 572.05 291.79C569.99 289.99 567.77 288.34 565.44 286.86C564.89 287.15 564.32 287.43 563.75 287.68C564.91 288.62 568.95 291.9 569.53 292.37ZM572.71 291.68C572.73 291.61 572.71 291.54 572.64 291.5C570.58 289.69 568.34 288 566.03 286.49C566.03 286.49 565.99 286.46 565.92 286.42C566.04 286.35 566.11 286.32 566.13 286.31C566.17 286.29 566.19 286.26 566.24 286.24C566.47 286.1 566.72 285.97 567.04 285.78C567.04 285.78 567.06 285.77 567.09 285.76C567.11 285.77 567.13 285.78 567.13 285.78C567.27 285.9 567.47 285.92 567.61 285.83C567.62 285.82 567.68 285.79 567.77 285.74C567.8 285.75 567.81 285.76 567.82 285.76C568.07 285.92 568.39 286.17 568.64 286.38C568.75 286.47 568.87 286.56 568.94 286.61C569.3 286.86 571.13 288.13 574.42 290.42L574.4 291.34C574.37 291.35 574.36 291.36 574.35 291.36C573.9 291.5 573.42 291.61 572.82 291.77C572.81 291.77 572.77 291.78 572.69 291.79C572.7 291.73 572.71 291.69 572.71 291.68ZM572.75 291.38C572.82 291.45 572.87 291.52 572.87 291.59C573.39 291.45 573.83 291.34 574.24 291.22C574.24 291.18 574.25 290.94 574.26 290.51C571.01 288.25 569.21 286.99 568.85 286.74C568.78 286.7 568.69 286.61 568.55 286.49C568.32 286.31 568.02 286.06 567.79 285.92C567.79 285.92 567.73 285.96 567.73 285.97C567.54 286.08 567.29 286.06 567.11 285.94C566.81 286.13 566.56 286.26 566.35 286.38C566.29 286.4 566.26 286.42 566.24 286.45C568.53 287.93 570.72 289.6 572.75 291.38ZM534.13 286.56C529.94 284.09 526.58 279.47 523.84 272.43C521.87 267.38 521.44 261.99 522.56 256.8C524.48 247.98 530.74 240.48 538.88 237.28C542.08 236.02 545.51 235.38 549.05 235.38C554.47 235.38 559.7 236.87 564.16 239.66C564.16 239.66 564.18 239.67 564.21 239.68C564.19 239.71 564.18 239.72 564.18 239.73C564.16 239.86 564.18 240 564.25 240.11C564.25 240.12 564.26 240.13 564.27 240.16L559.43 248.16C559.39 248.15 559.36 248.14 559.36 248.14C559.27 248.11 559.15 248.16 559.11 248.27C559.06 248.37 559.09 248.46 559.13 248.53C559.13 248.53 559.15 248.54 559.18 248.57L558.06 250.42C558.02 250.4 557.99 250.38 557.99 250.38C555.45 248.94 552.55 248.16 549.55 248.16C547.86 248.16 546.19 248.41 544.55 248.87C542.49 249.46 540.62 250.49 538.99 251.89C538.99 251.89 538.98 251.9 538.95 251.93C538.84 251.85 538.78 251.8 538.77 251.79C538.63 251.7 538.51 251.79 538.47 251.91C538.45 251.95 538.42 252.09 538.54 252.18C538.54 252.19 538.56 252.2 538.61 252.23C538.56 252.27 538.54 252.29 538.54 252.3C538.03 252.78 537.58 253.26 537.14 253.78C537.14 253.79 537.12 253.8 537.1 253.83C537.03 253.79 536.99 253.76 536.98 253.76C536.82 253.67 536.69 253.78 536.64 253.92C536.62 253.97 536.62 254.08 536.73 254.15C536.74 254.15 536.76 254.17 536.8 254.19C536.77 254.24 536.76 254.26 536.75 254.26C535.95 255.34 535.27 256.5 534.77 257.76C532.98 262.06 533.23 266.99 535.43 270.97C537.44 274.61 541.51 277.28 546.03 277.97C546.77 278.08 547.52 278.13 548.27 278.13C550.63 278.13 552.73 277.58 554.19 276.57C555.25 275.86 555.06 274.24 554.95 272.96C554.93 272.66 554.88 272.37 554.88 272.11C554.86 271.7 554.76 269.63 554.58 265.9L566.65 265.71C566.67 265.76 566.67 265.78 566.67 265.78C566.7 265.9 566.77 265.99 566.86 266.03C566.88 266.05 566.99 266.12 567.2 266.24L567.2 266.29L566.81 281.17C566.78 281.18 566.77 281.19 566.77 281.19C566.67 281.21 566.61 281.33 566.61 281.42C566.61 281.46 566.63 281.55 566.72 281.6C566.73 281.6 566.76 281.62 566.81 281.65C566.77 283.39 566.75 284.36 566.74 284.55C566.74 284.64 566.77 284.73 566.81 284.8C566.81 284.8 566.83 284.83 566.86 284.87C566.82 284.9 566.79 284.91 566.79 284.91C562.08 287.75 556.64 289.46 551.09 289.9C550.19 289.99 549.21 290.01 548.25 290.01C544.48 290.01 538.97 289.42 534.13 286.56ZM538.97 237.42C530.88 240.62 524.66 248.05 522.74 256.82C521.62 261.99 522.06 267.36 524 272.39C526.72 279.41 530.08 284 534.22 286.45C539.02 289.28 544.5 289.87 548.27 289.87C549.23 289.87 550.19 289.83 551.15 289.76C556.66 289.33 562.03 287.61 566.72 284.82C566.67 284.73 566.65 284.64 566.65 284.55C566.66 284.36 566.68 283.43 566.72 281.76C566.72 281.76 566.72 281.76 566.72 281.76C566.58 281.69 566.51 281.58 566.54 281.44C566.54 281.3 566.63 281.17 566.74 281.1C566.77 280.11 566.9 275.2 567.13 266.35C566.97 266.26 566.88 266.2 566.86 266.19C566.74 266.13 566.65 266.01 566.61 265.9C565.82 265.91 561.89 265.96 554.81 266.06C554.98 269.69 555.07 271.71 555.09 272.11C555.11 272.37 555.13 272.66 555.15 272.96C555.29 274.29 555.47 275.95 554.35 276.73C552.87 277.74 550.74 278.31 548.34 278.31C547.59 278.31 546.81 278.26 546.08 278.15C541.51 277.46 537.42 274.77 535.36 271.09C533.12 267.09 532.87 262.1 534.67 257.74C535.2 256.5 535.86 255.31 536.64 254.26C536.55 254.17 536.5 254.03 536.55 253.92C536.62 253.69 536.89 253.55 537.1 253.67C537.1 253.67 537.1 253.67 537.1 253.67C537.49 253.19 537.94 252.71 538.4 252.27C538.31 252.16 538.29 252.02 538.35 251.89C538.45 251.66 538.7 251.57 538.88 251.7C538.89 251.71 538.96 251.76 538.97 251.77C540.59 250.38 542.47 249.35 544.53 248.75C546.17 248.27 547.86 248.02 549.55 248.02C552.55 248.02 555.47 248.78 558.01 250.22C558.11 250.05 558.9 248.76 558.99 248.59C558.93 248.48 558.93 248.34 558.97 248.23C559.04 248.07 559.2 247.98 559.34 248C559.81 247.22 563.6 240.96 564.07 240.18C564 240.07 563.98 239.93 564 239.77C559.63 236.98 554.45 235.52 549.07 235.52C545.55 235.52 542.15 236.16 538.97 237.42ZM568.69 285.39C568.62 285.35 568.55 285.3 568.5 285.26C568.41 285.19 568.3 285.12 568.21 285.05C568.2 285.05 568.19 285.04 568.16 285.03C568.17 285 568.18 284.99 568.18 284.98C568.23 284.85 568.21 284.69 568.11 284.57C568.02 284.46 567.89 284.39 567.75 284.41C567.74 284.41 567.71 284.41 567.66 284.41L567.73 282.1C567.79 282.14 567.83 282.17 567.84 282.17C570.08 283.36 572.34 284.59 574.54 285.83C574.54 285.83 574.56 285.84 574.58 285.85L574.45 289.42C570.99 287 569.07 285.66 568.69 285.39ZM568.59 285.17C568.66 285.21 568.71 285.26 568.78 285.3C569.15 285.56 570.99 286.85 574.31 289.17C574.38 287.25 574.42 286.18 574.42 285.97C572.25 284.75 570.06 283.54 567.86 282.38C567.86 282.57 567.82 284.08 567.82 284.27C567.98 284.27 568.11 284.37 568.23 284.5C568.34 284.64 568.39 284.82 568.34 284.98C568.43 285.03 568.5 285.1 568.59 285.17ZM574.47 285.28C572.25 284.05 569.99 282.81 567.77 281.62C567.77 281.62 567.75 281.61 567.73 281.6L567.82 278.47C567.86 278.47 567.88 278.47 567.89 278.47C567.95 278.47 568 278.45 568.05 278.4C568.05 278.4 568.06 278.38 568.09 278.35C568.12 278.37 568.13 278.38 568.14 278.38C570.38 279.7 572.55 281.17 574.61 282.74C574.61 282.74 574.63 282.74 574.63 282.77C574.63 282.77 574.65 282.77 574.67 282.79L574.67 282.83L574.58 285.35C574.51 285.31 574.48 285.28 574.47 285.28ZM574.45 285.1C574.45 284.88 574.51 283.1 574.51 282.88C574.51 282.88 574.51 282.88 574.51 282.88C572.48 281.33 570.33 279.86 568.11 278.54C568.07 278.56 568.02 278.58 567.98 278.58C567.97 278.78 567.94 279.75 567.89 281.51C570.81 283.09 573 284.29 574.45 285.1ZM574.58 282.17C572.46 280.55 570.19 279.06 567.89 277.71C567.88 277.71 567.87 277.71 567.84 277.69L567.89 275.73L574.77 280.02L574.7 282.26C574.63 282.21 574.59 282.18 574.58 282.17ZM574.56 281.97C574.56 281.84 574.59 281.22 574.63 280.09L568.05 275.98L568 277.6C570.97 279.46 573.16 280.91 574.56 281.97ZM567.98 275.25C567.98 275.25 567.95 275.25 567.95 275.25C567.95 275.24 567.94 275.24 567.91 275.22L567.91 275.18L567.98 272.71C568.05 272.75 568.08 272.77 568.09 272.78C570.4 274.29 572.66 275.84 574.83 277.39C574.84 277.4 574.84 277.4 574.86 277.42L574.79 279.5C570.7 276.95 568.43 275.53 567.98 275.25ZM568.05 275.11C568.48 275.38 570.68 276.75 574.63 279.22C574.67 278.17 574.69 277.58 574.7 277.46C572.57 275.95 570.35 274.42 568.11 272.96C568.11 273.1 568.09 273.82 568.05 275.11C568.06 275.11 568.06 275.11 568.05 275.11ZM546.08 277.1C544.46 276.85 542.9 276.32 541.44 275.52C541.41 275.5 541.27 275.43 541.01 275.29C543.63 275.83 545.08 276.12 545.37 276.18C545.39 276.18 545.39 276.18 545.42 276.18C545.42 276.18 545.44 276.18 545.46 276.18C545.48 276.2 545.48 276.2 545.49 276.21C545.74 276.5 545.94 276.75 546.15 276.98C546.16 276.99 546.2 277.04 546.29 277.12C546.16 277.11 546.09 277.1 546.08 277.1ZM545.87 276.91C545.71 276.73 545.55 276.55 545.37 276.32C545.35 276.32 545.35 276.32 545.33 276.32C545.1 276.27 543.98 276.05 541.97 275.63C543.67 276.34 544.98 276.76 545.87 276.91ZM574.74 276.75C572.55 275.18 570.29 273.65 568 272.16C568 272.16 567.98 272.15 567.95 272.14L568 270.65C568.05 270.67 568.09 270.67 568.09 270.67C568.11 270.67 568.16 270.67 568.18 270.67C568.25 270.67 568.32 270.65 568.37 270.61C568.37 270.6 568.38 270.59 568.41 270.56C568.44 270.57 568.45 270.58 568.46 270.58C568.75 270.7 569.12 270.99 569.42 271.22C569.53 271.31 569.65 271.41 569.71 271.45C570.06 271.68 571.8 272.83 574.93 274.9L574.86 276.85C574.79 276.79 574.75 276.76 574.74 276.75ZM574.72 276.57C574.72 276.46 574.74 275.93 574.77 274.97C571.68 272.93 569.97 271.79 569.62 271.57C569.55 271.52 569.44 271.43 569.33 271.34C569.07 271.13 568.73 270.88 568.46 270.74C568.39 270.79 568.3 270.83 568.23 270.83C568.23 270.83 568.21 270.83 568.21 270.83C568.21 270.83 568.18 270.83 568.18 270.83C568.18 270.92 568.16 271.33 568.14 272.07C571.09 274.05 573.29 275.55 574.72 276.57ZM540.21 274.65C540.16 274.65 540.14 274.65 540.09 274.65C540.09 274.65 540.08 274.65 540.07 274.65C540.05 274.64 540.05 274.63 540.05 274.63C538.24 273.35 536.8 271.66 535.84 269.76C535.63 269.35 535.45 268.91 535.29 268.46C535.29 268.45 535.27 268.4 535.25 268.32C535.33 268.33 535.37 268.34 535.38 268.34C538.01 268.96 540.48 270.01 542.74 271.47C542.83 271.54 542.93 271.5 542.97 271.47C542.98 271.47 543.01 271.45 543.06 271.41C543.08 271.47 543.08 271.51 543.09 271.52C543.5 272.94 544.11 274.26 544.94 275.47C544.94 275.48 544.98 275.54 545.05 275.63C542.14 275.04 540.53 274.72 540.21 274.65ZM540.25 274.49C540.7 274.58 544.28 275.31 544.73 275.41C543.95 274.24 543.36 272.98 542.97 271.66C542.88 271.7 542.74 271.68 542.65 271.61C540.46 270.19 538.03 269.17 535.47 268.53C535.63 268.94 535.79 269.33 535.98 269.69C536.91 271.57 538.33 273.21 540.11 274.49C540.14 274.49 540.14 274.49 540.16 274.49C540.18 274.49 540.21 274.49 540.25 274.49ZM569.28 270.61C569.19 270.56 569.12 270.49 569.05 270.45C568.73 270.22 568.48 270.03 568.14 270.08C568.13 270.08 568.1 270.09 568.05 270.1L568.14 266.79L575.06 271.09L574.95 274.35C571.55 272.11 569.66 270.86 569.28 270.61ZM569.14 270.33C569.21 270.38 569.3 270.45 569.37 270.49C569.73 270.73 571.55 271.94 574.81 274.1L574.9 271.18L568.27 267.06C568.23 268.78 568.21 269.73 568.21 269.92C568.21 269.92 568.21 269.92 568.23 269.92C568.57 269.92 568.85 270.13 569.14 270.33ZM542.83 271.02C540.53 269.55 538.03 268.5 535.38 267.89C535.31 267.86 535.27 267.89 535.22 267.91C535.22 267.91 535.19 267.93 535.13 267.95C535.12 267.9 535.11 267.87 535.11 267.86C534.81 266.88 534.63 265.83 534.56 264.78C534.56 264.77 534.56 264.73 534.56 264.66C534.63 264.68 534.67 264.68 534.67 264.69C537.49 265.53 540.14 266.79 542.58 268.41C542.58 268.41 542.59 268.42 542.61 268.43C542.61 268.46 542.61 268.48 542.61 268.48C542.65 269.3 542.77 270.13 542.95 270.93C542.95 270.94 542.97 271 542.99 271.11C542.9 271.05 542.84 271.02 542.83 271.02ZM535.41 267.75C538.01 268.34 540.48 269.37 542.74 270.79C542.58 270.03 542.47 269.28 542.42 268.53C540.02 266.95 537.42 265.71 534.67 264.87C534.74 265.85 534.93 266.81 535.18 267.73C535.25 267.75 535.29 267.75 535.31 267.75C535.34 267.75 535.38 267.75 535.41 267.75ZM542.47 267.82C540.05 266.24 537.39 265.03 534.58 264.21C534.58 264.2 534.56 264.2 534.54 264.18C534.54 264.16 534.54 264.14 534.54 264.14C534.51 263.34 534.58 262.51 534.7 261.74C534.7 261.73 534.71 261.7 534.72 261.65C534.77 261.67 534.81 261.69 534.81 261.69C537.55 262.9 540.21 264.37 542.67 266.06C542.68 266.06 542.69 266.07 542.72 266.08C542.72 266.11 542.72 266.12 542.72 266.13C542.65 266.65 542.63 267.2 542.63 267.77C542.63 267.78 542.61 267.82 542.58 267.89C542.51 267.84 542.48 267.82 542.47 267.82ZM542.42 267.63C542.42 267.13 542.47 266.63 542.51 266.15C540.09 264.5 537.49 263.06 534.81 261.87C534.72 262.58 534.67 263.34 534.67 264.09C537.42 264.91 540.02 266.1 542.42 267.63ZM542.65 265.49C540.18 263.82 537.55 262.38 534.81 261.19C534.81 261.19 534.79 261.18 534.77 261.17C534.77 261.12 534.77 261.1 534.77 261.1C534.93 260.25 535.15 259.41 535.43 258.63C535.43 258.62 535.44 258.59 535.45 258.54C535.51 258.56 535.54 258.58 535.54 258.58C538.01 260.16 540.55 261.67 543.09 263.02C543.15 263.06 543.22 263.06 543.29 263.02C543.3 263.01 543.36 262.99 543.45 262.95C543.41 263.06 543.39 263.12 543.38 263.13C543.11 263.86 542.9 264.64 542.77 265.42C542.76 265.43 542.76 265.47 542.74 265.55C542.69 265.51 542.66 265.49 542.65 265.49ZM542.65 265.3C542.79 264.59 542.97 263.91 543.22 263.22C543.22 263.22 543.22 263.22 543.22 263.22C543.15 263.22 543.11 263.2 543.04 263.18C540.53 261.83 538.01 260.34 535.57 258.79C535.29 259.52 535.09 260.3 534.95 261.07C537.65 262.24 540.23 263.66 542.65 265.3ZM543.43 262.77C543.41 262.72 543.38 262.7 543.34 262.67C540.75 261.3 538.19 259.77 535.7 258.17C535.7 258.17 535.68 258.16 535.66 258.15C535.67 258.11 535.68 258.08 535.68 258.08C535.82 257.74 535.95 257.42 536.11 257.1C536.12 257.09 536.12 257.07 536.14 257.03C536.18 257.06 536.2 257.07 536.21 257.07C538.7 258.35 541.14 259.79 543.47 261.33C543.61 261.42 543.75 261.35 543.79 261.19C543.82 261.14 543.84 261.01 543.7 260.91C541.37 259.36 538.93 257.94 536.43 256.64C536.43 256.64 536.41 256.62 536.37 256.59C536.39 256.55 536.41 256.53 536.41 256.53C536.59 256.18 536.78 255.84 536.98 255.54C537.17 255.25 537.37 254.95 537.6 254.63C537.6 254.63 537.62 254.61 537.65 254.58C537.69 254.6 537.71 254.6 537.71 254.61C540.23 256.09 542.63 257.78 544.8 259.68C544.94 259.79 545.14 259.73 545.19 259.57C545.21 259.52 545.21 259.43 545.12 259.36C542.9 257.44 540.53 255.73 538.01 254.24C538.01 254.24 537.98 254.22 537.94 254.19C537.98 254.15 538.01 254.13 538.01 254.13C538.4 253.65 538.88 253.17 539.38 252.73C539.39 252.73 539.4 252.71 539.43 252.69C543.72 255.76 546.11 257.46 546.58 257.81C546.7 257.9 546.83 257.83 546.88 257.69C546.9 257.65 546.93 257.51 546.79 257.42C546.32 257.08 543.98 255.41 539.77 252.39C539.81 252.35 539.84 252.32 539.84 252.32C540.32 251.93 540.82 251.59 541.37 251.25C541.38 251.24 541.4 251.23 541.44 251.2L541.44 251.2L541.6 251.11L541.6 251.11C541.63 251.09 541.64 251.09 541.65 251.09C542.26 250.72 542.95 250.4 543.63 250.13C543.64 250.12 543.65 250.12 543.68 250.1C543.71 250.13 543.72 250.15 543.73 250.15C543.75 250.17 543.77 250.19 543.79 250.22C546.01 251.7 548.16 253.35 550.15 255.11C550.29 255.22 550.49 255.15 550.54 254.99C550.56 254.95 550.56 254.86 550.47 254.79C548.53 253.07 546.45 251.45 544.27 249.99C544.27 249.98 544.22 249.95 544.14 249.9C544.22 249.87 544.27 249.85 544.27 249.85C545.01 249.6 545.81 249.39 546.61 249.23C546.61 249.23 546.63 249.23 546.67 249.21C546.69 249.25 546.7 249.28 546.7 249.28C546.72 249.33 546.74 249.37 546.79 249.39C547.45 249.87 552.75 253.63 553.42 254.1C553.53 254.19 553.67 254.13 553.71 253.99C553.74 253.94 553.76 253.81 553.62 253.71C553.19 253.41 551.05 251.89 547.2 249.14C547.31 249.13 547.37 249.12 547.38 249.12C548.16 249.01 548.96 248.96 549.74 248.96C549.74 248.96 549.77 248.96 549.83 248.96C549.81 249.01 549.81 249.05 549.81 249.05C549.78 249.14 549.81 249.21 549.87 249.35C549.9 249.42 549.99 249.46 550.06 249.46C550.07 249.46 550.14 249.46 550.15 249.46C550.22 249.46 550.26 249.44 550.29 249.39C550.29 249.39 550.3 249.38 550.33 249.35C550.36 249.38 550.37 249.39 550.38 249.39C550.45 249.44 550.51 249.49 550.58 249.53C550.59 249.53 550.6 249.53 550.61 249.53C550.93 249.76 551.22 249.99 551.54 250.19C552.16 250.65 552.78 251.11 553.39 251.54C554.24 252.18 555.15 252.87 556.25 253.71C556.26 253.72 556.32 253.76 556.41 253.83C556.3 253.84 556.24 253.85 556.23 253.85C553.44 254.17 550.95 255.04 548.78 256.5C548.77 256.51 548.75 256.52 548.71 256.55C548.68 256.51 548.67 256.48 548.66 256.48C548.64 256.46 548.64 256.43 548.62 256.41C546.58 254.35 544.27 252.62 541.74 251.25C541.71 251.22 541.67 251.22 541.65 251.22C541.64 251.22 541.59 251.22 541.51 251.22C541.47 251.31 541.44 251.35 541.44 251.36C541.39 251.45 541.39 251.57 541.51 251.66C544.02 253.03 546.31 254.74 548.3 256.75C548.3 256.76 548.32 256.78 548.37 256.82C548.32 256.85 548.3 256.87 548.3 256.87C547.25 257.65 546.26 258.56 545.44 259.57C544.66 260.53 544.02 261.58 543.57 262.72C543.56 262.73 543.54 262.79 543.5 262.9C543.46 262.82 543.43 262.77 543.43 262.77ZM543.38 262.51C543.41 262.54 543.43 262.54 543.45 262.56C543.86 261.62 544.37 260.73 544.96 259.91C544.85 259.93 544.73 259.91 544.64 259.82C542.49 257.94 540.11 256.25 537.62 254.79C537.42 255.06 537.21 255.36 537.05 255.63C536.87 255.91 536.71 256.23 536.53 256.55C539.02 257.83 541.44 259.27 543.75 260.8C543.89 260.89 543.95 261.07 543.91 261.23C543.84 261.46 543.57 261.6 543.36 261.46C541.07 259.93 538.65 258.51 536.18 257.26C536.07 257.49 535.95 257.78 535.82 258.06C538.29 259.66 540.85 261.14 543.38 262.51ZM545.19 259.29C545.26 259.36 545.3 259.43 545.3 259.52C545.3 259.52 545.3 259.5 545.33 259.5C545.74 258.99 546.19 258.51 546.67 258.06C546.58 258.06 546.51 258.03 546.45 257.99C545.74 257.48 540.09 253.44 539.38 252.94C538.9 253.33 538.49 253.76 538.13 254.19C540.62 255.66 542.99 257.37 545.19 259.29ZM546.81 257.33C546.95 257.42 547.02 257.6 546.95 257.76C547.31 257.42 547.73 257.1 548.11 256.8C546.13 254.81 543.89 253.14 541.42 251.79C541.28 251.73 541.23 251.61 541.23 251.5C540.78 251.79 540.37 252.09 539.95 252.41C541.33 253.39 546.13 256.83 546.81 257.33ZM548.73 256.34C548.73 256.34 548.75 256.37 548.75 256.37C550.15 255.45 551.68 254.74 553.35 254.29C553.35 254.29 553.33 254.29 553.33 254.26C552.66 253.79 547.36 250.03 546.7 249.55C546.65 249.53 546.61 249.49 546.58 249.44C545.85 249.58 545.14 249.76 544.46 249.99C546.58 251.43 548.62 253.01 550.54 254.7C550.65 254.79 550.7 254.95 550.63 255.09C550.56 255.25 550.4 255.36 550.24 255.36C550.15 255.36 550.06 255.31 549.99 255.27C548 253.51 545.85 251.86 543.63 250.38C543.61 250.35 543.59 250.33 543.57 250.33C542.99 250.56 542.4 250.83 541.83 251.15C544.37 252.53 546.7 254.29 548.73 256.34ZM553.74 253.62C553.87 253.71 553.94 253.9 553.87 254.06C553.87 254.08 553.85 254.13 553.83 254.15C554.54 253.97 555.27 253.83 556.02 253.76C554.99 252.96 554.13 252.32 553.33 251.7C552.71 251.25 552.09 250.79 551.47 250.35C551.18 250.13 550.86 249.92 550.56 249.69C550.49 249.67 550.42 249.62 550.35 249.58C550.31 249.62 550.24 249.65 550.17 249.65C550.16 249.65 550.09 249.65 550.08 249.65C550.08 249.65 550.08 249.65 550.08 249.65C549.94 249.65 549.81 249.55 549.74 249.46C549.69 249.35 549.65 249.26 549.65 249.14C548.98 249.14 548.3 249.19 547.61 249.28C548.84 250.15 553.12 253.19 553.74 253.62ZM567.41 255.15C564.53 253.85 561.67 252.43 558.9 250.88C558.9 250.88 558.88 250.86 558.83 250.83L559.95 248.98C560 249.01 560.02 249.03 560.02 249.03C562.74 250.77 565.53 252.39 568.37 253.87C568.37 253.88 568.4 253.89 568.46 253.92C568.43 253.96 568.41 253.98 568.41 253.99C568.09 254.4 567.79 254.77 567.5 255.13C567.49 255.13 567.48 255.15 567.45 255.18C567.42 255.16 567.41 255.16 567.41 255.15ZM567.41 254.99C567.66 254.67 567.93 254.33 568.21 253.97C565.42 252.5 562.65 250.9 560 249.21C559.94 249.32 559.62 249.84 559.04 250.79C562.73 252.74 565.52 254.14 567.41 254.99ZM563.41 254.38C562.24 254.1 561.03 253.9 559.82 253.83C559.81 253.83 559.75 253.83 559.66 253.83C559.73 253.76 559.76 253.72 559.77 253.71C559.82 253.67 559.84 253.6 559.84 253.55C559.84 253.51 559.82 253.46 559.77 253.42C558.61 252.41 557.37 251.43 556.09 250.49C556.05 250.46 555.87 250.33 555.54 250.08C555.93 250.24 556.14 250.34 556.18 250.35C556.73 250.61 557.28 250.88 557.78 251.18C557.79 251.18 557.8 251.2 557.81 251.2C557.85 251.25 557.9 251.29 557.94 251.34C559.75 252.34 561.6 253.33 563.47 254.26C563.51 254.28 563.71 254.37 564.07 254.54C563.67 254.44 563.45 254.39 563.41 254.38ZM562.83 254.1C561.14 253.26 559.47 252.37 557.87 251.45C557.81 251.41 557.74 251.36 557.69 251.29C557.39 251.13 557.1 250.95 556.8 250.81C557.87 251.61 558.9 252.46 559.89 253.3C559.95 253.37 560 253.46 560.02 253.55C559.98 253.58 559.98 253.65 559.95 253.69C560.91 253.76 561.87 253.9 562.83 254.1ZM557.1 253.83C555.86 252.87 554.74 252.02 553.65 251.2C553.03 250.74 552.34 250.24 551.5 249.62C551.41 249.55 551.29 249.46 551.2 249.39C551.11 249.33 551.04 249.26 550.95 249.19C550.93 249.18 550.87 249.12 550.74 249.03C550.89 249.04 550.98 249.05 550.99 249.05C552.05 249.14 553.1 249.33 554.13 249.62C554.13 249.62 554.13 249.62 554.15 249.62C554.16 249.64 554.17 249.64 554.17 249.65C554.19 249.67 554.22 249.69 554.24 249.71C556 250.93 557.74 252.25 559.38 253.67C559.39 253.68 559.45 253.72 559.54 253.81C559.41 253.81 559.33 253.81 559.31 253.81C558.56 253.78 557.83 253.78 557.12 253.83C557.12 253.83 557.11 253.83 557.1 253.83C557.1 253.83 557.1 253.83 557.1 253.83ZM551.29 249.26C551.38 249.35 551.5 249.42 551.59 249.49C552.43 250.1 553.12 250.61 553.74 251.06C554.83 251.89 555.95 252.73 557.14 253.65C557.78 253.6 558.42 253.6 559.11 253.62C557.53 252.27 555.86 250.99 554.15 249.83C554.1 249.81 554.08 249.76 554.06 249.74C553.12 249.49 552.16 249.3 551.22 249.21C551.25 249.23 551.27 249.26 551.29 249.26ZM568.64 253.51C565.81 252.02 562.97 250.4 560.25 248.64C560.25 248.64 560.22 248.62 560.18 248.59L561.14 247.02C561.18 247.03 561.21 247.04 561.21 247.04C563.91 248.5 566.58 250.01 569.17 251.54C569.3 251.63 569.46 251.52 569.49 251.38C569.51 251.34 569.51 251.22 569.39 251.13C566.83 249.6 564.16 248.09 561.46 246.63C561.46 246.63 561.44 246.61 561.39 246.58L562.42 244.89C562.46 244.91 562.49 244.91 562.49 244.91C565.35 246.35 568.18 247.91 570.88 249.53C571.02 249.62 571.18 249.51 571.2 249.39C571.22 249.35 571.22 249.23 571.11 249.14C568.41 247.52 565.6 245.97 562.74 244.53C562.74 244.52 562.72 244.51 562.67 244.48L563.98 242.35C564.02 242.38 564.04 242.4 564.05 242.4C564.23 242.51 564.43 242.63 564.62 242.74C564.94 242.93 565.28 243.13 565.6 243.31C565.6 243.32 565.62 243.33 565.62 243.34C566.31 243.75 567.06 244.18 567.95 244.73C569.3 245.55 570.7 246.42 572.25 247.41C572.39 247.5 572.53 247.38 572.57 247.27C572.59 247.22 572.59 247.09 572.48 247.02C570.63 245.83 568.73 244.66 566.83 243.54C566.08 243.09 565.26 242.61 564.25 242.03C564.25 242.03 564.22 242.02 564.18 241.99L565.14 240.41C565.18 240.43 565.21 240.43 565.21 240.43C568.41 241.58 571.52 243.04 574.47 244.73C574.47 244.73 574.5 244.75 574.54 244.78C574.51 244.82 574.49 244.84 574.49 244.85C572.8 247.82 570.88 250.72 568.78 253.44C568.77 253.45 568.76 253.49 568.73 253.55C568.68 253.53 568.65 253.51 568.64 253.51ZM568.71 253.37C570.77 250.67 572.64 247.84 574.33 244.91C571.43 243.25 568.37 241.81 565.21 240.69C565.13 240.82 564.49 241.88 564.41 242.01C565.37 242.58 566.17 243.04 566.93 243.5C568.82 244.62 570.72 245.81 572.57 246.97C572.71 247.06 572.78 247.22 572.73 247.41C572.69 247.57 572.55 247.7 572.39 247.7C572.39 247.7 572.39 247.7 572.39 247.7C572.32 247.7 572.25 247.68 572.18 247.63C570.63 246.65 569.23 245.78 567.89 244.96C566.97 244.41 566.24 243.95 565.55 243.57C565.55 243.56 565.53 243.55 565.53 243.54C565.21 243.36 564.87 243.15 564.55 242.97C564.39 242.88 564.21 242.77 564.05 242.67C563.93 242.86 563.04 244.34 562.93 244.53C565.76 245.97 568.57 247.5 571.25 249.12C571.41 249.21 571.45 249.37 571.41 249.53C571.34 249.78 571.06 249.9 570.86 249.76C568.18 248.14 565.37 246.61 562.54 245.17C562.45 245.31 561.76 246.46 561.67 246.61C564.34 248.05 566.99 249.55 569.53 251.06C569.69 251.15 569.74 251.31 569.69 251.47C569.62 251.73 569.35 251.84 569.14 251.7C566.58 250.19 563.93 248.69 561.26 247.25C561.2 247.33 560.92 247.78 560.41 248.57C564.07 250.8 566.83 252.4 568.71 253.37Z" id="e7Fuhz9U2f"></path><path d="M537.53 271.06C537.19 270.86 536.89 271.38 537.23 271.59C539.06 272.69 541.05 273.46 543.13 273.9C543.5 273.97 543.66 273.39 543.29 273.3C541.23 272.87 539.31 272.14 537.53 271.06Z" id="c1Njq89DO6"></path><path d="M543.18 273.97C543.15 273.97 543.13 273.97 543.09 273.97C540.98 273.53 538.99 272.75 537.17 271.63C537.01 271.54 536.96 271.38 537.01 271.22C537.07 270.97 537.35 270.86 537.55 270.99C539.34 272.07 541.26 272.82 543.29 273.23C543.47 273.28 543.59 273.42 543.57 273.6C543.57 273.78 543.41 273.97 543.18 273.97C543.18 273.97 543.18 273.97 543.18 273.97ZM537.17 271.27C537.14 271.31 537.14 271.43 537.26 271.52C539.09 272.62 541.05 273.39 543.13 273.83C543.29 273.85 543.41 273.74 543.43 273.6C543.43 273.55 543.43 273.42 543.27 273.39C541.21 272.96 539.27 272.21 537.49 271.13C537.44 271.11 537.42 271.09 537.37 271.09C537.26 271.09 537.19 271.18 537.17 271.27Z" id="b2IyTt5Cj"></path></defs><g><g><g><use xlink:href="#ad0MPtc27" opacity="1" fill="#000000" fill-opacity="1"></use><g><use xlink:href="#ad0MPtc27" opacity="1" fill-opacity="0" stroke="#000000" stroke-width="1" stroke-opacity="0"></use></g></g><g><use xlink:href="#e7Fuhz9U2f" opacity="1" fill="#180f0b" fill-opacity="1"></use><g><use xlink:href="#e7Fuhz9U2f" opacity="1" fill-opacity="0" stroke="#000000" stroke-width="1" stroke-opacity="0"></use></g></g><g><use xlink:href="#c1Njq89DO6" opacity="1" fill="#000000" fill-opacity="1"></use><g><use xlink:href="#c1Njq89DO6" opacity="1" fill-opacity="0" stroke="#000000" stroke-width="1" stroke-opacity="0"></use></g></g><g><use xlink:href="#b2IyTt5Cj" opacity="1" fill="#180f0b" fill-opacity="1"></use><g><use xlink:href="#b2IyTt5Cj" opacity="1" fill-opacity="0" stroke="#000000" stroke-width="1" stroke-opacity="0"></use></g></g></g></g></svg>