<?xml version="1.0" encoding="UTF-8" standalone="no"?>
<!DOCTYPE svg PUBLIC "-//W3C//DTD SVG 1.1//EN" "http://www.w3.org/Graphics/SVG/1.1/DTD/svg11.dtd">
<svg version="1.1" xmlns="http://www.w3.org/2000/svg" xmlns:xlink="http://www.w3.org/1999/xlink" preserveAspectRatio="xMidYMid meet" viewBox="143.42857142857136 317.1657142857144 24.278665181883866 61.074285714285566" width="24.28" height="61.07"><defs><path d="M167.59 341.6C167.57 340.66 167.57 339.7 167.54 338.77C167.66 338.65 167.68 338.42 167.54 338.31C167.52 337.58 167.52 336.85 167.5 336.11C167.7 336.05 167.79 335.73 167.57 335.54C167.54 335.52 167.5 335.5 167.47 335.47C167.38 331.2 167.25 326.93 167.09 322.65C167.09 322.49 166.99 322.29 166.83 322.22C163.89 320.73 160.94 319.27 157.99 317.78C157.99 317.78 157.99 317.78 157.99 317.78C157.99 317.51 157.76 317.28 157.49 317.28C157.33 317.28 157.14 317.28 156.98 317.28C156.82 317.19 156.66 317.21 156.53 317.28C152.48 317.3 148.46 317.28 144.41 317.21C144.02 317.21 143.86 317.55 143.95 317.85C143.82 335.61 143.68 353.37 143.54 371.13C143.54 371.43 143.77 371.63 144.05 371.63C144.21 371.63 144.34 371.66 144.5 371.66C146.22 372.66 147.84 373.81 149.37 375.06C150.79 376.23 152.14 377.21 153.94 377.62C155.91 378.08 158.03 377.94 160.05 377.97C160.27 377.97 160.53 377.97 160.75 377.99C160.8 378.08 160.91 378.13 161.01 378.13C161.03 378.13 161.07 378.13 161.1 378.13C161.19 378.13 161.28 378.08 161.35 377.99C163.18 378.01 165.01 378.06 166.83 378.08C167.36 378.08 167.45 377.44 167.13 377.17C167.18 377.1 167.2 377.01 167.2 376.91C167.61 365.28 167.75 353.6 167.59 341.92C167.63 341.83 167.66 341.69 167.59 341.6ZM157.94 323.15C157.94 322.61 157.94 322.03 157.97 321.49C160.71 323.02 163.45 324.57 166.19 326.1C166.22 326.83 166.26 327.57 166.26 328.3C164.6 327.27 158.77 323.67 157.94 323.15ZM161.53 328.8C162.95 329.69 164.43 330.54 165.62 331.77C165.9 332.05 166.33 331.63 166.06 331.34C164.94 330.17 163.54 329.35 162.17 328.48C160.75 327.59 159.36 326.7 157.94 325.83C157.94 325.19 157.94 324.53 157.94 323.89C160.73 325.6 163.5 327.34 166.29 329.05C166.33 330.95 166.4 332.85 166.42 334.77C166.14 334.56 164.71 333.53 162.15 331.68C160.63 330.58 159.78 329.97 159.61 329.85C159.18 329.53 158.54 328.87 157.94 328.64C157.94 327.93 157.94 327.22 157.94 326.54C159.13 327.29 160.34 328.05 161.53 328.8ZM162.17 332.39C163.61 333.42 165.03 334.45 166.47 335.47C166.49 336.21 166.49 336.94 166.51 337.67C163.61 335.93 160.78 334.08 158.03 332.14C158.01 332.11 157.99 332.11 157.97 332.09C157.97 331.15 157.97 330.19 157.97 329.26C158.54 329.58 159.27 330.33 159.63 330.56C160.14 330.93 161.92 332.21 162.17 332.39ZM166.51 338.58C166.54 339.36 166.54 340.16 166.56 340.94C163.63 339.15 160.78 337.28 157.97 335.34C157.97 334.49 157.97 333.67 157.97 332.82C160.71 334.79 163.54 336.64 166.45 338.35C166.45 338.42 166.47 338.51 166.51 338.58ZM166.58 344.02C166.33 343.86 166.08 343.66 165.97 343.59C165.83 343.5 164.77 342.81 164.64 342.72C163.86 342.22 163.09 341.69 162.31 341.19C160.87 340.23 159.41 339.27 157.97 338.33C157.97 337.58 157.97 336.85 157.94 336.09C160.78 338.03 163.66 339.89 166.56 341.67C166.56 342.45 166.58 343.25 166.58 344.02ZM165.35 343.91C165.71 344.14 166.15 344.57 166.61 344.75C166.61 345.62 166.63 346.49 166.63 347.36C165.1 346.29 163.57 345.19 162.03 344.11C161.77 343.93 159.69 342.45 159.43 342.26C158.99 341.94 158.58 341.51 158.03 341.51C158.03 340.69 158.01 339.89 158.01 339.06C159.54 340.07 161.12 341.12 162.7 342.15C163.59 342.74 164.48 343.31 165.35 343.91ZM166.17 325.39C163.43 323.86 160.71 322.33 157.97 320.78C157.97 320.16 157.97 319.52 157.99 318.9C160.69 320.27 163.38 321.62 166.08 322.97C166.1 323.77 166.15 324.59 166.17 325.39ZM144.55 370.58C144.69 353.14 144.82 335.68 144.96 318.24C148.89 318.31 152.82 318.33 156.75 318.31C156.78 318.32 156.96 318.41 156.98 318.42C156.96 320.75 156.94 323.06 156.94 325.39C156.78 325.51 156.73 325.76 156.94 325.9C156.91 334.17 156.98 342.45 157.12 350.7C156.85 350.63 156.64 351.06 156.91 351.27C156.98 351.31 157.05 351.38 157.12 351.43C157.14 352.39 157.17 353.35 157.19 354.31C157.07 354.42 157.03 354.65 157.19 354.79C157.21 355.75 157.23 356.69 157.26 357.65C157.14 357.67 157.03 357.74 157.01 357.85C156.96 358.03 156.96 358.13 157.07 358.29C157.12 358.35 157.21 358.4 157.28 358.42C157.3 359.15 157.33 359.86 157.33 360.59C157.23 360.71 157.23 360.89 157.33 361.01C157.39 363.36 157.46 365.74 157.55 368.09C157.49 368.18 157.46 368.34 157.58 368.46C157.6 369.26 157.62 370.03 157.67 370.83C157.67 370.83 157.67 370.83 157.67 370.83C157.3 370.56 156.96 370.9 156.94 371.27C154.35 371.13 151.77 371.02 149.19 370.88C149.17 370.87 149.02 370.76 149.01 370.74C148.85 370.61 148.69 370.72 148.62 370.86C147.34 370.79 146.08 370.72 144.78 370.65C144.8 370.65 144.8 370.65 144.78 370.65C144.71 370.61 144.62 370.58 144.55 370.58ZM149.53 373.92C148.59 373.17 147.59 372.43 146.58 371.77C147.59 371.82 148.57 371.86 149.58 371.91C151.77 373.58 153.99 375.25 156.18 376.89C155.63 376.87 155.09 376.8 154.56 376.73C152.53 376.41 151.09 375.18 149.53 373.92ZM150.63 371.95C151.59 372 152.53 372.05 153.49 372.09C154.63 373.05 155.79 373.99 156.98 374.9C157.51 375.31 158.03 375.7 158.58 376.11C158.88 376.34 159.2 376.57 159.52 376.8C159.57 376.85 159.66 376.89 159.77 376.96C158.93 376.98 158.08 376.98 157.23 376.94C155.04 375.27 152.82 373.6 150.63 371.95ZM160.78 376.98C160.78 376.98 160.75 376.98 160.75 376.96C159.93 376.37 159.11 375.75 158.29 375.13C157.01 374.17 155.75 373.17 154.51 372.14C155.68 372.21 156.85 372.25 158.01 372.32C160.32 374.03 162.74 375.61 165.21 377.07C163.75 377.03 162.29 377.01 160.85 376.98C160.82 376.98 160.8 376.98 160.78 376.98ZM159.15 371.91C159.18 371.63 159.02 371.34 158.67 371.34C158.7 371.29 158.7 371.25 158.7 371.18C158.67 370.58 158.65 369.97 158.63 369.37C161.03 371.43 163.57 373.33 166.24 375.04C166.22 375.52 166.22 376 166.19 376.46C163.77 375.06 161.42 373.55 159.15 371.91ZM158.61 368.53C158.56 367.45 158.54 366.4 158.49 365.33C158.49 365.33 158.51 365.35 158.51 365.35C159.29 366.03 160.07 366.72 160.87 367.38C162.45 368.73 164.07 370.03 165.69 371.31C165.99 371.54 166.42 371.13 166.13 370.88C164.89 369.92 163.68 368.94 162.49 367.95C161.9 367.45 161.3 366.95 160.71 366.45C160.43 366.22 158.88 365.12 158.65 364.59C158.83 364.43 158.77 364.05 158.47 364.07C158.47 364.07 158.47 364.07 158.47 364.07C158.45 363.31 158.42 362.54 158.4 361.78C161.05 363.77 163.63 365.85 166.13 368.05C166.22 368.14 166.33 368.14 166.42 368.11C166.4 370.19 166.33 372.25 166.26 374.33C163.59 372.57 161.03 370.65 158.61 368.53ZM158.38 361.01C158.35 360.21 158.33 359.43 158.31 358.63C158.77 358.93 159.2 359.31 159.45 359.47C160.3 360.02 161.14 360.59 161.99 361.19C163.52 362.24 165.01 363.34 166.49 364.43C166.49 365.49 166.47 366.51 166.45 367.52C163.84 365.23 161.14 363.09 158.38 361.01ZM161.99 360.48C161.14 359.91 160.3 359.34 159.45 358.79C159.13 358.58 158.72 358.22 158.29 357.97C158.26 357.14 158.24 356.34 158.24 355.52C160.94 357.39 163.66 359.25 166.35 361.12C166.42 361.17 166.49 361.19 166.56 361.17C166.56 361.99 166.54 362.86 166.51 363.73C165.03 362.61 163.52 361.53 161.99 360.48ZM158.22 354.74C158.19 353.87 158.17 353.03 158.17 352.16C159.01 352.77 165.76 357.63 166.61 358.24C166.58 358.99 166.58 359.73 166.56 360.48C163.77 358.56 161.01 356.66 158.22 354.74ZM158.15 351.41C158.13 350.63 158.13 349.83 158.1 349.05C158.99 349.67 159.91 350.29 160.8 350.93C162.74 352.25 164.66 353.6 166.61 354.93C166.61 355.77 166.61 356.64 166.61 357.49C163.79 355.45 160.98 353.42 158.15 351.41ZM162.74 351.52C161.99 350.99 161.23 350.49 160.48 349.97C160.23 349.81 158.56 348.85 158.29 348.43C158.42 348.27 158.35 347.98 158.1 347.93C158.08 347.09 158.08 346.22 158.06 345.37C160.96 347.38 163.77 349.49 166.51 351.73C166.56 351.75 166.58 351.77 166.63 351.79C166.63 352.57 166.63 353.39 166.63 354.19C165.33 353.3 164.05 352.41 162.74 351.52ZM158.01 342.19C158.08 342.17 158.15 342.1 158.15 341.99C158.1 342.31 159.79 343.27 160.07 343.45C160.82 344 161.6 344.53 162.35 345.07C163.77 346.08 165.19 347.06 166.61 348.07C166.61 348.07 166.61 348.07 166.63 348.07C166.63 349.05 166.63 350.03 166.63 351.02C163.84 348.78 160.98 346.63 158.03 344.62C158.03 343.82 158.01 342.99 158.01 342.19Z" id="c7fiEgQMQ"></path><path d="M160.69 378.08C160.62 378.08 160.09 378.06 160.02 378.06C159.7 378.06 159.38 378.06 159.06 378.06C158.98 378.06 158.32 378.06 158.24 378.06C156.75 378.06 155.29 378.03 153.9 377.71C152.02 377.28 150.65 376.25 149.28 375.13C147.79 373.9 146.15 372.75 144.43 371.75C144.39 371.75 144.04 371.73 144 371.73C143.68 371.7 143.43 371.45 143.43 371.15C143.47 365.83 143.8 323.22 143.84 317.9C143.79 317.71 143.84 317.51 143.93 317.37C144.02 317.23 144.18 317.17 144.37 317.17C148.34 317.23 152.43 317.26 156.48 317.23C156.64 317.17 156.8 317.17 156.96 317.23C157.01 317.23 157.39 317.23 157.44 317.23C157.6 317.23 157.74 317.3 157.85 317.42C157.94 317.51 158.01 317.65 158.01 317.78C158.89 318.22 165.93 321.75 166.81 322.19C166.97 322.29 167.09 322.47 167.11 322.7C167.27 326.79 167.41 331.09 167.5 335.47C167.5 335.48 167.54 335.52 167.54 335.52C167.66 335.61 167.73 335.75 167.7 335.91C167.68 336.05 167.61 336.14 167.5 336.21C167.5 336.26 167.52 336.72 167.52 336.78C167.52 337.28 167.54 337.81 167.54 338.31C167.61 338.38 167.66 338.45 167.66 338.54C167.66 338.65 167.63 338.74 167.57 338.81C167.57 338.88 167.59 339.43 167.59 339.5C167.61 340.21 167.61 340.89 167.61 341.6C167.68 341.71 167.68 341.83 167.61 341.97C167.77 353.6 167.63 365.39 167.2 376.96C167.2 377.05 167.18 377.12 167.13 377.19C167.29 377.35 167.34 377.6 167.27 377.83C167.2 378.06 166.99 378.19 166.74 378.19C166.74 378.19 166.74 378.19 166.74 378.19C163.47 378.14 161.64 378.11 161.28 378.1C161.21 378.17 161.12 378.22 161.01 378.24C161 378.24 161 378.23 160.98 378.22C160.83 378.17 160.73 378.13 160.69 378.08ZM160.02 377.9C160.07 377.9 160.32 377.91 160.75 377.92C160.77 377.95 160.78 377.96 160.78 377.97C160.8 378.01 160.89 378.06 160.96 378.06C160.96 378.06 160.96 378.08 160.96 378.13L160.96 378.06C161.01 378.06 161.05 378.06 161.05 378.06C161.12 378.06 161.19 378.01 161.23 377.97C161.24 377.96 161.24 377.96 161.26 377.94C164.56 378 166.4 378.03 166.77 378.03C166.77 378.03 166.77 378.03 166.77 378.03C166.95 378.03 167.09 377.94 167.15 377.78C167.22 377.6 167.15 377.37 167.02 377.28C167.01 377.28 167 377.26 166.97 377.23C167 377.21 167.01 377.19 167.02 377.19C167.06 377.12 167.09 377.05 167.09 376.98C167.5 365.39 167.63 353.6 167.5 341.97C167.5 341.96 167.5 341.96 167.5 341.94C167.5 341.93 167.5 341.92 167.5 341.92C167.54 341.85 167.54 341.76 167.5 341.69C167.5 341.69 167.49 341.68 167.47 341.67C167.47 341.65 167.47 341.65 167.47 341.65C167.47 340.94 167.45 340.23 167.45 339.52C167.45 339.47 167.44 339.22 167.43 338.77C167.44 338.75 167.45 338.74 167.45 338.74C167.5 338.7 167.54 338.63 167.52 338.56C167.52 338.51 167.5 338.45 167.45 338.4C167.45 338.4 167.44 338.39 167.43 338.38C167.43 338.35 167.43 338.33 167.43 338.33C167.43 337.81 167.41 337.28 167.41 336.75C167.4 336.71 167.4 336.48 167.38 336.07C167.41 336.05 167.43 336.05 167.43 336.05C167.5 336.02 167.57 335.93 167.57 335.84C167.57 335.79 167.57 335.68 167.47 335.61C167.47 335.61 167.43 335.57 167.36 335.52C167.36 335.49 167.36 335.48 167.36 335.47C167.27 331.06 167.13 326.77 166.97 322.67C166.97 322.56 166.9 322.38 166.77 322.31C166.17 322.01 163.22 320.53 157.9 317.85C157.9 317.82 157.9 317.81 157.9 317.81C157.9 317.69 157.85 317.58 157.78 317.51C157.69 317.42 157.6 317.37 157.49 317.37C157.45 317.37 157.28 317.37 156.96 317.37C156.95 317.37 156.94 317.37 156.94 317.37C156.8 317.3 156.66 317.3 156.55 317.37C156.54 317.37 156.51 317.37 156.5 317.37C152.43 317.39 148.34 317.37 144.39 317.3C144.39 317.3 144.39 317.3 144.39 317.3C144.25 317.3 144.14 317.35 144.07 317.44C143.98 317.55 143.95 317.69 144 317.85C144 317.85 144 317.85 144 317.85L144 317.85C143.75 349.82 143.62 367.58 143.59 371.13C143.59 371.36 143.77 371.54 144.02 371.57C144.07 371.57 144.45 371.59 144.5 371.59C146.22 372.62 147.86 373.76 149.37 374.99C150.72 376.09 152.07 377.12 153.92 377.55C155.29 377.87 156.75 377.9 158.22 377.9C158.27 377.9 158.56 377.9 159.06 377.9C159.49 377.9 159.81 377.9 160.02 377.9ZM160.75 377.05C160.73 377.04 160.71 377.03 160.71 377.03C159.95 376.5 159.18 375.91 158.24 375.2C157.03 374.29 155.79 373.3 154.47 372.21C154.46 372.2 154.4 372.15 154.29 372.07L158.03 372.25C158.05 372.27 158.06 372.27 158.06 372.27C160.37 373.99 162.79 375.57 165.26 377.01C165.27 377.01 165.36 377.06 165.51 377.14L160.75 377.05ZM164.91 376.98C162.54 375.59 160.21 374.03 157.97 372.39C157.64 372.37 155.04 372.24 154.72 372.23C155.98 373.28 157.17 374.19 158.33 375.09C159.27 375.79 160.05 376.37 160.8 376.91C160.8 376.91 160.8 376.91 160.8 376.91C163.27 376.96 164.64 376.98 164.91 376.98ZM159.34 377.05C158.65 377.05 157.94 377.05 157.23 377.03C157.23 377.03 157.23 377.03 157.21 377.03L150.38 371.89L153.51 372.05C153.52 372.06 153.53 372.07 153.53 372.07C154.74 373.1 155.89 374.01 157.03 374.88C157.49 375.25 157.99 375.61 158.63 376.09C158.93 376.32 159.25 376.55 159.57 376.78C159.61 376.82 159.7 376.87 159.82 376.94C159.83 376.94 159.9 376.98 160.02 377.05C159.61 377.05 159.38 377.05 159.34 377.05ZM159.36 376.89C159.37 376.89 159.48 376.89 159.5 376.89C159.5 376.89 159.47 376.87 159.47 376.87C159.15 376.64 158.86 376.41 158.54 376.18C157.9 375.7 157.39 375.34 156.94 374.97C155.82 374.1 154.67 373.19 153.46 372.16C153.29 372.15 152.43 372.11 150.88 372.02L157.28 376.87C158.21 376.88 158.9 376.89 159.36 376.89ZM156.18 376.96C155.59 376.91 155.06 376.87 154.56 376.78C152.62 376.48 151.25 375.36 149.78 374.17C149.76 374.15 149.54 373.97 149.51 373.94C148.59 373.21 147.61 372.48 146.56 371.79C146.54 371.78 146.47 371.73 146.33 371.63L149.62 371.79L149.65 371.82L156.43 376.98C156.28 376.97 156.2 376.96 156.18 376.96ZM149.58 373.83C149.6 373.85 149.82 374.03 149.85 374.06C151.29 375.22 152.66 376.34 154.56 376.64C154.97 376.71 155.43 376.75 155.91 376.8C155.48 376.48 153.36 374.87 149.53 371.98L146.86 371.84C148.11 372.71 149.01 373.37 149.58 373.83ZM166.15 376.53C163.73 375.13 161.37 373.6 159.11 371.98C159.11 371.98 159.09 371.97 159.06 371.95C159.06 371.93 159.06 371.91 159.06 371.91C159.09 371.77 159.04 371.63 158.95 371.54C158.88 371.45 158.77 371.41 158.65 371.41C158.65 371.41 158.61 371.41 158.56 371.41C158.57 371.35 158.58 371.32 158.58 371.31C158.61 371.27 158.61 371.22 158.61 371.18C158.58 370.83 158.58 370.49 158.56 370.15C158.56 370.08 158.55 369.76 158.54 369.19C158.62 369.26 158.67 369.3 158.67 369.3C161.05 371.34 163.61 373.26 166.26 374.97C166.27 374.97 166.28 374.98 166.31 374.99C166.29 375.35 166.29 375.55 166.29 375.59C166.29 375.89 166.26 376.18 166.26 376.46C166.26 376.47 166.26 376.51 166.26 376.59C166.19 376.55 166.16 376.53 166.15 376.53ZM166.13 376.34C166.13 376.09 166.15 375.84 166.15 375.59C166.15 375.54 166.17 375.14 166.17 375.09C163.57 373.39 161.07 371.54 158.72 369.53C158.72 369.59 158.74 370.09 158.74 370.15C158.77 370.49 158.77 370.83 158.79 371.18C158.79 371.2 158.79 371.25 158.79 371.27C158.93 371.29 159.02 371.36 159.11 371.45C159.2 371.57 159.25 371.73 159.25 371.89C161.46 373.49 163.77 374.97 166.13 376.34ZM166.22 374.4C163.54 372.64 160.96 370.7 158.56 368.59C158.56 368.59 158.55 368.59 158.54 368.57C158.54 368.56 158.54 368.55 158.54 368.55C158.51 367.82 158.49 367.11 158.47 366.38C158.47 366.3 158.45 365.89 158.42 365.17C158.51 365.25 158.55 365.29 158.56 365.3C159.27 365.92 160.02 366.58 160.91 367.34C162.4 368.62 163.98 369.9 165.74 371.27C165.87 371.38 166.08 371.29 166.15 371.15C166.17 371.09 166.15 371.02 166.08 370.97C164.87 370.01 163.63 369.03 162.45 368.05C161.78 367.5 161.14 366.95 160.66 366.54C160.62 366.49 160.5 366.4 160.34 366.29C159.59 365.71 158.77 365.05 158.58 364.66C158.58 364.66 158.57 364.64 158.56 364.62C158.59 364.59 158.6 364.57 158.61 364.57C158.67 364.5 158.7 364.39 158.67 364.3C158.65 364.25 158.61 364.16 158.49 364.16C158.49 364.16 158.45 364.16 158.4 364.16C158.39 364.12 158.38 364.1 158.38 364.09C158.35 363.61 158.35 363.15 158.33 362.67C158.33 362.61 158.32 362.26 158.31 361.65C158.39 361.7 158.44 361.73 158.45 361.74C161.1 363.73 163.7 365.83 166.17 368C166.24 368.07 166.33 368.07 166.4 368.05C166.41 368.04 166.45 368.03 166.51 368C166.51 368.07 166.51 368.11 166.51 368.11C166.47 370.22 166.4 372.32 166.33 374.33C166.33 374.34 166.33 374.39 166.33 374.47C166.26 374.43 166.22 374.4 166.22 374.4ZM166.19 374.19C166.22 373.21 166.26 372.21 166.29 371.2C166.22 371.36 166.06 371.45 165.9 371.45C165.81 371.45 165.71 371.43 165.65 371.36C163.89 369.99 162.31 368.71 160.82 367.43C159.95 366.7 159.25 366.08 158.58 365.49C158.59 365.57 158.6 366.25 158.61 366.33C158.63 367.09 158.65 367.79 158.67 368.5C161.03 370.56 163.57 372.48 166.19 374.19ZM160.46 366.17C160.59 366.29 160.71 366.38 160.78 366.42C161.26 366.83 161.9 367.38 162.56 367.93C163.75 368.91 164.98 369.9 166.19 370.86C166.24 370.9 166.29 370.95 166.31 371.02C166.33 370.1 166.35 369.17 166.38 368.23C166.29 368.23 166.17 368.21 166.1 368.14C163.66 365.99 161.1 363.93 158.49 361.97C158.49 362.04 158.51 362.62 158.51 362.7C158.54 363.15 158.54 363.59 158.56 364.05C158.7 364.07 158.79 364.14 158.83 364.27C158.88 364.37 158.83 364.53 158.77 364.64C158.97 365.05 159.93 365.76 160.46 366.17ZM149.19 370.95C149.07 370.85 149 370.8 148.98 370.79C148.87 370.7 148.73 370.79 148.71 370.88C148.71 370.88 148.7 370.9 148.69 370.93L144.8 370.72L144.82 370.65C144.8 370.69 144.78 370.72 144.78 370.72C144.71 370.67 144.64 370.67 144.59 370.65C144.59 370.65 144.57 370.65 144.53 370.65L144.55 366.83L144.91 318.15C144.96 318.15 144.98 318.15 144.98 318.15C147.77 318.19 150.63 318.22 153.44 318.22C154.56 318.22 155.66 318.22 156.78 318.19C156.78 318.19 156.79 318.19 156.8 318.19L157.07 318.33C157.07 318.36 157.07 318.37 157.07 318.38C157.05 320.57 157.03 322.86 157.03 325.35C157.03 325.35 157.03 325.37 157.03 325.39C157.01 325.41 157.01 325.42 157.01 325.42C156.94 325.46 156.89 325.55 156.89 325.62C156.89 325.67 156.91 325.74 156.98 325.81C156.98 325.81 156.99 325.81 157.01 325.83C157.01 325.86 157.01 325.87 157.01 325.87C156.98 334.03 157.03 342.38 157.19 350.67C157.19 350.68 157.19 350.71 157.19 350.77C157.13 350.75 157.1 350.74 157.1 350.74C157.01 350.72 156.91 350.79 156.87 350.9C156.85 350.95 156.82 351.09 156.96 351.18C156.98 351.19 157.06 351.25 157.21 351.36C157.23 351.74 157.23 351.96 157.23 352C157.26 352.75 157.26 353.51 157.28 354.29C157.28 354.29 157.28 354.29 157.28 354.31C157.27 354.32 157.26 354.33 157.26 354.33C157.21 354.38 157.17 354.47 157.17 354.54C157.17 354.58 157.19 354.65 157.26 354.7C157.26 354.7 157.27 354.71 157.28 354.72C157.29 355.2 157.3 355.47 157.3 355.52C157.33 356.23 157.33 356.91 157.35 357.62C157.35 357.63 157.35 357.65 157.35 357.69C157.31 357.71 157.28 357.71 157.28 357.71C157.17 357.74 157.1 357.78 157.07 357.87C157.03 358.06 157.03 358.13 157.14 358.26C157.19 358.33 157.23 358.35 157.3 358.38C157.31 358.38 157.33 358.39 157.37 358.4C157.39 358.93 157.39 359.23 157.39 359.29C157.39 359.73 157.42 360.18 157.44 360.62C157.44 360.62 157.44 360.63 157.44 360.64C157.43 360.65 157.42 360.66 157.42 360.66C157.35 360.75 157.33 360.89 157.42 360.98C157.42 360.98 157.43 360.99 157.44 361.01C157.44 361.02 157.44 361.03 157.44 361.03C157.51 363.63 157.58 365.97 157.67 368.11C157.67 368.12 157.67 368.12 157.67 368.14C157.65 368.15 157.65 368.16 157.65 368.16C157.62 368.18 157.55 368.3 157.65 368.41C157.65 368.41 157.65 368.42 157.67 368.43C157.68 369.02 157.69 369.35 157.69 369.42C157.71 369.9 157.71 370.38 157.74 370.83C157.74 370.84 157.74 370.9 157.74 370.99C157.65 370.94 157.61 370.91 157.6 370.9C157.53 370.83 157.44 370.81 157.37 370.81C157.17 370.81 157.01 371.02 156.98 371.27C156.99 371.27 157 371.3 157.03 371.34L149.19 370.95ZM156.89 371.18C156.94 370.88 157.17 370.65 157.42 370.65C157.49 370.65 157.55 370.67 157.6 370.7C157.58 370.26 157.58 369.83 157.55 369.42C157.55 369.33 157.53 368.59 157.53 368.5C157.44 368.39 157.42 368.23 157.51 368.09C157.44 365.94 157.37 363.63 157.28 361.05C157.17 360.89 157.19 360.71 157.26 360.59C157.23 360.16 157.23 359.73 157.23 359.29C157.23 359.21 157.21 358.59 157.21 358.51C157.14 358.49 157.07 358.42 157.01 358.35C156.89 358.17 156.87 358.06 156.94 357.85C156.98 357.71 157.05 357.65 157.19 357.6C157.17 356.91 157.17 356.25 157.14 355.57C157.14 355.49 157.12 354.91 157.12 354.83C157.05 354.77 157.01 354.67 157.01 354.58C157.01 354.47 157.03 354.38 157.1 354.29C157.07 353.53 157.07 352.78 157.05 352.05C157.05 352.01 157.05 351.82 157.05 351.47C156.94 351.39 156.88 351.35 156.87 351.34C156.73 351.22 156.66 351.06 156.73 350.88C156.78 350.72 156.91 350.63 157.05 350.61C156.89 342.35 156.82 334.03 156.87 325.92C156.78 325.85 156.73 325.76 156.73 325.65C156.73 325.53 156.78 325.42 156.87 325.33C156.87 322.86 156.89 320.62 156.91 318.45C156.9 318.44 156.77 318.36 156.75 318.35C155.66 318.35 154.54 318.38 153.44 318.38C150.65 318.38 147.84 318.35 145.05 318.31C145.01 323.53 144.68 365.29 144.64 370.51C144.71 370.54 144.78 370.56 144.82 370.58C145.2 370.6 148.2 370.75 148.57 370.77C148.69 370.58 148.89 370.54 149.05 370.67C149.06 370.68 149.12 370.73 149.23 370.81C153.83 371.03 156.38 371.15 156.89 371.18ZM166.4 367.59C163.82 365.33 161.1 363.15 158.33 361.07C158.33 361.07 158.32 361.07 158.31 361.05C158.31 361.02 158.31 361.01 158.31 361.01C158.29 360.5 158.29 359.98 158.26 359.47C158.26 359.41 158.25 359.08 158.24 358.49C158.31 358.55 158.35 358.58 158.35 358.58C158.61 358.74 158.83 358.93 159.06 359.11C159.25 359.25 159.41 359.36 159.52 359.45C160.27 359.95 161.1 360.5 162.06 361.17C163.5 362.15 164.96 363.22 166.56 364.41C166.56 364.41 166.57 364.42 166.58 364.43C166.57 365 166.56 365.31 166.56 365.37C166.54 366.1 166.54 366.81 166.51 367.54C166.51 367.55 166.51 367.61 166.51 367.7C166.45 367.63 166.41 367.6 166.4 367.59ZM166.38 367.36C166.4 366.7 166.4 366.03 166.42 365.37C166.43 365.28 166.44 364.59 166.45 364.5C164.87 363.31 163.41 362.26 161.97 361.28C161.01 360.62 160.18 360.07 159.43 359.57C159.31 359.5 159.15 359.36 158.97 359.22C158.79 359.09 158.61 358.93 158.4 358.79C158.4 358.86 158.42 359.41 158.42 359.47C158.42 359.98 158.45 360.48 158.45 360.98C161.17 363.02 163.84 365.17 166.38 367.36ZM166.49 363.77C164.98 362.65 163.45 361.55 161.97 360.53C161.21 360 160.41 359.47 159.43 358.83C159.29 358.74 159.13 358.63 158.97 358.49C158.77 358.33 158.51 358.15 158.26 357.99C158.26 357.99 158.24 357.98 158.22 357.97C158.22 357.94 158.22 357.92 158.22 357.92C158.19 357.37 158.19 356.85 158.17 356.3C158.17 356.23 158.16 355.91 158.15 355.34C163.1 358.74 165.85 360.63 166.4 361.01C166.45 361.03 166.49 361.05 166.54 361.05C166.54 361.05 166.57 361.04 166.63 361.03C166.61 361.59 166.61 361.9 166.61 361.97C166.61 362.54 166.58 363.13 166.58 363.7C166.58 363.71 166.59 363.77 166.61 363.86C166.54 363.81 166.5 363.78 166.49 363.77ZM159.06 358.38C159.22 358.49 159.38 358.63 159.52 358.7C160.5 359.34 161.33 359.89 162.06 360.39C163.52 361.39 165.01 362.47 166.47 363.54C166.47 363.02 166.49 362.49 166.49 361.94C166.49 361.87 166.49 361.24 166.49 361.17C166.45 361.17 166.38 361.14 166.33 361.1C165.8 360.73 163.13 358.89 158.33 355.59C158.35 355.99 158.35 356.21 158.35 356.25C158.35 356.82 158.35 357.35 158.38 357.9C158.61 358.03 158.86 358.22 159.06 358.38ZM158.15 354.79C158.15 354.76 158.15 354.75 158.15 354.74C158.13 354.13 158.13 353.51 158.1 352.89C158.1 352.83 158.09 352.53 158.08 352L166.65 358.17C166.65 358.65 166.65 358.92 166.65 358.97C166.65 359.47 166.65 359.95 166.63 360.46C166.63 360.47 166.64 360.53 166.65 360.64L158.15 354.79ZM166.51 360.34C166.51 359.89 166.51 359.45 166.54 358.99C166.54 358.95 166.54 358.7 166.54 358.26L158.26 352.3C158.28 352.64 158.28 352.83 158.29 352.87C158.26 353.49 158.29 354.1 158.31 354.7C159.95 355.83 165.69 359.78 166.51 360.34ZM158.08 351.45C158.08 351.42 158.08 351.41 158.08 351.41C158.08 350.83 158.06 350.29 158.06 349.71C158.06 349.66 158.05 349.39 158.03 348.91L166.7 354.9C166.7 355.33 166.7 355.56 166.7 355.61C166.7 356.25 166.7 356.89 166.67 357.51C166.67 357.52 166.67 357.56 166.67 357.65L158.08 351.45ZM166.54 357.35C166.54 356.75 166.54 356.18 166.54 355.59C166.54 355.55 166.54 355.34 166.54 354.97L158.19 349.21C158.19 349.53 158.19 349.7 158.19 349.74C158.22 350.26 158.22 350.81 158.24 351.36C159.9 352.56 165.71 356.75 166.54 357.35ZM160.43 350.01C160.39 349.97 160.25 349.9 160.09 349.81C159.29 349.33 158.42 348.78 158.19 348.46C158.19 348.45 158.19 348.44 158.17 348.41C158.19 348.38 158.19 348.37 158.19 348.37C158.24 348.3 158.26 348.21 158.22 348.11C158.19 348.07 158.15 348 158.06 348C158.05 348 158.03 348 157.99 348C157.99 347.96 157.99 347.94 157.99 347.93C157.97 347.15 157.97 346.35 157.94 345.58C157.94 345.55 157.94 345.43 157.94 345.21C158.01 345.27 158.05 345.3 158.06 345.3C160.96 347.31 163.82 349.44 166.51 351.66C166.54 351.68 166.58 351.7 166.61 351.7C166.61 351.7 166.62 351.71 166.65 351.73C166.65 352.11 166.65 352.32 166.65 352.37C166.65 352.98 166.65 353.6 166.65 354.22C166.65 354.22 166.67 354.26 166.7 354.33C162.94 351.74 160.85 350.3 160.43 350.01ZM160.16 349.67C160.32 349.76 160.46 349.85 160.5 349.87C161.11 350.29 165.93 353.62 166.54 354.03C166.54 353.46 166.54 352.91 166.54 352.34C166.54 352.29 166.54 351.87 166.54 351.82C166.51 351.79 166.47 351.79 166.45 351.77C163.77 349.6 160.98 347.5 158.13 345.51C158.13 345.52 158.13 345.57 158.13 345.58C158.13 346.33 158.15 347.11 158.17 347.86C158.26 347.89 158.35 347.95 158.38 348.07C158.42 348.18 158.42 348.3 158.35 348.41C158.63 348.73 159.66 349.37 160.16 349.67ZM166.58 351.09C163.82 348.85 160.91 346.67 158.01 344.69C158.01 344.68 158 344.68 157.99 344.66C157.99 344.64 157.99 344.62 157.99 344.62C157.99 344.14 157.97 343.66 157.97 343.15C157.97 343.09 157.97 342.75 157.97 342.15C157.99 342.13 158.01 342.13 158.01 342.13C158.06 342.1 158.1 342.06 158.1 341.99C158.11 341.99 158.17 342 158.26 342.01L158.26 342.01C158.26 342.01 158.26 342.01 158.26 342.01C158.26 342.01 158.26 342.01 158.26 342.01C158.24 342.22 159.43 342.97 159.82 343.2C159.98 343.29 160.09 343.36 160.14 343.41C160.57 343.72 162.76 345.26 166.7 348.05C166.7 348.07 166.7 348.09 166.7 348.09C166.7 349.07 166.7 350.06 166.7 351.04C166.7 351.05 166.7 351.09 166.7 351.18C166.63 351.12 166.59 351.09 166.58 351.09ZM166.56 350.86C166.56 349.94 166.56 349.03 166.56 348.11C165.91 347.65 160.7 343.98 160.05 343.52C160 343.47 159.89 343.41 159.73 343.31C158.9 342.81 158.35 342.45 158.17 342.17C158.15 342.19 158.13 342.22 158.1 342.22C158.1 342.31 158.1 343.04 158.1 343.13C158.1 343.63 158.1 344.09 158.13 344.57C161.01 346.54 163.84 348.66 166.56 350.86ZM159.36 342.33C159.27 342.26 159.15 342.17 159.06 342.1C158.72 341.83 158.4 341.58 158.01 341.58C158.01 341.58 157.98 341.58 157.94 341.58C157.94 341.54 157.94 341.51 157.94 341.51C157.94 341.01 157.94 340.5 157.92 339.98C157.92 339.91 157.92 339.55 157.92 338.9C162.4 341.87 164.9 343.51 165.39 343.84C165.51 343.91 165.65 344.02 165.78 344.14C166.03 344.34 166.33 344.57 166.63 344.69C166.63 344.69 166.65 344.69 166.67 344.71C166.67 344.74 166.67 344.75 166.67 344.75C166.67 345.62 166.7 346.49 166.7 347.36C166.7 347.37 166.7 347.41 166.7 347.5C162.29 344.4 159.85 342.68 159.36 342.33ZM159.15 341.97C159.25 342.03 159.36 342.13 159.45 342.19C160.16 342.69 165.83 346.7 166.54 347.2C166.54 346.4 166.54 345.6 166.51 344.8C166.22 344.66 165.92 344.43 165.67 344.25C165.53 344.14 165.42 344.05 165.3 343.98C164.82 343.66 162.4 342.07 158.06 339.2C158.06 339.67 158.06 339.93 158.06 339.98C158.08 340.46 158.08 340.94 158.08 341.42C158.49 341.44 158.81 341.71 159.15 341.97ZM166.56 344.09C166.4 344 166.24 343.86 166.13 343.77C166.06 343.73 165.99 343.68 165.97 343.66C165.43 343.3 162.75 341.54 157.92 338.35C157.92 338.33 157.92 338.31 157.92 338.31C157.92 337.85 157.92 337.37 157.92 336.91C157.92 336.85 157.92 336.52 157.92 335.93C157.99 335.99 158.03 336.02 158.03 336.02C160.82 337.94 163.73 339.84 166.63 341.6C166.63 341.6 166.65 341.61 166.67 341.62C166.69 342.16 166.7 342.45 166.7 342.51C166.7 343.02 166.72 343.52 166.72 344.02C166.72 344.03 166.7 344.08 166.67 344.16C166.61 344.12 166.57 344.1 166.56 344.09ZM166.03 343.52C166.08 343.54 166.15 343.59 166.22 343.66C166.31 343.73 166.42 343.82 166.54 343.89C166.54 343.43 166.54 342.97 166.51 342.51C166.51 342.43 166.51 341.79 166.51 341.71C163.66 339.98 160.82 338.13 158.08 336.23C158.08 336.3 158.08 336.85 158.08 336.91C158.06 337.37 158.06 337.83 158.06 338.26C159.65 339.31 165.24 342.99 166.03 343.52ZM166.51 341.01C163.59 339.2 160.69 337.33 157.92 335.41C157.92 335.4 157.91 335.4 157.9 335.38C157.9 335.36 157.9 335.34 157.9 335.34C157.9 334.7 157.9 334.06 157.9 333.42C157.9 333.37 157.9 333.12 157.9 332.69C157.97 332.74 158 332.77 158.01 332.78C160.75 334.72 163.61 336.57 166.49 338.29C166.49 338.29 166.51 338.29 166.54 338.31C166.54 338.34 166.54 338.35 166.54 338.35C166.54 338.42 166.56 338.47 166.58 338.51C166.58 338.52 166.59 338.52 166.61 338.54C166.62 339 166.63 339.26 166.63 339.31C166.63 339.86 166.65 340.39 166.65 340.94C166.65 340.95 166.64 340.99 166.63 341.07C166.56 341.03 166.52 341.01 166.51 341.01ZM166.47 340.82C166.47 340.32 166.45 339.84 166.45 339.34C166.44 339.27 166.43 338.7 166.42 338.63C166.38 338.56 166.35 338.49 166.35 338.42C163.52 336.73 160.71 334.9 158.01 333.01C158.01 333.05 158.01 333.4 158.01 333.44C158.03 334.06 158.03 334.67 158.03 335.31C160.75 337.19 163.59 339.04 166.47 340.82ZM166.47 337.76C163.57 336.02 160.71 334.17 157.99 332.21C157.97 332.18 157.94 332.18 157.92 332.18C157.92 332.18 157.9 332.17 157.87 332.16C157.87 332.13 157.87 332.12 157.87 332.11C157.87 331.18 157.87 330.22 157.87 329.28C157.87 329.27 157.87 329.23 157.87 329.17C157.94 329.19 157.98 329.21 157.99 329.21C158.4 329.42 158.86 329.83 159.25 330.15C159.43 330.31 159.59 330.42 159.68 330.51C160.14 330.84 162.42 332.49 166.54 335.45C166.54 335.77 166.54 335.94 166.54 335.98C166.56 336.55 166.56 337.12 166.56 337.69C166.56 337.7 166.57 337.75 166.58 337.83C166.51 337.79 166.48 337.76 166.47 337.76ZM158.08 332.09C160.78 334.01 163.59 335.86 166.42 337.55C166.42 337.03 166.4 336.5 166.4 335.98C166.4 335.95 166.4 335.79 166.4 335.52C162.31 332.59 160.04 330.95 159.59 330.63C159.47 330.54 159.31 330.42 159.13 330.26C158.79 329.97 158.38 329.62 158.03 329.42C158.01 330.29 158.01 331.18 158.03 332.07C158.06 332.07 158.06 332.09 158.08 332.09ZM159.57 329.87C159.43 329.78 159.27 329.65 159.11 329.51C158.74 329.19 158.33 328.85 157.92 328.69C157.92 328.68 157.9 328.68 157.87 328.66C157.87 328.64 157.87 328.62 157.87 328.62C157.87 328.18 157.87 327.75 157.87 327.29C157.87 327.23 157.87 326.93 157.87 326.38C160.1 327.78 161.33 328.55 161.58 328.71C161.76 328.82 161.94 328.94 162.1 329.05C163.34 329.83 164.62 330.63 165.67 331.7C165.78 331.82 165.97 331.77 166.03 331.61C166.06 331.57 166.08 331.47 165.99 331.38C164.96 330.31 163.68 329.51 162.45 328.73C162.14 328.54 160.62 327.58 157.87 325.85C157.87 325.82 157.87 325.81 157.87 325.81C157.87 325.35 157.87 324.89 157.87 324.43C157.87 324.39 157.87 324.15 157.87 323.73L166.35 328.98C166.35 329.01 166.35 329.03 166.35 329.03C166.4 330.9 166.47 332.82 166.49 334.74C166.49 334.75 166.5 334.8 166.51 334.88C162.35 331.88 160.03 330.21 159.57 329.87ZM159.2 329.39C159.36 329.53 159.52 329.67 159.66 329.76C160.33 330.24 165.68 334.1 166.35 334.58C166.31 332.73 166.26 330.88 166.22 329.07C165.67 328.74 162.94 327.04 158.03 324C158.03 324.26 158.03 324.41 158.03 324.43C158.03 324.87 158.03 325.33 158.03 325.76C158.48 326.04 162.09 328.31 162.54 328.59C163.77 329.37 165.07 330.17 166.13 331.27C166.24 331.38 166.26 331.52 166.19 331.68C166.13 331.82 165.99 331.93 165.83 331.93C165.74 331.93 165.65 331.89 165.58 331.82C164.55 330.77 163.27 329.97 162.03 329.19C161.85 329.07 161.67 328.96 161.51 328.85C161.28 328.7 160.12 327.97 158.03 326.65C158.03 327.04 158.03 327.25 158.03 327.29C158.01 327.73 158.01 328.14 158.01 328.57C158.42 328.73 158.83 329.1 159.2 329.39ZM157.9 323.2C157.9 323.17 157.9 323.16 157.9 323.15C157.9 322.83 157.9 322.51 157.9 322.19C157.9 322.14 157.9 321.86 157.9 321.35L166.29 326.06C166.29 326.08 166.29 326.1 166.29 326.1C166.31 326.83 166.33 327.57 166.35 328.3C166.35 328.31 166.35 328.35 166.35 328.43L157.9 323.2ZM166.19 328.16C166.17 327.5 166.15 326.83 166.13 326.15C165.59 325.85 162.9 324.33 158.06 321.6C158.06 321.96 158.06 322.15 158.06 322.19C158.03 322.51 158.03 322.81 158.03 323.11C159.67 324.12 165.38 327.65 166.19 328.16ZM157.9 320.82C157.9 320.4 157.9 320.16 157.9 320.11C157.9 319.7 157.9 319.31 157.9 318.9C157.9 318.9 157.9 318.86 157.9 318.79L166.15 322.93C166.15 322.95 166.15 322.97 166.15 322.97C166.17 323.77 166.22 324.59 166.24 325.39C166.24 325.4 166.25 325.45 166.26 325.53L157.9 320.82ZM166.1 325.28C166.08 324.53 166.06 323.79 166.01 323.04C165.22 322.64 158.85 319.44 158.06 319.04C158.06 319.41 158.06 319.77 158.06 320.14C158.06 320.18 158.06 320.38 158.06 320.75C162.88 323.47 165.57 324.98 166.1 325.28Z" id="e29t2BZxtl"></path></defs><g><g><g><use xlink:href="#c7fiEgQMQ" opacity="1" fill="#000000" fill-opacity="1"></use><g><use xlink:href="#c7fiEgQMQ" opacity="1" fill-opacity="0" stroke="#000000" stroke-width="1" stroke-opacity="0"></use></g></g><g><use xlink:href="#e29t2BZxtl" opacity="1" fill="#180f0b" fill-opacity="1"></use><g><use xlink:href="#e29t2BZxtl" opacity="1" fill-opacity="0" stroke="#000000" stroke-width="1" stroke-opacity="0"></use></g></g></g></g></svg>