<?xml version="1.0" encoding="UTF-8" standalone="no"?>
<!DOCTYPE svg PUBLIC "-//W3C//DTD SVG 1.1//EN" "http://www.w3.org/Graphics/SVG/1.1/DTD/svg11.dtd">
<svg version="1.1" xmlns="http://www.w3.org/2000/svg" xmlns:xlink="http://www.w3.org/1999/xlink" preserveAspectRatio="xMidYMid meet" viewBox="191.11024569235445 315.33714285714285 40.95494892260089 74.60571428571427" width="40.95" height="74.61"><defs><path d="M231.43 370.24C231.57 368.75 231.66 367.29 231.73 365.83C232.11 356.94 232 348.05 231.38 339.15C231.52 339.06 231.57 338.86 231.41 338.72C231.38 338.7 231.36 338.7 231.34 338.67C231.27 337.76 231.2 336.85 231.13 335.95C231.29 335.86 231.38 335.66 231.2 335.5C231.15 335.47 231.13 335.43 231.09 335.41C230.74 331.22 230.29 327.04 229.71 322.88C229.76 322.74 229.74 322.58 229.67 322.45C229.65 322.33 229.65 322.22 229.62 322.13C229.58 321.71 229.17 321.69 228.89 321.85C227.91 321.17 226.93 320.46 225.94 319.77C225.39 319.38 224.87 319.02 224.32 318.63C224.23 318.56 223.68 318.22 223.2 317.9C223.63 317.76 223.57 316.96 222.99 316.89C222.79 316.87 222.58 316.85 222.4 316.82C222.29 316.71 222.13 316.66 221.94 316.69C221.93 316.69 221.84 316.71 221.83 316.71C221.78 316.71 221.76 316.73 221.71 316.75C217.81 316.3 213.87 315.98 209.92 315.79C209.78 315.25 208.87 315.27 208.94 315.89C209.99 327.18 210.56 338.51 210.63 349.85C210.65 352.66 210.63 355.45 210.61 358.26C210.56 361.1 210.67 364.05 210.22 366.83C209.83 369.14 208.59 371.5 206.26 372.3C203.66 373.19 201.12 371.02 199.45 369.33C199.25 369.12 198.95 369.14 198.74 369.33C197.58 370.4 196.41 371.5 195.25 372.57C194.08 373.65 192.78 374.67 191.77 375.91C190.1 378.01 192.34 380.21 193.97 381.42C194.45 381.78 194.95 382.13 195.47 382.45C201.1 387.95 208.8 391.18 216.82 389.35C218.58 388.96 220.27 388.3 221.85 387.43C221.87 387.45 221.9 387.45 221.92 387.47C222.19 387.7 222.58 387.34 222.4 387.11C224.73 385.69 226.72 383.77 228.18 381.42C230.13 378.26 230.97 374.61 231.38 370.93C231.7 371.11 232 370.58 231.66 370.38C231.59 370.33 231.5 370.29 231.43 370.24ZM224.59 348.66C224.57 347.91 224.55 347.18 224.53 346.42C226.56 348.25 228.69 349.99 230.88 351.66C230.9 352.18 230.9 352.73 230.9 353.26C228.82 351.68 226.72 350.15 224.59 348.66ZM224.53 345.6C224.5 344.82 224.48 344.07 224.46 343.29C226.49 345.19 228.55 347.04 230.65 348.85C230.72 348.89 230.79 348.91 230.86 348.91C230.83 349.58 230.86 350.24 230.88 350.9C228.69 349.23 226.56 347.45 224.53 345.6ZM230.42 347.86C228.39 346.1 226.38 344.3 224.41 342.45C224.37 341.35 224.32 340.23 224.27 339.13C225.42 339.82 226.4 341.1 227.31 341.97C228.43 343.04 229.58 344.14 230.7 345.21C230.72 346.06 230.77 346.93 230.79 347.77C230.65 347.68 230.51 347.75 230.42 347.86ZM227.45 341.26C226.47 340.32 225.49 339.06 224.23 338.42C224.21 337.69 224.16 336.96 224.11 336.21C226.4 338.01 228.48 340.07 230.51 342.15C230.58 342.88 230.63 343.61 230.65 344.32C229.58 343.29 228.53 342.26 227.45 341.26ZM224.09 335.43C224.07 334.81 224.02 334.19 223.98 333.6C224.02 333.58 224.07 333.53 224.11 333.49C226.17 335.2 228.25 336.91 230.31 338.63C230.38 339.5 230.45 340.37 230.49 341.26C228.46 339.2 226.4 337.19 224.09 335.43ZM223.93 332.53C223.89 331.75 223.84 330.99 223.79 330.22C225.9 331.93 227.98 333.65 230.08 335.36C230.13 336.16 230.19 336.98 230.26 337.78C228.16 336.02 226.03 334.26 223.93 332.53ZM230.01 334.51C227.93 332.8 225.83 331.09 223.75 329.39C223.68 328.39 223.61 327.36 223.54 326.35C223.57 326.35 223.59 326.33 223.61 326.33C225.67 327.73 227.63 329.26 229.49 330.93C229.46 331.04 229.51 331.13 229.65 331.2C229.65 331.2 229.67 331.2 229.69 331.22C229.81 332.32 229.9 333.42 230.01 334.51ZM229.58 330.22C227.66 328.5 225.62 326.95 223.47 325.51C223.41 324.66 223.36 323.84 223.29 322.99C225.3 324.82 227.34 326.63 229.35 328.46C229.37 328.48 229.39 328.48 229.39 328.5C229.46 329.07 229.51 329.65 229.58 330.22ZM223.22 322.1C223.2 321.74 223.15 321.37 223.13 321.01C224.94 322.49 226.72 323.95 228.53 325.44C228.71 325.58 228.94 325.49 229.03 325.33C229.12 326.08 229.21 326.83 229.3 327.59C227.27 325.76 225.26 323.93 223.22 322.1ZM228.73 322.99C228.82 323.68 228.91 324.37 229.01 325.05C229.01 325.05 228.98 325.03 228.98 325.03C227.06 323.45 225.14 321.87 223.22 320.3C223.18 320.27 223.13 320.25 223.11 320.23C223.09 319.82 223.04 319.43 223.02 319.02C223.38 319.27 223.82 319.52 224.14 319.75C225.67 320.82 227.2 321.92 228.73 322.99ZM192.3 377.07C192.32 376.98 192.37 376.89 192.41 376.78C192.66 376.25 193.21 375.84 193.65 375.45C195.45 373.76 197.28 372.07 199.09 370.38C200.64 371.89 202.4 373.17 204.59 373.46C206.81 373.76 208.75 372.3 209.92 370.56C211.31 368.5 211.45 365.81 211.52 363.41C211.61 360.23 211.66 357.03 211.68 353.85C211.73 341.49 211.18 329.12 210.06 316.8C213.92 316.98 217.76 317.3 221.58 317.74C221.62 317.83 221.69 317.92 221.78 318.03C221.83 318.08 221.87 318.13 221.92 318.17C223.02 331.25 223.61 344.37 223.68 357.51C223.7 363.54 223.84 369.97 220.75 375.38C218.15 379.95 213.44 383.13 208.27 384.02C206.7 384.3 205.07 384.32 203.5 384.14C203.47 384.11 203.47 384.11 203.45 384.09C203.31 383.98 203.18 384 203.06 384.07C200.62 383.73 198.22 382.86 196.11 381.58C194.7 380.25 193.46 378.74 192.39 377.17C192.37 377.12 192.34 377.1 192.3 377.07ZM203.68 385.19C204.91 386.31 206.22 387.36 207.54 388.32C204.43 387.54 201.51 386.06 198.93 384.11C200.46 384.66 202.06 385.03 203.68 385.19ZM208.25 388.09C206.99 387.2 205.81 386.24 204.64 385.23C205.62 385.28 206.61 385.26 207.59 385.14C208.89 386.42 210.26 387.66 211.63 388.87C210.54 388.85 209.44 388.71 208.34 388.5C208.41 388.37 208.39 388.21 208.25 388.09ZM208.37 385.05C208.41 385.05 208.46 385.03 208.5 385.03C209.01 384.96 209.49 384.85 209.97 384.73C211.57 386.06 213.17 387.38 214.74 388.71C214.03 388.82 213.3 388.87 212.57 388.89C211.13 387.66 209.74 386.38 208.37 385.05ZM215.57 388.57C215.08 388.17 211.18 384.93 210.7 384.53C211.25 384.37 211.79 384.16 212.32 383.95C212.46 383.98 212.55 383.91 212.62 383.82C212.64 383.82 212.64 383.82 212.66 383.79C212.75 383.98 212.91 384.14 213.1 384.25C213.3 384.41 213.51 384.59 213.69 384.75C214.19 385.17 214.7 385.58 215.2 386.01C216.02 386.7 216.85 387.38 217.69 388.07C217.21 388.21 216.75 388.34 216.27 388.43C216.05 388.48 215.79 388.53 215.57 388.57ZM218.35 387.84C217.9 387.47 214.26 384.47 213.81 384.09C213.74 384.05 213.49 383.79 213.17 383.59C213.9 383.25 214.63 382.83 215.31 382.4C217.19 383.84 219.06 385.3 220.94 386.74C220.11 387.15 219.25 387.54 218.35 387.84C218.35 387.84 218.35 387.84 218.35 387.84ZM215.86 382.03C216.5 381.6 217.12 381.1 217.71 380.59C219.68 382.03 221.6 383.54 223.47 385.12C223.47 385.12 223.47 385.12 223.47 385.12C222.86 385.6 222.22 386.03 221.53 386.42C219.63 384.96 217.76 383.5 215.86 382.03ZM218.17 380.18C218.54 379.84 218.9 379.47 219.25 379.09C219.27 379.06 219.29 379.06 219.29 379.04C219.77 379.18 220.66 380.11 220.98 380.37C221.49 380.75 221.97 381.17 222.45 381.6C223.29 382.33 224.11 383.11 224.94 383.89C224.62 384.18 224.3 384.48 223.98 384.75C223.93 384.73 223.93 384.71 223.91 384.69C222.03 383.11 220.14 381.62 218.17 380.18ZM225.39 383.29C225.3 383.15 225.19 383.13 225.07 383.15C224.07 382.19 223.04 381.28 221.99 380.39C221.39 379.89 220.78 379.38 220.14 378.9C219.98 378.79 219.82 378.65 219.68 378.54C219.95 378.22 220.21 377.9 220.46 377.58C221.04 378.04 225.72 381.75 226.31 382.22C226.31 382.22 226.33 382.22 226.33 382.24C226.06 382.65 225.76 382.99 225.42 383.34C225.42 383.31 225.39 383.31 225.39 383.29ZM226.33 381.03C226.17 380.85 225.94 380.94 225.85 381.12C224.18 379.79 222.49 378.47 220.82 377.12C221.23 376.53 221.62 375.91 221.97 375.27C223.86 376.91 225.83 378.49 227.84 379.98C227.52 380.59 227.15 381.17 226.77 381.71C226.67 381.46 226.54 381.26 226.33 381.03ZM222.24 374.72C222.49 374.22 222.7 373.69 222.9 373.17C224.91 374.56 226.86 376.05 228.75 377.62C228.78 377.65 228.82 377.67 228.85 377.67C228.62 378.24 228.39 378.83 228.11 379.43C226.1 377.94 224.14 376.37 222.24 374.72ZM223.11 372.55C223.34 371.89 223.52 371.22 223.68 370.56C225.65 372.09 227.61 373.62 229.58 375.15C229.58 375.15 229.6 375.15 229.6 375.18C229.44 375.82 229.26 376.43 229.05 377.05C227.13 375.47 225.14 373.97 223.11 372.55ZM223.89 369.97C223.86 369.97 223.86 369.94 223.84 369.94C223.93 369.55 224 369.17 224.07 368.78C226.17 369.99 228.18 371.31 230.1 372.82C229.99 373.37 229.87 373.97 229.76 374.54C227.79 373.01 225.85 371.47 223.89 369.97ZM224.16 368.11C224.23 367.61 224.3 367.13 224.34 366.63C226.35 367.86 228.39 369.1 230.4 370.33C230.35 370.93 230.29 371.52 230.19 372.11C228.27 370.63 226.26 369.3 224.16 368.11ZM224.62 366.08C224.55 366.03 224.48 366.03 224.41 366.03C224.48 365.37 224.53 364.71 224.55 364.05C226.56 365.39 228.59 366.72 230.61 368.07C230.58 368.62 230.54 369.14 230.49 369.67C228.53 368.48 226.58 367.27 224.62 366.08ZM224.59 363.36C224.62 362.72 224.64 362.08 224.64 361.44C225.74 362.22 229.83 365.03 230.72 365.65C230.72 366.22 230.7 366.79 230.65 367.38C228.64 366.03 226.61 364.69 224.59 363.36ZM226.47 361.87C226.15 361.65 225.35 360.85 224.66 360.64C224.66 359.79 224.69 358.93 224.69 358.08C225.74 358.72 226.65 359.63 227.59 360.39C228.66 361.26 229.74 362.13 230.81 362.99C230.81 363.63 230.79 364.27 230.77 364.91C229.91 364.31 226.9 362.18 226.47 361.87ZM227.7 359.73C226.74 358.95 225.78 358.01 224.69 357.39C224.69 356.62 224.69 355.86 224.69 355.09C226.74 356.8 228.82 358.54 230.88 360.25C230.88 360.94 230.86 361.6 230.83 362.26C229.78 361.42 228.75 360.57 227.7 359.73ZM224.69 354.31C224.69 353.62 224.69 352.96 224.66 352.27C226.88 353.46 228.96 354.86 230.93 356.43C230.93 356.43 230.93 356.43 230.93 356.43C230.93 357.46 230.9 358.49 230.9 359.5C228.82 357.76 226.77 356.05 224.69 354.31ZM224.59 349.42C226.72 350.9 228.82 352.43 230.9 354.01C230.9 354.56 230.9 355.13 230.9 355.68C228.96 354.13 226.86 352.75 224.64 351.59C224.64 350.86 224.62 350.15 224.59 349.42Z" id="e2zJ5gjCUi"></path><path d="M195.41 382.49C194.9 382.17 194.4 381.83 193.92 381.49C192.21 380.21 191.27 378.95 191.13 377.81C191.04 377.12 191.25 376.48 191.73 375.86C192.43 374.97 193.33 374.17 194.19 373.42C194.54 373.12 194.88 372.82 195.2 372.53C195.55 372.2 198.35 369.6 198.7 369.28C198.93 369.07 199.29 369.07 199.52 369.28C200.87 370.63 202.9 372.43 205.05 372.43C205.46 372.43 205.87 372.37 206.26 372.23C208.25 371.54 209.71 369.53 210.15 366.83C210.51 364.62 210.51 362.31 210.54 360.07C210.54 359.47 210.54 358.86 210.56 358.26C210.61 355.31 210.61 352.57 210.58 349.85C210.49 338.56 209.92 327.13 208.89 315.89C208.87 315.73 208.91 315.59 209.01 315.5C209.1 315.38 209.26 315.34 209.42 315.34C209.65 315.34 209.92 315.45 210.01 315.73C213.9 315.91 217.85 316.25 221.71 316.69C221.76 316.66 221.78 316.66 221.83 316.64C221.84 316.64 221.93 316.62 221.94 316.62C222.13 316.59 222.31 316.64 222.45 316.75C222.47 316.76 222.63 316.77 222.65 316.78C222.77 316.8 222.9 316.8 223.02 316.82C223.36 316.87 223.54 317.14 223.57 317.42C223.59 317.62 223.5 317.81 223.36 317.92C223.59 318.08 223.82 318.22 224 318.33C224.18 318.45 224.32 318.54 224.37 318.56C224.82 318.88 228.44 321.44 228.89 321.76C228.98 321.71 229.1 321.67 229.21 321.67C229.46 321.67 229.65 321.83 229.69 322.1C229.7 322.13 229.73 322.39 229.74 322.42C229.83 322.56 229.83 322.72 229.81 322.88C230.35 326.99 230.81 331.2 231.18 335.36C231.19 335.37 231.26 335.42 231.27 335.43C231.36 335.5 231.41 335.61 231.41 335.7C231.41 335.82 231.34 335.91 231.25 335.98C231.34 337.01 231.38 337.85 231.45 338.63C231.45 338.63 231.47 338.65 231.47 338.65C231.59 338.74 231.61 338.83 231.61 338.9C231.61 338.99 231.57 339.09 231.5 339.15C232.11 348.09 232.23 357.07 231.84 365.78C231.79 367.06 231.7 368.57 231.57 370.15C231.58 370.16 231.73 370.25 231.75 370.26C231.91 370.35 231.95 370.51 231.91 370.67C231.86 370.83 231.7 370.97 231.54 370.97C231.54 370.97 231.54 370.97 231.54 370.97C231.52 370.97 231.5 370.97 231.45 370.97C230.95 375.38 229.94 378.7 228.25 381.39C226.83 383.66 224.87 385.62 222.51 387.06C222.54 387.15 222.54 387.22 222.49 387.31C222.42 387.45 222.26 387.54 222.1 387.54C222.01 387.54 221.94 387.52 221.85 387.45C221.85 387.45 221.83 387.43 221.83 387.43C220.27 388.3 218.58 388.94 216.82 389.33C215.34 389.76 213.81 389.94 212.3 389.94C206.31 389.94 200.3 387.29 195.41 382.49ZM198.79 369.37C198.44 369.7 195.64 372.29 195.29 372.62C194.97 372.91 194.63 373.23 194.29 373.51C193.42 374.26 192.55 375.04 191.84 375.93C191.38 376.5 191.2 377.12 191.27 377.76C191.41 378.88 192.32 380.09 194.01 381.35C194.49 381.71 194.99 382.06 195.5 382.35C200.37 387.13 206.33 389.76 212.27 389.76C213.78 389.76 215.29 389.6 216.8 389.26C218.56 388.87 220.23 388.21 221.81 387.34C221.81 387.34 221.82 387.33 221.85 387.31C221.92 387.36 221.96 387.38 221.97 387.38C222.1 387.47 222.29 387.43 222.35 387.29C222.38 387.25 222.4 387.18 222.33 387.13C222.33 387.13 222.31 387.1 222.29 387.06C222.33 387.04 222.35 387.02 222.35 387.02C224.71 385.58 226.7 383.63 228.11 381.35C229.81 378.63 230.81 375.31 231.29 370.88C231.29 370.87 231.3 370.83 231.31 370.77C231.37 370.81 231.4 370.83 231.41 370.83C231.45 370.86 231.47 370.86 231.52 370.86C231.52 370.86 231.52 370.86 231.52 370.86C231.63 370.86 231.7 370.77 231.73 370.67C231.75 370.63 231.75 370.51 231.63 370.42C231.62 370.41 231.52 370.36 231.36 370.26C231.36 370.24 231.36 370.22 231.36 370.22C231.52 368.64 231.59 367.11 231.66 365.81C232.05 357.07 231.93 348.09 231.31 339.15C231.31 339.15 231.31 339.14 231.31 339.11C231.33 339.09 231.34 339.09 231.34 339.09C231.41 339.04 231.43 338.97 231.43 338.93C231.43 338.88 231.41 338.83 231.36 338.79C231.35 338.78 231.32 338.76 231.27 338.72C231.27 338.71 231.27 338.7 231.27 338.7C231.22 337.9 231.15 337.03 231.06 335.98C231.06 335.97 231.06 335.96 231.06 335.93C231.09 335.92 231.11 335.91 231.11 335.91C231.18 335.86 231.22 335.79 231.25 335.73C231.25 335.68 231.22 335.61 231.18 335.57C231.17 335.56 231.12 335.52 231.04 335.45C231.04 335.44 231.04 335.43 231.04 335.43C230.7 331.25 230.24 327.04 229.67 322.93C229.67 322.92 229.67 322.92 229.67 322.9C229.67 322.89 229.67 322.88 229.67 322.88C229.71 322.74 229.69 322.63 229.62 322.51C229.62 322.51 229.62 322.51 229.62 322.49C229.6 322.3 229.58 322.19 229.58 322.17C229.53 321.9 229.33 321.87 229.26 321.87C229.17 321.87 229.05 321.9 228.98 321.97C228.98 321.97 228.96 321.97 228.94 321.99C226.17 320.03 224.63 318.94 224.32 318.72C224.27 318.7 224.14 318.61 223.95 318.49C223.73 318.35 223.45 318.17 223.2 317.99C223.19 317.98 223.15 317.95 223.06 317.9C223.16 317.87 223.21 317.85 223.22 317.85C223.41 317.81 223.47 317.6 223.45 317.44C223.43 317.23 223.29 317.03 223.04 316.98C222.93 316.96 222.79 316.96 222.67 316.94C222.66 316.94 222.57 316.93 222.42 316.91C222.41 316.9 222.4 316.89 222.4 316.89C222.33 316.82 222.19 316.73 222.01 316.78C222 316.78 221.91 316.8 221.9 316.8C221.87 316.8 221.85 316.82 221.81 316.82C221.8 316.82 221.8 316.83 221.78 316.85C221.77 316.85 221.76 316.85 221.76 316.85C217.85 316.39 213.9 316.07 209.99 315.89C209.99 315.89 209.97 315.89 209.94 315.89C209.93 315.86 209.92 315.84 209.92 315.84C209.85 315.61 209.65 315.5 209.46 315.5C209.35 315.5 209.23 315.54 209.17 315.61C209.1 315.68 209.07 315.77 209.07 315.89C210.13 327.13 210.7 338.56 210.77 349.85C210.79 352.55 210.77 355.29 210.74 358.26C210.74 358.86 210.74 359.45 210.72 360.07C210.72 362.31 210.7 364.64 210.33 366.86C209.87 369.62 208.39 371.68 206.33 372.37C205.92 372.5 205.51 372.57 205.07 372.57C202.88 372.57 200.8 370.74 199.43 369.37C199.31 369.3 199.22 369.26 199.11 369.26C198.99 369.26 198.88 369.3 198.79 369.37ZM211.66 388.96C210.56 388.94 209.44 388.8 208.34 388.57C208.34 388.57 208.31 388.56 208.25 388.55C208.28 388.49 208.29 388.46 208.3 388.46C208.34 388.37 208.34 388.23 208.23 388.14C206.99 387.27 205.78 386.31 204.62 385.28C204.61 385.27 204.55 385.23 204.46 385.14C204.58 385.14 204.65 385.14 204.66 385.14C205.65 385.19 206.63 385.17 207.61 385.05C207.61 385.05 207.63 385.05 207.66 385.05C207.67 385.07 207.68 385.07 207.68 385.07C208.98 386.33 210.33 387.59 211.73 388.8C211.73 388.81 211.78 388.86 211.86 388.96C211.74 388.96 211.67 388.96 211.66 388.96ZM211.45 388.8C210.13 387.63 208.82 386.45 207.59 385.23C206.7 385.33 205.78 385.37 204.87 385.33C205.97 386.29 207.13 387.2 208.3 388.02C208.46 388.14 208.48 388.3 208.46 388.43C209.44 388.64 210.45 388.75 211.45 388.8ZM212.55 388.96C211.13 387.73 209.71 386.45 208.32 385.1C208.31 385.09 208.27 385.05 208.21 384.98C208.38 384.96 208.48 384.94 208.5 384.94C208.98 384.87 209.46 384.75 209.97 384.64C209.97 384.64 209.98 384.64 210.01 384.64L214.95 388.75C214.85 388.77 214.8 388.78 214.79 388.78C214.06 388.87 213.33 388.94 212.59 388.96C212.59 388.96 212.58 388.96 212.55 388.96C212.55 388.96 212.55 388.96 212.55 388.96ZM212.62 388.8C213.28 388.78 213.94 388.73 214.58 388.64C214.12 388.26 210.43 385.18 209.97 384.8C209.49 384.94 209.01 385.03 208.55 385.1C209.9 386.38 211.25 387.63 212.62 388.8ZM210.54 384.5C210.62 384.48 210.67 384.46 210.67 384.46C211.2 384.3 211.73 384.11 212.27 383.89C212.28 383.89 212.28 383.89 212.3 383.89C212.31 383.89 212.32 383.89 212.32 383.89C212.41 383.91 212.5 383.86 212.55 383.79C212.55 383.79 212.56 383.79 212.57 383.77L212.69 383.73C212.7 383.77 212.71 383.79 212.71 383.79C212.8 383.98 212.94 384.11 213.12 384.21C213.43 384.46 215 385.76 217.83 388.09C217.75 388.12 217.7 388.13 217.69 388.14C217.21 388.27 216.73 388.41 216.27 388.5C216.07 388.55 215.82 388.59 215.57 388.64C215.56 388.64 215.56 388.65 215.54 388.66L210.54 384.5ZM215.59 388.5C215.84 388.46 216.07 388.41 216.27 388.37C216.69 388.27 217.12 388.16 217.55 388.05C217.11 387.68 213.52 384.71 213.07 384.34C212.91 384.25 212.78 384.11 212.66 383.95C212.57 384.05 212.46 384.07 212.34 384.07C211.82 384.25 211.31 384.43 210.86 384.57C211.8 385.36 215.12 388.11 215.59 388.5ZM207.54 388.39C204.53 387.63 201.62 386.22 198.9 384.16C198.88 384.14 198.74 384.04 198.49 383.86C198.78 383.97 198.94 384.03 198.97 384.05C200.48 384.59 202.08 384.96 203.7 385.12C203.7 385.12 203.71 385.12 203.73 385.12C203.74 385.13 203.75 385.14 203.75 385.14C204.98 386.24 206.29 387.31 207.61 388.27C207.63 388.29 207.73 388.36 207.91 388.48C207.69 388.43 207.57 388.39 207.54 388.39ZM207.18 388.16C205.94 387.25 204.75 386.29 203.63 385.26C202.19 385.1 200.75 384.8 199.36 384.34C201.83 386.15 204.46 387.43 207.18 388.16ZM218.31 387.91C215.55 385.63 214.02 384.37 213.71 384.11C213.6 384.02 213.39 383.84 213.14 383.66C213.14 383.65 213.1 383.63 213.03 383.59C213.1 383.56 213.14 383.55 213.14 383.54C213.87 383.2 214.58 382.81 215.29 382.35C215.29 382.35 215.31 382.35 215.34 382.33L221.07 386.79C221.01 386.82 220.97 386.83 220.96 386.83C220.11 387.27 219.25 387.66 218.35 387.95C218.35 387.95 218.35 387.95 218.33 387.93L218.31 387.91ZM213.81 383.98C213.81 383.98 213.82 384 213.85 384.02C216.55 386.26 218.05 387.5 218.35 387.75C219.18 387.45 220 387.11 220.78 386.7C220.23 386.27 215.84 382.89 215.29 382.47C214.67 382.9 214.01 383.27 213.33 383.59C213.53 383.75 213.71 383.91 213.81 383.98ZM215.73 382.03C215.78 381.99 215.81 381.97 215.82 381.97C216.46 381.53 217.07 381.05 217.65 380.53C217.65 380.52 217.66 380.51 217.69 380.48C217.72 380.51 217.73 380.52 217.74 380.53C219.73 381.99 221.67 383.5 223.5 385.05C223.5 385.06 223.52 385.08 223.57 385.12C223.52 385.16 223.5 385.18 223.5 385.19C222.88 385.67 222.22 386.1 221.53 386.49C221.53 386.49 221.52 386.5 221.51 386.51L215.73 382.03ZM221.53 386.33C222.17 385.97 222.79 385.55 223.36 385.12C221.55 383.59 219.66 382.1 217.71 380.69C217.17 381.17 216.57 381.62 216 382.03C217.11 382.89 220.98 385.9 221.53 386.33ZM223.89 384.78C223.89 384.75 223.86 384.75 223.84 384.73C222.01 383.2 220.09 381.69 218.1 380.23C218.1 380.23 218.08 380.21 218.03 380.18C218.08 380.14 218.1 380.12 218.1 380.11C218.47 379.77 218.81 379.43 219.18 379.04C219.18 379.04 219.2 379.02 219.2 379.02C219.22 379.02 219.22 378.99 219.25 378.99C219.25 378.99 219.25 378.98 219.27 378.95C219.3 378.96 219.31 378.97 219.31 378.97C219.7 379.09 220.27 379.61 220.71 380.02C220.85 380.14 220.96 380.25 221.03 380.32C221.55 380.75 222.06 381.19 222.49 381.55C223.27 382.22 224.09 382.97 224.98 383.84C224.99 383.84 225 383.86 225.03 383.89C225 383.91 224.99 383.93 224.98 383.93C224.64 384.27 224.32 384.55 224 384.82C224 384.82 223.97 384.83 223.93 384.85C223.9 384.8 223.89 384.78 223.89 384.78ZM223.95 384.62C223.95 384.62 223.95 384.62 223.95 384.62C224.23 384.39 224.5 384.14 224.8 383.84C223.93 382.99 223.13 382.26 222.38 381.62C221.94 381.26 221.44 380.82 220.91 380.41C220.85 380.34 220.71 380.25 220.59 380.11C220.23 379.77 219.66 379.25 219.31 379.13C219.31 379.13 219.29 379.15 219.29 379.15C218.95 379.52 218.61 379.86 218.29 380.16C220.25 381.6 222.15 383.11 223.95 384.62ZM203.45 384.25C203.45 384.25 203.44 384.25 203.43 384.25C203.39 384.21 203.36 384.19 203.36 384.18C203.27 384.09 203.15 384.09 203.06 384.16C203.06 384.16 203.05 384.17 203.04 384.18C203.03 384.18 203.02 384.18 203.02 384.18C200.59 383.84 198.17 382.97 196.05 381.69C194.65 380.32 193.39 378.81 192.32 377.19C192.3 377.17 192.27 377.12 192.25 377.1C192.25 377.1 192.23 377.09 192.21 377.07C192.22 377.05 192.23 377.03 192.23 377.03C192.25 376.91 192.3 376.82 192.34 376.73C192.55 376.3 192.96 375.95 193.33 375.63C193.42 375.54 193.51 375.47 193.6 375.41C193.97 375.06 195.8 373.36 199.11 370.29C199.14 370.31 199.15 370.33 199.15 370.33C200.46 371.59 202.26 373.07 204.62 373.39C204.8 373.42 205.01 373.44 205.19 373.44C206.9 373.44 208.64 372.37 209.87 370.54C211.31 368.41 211.41 365.53 211.47 363.43C211.57 360.66 211.61 357.62 211.63 353.87C211.68 341.69 211.13 329.23 210.01 316.85C210.01 316.84 210.01 316.81 210.01 316.75C210.07 316.75 210.1 316.75 210.1 316.75C213.92 316.94 217.81 317.26 221.65 317.69C221.65 317.69 221.66 317.69 221.69 317.69C221.71 317.72 221.71 317.73 221.71 317.74C221.76 317.83 221.83 317.92 221.9 318.01C221.94 318.06 221.99 318.1 222.01 318.15C222.01 318.15 222.02 318.16 222.03 318.17C222.03 318.19 222.03 318.19 222.03 318.19C223.13 331.25 223.73 344.48 223.79 357.53C223.79 357.58 223.79 357.98 223.79 358.03C223.82 364 223.86 370.17 220.85 375.45C218.26 379.95 213.6 383.2 208.32 384.14C207.36 384.3 206.42 384.37 205.49 384.37C204.82 384.37 204.14 384.32 203.45 384.25ZM208.23 383.98C213.46 383.06 218.1 379.84 220.64 375.38C223.63 370.13 223.59 363.98 223.57 358.03C223.57 357.98 223.57 357.58 223.57 357.53C223.5 344.48 222.9 331.27 221.81 318.24C221.76 318.19 221.74 318.15 221.69 318.1C221.62 318.01 221.55 317.92 221.51 317.83C217.71 317.39 213.9 317.07 210.1 316.89C211.22 329.26 211.77 341.71 211.73 353.85C211.7 357.6 211.66 360.64 211.57 363.41C211.5 365.53 211.41 368.43 209.94 370.58C208.69 372.43 206.9 373.55 205.14 373.55C204.94 373.55 204.75 373.53 204.55 373.51C202.17 373.19 200.37 371.73 199.06 370.45C198.52 370.95 194.21 374.97 193.67 375.47C193.58 375.54 193.49 375.63 193.39 375.7C193.03 376.02 192.64 376.37 192.46 376.75C192.41 376.82 192.39 376.91 192.37 376.98C192.39 377.01 192.41 377.03 192.43 377.05C193.51 378.65 194.74 380.16 196.11 381.51C198.22 382.77 200.59 383.61 202.99 383.98C203.13 383.89 203.34 383.91 203.45 384.02C203.45 384.03 203.47 384.05 203.5 384.09C205.65 384.2 207.22 384.16 208.23 383.98ZM225.33 383.34C225.28 383.25 225.19 383.22 225.14 383.22C225.12 383.22 225.1 383.22 225.1 383.22C225.09 383.22 225.08 383.22 225.05 383.22C225.04 383.21 225.03 383.2 225.03 383.2C224.02 382.24 222.97 381.3 221.94 380.43C221.37 379.95 220.73 379.45 220.11 378.95C220.05 378.9 220 378.86 219.93 378.81C219.84 378.74 219.75 378.65 219.66 378.61C219.65 378.6 219.63 378.59 219.59 378.56C219.62 378.52 219.63 378.5 219.63 378.49C219.93 378.13 220.18 377.83 220.41 377.53C220.41 377.53 220.43 377.5 220.46 377.46C224.01 380.27 225.98 381.84 226.38 382.15C226.38 382.15 226.38 382.15 226.4 382.15C226.4 382.15 226.43 382.17 226.47 382.19C226.44 382.24 226.43 382.26 226.42 382.26C226.15 382.61 225.85 382.95 225.49 383.34C225.48 383.35 225.46 383.39 225.42 383.47C225.36 383.39 225.33 383.35 225.33 383.34ZM225.44 383.22C225.74 382.9 226.01 382.58 226.24 382.29C225.66 381.83 221.06 378.17 220.48 377.71C220.27 377.97 220.07 378.24 219.79 378.56C219.86 378.61 219.93 378.67 220.02 378.74C220.07 378.79 220.14 378.83 220.21 378.88C220.85 379.36 221.46 379.86 222.06 380.37C223.09 381.23 224.11 382.15 225.12 383.11C225.12 383.09 225.14 383.09 225.14 383.09C225.26 383.09 225.35 383.13 225.44 383.22ZM226.7 381.74C226.61 381.51 226.49 381.3 226.29 381.07C226.17 380.96 226.01 381.01 225.94 381.14C225.94 381.15 225.92 381.18 225.9 381.23L220.73 377.14C220.76 377.1 220.77 377.08 220.78 377.07C221.19 376.5 221.55 375.86 221.9 375.22C221.9 375.22 221.92 375.19 221.94 375.13C221.98 375.17 222.01 375.2 222.01 375.2C223.91 376.85 225.87 378.42 227.89 379.91C227.89 379.91 227.9 379.93 227.93 379.95C227.92 380 227.91 380.02 227.91 380.02C227.59 380.64 227.22 381.21 226.83 381.78C226.83 381.79 226.8 381.82 226.74 381.87C226.72 381.79 226.7 381.75 226.7 381.74ZM226.38 380.98C226.56 381.19 226.67 381.37 226.77 381.55C227.11 381.05 227.43 380.53 227.73 380C225.76 378.56 223.84 377.01 221.97 375.41C221.65 376 221.28 376.59 220.91 377.14C221.41 377.53 225.34 380.64 225.83 381.03C225.92 380.91 226.03 380.87 226.13 380.87C226.22 380.87 226.31 380.91 226.38 380.98ZM228.07 379.5C226.08 378.01 224.09 376.43 222.19 374.79C222.19 374.79 222.18 374.77 222.15 374.74C222.16 374.72 222.17 374.7 222.17 374.7C222.4 374.19 222.63 373.69 222.83 373.14C222.84 373.14 222.85 373.11 222.88 373.05C222.93 373.08 222.97 373.09 222.97 373.1C225.01 374.51 226.99 376.02 228.82 377.55C228.85 377.58 228.87 377.58 228.89 377.6C228.9 377.6 228.92 377.61 228.96 377.62C228.95 377.66 228.94 377.69 228.94 377.69C228.71 378.31 228.46 378.9 228.21 379.47C228.2 379.48 228.18 379.5 228.14 379.54C228.1 379.52 228.07 379.5 228.07 379.5ZM228.07 379.31C228.3 378.81 228.53 378.26 228.75 377.69C228.73 377.69 228.73 377.67 228.71 377.67C226.88 376.16 224.94 374.67 222.95 373.28C222.74 373.76 222.56 374.24 222.33 374.7C224.18 376.32 226.13 377.87 228.07 379.31ZM229.01 377.12C227.11 375.57 225.12 374.03 223.06 372.62C223.06 372.62 223.04 372.61 223.02 372.59C223.03 372.57 223.04 372.55 223.04 372.55C223.25 371.93 223.45 371.25 223.61 370.56C223.61 370.55 223.62 370.51 223.63 370.45L229.67 375.13C229.67 375.17 229.67 375.2 229.67 375.2C229.51 375.89 229.33 376.5 229.12 377.1C229.12 377.1 229.11 377.13 229.1 377.19C229.04 377.15 229.01 377.12 229.01 377.12ZM229.01 376.94C229.19 376.39 229.35 375.82 229.51 375.2C228.93 374.75 224.3 371.15 223.73 370.7C223.57 371.34 223.41 371.95 223.2 372.53C225.21 373.92 227.15 375.41 229.01 376.94ZM223.84 370.01C223.84 370.01 223.82 369.99 223.82 369.99C223.81 369.99 223.8 369.98 223.77 369.97C223.79 369.94 223.79 369.92 223.79 369.92C223.86 369.55 223.95 369.19 224.02 368.75C224.02 368.75 224.03 368.71 224.05 368.64C224.1 368.67 224.13 368.68 224.14 368.69C226.26 369.9 228.3 371.27 230.17 372.73C230.17 372.73 230.19 372.74 230.22 372.75C230.22 372.78 230.22 372.8 230.22 372.8C230.1 373.42 230.01 373.99 229.87 374.54C229.87 374.55 229.85 374.59 229.81 374.67C226.23 371.88 224.24 370.32 223.84 370.01ZM223.93 369.87C224.51 370.32 229.14 373.93 229.71 374.38C229.83 373.87 229.92 373.37 230.01 372.82C228.16 371.38 226.19 370.06 224.11 368.87C224.05 369.23 224 369.58 223.93 369.87C223.93 369.9 223.93 369.9 223.93 369.87ZM230.17 372.18C228.25 370.7 226.22 369.35 224.14 368.18C224.13 368.18 224.12 368.17 224.09 368.16C224.09 368.13 224.09 368.12 224.09 368.11C224.16 367.66 224.23 367.18 224.27 366.63C224.28 366.62 224.28 366.58 224.3 366.51L230.51 370.31C230.51 370.34 230.51 370.35 230.51 370.35C230.45 371.06 230.38 371.61 230.29 372.14C230.28 372.14 230.28 372.18 230.26 372.25C230.21 372.21 230.18 372.19 230.17 372.18ZM230.15 371.98C230.22 371.5 230.29 370.99 230.35 370.38C229.76 370.01 225.03 367.11 224.43 366.74C224.37 367.22 224.32 367.66 224.25 368.07C226.29 369.21 228.25 370.54 230.15 371.98ZM224.59 366.15C224.55 366.13 224.5 366.1 224.43 366.13C224.43 366.13 224.4 366.13 224.34 366.15C224.34 366.09 224.34 366.06 224.34 366.06C224.39 365.46 224.46 364.82 224.48 364.09C224.48 364.08 224.48 364.04 224.48 363.95L230.67 368.07C230.67 368.1 230.67 368.11 230.67 368.11C230.63 368.71 230.61 369.23 230.56 369.69C230.56 369.7 230.56 369.74 230.56 369.81C226.98 367.61 224.99 366.39 224.59 366.15ZM224.66 366.01C225.24 366.36 229.85 369.18 230.42 369.53C230.47 369.1 230.49 368.64 230.54 368.11C229.95 367.72 225.23 364.58 224.64 364.18C224.59 364.85 224.55 365.42 224.5 365.97C224.55 365.97 224.62 365.99 224.66 366.01ZM224.5 363.38C224.5 363.36 224.5 363.34 224.5 363.34C224.53 362.7 224.55 362.06 224.55 361.42C224.55 361.41 224.55 361.36 224.55 361.28C224.62 361.33 224.66 361.37 224.66 361.37C225.39 361.9 227.52 363.36 229.1 364.43C229.85 364.96 230.47 365.37 230.77 365.58C230.77 365.58 230.77 365.59 230.79 365.6C230.79 365.63 230.79 365.64 230.79 365.65C230.77 366.35 230.74 366.88 230.72 367.41C230.72 367.41 230.72 367.45 230.72 367.52L224.5 363.38ZM230.61 367.25C230.63 366.79 230.65 366.29 230.67 365.67C230.38 365.46 229.76 365.05 229.05 364.55C227.57 363.52 225.58 362.15 224.75 361.55C224.71 362.15 224.71 362.74 224.69 363.31C225.87 364.1 230.01 366.85 230.61 367.25ZM226.42 361.94C226.33 361.87 226.22 361.78 226.08 361.67C225.69 361.35 225.12 360.87 224.64 360.73C224.64 360.73 224.62 360.72 224.59 360.71C224.59 360.68 224.59 360.67 224.59 360.66C224.59 359.82 224.62 358.97 224.62 358.1C224.62 358.09 224.62 358.05 224.62 357.97C224.69 358.01 224.72 358.03 224.73 358.03C225.46 358.49 226.13 359.06 226.79 359.63C227.06 359.89 227.36 360.11 227.63 360.37C227.85 360.54 228.94 361.42 230.9 362.99C230.9 363.02 230.9 363.04 230.9 363.04C230.88 363.68 230.86 364.3 230.86 364.94C230.86 364.94 230.85 364.98 230.83 365.05C228.19 363.19 226.72 362.15 226.42 361.94ZM226.17 361.55C226.31 361.67 226.42 361.76 226.49 361.81C226.91 362.1 230.26 364.46 230.67 364.75C230.7 364.18 230.72 363.61 230.72 363.04C230.4 362.78 227.84 360.72 227.52 360.46C227.22 360.23 226.95 359.98 226.65 359.73C226.03 359.2 225.39 358.65 224.73 358.22C224.75 359.04 224.75 359.82 224.73 360.59C225.23 360.78 225.78 361.23 226.17 361.55ZM227.66 359.79C227.41 359.59 227.13 359.36 226.88 359.13C226.17 358.54 225.44 357.92 224.66 357.46C224.66 357.46 224.64 357.45 224.62 357.44C224.62 357.41 224.62 357.4 224.62 357.39C224.62 356.62 224.62 355.86 224.62 355.09C224.62 355.08 224.62 355.02 224.62 354.93L230.97 360.23C230.97 360.26 230.97 360.27 230.97 360.27C230.95 360.94 230.95 361.6 230.93 362.26C230.92 362.27 230.92 362.33 230.9 362.42C228.96 360.85 227.87 359.97 227.66 359.79ZM226.97 358.99C227.22 359.22 227.5 359.43 227.75 359.66C228.05 359.9 230.46 361.84 230.77 362.08C230.79 361.49 230.79 360.89 230.81 360.27C230.21 359.77 225.36 355.75 224.75 355.25C224.75 355.95 224.75 356.66 224.75 357.35C225.55 357.78 226.26 358.4 226.97 358.99ZM224.59 354.35C224.59 354.33 224.59 354.31 224.59 354.31C224.59 353.62 224.59 352.96 224.57 352.27C224.57 352.27 224.57 352.22 224.57 352.14C224.64 352.18 224.68 352.2 224.69 352.21C226.93 353.39 229.03 354.81 230.95 356.37C230.95 356.37 230.96 356.37 230.97 356.39C230.97 356.42 230.97 356.43 230.97 356.43C230.97 357.6 230.95 358.56 230.95 359.47C230.95 359.49 230.96 359.55 230.97 359.66L224.59 354.35ZM230.83 359.34C230.86 358.49 230.86 357.58 230.86 356.48C228.96 354.95 226.93 353.58 224.75 352.41C224.73 353.03 224.75 353.65 224.75 354.29C225.97 355.3 230.23 358.83 230.83 359.34ZM230.88 355.75C228.91 354.19 226.81 352.82 224.62 351.66C224.61 351.66 224.6 351.65 224.57 351.63C224.57 351.61 224.57 351.59 224.57 351.59C224.57 351.11 224.55 350.61 224.55 350.13C224.55 350.07 224.54 349.79 224.53 349.28C224.59 349.33 224.63 349.37 224.64 349.37C226.81 350.88 228.94 352.43 230.95 353.97C230.95 353.97 230.96 353.97 230.97 353.99C230.97 354.02 230.97 354.03 230.97 354.03C230.97 354.58 230.97 355.15 230.97 355.7C230.97 355.71 230.97 355.76 230.97 355.84C230.92 355.79 230.89 355.75 230.88 355.75ZM230.86 355.52C230.86 355.02 230.86 354.54 230.86 354.06C228.89 352.55 226.81 351.04 224.71 349.58C224.71 349.63 224.71 350.07 224.71 350.13C224.71 350.58 224.71 351.06 224.73 351.54C226.88 352.66 228.94 354.01 230.86 355.52ZM230.88 353.33C228.82 351.77 226.7 350.22 224.57 348.75C224.57 348.75 224.56 348.75 224.55 348.73C224.55 348.7 224.55 348.69 224.55 348.69C224.53 348.11 224.53 347.54 224.5 346.97C224.5 346.92 224.49 346.69 224.48 346.26C224.56 346.33 224.61 346.37 224.62 346.38C226.63 348.18 228.78 349.94 230.97 351.59C230.97 351.59 230.98 351.6 230.99 351.61C230.99 351.64 230.99 351.65 230.99 351.66C230.99 352.18 231.02 352.73 231.02 353.26C231.02 353.27 231.01 353.32 230.99 353.42C230.93 353.36 230.89 353.33 230.88 353.33ZM230.83 353.12C230.83 352.66 230.81 352.18 230.81 351.73C228.66 350.1 226.58 348.39 224.62 346.63C224.62 346.67 224.62 346.96 224.62 346.99C224.64 347.52 224.66 348.07 224.66 348.64C226.74 350.08 228.82 351.59 230.83 353.12ZM230.83 350.97C228.66 349.3 226.51 347.52 224.46 345.67C224.46 345.67 224.45 345.66 224.43 345.65C224.43 345.63 224.43 345.62 224.43 345.62C224.41 344.94 224.39 344.25 224.37 343.57C224.36 343.54 224.36 343.39 224.34 343.13C224.43 343.2 224.47 343.24 224.48 343.25C226.54 345.17 228.62 347.02 230.67 348.8C230.72 348.85 230.77 348.87 230.83 348.87C230.84 348.87 230.86 348.87 230.9 348.87C230.9 348.91 230.9 348.93 230.9 348.94C230.93 349.6 230.95 350.26 230.95 350.9C230.95 350.91 230.95 350.97 230.95 351.06C230.88 351.01 230.84 350.98 230.83 350.97ZM230.81 350.74C230.79 350.15 230.79 349.58 230.77 348.98C230.7 348.96 230.65 348.94 230.61 348.89C228.59 347.15 226.54 345.33 224.55 343.47C224.55 343.48 224.55 343.54 224.55 343.54C224.55 344.23 224.57 344.89 224.59 345.55C226.58 347.36 228.69 349.12 230.81 350.74ZM230.38 347.93C228.32 346.15 226.29 344.32 224.34 342.49C224.34 342.49 224.33 342.48 224.32 342.47C224.32 342.45 224.32 342.45 224.32 342.45C224.27 341.35 224.23 340.23 224.18 339.13C224.18 339.12 224.18 339.08 224.18 338.99C224.25 339.04 224.29 339.06 224.3 339.06C225.1 339.54 225.83 340.32 226.51 341.05C226.81 341.35 227.09 341.65 227.34 341.9C227.56 342.12 228.7 343.2 230.74 345.17C230.74 345.18 230.74 345.19 230.74 345.19C230.79 346.01 230.81 346.88 230.83 347.77C230.83 347.78 230.83 347.83 230.83 347.91C230.77 347.87 230.73 347.84 230.72 347.84C230.63 347.79 230.54 347.82 230.45 347.91C230.45 347.91 230.45 347.94 230.45 347.98C230.4 347.95 230.38 347.93 230.38 347.93ZM230.42 347.75C230.51 347.68 230.61 347.63 230.72 347.66C230.7 346.81 230.65 345.99 230.63 345.23C230.29 344.91 227.6 342.33 227.27 342.01C226.99 341.76 226.72 341.46 226.42 341.14C225.78 340.46 225.1 339.75 224.37 339.27C224.39 340.32 224.43 341.35 224.48 342.4C226.38 344.18 228.39 345.99 230.42 347.75ZM227.41 341.33C227.15 341.07 226.9 340.82 226.63 340.55C225.87 339.77 225.12 338.97 224.21 338.51C224.2 338.51 224.19 338.51 224.16 338.49C224.16 338.46 224.16 338.45 224.16 338.45C224.14 337.71 224.09 336.98 224.05 336.23C224.05 336.22 224.05 336.16 224.05 336.07C224.13 336.14 224.17 336.18 224.18 336.18C226.4 337.92 228.41 339.91 230.61 342.15C230.61 342.15 230.61 342.16 230.63 342.17C230.63 342.19 230.63 342.19 230.63 342.19C230.67 342.93 230.7 343.63 230.74 344.37C230.74 344.38 230.74 344.43 230.74 344.53C228.74 342.61 227.63 341.54 227.41 341.33ZM226.74 340.43C227.02 340.71 227.25 340.96 227.52 341.21C227.83 341.51 230.28 343.87 230.58 344.16C230.56 343.52 230.51 342.86 230.49 342.22C228.34 340.05 226.4 338.1 224.23 336.39C224.25 337.05 224.27 337.71 224.32 338.38C225.23 338.86 226.01 339.66 226.74 340.43ZM230.45 341.3C228.59 339.45 226.45 337.3 224.05 335.47C224.04 335.47 224.04 335.47 224.02 335.45C224.02 335.42 224.02 335.41 224.02 335.41C224 335.02 223.98 334.63 223.95 334.26C223.95 334.21 223.94 333.97 223.91 333.53C223.94 333.52 223.95 333.51 223.95 333.51C224 333.49 224.05 333.46 224.07 333.42C224.07 333.41 224.09 333.39 224.11 333.35L230.4 338.56C230.4 338.57 230.4 338.58 230.4 338.58C230.47 339.59 230.51 340.41 230.56 341.21C230.56 341.23 230.57 341.3 230.58 341.44C230.5 341.36 230.45 341.31 230.45 341.3ZM230.4 341.05C230.35 340.32 230.31 339.57 230.24 338.65C229.63 338.14 224.73 334.08 224.11 333.58C224.09 333.6 224.07 333.62 224.05 333.62C224.05 333.69 224.09 334.2 224.09 334.26C224.11 334.63 224.14 335.02 224.16 335.38C226.47 337.17 228.59 339.22 230.4 341.05ZM223.86 332.57C223.86 332.56 223.86 332.55 223.86 332.55C223.82 331.84 223.77 331.15 223.73 330.45C223.72 330.42 223.72 330.29 223.7 330.06L230.15 335.34C230.15 335.35 230.15 335.36 230.15 335.36C230.22 336.16 230.29 336.98 230.33 337.78C230.33 337.8 230.34 337.86 230.35 337.97L223.86 332.57ZM230.17 337.6C230.13 336.87 230.06 336.11 229.99 335.38C229.58 335.05 227.54 333.38 223.86 330.38C223.86 330.4 223.86 330.42 223.86 330.42C223.91 331.11 223.95 331.79 224 332.48C225.23 333.5 229.55 337.09 230.17 337.6ZM223.66 329.44C223.66 329.43 223.66 329.42 223.66 329.42C223.59 328.41 223.52 327.38 223.45 326.38C223.45 326.37 223.45 326.35 223.45 326.31C223.48 326.29 223.49 326.29 223.5 326.29C223.52 326.29 223.52 326.26 223.54 326.26C223.55 326.26 223.56 326.25 223.59 326.24C223.62 326.25 223.63 326.26 223.63 326.26C225.69 327.66 227.68 329.21 229.51 330.88C229.51 330.88 229.52 330.89 229.53 330.9C229.53 330.93 229.53 330.95 229.53 330.95C229.51 331.02 229.53 331.09 229.65 331.13C229.65 331.13 229.69 331.15 229.76 331.18C229.76 331.2 229.76 331.22 229.76 331.22C229.87 332.41 229.99 333.49 230.08 334.51C230.08 334.53 230.08 334.59 230.08 334.7L223.66 329.44ZM229.92 334.33C229.83 333.37 229.74 332.37 229.62 331.27C229.62 331.27 229.6 331.25 229.6 331.25C229.46 331.18 229.39 331.06 229.39 330.93C227.59 329.28 225.65 327.77 223.63 326.4C223.68 327.41 223.75 328.39 223.82 329.35C225.04 330.35 229.31 333.83 229.92 334.33ZM229.55 330.26C227.63 328.57 225.6 326.99 223.45 325.58C223.45 325.58 223.44 325.57 223.43 325.55C223.43 325.53 223.43 325.51 223.43 325.51C223.36 324.66 223.31 323.84 223.25 322.99C223.24 322.98 223.24 322.92 223.22 322.81C226.95 326.17 229.03 328.04 229.44 328.41C229.46 328.41 229.46 328.43 229.49 328.43C229.49 328.44 229.49 328.44 229.51 328.46C229.51 328.48 229.51 328.5 229.51 328.5C229.58 329.07 229.62 329.65 229.69 330.22C229.69 330.23 229.69 330.29 229.69 330.4C229.61 330.32 229.56 330.27 229.55 330.26ZM229.49 330.01C229.44 329.51 229.37 329.03 229.33 328.53C229.33 328.53 229.3 328.5 229.3 328.5C228.71 327.97 223.97 323.69 223.38 323.15C223.43 323.93 223.5 324.71 223.54 325.46C225.62 326.83 227.61 328.37 229.49 330.01ZM223.15 322.15C223.15 322.13 223.15 322.13 223.15 322.13C223.13 321.92 223.13 321.71 223.11 321.49C223.11 321.44 223.09 321.23 223.06 320.85C226.38 323.56 228.23 325.07 228.59 325.37C228.71 325.46 228.91 325.42 228.98 325.28C228.99 325.27 229.01 325.23 229.05 325.17C229 325.11 228.97 325.08 228.96 325.07C228.96 325.07 228.96 325.07 228.94 325.05C228.36 324.58 223.75 320.79 223.18 320.32C223.15 320.3 223.11 320.27 223.09 320.27C223.08 320.27 223.07 320.27 223.04 320.25C223.01 319.95 223 319.78 222.99 319.75C222.97 319.5 222.95 319.25 222.93 318.99C222.92 318.98 222.92 318.93 222.9 318.83C222.99 318.88 223.03 318.9 223.04 318.9C223.18 318.99 223.31 319.06 223.43 319.15C223.7 319.31 223.98 319.47 224.21 319.66C224.51 319.88 226.05 320.96 228.82 322.93C228.82 322.94 228.82 322.95 228.82 322.95C228.91 323.63 229.01 324.32 229.1 325.01C229.1 325.01 229.1 325.03 229.1 325.07L229.1 325.07C229.11 325.21 229.12 325.29 229.12 325.3C229.21 326.06 229.3 326.81 229.39 327.57C229.39 327.58 229.39 327.65 229.39 327.77L223.15 322.15ZM229.19 327.41C229.12 326.77 229.05 326.15 228.96 325.51C228.82 325.62 228.62 325.62 228.48 325.51C228.13 325.22 226.38 323.78 223.22 321.19C223.24 321.37 223.24 321.47 223.25 321.49C223.27 321.69 223.27 321.87 223.29 322.08C224.47 323.15 228.6 326.87 229.19 327.41ZM223.22 320.23C223.79 320.69 228.3 324.38 228.87 324.85C228.8 324.23 228.71 323.63 228.64 323.02C228.19 322.69 224.55 320.12 224.09 319.79C223.86 319.63 223.61 319.47 223.31 319.31C223.22 319.27 223.13 319.2 223.04 319.15C223.06 319.36 223.06 319.57 223.09 319.75C223.09 319.78 223.1 319.91 223.13 320.16C223.18 320.19 223.21 320.21 223.22 320.23Z" id="aDKb92em"></path></defs><g><g><g><use xlink:href="#e2zJ5gjCUi" opacity="1" fill="#000000" fill-opacity="1"></use><g><use xlink:href="#e2zJ5gjCUi" opacity="1" fill-opacity="0" stroke="#000000" stroke-width="1" stroke-opacity="0"></use></g></g><g><use xlink:href="#aDKb92em" opacity="1" fill="#180f0b" fill-opacity="1"></use><g><use xlink:href="#aDKb92em" opacity="1" fill-opacity="0" stroke="#000000" stroke-width="1" stroke-opacity="0"></use></g></g></g></g></svg>