<?xml version="1.0" encoding="UTF-8" standalone="no"?>
<!DOCTYPE svg PUBLIC "-//W3C//DTD SVG 1.1//EN" "http://www.w3.org/Graphics/SVG/1.1/DTD/svg11.dtd">
<svg version="1.1" xmlns="http://www.w3.org/2000/svg" xmlns:xlink="http://www.w3.org/1999/xlink" preserveAspectRatio="xMidYMid meet" viewBox="415.4685714285713 325.68781994047606 72.56228571426294 61.80932291666676" width="72.56" height="61.81"><defs><path d="M484.57 352.18C484.23 349.62 483.86 347.06 483.5 344.5C483.11 341.87 482.83 339.13 482.01 336.59C480.89 333.07 477.99 330.33 474.49 329.21C474.47 329.1 474.45 328.98 474.42 328.85C474.72 328.62 474.72 328.07 474.26 327.98C474.26 327.98 474.26 327.98 474.24 327.98C474.24 327.98 474.24 327.98 474.24 327.98C474.15 327.52 473.62 327.52 473.37 327.82C467.59 326.67 461.67 326.31 455.77 326.77C455.54 326.79 455.34 326.9 455.29 327.13C453.78 333.49 452.3 339.84 450.79 346.22C449.85 343.09 448.91 339.95 448 336.85C448.11 336.71 448.14 336.48 447.95 336.37C447.91 336.34 447.89 336.32 447.84 336.3C447.66 335.73 447.5 335.13 447.31 334.56C447.15 334.06 447.02 333.55 446.86 333.03C446.77 332.73 446.72 332.14 446.4 331.95C445.35 331.41 444.27 330.83 443.22 330.29C442.67 330 438.29 327.69 437.74 327.41C437.74 327.38 437.71 327.36 437.71 327.34C437.67 327.18 437.53 327.02 437.37 326.99C432.16 326.17 426.93 325.78 421.67 325.83C421.19 325.83 421.05 326.4 421.3 326.67C420.73 331.93 416.12 373.99 415.54 379.25C415.52 379.5 415.79 379.77 416.05 379.75C416.18 379.75 416.3 379.73 416.43 379.73C416.48 379.79 416.5 379.84 416.55 379.91C417.1 380.62 417.9 381.21 418.54 381.83C419.29 382.56 420.05 383.29 420.8 384.02C421 384.21 422.59 385.75 422.79 385.94C423.27 386.4 423.82 386.86 424.5 386.88C426.42 386.95 428.43 386.7 430.35 386.58C431.59 386.51 432.82 386.45 434.03 386.35C434.06 386.38 434.06 386.38 434.08 386.4C434.24 386.54 434.45 386.47 434.56 386.33C435.13 386.31 435.68 386.26 436.25 386.24C437.76 386.15 437.92 384.5 438.29 383.34C439.22 380.43 439.95 377.49 440.5 374.51C440.98 375.73 441.46 376.94 441.97 378.13C442.22 378.77 442.49 379.38 442.77 380C442.88 380.25 443.25 380.32 443.57 380.34C444.91 381.55 446.29 382.77 447.63 383.95C448.32 384.55 449.01 385.17 449.67 385.76C450.24 386.29 450.86 386.99 451.52 387.38C452 387.66 453.19 387.29 453.71 387.22C454.63 387.13 455.54 387.02 456.43 386.93C457.87 386.77 459.31 386.61 460.75 386.45C460.8 386.49 460.85 386.56 460.89 386.61C461.19 386.95 461.65 386.7 461.71 386.33C461.73 386.33 461.86 386.31 461.87 386.31C462.1 386.29 462.31 386.17 462.35 385.94C463.52 381.6 464.69 377.26 465.83 372.91C466.33 374.99 466.83 377.07 467.36 379.15C467.41 379.36 467.63 379.54 467.84 379.52C467.95 379.52 468.07 379.5 468.18 379.5C469.35 380.75 470.51 382.01 471.66 383.27C472.8 384.5 473.92 385.67 475.63 385.97C477.37 386.26 479.34 385.9 481.07 385.78C481.28 385.76 481.49 385.76 481.69 385.74C481.76 385.78 481.81 385.83 481.87 385.9C482.08 386.08 482.38 385.9 482.4 385.71C482.9 385.69 486.91 385.47 487.41 385.44C488 385.33 488.11 384.69 487.79 384.43C487.06 373.65 485.99 362.9 484.57 352.18ZM480.66 372.94C480.64 372.91 480.64 372.91 480.62 372.91C480.53 371.98 480.46 371.06 480.37 370.13C482.31 371.84 484.23 373.6 486.08 375.41C486.19 376.57 486.29 377.74 486.38 378.93C484.48 376.94 482.56 374.93 480.66 372.94ZM480.3 369.23C480.21 368.23 480.09 367.22 480 366.24C481.69 367.79 483.41 369.37 485.1 370.93C485.39 371.2 485.81 370.77 485.53 370.49C483.66 368.78 481.78 367.04 479.91 365.33C479.82 364.46 479.73 363.57 479.61 362.7C481.55 364.57 483.5 366.42 485.42 368.3C485.65 370.33 485.83 372.39 486.01 374.47C484.16 372.66 482.24 370.93 480.3 369.23ZM479.52 361.74C479.43 360.87 479.31 359.98 479.2 359.11C481.14 360.87 483.09 362.63 485.03 364.41C485.14 365.37 485.23 366.35 485.35 367.34C483.41 365.46 481.46 363.59 479.52 361.74ZM484.96 363.5C483.02 361.74 481.07 359.95 479.11 358.19C479.02 357.42 478.9 356.62 478.81 355.84C480.96 357.17 482.93 358.81 484.64 360.73C484.75 361.65 484.85 362.56 484.96 363.5ZM484.53 359.7C482.81 357.9 480.87 356.32 478.72 355.04C478.61 354.19 478.49 353.35 478.38 352.5C480.23 353.87 482.08 355.27 483.93 356.64C484 356.71 484.07 356.73 484.16 356.69C484.27 357.69 484.41 358.7 484.53 359.7ZM484.05 356.02C483.46 355.59 478.8 352.11 478.22 351.68C478.08 350.65 477.92 349.65 477.78 348.62C479.54 350.03 481.3 351.5 482.99 352.98C483.29 353.23 483.73 352.82 483.43 352.55C481.55 350.9 479.63 349.3 477.67 347.75C477.67 347.75 477.65 347.75 477.65 347.73C477.51 346.83 477.37 345.97 477.23 345.07C479.34 346.33 481.33 347.77 483.15 349.42C483.41 350.88 483.59 352.34 483.77 353.78C483.86 354.54 483.95 355.27 484.05 356.02ZM483.06 348.53C481.23 346.95 479.27 345.55 477.17 344.34C477.05 343.59 476.94 342.86 476.8 342.1C478.1 342.61 482.1 345.76 482.67 346.17C482.7 346.17 482.72 346.17 482.74 346.19C482.86 346.97 482.97 347.75 483.06 348.53ZM478.61 342.51C478.17 342.19 477.37 341.42 476.69 341.35C476.55 340.46 476.39 339.57 476.25 338.7C478.4 339.57 480.39 340.73 482.19 342.19C482.33 343.25 482.47 344.32 482.63 345.37C481.28 344.41 479.95 343.47 478.61 342.51ZM475.43 330.83C475.13 330.58 474.7 331.02 474.99 331.27C476.64 332.59 478.31 333.9 479.95 335.22C480.05 335.31 480.18 335.31 480.27 335.27C480.85 336.3 481.26 337.44 481.53 338.67C481.74 339.54 481.9 340.43 482.03 341.33C480.27 339.95 478.35 338.88 476.25 338.06C476.21 338.03 476.16 338.03 476.11 338.03C475.93 336.98 475.75 335.93 475.57 334.88C477.17 336 478.67 337.19 480.11 338.49C480.41 338.74 480.85 338.33 480.55 338.06C478.93 336.59 477.21 335.27 475.41 334.03C475.18 332.8 474.95 331.59 474.72 330.35C476.78 331.13 478.4 332.46 479.59 334.15C478.76 333.49 475.84 331.17 475.43 330.83ZM443.77 343.57C443.45 343.36 443.13 343.89 443.47 344.09C445.74 345.53 448.02 346.93 450.33 348.25C450.22 348.75 450.1 349.26 449.97 349.76C448.05 348.5 446.03 347.36 443.98 346.35C443.91 346.31 443.84 346.31 443.77 346.33C443.25 344.89 442.72 343.47 442.22 342.03C442.38 342.15 442.56 342.06 442.63 341.9C443.18 341.97 445.65 343.5 445.97 343.68C447.15 344.32 448.34 344.96 449.53 345.6C449.76 346.19 449.94 346.83 450.13 347.45C447.98 346.22 445.85 344.91 443.77 343.57ZM446.61 352.89C446.51 352.85 446.42 352.85 446.35 352.87C445.99 351.98 445.62 351.09 445.28 350.19C446.49 351.15 447.79 352.05 449.14 352.8C449.19 352.82 449.23 352.85 449.26 352.85C448.91 354.33 448.55 355.79 448.21 357.28C447.68 356.07 447.15 354.86 446.65 353.65C446.8 353.73 447.95 354.41 448.09 354.49C448.41 354.65 448.73 354.15 448.39 353.94C447.79 353.6 447.2 353.23 446.61 352.89ZM444.91 349.28C444.62 348.55 444.34 347.79 444.07 347.06C446.06 348.07 447.98 349.17 449.83 350.38C449.69 350.99 449.53 351.61 449.39 352.23C447.91 351.41 446.51 350.45 445.19 349.35C445.1 349.28 445.01 349.26 444.91 349.28ZM440.94 335.09C440.59 334.88 440.3 335.41 440.64 335.61C443.06 337.05 445.49 338.49 447.91 339.93C448.14 340.73 448.39 341.51 448.62 342.31C447.99 341.89 442.96 338.59 442.33 338.17C442.01 337.97 441.69 338.49 442.03 338.7C444.32 340.21 446.61 341.69 448.89 343.2C449.05 343.73 449.21 344.23 449.35 344.75C448 344.02 446.65 343.31 445.3 342.58C445.07 342.45 443.16 341.43 442.93 341.3C442.65 341.17 442.35 341.26 442.15 341.46C442.13 341.49 442.1 341.51 442.1 341.53C440.96 338.24 439.93 334.93 438.95 331.57C439.57 331.77 440.16 332.27 440.66 332.59C441.44 333.07 442.22 333.55 442.99 334.01C444.27 334.79 445.55 335.57 446.83 336.37C447.09 337.28 447.36 338.17 447.63 339.06C445.39 337.74 443.18 336.41 440.94 335.09ZM445.19 332.46C446.13 332.96 446.26 334.51 446.56 335.5C445.35 334.77 444.16 334.03 442.95 333.3C442.06 332.75 441.17 332.21 440.27 331.68C439.77 331.36 439.29 331.02 438.72 330.9C438.51 330.17 438.31 329.46 438.1 328.73C439.54 329.46 440.94 330.22 442.35 330.97C443.29 331.47 444.25 331.98 445.19 332.46ZM423.5 385.19C422.45 384.21 421.42 383.18 420.39 382.19C419.82 381.65 419.25 381.1 418.7 380.55C418.51 380.37 418.17 379.93 417.83 379.61C418.54 379.54 419.27 379.5 419.98 379.43C422.22 381.53 424.46 383.63 426.67 385.74C426.45 385.74 426.22 385.76 426.01 385.78C425.03 385.85 424.25 385.92 423.5 385.19ZM428.39 385.62C428.09 385.65 427.77 385.67 427.47 385.67C427.45 385.62 427.43 385.6 427.41 385.55C425.21 383.47 422.99 381.42 420.8 379.34C421.05 379.32 423.04 379.15 423.29 379.13C423.34 379.15 423.38 379.2 423.45 379.22C423.73 379.5 424.02 379.79 424.3 380.07C424.87 380.64 425.42 381.21 425.99 381.78C427.11 382.93 428.23 384.07 429.35 385.21C429.62 385.49 430.06 385.05 429.78 384.78C428.57 383.54 427.36 382.31 426.13 381.07C425.46 380.41 424.82 379.75 424.16 379.09C424.16 379.09 424.14 379.06 424.14 379.06C424.8 379.02 425.46 378.95 426.13 378.9C428.23 381.21 430.47 383.36 432.89 385.33C432.88 385.33 432.82 385.34 432.71 385.37C430.79 385.49 429.35 385.58 428.39 385.62ZM426.88 378.86C427.73 378.79 428.53 378.74 429.17 378.26C431.09 380.59 433.03 382.9 434.95 385.23C434.87 385.24 434.47 385.26 433.76 385.3C430.59 382.56 428.3 380.41 426.88 378.86ZM436.25 385.17C436.23 385.17 436.21 385.17 436.21 385.17C434.08 382.61 431.93 380.05 429.81 377.46C430.03 376.96 430.1 376.32 430.22 375.82C430.22 375.82 430.22 375.79 430.22 375.79C432.53 378.03 434.83 380.25 437.12 382.49C437.21 382.58 437.33 382.61 437.44 382.56C437.28 383.06 437.12 383.57 436.96 384.07C436.85 384.41 436.75 385.1 436.25 385.17ZM437.55 382.08C435.15 379.77 432.75 377.44 430.35 375.13C430.49 374.47 430.65 373.83 430.79 373.17C430.83 373.01 430.86 372.82 430.9 372.66C433.3 375.2 435.7 377.76 438.1 380.3C437.94 380.87 437.76 381.49 437.58 382.1C437.57 382.1 437.56 382.08 437.55 382.08ZM431.06 371.93C431.25 371.11 431.41 370.29 431.57 369.46C434.13 372.09 436.53 374.88 438.74 377.78C438.61 378.38 438.45 378.97 438.31 379.59C435.89 377.03 433.49 374.47 431.06 371.93ZM431.7 368.71C431.84 367.98 431.98 367.27 432.11 366.54C434.56 368.98 436.91 371.54 439.13 374.19C439.25 374.31 439.38 374.31 439.47 374.24C439.31 375.18 439.13 376.09 438.93 377.01C436.69 374.1 434.26 371.34 431.7 368.71ZM439.59 373.78C437.26 371.02 434.81 368.37 432.25 365.83C432.37 365.17 432.48 364.53 432.59 363.86C434.77 366.06 436.89 368.27 438.99 370.51C439.25 371.22 439.52 371.91 439.77 372.62C439.73 373.01 439.66 373.39 439.59 373.78C439.59 373.78 439.59 373.78 439.59 373.78ZM433.21 360.32C433.35 359.5 433.46 358.7 433.6 357.87C434.24 358.54 434.86 359.2 435.5 359.84C436.41 362.95 437.42 366.03 438.49 369.07C436.59 367.06 434.67 365.07 432.73 363.13C432.85 362.45 432.96 361.74 433.1 361.05C434.13 362.03 435.13 363.06 436.07 364.14C436.34 364.41 436.75 364 436.5 363.7C435.45 362.51 434.35 361.39 433.21 360.32ZM434.06 354.74C434.4 356.02 434.74 357.3 435.11 358.56C434.65 358.08 434.19 357.6 433.71 357.1C433.83 356.32 433.94 355.52 434.06 354.74ZM451.84 386.29C449.65 384.34 447.45 382.38 445.26 380.43C446.01 380.48 446.74 380.53 447.5 380.53C449.71 382.4 451.93 384.27 454.15 386.15C453.87 386.15 453.6 386.17 453.33 386.22C453.01 386.26 452.09 386.51 451.84 386.29ZM454.88 386.03C454.88 385.97 454.83 385.92 454.79 385.87C452.66 384.09 450.54 382.29 448.41 380.5C449.51 380.46 450.58 380.34 451.66 380.16C451.63 380.25 451.63 380.37 451.75 380.43C453.69 382.19 455.61 383.98 457.55 385.74C457.51 385.74 457.27 385.76 456.85 385.81C455.98 385.9 455.32 385.97 454.88 386.03ZM458.17 385.49C456.18 383.66 454.19 381.85 452.21 380.02C452.21 380.02 452.23 380.02 452.23 380.02C452.96 379.89 453.69 379.7 454.4 379.52C454.51 379.5 454.58 379.47 454.67 379.43C456.43 381.44 458.19 383.43 459.93 385.44C459.82 385.45 459.26 385.52 458.26 385.65C458.23 385.58 458.2 385.53 458.17 385.49ZM457.44 373.51C457.17 373.21 456.75 373.65 457.01 373.94C458.95 376.11 460.87 378.29 462.77 380.5C462.77 380.5 462.77 380.5 462.77 380.5C462.33 382.1 461.92 383.68 461.49 385.28C461.37 385.3 461.26 385.3 461.17 385.33C459.25 383.13 457.3 380.94 455.38 378.72C455.34 378.67 455.29 378.65 455.27 378.63C455.38 378.22 455.52 377.83 455.63 377.42C457.62 379.31 459.59 381.23 461.58 383.13C461.85 383.41 462.29 382.97 462.01 382.7C459.95 380.71 457.9 378.74 455.84 376.75C456.5 374.56 457.12 372.37 457.74 370.15C459.79 372.27 461.67 374.56 463.36 376.98C463.45 377.1 463.57 377.14 463.68 377.12C463.63 377.3 463.4 378.19 462.97 379.79C460.53 376.98 458.69 374.88 457.44 373.51ZM458.08 369.65C458.03 369.58 457.97 369.55 457.9 369.55C458.1 368.82 458.29 368.11 458.49 367.38C460.34 369.65 462.22 371.91 464.07 374.19C464.18 374.35 464.37 374.31 464.48 374.19C464.44 374.35 464.21 375.15 463.82 376.59C461.38 373.41 459.47 371.09 458.08 369.65ZM464.48 373.74C462.54 371.38 460.59 369.01 458.67 366.65C458.86 365.99 459.02 365.33 459.2 364.64C461.19 366.99 463.15 369.35 465.14 371.7C464.94 372.41 464.75 373.14 464.55 373.85C464.53 373.81 464.53 373.78 464.48 373.74ZM459.38 363.91C459.52 363.36 459.66 362.83 459.79 362.29C461.44 364.11 463.06 365.94 464.71 367.77C464.96 368.87 465.21 369.94 465.46 371.04C465.44 371.09 465.44 371.09 465.42 371.09C463.41 368.69 461.39 366.31 459.38 363.91ZM461.26 356.16C461.44 355.38 461.6 354.61 461.78 353.85C462.31 356.57 462.86 359.29 463.45 362.01C462.63 361.03 461.83 360.02 461.01 359.04C460.89 358.88 460.71 358.93 460.62 359.02C460.78 358.31 460.96 357.6 461.12 356.89C461.35 357.14 461.58 357.39 461.81 357.65C462.03 357.94 462.45 357.51 462.19 357.21C461.87 356.87 461.58 356.5 461.26 356.16ZM463.63 362.99C463.89 364.18 464.16 365.37 464.41 366.58C462.93 364.91 461.44 363.27 459.95 361.6C460.14 360.87 460.32 360.11 460.5 359.38C460.53 359.41 460.53 359.45 460.55 359.47C461.51 360.62 462.45 361.76 463.38 362.9C463.45 362.99 463.57 363.02 463.63 362.99ZM468.23 378.13C467.45 375.09 466.72 372.02 466.01 368.96C466.17 368.89 466.29 368.64 466.13 368.46C466.01 368.34 465.92 368.23 465.81 368.11C464.53 362.49 463.36 356.85 462.29 351.18C462.19 350.7 461.42 350.7 461.3 351.18C459.34 360.39 456.98 369.51 454.24 378.51C451.22 379.34 448.14 379.63 445.03 379.38C444.57 379.34 444.14 379.29 443.68 379.22C443.36 379.18 443.13 378.26 443.06 378.1C442.72 377.28 442.38 376.46 442.03 375.63C441.62 374.58 441.21 373.53 440.8 372.48C440.82 372.39 440.82 372.3 440.85 372.21C440.89 371.91 440.71 371.68 440.48 371.61C440.41 371.41 440.32 371.2 440.25 370.99C437.94 364.78 436 358.42 434.38 352C434.22 351.41 433.46 351.61 433.39 352.14C432.82 356.43 432.16 360.73 431.38 364.98C431.11 364.89 430.81 365.23 431.06 365.49C431.13 365.55 431.2 365.62 431.27 365.67C431.13 366.45 430.97 367.22 430.83 368C430.63 368.05 430.49 368.32 430.67 368.5C430.7 368.53 430.7 368.53 430.72 368.55C430.56 369.35 430.4 370.15 430.24 370.95C430.24 370.97 430.22 371.02 430.22 371.04C429.97 370.93 429.65 371.29 429.87 371.54C429.94 371.61 430.01 371.68 430.06 371.75C429.87 372.59 429.69 373.44 429.51 374.29C429.44 374.22 429.39 374.17 429.33 374.1C429.05 373.83 428.62 374.26 428.89 374.54C429.05 374.7 429.19 374.83 429.35 374.99C429.3 375.18 429.26 375.38 429.21 375.57C429.14 375.91 429.07 376.34 428.96 376.73C428.64 376.73 428.34 377.14 428.5 377.49C428.41 377.58 428.3 377.65 428.16 377.69C427.5 377.94 426.58 377.87 425.87 377.92C423.02 378.15 420.18 378.38 417.33 378.61C417.28 378.33 417.05 378.1 416.71 378.19C416.69 378.19 416.64 378.22 416.62 378.22C417.18 373.07 421.7 331.93 422.26 326.79C426.99 326.77 431.73 327.11 436.39 327.82C436.55 327.91 436.71 327.98 436.85 328.07C439.7 338.67 443.38 349.05 447.86 359.09C448.05 359.5 448.69 359.36 448.78 358.97C449.58 355.57 450.38 352.18 451.18 348.78C451.18 348.78 451.18 348.78 451.18 348.78C451.25 348.82 451.31 348.87 451.38 348.89C451.73 349.07 452.02 348.55 451.68 348.37C451.57 348.3 451.43 348.23 451.31 348.16C451.31 348.16 451.31 348.14 451.31 348.14C452.91 341.33 454.54 334.54 456.14 327.73C461.9 327.31 467.68 327.7 473.33 328.82C473.35 328.91 473.35 328.98 473.37 329.07C473.05 329.28 473.03 329.87 473.51 329.99C473.53 329.99 473.53 329.99 473.55 330.01C474.93 337.07 476.11 344.18 477.1 351.31C477.07 351.41 477.07 351.52 477.14 351.61C477.28 352.55 477.39 353.49 477.53 354.42C477.26 354.4 477.05 354.83 477.35 354.99C477.44 355.04 477.53 355.09 477.62 355.15C477.87 357.17 478.13 359.18 478.38 361.19C478.31 361.3 478.29 361.44 478.42 361.55C478.42 361.55 478.42 361.55 478.42 361.55C478.54 362.49 478.63 363.43 478.74 364.37C478.49 364.37 478.29 364.66 478.51 364.87C478.63 364.96 478.72 365.05 478.83 365.17C478.95 366.33 479.09 367.5 479.2 368.64C479.09 368.75 479.04 368.91 479.2 369.05C479.22 369.07 479.22 369.07 479.25 369.1C479.52 371.89 479.75 374.65 479.95 377.44C479.86 377.35 479.75 377.28 479.57 377.3C475.91 377.65 472.25 377.99 468.59 378.33C468.62 378.35 468.59 378.31 468.57 378.29C468.46 378.17 468.34 378.13 468.23 378.13ZM472.18 382.19C471.29 381.23 470.4 380.27 469.51 379.29C470.1 379.25 470.72 379.18 471.31 379.13C473.19 381.07 475.09 382.99 476.96 384.94C476.82 384.94 476.66 384.94 476.53 384.94C474.56 384.96 473.39 383.52 472.18 382.19ZM472.07 379.06C472.89 378.99 473.69 378.9 474.51 378.83C476.43 380.96 478.49 382.95 480.66 384.8C479.73 384.85 478.74 384.89 477.78 384.91C475.89 382.97 473.99 381.01 472.07 379.06ZM475.27 378.77C476.37 378.65 477.46 378.56 478.56 378.45C478.56 378.45 478.56 378.45 478.56 378.47C480.39 380.5 482.22 382.54 484.05 384.57C483.22 384.62 482.4 384.69 481.55 384.73C479.34 382.88 477.23 380.89 475.27 378.77ZM479.34 378.38C479.43 378.38 479.54 378.35 479.63 378.35C479.95 378.33 480.11 378.06 480.11 377.81C480.3 378.03 480.66 378.08 480.87 377.92C482.7 380.09 484.53 382.24 486.35 384.41C485.85 384.43 485.35 384.48 484.85 384.5C483.02 382.47 481.17 380.41 479.34 378.38ZM480.94 376.69C480.87 375.75 480.78 374.81 480.71 373.85C482.63 375.86 484.53 377.87 486.45 379.89C486.54 381.03 486.61 382.15 486.7 383.29C484.89 381.14 483.09 378.99 481.26 376.85C481.17 376.73 481.05 376.69 480.94 376.69Z" id="cPpLCUD22"></path><path d="M451.5 387.38C451.04 387.11 450.61 386.7 450.19 386.29C449.99 386.1 449.81 385.92 449.62 385.74C449.01 385.2 444.13 380.86 443.52 380.32C443.18 380.3 442.79 380.23 442.67 379.93C442.4 379.31 442.15 378.67 441.87 378.06C441.44 376.98 440.98 375.89 440.5 374.67C439.93 377.65 439.2 380.55 438.33 383.25C438.26 383.43 438.22 383.63 438.15 383.86C437.85 384.94 437.53 386.15 436.23 386.22C436.06 386.23 434.75 386.3 434.58 386.31C434.45 386.47 434.19 386.49 434.03 386.38C434.03 386.38 434.03 386.37 434.01 386.35C431.82 386.49 430.6 386.57 430.35 386.58C429.76 386.63 429.17 386.67 428.59 386.72C427.5 386.81 426.35 386.9 425.23 386.9C424.98 386.9 424.73 386.9 424.5 386.88C423.79 386.86 423.25 386.4 422.74 385.92C422.32 385.51 418.92 382.24 418.49 381.83C418.29 381.62 418.06 381.42 417.83 381.21C417.37 380.8 416.87 380.37 416.5 379.91C416.46 379.86 416.43 379.82 416.41 379.77C416.38 379.77 416.1 379.79 416.07 379.79C415.91 379.79 415.75 379.73 415.61 379.59C415.5 379.47 415.45 379.34 415.47 379.2C416.05 373.95 420.66 331.91 421.23 326.65C421.1 326.47 421.07 326.22 421.17 326.01C421.26 325.81 421.44 325.69 421.67 325.69C426.88 325.65 432.18 326.03 437.39 326.86C437.6 326.88 437.76 327.09 437.81 327.27C437.81 327.27 437.81 327.29 437.83 327.31C443.01 330.04 445.89 331.56 446.47 331.86C446.77 332.02 446.83 332.41 446.9 332.73C446.93 332.82 446.95 332.89 446.95 332.96C447.01 333.18 447.33 334.26 447.91 336.21C447.96 336.23 447.99 336.25 448 336.25C448.09 336.32 448.16 336.41 448.18 336.5C448.21 336.59 448.16 336.71 448.11 336.8C448.29 337.4 449.19 340.43 450.81 345.87C453.47 334.59 454.95 328.32 455.25 327.06C455.29 326.83 455.52 326.65 455.79 326.63C457.42 326.51 459.06 326.45 460.71 326.45C464.94 326.45 469.19 326.86 473.37 327.68C473.49 327.57 473.67 327.5 473.83 327.5C474.08 327.5 474.26 327.63 474.33 327.89C474.54 327.93 474.65 328.07 474.7 328.25C474.74 328.46 474.67 328.71 474.51 328.85C474.52 328.87 474.56 329.09 474.56 329.12C478.15 330.29 480.96 333.05 482.08 336.55C482.74 338.63 483.06 340.85 483.36 342.99C483.43 343.5 483.5 343.98 483.57 344.48C483.95 347.13 484.32 349.69 484.64 352.16C486.06 362.81 487.13 373.65 487.86 384.37C488.02 384.5 488.07 384.75 488 384.98C487.93 385.21 487.73 385.37 487.47 385.39C486.98 385.42 483.01 385.64 482.51 385.67C482.47 385.83 482.29 385.94 482.13 385.94C482.13 385.94 482.13 385.94 482.13 385.94C482.03 385.94 481.94 385.92 481.87 385.85C481.85 385.83 481.81 385.81 481.78 385.76C481.78 385.76 481.76 385.74 481.71 385.71C481.36 385.73 481.16 385.74 481.12 385.74C480.64 385.76 480.14 385.81 479.61 385.85C478.79 385.92 477.94 386.01 477.14 386.01C476.59 386.01 476.11 385.97 475.66 385.9C473.87 385.6 472.69 384.32 471.63 383.18C471.4 382.93 470.25 381.68 468.18 379.43C468 379.44 467.91 379.45 467.89 379.45C467.63 379.47 467.38 379.27 467.31 379.02C466.81 377.05 466.31 375.06 465.85 373.07C465.51 374.35 462.79 384.55 462.45 385.83C462.38 386.08 462.19 386.22 461.9 386.26C461.89 386.27 461.79 386.28 461.78 386.29C461.71 386.54 461.46 386.72 461.21 386.72C461.07 386.72 460.94 386.65 460.82 386.54C460.82 386.53 460.78 386.48 460.71 386.4C456.51 386.87 454.18 387.13 453.71 387.18C453.58 387.2 453.39 387.22 453.19 387.27C452.82 387.43 452.41 387.5 452.05 387.5C451.79 387.5 451.61 387.45 451.5 387.38ZM440.57 374.4C441.07 375.7 441.55 376.87 442.03 378.01C442.29 378.65 442.56 379.27 442.83 379.89C442.93 380.09 443.27 380.16 443.57 380.18C443.57 380.18 443.57 380.18 443.59 380.18C447.26 383.45 449.31 385.26 449.71 385.62C449.9 385.78 450.08 385.97 450.29 386.17C450.7 386.58 451.11 386.99 451.57 387.25C451.68 387.31 451.84 387.34 452.05 387.34C452.39 387.34 452.82 387.25 453.19 387.18C453.39 387.13 453.58 387.11 453.74 387.09C454.21 387.03 456.57 386.77 460.82 386.29C460.92 386.41 460.97 386.48 460.98 386.49C461.07 386.58 461.17 386.63 461.26 386.63C461.44 386.63 461.65 386.47 461.69 386.24C461.69 386.24 461.7 386.22 461.71 386.19C461.85 386.18 461.93 386.17 461.94 386.17C462.1 386.15 462.31 386.08 462.35 385.85C462.59 384.96 463.78 380.52 465.92 372.53C465.96 372.7 465.98 372.8 465.99 372.82C466.49 374.9 466.99 377.01 467.52 379.06C467.57 379.25 467.75 379.38 467.93 379.38C467.96 379.38 468.08 379.37 468.3 379.36L468.34 379.38C470.43 381.65 471.59 382.9 471.82 383.15C472.89 384.32 474.01 385.53 475.75 385.83C476.18 385.9 476.66 385.94 477.21 385.94C478.03 385.94 478.86 385.85 479.68 385.78C480.21 385.74 480.71 385.69 481.19 385.67C481.23 385.67 481.44 385.65 481.83 385.62C481.95 385.73 482.02 385.79 482.03 385.81C482.08 385.85 482.13 385.85 482.19 385.85C482.31 385.85 482.42 385.76 482.45 385.65C482.45 385.64 482.45 385.62 482.45 385.58C485.49 385.41 487.18 385.32 487.52 385.3C487.79 385.28 487.89 385.1 487.91 385.01C487.98 384.82 487.93 384.62 487.79 384.53C487.79 384.52 487.79 384.52 487.77 384.5C487.77 384.49 487.77 384.48 487.77 384.48C487.04 373.76 485.97 362.9 484.55 352.25C484.23 349.81 483.86 347.22 483.47 344.57C483.41 344.09 483.34 343.59 483.27 343.09C482.97 340.94 482.67 338.74 482.01 336.66C480.89 333.21 478.1 330.47 474.54 329.33C474.53 329.32 474.52 329.32 474.49 329.3L474.4 328.87C474.43 328.85 474.44 328.85 474.45 328.85C474.58 328.73 474.65 328.53 474.61 328.37C474.58 328.27 474.51 328.14 474.31 328.09C474.31 328.09 474.29 328.09 474.26 328.09C474.25 328.06 474.24 328.05 474.24 328.05C474.19 327.77 473.97 327.73 473.87 327.73C473.74 327.73 473.6 327.79 473.51 327.91C473.51 327.91 473.5 327.92 473.49 327.93C473.46 327.93 473.44 327.93 473.44 327.93C469.26 327.11 465.01 326.67 460.75 326.67C459.13 326.67 457.49 326.74 455.86 326.86C455.7 326.88 455.5 326.95 455.45 327.18C455.15 328.47 453.62 334.92 450.88 346.54L448 336.85C448.01 336.83 448.02 336.82 448.02 336.82C448.07 336.75 448.09 336.69 448.09 336.62C448.09 336.55 448.05 336.5 447.98 336.46C447.97 336.45 447.93 336.43 447.86 336.39L447.84 336.34C447.25 334.38 446.92 333.29 446.86 333.07C446.83 333.01 446.81 332.91 446.79 332.82C446.72 332.53 446.65 332.18 446.42 332.05C445.84 331.74 442.95 330.22 437.74 327.47C437.72 327.41 437.72 327.37 437.71 327.36C437.69 327.22 437.55 327.09 437.42 327.06C432.21 326.24 426.93 325.85 421.71 325.9C421.49 325.9 421.37 326.03 421.35 326.13C421.28 326.29 421.3 326.49 421.42 326.63C421.42 326.63 421.43 326.64 421.44 326.65L421.44 326.67C417.98 358.22 416.06 375.74 415.68 379.25C415.68 379.34 415.7 379.43 415.79 379.52C415.89 379.61 416 379.68 416.09 379.68C416.12 379.68 416.27 379.66 416.55 379.63C416.56 379.66 416.57 379.68 416.57 379.68C416.62 379.75 416.64 379.79 416.69 379.84C417.05 380.3 417.53 380.73 417.99 381.14C418.22 381.35 418.45 381.55 418.65 381.76C419.08 382.17 422.48 385.44 422.9 385.85C423.38 386.31 423.91 386.74 424.57 386.77C424.8 386.77 425.05 386.79 425.3 386.79C426.4 386.79 427.54 386.7 428.64 386.61C429.23 386.56 429.83 386.51 430.42 386.47C430.67 386.45 431.91 386.38 434.15 386.24C434.19 386.28 434.21 386.3 434.22 386.31C434.33 386.4 434.49 386.35 434.58 386.24C434.58 386.24 434.59 386.23 434.61 386.22C435.63 386.16 436.21 386.13 436.32 386.13C437.51 386.06 437.83 384.96 438.1 383.89C438.17 383.68 438.22 383.47 438.29 383.27C439.18 380.48 439.93 377.51 440.5 374.45C440.5 374.43 440.49 374.33 440.48 374.15C440.53 374.3 440.57 374.38 440.57 374.4ZM451.79 386.33C451.34 385.93 449.09 383.93 445.03 380.32C445.17 380.33 445.24 380.34 445.26 380.34C445.97 380.39 446.72 380.43 447.43 380.43C447.43 380.43 447.47 380.43 447.52 380.43L454.33 386.19C453.74 386.26 453.41 386.3 453.35 386.31C453.28 386.31 453.17 386.33 453.05 386.35C452.8 386.38 452.48 386.45 452.23 386.45C452.02 386.45 451.89 386.4 451.79 386.33ZM451.89 386.22C451.95 386.26 452.05 386.29 452.23 386.29C452.48 386.29 452.78 386.22 453.03 386.17C453.14 386.15 453.26 386.13 453.33 386.13C453.37 386.12 453.58 386.1 453.97 386.06L447.47 380.57C447.46 380.57 447.45 380.57 447.45 380.57C446.79 380.57 446.13 380.55 445.46 380.5C446.75 381.65 451.24 385.65 451.89 386.22ZM454.81 386.06C454.81 386.01 454.79 385.97 454.74 385.94C454.31 385.58 452.13 383.74 448.21 380.43C448.33 380.43 448.4 380.43 448.41 380.43C449.39 380.39 450.45 380.3 451.63 380.09C451.64 380.09 451.68 380.08 451.75 380.07C451.72 380.14 451.71 380.18 451.7 380.18C451.68 380.23 451.68 380.32 451.77 380.39C452.17 380.75 454.14 382.56 457.69 385.81L454.81 386.13C454.81 386.08 454.81 386.06 454.81 386.06ZM454.81 385.81C454.86 385.85 454.9 385.9 454.93 385.94C455.09 385.92 455.89 385.83 457.35 385.67C453.93 382.56 452.04 380.83 451.66 380.48C451.59 380.41 451.54 380.32 451.54 380.23C450.49 380.41 449.51 380.5 448.59 380.55C449.84 381.6 454.19 385.28 454.81 385.81ZM423.43 385.21C422.72 384.55 422.03 383.86 421.35 383.22C421.01 382.88 420.66 382.56 420.32 382.22C420.15 382.05 418.8 380.74 418.63 380.57C418.56 380.5 418.45 380.39 418.33 380.25C418.15 380.05 417.97 379.84 417.76 379.63C417.75 379.63 417.71 379.59 417.62 379.52L419.98 379.34L420 379.36L426.83 385.78C426.29 385.81 425.98 385.83 425.92 385.83C425.67 385.87 425.44 385.87 425.21 385.87C424.64 385.87 424.05 385.81 423.43 385.21ZM418.45 380.16C418.56 380.3 418.65 380.41 418.74 380.48C418.91 380.64 420.27 381.96 420.43 382.13C420.78 382.47 421.12 382.79 421.46 383.13C422.15 383.79 422.83 384.48 423.54 385.12C424.27 385.81 424.98 385.76 425.92 385.71C425.96 385.71 426.15 385.71 426.49 385.69L419.93 379.52L417.99 379.66C418.2 379.89 418.35 380.05 418.45 380.16ZM427.38 385.71C427.36 385.69 427.36 385.65 427.31 385.62C426.87 385.2 424.63 383.09 420.59 379.29L423.29 379.09C423.31 379.1 423.31 379.11 423.31 379.11C423.36 379.13 423.41 379.18 423.47 379.2C423.48 379.2 423.48 379.21 423.5 379.22C427.04 382.82 429 384.81 429.39 385.21C429.51 385.33 429.71 385.26 429.76 385.12C429.78 385.07 429.81 384.98 429.71 384.89C429.33 384.5 427.42 382.57 423.98 379.09L424.11 379.04L426.13 378.88C426.14 378.89 426.15 378.9 426.15 378.9C428.23 381.21 430.51 383.36 432.91 385.33C432.92 385.33 432.98 385.37 433.07 385.44L427.41 385.76C427.39 385.73 427.38 385.72 427.38 385.71ZM427.41 385.53C427.43 385.55 427.45 385.58 427.47 385.62C427.99 385.59 432.12 385.36 432.64 385.33C430.31 383.41 428.09 381.28 426.03 379.04C425.92 379.05 425.32 379.09 424.25 379.18C427.57 382.54 429.41 384.4 429.78 384.78C429.9 384.89 429.92 385.03 429.87 385.17C429.81 385.3 429.67 385.42 429.51 385.42C429.42 385.42 429.33 385.37 429.26 385.3C428.67 384.71 423.95 379.93 423.36 379.34C423.31 379.31 423.27 379.29 423.22 379.25C423.07 379.26 422.31 379.32 420.94 379.43C424.82 383.09 426.97 385.12 427.41 385.53ZM458.19 385.67C458.19 385.62 458.17 385.6 458.13 385.55C457.72 385.18 455.69 383.33 452.05 380L452.21 379.98L452.23 380.02L452.23 380.02C452.23 380 452.23 379.98 452.23 379.98C452.87 379.86 453.53 379.7 454.4 379.47C454.49 379.45 454.58 379.43 454.65 379.38C454.65 379.38 454.67 379.37 454.7 379.36L460.09 385.53L458.22 385.74C458.2 385.7 458.2 385.67 458.19 385.67ZM458.24 385.44C458.29 385.49 458.31 385.51 458.33 385.55C458.43 385.54 458.93 385.49 459.82 385.39C456.73 381.87 455.02 379.91 454.67 379.52C454.61 379.54 454.54 379.57 454.45 379.59C453.62 379.84 452.98 379.98 452.39 380.09C453.56 381.16 457.65 384.91 458.24 385.44ZM455.34 378.79C455.31 378.77 455.27 378.72 455.22 378.7C455.22 378.7 455.2 378.69 455.18 378.67C455.19 378.65 455.2 378.63 455.2 378.63C455.29 378.33 455.38 378.06 455.45 377.76C455.46 377.73 455.51 377.57 455.59 377.28C459.2 380.76 461.2 382.7 461.6 383.09C461.71 383.2 461.92 383.13 461.99 382.99C462.01 382.95 462.03 382.86 461.94 382.77C461.53 382.37 459.47 380.38 455.75 376.8C455.76 376.77 455.77 376.76 455.77 376.75C456.41 374.65 457.03 372.48 457.67 370.15C457.67 370.14 457.69 370.09 457.71 370.01C457.77 370.07 457.8 370.1 457.81 370.1C459.86 372.25 461.76 374.54 463.45 376.94C463.52 377.03 463.59 377.03 463.63 377.03C463.66 377.03 463.68 377.03 463.68 377.03C463.69 377.03 463.73 377.02 463.79 377.01L463.02 379.95C462.96 379.89 462.93 379.85 462.93 379.84C461.1 377.71 459.25 375.59 457.39 373.55C457.28 373.44 457.1 373.49 457.03 373.65C457.01 373.69 456.98 373.78 457.07 373.9C459.02 376.05 460.96 378.26 462.83 380.46C462.84 380.46 462.84 380.47 462.86 380.48L462.86 380.53L461.58 385.35L461.14 385.42C457.66 381.44 455.72 379.23 455.34 378.79ZM455.45 378.7C455.84 379.13 457.76 381.32 461.21 385.26L461.44 385.23C461.76 384.04 461.93 383.38 461.97 383.25C461.83 383.34 461.65 383.31 461.51 383.2C461.12 382.83 459.17 380.95 455.66 377.58C455.62 377.71 455.59 377.79 455.59 377.81C455.52 378.06 455.45 378.33 455.36 378.61C455.38 378.63 455.43 378.65 455.45 378.7ZM462.06 382.65C462.08 382.67 462.1 382.7 462.13 382.72C462.19 382.5 462.66 380.75 462.72 380.53C460.85 378.33 458.93 376.14 456.98 373.99C456.87 373.87 456.85 373.71 456.91 373.58C456.98 373.44 457.12 373.33 457.26 373.33C457.35 373.33 457.44 373.37 457.51 373.44C459.31 375.45 461.14 377.53 462.95 379.63C463.01 379.39 463.55 377.43 463.61 377.19C463.5 377.19 463.41 377.12 463.34 377.03C461.67 374.67 459.82 372.41 457.81 370.31C457.14 372.57 456.55 374.67 455.93 376.73C457.16 377.92 461.44 382.06 462.06 382.65ZM433.74 385.39C431.27 383.41 428.94 381.23 426.81 378.93C426.8 378.92 426.77 378.88 426.7 378.81C426.85 378.8 426.93 378.79 426.95 378.79C427.75 378.72 428.5 378.67 429.1 378.22C429.1 378.21 429.12 378.2 429.17 378.17L435.11 385.3L433.74 385.39C433.74 385.39 433.74 385.39 433.74 385.39ZM433.76 385.21C433.83 385.21 434.16 385.18 434.77 385.14C431.38 381.07 429.5 378.81 429.12 378.35C428.53 378.81 427.79 378.88 427.02 378.93C429.1 381.19 431.38 383.29 433.76 385.21ZM429.71 377.46C429.73 377.44 429.74 377.42 429.74 377.42C429.9 377.05 429.99 376.62 430.06 376.21C430.08 376.07 430.1 375.91 430.15 375.77C430.15 375.76 430.16 375.72 430.17 375.63L430.26 375.7C434.4 379.72 436.71 381.95 437.17 382.4C437.23 382.47 437.3 382.49 437.39 382.45C437.4 382.44 437.45 382.42 437.53 382.38C437.5 382.47 437.49 382.53 437.49 382.54C437.3 383.09 437.14 383.59 437.01 384.05C436.98 384.09 436.96 384.16 436.96 384.23C436.85 384.62 436.71 385.14 436.25 385.19C436.25 385.19 436.21 385.21 436.16 385.23L429.71 377.46ZM436.23 385.1C436.23 385.1 436.23 385.1 436.23 385.1C436.59 385.05 436.71 384.59 436.82 384.25C436.85 384.18 436.87 384.11 436.89 384.05C437.03 383.61 437.19 383.15 437.35 382.65C437.26 382.65 437.17 382.61 437.1 382.54C436.42 381.88 430.97 376.61 430.29 375.95C430.26 376.05 430.24 376.16 430.22 376.27C430.13 376.64 430.03 377.1 429.87 377.46C430.72 378.48 432.84 381.03 436.23 385.1ZM472.37 382.51C472.16 382.3 471.16 381.21 469.35 379.25L471.34 379.06L471.36 379.09L477.14 385.01C476.92 385.01 476.8 385.01 476.78 385.01C476.69 385.01 476.62 385.01 476.53 385.01C476.52 385.01 476.51 385.01 476.48 385.01C474.48 384.17 473.11 383.34 472.37 382.51ZM472.48 382.42C473.58 383.63 474.72 384.87 476.48 384.87C476.48 384.87 476.52 384.87 476.53 384.87C476.62 384.87 476.69 384.87 476.78 384.87C476.78 384.87 476.78 384.87 476.78 384.87L471.27 379.22L469.67 379.36C471.36 381.2 472.29 382.22 472.48 382.42ZM471.93 378.99L474.56 378.74C474.57 378.76 474.58 378.76 474.58 378.77C476.5 380.87 478.56 382.88 480.73 384.71C480.74 384.72 480.79 384.75 480.87 384.82C480.76 384.82 480.7 384.82 480.69 384.82C479.59 384.89 478.65 384.94 477.78 384.96C477.78 384.96 477.77 384.97 477.76 384.98L471.93 378.99ZM477.83 384.85C478.63 384.82 479.5 384.78 480.5 384.73C478.4 382.93 476.37 380.98 474.51 378.93C474.36 378.94 473.61 379.01 472.25 379.13C475.6 382.56 477.46 384.46 477.83 384.85ZM481.51 384.78C479.29 382.93 477.19 380.91 475.22 378.79C475.22 378.78 475.18 378.74 475.11 378.67L478.58 378.35L478.63 378.4L484.23 384.62C484.13 384.62 484.08 384.62 484.07 384.62C483.22 384.69 482.4 384.73 481.55 384.78C481.55 384.78 481.55 384.79 481.53 384.8C481.52 384.79 481.51 384.78 481.51 384.78ZM481.6 384.64C482.38 384.59 483.15 384.55 483.91 384.48C483.55 384.08 481.76 382.09 478.54 378.51L475.45 378.81C478.1 381.51 480.15 383.45 481.6 384.64ZM479.15 378.31C479.43 378.28 479.58 378.27 479.61 378.26C479.89 378.24 480.02 378.01 480.02 377.81C480.02 377.8 480.02 377.74 480.02 377.65C479.97 377.58 479.94 377.54 479.93 377.53C479.86 377.44 479.75 377.39 479.61 377.42C478.88 377.49 475.2 377.83 468.59 378.45C468.53 378.38 468.49 378.34 468.48 378.33C468.39 378.24 468.3 378.19 468.21 378.19C468.2 378.19 468.18 378.19 468.14 378.19C468.12 378.17 468.12 378.15 468.11 378.15C467.36 375.2 466.63 372.11 465.9 368.98C465.9 368.98 465.89 368.96 465.87 368.91C465.9 368.9 465.92 368.89 465.92 368.89C465.99 368.87 466.06 368.78 466.06 368.71C466.06 368.66 466.06 368.59 466.01 368.5C465.98 368.46 465.72 368.15 465.69 368.11C464.41 362.51 463.22 356.8 462.17 351.18C462.13 350.95 461.92 350.88 461.76 350.88C461.58 350.88 461.39 350.97 461.35 351.18C459.41 360.34 457.03 369.53 454.29 378.51C454.28 378.52 454.28 378.53 454.26 378.56C454.24 378.56 454.22 378.56 454.22 378.56C451.22 379.38 448.11 379.68 444.98 379.43C444.48 379.38 444 379.31 443.63 379.27C443.36 379.22 443.18 378.72 443.02 378.26C442.99 378.19 442.97 378.15 442.97 378.13C442.67 377.39 442.35 376.62 441.94 375.66C441.58 374.74 441.19 373.76 440.71 372.5C440.71 372.5 440.71 372.49 440.71 372.48C440.74 372.32 440.75 372.22 440.75 372.21C440.8 371.93 440.62 371.75 440.43 371.68C440.43 371.68 440.43 371.67 440.41 371.66C440.34 371.48 440.3 371.38 440.3 371.36C440.25 371.25 440.21 371.13 440.16 371.02C437.9 364.94 435.93 358.54 434.29 352C434.24 351.79 434.1 351.7 433.92 351.7C433.71 351.7 433.46 351.86 433.44 352.14C432.89 356.37 432.21 360.69 431.43 365.01C431.43 365.01 431.42 365.04 431.41 365.1C431.35 365.08 431.32 365.08 431.31 365.07C431.2 365.03 431.06 365.1 431.02 365.21C430.99 365.26 430.97 365.35 431.06 365.44C431.08 365.46 431.15 365.53 431.29 365.67C431.29 365.7 431.29 365.71 431.29 365.71C431.15 366.49 430.99 367.27 430.86 368.05C430.86 368.05 430.86 368.06 430.86 368.09C430.83 368.11 430.81 368.11 430.81 368.11C430.72 368.14 430.65 368.21 430.63 368.3C430.61 368.34 430.61 368.43 430.7 368.5C430.7 368.51 430.72 368.53 430.77 368.57C430.77 368.6 430.77 368.61 430.77 368.62C430.61 369.42 430.45 370.22 430.29 371.02C430.28 371.03 430.27 371.09 430.24 371.2C430.19 371.17 430.15 371.16 430.15 371.15C430.03 371.11 429.9 371.18 429.85 371.29C429.83 371.34 429.81 371.43 429.9 371.52C429.91 371.54 429.98 371.61 430.1 371.75C430.1 371.78 430.1 371.79 430.1 371.79C429.92 372.64 429.74 373.49 429.55 374.33C429.55 374.34 429.55 374.39 429.53 374.47C429.37 374.3 429.28 374.21 429.26 374.19C429.14 374.08 428.94 374.15 428.89 374.29C428.87 374.33 428.85 374.42 428.94 374.51C428.97 374.55 429.14 374.71 429.44 374.99C429.36 375.36 429.31 375.57 429.3 375.61C429.28 375.73 429.26 375.86 429.23 375.98C429.19 376.25 429.14 376.53 429.05 376.78C429.05 376.78 429.04 376.8 429.03 376.82C429 376.82 428.99 376.82 428.98 376.82C428.85 376.82 428.71 376.91 428.64 377.05C428.55 377.19 428.55 377.35 428.62 377.49C428.62 377.49 428.63 377.5 428.64 377.53C428.61 377.56 428.6 377.57 428.59 377.58C428.48 377.67 428.37 377.76 428.23 377.81C427.75 377.99 427.15 378.01 426.58 378.01C426.35 378.01 426.13 378.01 425.94 378.03C425.37 378.08 422.5 378.31 417.33 378.72C417.31 378.68 417.3 378.66 417.3 378.65C417.26 378.47 417.14 378.29 416.91 378.29C416.87 378.29 416.82 378.29 416.8 378.31C416.78 378.31 416.75 378.33 416.75 378.33C416.75 378.33 416.7 378.35 416.62 378.38L422.29 326.74C422.48 326.74 422.58 326.74 422.61 326.74C427.27 326.74 431.93 327.09 436.5 327.77C436.5 327.77 436.51 327.77 436.53 327.77L437.03 328.02C437.03 328.04 437.03 328.04 437.03 328.05C439.86 338.61 443.57 349.03 448.05 359.04C448.11 359.18 448.23 359.25 448.39 359.25C448.57 359.25 448.78 359.13 448.82 358.93C448.98 358.24 449.79 354.84 451.25 348.71L451.31 348.66L451.36 348.69C451.48 348.75 451.55 348.79 451.57 348.8C451.73 348.89 451.86 348.78 451.91 348.64C451.93 348.59 451.93 348.48 451.82 348.41C451.75 348.37 451.68 348.34 451.61 348.3C451.6 348.29 451.53 348.25 451.41 348.18L451.38 348.14L451.38 348.09L456.23 327.63C456.26 327.63 456.27 327.63 456.27 327.63C457.78 327.52 459.29 327.47 460.78 327.47C465.05 327.47 469.3 327.91 473.49 328.73C473.49 328.73 473.5 328.73 473.53 328.73L473.6 329.07C473.57 329.09 473.56 329.1 473.55 329.1C473.42 329.19 473.33 329.39 473.37 329.58C473.39 329.67 473.44 329.83 473.67 329.87C473.67 329.88 473.71 329.88 473.76 329.9C473.76 329.92 473.76 329.94 473.76 329.94C475.11 336.94 476.32 344.11 477.3 351.27C477.3 351.27 477.3 351.28 477.3 351.29C477.3 351.31 477.3 351.31 477.3 351.31C477.28 351.41 477.28 351.47 477.33 351.54C477.33 351.55 477.35 351.58 477.35 351.59C477.49 352.53 477.6 353.46 477.74 354.4C477.74 354.41 477.75 354.44 477.76 354.49C477.71 354.49 477.67 354.49 477.67 354.49C477.67 354.49 477.67 354.49 477.67 354.49C477.53 354.49 477.46 354.58 477.44 354.67C477.42 354.72 477.42 354.83 477.55 354.9C477.6 354.93 477.65 354.95 477.71 354.99C477.76 355.02 477.78 355.04 477.83 355.06C477.83 355.06 477.84 355.07 477.85 355.09C477.85 355.11 477.85 355.13 477.85 355.13C478.15 357.37 478.38 359.34 478.61 361.17C478.61 361.17 478.61 361.17 478.61 361.19C478.59 361.2 478.58 361.21 478.58 361.21C478.56 361.26 478.49 361.37 478.61 361.49C478.61 361.49 478.61 361.49 478.63 361.51L478.63 361.53C478.67 361.85 478.69 362.02 478.7 362.06C478.79 362.83 478.88 363.59 478.95 364.37C478.95 364.37 478.95 364.4 478.95 364.46C478.89 364.46 478.86 364.46 478.86 364.46C478.77 364.46 478.65 364.53 478.63 364.62C478.61 364.66 478.61 364.75 478.7 364.82C478.72 364.84 478.83 364.94 479.04 365.12C479.04 365.13 479.04 365.14 479.04 365.14C479.18 366.47 479.29 367.59 479.41 368.62C479.41 368.62 479.41 368.64 479.41 368.66C479.39 368.68 479.38 368.68 479.38 368.69C479.34 368.73 479.29 368.8 479.29 368.85C479.29 368.89 479.31 368.94 479.36 368.98C479.36 368.99 479.39 369.01 479.43 369.05C479.43 369.07 479.43 369.07 479.43 369.07C479.7 371.91 479.93 374.7 480.14 377.42C480.14 377.43 480.15 377.49 480.16 377.6C480.2 377.65 480.22 377.69 480.23 377.69C480.32 377.81 480.46 377.87 480.62 377.87C480.71 377.87 480.8 377.85 480.87 377.78C480.87 377.78 480.9 377.76 480.94 377.74L486.56 384.39C486.46 384.39 486.41 384.39 486.4 384.39C485.97 384.41 485.55 384.43 485.12 384.48C485.1 384.49 484.99 384.53 484.8 384.59L479.15 378.31ZM484.87 384.43C484.99 384.42 485.06 384.41 485.07 384.41C485.44 384.39 485.83 384.37 486.19 384.34C485.66 383.71 481.38 378.67 480.85 378.03C480.64 378.15 480.34 378.13 480.16 377.97C480.09 378.19 479.93 378.4 479.63 378.42C479.62 378.42 479.57 378.43 479.47 378.45L484.87 384.43ZM442.13 375.63C442.51 376.59 442.83 377.39 443.15 378.1C443.18 378.13 443.18 378.19 443.2 378.26C443.27 378.51 443.5 379.15 443.7 379.18C444.07 379.22 444.57 379.29 445.05 379.34C448.14 379.59 451.22 379.29 454.19 378.49C456.94 369.53 459.31 360.34 461.26 351.2C461.33 350.9 461.58 350.77 461.83 350.77C462.06 350.77 462.33 350.9 462.38 351.2C463.43 356.82 464.62 362.51 465.9 368.11C465.93 368.15 466.16 368.42 466.19 368.46C466.29 368.55 466.31 368.66 466.29 368.78C466.26 368.89 466.19 368.98 466.1 369.03C466.81 372.11 467.54 375.15 468.3 378.08C468.43 378.1 468.55 378.15 468.64 378.26C468.64 378.27 468.66 378.28 468.69 378.31C475.25 377.69 478.9 377.35 479.63 377.28C479.75 377.28 479.84 377.28 479.93 377.33C479.73 374.67 479.5 371.93 479.22 369.19C479.22 369.19 479.2 369.17 479.2 369.17C479.09 369.07 479.09 368.98 479.06 368.91C479.06 368.82 479.11 368.73 479.18 368.66C479.09 367.63 478.97 366.54 478.83 365.23C478.8 365.21 478.57 364.99 478.54 364.96C478.42 364.85 478.38 364.71 478.45 364.57C478.49 364.43 478.61 364.34 478.74 364.32C478.65 363.59 478.58 362.83 478.49 362.1C478.49 362.05 478.45 361.65 478.45 361.6C478.33 361.46 478.31 361.3 478.4 361.17C478.19 359.36 477.94 357.42 477.67 355.2C477.65 355.18 477.62 355.18 477.58 355.15C477.53 355.13 477.49 355.11 477.44 355.06C477.28 354.97 477.21 354.83 477.26 354.67C477.3 354.51 477.42 354.4 477.55 354.38C477.44 353.46 477.3 352.57 477.19 351.66C477.12 351.57 477.1 351.43 477.14 351.31C476.14 344.18 474.95 337.03 473.6 330.08C473.6 330.08 473.6 330.08 473.6 330.08C473.37 330.03 473.23 329.87 473.19 329.65C473.14 329.42 473.23 329.19 473.39 329.05C473.39 329.04 473.37 328.91 473.37 328.89C469.23 328.07 464.98 327.63 460.75 327.63C459.27 327.63 457.78 327.68 456.3 327.79C455.98 329.15 454.38 335.92 451.5 348.11C451.58 348.16 451.63 348.18 451.63 348.18C451.7 348.23 451.77 348.25 451.84 348.3C452 348.39 452.07 348.55 452.02 348.71C451.95 348.96 451.68 349.07 451.47 348.96C451.47 348.96 451.42 348.93 451.34 348.89C449.91 354.94 449.12 358.3 448.96 358.97C448.89 359.25 448.62 359.41 448.37 359.41C448.16 359.41 447.98 359.29 447.89 359.11C443.43 349.1 439.7 338.67 436.87 328.11C436.83 328.09 436.48 327.91 436.43 327.89C431.89 327.2 427.22 326.86 422.58 326.86C422.57 326.86 422.51 326.86 422.4 326.86C419.03 357.6 417.15 374.69 416.78 378.1C416.82 378.1 416.87 378.08 416.91 378.08C417.19 378.08 417.37 378.29 417.44 378.49C418.29 378.42 425.07 377.87 425.92 377.81C426.13 377.78 426.35 377.78 426.58 377.78C427.15 377.76 427.73 377.76 428.18 377.58C428.27 377.53 428.37 377.49 428.46 377.42C428.39 377.26 428.41 377.05 428.53 376.89C428.62 376.73 428.78 376.62 428.94 376.59C429.01 376.34 429.05 376.09 429.1 375.86C429.12 375.73 429.14 375.61 429.17 375.5C429.17 375.46 429.21 375.28 429.28 374.95C429.02 374.7 428.87 374.56 428.85 374.54C428.73 374.42 428.71 374.29 428.75 374.15C428.82 373.99 428.96 373.9 429.12 373.9C429.21 373.9 429.3 373.94 429.37 374.01C429.38 374.02 429.45 374.09 429.46 374.1C429.65 373.3 429.81 372.53 429.97 371.73C429.95 371.71 429.82 371.56 429.81 371.54C429.69 371.43 429.67 371.27 429.74 371.13C429.81 370.97 429.99 370.86 430.15 370.88C430.15 370.88 430.15 370.88 430.15 370.88C430.31 370.1 430.47 369.33 430.63 368.53C430.63 368.52 430.61 368.51 430.61 368.5C430.51 368.41 430.47 368.27 430.51 368.16C430.54 368.05 430.63 367.93 430.74 367.89C430.88 367.13 431.04 366.4 431.18 365.65C431.16 365.63 431.03 365.5 431.02 365.49C430.9 365.37 430.88 365.23 430.93 365.1C430.99 364.94 431.15 364.82 431.34 364.85C432.11 360.57 432.8 356.27 433.35 352.07C433.39 351.73 433.71 351.5 433.99 351.5C434.24 351.5 434.42 351.66 434.49 351.91C436.14 358.45 438.1 364.82 440.37 370.9C440.41 371.02 440.46 371.13 440.5 371.25C440.51 371.27 440.59 371.47 440.59 371.5C440.82 371.59 441.03 371.84 440.98 372.16C440.98 372.18 440.96 372.3 440.91 372.5C441.48 373.98 441.88 375.02 442.13 375.63ZM481.21 376.89C481.14 376.8 481.05 376.75 480.96 376.75C480.96 376.75 480.93 376.75 480.89 376.75C480.89 376.71 480.89 376.69 480.89 376.69C480.82 375.75 480.73 374.81 480.66 373.85C480.66 373.84 480.65 373.77 480.64 373.65L486.54 379.84C486.54 379.85 486.54 379.86 486.54 379.86C486.63 381.01 486.7 382.13 486.79 383.27C486.79 383.29 486.8 383.37 486.81 383.52C483.45 379.54 481.58 377.33 481.21 376.89ZM481.33 376.8C481.86 377.43 486.1 382.44 486.63 383.06C486.56 382.01 486.47 380.96 486.4 379.91C485.84 379.32 481.38 374.64 480.82 374.06C480.89 374.9 480.96 375.77 481.03 376.62C481.14 376.64 481.23 376.71 481.33 376.8ZM437.53 382.15C437.53 382.13 437.51 382.13 437.51 382.13C437.03 381.66 434.62 379.34 430.29 375.15C430.29 375.13 430.29 375.11 430.29 375.11C430.42 374.45 430.58 373.81 430.72 373.14C430.74 373.05 430.77 372.96 430.79 372.85C430.79 372.82 430.82 372.7 430.86 372.48L438.19 380.25C438.19 380.28 438.19 380.29 438.19 380.3C438.03 380.91 437.85 381.53 437.67 382.13C437.67 382.13 437.65 382.18 437.62 382.26C437.57 382.19 437.54 382.16 437.53 382.15ZM437.53 381.94C437.69 381.39 437.85 380.85 438.01 380.27C437.54 379.77 435.18 377.28 430.93 372.78C430.91 372.82 430.9 372.84 430.9 372.85C430.88 372.94 430.86 373.03 430.83 373.14C430.74 373.81 430.58 374.45 430.45 375.09C431.86 376.46 436.82 381.26 437.53 381.94ZM430.97 371.93C430.97 371.9 430.97 371.89 430.97 371.89C431.13 371.13 431.29 370.33 431.47 369.42C431.48 369.41 431.48 369.36 431.5 369.28C431.55 369.35 431.58 369.39 431.59 369.39C434.15 372.02 436.57 374.83 438.79 377.74C438.79 377.74 438.8 377.75 438.81 377.76C438.81 377.79 438.81 377.8 438.81 377.81C438.65 378.42 438.51 379.04 438.35 379.61C438.35 379.62 438.35 379.66 438.33 379.73L430.97 371.93ZM438.26 379.43C438.4 378.9 438.54 378.35 438.67 377.78C436.5 374.95 434.13 372.18 431.61 369.6C431.45 370.45 431.29 371.2 431.15 371.89C432.58 373.39 437.55 378.67 438.26 379.43ZM480.62 372.98C480.62 372.98 480.59 372.96 480.59 372.96C480.59 372.96 480.59 372.95 480.57 372.94C480.57 372.92 480.57 372.92 480.57 372.91C480.48 371.98 480.41 371.06 480.32 370.13C480.32 370.11 480.31 370.05 480.3 369.94C480.38 370.01 480.43 370.05 480.43 370.06C482.4 371.77 484.32 373.55 486.15 375.34C486.15 375.34 486.16 375.35 486.17 375.36C486.17 375.37 486.17 375.38 486.17 375.38C486.26 376.57 486.38 377.74 486.47 378.93C486.47 378.94 486.47 379.01 486.47 379.13C482.96 375.44 481.01 373.39 480.62 372.98ZM480.71 372.85C481.27 373.43 485.73 378.11 486.29 378.7C486.19 377.6 486.1 376.5 486.01 375.41C484.23 373.67 482.38 371.95 480.46 370.26C480.55 371.13 480.64 372 480.71 372.85C480.71 372.87 480.73 372.87 480.71 372.85ZM438.88 377.05C436.64 374.15 434.22 371.36 431.68 368.78C431.68 368.78 431.67 368.77 431.66 368.75C431.66 368.73 431.66 368.71 431.66 368.71C431.79 367.98 431.93 367.27 432.07 366.54C432.07 366.53 432.08 366.48 432.09 366.4C432.15 366.45 432.18 366.49 432.18 366.49C434.63 368.94 436.98 371.52 439.22 374.15C439.29 374.24 439.38 374.24 439.47 374.19C439.48 374.19 439.54 374.16 439.63 374.1C439.62 374.21 439.61 374.27 439.61 374.29C439.43 375.22 439.25 376.14 439.04 377.05C439.04 377.06 439.01 377.11 438.97 377.19C438.92 377.11 438.89 377.06 438.88 377.05ZM438.88 376.82C439.06 376.02 439.22 375.2 439.38 374.35C439.36 374.35 439.36 374.35 439.34 374.35C439.27 374.35 439.18 374.33 439.09 374.22C436.89 371.61 434.56 369.07 432.16 366.67C432.05 367.36 431.93 368.02 431.79 368.69C434.29 371.25 436.69 373.99 438.88 376.82ZM463.77 376.64C462.03 374.17 460.09 371.84 458.03 369.69C457.99 369.65 457.94 369.62 457.9 369.62C457.89 369.62 457.86 369.62 457.81 369.62C457.82 369.57 457.83 369.54 457.83 369.53C458.03 368.8 458.22 368.09 458.42 367.36C458.43 367.35 458.44 367.31 458.47 367.22C461.87 371.38 463.76 373.69 464.14 374.15C464.23 374.24 464.34 374.24 464.43 374.15C464.44 374.14 464.48 374.1 464.55 374.03C464.52 373.95 464.51 373.91 464.5 373.9C464.5 373.87 464.48 373.83 464.46 373.81C464.07 373.33 462.12 370.95 458.61 366.67C458.61 366.65 458.61 366.63 458.61 366.63C458.74 366.1 458.88 365.58 459.02 365.05C459.03 365.01 459.07 364.82 459.15 364.48L465.21 371.68L464.55 374.13L464.55 374.13L463.86 376.78C463.81 376.69 463.78 376.65 463.77 376.64ZM458.13 369.58C460.16 371.7 462.06 373.99 463.79 376.41C463.85 376.2 464.29 374.54 464.34 374.33C464.32 374.33 464.3 374.35 464.25 374.35C464.18 374.35 464.09 374.33 464 374.22C463.45 373.55 459.06 368.19 458.51 367.52C458.35 368.18 458.17 368.85 457.99 369.49C458.03 369.51 458.08 369.53 458.13 369.58ZM464.53 373.67L465.05 371.73L459.25 364.82C459.2 364.99 459.18 365.08 459.18 365.1C459.04 365.6 458.9 366.13 458.77 366.63C459.53 367.57 461.45 369.91 464.53 373.67ZM485.97 374.51C484.11 372.73 482.19 370.97 480.25 369.28C480.25 369.28 480.24 369.27 480.23 369.26C480.23 369.24 480.23 369.24 480.23 369.23C480.14 368.23 480.02 367.22 479.93 366.24C479.93 366.23 479.92 366.16 479.91 366.03C483.06 368.93 484.82 370.54 485.17 370.86C485.21 370.9 485.26 370.93 485.33 370.93C485.42 370.93 485.53 370.86 485.55 370.77C485.58 370.72 485.58 370.63 485.49 370.56C485.11 370.21 483.23 368.48 479.84 365.37C479.84 365.36 479.84 365.35 479.84 365.35C479.75 364.48 479.66 363.59 479.54 362.72C479.54 362.71 479.53 362.64 479.52 362.51L485.51 368.27C485.51 368.29 485.51 368.3 485.51 368.3C485.71 370.42 485.92 372.5 486.08 374.49C486.08 374.5 486.09 374.56 486.1 374.65C486.02 374.57 485.97 374.52 485.97 374.51ZM485.92 374.26C485.83 373.17 485.71 372.05 485.62 370.93C485.49 371.09 485.23 371.13 485.05 370.97C484.56 370.52 480.59 366.88 480.09 366.42C480.18 367.34 480.3 368.25 480.37 369.19C482.24 370.83 484.11 372.53 485.92 374.26ZM485.58 370.42C485.51 369.74 485.44 369.03 485.37 368.32C484.81 367.78 480.29 363.42 479.73 362.88C479.82 363.68 479.89 364.48 479.98 365.28C481.1 366.31 485.02 369.91 485.58 370.42ZM439.52 373.83C437.21 371.09 434.74 368.41 432.21 365.87C432.2 365.87 432.2 365.87 432.18 365.85C432.18 365.82 432.18 365.81 432.18 365.81C432.3 365.21 432.41 364.59 432.5 364C432.51 363.98 432.52 363.88 432.55 363.7C432.62 363.77 432.66 363.81 432.66 363.82C434.83 366.01 436.98 368.25 439.06 370.47C439.07 370.47 439.08 370.49 439.09 370.49C439.36 371.25 439.61 371.93 439.86 372.59C439.86 372.6 439.86 372.6 439.86 372.62C439.86 372.63 439.86 372.64 439.86 372.64C439.79 373.03 439.73 373.42 439.66 373.81C439.66 373.82 439.65 373.87 439.63 373.97C439.57 373.88 439.53 373.84 439.52 373.83ZM439.54 373.62C439.61 373.3 439.66 372.96 439.73 372.64C439.47 372 439.22 371.31 438.95 370.58C436.89 368.41 434.79 366.22 432.66 364.05C432.66 364.05 432.66 364.05 432.66 364.05C432.55 364.62 432.46 365.21 432.34 365.81C434.86 368.3 437.28 370.93 439.54 373.62ZM465.37 371.13L459.31 363.93C459.31 363.9 459.31 363.89 459.31 363.89C459.43 363.45 459.52 363.02 459.63 362.58C459.64 362.55 459.68 362.4 459.75 362.13L464.78 367.73C464.78 367.74 464.78 367.75 464.78 367.75C465.03 368.85 465.28 369.92 465.53 371.02C465.53 371.02 465.54 371.04 465.55 371.09C465.53 371.1 465.51 371.11 465.51 371.11C465.51 371.11 465.49 371.11 465.49 371.11C465.48 371.11 465.46 371.14 465.42 371.18L465.37 371.13ZM465.35 370.88C465.12 369.87 464.89 368.85 464.66 367.84C464.34 367.48 462.74 365.69 459.86 362.47C459.84 362.58 459.82 362.64 459.82 362.65C459.68 363.06 459.57 363.5 459.47 363.91C460.65 365.3 464.76 370.18 465.35 370.88ZM438.45 369.14C436.55 367.15 434.63 365.14 432.69 363.2C432.68 363.2 432.68 363.19 432.66 363.18C432.66 363.15 432.66 363.13 432.66 363.13C432.78 362.45 432.89 361.74 433.03 361.05C433.03 361.04 433.04 361 433.05 360.91C433.12 360.97 433.16 361 433.17 361.01C434.22 362.01 435.22 363.04 436.14 364.09C436.18 364.14 436.23 364.16 436.27 364.16C436.27 364.16 436.27 364.16 436.27 364.16C436.37 364.16 436.43 364.09 436.48 364C436.5 363.95 436.53 363.84 436.43 363.75C435.41 362.61 434.31 361.46 433.14 360.37C433.14 360.36 433.13 360.36 433.12 360.34C433.12 360.32 433.12 360.3 433.12 360.3C433.26 359.47 433.37 358.67 433.51 357.85C433.51 357.84 433.52 357.79 433.53 357.69C434.74 358.97 435.41 359.68 435.54 359.82C436.46 362.93 437.46 366.03 438.54 369.05C438.55 369.07 438.6 369.19 438.7 369.39C438.55 369.24 438.46 369.16 438.45 369.14ZM438.31 368.78C437.74 367.15 437.19 365.53 436.66 363.86C436.66 363.93 436.66 364 436.64 364.05C436.57 364.18 436.43 364.3 436.3 364.3C436.3 364.3 436.3 364.3 436.3 364.3C436.21 364.3 436.11 364.25 436.05 364.18C435.15 363.18 434.19 362.17 433.19 361.21C433.05 361.83 432.94 362.47 432.82 363.11C434.65 364.96 436.5 366.88 438.31 368.78ZM436.57 363.66C436.59 363.68 436.62 363.7 436.62 363.73C436.21 362.45 435.82 361.17 435.43 359.89C435.25 359.7 433.82 358.22 433.65 358.03C433.53 358.79 433.42 359.54 433.3 360.3C434.45 361.37 435.54 362.51 436.57 363.66ZM479.45 361.78C479.45 361.77 479.45 361.76 479.45 361.76C479.36 361.03 479.27 360.3 479.2 359.54C479.2 359.5 479.17 359.3 479.13 358.93L485.14 364.39C485.14 364.4 485.14 364.41 485.14 364.41C485.26 365.39 485.35 366.38 485.44 367.36C485.44 367.37 485.44 367.43 485.44 367.54L479.45 361.78ZM485.26 367.13C485.17 366.24 485.07 365.33 484.98 364.43C484.6 364.09 482.72 362.38 479.31 359.29C479.33 359.43 479.34 359.5 479.34 359.52C479.41 360.23 479.5 360.96 479.59 361.69C480.72 362.78 484.69 366.59 485.26 367.13ZM459.89 361.62C459.89 361.6 459.89 361.58 459.89 361.58C460.07 360.85 460.25 360.09 460.43 359.36C460.44 359.35 460.44 359.32 460.46 359.27L460.46 359.27C460.5 359.12 460.52 359.03 460.53 359.02C460.69 358.31 460.87 357.6 461.03 356.89C461.03 356.88 461.04 356.84 461.05 356.75C461.52 357.28 461.78 357.56 461.83 357.62C461.87 357.67 461.92 357.69 461.97 357.69C461.97 357.69 461.97 357.69 461.97 357.69C462.06 357.69 462.15 357.62 462.17 357.53C462.19 357.49 462.22 357.37 462.13 357.28C462.06 357.21 461.74 356.85 461.17 356.21C461.17 356.18 461.17 356.16 461.17 356.16C461.35 355.38 461.51 354.61 461.69 353.85C461.7 353.83 461.72 353.71 461.76 353.49C461.8 353.71 461.82 353.83 461.83 353.85C462.33 356.46 462.88 359.2 463.5 362.01C463.5 362.03 463.52 362.13 463.57 362.31C461.97 360.37 461.09 359.3 460.91 359.09C460.82 358.99 460.71 358.99 460.62 359.09C460.61 359.09 460.57 359.13 460.5 359.2C460.53 359.28 460.55 359.33 460.55 359.34C460.55 359.36 460.57 359.38 460.59 359.41C460.88 359.75 463.15 362.51 463.43 362.86C463.47 362.93 463.54 362.95 463.61 362.93C463.62 362.92 463.64 362.92 463.68 362.9C463.69 362.94 463.7 362.97 463.7 362.97C463.98 364.27 464.25 365.46 464.48 366.56C464.49 366.58 464.52 366.68 464.57 366.86L459.89 361.62ZM464.3 366.31C464.07 365.33 463.84 364.25 463.59 363.09C463.52 363.09 463.43 363.06 463.34 362.95C463.06 362.61 460.83 359.88 460.55 359.54C460.37 360.23 460.21 360.91 460.05 361.58C460.9 362.52 463.87 365.84 464.3 366.31ZM461.03 358.99C461.25 359.27 463.04 361.46 463.27 361.74C462.72 359.15 462.22 356.64 461.74 354.24C461.6 354.88 461.44 355.52 461.3 356.16C461.39 356.26 462.13 357.09 462.22 357.19C462.33 357.3 462.35 357.46 462.29 357.6C462.22 357.74 462.08 357.85 461.94 357.85C461.94 357.85 461.94 357.85 461.94 357.85C461.85 357.85 461.76 357.81 461.69 357.74C461.63 357.67 461.18 357.14 461.12 357.07C460.98 357.69 460.85 358.29 460.69 358.9C460.73 358.86 460.75 358.86 460.78 358.86C460.85 358.86 460.94 358.88 461.03 358.99ZM479.02 358.22C479.02 358.2 479.02 358.2 479.02 358.19C478.93 357.53 478.86 356.87 478.77 356.18C478.76 356.15 478.74 355.97 478.7 355.66C478.78 355.71 478.83 355.74 478.83 355.75C481.01 357.1 482.97 358.74 484.69 360.66C484.69 360.66 484.69 360.67 484.71 360.69C484.71 360.7 484.71 360.71 484.71 360.71C484.82 361.62 484.91 362.56 485.03 363.47C485.03 363.49 485.03 363.56 485.03 363.68L479.02 358.22ZM484.85 363.29C484.75 362.45 484.66 361.6 484.57 360.75C482.93 358.9 481.01 357.28 478.9 355.98C478.91 356 478.92 356.16 478.93 356.18C478.99 356.82 479.09 357.49 479.18 358.15C480.31 359.18 484.28 362.78 484.85 363.29ZM484.46 359.75C482.74 357.94 480.8 356.37 478.65 355.11C478.65 355.11 478.64 355.1 478.63 355.09C478.63 355.06 478.63 355.04 478.63 355.04C478.51 354.19 478.4 353.35 478.29 352.5C478.28 352.49 478.28 352.43 478.26 352.32C481.68 354.87 483.57 356.29 483.95 356.57C484.02 356.62 484.07 356.62 484.11 356.59C484.12 356.59 484.15 356.58 484.21 356.55C484.22 356.6 484.23 356.63 484.23 356.64C484.34 357.65 484.48 358.65 484.59 359.66C484.6 359.67 484.6 359.76 484.62 359.91C484.52 359.81 484.47 359.76 484.46 359.75ZM484.41 359.47C484.3 358.58 484.21 357.67 484.09 356.78C484.02 356.78 483.93 356.75 483.86 356.71C483.32 356.31 479.01 353.09 478.47 352.69C478.56 353.46 478.67 354.22 478.77 354.99C480.82 356.23 482.72 357.74 484.41 359.47ZM433.65 357.14C433.65 357.12 433.65 357.1 433.65 357.1C433.76 356.32 433.87 355.52 433.99 354.74C433.99 354.72 434.01 354.6 434.03 354.38C434.09 354.6 434.12 354.72 434.13 354.74C434.45 355.98 434.81 357.28 435.18 358.56C435.18 358.58 435.22 358.68 435.29 358.86L433.65 357.14ZM434.97 358.29C434.67 357.21 434.38 356.14 434.08 355.11C433.99 355.77 433.9 356.43 433.81 357.07C434.04 357.32 434.85 358.16 434.97 358.29ZM448.14 357.3C447.63 356.14 447.11 354.9 446.58 353.67C446.58 353.65 446.55 353.59 446.49 353.46C447.47 354.04 448.01 354.36 448.11 354.42C448.16 354.45 448.18 354.45 448.23 354.45C448.23 354.45 448.23 354.45 448.23 354.45C448.34 354.45 448.41 354.35 448.43 354.26C448.46 354.22 448.46 354.1 448.34 354.01C448.16 353.91 446.74 353.07 446.56 352.96C446.49 352.91 446.42 352.91 446.38 352.94C446.37 352.94 446.35 352.95 446.31 352.96C446.29 352.92 446.29 352.9 446.29 352.89C445.87 351.91 445.53 351.02 445.21 350.22C445.2 350.2 445.17 350.12 445.1 349.97C445.23 350.08 445.31 350.14 445.33 350.15C446.54 351.11 447.84 352 449.19 352.75C449.21 352.78 449.26 352.78 449.28 352.78C449.29 352.78 449.32 352.78 449.37 352.78L448.23 357.51C448.17 357.39 448.14 357.32 448.14 357.3ZM448.18 357.03C448.28 356.61 449.07 353.31 449.17 352.89C449.14 352.89 449.12 352.87 449.1 352.87C447.84 352.16 446.61 351.34 445.44 350.42C445.74 351.15 446.03 351.93 446.4 352.78C446.49 352.75 446.56 352.78 446.65 352.82C446.83 352.93 448.26 353.77 448.43 353.87C448.59 353.97 448.64 354.13 448.59 354.29C448.55 354.47 448.39 354.58 448.23 354.58C448.23 354.58 448.23 354.58 448.23 354.58C448.16 354.58 448.09 354.56 448.05 354.54C447.96 354.49 447.55 354.24 446.81 353.81C447.42 355.27 447.88 356.34 448.18 357.03ZM478.17 351.7C478.17 351.69 478.17 351.68 478.17 351.68C478.03 350.65 477.87 349.65 477.74 348.62C477.74 348.6 477.73 348.54 477.71 348.43C477.81 348.5 477.86 348.54 477.87 348.55C479.68 349.99 481.42 351.45 483.11 352.91C483.25 353.03 483.45 352.96 483.5 352.8C483.52 352.75 483.52 352.66 483.43 352.59C481.55 350.97 479.61 349.35 477.67 347.82C477.67 347.82 477.66 347.81 477.65 347.79C477.63 347.77 477.62 347.75 477.62 347.75C477.49 346.86 477.35 345.99 477.21 345.1C477.21 345.09 477.2 345.03 477.19 344.94C477.27 344.99 477.32 345.02 477.33 345.03C479.45 346.29 481.44 347.75 483.25 349.37C483.25 349.37 483.25 349.38 483.27 349.39C483.27 349.41 483.27 349.42 483.27 349.42C483.5 350.99 483.68 352.41 483.86 353.76C483.95 354.51 484.05 355.25 484.14 356C484.14 356.01 484.15 356.07 484.16 356.18L478.17 351.7ZM483.95 355.86C483.86 355.18 483.79 354.49 483.7 353.81C483.66 353.51 483.63 353.21 483.59 352.91C483.52 353.05 483.38 353.14 483.22 353.14C483.13 353.14 483.04 353.12 482.97 353.05C481.35 351.63 479.63 350.22 477.9 348.82C478.06 349.74 478.19 350.67 478.31 351.63C479.44 352.48 483.39 355.44 483.95 355.86ZM477.74 347.7C479.68 349.26 481.62 350.86 483.5 352.5C483.5 352.5 483.52 352.53 483.52 352.53C483.38 351.57 483.25 350.56 483.11 349.49C481.35 347.91 479.41 346.47 477.37 345.26C477.51 346.06 477.62 346.88 477.74 347.7C477.74 347.7 477.76 347.7 477.74 347.7ZM449.35 352.32C447.86 351.47 446.45 350.49 445.14 349.42C445.07 349.37 445.01 349.35 444.94 349.37C444.93 349.37 444.91 349.38 444.87 349.39C444.85 349.35 444.85 349.33 444.85 349.33C444.5 348.43 444.23 347.75 444 347.11C444 347.1 443.97 347.04 443.93 346.93C444.04 346.98 444.1 347.01 444.11 347.02C446.1 348.02 448.05 349.14 449.87 350.35C449.88 350.36 449.89 350.36 449.92 350.38L449.44 352.37C449.39 352.34 449.35 352.32 449.35 352.32ZM445.26 349.28C446.51 350.33 447.91 351.27 449.35 352.11C449.39 351.95 449.72 350.59 449.76 350.42C447.98 349.26 446.13 348.18 444.23 347.22C444.46 347.79 444.69 348.41 444.98 349.19C444.96 349.19 444.98 349.19 445.01 349.19C445.1 349.19 445.19 349.21 445.26 349.28ZM449.92 349.83C448 348.57 445.99 347.43 443.95 346.42C443.91 346.4 443.86 346.4 443.79 346.4C443.79 346.4 443.77 346.41 443.73 346.42C443.71 346.38 443.7 346.36 443.7 346.35C443.15 344.87 442.63 343.43 442.15 342.06C442.14 342.04 442.12 341.97 442.08 341.83C442.2 341.91 442.27 341.96 442.29 341.97C442.38 342.03 442.51 341.99 442.58 341.85C442.58 341.85 442.59 341.83 442.61 341.81C442.63 341.81 442.65 341.81 442.65 341.81C443.11 341.87 444.71 342.81 445.58 343.34C445.81 343.47 445.97 343.57 446.03 343.61C446.27 343.74 447.47 344.38 449.62 345.53L450.24 347.61C450.14 347.56 450.09 347.53 450.08 347.52C447.91 346.26 445.76 344.96 443.73 343.63C443.59 343.54 443.45 343.66 443.41 343.77C443.38 343.82 443.36 343.95 443.5 344.02C445.69 345.44 448 346.83 450.35 348.18C450.36 348.18 450.37 348.19 450.4 348.21L450.01 349.9C449.96 349.86 449.93 349.83 449.92 349.83ZM444.02 346.29C446.03 347.29 448.02 348.41 449.92 349.65C449.95 349.51 450.21 348.43 450.24 348.3C447.91 346.95 445.6 345.55 443.43 344.16C443.29 344.07 443.22 343.91 443.27 343.73C443.34 343.47 443.61 343.36 443.82 343.5C445.81 344.78 447.89 346.06 450.01 347.27C449.98 347.16 449.81 346.61 449.51 345.62C447.38 344.48 446.2 343.85 445.97 343.73C445.9 343.68 445.74 343.59 445.51 343.45C444.75 342.99 443.18 342.08 442.7 341.97C442.63 342.08 442.49 342.15 442.38 342.15C442.81 343.47 443.31 344.85 443.84 346.24C443.84 346.24 443.84 346.24 443.84 346.24C443.91 346.24 443.95 346.26 444.02 346.29ZM483.02 348.57C481.19 346.99 479.22 345.6 477.12 344.39C477.12 344.39 477.11 344.38 477.1 344.37C477.1 344.34 477.1 344.32 477.1 344.32C477.01 343.73 476.91 343.13 476.8 342.54C476.79 342.5 476.76 342.3 476.71 341.94C476.78 341.97 476.82 341.99 476.82 341.99C477.9 342.4 480.71 344.53 482.06 345.55C482.38 345.81 482.63 345.99 482.72 346.06C482.74 346.06 482.74 346.08 482.77 346.08C482.77 346.08 482.78 346.09 482.81 346.1C482.81 346.13 482.81 346.15 482.81 346.15C482.9 346.86 483.02 347.54 483.11 348.25C483.11 348.28 483.14 348.43 483.18 348.71C483.08 348.63 483.03 348.58 483.02 348.57ZM482.97 348.32C482.97 348.32 482.97 348.3 482.97 348.3C482.88 347.61 482.79 346.93 482.67 346.24C482.67 346.24 482.65 346.22 482.65 346.22C482.54 346.13 482.31 345.97 481.97 345.71C480.66 344.73 478.03 342.72 476.89 342.22C476.9 342.25 476.93 342.51 476.94 342.54C477.03 343.11 477.14 343.7 477.23 344.27C479.27 345.44 481.19 346.81 482.97 348.32ZM478.56 342.58C478.47 342.51 478.33 342.42 478.22 342.31C477.78 341.97 477.19 341.49 476.69 341.44C476.68 341.44 476.66 341.44 476.62 341.44C476.62 341.4 476.62 341.38 476.62 341.37C476.48 340.48 476.32 339.59 476.18 338.72C476.18 338.71 476.17 338.67 476.16 338.58C476.23 338.61 476.27 338.63 476.27 338.63C478.42 339.5 480.43 340.66 482.24 342.15C482.24 342.15 482.25 342.16 482.26 342.17C482.26 342.19 482.26 342.19 482.26 342.19C482.35 342.88 482.47 343.54 482.56 344.23C482.61 344.62 482.67 344.98 482.72 345.37C482.72 345.38 482.72 345.44 482.72 345.53C480.22 343.76 478.84 342.78 478.56 342.58ZM478.31 342.19C478.45 342.31 478.56 342.4 478.65 342.47C479.04 342.75 482.13 344.96 482.51 345.23C482.47 344.91 482.42 344.59 482.38 344.27C482.29 343.61 482.19 342.93 482.1 342.26C480.37 340.85 478.42 339.68 476.34 338.83C476.48 339.63 476.62 340.46 476.75 341.28C477.3 341.37 477.87 341.83 478.31 342.19ZM442.86 341.39C442.65 341.28 442.38 341.35 442.17 341.53C442.15 341.55 442.15 341.55 442.13 341.58C442.12 341.59 442.09 341.64 442.03 341.74C442.01 341.64 441.99 341.59 441.99 341.58C440.87 338.29 439.79 334.95 438.83 331.61C438.83 331.6 438.82 331.56 438.79 331.47C438.87 331.5 438.92 331.52 438.93 331.52C439.36 331.68 439.79 331.98 440.18 332.23C440.34 332.34 440.5 332.46 440.66 332.55C441.08 332.8 443.14 334.07 446.86 336.34L447.73 339.25C443.61 336.8 441.33 335.45 440.87 335.18C440.73 335.09 440.57 335.2 440.55 335.34C440.53 335.38 440.53 335.5 440.64 335.59C441.13 335.88 443.56 337.32 447.93 339.91L448.71 342.51C444.84 339.96 442.69 338.55 442.26 338.26C442.13 338.17 441.99 338.26 441.94 338.4C441.92 338.45 441.9 338.58 442.03 338.65C442.49 338.95 444.79 340.46 448.91 343.18L449.44 344.91C445.49 342.8 443.3 341.63 442.86 341.39ZM442.93 341.23C443.34 341.46 445.43 342.58 449.19 344.59L448.78 343.25C444.68 340.56 442.4 339.06 441.94 338.77C441.81 338.67 441.74 338.51 441.78 338.33C441.85 338.1 442.13 337.97 442.33 338.1C442.74 338.37 444.77 339.71 448.43 342.13L447.79 339.98C443.45 337.4 441.03 335.97 440.55 335.68C440.39 335.59 440.34 335.43 440.39 335.27C440.46 335.02 440.73 334.9 440.94 335.02C441.37 335.28 443.55 336.57 447.47 338.9L446.74 336.41C443.05 334.16 441 332.91 440.59 332.66C440.43 332.57 440.27 332.46 440.11 332.34C439.77 332.11 439.41 331.86 439.04 331.7C439.98 334.93 441.01 338.19 442.1 341.39C442.24 341.26 442.45 341.17 442.63 341.17C442.74 341.17 442.83 341.19 442.93 341.23ZM481.99 341.39C480.23 340.05 478.31 338.95 476.23 338.13C476.18 338.1 476.16 338.1 476.11 338.1C476.11 338.1 476.09 338.1 476.05 338.1C476.03 338.06 476.02 338.04 476.02 338.03C475.84 336.98 475.66 335.93 475.47 334.88C475.47 334.87 475.47 334.81 475.45 334.7C475.55 334.77 475.6 334.8 475.61 334.81C477.19 335.91 478.74 337.14 480.18 338.42C480.32 338.54 480.5 338.47 480.57 338.31C480.59 338.26 480.59 338.17 480.5 338.1C478.9 336.66 477.17 335.31 475.38 334.1C475.38 334.1 475.37 334.09 475.36 334.08C475.36 334.07 475.36 334.06 475.36 334.06C475.13 332.75 474.9 331.54 474.67 330.38C474.67 330.37 474.67 330.32 474.65 330.24C474.73 330.27 474.78 330.28 474.79 330.29C476.78 331.04 478.42 332.32 479.68 334.1C479.7 334.13 479.8 334.28 479.98 334.54C477.23 332.36 475.71 331.15 475.41 330.9C475.27 330.79 475.06 330.88 474.99 331.02C474.97 331.06 474.97 331.13 475.06 331.2C475.56 331.6 479.53 334.76 480.02 335.15C480.09 335.2 480.18 335.22 480.27 335.2C480.28 335.2 480.3 335.19 480.34 335.18C480.36 335.22 480.36 335.24 480.37 335.25C480.94 336.27 481.35 337.44 481.65 338.65C481.83 339.45 481.99 340.3 482.15 341.3C482.15 341.32 482.15 341.39 482.15 341.51C482.05 341.44 482 341.4 481.99 341.39ZM476.3 337.99C478.31 338.79 480.21 339.84 481.94 341.14C481.78 340.21 481.65 339.43 481.46 338.7C481.19 337.51 480.78 336.39 480.23 335.38C480.11 335.41 480 335.38 479.91 335.31C479.42 334.92 475.49 331.8 474.99 331.41C475.15 332.25 475.31 333.12 475.47 334.03C477.26 335.25 478.99 336.59 480.59 338.03C480.71 338.13 480.75 338.29 480.69 338.42C480.62 338.58 480.48 338.67 480.3 338.67C480.21 338.67 480.11 338.63 480.05 338.58C478.65 337.33 477.17 336.16 475.66 335.09C475.84 336.02 476.02 336.98 476.18 337.97C476.23 337.97 476.25 337.97 476.3 337.99ZM475.45 330.79C475.82 331.08 478.78 333.44 479.15 333.74C478.15 332.43 476.89 331.43 475.41 330.74C475.43 330.74 475.45 330.77 475.45 330.79ZM474.9 330.83C475.02 330.7 475.2 330.65 475.36 330.7C475.18 330.63 474.99 330.56 474.83 330.49C474.86 330.61 474.88 330.72 474.9 330.83ZM440.25 331.75C440.16 331.7 440.09 331.66 440 331.59C439.59 331.34 439.18 331.09 438.72 330.99C438.72 330.99 438.7 330.99 438.67 330.99C438.66 330.97 438.65 330.95 438.65 330.95C438.45 330.22 438.24 329.49 438.03 328.78C438.03 328.77 438.02 328.71 437.99 328.62C442.34 330.91 444.75 332.18 445.23 332.43C446.01 332.85 446.26 333.92 446.47 334.86C446.51 335.09 446.58 335.31 446.63 335.52C446.63 335.53 446.66 335.58 446.7 335.68C442.83 333.32 440.68 332.01 440.25 331.75ZM440.07 331.45C440.16 331.5 440.23 331.54 440.32 331.61C440.93 331.98 445.83 334.96 446.45 335.34C446.4 335.18 446.38 335.02 446.33 334.86C446.13 333.94 445.87 332.89 445.17 332.53C444.47 332.16 438.93 329.23 438.24 328.87C438.42 329.53 438.61 330.19 438.79 330.83C439.27 330.95 439.66 331.18 440.07 331.45Z" id="c8E8QmjcF"></path></defs><g><g><g><use xlink:href="#cPpLCUD22" opacity="1" fill="#000000" fill-opacity="1"></use><g><use xlink:href="#cPpLCUD22" opacity="1" fill-opacity="0" stroke="#000000" stroke-width="1" stroke-opacity="0"></use></g></g><g><use xlink:href="#c8E8QmjcF" opacity="1" fill="#180f0b" fill-opacity="1"></use><g><use xlink:href="#c8E8QmjcF" opacity="1" fill-opacity="0" stroke="#000000" stroke-width="1" stroke-opacity="0"></use></g></g></g></g></svg>