<?xml version="1.0" encoding="UTF-8" standalone="no"?>
<!DOCTYPE svg PUBLIC "-//W3C//DTD SVG 1.1//EN" "http://www.w3.org/Graphics/SVG/1.1/DTD/svg11.dtd">
<svg version="1.1" xmlns="http://www.w3.org/2000/svg" xmlns:xlink="http://www.w3.org/1999/xlink" preserveAspectRatio="xMidYMid meet" viewBox="170.97818182082403 411.8857142857143 51.37711330723687 62.514285714285734" width="51.38" height="62.51"><defs><path d="M219.41 426.17C219.25 426.1 219.11 426.03 218.95 425.97C216.32 421.69 212.3 418.24 207.54 416.27C206.67 415.91 205.81 415.61 204.91 415.34C203.75 414.61 202.49 414.03 201.17 413.62C196.87 412.32 192.07 412.39 187.61 412.25C182.56 412.11 177.53 412.16 172.48 412.41C172.46 411.79 171.47 411.82 171.47 412.46C171.09 430.65 170.95 448.87 171.06 467.06C171.06 467.34 171.29 467.57 171.57 467.57C171.61 467.57 171.63 467.57 171.68 467.57C171.63 467.77 171.68 468 171.89 468.14C173.55 469.33 175.25 470.54 176.91 471.73C178.4 472.78 179.84 474.01 181.71 474.19C183.75 474.4 185.87 474.26 187.91 474.24C190.15 474.24 192.39 474.22 194.63 474.22C195.06 474.22 195.2 473.76 195.06 473.46C195.13 473.37 195.18 473.26 195.18 473.12C194.56 467.06 194.35 460.98 194.54 454.9C194.61 455.04 194.74 455.13 194.95 455.13C196.27 455.15 197.58 455.15 198.9 455.11C198.99 455.18 199.09 455.22 199.18 455.29C199.38 455.43 199.59 455.27 199.61 455.09C200.55 455.04 201.49 454.99 202.4 454.9C202.47 454.95 202.56 455.02 202.63 455.06C202.83 455.2 203.04 455.04 203.06 454.86C203.66 454.81 204.23 454.74 204.8 454.67C207.73 454.33 210.74 453.92 213.49 452.82C216.07 451.79 218.01 449.92 219.43 447.63C219.59 447.59 219.7 447.43 219.66 447.25C220.82 445.23 221.58 442.95 221.97 440.71C222.81 435.75 221.74 430.88 219.38 426.7C219.59 426.58 219.68 426.29 219.41 426.17ZM214.35 431.02C214.31 430.51 214.24 430.01 214.15 429.51C216.37 430.83 218.58 432.14 220.8 433.46C220.94 434.15 221.05 434.83 221.12 435.54C218.88 434.01 216.64 432.5 214.35 431.02ZM220.64 432.64C218.42 431.31 216.23 430.01 214.01 428.69C213.87 428 213.67 427.29 213.46 426.63C215.59 427.52 217.67 428.53 219.68 429.65C220.07 430.61 220.39 431.61 220.64 432.64ZM213.19 425.9C212.91 425.12 212.57 424.37 212.21 423.61C212.71 423.79 213.35 424.18 213.6 424.3C214.22 424.57 214.81 424.82 215.43 425.1C215.67 425.2 217.59 426.04 217.83 426.15C218.38 426.99 218.86 427.84 219.27 428.75C217.3 427.68 215.27 426.74 213.19 425.9ZM217.21 425.21C216.48 424.89 215.75 424.57 215.02 424.25C214.29 423.93 213.55 423.61 212.82 423.29C212.53 423.15 212.21 422.95 211.86 422.9C211.54 422.31 211.18 421.71 210.81 421.17C212.09 421.44 213.33 421.78 214.56 422.22C214.61 422.22 214.63 422.22 214.65 422.22C215.59 423.15 216.46 424.14 217.21 425.21ZM209.44 419.31C209.92 419.22 210.38 419.18 210.86 419.2C211.82 419.82 212.73 420.5 213.58 421.23C212.53 420.91 211.43 420.64 210.33 420.43C210.06 420.05 209.76 419.68 209.44 419.31ZM209.01 418.79C208.59 418.33 208.16 417.9 207.73 417.46C208.48 417.83 209.21 418.22 209.94 418.63C209.62 418.65 209.3 418.72 209.01 418.79ZM192.41 413.46C195.38 413.62 198.38 413.83 201.23 414.7C202.01 414.93 202.77 415.25 203.45 415.61C203.45 415.82 203.57 416 203.82 416.07C204.11 416.14 204.39 416.23 204.66 416.32C206.06 417.23 207.27 418.35 208.39 419.63C210.54 422.1 212.07 425.17 212.82 428.37C212.75 428.48 212.78 428.64 212.91 428.75C213.28 430.38 213.42 432.05 213.37 433.71C213.17 439.18 209.99 443.59 205.17 445.99C199.31 448.89 192.48 448.32 186.17 447.82C186.13 447.82 186.08 447.82 186.06 447.82C185.76 447.7 185.35 447.84 185.35 448.27C185.35 451.52 185.35 454.74 185.35 457.99C185.1 458.03 184.94 458.4 185.23 458.54C185.28 458.56 185.33 458.58 185.35 458.61C185.35 461.19 185.35 463.77 185.35 466.35C180.94 466.63 176.53 466.72 172.11 466.61C171.98 448.85 172.11 431.13 172.48 413.42C179.13 413.1 185.76 413.12 192.41 413.46ZM193.53 463.68C193.55 464.69 193.6 465.67 193.67 466.67C191.45 464.59 188.98 462.81 186.33 461.3C186.33 461.08 186.33 459.29 186.33 459.06C188.85 460.34 191.2 461.85 193.39 463.61C193.44 463.66 193.49 463.66 193.53 463.68ZM186.33 456.25C188.64 457.92 190.93 459.59 193.23 461.28C193.33 461.35 193.39 461.35 193.46 461.33C193.46 461.87 193.49 462.42 193.51 462.97C191.29 461.19 188.89 459.66 186.33 458.4C186.33 457.97 186.33 456.47 186.33 456.25ZM186.4 455.57C186.38 455.54 186.35 455.54 186.33 455.52C186.33 455.39 186.33 454.37 186.33 454.24C186.72 454.4 187.13 454.77 187.41 454.93C188.05 455.31 188.66 455.7 189.28 456.11C190.42 456.85 191.54 457.65 192.62 458.45C192.94 458.67 193.23 458.15 192.91 457.92C191.73 457.05 190.49 456.21 189.26 455.38C188.64 454.97 188 454.58 187.38 454.19C187.06 453.99 186.7 453.69 186.33 453.58C186.33 453.43 186.33 452.24 186.33 452.09C186.45 452.14 186.61 452.07 186.65 451.95C186.65 451.95 186.65 451.93 186.67 451.93C187.52 452.05 188.94 453.23 189.46 453.58C190.51 454.26 191.57 454.95 192.62 455.63C192.94 455.84 193.26 455.31 192.91 455.11C191.66 454.31 190.42 453.49 189.17 452.69C188.5 452.25 187.2 451.2 186.31 451.36C186.31 451.18 186.31 449.76 186.31 449.58C188.55 451.34 190.95 452.87 193.51 454.15C193.46 456.3 193.44 458.49 193.46 460.69C191.11 458.97 188.75 457.26 186.4 455.57ZM177.44 470.86C175.91 469.76 174.4 468.69 172.87 467.59C173.78 467.61 174.67 467.61 175.59 467.61C175.75 468.02 176.02 468.32 176.41 468.59C177.23 469.17 178.1 469.71 178.93 470.29C180.43 471.29 181.92 472.27 183.43 473.28C183.11 473.28 182.79 473.28 182.47 473.26C180.46 473.19 179.02 471.98 177.44 470.86ZM184.48 473.23C184.05 472.95 180.65 470.68 180.23 470.4C179.57 469.97 178.93 469.53 178.26 469.1C177.67 468.71 176.71 468.27 176.27 467.61C177.21 467.61 178.17 467.59 179.11 467.57C178.95 467.68 178.88 467.95 179.11 468.09C181.78 469.67 184.34 471.41 186.81 473.28C186.03 473.3 185.28 473.3 184.55 473.3C184.53 473.28 184.5 473.26 184.48 473.23ZM179.41 467.59C179.41 467.59 179.41 467.59 179.41 467.59C180.62 467.57 181.83 467.52 183.02 467.45C185.46 469.6 188.05 471.54 190.81 473.26C189.78 473.28 188.78 473.28 187.77 473.3C185.1 471.22 182.31 469.33 179.41 467.59ZM191.7 473.12C188.94 471.43 186.33 469.53 183.89 467.43C184.23 467.41 184.55 467.38 184.89 467.38C187.82 469.35 190.72 471.29 193.65 473.26C193.05 473.23 192.43 473.23 191.82 473.26C191.79 473.21 191.75 473.17 191.7 473.12ZM186.33 466.79C186.33 466.6 186.33 465.1 186.33 464.91C188.59 466.51 190.81 468.16 192.98 469.9C193.28 470.15 193.71 469.71 193.42 469.46C191.18 467.68 188.87 465.94 186.51 464.3C186.45 464.25 186.4 464.23 186.33 464.25C186.33 464.03 186.33 462.24 186.33 462.01C189.01 463.57 191.47 465.42 193.71 467.57C193.81 469.14 193.94 470.72 194.08 472.32C191.47 470.56 188.87 468.8 186.26 467.06C186.31 466.99 186.33 466.9 186.33 466.79ZM194.54 454.35C194.54 454.17 194.54 453.99 194.56 453.81C194.56 453.65 194.47 453.44 194.31 453.37C191.79 452.11 189.39 450.63 187.18 448.89C188.53 449.01 189.9 449.1 191.25 449.14C191.25 449.19 191.29 449.26 191.34 449.3C193.33 451.02 195.38 452.62 197.51 454.15C196.64 454.17 195.79 454.17 194.95 454.15C194.77 454.15 194.63 454.22 194.54 454.35ZM192.11 449.19C193.19 449.21 194.26 449.21 195.34 449.19C195.36 449.21 195.38 449.26 195.41 449.28C197.19 450.99 199.11 452.57 201.1 454.03C200.25 454.08 199.38 454.13 198.51 454.15C196.32 452.59 194.17 450.93 192.11 449.19ZM202.03 453.97C199.95 452.5 197.99 450.88 196.14 449.14C197.14 449.07 198.15 448.98 199.15 448.82C199.11 448.94 199.15 449.07 199.29 449.17C201.3 450.45 203.11 451.98 204.75 453.69C204.62 453.71 204.53 453.71 204.41 453.74C203.63 453.83 202.83 453.9 202.03 453.97ZM205.37 453.49C203.68 451.68 201.81 450.08 199.73 448.73C200.46 448.59 201.17 448.46 201.87 448.25C201.87 448.25 201.87 448.25 201.87 448.25C203.73 449.94 205.55 451.66 207.41 453.35C206.74 453.46 206.08 453.53 205.44 453.62C205.44 453.58 205.42 453.53 205.37 453.49ZM202.54 448.07C202.93 447.95 203.31 447.82 203.7 447.68C203.73 447.7 203.75 447.7 203.77 447.73C203.86 447.77 204 447.79 204.07 447.73C204.09 447.7 204.14 447.68 204.16 447.66C204.16 447.66 204.16 447.66 204.16 447.66C204.75 448.11 206.26 449.76 206.49 449.97C207.52 450.95 208.55 451.93 209.55 452.91C209.58 452.94 209.62 452.96 209.65 452.98C209.19 453.07 208.69 453.17 208.16 453.26C206.29 451.52 204.41 449.81 202.54 448.07ZM210.01 452.46C208.71 451.2 207.41 449.97 206.1 448.71C205.62 448.25 205.12 447.79 204.66 447.29C205.23 447.04 205.78 446.79 206.33 446.49C206.51 446.61 206.81 446.54 206.79 446.26C206.83 446.56 207.84 447.25 208.07 447.47C208.64 448.02 209.21 448.55 209.78 449.1C210.81 450.08 211.84 451.04 212.87 452.02C211.93 452.41 210.97 452.69 209.99 452.89C210.1 452.78 210.15 452.59 210.01 452.46ZM208.48 447.06C208.18 446.79 207.79 446.24 207.36 445.92C207.93 445.55 208.5 445.14 209.03 444.71C211.02 446.58 213.01 448.48 214.97 450.35C215.25 450.63 215.68 450.19 215.41 449.92C213.44 448.05 211.45 446.17 209.49 444.3C209.78 444.02 210.08 443.73 210.38 443.43C212.43 444.82 214.33 446.45 216.02 448.27C216.3 448.57 216.71 448.14 216.46 447.84C214.74 446.01 212.85 444.37 210.79 442.97C211.2 442.49 211.59 441.99 211.93 441.46C214.29 443.18 216.5 445.05 218.63 447.06C217.35 449.07 215.63 450.77 213.44 451.77C211.79 450.19 210.13 448.62 208.48 447.06ZM212.25 440.96C212.55 440.48 212.82 439.98 213.05 439.45C213.72 439.98 219.04 444.24 219.7 444.78C219.73 444.8 219.75 444.8 219.77 444.82C219.52 445.42 219.25 445.99 218.93 446.54C216.82 444.53 214.58 442.67 212.25 440.96ZM213.42 438.97C213.37 438.95 213.35 438.93 213.3 438.9C213.49 438.45 213.67 437.97 213.81 437.49C213.83 437.39 213.85 437.3 213.87 437.23C216.14 438.65 218.38 440.09 220.59 441.62C220.66 441.67 220.73 441.69 220.8 441.67C220.57 442.54 220.32 443.41 220 444.25C217.81 442.49 215.61 440.73 213.42 438.97ZM220.89 441.1C220.89 441.1 220.89 441.1 220.89 441.1C218.63 439.54 216.34 438.06 214.03 436.62C214.24 435.77 214.35 434.93 214.42 434.06C216.43 435.47 218.38 437.01 220.25 438.63C220.55 438.88 220.98 438.47 220.69 438.19C218.77 436.53 216.78 434.97 214.72 433.51C214.63 433.44 214.54 433.44 214.47 433.46C214.49 432.89 214.49 432.34 214.45 431.77C216.71 433.26 218.97 434.77 221.21 436.32C221.21 437.07 221.23 437.85 221.19 438.63C221.14 439.45 221.05 440.27 220.89 441.1Z" id="b1Pp56u0CP"></path><path d="M181.71 474.29C180.07 474.13 178.74 473.14 177.46 472.21C177.28 472.07 177.07 471.93 176.89 471.79C176.39 471.44 172.37 468.56 171.86 468.21C171.68 468.07 171.59 467.86 171.61 467.63C171.61 467.63 171.59 467.63 171.59 467.63C171.27 467.63 171.02 467.36 171.02 467.06C170.9 448.94 171.04 430.56 171.43 412.46C171.43 412.09 171.73 411.89 172.02 411.89C172.27 411.89 172.53 412.02 172.59 412.34C175.82 412.18 179.02 412.11 182.13 412.11C183.98 412.11 185.83 412.14 187.63 412.18C188.23 412.21 188.82 412.21 189.44 412.23C193.39 412.32 197.46 412.41 201.21 413.55C202.51 413.94 203.77 414.54 204.98 415.27C205.87 415.54 206.77 415.86 207.61 416.21C212.32 418.17 216.39 421.62 219.04 425.92C219.08 425.94 219.43 426.08 219.47 426.1C219.61 426.15 219.68 426.26 219.68 426.38C219.68 426.49 219.61 426.63 219.52 426.7C221.99 431.09 222.88 435.93 222.06 440.73C221.65 443.11 220.87 445.37 219.75 447.27C219.77 447.34 219.75 447.43 219.7 447.5C219.66 447.59 219.57 447.66 219.5 447.68C217.94 450.17 215.93 451.93 213.53 452.89C210.79 453.97 207.86 454.38 204.85 454.74C204.34 454.81 203.79 454.86 203.15 454.93C203.11 455.09 202.97 455.2 202.81 455.2C202.81 455.2 202.81 455.2 202.81 455.2C202.74 455.2 202.67 455.18 202.61 455.13C202.56 455.11 202.54 455.09 202.49 455.04C202.48 455.03 202.41 454.98 202.4 454.97C201.49 455.04 200.57 455.11 199.68 455.15C199.63 455.31 199.5 455.43 199.34 455.43C199.27 455.43 199.2 455.41 199.13 455.36C199.11 455.34 198.91 455.2 198.88 455.18C197.55 455.22 196.23 455.22 194.95 455.2C194.81 455.2 194.7 455.15 194.61 455.09C194.45 461.1 194.65 467.15 195.27 473.1C195.29 473.23 195.25 473.37 195.18 473.46C195.25 473.65 195.22 473.85 195.13 474.01C195.04 474.17 194.86 474.26 194.65 474.26C193.98 474.27 188.6 474.28 187.93 474.29C187.36 474.29 186.79 474.31 186.22 474.31C185.58 474.38 184.91 474.4 184.27 474.4C183.29 474.4 182.47 474.35 181.71 474.29ZM171.57 412.46C171.18 430.58 171.04 448.94 171.15 467.06C171.15 467.29 171.34 467.5 171.59 467.5C171.6 467.5 171.67 467.5 171.79 467.5C171.78 467.55 171.77 467.58 171.77 467.59C171.73 467.79 171.77 467.98 171.93 468.09C172.43 468.45 176.46 471.32 176.96 471.68C177.14 471.82 177.35 471.95 177.53 472.09C178.79 473.01 180.09 473.97 181.71 474.13C182.47 474.19 183.27 474.24 184.25 474.24C184.89 474.24 185.55 474.22 186.19 474.22C186.77 474.19 187.34 474.19 187.91 474.19C188.58 474.19 193.96 474.17 194.63 474.17C194.81 474.17 194.93 474.08 194.97 473.99C195.06 473.85 195.06 473.67 194.99 473.53C194.99 473.53 194.99 473.51 194.97 473.49C195 473.46 195.01 473.44 195.02 473.44C195.09 473.37 195.11 473.28 195.11 473.14C194.51 467.13 194.29 461.01 194.47 454.93C194.47 454.91 194.47 454.82 194.47 454.65C194.55 454.79 194.6 454.86 194.61 454.88C194.65 454.97 194.77 455.09 194.95 455.09C196.23 455.11 197.55 455.11 198.88 455.06C198.88 455.06 198.89 455.06 198.9 455.06C199.08 455.19 199.18 455.25 199.2 455.27C199.25 455.29 199.27 455.31 199.31 455.31C199.43 455.31 199.5 455.2 199.52 455.11C199.52 455.1 199.52 455.08 199.52 455.04C199.56 455.04 199.58 455.04 199.59 455.04C200.5 454.99 201.44 454.95 202.38 454.86C202.38 454.86 202.39 454.86 202.4 454.86C202.48 454.91 202.53 454.94 202.54 454.95C202.58 454.97 202.61 454.99 202.65 455.04C202.79 455.13 202.95 455.02 202.97 454.88C202.97 454.88 202.97 454.86 202.97 454.83C203.01 454.83 203.04 454.83 203.04 454.83C203.7 454.77 204.25 454.72 204.78 454.65C207.79 454.31 210.72 453.9 213.44 452.82C215.84 451.89 217.83 450.15 219.36 447.66C219.36 447.66 219.37 447.65 219.38 447.63C219.4 447.63 219.4 447.63 219.41 447.63C219.47 447.61 219.52 447.57 219.57 447.5C219.59 447.45 219.61 447.38 219.59 447.34C219.59 447.34 219.59 447.33 219.59 447.31C219.6 447.3 219.61 447.29 219.61 447.29C220.71 445.39 221.51 443.13 221.92 440.78C222.72 436 221.83 431.18 219.36 426.79C219.36 426.78 219.34 426.76 219.31 426.72C219.36 426.69 219.38 426.68 219.38 426.67C219.47 426.63 219.54 426.54 219.54 426.45C219.54 426.38 219.5 426.33 219.43 426.29C219.4 426.27 219.24 426.2 218.95 426.08C218.93 426.07 218.93 426.06 218.93 426.06C216.3 421.78 212.25 418.33 207.57 416.39C206.72 416.02 205.83 415.73 204.94 415.45C204.93 415.45 204.92 415.45 204.91 415.45C203.73 414.72 202.47 414.13 201.17 413.74C197.44 412.59 193.37 412.5 189.44 412.41C188.82 412.39 188.23 412.39 187.63 412.37C185.83 412.32 183.98 412.3 182.13 412.3C178.99 412.3 175.77 412.37 172.53 412.53C172.52 412.53 172.5 412.53 172.46 412.53C172.46 412.48 172.46 412.46 172.46 412.46C172.41 412.16 172.21 412.05 172 412.05C171.79 412.05 171.57 412.18 171.57 412.46ZM184.53 473.39C184.52 473.39 184.52 473.39 184.5 473.39C184.49 473.38 184.48 473.37 184.48 473.37C184.46 473.35 184.46 473.35 184.43 473.33C183.81 472.91 178.84 469.6 178.22 469.19C178.06 469.1 177.9 468.98 177.71 468.89C177.17 468.57 176.55 468.21 176.21 467.7C176.2 467.7 176.18 467.66 176.14 467.59C176.22 467.59 176.27 467.59 176.27 467.59C177.12 467.59 178.01 467.57 179.11 467.54C179.14 467.54 179.38 467.54 179.41 467.54C180.59 467.52 181.81 467.47 183.02 467.41C183.02 467.41 183.03 467.41 183.04 467.41C183.05 467.42 183.06 467.43 183.06 467.43C185.49 469.55 188.09 471.5 190.83 473.23C190.85 473.24 190.93 473.29 191.06 473.37C190.91 473.37 190.83 473.37 190.81 473.37C189.81 473.39 188.8 473.39 187.79 473.39C187.79 473.39 187.79 473.39 187.77 473.39C187.76 473.38 187.75 473.37 187.75 473.37C185.07 471.29 182.26 469.37 179.38 467.68C179.38 467.68 179.34 467.65 179.27 467.61C179.21 467.65 179.18 467.68 179.18 467.68C179.11 467.73 179.06 467.82 179.06 467.91C179.06 467.95 179.09 468.02 179.18 468.09C181.85 469.67 184.43 471.41 186.88 473.28C186.89 473.29 186.95 473.33 187.06 473.42C186.93 473.42 186.85 473.42 186.83 473.42C186.56 473.37 186.31 473.39 186.06 473.39C185.55 473.39 185.03 473.39 184.53 473.39ZM186.58 473.23C184.18 471.41 181.67 469.71 179.06 468.18C178.95 468.11 178.88 468 178.88 467.89C178.88 467.82 178.9 467.75 178.93 467.68C177.99 467.7 177.17 467.7 176.41 467.7C176.73 468.11 177.28 468.46 177.78 468.73C177.97 468.85 178.15 468.94 178.29 469.05C178.91 469.47 183.88 472.77 184.5 473.19C184.53 473.19 184.55 473.21 184.57 473.23C185.23 473.23 185.9 473.23 186.58 473.23ZM187.79 473.23C188.71 473.23 189.62 473.21 190.54 473.21C187.89 471.52 185.35 469.62 182.99 467.57C181.87 467.59 180.75 467.63 179.66 467.66C182.47 469.33 185.19 471.2 187.79 473.23ZM183.31 473.37C183.04 473.37 182.74 473.37 182.47 473.35C180.66 473.3 179.34 472.34 177.92 471.31C177.74 471.18 177.58 471.06 177.39 470.93C177.08 470.7 175.48 469.56 172.62 467.52C172.77 467.52 172.85 467.52 172.87 467.52C173.74 467.54 174.63 467.54 175.59 467.54C175.59 467.54 175.61 467.54 175.63 467.54C175.65 467.57 175.66 467.59 175.66 467.59C175.79 467.95 176.05 468.25 176.46 468.53C177.05 468.94 177.65 469.33 178.24 469.71C178.49 469.87 178.74 470.03 178.99 470.22C179.31 470.43 180.88 471.48 183.7 473.37C183.47 473.37 183.34 473.37 183.31 473.37ZM177.49 470.79C177.67 470.93 177.83 471.04 178.01 471.18C179.38 472.18 180.69 473.14 182.47 473.19C182.7 473.19 182.95 473.21 183.18 473.21C182.75 472.93 179.31 470.64 178.88 470.35C178.63 470.19 178.38 470.03 178.13 469.85C177.53 469.46 176.94 469.07 176.34 468.66C175.93 468.39 175.66 468.07 175.52 467.7C174.67 467.7 173.9 467.7 173.12 467.68C173.99 468.3 177.05 470.48 177.49 470.79ZM191.75 473.28C191.73 473.23 191.7 473.21 191.66 473.19C188.91 471.52 186.29 469.6 183.84 467.47C183.83 467.47 183.79 467.43 183.7 467.36C183.85 467.35 183.94 467.34 183.95 467.34C184.27 467.31 184.57 467.31 184.89 467.29C184.89 467.29 184.9 467.29 184.91 467.29L184.94 467.31L193.9 473.33C193.75 473.33 193.66 473.33 193.65 473.33C193.19 473.33 192.73 473.33 192.25 473.35C192.22 473.35 192.06 473.34 191.77 473.33C191.76 473.3 191.75 473.28 191.75 473.28ZM191.75 473.05C191.79 473.07 191.84 473.12 191.89 473.17C191.92 473.17 192.24 473.17 192.27 473.17C192.66 473.17 193.03 473.17 193.42 473.14C193.42 473.14 193.41 473.13 193.39 473.12C188.29 469.69 185.46 467.79 184.89 467.41C184.62 467.45 184.34 467.47 184.09 467.47C186.49 469.53 189.07 471.41 191.75 473.05ZM186.15 467.09C186.18 467.04 186.19 467.02 186.19 467.02C186.24 466.95 186.26 466.88 186.26 466.79C186.26 466.65 186.26 465.98 186.26 464.78C186.33 464.83 186.37 464.86 186.38 464.87C188.66 466.47 190.9 468.14 193.03 469.85C193.07 469.9 193.12 469.9 193.19 469.9C193.3 469.9 193.39 469.83 193.44 469.71C193.46 469.67 193.46 469.6 193.37 469.53C191.13 467.75 188.8 466.01 186.47 464.37C186.42 464.34 186.4 464.32 186.35 464.32C186.35 464.32 186.32 464.32 186.26 464.32L186.24 464.23L186.24 461.85C186.31 461.89 186.35 461.92 186.35 461.92C189.03 463.47 191.52 465.35 193.74 467.47C193.74 467.48 193.75 467.48 193.76 467.5C193.76 467.51 193.76 467.52 193.76 467.52C193.85 469.12 193.99 470.72 194.13 472.25C194.13 472.27 194.14 472.33 194.17 472.46L186.15 467.09ZM193.99 472.16C193.85 470.67 193.74 469.14 193.65 467.61C191.47 465.53 189.03 463.68 186.42 462.17C186.42 462.37 186.42 464 186.42 464.21C186.47 464.21 186.51 464.23 186.56 464.27C188.89 465.9 191.22 467.63 193.46 469.44C193.58 469.53 193.62 469.67 193.58 469.81C193.53 469.97 193.35 470.08 193.19 470.08C193.1 470.08 193.01 470.06 192.94 469.99C190.83 468.32 188.64 466.67 186.4 465.1C186.4 465.27 186.4 466.66 186.4 466.83C186.42 466.88 186.4 466.97 186.35 467.04C187.88 468.06 193.23 471.65 193.99 472.16ZM193.62 466.72C191.41 464.66 188.94 462.86 186.31 461.37C186.31 461.37 186.29 461.36 186.26 461.35L186.26 458.95C186.33 458.98 186.37 458.99 186.38 458.99C188.89 460.27 191.27 461.81 193.44 463.54C193.46 463.57 193.51 463.59 193.55 463.59C193.56 463.59 193.58 463.6 193.62 463.61C193.62 463.65 193.62 463.68 193.62 463.68C193.65 464.69 193.69 465.69 193.76 466.67C193.76 466.69 193.76 466.75 193.76 466.86C193.68 466.77 193.63 466.73 193.62 466.72ZM193.6 466.51C193.55 465.62 193.51 464.69 193.49 463.75C193.44 463.73 193.42 463.7 193.37 463.68C191.25 461.97 188.91 460.46 186.45 459.2C186.44 459.34 186.44 460.03 186.42 461.28C189.74 463.43 192.14 465.17 193.6 466.51ZM172.09 466.65C172.09 466.65 172.06 466.65 172.02 466.65C172.02 466.61 172.02 466.59 172.02 466.58C171.91 448.96 172.05 431.09 172.41 413.44C172.41 413.44 172.41 413.41 172.41 413.37C172.45 413.37 172.48 413.37 172.48 413.37C175.63 413.21 178.86 413.14 182.01 413.14C185.46 413.14 188.96 413.23 192.41 413.42C195.45 413.58 198.4 413.78 201.26 414.65C202.01 414.88 202.77 415.2 203.5 415.57C203.5 415.57 203.52 415.57 203.54 415.59C203.54 415.62 203.54 415.63 203.54 415.63C203.54 415.73 203.57 415.95 203.84 416.02C204.11 416.09 204.39 416.18 204.69 416.27C204.69 416.27 204.71 416.27 204.71 416.27C206.03 417.14 207.25 418.22 208.46 419.61C210.61 422.08 212.14 425.12 212.91 428.37C212.91 428.37 212.91 428.37 212.91 428.39C212.9 428.4 212.89 428.41 212.89 428.41C212.85 428.5 212.85 428.62 212.96 428.69C212.96 428.69 212.97 428.69 212.98 428.71C212.98 428.72 212.98 428.73 212.98 428.73C213.35 430.4 213.51 432.07 213.44 433.69C213.23 439.04 210.24 443.52 205.19 446.03C202.1 447.57 198.49 448.27 193.85 448.27C191.31 448.27 188.78 448.07 186.33 447.86C186.32 447.86 186.19 447.84 186.17 447.84C186.13 447.84 186.1 447.84 186.06 447.84C186.06 447.84 186.05 447.84 186.03 447.84C186.02 447.84 186.01 447.84 186.01 447.84C185.78 447.75 185.39 447.84 185.39 448.21C185.39 448.86 185.39 452.12 185.39 457.99C185.35 457.99 185.33 457.99 185.33 457.99C185.21 458.01 185.12 458.13 185.12 458.22C185.12 458.29 185.12 458.35 185.23 458.4C185.24 458.4 185.3 458.43 185.39 458.47L185.39 466.33C185.35 466.33 185.33 466.33 185.33 466.33C182.24 466.61 179.09 466.7 175.98 466.7C174.7 466.7 173.37 466.67 172.09 466.65ZM175.98 466.54C179.06 466.54 182.17 466.45 185.26 466.24C185.26 465.73 185.26 463.2 185.26 458.63C185.22 458.6 185.19 458.59 185.19 458.58C185.05 458.51 184.96 458.38 184.98 458.24C185.01 458.08 185.12 457.97 185.26 457.9C185.26 456.93 185.26 449.22 185.26 448.25C185.26 447.79 185.74 447.61 186.06 447.73C186.1 447.73 186.13 447.73 186.17 447.73C186.19 447.73 186.32 447.75 186.33 447.75C188.78 447.95 191.31 448.16 193.85 448.16C198.49 448.16 202.06 447.45 205.12 445.94C210.13 443.45 213.1 439.02 213.28 433.74C213.35 432.11 213.19 430.47 212.85 428.82C212.71 428.71 212.69 428.53 212.75 428.39C211.98 425.17 210.45 422.17 208.34 419.7C207.15 418.33 205.94 417.26 204.64 416.41C204.34 416.32 204.07 416.25 203.79 416.18C203.54 416.11 203.41 415.93 203.38 415.7C202.67 415.34 201.94 415.04 201.21 414.81C198.38 413.94 195.43 413.74 192.41 413.58C188.96 413.39 185.46 413.3 182.01 413.3C178.88 413.3 175.68 413.37 172.55 413.53C172.18 431.11 172.07 448.94 172.16 466.49C173.42 466.51 174.7 466.54 175.98 466.54ZM193.46 463.02C191.22 461.26 188.82 459.73 186.31 458.47C186.31 458.47 186.29 458.46 186.26 458.45L186.26 456.09C190.47 459.15 192.81 460.85 193.28 461.19C193.33 461.23 193.39 461.23 193.44 461.21C193.45 461.21 193.48 461.19 193.53 461.17C193.53 461.23 193.53 461.27 193.53 461.28C193.53 461.83 193.55 462.38 193.58 462.93C193.58 462.94 193.59 463 193.6 463.11C193.52 463.05 193.47 463.02 193.46 463.02ZM193.44 462.79C193.42 462.33 193.42 461.85 193.42 461.39C193.35 461.39 193.28 461.37 193.21 461.33C192.76 461 190.5 459.35 186.42 456.39L186.42 458.35C189.64 460.17 191.98 461.65 193.44 462.79ZM186.38 455.61C186.35 455.59 186.33 455.59 186.33 455.59C186.33 455.59 186.31 455.58 186.29 455.57L186.29 454.1C186.35 454.13 186.39 454.15 186.4 454.15C186.65 454.26 186.93 454.45 187.15 454.63C187.27 454.72 187.38 454.79 187.47 454.83C188.02 455.18 188.59 455.54 189.35 456.02C190.4 456.71 191.5 457.46 192.71 458.35C192.82 458.45 192.96 458.38 193.01 458.24C193.03 458.19 193.05 458.06 192.91 457.97C191.73 457.1 190.49 456.25 189.26 455.43C188.71 455.09 188.14 454.72 187.38 454.24C187.29 454.17 187.18 454.1 187.09 454.03C186.86 453.87 186.61 453.69 186.33 453.62C186.33 453.62 186.31 453.61 186.29 453.6L186.29 451.95C186.34 451.97 186.37 451.98 186.38 451.98C186.47 452 186.58 451.95 186.61 451.89C186.61 451.88 186.62 451.86 186.65 451.82C186.69 451.82 186.72 451.82 186.72 451.82C187.41 451.91 188.41 452.64 189.07 453.14C189.26 453.28 189.42 453.39 189.53 453.46C189.85 453.67 192.37 455.31 192.69 455.52C192.82 455.61 192.96 455.5 193.01 455.38C193.03 455.34 193.05 455.2 192.91 455.13C192.8 455.05 191.84 454.43 191.73 454.35C190.88 453.81 190.01 453.26 189.17 452.69C189.05 452.62 188.91 452.53 188.78 452.43C188.14 451.98 187.25 451.36 186.54 451.36C186.47 451.36 186.42 451.36 186.35 451.38C186.35 451.38 186.32 451.39 186.26 451.41L186.26 449.37C186.33 449.43 186.37 449.46 186.38 449.46C188.64 451.22 191.06 452.75 193.55 454.03C193.56 454.04 193.57 454.04 193.6 454.06C193.6 454.08 193.6 454.1 193.6 454.1C193.53 456.25 193.51 458.47 193.53 460.66C193.53 460.67 193.54 460.73 193.55 460.82C189.25 457.7 186.86 455.96 186.38 455.61ZM186.47 455.5C187.16 456 192.7 460.02 193.39 460.53C193.37 458.38 193.39 456.25 193.46 454.15C191.02 452.89 188.64 451.38 186.42 449.67C186.42 449.82 186.42 451.05 186.42 451.2C186.47 451.2 186.49 451.2 186.54 451.2C187.29 451.2 188.18 451.84 188.87 452.3C189.01 452.39 189.14 452.48 189.26 452.55C190.1 453.1 190.97 453.65 191.82 454.22C191.94 454.29 192.89 454.92 193.01 454.99C193.14 455.09 193.21 455.25 193.17 455.43C193.1 455.68 192.82 455.79 192.62 455.66C192.3 455.45 189.78 453.81 189.46 453.6C189.35 453.53 189.19 453.39 188.98 453.26C188.34 452.8 187.38 452.09 186.74 451.98C186.67 452.07 186.56 452.16 186.42 452.16C186.42 452.29 186.42 453.37 186.42 453.51C186.67 453.6 186.93 453.76 187.15 453.92C187.25 453.99 187.36 454.06 187.45 454.1C188.21 454.56 188.8 454.93 189.35 455.29C190.58 456.09 191.82 456.96 193.01 457.83C193.14 457.94 193.21 458.1 193.14 458.29C193.07 458.51 192.8 458.63 192.62 458.49C191.41 457.6 190.31 456.85 189.28 456.16C188.53 455.68 187.95 455.31 187.41 454.97C187.31 454.93 187.2 454.83 187.09 454.74C186.88 454.61 186.67 454.45 186.45 454.33C186.45 454.41 186.45 454.79 186.45 455.47C186.45 455.49 186.45 455.5 186.47 455.5ZM194.47 454.1C194.47 454.01 194.47 453.9 194.47 453.81C194.47 453.67 194.38 453.51 194.26 453.44C191.73 452.18 189.33 450.67 187.11 448.96C187.09 448.95 187.03 448.9 186.9 448.8C187.05 448.81 187.14 448.82 187.15 448.82C188.34 448.91 189.76 449.03 191.22 449.07C191.23 449.07 191.25 449.07 191.29 449.07C191.29 449.12 191.29 449.14 191.29 449.14C191.29 449.19 191.31 449.21 191.36 449.26C193.33 450.95 195.41 452.57 197.53 454.1C197.54 454.11 197.6 454.16 197.71 454.24C197.58 454.24 197.5 454.24 197.49 454.24C196.62 454.24 195.75 454.24 194.93 454.22C194.93 454.22 194.93 454.22 194.93 454.22C194.74 454.22 194.65 454.31 194.58 454.38C194.57 454.39 194.53 454.47 194.45 454.61C194.46 454.3 194.47 454.14 194.47 454.1ZM194.33 453.33C194.51 453.42 194.63 453.62 194.63 453.83C194.63 453.92 194.63 454.03 194.63 454.13C194.63 454.13 194.63 454.17 194.63 454.17C194.72 454.13 194.81 454.08 194.93 454.08C195.7 454.1 196.48 454.1 197.28 454.1C195.22 452.62 193.21 451.02 191.29 449.37C191.25 449.33 191.2 449.28 191.18 449.23C189.85 449.17 188.55 449.07 187.41 449.01C189.55 450.65 191.89 452.09 194.33 453.33ZM198.49 454.22C196.27 452.66 194.13 450.99 192.07 449.23C192.06 449.23 192 449.18 191.91 449.1C192.03 449.1 192.1 449.1 192.11 449.1C193.23 449.12 194.31 449.12 195.31 449.1C195.32 449.1 195.33 449.1 195.36 449.1C195.37 449.12 195.38 449.14 195.38 449.14C195.41 449.17 195.41 449.19 195.43 449.21C197.19 450.9 199.11 452.5 201.12 453.97C201.13 453.97 201.18 454.01 201.28 454.08C201.16 454.09 201.09 454.1 201.07 454.1C200.16 454.17 199.31 454.19 198.49 454.22C198.49 454.22 198.49 454.22 198.49 454.22C198.49 454.22 198.49 454.22 198.49 454.22ZM198.56 454.08C199.31 454.06 200.09 454.03 200.91 453.97C198.97 452.55 197.1 450.97 195.38 449.33C195.36 449.3 195.34 449.28 195.31 449.26C194.35 449.3 193.37 449.3 192.34 449.28C194.35 450.97 196.43 452.59 198.56 454.08ZM202.01 454.03C199.93 452.57 197.94 450.95 196.09 449.19C196.08 449.18 196.04 449.14 195.95 449.07C196.06 449.07 196.12 449.07 196.14 449.07C197.21 449.01 198.19 448.91 199.15 448.75C199.16 448.75 199.2 448.75 199.27 448.73C199.25 448.8 199.25 448.84 199.25 448.85C199.22 448.89 199.2 449.03 199.34 449.1C201.33 450.38 203.15 451.91 204.8 453.65C204.81 453.65 204.85 453.69 204.91 453.76C204.63 453.79 204.47 453.8 204.43 453.81C203.73 453.9 202.95 453.97 202.06 454.03C202.05 454.03 202.04 454.03 202.01 454.03C202.01 454.03 202.01 454.03 202.01 454.03ZM202.06 453.9C202.93 453.83 203.68 453.76 204.39 453.67C204.41 453.67 204.55 453.65 204.57 453.65C202.97 451.95 201.17 450.49 199.25 449.23C199.13 449.17 199.06 449.05 199.06 448.91C198.19 449.05 197.28 449.14 196.32 449.21C198.13 450.9 200.07 452.48 202.06 453.9ZM205.35 453.62C205.35 453.58 205.33 453.55 205.3 453.51C203.63 451.73 201.74 450.13 199.68 448.78C199.67 448.77 199.62 448.73 199.52 448.66C199.63 448.65 199.69 448.64 199.7 448.64C200.43 448.5 201.14 448.37 201.85 448.16C201.85 448.16 201.87 448.16 201.9 448.16L201.94 448.21L207.59 453.39C207.49 453.41 207.44 453.42 207.43 453.42C206.74 453.51 206.06 453.6 205.46 453.67C205.46 453.67 205.43 453.68 205.37 453.69C205.36 453.65 205.35 453.63 205.35 453.62ZM205.44 453.42C205.46 453.44 205.49 453.49 205.51 453.53C206.03 453.46 206.63 453.39 207.25 453.3C206.71 452.81 202.39 448.84 201.85 448.34C201.23 448.5 200.57 448.66 199.93 448.78C201.94 450.1 203.79 451.68 205.44 453.42ZM208.11 453.3L202.4 448.05C202.48 448.02 202.53 448 202.54 448C202.9 447.89 203.27 447.77 203.7 447.61C203.71 447.61 203.72 447.6 203.75 447.59C203.76 447.6 203.77 447.61 203.77 447.61C203.79 447.63 203.82 447.63 203.84 447.66C203.91 447.68 203.98 447.73 204.07 447.66C204.08 447.65 204.12 447.61 204.21 447.54C204.23 447.57 204.25 447.59 204.25 447.59C204.71 447.93 205.65 448.94 206.22 449.51C206.4 449.69 206.54 449.83 206.58 449.9C206.89 450.19 209.34 452.55 209.65 452.85C209.67 452.87 209.69 452.89 209.71 452.89C209.72 452.89 209.76 452.91 209.83 452.94C209.9 452.87 209.94 452.83 209.94 452.82C209.99 452.78 210.01 452.71 210.03 452.66C210.03 452.62 210.01 452.55 209.97 452.53C209.55 452.12 206.2 448.91 205.78 448.5C205.39 448.14 205.01 447.75 204.62 447.36C204.61 447.36 204.59 447.33 204.55 447.29C204.6 447.26 204.63 447.25 204.64 447.25C205.21 447.02 205.76 446.74 206.31 446.45C206.31 446.44 206.33 446.44 206.35 446.42C206.38 446.44 206.4 446.44 206.4 446.45C206.49 446.51 206.65 446.49 206.7 446.42C206.72 446.38 206.74 446.33 206.74 446.29C206.74 446.29 206.74 446.29 206.74 446.29C206.74 446.29 206.74 446.29 206.74 446.29L206.74 446.29C206.84 446.27 206.89 446.26 206.9 446.26C206.93 446.45 207.52 446.9 207.82 447.15C207.95 447.27 208.09 447.36 208.14 447.43C208.46 447.74 210.08 449.28 213.01 452.07C212.94 452.1 212.9 452.11 212.89 452.11C212.05 452.46 211.11 452.73 210.03 452.98C210.03 452.98 210.01 452.99 209.97 453.01L209.97 453.01L209.76 453.05L209.76 453.05C209.73 453.05 209.72 453.05 209.71 453.05C209.23 453.14 208.71 453.26 208.21 453.33C208.2 453.33 208.18 453.33 208.14 453.33L208.11 453.3ZM208.18 453.19C208.62 453.12 209.05 453.03 209.49 452.96C209.18 452.67 206.75 450.33 206.45 450.03C206.4 449.99 206.26 449.85 206.08 449.65C205.58 449.12 204.64 448.14 204.18 447.77C204.18 447.78 204.14 447.81 204.14 447.82C204.05 447.89 203.86 447.89 203.75 447.82C203.73 447.82 203.73 447.79 203.7 447.79C203.34 447.91 203.02 448 202.7 448.11C203.79 449.13 207.63 452.68 208.18 453.19ZM205.87 448.39C205.89 448.41 205.98 448.49 206.15 448.64C208.49 450.89 209.8 452.14 210.06 452.39C210.13 452.46 210.17 452.55 210.17 452.64C210.17 452.69 210.17 452.71 210.15 452.75C211.09 452.53 211.93 452.27 212.69 451.98C212.22 451.53 208.47 447.99 208 447.54C207.93 447.5 207.82 447.38 207.68 447.29C207.29 446.99 206.97 446.72 206.81 446.51C206.81 446.54 206.79 446.54 206.79 446.54C206.7 446.65 206.49 446.67 206.33 446.61C205.83 446.88 205.33 447.13 204.8 447.34C205.14 447.7 205.53 448.05 205.87 448.39ZM208.43 447.11C208.32 447.02 208.21 446.88 208.09 446.74C207.86 446.49 207.59 446.17 207.31 445.97C207.31 445.96 207.28 445.94 207.22 445.9C207.28 445.86 207.31 445.83 207.31 445.83C207.89 445.46 208.46 445.05 208.96 444.62C208.96 444.61 208.98 444.6 209.01 444.57L209.05 444.62C212.62 448 214.6 449.89 214.99 450.26C215.11 450.38 215.31 450.31 215.38 450.17C215.41 450.13 215.43 450.03 215.34 449.94C214.94 449.56 212.94 447.68 209.35 444.27C209.39 444.25 209.41 444.23 209.42 444.23C209.71 443.98 210.01 443.68 210.29 443.36C210.29 443.36 210.3 443.34 210.33 443.31C210.36 443.34 210.37 443.36 210.38 443.36C212.43 444.75 214.35 446.4 216.05 448.23C216.16 448.34 216.34 448.3 216.41 448.14C216.43 448.09 216.46 448 216.37 447.89C214.67 446.08 212.78 444.43 210.72 443.02C210.72 443.01 210.69 443 210.65 442.97C210.68 442.93 210.69 442.91 210.7 442.9C211.09 442.45 211.47 441.94 211.84 441.42C211.84 441.41 211.86 441.39 211.89 441.35C211.93 441.38 211.95 441.39 211.95 441.39C214.29 443.11 216.55 444.98 218.65 446.99C218.65 447 218.67 447.01 218.7 447.04C218.68 447.07 218.68 447.08 218.67 447.09C217.33 449.26 215.57 450.86 213.49 451.82C213.48 451.82 213.47 451.84 213.44 451.86C210.44 449.01 208.77 447.43 208.43 447.11ZM208.21 446.65C208.32 446.79 208.46 446.93 208.55 447.02C209.04 447.49 212.97 451.23 213.46 451.7C215.5 450.74 217.19 449.21 218.51 447.11C216.43 445.14 214.24 443.29 211.95 441.6C211.61 442.1 211.27 442.56 210.9 442.97C212.96 444.39 214.83 446.01 216.5 447.82C216.62 447.93 216.64 448.09 216.57 448.23C216.5 448.37 216.37 448.48 216.21 448.48C216.11 448.48 216.02 448.43 215.95 448.37C214.29 446.56 212.41 444.94 210.38 443.57C210.13 443.84 209.85 444.09 209.6 444.34C210.19 444.9 214.89 449.34 215.47 449.9C215.59 450.01 215.61 450.15 215.57 450.29C215.5 450.45 215.36 450.54 215.2 450.54C215.11 450.54 215.02 450.49 214.95 450.42C214.36 449.86 209.64 445.38 209.05 444.82C208.53 445.19 208.02 445.58 207.5 445.92C207.75 446.13 208 446.4 208.21 446.65ZM218.88 446.61C216.8 444.62 214.56 442.74 212.21 441.03C212.2 441.03 212.19 441.01 212.16 440.98C212.19 440.94 212.2 440.92 212.21 440.91C212.5 440.43 212.75 439.93 213.01 439.43C213.01 439.42 213.02 439.39 213.05 439.34C217.1 442.57 219.34 444.37 219.79 444.73C219.82 444.75 219.82 444.75 219.84 444.75C219.84 444.76 219.87 444.76 219.91 444.78C219.89 444.82 219.89 444.84 219.89 444.85C219.63 445.44 219.34 446.03 219.04 446.56C219.03 446.57 219 446.61 218.95 446.67C218.91 446.63 218.88 446.61 218.88 446.61ZM218.9 446.4C219.18 445.92 219.43 445.39 219.66 444.85C219.66 444.85 219.66 444.85 219.66 444.85C219 444.32 213.73 440.09 213.07 439.57C212.85 440.05 212.62 440.5 212.34 440.94C214.65 442.63 216.85 444.46 218.9 446.4ZM213.35 439.04C213.33 439.02 213.28 438.99 213.26 438.99C213.25 438.99 213.22 438.99 213.17 438.97C213.18 438.93 213.19 438.91 213.19 438.9C213.37 438.45 213.55 437.97 213.69 437.49C213.71 437.44 213.71 437.37 213.74 437.33C213.74 437.31 213.76 437.24 213.78 437.12C213.84 437.15 213.87 437.16 213.87 437.17C216.16 438.58 218.42 440.05 220.59 441.55C220.64 441.58 220.69 441.6 220.73 441.6C220.74 441.6 220.78 441.59 220.85 441.58C220.83 441.65 220.82 441.68 220.82 441.69C220.62 442.61 220.37 443.47 220.05 444.3C220.04 444.3 220.04 444.33 220.02 444.39C216.02 441.18 213.79 439.4 213.35 439.04ZM213.46 438.93C214.11 439.45 219.33 443.62 219.98 444.14C220.25 443.38 220.5 442.58 220.69 441.74C220.64 441.74 220.59 441.71 220.55 441.67C218.4 440.21 216.18 438.74 213.92 437.35C213.9 437.39 213.9 437.46 213.87 437.51C213.74 437.97 213.58 438.42 213.39 438.88C213.42 438.9 213.44 438.9 213.46 438.93ZM220.85 441.17C218.61 439.63 216.3 438.13 213.99 436.69C213.99 436.68 213.97 436.68 213.94 436.66C213.96 436.64 213.96 436.62 213.97 436.62C214.15 435.79 214.29 434.93 214.35 434.06C214.35 434.05 214.35 434 214.35 433.92C214.42 433.96 214.46 433.98 214.47 433.99C216.48 435.41 218.45 436.96 220.3 438.58C220.43 438.7 220.64 438.63 220.69 438.47C220.71 438.42 220.71 438.33 220.62 438.26C218.72 436.62 216.71 435.02 214.65 433.58C214.58 433.53 214.54 433.53 214.47 433.55C214.46 433.56 214.42 433.57 214.35 433.6C214.35 433.53 214.35 433.49 214.35 433.49C214.38 432.94 214.38 432.37 214.35 431.79C214.35 431.78 214.35 431.73 214.35 431.63C214.42 431.69 214.46 431.72 214.47 431.73C216.75 433.21 219.02 434.74 221.23 436.27C221.24 436.28 221.24 436.28 221.26 436.3C221.26 436.32 221.26 436.34 221.26 436.34C221.3 437.14 221.3 437.92 221.26 438.65C221.21 439.45 221.12 440.3 220.96 441.12C220.96 441.13 220.95 441.17 220.94 441.23C220.88 441.19 220.85 441.17 220.85 441.17ZM220.82 440.96C220.96 440.16 221.05 439.38 221.1 438.63C221.14 437.9 221.14 437.14 221.1 436.37C218.95 434.88 216.73 433.39 214.49 431.93C214.51 432.41 214.51 432.91 214.49 433.37C214.56 433.37 214.63 433.39 214.7 433.44C216.75 434.9 218.79 436.48 220.69 438.15C220.8 438.24 220.85 438.4 220.8 438.51C220.73 438.67 220.57 438.79 220.41 438.79C220.32 438.79 220.23 438.77 220.16 438.7C218.33 437.12 216.41 435.59 214.45 434.19C214.4 435.02 214.26 435.82 214.1 436.57C216.39 437.99 218.65 439.45 220.82 440.96ZM221.07 435.61C218.86 434.08 216.57 432.55 214.31 431.09C214.31 431.08 214.3 431.08 214.29 431.06C214.29 431.04 214.29 431.02 214.29 431.02C214.24 430.51 214.17 430.01 214.08 429.51C214.08 429.5 214.07 429.44 214.06 429.35L220.87 433.42C220.87 433.43 220.87 433.44 220.87 433.44C221.01 434.15 221.12 434.83 221.17 435.54C221.17 435.55 221.18 435.61 221.21 435.7C221.13 435.65 221.08 435.62 221.07 435.61ZM221.01 435.38C220.94 434.77 220.85 434.13 220.73 433.51C220.08 433.12 214.89 430.03 214.24 429.65C214.33 430.1 214.4 430.54 214.42 430.97C216.62 432.41 218.83 433.9 221.01 435.38ZM213.94 428.75C213.94 428.74 213.94 428.73 213.94 428.73C213.81 428.07 213.62 427.38 213.39 426.67C213.39 426.66 213.38 426.61 213.35 426.51C213.44 426.56 213.5 426.58 213.51 426.58C215.61 427.45 217.71 428.48 219.73 429.6C219.73 429.6 219.73 429.61 219.75 429.62C219.75 429.64 219.75 429.64 219.75 429.65C220.14 430.63 220.48 431.63 220.71 432.66C220.71 432.67 220.73 432.72 220.75 432.8L213.94 428.75ZM220.53 432.5C220.3 431.57 219.98 430.63 219.61 429.71C217.65 428.62 215.61 427.63 213.58 426.79C213.78 427.41 213.94 428.05 214.08 428.66C215.37 429.43 219.88 432.12 220.53 432.5ZM219.22 428.8C217.28 427.75 215.25 426.79 213.17 425.94C213.16 425.94 213.16 425.93 213.14 425.92C213.13 425.91 213.12 425.9 213.12 425.9C212.85 425.12 212.53 424.37 212.16 423.61C212.15 423.6 212.12 423.55 212.07 423.45C212.18 423.49 212.24 423.52 212.25 423.52C212.57 423.63 212.94 423.84 213.26 424C213.42 424.09 213.58 424.16 213.67 424.21C213.95 424.33 215.37 424.96 217.92 426.08C217.93 426.09 217.94 426.1 217.94 426.1C218.49 426.95 218.97 427.82 219.38 428.71C219.39 428.72 219.4 428.79 219.43 428.91C219.31 428.85 219.24 428.81 219.22 428.8ZM219.11 428.57C218.72 427.77 218.29 426.97 217.81 426.22C217.39 426.03 214.02 424.55 213.6 424.37C213.51 424.32 213.35 424.25 213.19 424.16C212.94 424.02 212.66 423.86 212.39 423.75C212.71 424.43 213.01 425.12 213.26 425.83C215.25 426.65 217.21 427.57 219.11 428.57ZM212.8 423.36C212.71 423.31 212.62 423.27 212.55 423.22C212.32 423.11 212.09 422.99 211.86 422.97C211.86 422.97 211.84 422.97 211.82 422.97C211.8 422.94 211.8 422.93 211.79 422.93C211.5 422.35 211.13 421.76 210.74 421.19C210.74 421.18 210.71 421.12 210.65 421.03C210.76 421.06 210.82 421.07 210.83 421.07C212.14 421.35 213.39 421.69 214.61 422.13C214.63 422.13 214.65 422.13 214.65 422.15C214.65 422.15 214.66 422.15 214.67 422.15C214.69 422.16 214.7 422.17 214.7 422.17C215.66 423.11 216.53 424.11 217.28 425.19C217.29 425.2 217.34 425.27 217.44 425.39C214.66 424.17 213.11 423.5 212.8 423.36ZM212.59 423.09C212.69 423.13 212.75 423.18 212.85 423.2C213.26 423.38 216.57 424.83 216.98 425.01C216.27 424.05 215.47 423.11 214.61 422.26C214.58 422.26 214.56 422.26 214.56 422.24C213.42 421.83 212.23 421.51 210.99 421.23C211.34 421.81 211.63 422.33 211.91 422.83C212.16 422.86 212.37 422.99 212.59 423.09ZM213.55 421.3C212.48 420.98 211.38 420.71 210.31 420.5C210.31 420.5 210.3 420.5 210.29 420.5C210.27 420.49 210.26 420.48 210.26 420.48C210.01 420.14 209.71 419.77 209.37 419.36C209.37 419.35 209.33 419.32 209.28 419.27C209.36 419.25 209.41 419.25 209.42 419.25C209.9 419.15 210.38 419.11 210.86 419.13C210.86 419.13 210.87 419.13 210.88 419.13C210.89 419.15 210.9 419.15 210.9 419.15C211.86 419.77 212.78 420.46 213.65 421.21C213.66 421.23 213.75 421.29 213.9 421.42C213.69 421.35 213.58 421.31 213.55 421.3ZM213.26 421.05C212.5 420.41 211.68 419.82 210.83 419.27C210.42 419.27 209.99 419.29 209.58 419.36C209.87 419.73 210.15 420.07 210.35 420.37C211.34 420.55 212.3 420.78 213.26 421.05ZM208.94 418.86C208.5 418.38 208.09 417.94 207.66 417.55C207.63 417.53 207.52 417.43 207.31 417.23C207.57 417.34 207.72 417.4 207.75 417.42C208.5 417.76 209.26 418.15 209.99 418.58C210 418.59 210.07 418.63 210.19 418.7C210.06 418.71 209.98 418.72 209.97 418.72C209.65 418.74 209.35 418.81 209.03 418.88C209.02 418.88 209 418.88 208.96 418.88C208.95 418.87 208.94 418.86 208.94 418.86ZM209.03 418.7C209.26 418.65 209.49 418.61 209.71 418.58C209.17 418.29 208.64 417.99 208.09 417.74C208.41 418.03 208.71 418.35 209.03 418.7Z" id="a1t4Tzzhyg"></path><path d="M186.1 425.21C186.06 425.23 186.01 425.26 185.97 425.28C185.92 425.26 185.9 425.23 185.85 425.23C185.85 425.23 185.85 425.21 185.85 425.21C185.9 424.55 184.89 424.57 184.85 425.21C184.75 426.77 184.71 428.32 184.71 429.87C184.69 429.87 184.66 429.85 184.64 429.85C184.27 429.71 184.11 430.31 184.48 430.45C184.55 430.47 184.64 430.51 184.71 430.54C184.73 432.62 184.82 434.7 185.03 436.78C185.05 437.05 185.23 437.28 185.53 437.28C187.27 437.26 189.01 437.26 190.72 437.23C192.25 437.21 193.81 437.3 195.29 436.96C197.99 436.32 199.11 432.8 199.27 430.38C199.45 427.75 197.58 425.6 195.27 424.71C192.25 423.57 189.07 424.39 186.1 425.21ZM193.71 425.3C193.87 425.33 194.03 425.37 194.19 425.42C195.54 425.76 196.71 426.51 197.44 427.59C196.3 426.65 195.06 425.9 193.71 425.3ZM193.26 430.49C193.3 430.63 193.39 430.74 193.53 430.79C193.53 430.91 193.53 431.88 193.53 432C191.59 430.72 189.55 429.6 187.43 428.64C187.06 428.48 186.33 428.02 185.74 427.84C185.74 427.36 185.76 426.86 185.78 426.35C188.21 427.84 190.7 429.23 193.26 430.49ZM187.45 429.33C188.21 429.67 188.96 430.06 189.71 430.45C191.02 431.13 192.3 431.91 193.53 432.73C193.53 432.88 193.53 434.03 193.53 434.17C191.04 432.64 188.43 431.34 185.71 430.24C185.71 429.69 185.71 429.12 185.71 428.55C186.22 428.89 186.88 429.07 187.45 429.33ZM185.81 433.55C187.89 434.17 189.83 435.06 191.61 436.27C189.74 436.32 187.84 436.25 185.99 436.25C185.92 435.36 185.85 434.45 185.81 433.55ZM192.48 436.14C190.42 434.67 188.18 433.6 185.76 432.91C185.74 432.25 185.71 431.57 185.69 430.9C188.41 432 191.02 433.35 193.51 434.88C193.51 435 193.51 435.99 193.51 436.11C193.51 436.14 193.51 436.14 193.51 436.16C193.21 436.21 192.89 436.23 192.57 436.23C192.55 436.18 192.53 436.16 192.48 436.14ZM187.11 425.97C189.05 425.44 191.06 424.96 193.05 425.19C192.94 425.33 192.94 425.62 193.19 425.71C195.04 426.49 196.66 427.59 198.08 428.98C198.15 429.21 198.19 429.44 198.22 429.67C198.15 429.62 198.06 429.58 197.97 429.58C197.37 429.51 196.75 429.49 196.16 429.49C194.1 427.89 191.91 426.54 189.53 425.46C189.19 425.3 188.87 425.83 189.23 425.99C191.38 426.97 193.39 428.16 195.27 429.55C194.97 429.58 194.67 429.62 194.38 429.67C194.22 429.55 193.97 429.53 193.78 429.62C191.5 428.5 189.28 427.29 187.11 425.97ZM194.54 436.07C194.54 435.53 194.54 431.23 194.54 430.7C195.68 430.49 196.82 430.47 197.97 430.61C198.08 430.63 198.17 430.61 198.26 430.56C198.19 431.75 197.69 432.96 197.19 434.03C196.62 435.25 195.73 435.84 194.54 436.07Z" id="aA2OnCuQX"></path><path d="M184.94 436.78C184.75 434.74 184.64 432.66 184.62 430.56C184.61 430.56 184.58 430.54 184.57 430.54C184.53 430.51 184.48 430.51 184.46 430.49C184.25 430.4 184.18 430.22 184.21 430.03C184.25 429.83 184.43 429.69 184.62 429.74C184.62 428.21 184.66 426.65 184.75 425.17C184.78 424.8 185.07 424.62 185.37 424.62C185.53 424.62 185.69 424.69 185.78 424.78C185.87 424.87 185.92 425.01 185.92 425.14C185.92 425.14 185.94 425.14 185.94 425.17C185.99 425.14 186.01 425.12 186.06 425.12C188.16 424.53 190.06 424.05 192 424.05C193.19 424.05 194.26 424.23 195.27 424.62C197.44 425.44 199.52 427.52 199.34 430.33C199.18 432.48 198.15 436.3 195.29 436.98C194.22 437.23 193.05 437.26 192.07 437.26C191.91 437.26 191.75 437.26 191.59 437.26C191.29 437.26 190.99 437.26 190.7 437.26C190.35 437.26 188.62 437.29 185.51 437.35C185.14 437.2 184.95 437.01 184.94 436.78ZM184.34 430.08C184.32 430.17 184.37 430.31 184.5 430.35C184.55 430.38 184.59 430.38 184.62 430.4C184.63 430.4 184.68 430.43 184.78 430.47C184.78 430.5 184.78 430.51 184.78 430.51C184.8 432.62 184.91 434.72 185.1 436.75C185.12 436.98 185.26 437.19 185.53 437.19C185.53 437.19 185.53 437.22 185.53 437.26L185.53 437.19C188.64 437.16 190.37 437.15 190.72 437.14C191.02 437.14 191.31 437.14 191.61 437.14C191.77 437.14 191.93 437.14 192.09 437.14C193.07 437.14 194.22 437.12 195.27 436.87C198.03 436.21 199.04 432.46 199.2 430.35C199.41 427.61 197.35 425.58 195.25 424.78C194.26 424.41 193.21 424.23 192.02 424.23C190.1 424.23 188.21 424.71 186.13 425.28C186.08 425.3 186.03 425.3 186.01 425.33C186.01 425.33 185.99 425.33 185.97 425.35C185.94 425.33 185.92 425.33 185.92 425.33C185.9 425.3 185.85 425.3 185.83 425.28C185.83 425.28 185.81 425.27 185.78 425.26C185.78 425.2 185.78 425.17 185.78 425.17C185.78 425.05 185.76 424.96 185.69 424.87C185.62 424.8 185.51 424.75 185.39 424.75C185.19 424.75 184.96 424.89 184.94 425.17C184.85 426.67 184.8 428.25 184.8 429.83C184.8 429.84 184.8 429.87 184.8 429.94C184.7 429.9 184.65 429.88 184.64 429.87C184.57 429.9 184.55 429.9 184.53 429.9C184.43 429.9 184.37 429.99 184.34 430.08ZM188.14 436.34C187.47 436.34 186.81 436.32 186.15 436.32C186.13 436.32 186.06 436.32 185.92 436.32C185.92 436.28 185.92 436.26 185.92 436.25C185.85 435.36 185.78 434.47 185.74 433.55C185.74 433.55 185.74 433.51 185.74 433.44C185.79 433.45 185.82 433.46 185.83 433.46C187.91 434.08 189.85 434.99 191.66 436.18C191.67 436.19 191.74 436.24 191.86 436.32C191.71 436.32 191.63 436.32 191.61 436.32C191.18 436.37 190.7 436.37 190.15 436.37C189.49 436.37 188.8 436.37 188.14 436.34ZM188.14 436.21C188.8 436.21 189.49 436.23 190.15 436.23C190.58 436.23 190.99 436.23 191.36 436.23C189.67 435.13 187.82 434.26 185.87 433.69C185.92 434.54 185.97 435.38 186.06 436.21C186.06 436.2 186.08 436.2 186.13 436.18C187.01 436.18 187.68 436.19 188.14 436.21ZM192.53 436.27C192.5 436.25 192.48 436.23 192.46 436.21C190.42 434.77 188.18 433.69 185.76 433.01C185.76 433 185.74 433 185.71 432.98C185.71 432.96 185.71 432.94 185.71 432.94C185.69 432.18 185.67 431.54 185.65 430.93C185.65 430.92 185.65 430.88 185.65 430.81C185.71 430.84 185.75 430.85 185.76 430.86C188.43 431.95 191.06 433.3 193.58 434.83C193.58 434.84 193.6 434.84 193.62 434.86C193.62 435.63 193.62 436.05 193.62 436.14C193.62 436.14 193.62 436.16 193.62 436.16C193.62 436.17 193.62 436.2 193.62 436.25C193.58 436.25 193.56 436.25 193.55 436.25C193.26 436.27 192.94 436.3 192.62 436.32C192.61 436.32 192.59 436.32 192.55 436.32C192.53 436.29 192.53 436.28 192.53 436.27ZM192.55 436.07C192.59 436.09 192.62 436.11 192.64 436.16C192.91 436.14 193.19 436.14 193.46 436.11C193.46 436 193.46 435.07 193.46 434.95C191.02 433.44 188.43 432.11 185.81 431.04C185.81 431.59 185.83 432.18 185.85 432.87C188.25 433.55 190.51 434.65 192.55 436.07ZM194.45 430.63C194.49 430.63 194.51 430.63 194.51 430.63C195.66 430.42 196.8 430.4 197.97 430.54C198.06 430.56 198.15 430.54 198.19 430.49C198.2 430.49 198.24 430.46 198.31 430.42C198.31 430.51 198.31 430.55 198.31 430.56C198.24 431.82 197.69 433.1 197.23 434.08C196.69 435.25 195.82 435.89 194.51 436.14C194.51 436.14 194.49 436.15 194.45 436.16L194.45 430.63ZM194.61 435.95C195.79 435.7 196.59 435.09 197.12 433.99C197.55 433.05 198.08 431.84 198.17 430.65C198.1 430.67 198.03 430.67 197.97 430.67C196.82 430.54 195.7 430.56 194.61 430.74C194.61 431.79 194.61 435.43 194.61 435.95ZM193.49 434.24C190.99 432.73 188.39 431.41 185.69 430.33C185.69 430.33 185.67 430.32 185.65 430.31C185.65 430.28 185.65 430.27 185.65 430.26C185.65 429.67 185.65 429.1 185.65 428.55C185.65 428.54 185.65 428.49 185.65 428.41C185.71 428.45 185.75 428.48 185.76 428.48C186.08 428.71 186.49 428.87 186.88 429.01C187.09 429.07 187.29 429.17 187.47 429.26C188.14 429.55 188.87 429.92 189.74 430.38C190.97 431.02 192.21 431.77 193.55 432.69C193.56 432.69 193.56 432.69 193.58 432.71L193.58 434.31C193.52 434.27 193.49 434.24 193.49 434.24ZM193.44 434.06C193.44 433.93 193.44 432.93 193.44 432.8C192.11 431.91 190.88 431.18 189.67 430.54C188.8 430.08 188.09 429.74 187.43 429.42C187.25 429.33 187.04 429.26 186.83 429.19C186.47 429.05 186.1 428.91 185.81 428.71C185.78 429.17 185.78 429.67 185.78 430.22C188.43 431.29 190.99 432.57 193.44 434.06ZM193.49 432.09C191.54 430.81 189.51 429.69 187.41 428.73C187.29 428.69 187.13 428.59 186.95 428.5C186.58 428.3 186.13 428.07 185.71 427.93C185.71 427.93 185.7 427.92 185.67 427.91C185.67 427.88 185.67 427.87 185.67 427.86C185.69 427.29 185.69 426.81 185.71 426.35C185.71 426.35 185.71 426.3 185.71 426.22C185.78 426.26 185.82 426.28 185.83 426.29C188.23 427.77 190.74 429.17 193.28 430.42C193.28 430.42 193.29 430.43 193.3 430.45C193.3 430.46 193.3 430.47 193.3 430.47C193.35 430.58 193.42 430.67 193.53 430.74C193.53 430.74 193.55 430.75 193.58 430.77L193.58 432.16C193.52 432.12 193.49 432.1 193.49 432.09ZM187.02 428.34C187.2 428.43 187.34 428.53 187.47 428.57C189.53 429.51 191.54 430.61 193.46 431.86C193.46 431.76 193.46 430.94 193.46 430.83C193.35 430.77 193.26 430.65 193.21 430.54C190.72 429.3 188.25 427.93 185.87 426.47C185.83 426.88 185.83 427.31 185.81 427.79C186.22 427.93 186.65 428.16 187.02 428.34ZM198.17 429.74C198.1 429.69 198.03 429.67 197.94 429.65C197.35 429.58 196.75 429.55 196.16 429.55C196.16 429.55 196.15 429.55 196.14 429.55C196.12 429.54 196.12 429.53 196.11 429.53C194.06 427.93 191.82 426.56 189.51 425.51C189.35 425.44 189.19 425.55 189.17 425.69C189.17 425.74 189.14 425.83 189.28 425.9C191.43 426.88 193.46 428.07 195.31 429.49C195.32 429.49 195.38 429.53 195.47 429.6C195.36 429.61 195.3 429.62 195.29 429.62C194.99 429.65 194.7 429.69 194.4 429.74C194.4 429.74 194.38 429.74 194.35 429.74C194.34 429.72 194.33 429.72 194.33 429.71C194.19 429.6 193.99 429.58 193.83 429.67C193.83 429.67 193.82 429.68 193.81 429.69C193.79 429.68 193.78 429.67 193.78 429.67C191.47 428.53 189.23 427.31 187.11 426.01C187.1 426.01 187.04 425.97 186.95 425.92C187.04 425.89 187.1 425.88 187.11 425.87C188.59 425.46 190.31 425.05 192.02 425.05C192.39 425.05 192.75 425.07 193.1 425.12C193.1 425.12 193.13 425.12 193.19 425.12L193.1 425.07C193.49 425.16 193.72 425.2 193.76 425.21C193.92 425.23 194.08 425.28 194.24 425.33C195.63 425.69 196.82 426.47 197.55 427.54C197.57 427.57 197.67 427.72 197.85 427.98C197.6 427.77 197.47 427.66 197.44 427.63C196.32 426.72 195.09 425.94 193.71 425.35C193.68 425.33 193.52 425.27 193.23 425.14C193.19 425.2 193.17 425.23 193.17 425.23C193.12 425.3 193.1 425.39 193.12 425.46C193.14 425.51 193.17 425.6 193.26 425.62C195.09 426.38 196.73 427.5 198.17 428.91C198.17 428.92 198.18 428.92 198.19 428.94C198.19 428.95 198.19 428.96 198.19 428.96C198.26 429.21 198.31 429.44 198.33 429.67C198.33 429.68 198.32 429.74 198.31 429.85C198.23 429.78 198.18 429.74 198.17 429.74ZM194.4 429.6C194.63 429.55 194.83 429.53 195.06 429.51C193.26 428.16 191.27 427.02 189.21 426.06C189.05 425.99 188.98 425.85 189.03 425.69C189.03 425.65 189.05 425.6 189.07 425.58C188.46 425.71 187.86 425.85 187.31 426.01C189.39 427.27 191.57 428.46 193.81 429.55C193.87 429.51 193.94 429.49 194.03 429.49C194.17 429.49 194.31 429.53 194.4 429.6ZM197.97 429.51C198.01 429.51 198.08 429.53 198.13 429.55C198.1 429.39 198.06 429.21 198.01 429.03C196.59 427.63 194.95 426.54 193.14 425.78C193.03 425.74 192.94 425.65 192.91 425.51C192.89 425.42 192.89 425.33 192.94 425.26C192.64 425.23 192.32 425.21 192 425.21C191.22 425.21 190.45 425.3 189.67 425.44C191.95 426.49 194.15 427.84 196.18 429.42C196.3 429.42 196.41 429.42 196.53 429.42C197.01 429.42 197.49 429.44 197.97 429.51ZM197.01 427.15C196.32 426.4 195.43 425.85 194.42 425.55C195.34 426.01 196.21 426.54 197.01 427.15Z" id="berMdkWV"></path></defs><g><g><g><use xlink:href="#b1Pp56u0CP" opacity="1" fill="#000000" fill-opacity="1"></use><g><use xlink:href="#b1Pp56u0CP" opacity="1" fill-opacity="0" stroke="#000000" stroke-width="1" stroke-opacity="0"></use></g></g><g><use xlink:href="#a1t4Tzzhyg" opacity="1" fill="#180f0b" fill-opacity="1"></use><g><use xlink:href="#a1t4Tzzhyg" opacity="1" fill-opacity="0" stroke="#000000" stroke-width="1" stroke-opacity="0"></use></g></g><g><use xlink:href="#aA2OnCuQX" opacity="1" fill="#000000" fill-opacity="1"></use><g><use xlink:href="#aA2OnCuQX" opacity="1" fill-opacity="0" stroke="#000000" stroke-width="1" stroke-opacity="0"></use></g></g><g><use xlink:href="#berMdkWV" opacity="1" fill="#180f0b" fill-opacity="1"></use><g><use xlink:href="#berMdkWV" opacity="1" fill-opacity="0" stroke="#000000" stroke-width="1" stroke-opacity="0"></use></g></g></g></g></svg>