<?xml version="1.0" encoding="UTF-8" standalone="no"?>
<!DOCTYPE svg PUBLIC "-//W3C//DTD SVG 1.1//EN" "http://www.w3.org/Graphics/SVG/1.1/DTD/svg11.dtd">
<svg version="1.1" xmlns="http://www.w3.org/2000/svg" xmlns:xlink="http://www.w3.org/1999/xlink" preserveAspectRatio="xMidYMid meet" viewBox="248.38383277047998 411.7942857142857 65.87159575444556 74.03428571428572" width="65.87" height="74.03"><defs><path d="M275.06 425.14C274.81 425.14 274.65 425.28 274.61 425.46C265.49 428.09 259.25 437.85 262.86 447.06C264.5 451.25 267.98 454.65 272.37 455.84C277.14 457.12 282.38 455.47 286.01 452.27C290.77 448.05 292.57 440.87 291.13 434.79C289.42 427.57 281.62 425.17 275.06 425.14ZM286.95 430.81C286.95 430.74 286.93 430.67 286.86 430.61C286.06 429.74 285.23 428.91 284.39 428.11C285.85 428.85 287.15 429.83 288.18 431.09C287.77 430.97 287.36 430.88 286.95 430.81ZM282.79 427.45C283.95 428.5 285.07 429.58 286.15 430.72C285.53 430.65 284.89 430.65 284.27 430.7C284.27 430.63 284.25 430.56 284.18 430.49C283.36 429.58 282.54 428.69 281.71 427.77C281.51 427.54 281.26 427.2 281.01 426.88C281.6 427.02 282.19 427.2 282.74 427.41C282.74 427.43 282.77 427.43 282.79 427.45ZM275.2 426.17C275.66 426.17 276.11 426.19 276.57 426.22C278.17 427.77 279.79 429.3 281.39 430.86C281.67 431.13 282.1 430.7 281.83 430.42C280.39 429.05 278.95 427.66 277.51 426.29C278.17 426.35 278.83 426.45 279.5 426.56C279.52 426.61 279.54 426.65 279.57 426.7C279.63 426.81 279.77 426.88 279.91 426.83C279.92 426.83 279.99 426.81 280 426.81C280 426.81 280 426.81 280 426.81C280.05 426.86 280.09 426.9 280.18 426.95C280.34 427.11 280.48 427.27 280.64 427.45C281.01 427.86 281.39 428.27 281.76 428.69C282.38 429.37 282.99 430.06 283.61 430.74C281.49 430.97 279.43 431.75 277.62 432.96C276.8 432.23 275.98 431.52 275.13 430.79C274.63 430.35 274.15 429.92 273.65 429.49C273.37 429.26 272.57 428.75 272.25 428.32C272.27 428.27 272.27 428.23 272.27 428.18C272.27 428.16 272.27 428.14 272.27 428.11C272.27 427.98 272.18 427.86 272.05 427.82C271.89 427.75 271.79 427.77 271.66 427.86C271.52 427.93 271.5 428.07 271.52 428.21C271.59 428.64 272.02 428.87 272.32 429.12C272.91 429.65 273.51 430.15 274.1 430.67C275.11 431.54 276.09 432.41 277.1 433.28C276.69 433.58 276.3 433.87 275.93 434.22C273.6 432.73 271.43 431.02 269.44 429.12C271.09 427.93 272.94 426.99 274.88 426.45C275.04 426.4 275.15 426.29 275.2 426.17ZM264.91 434.1C264.89 434.47 264.98 434.65 265.21 434.93C265.39 435.15 265.67 434.97 265.71 434.74C267.73 435.95 269.74 437.17 271.75 438.4C272.09 438.61 272.39 438.08 272.05 437.87C269.83 436.53 267.59 435.18 265.37 433.85C265.26 433.78 265.14 433.81 265.05 433.87C266.08 432.23 267.43 430.77 268.98 429.55C270.99 431.47 273.17 433.19 275.52 434.72C275.11 435.13 274.72 435.54 274.35 436C274.33 435.98 274.31 435.95 274.29 435.93C272.05 434.47 269.83 432.98 267.59 431.52C267.27 431.31 266.95 431.84 267.29 432.05C269.53 433.51 271.75 434.99 273.99 436.46C273.99 436.46 274.01 436.46 274.01 436.46C273.78 436.78 273.55 437.1 273.35 437.42C272.82 438.26 272.37 439.2 272 440.18C271.98 440.11 271.93 440.05 271.86 440C269.23 438.63 266.72 437.03 264.32 435.25C264.48 434.81 264.69 434.42 264.91 434.06C264.91 434.08 264.91 434.08 264.91 434.1ZM269.85 442.93C270.17 443.15 270.47 442.63 270.15 442.4C267.95 440.71 265.67 439.13 263.29 437.67C263.47 437.03 263.73 436.39 264 435.77C266.38 437.53 268.87 439.11 271.5 440.48C271.63 440.55 271.75 440.53 271.84 440.43C271.27 442.06 270.93 443.79 270.83 445.55C268.3 443.54 265.62 441.69 262.83 440.02C262.88 439.45 262.99 438.86 263.13 438.29C265.44 439.73 267.68 441.26 269.85 442.93ZM270.56 446.15C270.63 446.22 270.72 446.22 270.79 446.22C270.77 447.04 270.81 447.89 270.93 448.69C270.12 448.15 263.66 443.83 262.86 443.29C262.77 442.42 262.72 441.58 262.77 440.73C265.49 442.35 268.09 444.16 270.56 446.15ZM263.09 444.39C263.06 444.3 263.04 444.21 263.02 444.11C265.65 445.87 268.25 447.63 270.88 449.37C270.93 449.42 270.99 449.42 271.04 449.42C271.11 449.87 271.22 450.33 271.34 450.79C269.1 449.58 266.88 448.39 264.64 447.18C264.3 446.99 263.98 447.52 264.34 447.7C266.74 448.98 269.12 450.26 271.52 451.57C271.54 451.59 271.57 451.59 271.59 451.59C271.7 451.95 271.84 452.3 271.98 452.66C270.29 452 268.59 451.29 266.93 450.54C266.58 450.38 266.26 450.9 266.63 451.06C268.53 451.91 270.42 452.69 272.34 453.44C272.62 453.97 272.91 454.49 273.23 454.97C272.94 454.95 272.62 454.88 272.32 454.79C267.52 453.49 264.16 449.07 263.09 444.39ZM274.65 455.18C274.17 454.61 273.74 453.99 273.39 453.33C273.39 453.3 273.37 453.28 273.35 453.26C270.93 448.71 271.57 442.45 274.01 438.15C274.65 437.03 275.45 436.02 276.37 435.15C276.5 435.15 276.59 435.04 276.64 434.9C277.03 434.56 277.44 434.24 277.87 433.94C277.92 433.97 277.94 434.01 277.99 434.03C278.29 434.29 278.72 433.87 278.42 433.6C278.42 433.6 278.42 433.6 278.42 433.6C281.51 431.68 285.35 431.04 288.89 432.34C288.98 432.37 289.05 432.39 289.12 432.37C289.42 432.87 289.67 433.42 289.87 433.99C291.77 439.22 290.22 445.76 286.79 449.97C283.89 453.55 279.2 455.54 274.65 455.18Z" id="f1lkvwj0qg"></path><path d="M275.73 456.37C274.56 456.37 273.42 456.21 272.34 455.93C268.07 454.79 264.5 451.47 262.79 447.11C261.21 443.09 261.44 438.7 263.41 434.7C265.6 430.26 269.76 426.79 274.56 425.42C274.65 425.21 274.83 425.07 275.09 425.07C278.77 425.07 282.26 425.85 284.98 427.2C288.34 428.89 290.45 431.45 291.25 434.77C292.78 441.21 290.7 448.25 286.1 452.32C283.15 454.88 279.38 456.37 275.73 456.37C275.73 456.37 275.73 456.37 275.73 456.37ZM274.67 425.49C274.67 425.49 274.67 425.5 274.65 425.53C274.62 425.53 274.61 425.53 274.61 425.53C269.83 426.9 265.69 430.35 263.52 434.74C261.58 438.7 261.35 443.04 262.9 447.02C264.59 451.34 268.14 454.61 272.34 455.75C273.42 456.05 274.54 456.18 275.68 456.18C275.68 456.18 275.68 456.18 275.68 456.18C279.31 456.18 283.04 454.72 285.92 452.18C290.49 448.16 292.55 441.17 291.02 434.77C289.39 427.77 281.69 425.23 275.06 425.21C274.88 425.21 274.74 425.3 274.67 425.49ZM274.63 455.27C274.63 455.27 274.62 455.27 274.61 455.27C274.59 455.25 274.58 455.25 274.58 455.25C274.1 454.67 273.67 454.06 273.3 453.37C273.3 453.35 273.28 453.33 273.28 453.3C271.02 449.05 271.29 442.79 273.94 438.1C274.56 437.01 275.36 435.98 276.32 435.09C276.32 435.08 276.33 435.08 276.34 435.06C276.36 435.06 276.36 435.06 276.37 435.06C276.46 435.06 276.55 434.97 276.57 434.88C276.57 434.88 276.57 434.87 276.57 434.86C276.59 434.84 276.59 434.84 276.59 434.83C276.98 434.49 277.39 434.17 277.83 433.87C277.83 433.87 277.85 433.87 277.87 433.85C277.97 433.93 278.02 433.98 278.03 433.99C278.17 434.1 278.38 434.03 278.42 433.87C278.45 433.83 278.45 433.74 278.35 433.67C278.35 433.66 278.33 433.64 278.29 433.6C278.33 433.56 278.35 433.54 278.35 433.53C280.39 432.25 282.7 431.59 284.98 431.59C286.33 431.59 287.63 431.82 288.87 432.27C288.94 432.3 289.01 432.3 289.05 432.3C289.05 432.3 289.07 432.3 289.1 432.3C289.11 432.32 289.12 432.34 289.12 432.34C289.42 432.87 289.67 433.42 289.87 433.97C291.7 438.93 290.45 445.53 286.81 449.99C284.16 453.33 280 455.31 275.73 455.31C275.36 455.31 274.99 455.29 274.63 455.27ZM275.75 455.15C279.98 455.15 284.09 453.19 286.74 449.92C290.35 445.49 291.59 438.95 289.78 434.03C289.58 433.49 289.33 432.96 289.05 432.46C288.98 432.46 288.91 432.46 288.85 432.41C287.61 431.95 286.33 431.73 285.01 431.73C282.77 431.73 280.53 432.37 278.54 433.6C278.61 433.69 278.63 433.81 278.58 433.92C278.51 434.08 278.35 434.19 278.19 434.19C278.1 434.19 278.01 434.17 277.94 434.1C277.94 434.1 277.88 434.06 277.87 434.06C277.46 434.33 277.07 434.65 276.73 434.97C276.69 435.11 276.57 435.22 276.43 435.25C275.5 436.11 274.72 437.12 274.1 438.19C271.47 442.83 271.2 449.03 273.44 453.23C273.46 453.26 273.46 453.28 273.49 453.3C273.81 453.97 274.22 454.56 274.7 455.11C275.04 455.13 275.38 455.15 275.75 455.15ZM273.21 455.06C272.89 454.99 272.57 454.93 272.3 454.86C267.84 453.65 264.18 449.55 262.99 444.41C262.97 444.34 262.97 444.27 262.95 444.21C262.95 444.19 262.93 444.11 262.9 443.95C267.72 447.18 270.39 448.97 270.93 449.33C270.97 449.35 270.99 449.37 271.04 449.37C271.04 449.37 271.07 449.37 271.11 449.37C271.12 449.41 271.13 449.44 271.13 449.44C271.2 449.87 271.31 450.35 271.43 450.81C271.43 450.82 271.45 450.88 271.47 450.97C271.38 450.92 271.32 450.89 271.31 450.88C268.91 449.58 266.72 448.41 264.62 447.27C264.46 447.18 264.32 447.31 264.27 447.43C264.27 447.47 264.25 447.59 264.39 447.66C266.77 448.94 269.19 450.22 271.57 451.52C271.59 451.52 271.59 451.54 271.61 451.54C271.61 451.54 271.63 451.54 271.66 451.54C271.67 451.57 271.68 451.59 271.68 451.59C271.79 451.93 271.93 452.3 272.07 452.64C272.07 452.65 272.1 452.7 272.14 452.8C272.04 452.76 271.99 452.74 271.98 452.73C270.24 452.05 268.55 451.34 266.93 450.61C266.77 450.54 266.61 450.67 266.58 450.79C266.58 450.83 266.58 450.93 266.7 450.99C268.55 451.82 270.47 452.62 272.41 453.37C272.41 453.37 272.42 453.37 272.43 453.37C272.45 453.39 272.46 453.39 272.46 453.39C272.73 453.94 273.03 454.45 273.35 454.93C273.35 454.94 273.37 455 273.39 455.11C273.28 455.08 273.22 455.07 273.21 455.06ZM272.34 454.7C272.57 454.77 272.82 454.81 273.07 454.88C272.8 454.45 272.53 453.99 272.27 453.51C270.38 452.78 268.5 452 266.72 451.2C268.3 452.89 270.22 454.13 272.34 454.7ZM266.95 450.49C268.53 451.2 270.17 451.89 271.84 452.55C271.73 452.25 271.61 451.95 271.52 451.68C271.5 451.68 271.5 451.66 271.47 451.66C269.12 450.38 266.74 449.1 264.39 447.84C264.94 448.94 265.6 449.94 266.38 450.83C266.38 450.81 266.38 450.81 266.38 450.79C266.42 450.63 266.56 450.45 266.79 450.45C266.83 450.45 266.9 450.47 266.95 450.49ZM264.69 447.13C266.74 448.23 268.89 449.37 271.22 450.65C271.13 450.26 271.04 449.87 270.97 449.51C270.93 449.51 270.88 449.49 270.83 449.44C270.06 448.92 263.9 444.79 263.13 444.27C263.13 444.3 263.15 444.34 263.15 444.37C263.38 445.39 263.73 446.4 264.16 447.31C264.21 447.18 264.34 447.09 264.5 447.09C264.57 447.09 264.62 447.11 264.69 447.13ZM262.81 443.34C262.81 443.32 262.81 443.32 262.81 443.31C262.7 442.47 262.65 441.6 262.7 440.73C262.7 440.72 262.7 440.69 262.7 440.62C262.77 440.66 262.8 440.68 262.81 440.69C265.55 442.33 268.18 444.16 270.63 446.1C270.67 446.15 270.74 446.17 270.81 446.15C270.82 446.15 270.85 446.15 270.9 446.15C270.9 446.2 270.9 446.23 270.9 446.24C270.88 447.06 270.93 447.89 271.04 448.71C271.04 448.72 271.04 448.76 271.04 448.85L262.81 443.34ZM270.83 448.53C270.74 447.79 270.72 447.04 270.72 446.29C270.65 446.29 270.58 446.24 270.51 446.19C268.11 444.27 265.53 442.47 262.83 440.85C262.81 441.65 262.83 442.45 262.95 443.25C264.53 444.3 270.05 448 270.83 448.53ZM270.79 445.65C268.25 443.63 265.55 441.76 262.79 440.11C262.79 440.11 262.77 440.11 262.74 440.09C262.74 440.06 262.74 440.05 262.74 440.05C262.81 439.45 262.9 438.86 263.06 438.26C263.06 438.26 263.07 438.23 263.09 438.17C263.14 438.2 263.17 438.21 263.18 438.22C265.51 439.66 267.75 441.21 269.9 442.86C270.03 442.95 270.15 442.86 270.19 442.74C270.22 442.7 270.24 442.56 270.1 442.45C267.93 440.75 265.62 439.18 263.25 437.71C263.24 437.71 263.23 437.71 263.2 437.69C263.21 437.66 263.22 437.65 263.22 437.65C263.41 437.01 263.66 436.37 263.93 435.75C263.93 435.74 263.95 435.71 263.98 435.66C264.02 435.68 264.04 435.7 264.05 435.7C266.4 437.46 268.91 439.04 271.52 440.41C271.63 440.46 271.73 440.43 271.77 440.39C271.78 440.38 271.82 440.35 271.89 440.3C271.87 440.21 271.86 440.17 271.86 440.16C271.84 440.11 271.82 440.07 271.75 440.02C269.12 438.65 266.58 437.05 264.21 435.27C264.2 435.27 264.19 435.25 264.16 435.22C264.17 435.2 264.18 435.18 264.18 435.18C264.37 434.81 264.55 434.47 264.75 434.13C264.75 434.13 264.75 434.13 264.75 434.13L265.05 433.65C265.05 433.66 265.05 433.67 265.05 433.67C266.08 432.09 267.36 430.65 268.91 429.44C268.92 429.44 268.93 429.42 268.96 429.39C268.99 429.42 269 429.44 269.01 429.44C270.99 431.36 273.19 433.07 275.52 434.58C275.52 434.59 275.55 434.6 275.59 434.63C275.55 434.67 275.52 434.69 275.52 434.7C275.11 435.11 274.7 435.54 274.35 435.98C274.35 435.98 274.33 436 274.29 436.05C274.24 436 274.22 435.98 274.22 435.98C274.19 435.95 274.17 435.93 274.15 435.93C273.48 435.49 268.12 431.96 267.45 431.52C267.31 431.43 267.18 431.52 267.13 431.66C267.11 431.7 267.09 431.84 267.22 431.91C267.67 432.21 269.93 433.69 273.99 436.37C273.97 436.41 273.97 436.43 273.97 436.43C273.74 436.75 273.51 437.07 273.3 437.39C272.78 438.22 272.32 439.15 271.95 440.16C271.95 440.18 271.92 440.26 271.86 440.41L271.86 440.41C271.85 440.44 271.84 440.45 271.84 440.46C271.27 442.08 270.93 443.79 270.83 445.58C270.84 445.59 270.86 445.64 270.9 445.74C270.83 445.68 270.8 445.65 270.79 445.65ZM270.77 445.42C270.86 443.75 271.18 442.13 271.7 440.59C271.61 440.62 271.54 440.59 271.45 440.55C268.87 439.2 266.38 437.62 264.02 435.89C263.77 436.46 263.57 437.03 263.38 437.62C265.74 439.06 268.02 440.66 270.19 442.33C270.35 442.47 270.38 442.65 270.33 442.79C270.24 443.02 269.99 443.13 269.81 442.97C267.7 441.35 265.46 439.79 263.18 438.4C263.06 438.93 262.97 439.47 262.9 440C265.62 441.62 268.25 443.43 270.77 445.42ZM271.84 439.91C271.89 439.93 271.91 439.95 271.93 439.98C272.3 439.02 272.73 438.15 273.23 437.35C273.42 437.05 273.62 436.75 273.85 436.46C273.19 436.02 267.87 432.51 267.2 432.07C267.06 431.98 266.99 431.82 267.04 431.63C267.11 431.41 267.38 431.27 267.59 431.41C268.26 431.85 273.62 435.38 274.29 435.82C274.29 435.82 274.31 435.84 274.31 435.84C274.63 435.45 274.99 435.06 275.36 434.67C273.07 433.19 270.93 431.47 268.96 429.6C267.47 430.79 266.22 432.16 265.21 433.69C265.28 433.69 265.33 433.71 265.39 433.74C266.06 434.14 271.4 437.36 272.07 437.76C272.23 437.85 272.27 438.01 272.23 438.17C272.16 438.42 271.89 438.54 271.68 438.4C271.08 438.04 266.31 435.15 265.71 434.79C265.65 434.93 265.51 435.04 265.37 435.04C265.3 435.04 265.21 435.02 265.12 434.9C264.96 434.7 264.85 434.51 264.82 434.26C264.66 434.61 264.5 434.9 264.37 435.2C266.72 436.96 269.23 438.54 271.84 439.91ZM271.79 438.31C271.93 438.4 272.09 438.29 272.11 438.17C272.14 438.13 272.14 438.01 272.02 437.92C271.36 437.52 266.02 434.3 265.35 433.9C265.28 433.85 265.19 433.85 265.12 433.9C265.11 433.9 265.08 433.92 265.03 433.97C265.01 434.03 265.01 434.07 265.01 434.08C264.98 434.4 265.05 434.58 265.28 434.86C265.33 434.9 265.37 434.93 265.42 434.93C265.51 434.93 265.62 434.83 265.65 434.7C265.65 434.69 265.65 434.66 265.65 434.61C269.33 436.83 271.38 438.06 271.79 438.31ZM275.91 434.31C273.58 432.82 271.41 431.11 269.39 429.19C269.39 429.18 269.37 429.16 269.33 429.12C269.37 429.09 269.39 429.08 269.39 429.07C271.09 427.84 272.91 426.93 274.83 426.38C274.97 426.33 275.06 426.26 275.11 426.15C275.11 426.15 275.12 426.13 275.13 426.1C275.16 426.1 275.17 426.1 275.18 426.1C275.63 426.1 276.09 426.13 276.55 426.15C276.55 426.15 276.56 426.15 276.57 426.15L276.59 426.17C279.49 428.96 281.1 430.5 281.42 430.81C281.53 430.93 281.74 430.86 281.81 430.72C281.83 430.67 281.85 430.58 281.76 430.49C281.46 430.2 279.98 428.77 277.3 426.19C277.43 426.21 277.49 426.22 277.51 426.22C278.17 426.29 278.83 426.38 279.5 426.49C279.5 426.49 279.52 426.49 279.54 426.49C279.56 426.52 279.56 426.53 279.57 426.54C279.59 426.58 279.59 426.61 279.63 426.67C279.68 426.77 279.79 426.81 279.89 426.79C279.89 426.79 279.94 426.78 280.02 426.77C280.05 426.79 280.07 426.81 280.07 426.81C280.09 426.86 280.16 426.9 280.23 426.93C280.23 426.93 280.24 426.93 280.25 426.95L283.77 430.86C283.69 430.87 283.64 430.88 283.63 430.88C281.55 431.11 279.5 431.86 277.69 433.07C277.69 433.08 277.67 433.08 277.65 433.1C275.25 431 273.91 429.83 273.65 429.6C273.55 429.53 273.42 429.42 273.26 429.3C272.91 429.05 272.46 428.73 272.23 428.43C272.23 428.43 272.22 428.42 272.21 428.39C272.22 428.36 272.23 428.35 272.23 428.34C272.25 428.32 272.25 428.27 272.25 428.23C272.25 428.22 272.25 428.17 272.25 428.16C272.25 428.02 272.14 427.95 272.07 427.93C271.93 427.89 271.86 427.89 271.73 427.98C271.63 428.02 271.61 428.11 271.61 428.25C271.66 428.55 271.91 428.75 272.18 428.96C272.25 429.03 272.32 429.07 272.39 429.14C272.71 429.42 274.33 430.83 277.23 433.37C277.19 433.4 277.17 433.41 277.17 433.42C276.75 433.71 276.37 434.03 276 434.35C276 434.35 275.98 434.35 275.95 434.33C275.93 434.32 275.91 434.31 275.91 434.31ZM275.95 434.15C276.27 433.85 276.64 433.58 277.01 433.3C276.54 432.89 272.79 429.62 272.32 429.21C272.25 429.17 272.18 429.1 272.11 429.05C271.84 428.85 271.54 428.62 271.5 428.25C271.47 428.11 271.5 428 271.59 427.91C270.88 428.25 270.22 428.69 269.58 429.14C271.54 430.99 273.67 432.69 275.95 434.15ZM273.33 429.12C273.49 429.23 273.62 429.35 273.71 429.42C274.11 429.76 277.23 432.5 277.62 432.85C279.41 431.68 281.42 430.93 283.45 430.67C283.12 430.31 280.47 427.36 280.14 426.99C280.07 426.95 280.02 426.93 279.98 426.88C279.97 426.88 279.94 426.9 279.93 426.9C279.77 426.95 279.59 426.88 279.5 426.72C279.47 426.67 279.45 426.65 279.45 426.61C278.88 426.51 278.29 426.42 277.71 426.35C278.13 426.75 281.46 429.95 281.87 430.35C281.99 430.47 282.01 430.61 281.97 430.74C281.9 430.9 281.76 430.99 281.6 430.99C281.51 430.99 281.42 430.95 281.35 430.88C280.87 430.42 277.03 426.72 276.55 426.26C276.11 426.24 275.7 426.22 275.27 426.22C275.22 426.33 275.11 426.45 274.93 426.49C273.87 426.79 272.87 427.2 271.89 427.7C271.95 427.68 272.05 427.7 272.14 427.75C272.32 427.82 272.41 427.95 272.41 428.11C272.41 428.12 272.41 428.18 272.41 428.18C272.37 428.25 272.37 428.27 272.37 428.32C272.59 428.59 273.01 428.89 273.33 429.12ZM288.16 431.15C287.77 431.04 287.38 430.95 286.95 430.88C286.94 430.88 286.92 430.88 286.88 430.88C286.88 430.84 286.88 430.82 286.88 430.81C286.88 430.77 286.86 430.7 286.81 430.65C286.03 429.81 285.21 428.98 284.34 428.16C284.32 428.14 284.2 428.01 283.98 427.79C284.25 427.93 284.4 428.01 284.43 428.02C285.99 428.8 287.27 429.81 288.23 431.02C288.24 431.03 288.29 431.1 288.39 431.22C288.25 431.18 288.18 431.16 288.16 431.15ZM287.98 430.97C287.13 429.99 286.1 429.14 284.85 428.46C285.58 429.17 286.26 429.87 286.93 430.58C286.99 430.63 287.02 430.7 287.04 430.77C287.36 430.81 287.68 430.88 287.98 430.97ZM286.13 430.79C285.51 430.72 284.89 430.72 284.27 430.77C284.27 430.77 284.24 430.77 284.18 430.77C284.18 430.71 284.18 430.68 284.18 430.67C284.18 430.63 284.16 430.56 284.11 430.51C283.87 430.24 281.89 428.07 281.65 427.79C281.53 427.66 281.39 427.5 281.26 427.31C281.17 427.18 281.05 427.04 280.94 426.9C280.93 426.89 280.87 426.83 280.78 426.72C280.91 426.76 280.99 426.78 281.01 426.79C281.6 426.95 282.17 427.11 282.74 427.31C282.74 427.31 282.75 427.31 282.77 427.31C282.78 427.33 282.79 427.34 282.79 427.34C282.79 427.34 282.81 427.36 282.81 427.36C283.95 428.39 285.07 429.49 286.17 430.63C286.18 430.64 286.24 430.7 286.33 430.81C286.21 430.8 286.14 430.79 286.13 430.79ZM285.94 430.63C284.89 429.53 283.82 428.48 282.72 427.5C282.72 427.5 282.7 427.47 282.7 427.47C282.22 427.29 281.71 427.15 281.23 427.02C281.3 427.09 281.35 427.18 281.42 427.25C281.55 427.43 281.67 427.59 281.81 427.73C282.05 428 284.03 430.17 284.27 430.45C284.32 430.49 284.34 430.56 284.37 430.63C284.55 430.58 284.78 430.58 284.98 430.58C285.3 430.58 285.62 430.61 285.94 430.63Z" id="b2CGT5DUTz"></path><path d="M313.69 441.78C314.06 441.9 314.22 441.3 313.85 441.19C313.71 441.14 313.6 441.12 313.46 441.07C312.09 434.83 308.69 428.98 304.16 424.48C299.84 420.18 294.54 416.98 288.94 414.67C288.75 414.61 288.59 414.63 288.5 414.74C281.3 411.43 272.8 410.86 265.35 413.67C260.43 415.52 256.53 418.88 253.83 423.34C250.79 428.34 248.94 434.17 248.53 440C248.07 446.26 249.69 452.64 253.28 457.83C255.02 460.34 257.26 462.47 259.84 464.14C262.67 465.97 265.87 467.15 269.05 468.23C269.05 468.67 269.01 470.89 268.96 474.88C268.93 476.81 268.92 477.89 268.91 478.1C268.91 478.31 268.94 478.47 269.01 478.61C268.91 478.81 268.94 479.09 269.19 479.25C271.93 480.89 274.63 482.65 277.49 484.09C280.21 485.46 282.88 485.6 285.87 485.65C287.47 485.67 289.07 485.69 290.67 485.71C291.89 485.74 292.25 485.33 292.3 484.14C292.39 482.13 292.48 480.14 292.55 478.13C292.62 478.01 292.64 477.87 292.57 477.74C292.62 476.66 292.66 475.57 292.71 474.49C292.94 474.45 293.12 474.19 293.12 473.97C302.17 470.24 310.51 463.52 313.23 453.76C314.33 449.81 314.38 445.71 313.62 441.76C313.65 441.76 313.67 441.78 313.69 441.78ZM305.62 441.67C305.65 440.87 305.65 440.09 305.6 439.31C305.65 439.31 305.71 439.34 305.78 439.31C306.15 439.43 306.54 439.54 306.9 439.66C307.66 439.89 308.41 440.14 309.17 440.37C310.29 440.71 311.38 441.05 312.5 441.39C312.73 442.51 312.89 443.63 312.98 444.73C310.61 443.57 308.14 442.54 305.62 441.67ZM311.61 438.1C311.91 438.97 312.14 439.86 312.34 440.75C310.97 440.32 309.58 439.89 308.21 439.45C307.34 439.18 306.45 438.83 305.55 438.63C305.51 438.15 305.46 437.67 305.39 437.19C305.55 437.1 305.62 436.89 305.46 436.71C305.97 437.21 307.27 437.37 307.95 437.58C308.85 437.85 309.74 438.13 310.65 438.42C311.02 438.54 311.18 437.94 310.81 437.83C309.07 437.28 307.34 436.62 305.58 436.21C305.46 436.18 305.35 436.18 305.26 436.21C305.12 435.43 304.96 434.63 304.75 433.87C306.56 434.49 308.39 435.09 310.24 435.59C310.4 435.66 310.54 435.57 310.58 435.43C310.97 436.3 311.31 437.19 311.61 438.1ZM310.4 435.04C308.48 434.49 306.58 433.9 304.71 433.26C304.66 433.23 304.59 433.23 304.55 433.23C304.39 432.66 304.21 432.11 304 431.54C305.78 431.61 307.52 431.98 309.17 432.66C309.62 433.44 310.03 434.22 310.4 435.04C310.4 435.04 310.4 435.04 310.4 435.04ZM303.86 430.93C303.84 430.93 303.82 430.93 303.82 430.93C303.63 430.45 303.43 429.97 303.22 429.51C303.38 429.53 303.52 429.39 303.54 429.23C303.98 429.07 305.39 429.55 305.71 429.62C306.47 429.83 307.2 430.15 307.89 430.51C308.16 430.97 308.43 431.41 308.71 431.84C307.15 431.29 305.53 430.97 303.86 430.93ZM307.15 429.53C306.51 429.26 305.87 429.05 305.19 428.89C304.57 428.75 303.41 428.34 302.95 428.96C302.7 428.46 302.45 427.95 302.17 427.45C303.36 427.31 304.55 427.47 305.69 427.98C305.76 428 305.85 427.98 305.92 427.95C306.33 428.46 306.74 428.98 307.15 429.53ZM305.23 427.15C304.14 426.79 302.99 426.7 301.85 426.88C301.55 426.35 301.21 425.83 300.89 425.3C301.58 425.33 302.26 425.26 302.93 425.07C303.02 425.03 303.09 424.98 303.11 424.91C303.84 425.62 304.57 426.38 305.23 427.15ZM300.62 424.69C300.57 424.69 300.53 424.69 300.48 424.71C300.16 424.25 299.84 423.82 299.5 423.38C299.75 423.25 300.02 423.15 300.32 423.11C300.71 423.04 300.55 422.47 300.16 422.51C299.79 422.58 299.43 422.72 299.13 422.9C297.92 421.42 296.55 420.05 295.06 418.83C297.78 420.43 300.37 422.33 302.67 424.5C301.99 424.66 301.3 424.73 300.62 424.69ZM269.99 474.1C270.04 470.55 270.07 468.58 270.08 468.18C270.22 467.93 270.15 467.54 269.81 467.43C264.18 465.53 258.86 463.2 255.02 458.47C251.54 454.19 249.76 448.71 249.51 443.25C249.21 437.05 250.99 430.88 253.83 425.44C256.5 420.34 260.53 416.57 265.92 414.54C275.95 410.74 287.73 413.58 295.61 420.59C296.66 421.53 297.6 422.54 298.49 423.59C298.51 423.66 298.56 423.73 298.63 423.75C303.66 430.01 305.74 438.42 304.05 446.29C303.91 446.22 303.77 446.15 303.63 446.08C303.29 445.9 302.97 446.42 303.34 446.61C303.52 446.7 303.73 446.81 303.91 446.9C303.63 448.05 303.29 449.17 302.83 450.29C300.78 455.45 296.89 459.79 292.66 463.29C290.47 465.1 288 466.61 285.23 467.34C285.14 467.29 285.03 467.29 284.91 467.31C284.71 467.38 284.5 467.43 284.3 467.5C284.21 467.52 284.14 467.57 284.07 467.63C283.79 467.45 283.29 467.59 283.25 468.05C283.02 470.81 282.79 473.6 282.56 476.37C282.42 476.48 282.38 476.71 282.51 476.85C282.47 477.37 282.42 477.87 282.38 478.4C281.21 478.49 280.07 478.56 278.9 478.61C278.77 478.51 278.63 478.54 278.51 478.63C276.21 478.7 273.9 478.63 271.57 478.45C271.18 478.42 270.79 478.38 270.4 478.33C269.65 478.26 269.94 477.46 269.94 476.91C269.95 476.54 269.96 475.6 269.99 474.1ZM277.05 482.77C275.18 481.74 273.35 480.64 271.54 479.52C272.59 479.61 273.67 479.63 274.72 479.66C274.74 479.68 274.77 479.73 274.79 479.75C276.75 481.46 278.86 482.99 281.05 484.37C280.96 484.34 280.87 484.34 280.78 484.32C279.47 484.02 278.24 483.41 277.05 482.77ZM275.63 479.68C275.84 479.68 276.05 479.68 276.23 479.68C277.19 479.7 278.17 479.68 279.13 479.63C281.05 481.3 282.97 482.97 284.91 484.64C284.14 484.64 283.34 484.62 282.56 484.57C280.11 483.13 277.81 481.51 275.63 479.68ZM280.02 479.59C280.53 479.57 281.03 479.54 281.51 479.5C283.77 481.01 285.83 482.74 287.73 484.69C287.11 484.69 286.49 484.66 285.85 484.66C283.91 482.97 281.97 481.28 280.02 479.59ZM288.48 484.69C288.48 484.62 288.46 484.55 288.39 484.5C286.93 482.97 285.35 481.58 283.68 480.3C285.99 481.78 288.32 483.27 290.63 484.78C290.29 484.82 289.83 484.71 289.46 484.71C289.14 484.71 288.82 484.71 288.48 484.69ZM291.29 483.98C288.64 482.26 285.99 480.57 283.34 478.86C283.38 478.42 283.41 478.01 283.45 477.58C285.87 479.43 288.27 481.33 290.65 483.27C290.95 483.52 291.38 483.09 291.09 482.83C288.59 480.8 286.08 478.81 283.52 476.85C283.57 476.18 283.63 475.52 283.68 474.86C286.08 477.01 288.69 478.9 291.45 480.55C291.41 481.1 291.38 481.62 291.36 482.15C291.34 482.77 291.31 483.38 291.29 483.98ZM284.37 472.07C284.05 471.84 283.75 472.37 284.07 472.59C286.56 474.33 289.05 476.07 291.57 477.78C291.54 478.49 291.5 479.2 291.47 479.89C288.78 478.24 286.24 476.37 283.89 474.26C283.84 474.22 283.79 474.19 283.73 474.19C283.86 472.64 283.98 471.06 284.11 469.51C286.67 470.97 289.23 472.43 291.7 474.01C291.68 475.04 291.63 476.05 291.59 477.07C289.19 475.41 286.79 473.74 284.37 472.07ZM292.37 473.23C289.92 471.66 287.38 470.22 284.87 468.75C284.94 468.66 284.96 468.55 284.94 468.43C285.1 468.39 285.28 468.37 285.44 468.32C285.76 468.25 286.08 468.14 286.42 468.05C286.67 467.95 286.93 467.86 287.18 467.77C289.71 469.33 292.3 470.77 294.95 472.09C294.13 472.48 293.28 472.85 292.46 473.19C292.43 473.21 292.39 473.21 292.37 473.23ZM303.98 465.99C301.55 464.43 299.13 462.88 296.71 461.33C296.39 461.12 296.07 461.65 296.41 461.85C297.14 462.32 302.95 466.05 303.68 466.51C303.41 466.74 303.13 466.97 302.86 467.2C302.13 467.79 301.37 468.34 300.59 468.87C298.06 467.57 295.52 466.26 293.01 464.91C292.66 464.73 292.34 465.26 292.71 465.44C295.13 466.74 297.58 468 300.05 469.26C298.58 470.22 297.07 471.06 295.5 471.82C295.5 471.73 295.45 471.63 295.34 471.59C292.8 470.31 290.31 468.94 287.89 467.47C287.98 467.43 288.05 467.41 288.14 467.36C288.85 467.06 289.51 466.7 290.17 466.29C292.69 467.66 295.2 469.05 297.71 470.42C298.06 470.61 298.35 470.08 298.01 469.9C295.59 468.57 293.17 467.25 290.77 465.9C291.15 465.65 291.57 465.37 291.93 465.1C294.17 463.5 296.21 461.55 298.06 459.52C298.99 458.49 299.86 457.42 300.64 456.3C300.62 456.41 300.66 456.53 300.78 456.59C303.04 457.9 305.21 459.31 307.34 460.85C307.66 461.07 307.95 460.55 307.63 460.32C305.51 458.79 303.34 457.37 301.07 456.07C300.96 456 300.87 456.02 300.8 456.07C301.17 455.54 301.51 455.02 301.83 454.47C301.85 454.51 301.9 454.56 301.97 454.58C304.73 455.75 307.41 457.07 310.03 458.51C310.1 458.56 310.19 458.56 310.26 458.54C308.66 461.44 306.54 463.95 304.09 466.13C304.07 466.08 304.02 466.03 303.98 465.99ZM310.45 458.17C310.42 458.1 310.38 458.06 310.31 458.01C307.7 456.55 305.01 455.25 302.24 454.08C302.17 454.06 302.1 454.06 302.06 454.06C302.33 453.58 302.61 453.07 302.86 452.57C305.05 453.65 307.22 454.77 309.37 455.95C309.71 456.14 310.01 455.61 309.67 455.43C307.52 454.24 305.33 453.1 303.11 452.02C303.47 451.27 303.77 450.51 304.07 449.74C306.72 451.2 309.39 452.66 312.05 454.13C312 454.35 311.93 454.58 311.86 454.79C311.47 455.95 310.99 457.1 310.45 458.17ZM304.27 449.17C304.48 448.59 304.64 448 304.8 447.41C307.43 448.75 310.06 450.13 312.66 451.47C312.57 452.18 312.41 452.87 312.23 453.53C309.58 452.07 306.93 450.61 304.27 449.17ZM304.96 446.81C305.07 446.33 305.17 445.85 305.26 445.37C305.26 445.37 305.26 445.37 305.26 445.37C306.63 445.69 307.91 446.58 309.12 447.22C310.4 447.91 311.68 448.57 312.96 449.26C312.94 449.78 312.87 450.31 312.78 450.86C311.21 450.05 305.74 447.22 304.96 446.81ZM308.75 446.31C307.66 445.74 306.58 445.05 305.37 444.75C305.49 443.93 305.58 443.11 305.62 442.29C308.16 443.18 310.65 444.21 313.05 445.42C313.1 446.49 313.1 447.54 313.03 448.57C312.17 448.12 309.18 446.53 308.75 446.31Z" id="h97p8qZaY"></path><path d="M290.67 485.83C287.79 485.79 286.19 485.76 285.87 485.76C282.74 485.71 280.14 485.58 277.46 484.21C275.41 483.15 273.39 481.92 271.43 480.73C270.67 480.27 269.92 479.79 269.14 479.36C268.85 479.2 268.82 478.9 268.91 478.65C268.87 478.49 268.82 478.33 268.85 478.15C268.86 477.17 268.97 469.3 268.98 468.32C265.92 467.27 262.67 466.1 259.82 464.23C257.17 462.51 254.97 460.39 253.23 457.9C249.69 452.8 248 446.45 248.46 440.02C248.87 434.17 250.72 428.39 253.78 423.31C256.53 418.79 260.53 415.43 265.35 413.6C268.53 412.41 271.93 411.79 275.45 411.79C279.91 411.79 284.41 412.78 288.53 414.65C288.66 414.56 288.82 414.54 289.01 414.61C295.11 417.12 300.25 420.41 304.27 424.41C308.94 429.07 312.25 434.95 313.58 441.01C313.61 441.02 313.89 441.11 313.92 441.12C314.13 441.19 314.19 441.37 314.17 441.55C314.15 441.78 313.94 441.92 313.76 441.87C314.54 445.99 314.4 449.99 313.35 453.81C312.07 458.4 309.49 462.58 305.65 466.19C302.31 469.35 298.03 472.05 293.23 474.03C293.21 474.29 293.05 474.51 292.82 474.58C292.81 474.9 292.7 477.42 292.69 477.74C292.75 477.87 292.75 478.03 292.66 478.17C292.64 478.77 292.44 483.56 292.41 484.16C292.32 485.39 291.91 485.83 290.74 485.83C290.73 485.83 290.71 485.83 290.67 485.83ZM265.37 413.76C260.59 415.57 256.62 418.9 253.9 423.41C250.83 428.46 249.01 434.19 248.59 440.05C248.14 446.45 249.83 452.75 253.35 457.83C255.06 460.3 257.26 462.42 259.89 464.11C262.77 465.97 266.01 467.15 269.07 468.21C269.08 468.21 269.09 468.21 269.12 468.23C269.04 474.18 268.99 477.49 268.98 478.15C268.98 478.33 269.01 478.49 269.07 478.63C269.08 478.63 269.08 478.64 269.1 478.65C269.08 478.67 269.08 478.67 269.07 478.67C269.01 478.83 269.01 479.06 269.23 479.2C269.99 479.66 270.77 480.14 271.52 480.59C273.46 481.78 275.47 483.02 277.53 484.07C280.16 485.42 282.77 485.55 285.87 485.6C286.36 485.61 290.28 485.66 290.77 485.67C291.84 485.67 292.18 485.33 292.23 484.16C292.25 483.76 292.33 481.75 292.48 478.13C292.49 478.11 292.5 478.1 292.5 478.1C292.55 478.03 292.59 477.9 292.53 477.81C292.52 477.8 292.52 477.8 292.5 477.78L292.5 477.76L292.64 474.45C292.68 474.45 292.7 474.45 292.71 474.45C292.89 474.42 293.05 474.19 293.05 473.99C293.05 473.99 293.05 473.97 293.05 473.94C293.08 473.93 293.09 473.92 293.1 473.92C299.2 471.41 309.92 465.46 313.17 453.76C314.24 449.92 314.35 445.9 313.55 441.78C313.55 441.78 313.55 441.74 313.53 441.67C313.65 441.71 313.72 441.73 313.74 441.74C313.9 441.78 313.99 441.67 314.01 441.55C314.03 441.46 313.99 441.35 313.85 441.3C313.82 441.29 313.69 441.25 313.44 441.17C313.44 441.14 313.44 441.12 313.44 441.12C312.11 435.09 308.82 429.21 304.16 424.57C300.16 420.57 295.04 417.28 288.96 414.79C288.82 414.72 288.69 414.74 288.59 414.83C288.59 414.84 288.58 414.84 288.55 414.86C288.52 414.84 288.51 414.84 288.5 414.83C284.39 412.94 279.89 411.95 275.43 411.95C271.91 411.95 268.53 412.55 265.37 413.76ZM289.94 484.82C289.78 484.8 289.62 484.8 289.49 484.78C289.42 484.78 289.07 484.77 288.43 484.75C288.43 484.71 288.43 484.69 288.43 484.69C288.43 484.64 288.41 484.59 288.37 484.55C286.93 483.04 285.35 481.62 283.66 480.37C283.66 480.36 283.69 480.32 283.75 480.25L290.88 484.85C290.74 484.86 290.67 484.87 290.65 484.87C290.61 484.87 290.54 484.87 290.49 484.87C290.31 484.87 290.13 484.85 289.94 484.82ZM289.49 484.64C289.65 484.64 289.81 484.66 289.97 484.69C290.1 484.71 290.26 484.71 290.4 484.73C289.86 484.38 285.55 481.6 285.01 481.26C286.24 482.26 287.41 483.34 288.48 484.48C288.5 484.5 288.55 484.57 288.57 484.62C288.75 484.62 289.39 484.64 289.49 484.64ZM285.83 484.73L279.82 479.52C279.93 479.52 279.99 479.52 280 479.52C280.46 479.5 280.94 479.47 281.49 479.43C281.49 479.43 281.49 479.43 281.51 479.43C281.52 479.44 281.53 479.45 281.53 479.45C283.77 480.94 285.87 482.7 287.77 484.64C287.78 484.65 287.83 484.69 287.91 484.75L285.83 484.73ZM287.57 484.59C285.71 482.7 283.68 481.01 281.51 479.57C281.05 479.59 280.62 479.63 280.23 479.66C280.61 479.98 282.5 481.62 285.9 484.57C286.9 484.59 287.45 484.59 287.57 484.59ZM284.73 484.73C284.02 484.73 283.27 484.71 282.54 484.66C282.53 484.66 282.52 484.66 282.51 484.66C280.07 483.25 277.74 481.58 275.59 479.75C275.58 479.74 275.52 479.69 275.43 479.61C275.92 479.61 276.2 479.61 276.25 479.61C276.46 479.61 276.66 479.61 276.87 479.61C277.6 479.61 278.38 479.59 279.15 479.57C279.16 479.57 279.16 479.57 279.18 479.57L279.2 479.59L285.12 484.73C284.89 484.73 284.76 484.73 284.73 484.73ZM284.71 484.55C284.15 484.06 279.67 480.19 279.11 479.7C278.33 479.73 277.58 479.75 276.85 479.75C276.64 479.75 276.43 479.75 276.23 479.75C276.19 479.75 275.88 479.75 275.84 479.75C277.94 481.51 280.21 483.11 282.58 484.48C283.29 484.53 284.02 484.55 284.71 484.55ZM280.96 484.43C280.89 484.41 280.82 484.41 280.78 484.39C279.45 484.09 278.19 483.47 277.05 482.83C275.31 481.9 273.58 480.82 271.91 479.82C271.86 479.79 271.64 479.66 271.25 479.43C271.44 479.44 271.54 479.45 271.57 479.45C272.64 479.54 273.78 479.57 274.72 479.59C274.72 479.59 274.74 479.59 274.77 479.59C274.78 479.62 274.79 479.63 274.79 479.63C274.81 479.66 274.81 479.68 274.83 479.7C276.8 481.39 278.9 482.95 281.1 484.32C281.12 484.33 281.24 484.4 281.46 484.53C281.16 484.47 280.99 484.44 280.96 484.43ZM271.95 479.68C273.62 480.69 275.34 481.76 277.1 482.7C278.19 483.29 279.41 483.89 280.66 484.21C278.58 482.88 276.59 481.42 274.74 479.79C274.72 479.77 274.7 479.75 274.67 479.73C273.83 479.73 272.85 479.7 271.86 479.61C271.88 479.63 271.95 479.67 271.95 479.68ZM283.27 478.93L283.38 477.46C283.45 477.52 283.49 477.55 283.5 477.55C285.97 479.43 288.39 481.35 290.7 483.25C290.83 483.36 291.04 483.27 291.09 483.13C291.11 483.09 291.11 482.99 291.02 482.93C288.59 480.94 286.06 478.93 283.45 476.94C283.45 476.94 283.44 476.93 283.43 476.91L283.61 474.72C283.68 474.77 283.72 474.81 283.73 474.81C286.13 476.94 288.73 478.86 291.47 480.5C291.48 480.5 291.49 480.51 291.52 480.53L291.36 484.14L283.27 478.93ZM291.22 483.84C291.24 483.4 291.24 483.16 291.25 483.11C291.25 483.13 291.25 483.15 291.22 483.15C291.18 483.31 290.99 483.43 290.83 483.43C290.74 483.43 290.65 483.41 290.58 483.34C288.3 481.46 285.92 479.59 283.5 477.71C283.49 477.79 283.47 478.16 283.43 478.83L291.22 483.84ZM291.13 482.81C291.2 482.88 291.25 482.95 291.27 483.04C291.28 482.8 291.37 480.86 291.38 480.62C288.69 479.02 286.13 477.12 283.77 475.04C283.76 475.16 283.7 475.76 283.59 476.85C287 479.5 289.52 481.49 291.13 482.81ZM291.43 479.95C288.71 478.31 286.17 476.41 283.84 474.33C283.82 474.31 283.77 474.29 283.73 474.29C283.72 474.28 283.7 474.28 283.66 474.26L284.07 469.39C284.75 469.79 285.14 470.01 285.21 470.06C287.38 471.31 289.65 472.59 291.77 473.97C291.77 473.97 291.79 473.97 291.82 473.99L291.68 477.21C287.28 474.15 284.83 472.45 284.34 472.11C284.23 472.02 284.07 472.09 284.02 472.25C284 472.3 283.98 472.43 284.11 472.53C284.62 472.87 287.12 474.61 291.63 477.74L291.54 480.02C291.47 479.98 291.44 479.96 291.43 479.95ZM283.93 474.22C286.22 476.27 288.73 478.15 291.38 479.77C291.39 479.64 291.42 478.99 291.47 477.83C287 474.73 284.52 473.01 284.02 472.66C284 472.64 283.95 472.62 283.93 472.59C283.92 472.7 283.89 473.22 283.82 474.15C283.88 474.18 283.92 474.2 283.93 474.22ZM284.41 472C284.89 472.33 287.25 473.97 291.52 476.94C291.59 475.22 291.63 474.27 291.63 474.08C289.51 472.71 287.27 471.43 285.12 470.19C285.06 470.16 284.75 469.98 284.18 469.67C284.06 471.09 283.99 471.89 283.98 472.05C284.05 471.95 284.14 471.93 284.21 471.93C284.27 471.93 284.34 471.95 284.41 472ZM271.59 478.51C271.2 478.49 270.81 478.45 270.42 478.4C270.22 478.38 270.06 478.31 269.97 478.19C269.78 477.97 269.81 477.6 269.85 477.26C269.87 477.14 269.87 477.03 269.87 476.91C269.89 476.04 270 469.04 270.01 468.16C270.08 468.02 270.08 467.89 270.03 467.75C269.99 467.63 269.9 467.54 269.76 467.5C264.39 465.67 258.86 463.34 254.95 458.51C251.66 454.47 249.69 449.05 249.42 443.25C249.14 437.51 250.65 431.34 253.76 425.39C256.5 420.14 260.59 416.46 265.9 414.45C268.87 413.33 272.05 412.75 275.36 412.75C282.72 412.75 290.1 415.59 295.66 420.53C296.69 421.44 297.65 422.45 298.54 423.54C298.54 423.55 298.56 423.56 298.56 423.57C298.58 423.61 298.63 423.66 298.67 423.7C298.68 423.71 298.69 423.72 298.7 423.73C303.79 430.06 305.83 438.51 304.14 446.33C304.14 446.34 304.13 446.37 304.11 446.42C303.81 446.27 303.64 446.19 303.61 446.17C303.45 446.08 303.29 446.22 303.27 446.33C303.25 446.38 303.25 446.49 303.38 446.56C303.42 446.58 303.63 446.69 304 446.88C303.99 446.92 303.98 446.94 303.98 446.95C303.7 448.11 303.34 449.26 302.9 450.33C301.1 454.9 297.65 459.29 292.71 463.36C290.22 465.42 287.77 466.74 285.26 467.43C285.26 467.43 285.25 467.43 285.23 467.43C285.22 467.43 285.21 467.43 285.21 467.43C285.12 467.38 285.03 467.38 284.94 467.41C284.88 467.42 284.38 467.57 284.32 467.59C284.25 467.61 284.18 467.66 284.14 467.7C284.13 467.71 284.12 467.72 284.09 467.75C284.06 467.73 284.05 467.73 284.05 467.73C283.82 467.59 283.38 467.68 283.34 468.07C283.29 468.62 283.06 471.41 282.65 476.41C282.64 476.43 282.63 476.43 282.63 476.43C282.58 476.48 282.54 476.55 282.54 476.62C282.54 476.66 282.54 476.73 282.61 476.8C282.61 476.8 282.61 476.81 282.63 476.82L282.49 478.47C282.45 478.47 282.43 478.47 282.42 478.47C281.3 478.56 280.14 478.63 278.95 478.67C278.95 478.67 278.94 478.67 278.93 478.67C278.91 478.66 278.9 478.65 278.9 478.65C278.81 478.58 278.7 478.61 278.61 478.65C278.6 478.65 278.6 478.66 278.58 478.67C278.57 478.67 278.56 478.67 278.56 478.67C277.94 478.72 277.33 478.72 276.75 478.72C275.04 478.72 273.28 478.65 271.59 478.51ZM270.03 476.91C270.03 477.03 270.01 477.14 270.01 477.28C269.99 477.6 269.94 477.92 270.1 478.13C270.17 478.22 270.29 478.26 270.47 478.29C270.86 478.33 271.25 478.35 271.63 478.4C273.92 478.58 276.23 478.63 278.54 478.58C278.67 478.49 278.83 478.49 278.97 478.56C280.14 478.51 281.26 478.47 282.35 478.38C282.37 478.23 282.46 477.06 282.47 476.91C282.4 476.85 282.38 476.75 282.4 476.64C282.4 476.53 282.45 476.43 282.51 476.37C282.58 475.54 283.13 468.9 283.2 468.07C283.25 467.59 283.77 467.43 284.09 467.57C284.16 467.52 284.23 467.47 284.3 467.45C284.36 467.43 284.85 467.29 284.91 467.27C285.03 467.22 285.14 467.25 285.26 467.29C287.75 466.63 290.17 465.3 292.64 463.27C297.58 459.2 301.01 454.83 302.79 450.29C303.2 449.23 303.57 448.11 303.84 446.97C303.79 446.94 303.37 446.72 303.31 446.7C303.15 446.63 303.09 446.47 303.13 446.31C303.18 446.15 303.31 445.99 303.52 445.99C303.59 445.99 303.63 446.01 303.7 446.03C303.73 446.05 303.99 446.18 304.02 446.19C305.65 438.45 303.63 430.1 298.61 423.84C298.54 423.79 298.49 423.73 298.45 423.66C297.55 422.58 296.59 421.58 295.59 420.66C290.06 415.75 282.7 412.94 275.38 412.94C272.09 412.94 268.94 413.51 265.97 414.63C260.71 416.62 256.64 420.27 253.92 425.51C250.83 431.43 249.35 437.55 249.6 443.27C249.87 449.03 251.82 454.42 255.11 458.45C258.99 463.22 264.5 465.55 269.85 467.38C270.01 467.45 270.15 467.57 270.22 467.7C270.22 467.86 270.22 468.05 270.15 468.21C270.13 469.95 270.05 476.04 270.03 476.91ZM292.32 473.3C290.15 471.89 287.84 470.56 285.62 469.3C285.56 469.27 285.28 469.1 284.75 468.8C284.78 468.76 284.8 468.74 284.8 468.73C284.85 468.66 284.87 468.57 284.87 468.46C284.87 468.45 284.87 468.43 284.87 468.39C284.91 468.37 284.93 468.37 284.94 468.37C285.1 468.32 285.28 468.3 285.44 468.25C285.76 468.18 286.08 468.07 286.38 467.98C286.38 467.98 286.4 467.98 286.4 467.98C286.63 467.91 286.86 467.82 287.15 467.7C287.16 467.7 287.17 467.69 287.2 467.68C287.21 467.69 287.22 467.7 287.22 467.7C289.74 469.26 292.37 470.7 294.99 472.02C295 472.03 295.05 472.05 295.13 472.09C295.05 472.13 295 472.16 294.99 472.16C294.17 472.55 293.33 472.91 292.5 473.23C292.48 473.26 292.46 473.26 292.43 473.28C292.43 473.28 292.41 473.3 292.37 473.33C292.34 473.31 292.32 473.3 292.32 473.3ZM285.69 469.17C287.91 470.42 290.19 471.75 292.37 473.14C292.39 473.14 292.41 473.12 292.43 473.12C293.21 472.8 294.01 472.46 294.79 472.11C292.21 470.81 289.65 469.39 287.18 467.89C286.9 468 286.67 468.07 286.45 468.14C286.44 468.14 286.43 468.14 286.42 468.14C286.1 468.23 285.78 468.34 285.46 468.41C285.3 468.46 285.17 468.48 285.01 468.53C285.01 468.59 284.98 468.66 284.96 468.73C285.11 468.82 285.62 469.12 285.69 469.17ZM295.41 471.86C295.41 471.79 295.36 471.73 295.29 471.7C292.78 470.45 290.26 469.05 287.82 467.59C287.81 467.58 287.76 467.56 287.68 467.52C287.9 467.42 288.02 467.37 288.05 467.36C288.71 467.06 289.37 466.72 290.08 466.29C290.08 466.28 290.1 466.28 290.13 466.26L290.17 466.29C294.7 468.77 297.21 470.15 297.71 470.42C297.87 470.51 298.01 470.38 298.06 470.26C298.08 470.22 298.08 470.1 297.94 470.03C297.45 469.76 295 468.42 290.58 465.99C290.65 465.95 290.69 465.92 290.7 465.92C291.09 465.67 291.47 465.39 291.86 465.12C293.92 463.63 295.93 461.83 297.99 459.54C298.9 458.51 299.77 457.44 300.55 456.34C300.55 456.34 300.55 456.34 300.55 456.34C300.66 456.18 300.72 456.09 300.73 456.07C301.07 455.57 301.42 455.02 301.76 454.47C301.76 454.46 301.79 454.42 301.83 454.35C301.87 454.42 301.89 454.46 301.9 454.47C301.92 454.51 301.94 454.54 301.99 454.56C304.73 455.73 307.45 457.05 310.06 458.51C310.1 458.54 310.17 458.56 310.22 458.54C310.23 458.53 310.29 458.52 310.4 458.49C310.35 458.59 310.31 458.64 310.31 458.65C308.82 461.35 306.77 463.91 304.16 466.24C304.16 466.24 304.13 466.27 304.09 466.31C304.06 466.25 304.05 466.22 304.05 466.22C304.02 466.17 304 466.15 303.95 466.13C303.23 465.66 297.41 461.93 296.69 461.46C296.55 461.37 296.41 461.49 296.37 461.6C296.34 461.65 296.32 461.78 296.46 461.85C296.95 462.17 299.39 463.73 303.79 466.56C303.75 466.6 303.73 466.62 303.73 466.63C303.43 466.88 303.15 467.11 302.9 467.31C302.19 467.89 301.46 468.43 300.64 469.01C300.64 469.01 300.62 469.01 300.59 469.03C300.57 469.01 300.55 469.01 300.55 469.01C298.01 467.7 295.45 466.38 292.96 465.05C292.8 464.96 292.66 465.1 292.62 465.21C292.59 465.26 292.59 465.37 292.73 465.44C295.11 466.7 297.58 467.98 300.07 469.26C300.08 469.26 300.11 469.28 300.18 469.33C300.11 469.37 300.08 469.39 300.07 469.39C298.65 470.33 297.12 471.2 295.52 471.98C295.51 471.98 295.47 471.98 295.41 471.98C295.41 471.91 295.41 471.87 295.41 471.86ZM295.36 471.54C295.45 471.59 295.5 471.66 295.54 471.73C296.3 471.36 297.03 470.97 297.74 470.56C297.71 470.56 297.67 470.54 297.65 470.51C296.9 470.1 290.9 466.79 290.15 466.38C289.44 466.81 288.8 467.15 288.14 467.43C288.13 467.43 288.09 467.46 288.02 467.5C291.25 469.36 293.7 470.7 295.36 471.54ZM298.03 469.87C298.19 469.97 298.26 470.1 298.22 470.29C298.22 470.31 298.22 470.31 298.19 470.33C298.77 469.99 299.34 469.65 299.89 469.3C297.44 468.05 295.02 466.79 292.66 465.55C292.5 465.46 292.43 465.33 292.48 465.17C292.55 464.91 292.82 464.78 293.03 464.91C295.52 466.24 298.06 467.57 300.59 468.85C301.39 468.3 302.13 467.75 302.81 467.2C303.04 467.02 303.29 466.81 303.57 466.58C302.85 466.12 297.11 462.45 296.39 461.99C296.27 461.92 296.21 461.78 296.21 461.67C294.79 463.06 293.39 464.25 291.95 465.28C291.59 465.46 291.22 465.71 290.88 465.94C292.31 466.73 297.32 469.48 298.03 469.87ZM296.75 461.28C297.48 461.75 303.3 465.48 304.02 465.94C304.07 465.97 304.09 465.99 304.11 466.01C306.63 463.75 308.64 461.28 310.1 458.65C310.06 458.65 310.01 458.63 309.97 458.61C307.36 457.17 304.66 455.84 301.92 454.67C301.87 454.65 301.85 454.63 301.83 454.61C301.55 455.09 301.26 455.54 300.96 455.98C301.01 455.98 301.07 456 301.12 456.02C303.36 457.33 305.58 458.74 307.68 460.27C307.82 460.39 307.89 460.55 307.82 460.73C307.75 460.96 307.47 461.07 307.27 460.94C305.17 459.43 302.97 457.99 300.71 456.71C300.64 456.66 300.59 456.62 300.55 456.55C299.79 457.62 298.95 458.65 298.06 459.63C297.58 460.18 297.07 460.71 296.57 461.21C296.64 461.21 296.69 461.23 296.75 461.28ZM300.69 456.37C300.69 456.41 300.69 456.5 300.8 456.57C303.04 457.87 305.26 459.29 307.36 460.82C307.47 460.91 307.61 460.85 307.66 460.71C307.68 460.66 307.7 460.53 307.57 460.43C305.46 458.93 303.25 457.49 301.01 456.21C300.94 456.16 300.87 456.16 300.8 456.21C300.79 456.21 300.76 456.21 300.71 456.23C300.69 456.31 300.69 456.36 300.69 456.37ZM310.35 458.22C310.33 458.17 310.31 458.13 310.26 458.1C307.66 456.66 304.96 455.34 302.22 454.17C302.17 454.15 302.13 454.15 302.08 454.15C302.07 454.15 302.02 454.16 301.92 454.17C301.97 454.09 302.01 454.04 302.01 454.03C302.29 453.55 302.56 453.05 302.81 452.55C302.81 452.54 302.82 452.52 302.83 452.48C302.88 452.49 302.9 452.5 302.9 452.5C305.1 453.58 307.29 454.72 309.42 455.89C309.58 455.98 309.71 455.84 309.76 455.73C309.78 455.68 309.78 455.57 309.65 455.5C307.52 454.31 305.3 453.17 303.11 452.09C303.1 452.09 303.08 452.08 303.04 452.07C303.05 452.03 303.06 452 303.06 452C303.41 451.27 303.73 450.49 304.02 449.71C304.02 449.71 304.03 449.68 304.05 449.62L312.16 454.08C312.13 454.19 312.12 454.25 312.11 454.26C312.07 454.45 312.02 454.61 311.95 454.79C311.59 455.93 311.11 457.07 310.51 458.19C310.51 458.21 310.48 458.27 310.42 458.38C310.38 458.28 310.36 458.23 310.35 458.22ZM302.29 454.01C305.03 455.18 307.75 456.5 310.35 457.97C310.38 457.99 310.42 458.01 310.45 458.03C310.99 456.96 311.45 455.86 311.82 454.77C311.86 454.58 311.93 454.42 311.98 454.24C311.98 454.24 311.99 454.21 312 454.17C307.3 451.58 304.68 450.14 304.16 449.85C303.89 450.58 303.59 451.31 303.27 452C305.46 453.07 307.63 454.22 309.76 455.38C309.92 455.47 309.99 455.61 309.94 455.79C309.87 456.05 309.6 456.16 309.39 456.05C307.29 454.88 305.14 453.76 302.95 452.69C302.67 453.12 302.45 453.55 302.19 453.99C302.22 453.99 302.26 454.01 302.29 454.01ZM304.18 449.19C304.2 449.15 304.2 449.12 304.21 449.12C304.39 448.55 304.57 447.95 304.73 447.36C304.73 447.35 304.74 447.32 304.75 447.27L312.75 451.43C312.75 451.46 312.75 451.47 312.75 451.47C312.64 452.18 312.48 452.87 312.3 453.53C312.3 453.54 312.29 453.58 312.27 453.65L304.18 449.19ZM312.21 453.42C312.37 452.8 312.5 452.16 312.62 451.52C311.84 451.12 305.66 447.92 304.89 447.52C304.71 448.07 304.55 448.62 304.39 449.12C305.95 449.98 311.42 452.99 312.21 453.42ZM304.87 446.83C304.88 446.79 304.89 446.77 304.89 446.77C305.03 446.22 305.12 445.78 305.19 445.35C305.19 445.34 305.2 445.32 305.21 445.28C305.25 445.29 305.28 445.3 305.28 445.3C306.31 445.55 307.29 446.1 308.23 446.65C308.55 446.83 308.87 447.02 309.17 447.18C309.42 447.31 310.72 448 313.05 449.23C313.05 449.26 313.05 449.28 313.05 449.28C313.01 449.83 312.94 450.35 312.87 450.9C312.87 450.91 312.86 450.93 312.85 450.97L304.87 446.83ZM312.73 450.74C312.8 450.26 312.87 449.78 312.89 449.28C312.51 449.08 309.48 447.47 309.1 447.27C308.78 447.11 308.48 446.93 308.16 446.74C307.25 446.22 306.31 445.69 305.33 445.44C305.26 445.85 305.17 446.26 305.05 446.77C306.59 447.56 311.96 450.35 312.73 450.74ZM308.71 446.4C308.5 446.29 308.27 446.17 308.07 446.06C307.2 445.58 306.31 445.1 305.35 444.87C305.34 444.87 305.32 444.86 305.28 444.85C305.28 444.8 305.28 444.78 305.28 444.78C305.39 444 305.49 443.18 305.53 442.33C305.53 442.33 305.53 442.29 305.53 442.24C305.59 442.25 305.62 442.26 305.62 442.26C308.16 443.15 310.65 444.21 313.05 445.39C313.05 445.4 313.07 445.4 313.1 445.42C313.1 445.44 313.1 445.46 313.1 445.46C313.17 446.51 313.14 447.59 313.1 448.62C313.1 448.62 313.1 448.65 313.1 448.71C310.46 447.32 309 446.55 308.71 446.4ZM308.14 445.9C308.34 446.01 308.57 446.13 308.78 446.24C309.2 446.46 312.54 448.21 312.96 448.43C313.01 447.47 313.01 446.47 312.96 445.46C310.61 444.3 308.16 443.25 305.67 442.38C305.62 443.2 305.55 443.98 305.44 444.71C306.4 444.96 307.29 445.44 308.14 445.9ZM312.96 444.8C310.58 443.63 308.11 442.61 305.62 441.74C305.62 441.74 305.6 441.73 305.58 441.71C305.58 441.69 305.58 441.67 305.58 441.67C305.6 440.89 305.6 440.11 305.55 439.31C305.55 439.31 305.55 439.28 305.55 439.22C305.61 439.24 305.64 439.24 305.65 439.25C305.69 439.25 305.76 439.25 305.83 439.25C305.83 439.25 305.84 439.25 305.85 439.25L312.62 441.35C312.62 441.38 312.62 441.39 312.62 441.39C312.85 442.49 313.01 443.61 313.1 444.71C313.1 444.72 313.09 444.77 313.07 444.87C313.01 444.83 312.97 444.8 312.96 444.8ZM312.89 444.62C312.8 443.57 312.64 442.51 312.43 441.49C311.77 441.28 306.45 439.61 305.78 439.41C305.74 439.41 305.71 439.41 305.69 439.41C305.74 440.16 305.74 440.89 305.71 441.62C308.16 442.47 310.58 443.47 312.89 444.62ZM308.18 439.52C307.91 439.43 307.61 439.34 307.34 439.25C306.74 439.04 306.15 438.83 305.53 438.7C305.53 438.7 305.51 438.69 305.49 438.67C305.49 438.65 305.49 438.63 305.49 438.63C305.44 438.15 305.39 437.67 305.33 437.19C305.33 437.19 305.33 437.17 305.33 437.14C305.35 437.13 305.37 437.12 305.37 437.12C305.44 437.07 305.49 437.01 305.49 436.94C305.49 436.87 305.46 436.82 305.42 436.75C305.43 436.74 305.52 436.65 305.53 436.64C305.87 437.01 306.67 437.19 307.31 437.33C307.57 437.39 307.79 437.44 308 437.51C308.27 437.59 310.43 438.27 310.7 438.35C310.86 438.4 310.95 438.29 310.97 438.17C310.99 438.08 310.95 437.97 310.81 437.92C310.26 437.76 309.71 437.55 309.17 437.37C308 436.98 306.79 436.57 305.6 436.3C305.51 436.27 305.39 436.27 305.33 436.3C305.32 436.3 305.29 436.31 305.23 436.32C305.22 436.27 305.21 436.23 305.21 436.23C305.07 435.45 304.91 434.67 304.71 433.9C304.71 433.89 304.69 433.84 304.66 433.76C304.75 433.79 304.79 433.8 304.8 433.81C306.61 434.45 308.46 435.02 310.29 435.52C310.31 435.52 310.33 435.52 310.35 435.52C310.49 435.52 310.54 435.41 310.54 435.38C310.54 435.37 310.56 435.31 310.61 435.2C310.65 435.3 310.67 435.35 310.67 435.36C311.06 436.25 311.43 437.14 311.7 438.03C311.98 438.88 312.23 439.77 312.46 440.69C312.46 440.7 312.46 440.75 312.46 440.85C309.89 440.05 308.47 439.61 308.18 439.52ZM307.38 439.09C307.66 439.18 307.95 439.27 308.23 439.36C308.63 439.49 311.85 440.49 312.25 440.62C312.05 439.77 311.82 438.93 311.54 438.1C311.27 437.28 310.93 436.41 310.56 435.57C310.49 435.63 310.4 435.68 310.31 435.68C310.31 435.68 310.31 435.68 310.31 435.68C310.26 435.68 310.24 435.68 310.19 435.66C308.41 435.15 306.61 434.58 304.85 433.99C305.03 434.7 305.19 435.41 305.3 436.11C305.39 436.09 305.49 436.09 305.58 436.11C306.79 436.39 308 436.8 309.17 437.19C309.71 437.37 310.26 437.55 310.81 437.71C311.02 437.78 311.09 437.97 311.06 438.15C311.02 438.38 310.81 438.51 310.61 438.45C310.34 438.36 308.18 437.68 307.91 437.6C307.73 437.53 307.5 437.49 307.25 437.44C306.67 437.3 306.03 437.17 305.62 436.89C305.62 436.89 305.62 436.89 305.62 436.91C305.6 437.01 305.55 437.12 305.46 437.19C305.55 437.67 305.6 438.13 305.62 438.56C306.22 438.7 306.81 438.9 307.38 439.09ZM310.38 435.11C308.48 434.58 306.56 433.97 304.69 433.33C304.64 433.3 304.62 433.3 304.57 433.33C304.57 433.33 304.54 433.33 304.5 433.35C304.49 433.31 304.48 433.28 304.48 433.28C304.32 432.75 304.16 432.21 303.93 431.59C303.93 431.58 303.91 431.54 303.89 431.47C303.95 431.47 303.99 431.47 304 431.47C305.81 431.54 307.54 431.93 309.19 432.59C309.19 432.59 309.2 432.59 309.21 432.59C309.23 432.61 309.23 432.62 309.23 432.62C309.69 433.39 310.1 434.19 310.45 434.99C310.45 435.01 310.49 435.07 310.56 435.18C310.45 435.14 310.39 435.11 310.38 435.11ZM304.73 433.17C306.54 433.81 308.41 434.38 310.26 434.9C309.92 434.17 309.53 433.44 309.12 432.71C307.54 432.05 305.85 431.68 304.11 431.61C304.32 432.18 304.48 432.69 304.62 433.14C304.66 433.14 304.69 433.14 304.73 433.17ZM308.66 431.91C307.11 431.36 305.49 431.06 303.84 431.02C303.82 431.02 303.82 431.02 303.79 431.02C303.79 431.02 303.77 431.02 303.73 431.02C303.71 430.99 303.7 430.97 303.7 430.97C303.54 430.54 303.34 430.06 303.11 429.55C303.11 429.55 303.09 429.51 303.06 429.44C303.15 429.45 303.19 429.46 303.2 429.46C303.2 429.46 303.2 429.46 303.2 429.46C303.34 429.46 303.41 429.35 303.43 429.26C303.43 429.25 303.43 429.24 303.43 429.21C303.46 429.2 303.47 429.19 303.47 429.19C303.54 429.17 303.63 429.14 303.73 429.14C304.23 429.14 305.07 429.39 305.51 429.51C305.6 429.53 305.65 429.55 305.69 429.55C306.38 429.74 307.11 430.03 307.89 430.47C307.89 430.47 307.91 430.49 307.91 430.49C308.25 430.99 308.5 431.41 308.75 431.79C308.76 431.81 308.8 431.87 308.87 431.98C308.75 431.94 308.68 431.91 308.66 431.91ZM308.53 431.7C308.32 431.36 308.09 431.02 307.82 430.61C307.06 430.19 306.35 429.9 305.69 429.71C305.65 429.69 305.58 429.69 305.51 429.67C305.1 429.55 304.25 429.3 303.77 429.3C303.7 429.3 303.66 429.3 303.61 429.33C303.57 429.46 303.47 429.55 303.34 429.6C303.52 430.03 303.68 430.45 303.84 430.86C305.44 430.9 307.02 431.18 308.53 431.7ZM307.13 429.6C306.51 429.33 305.85 429.12 305.19 428.96C305.12 428.94 305.03 428.91 304.94 428.89C304.59 428.8 304.16 428.69 303.77 428.69C303.41 428.69 303.15 428.78 303.02 428.98C303.01 428.99 302.99 429.02 302.95 429.07C302.92 429.01 302.91 428.97 302.9 428.96C302.67 428.46 302.4 427.95 302.13 427.45C302.12 427.45 302.11 427.41 302.08 427.36C302.15 427.35 302.19 427.34 302.19 427.34C303.41 427.2 304.62 427.36 305.74 427.86C305.81 427.89 305.87 427.89 305.92 427.86C305.92 427.86 305.94 427.85 305.97 427.84C305.99 427.87 306.01 427.88 306.01 427.89C306.45 428.41 306.86 428.94 307.25 429.46C307.25 429.48 307.3 429.56 307.38 429.71C307.23 429.65 307.15 429.61 307.13 429.6ZM304.98 428.75C305.07 428.78 305.14 428.8 305.23 428.82C305.83 428.96 306.4 429.14 306.95 429.37C306.63 428.94 306.29 428.5 305.92 428.07C305.9 428.07 305.85 428.07 305.83 428.07C305.83 428.07 305.83 428.07 305.83 428.07C305.78 428.07 305.71 428.05 305.67 428.02C304.59 427.57 303.47 427.38 302.31 427.5C302.54 427.93 302.77 428.39 302.97 428.82C303.15 428.64 303.41 428.55 303.77 428.55C304.18 428.55 304.62 428.66 304.98 428.75ZM305.23 427.22C304.14 426.88 303.02 426.77 301.87 426.95C301.87 426.95 301.86 426.95 301.83 426.95C301.81 426.92 301.81 426.91 301.81 426.9C301.51 426.38 301.19 425.85 300.85 425.35C300.84 425.34 300.81 425.3 300.75 425.23C300.84 425.23 300.88 425.23 300.89 425.23C301.55 425.26 302.24 425.19 302.9 425.01C302.97 424.98 303.02 424.96 303.04 424.89C303.04 424.89 303.06 424.85 303.09 424.8C303.13 424.84 303.15 424.86 303.15 424.87C303.91 425.6 304.64 426.35 305.3 427.11C305.32 427.12 305.38 427.19 305.49 427.31C305.33 427.26 305.25 427.23 305.23 427.22ZM305.01 426.99C304.41 426.33 303.77 425.67 303.11 425.03C303.06 425.07 303.02 425.12 302.93 425.14C302.29 425.3 301.65 425.39 301.01 425.37C301.3 425.85 301.6 426.31 301.87 426.79C302.24 426.72 302.61 426.7 302.95 426.7C303.63 426.7 304.32 426.79 305.01 426.99ZM300.41 424.75C300.11 424.34 299.79 423.91 299.43 423.43C299.43 423.42 299.41 423.4 299.38 423.36C299.42 423.33 299.45 423.32 299.45 423.31C299.7 423.18 299.98 423.09 300.3 423.02C300.46 422.99 300.46 422.88 300.46 422.81C300.46 422.67 300.32 422.54 300.16 422.58C299.79 422.65 299.47 422.77 299.15 422.97C299.15 422.97 299.14 422.98 299.11 422.99C299.08 422.97 299.07 422.95 299.06 422.95C297.83 421.46 296.48 420.09 294.99 418.88C295 418.87 295.08 418.78 295.09 418.77C297.92 420.43 300.5 422.35 302.74 424.46C302.75 424.46 302.78 424.49 302.83 424.55C302.75 424.56 302.71 424.57 302.7 424.57C302.01 424.75 301.33 424.8 300.62 424.75C300.57 424.75 300.55 424.75 300.53 424.78C300.52 424.78 300.5 424.79 300.46 424.8C300.43 424.77 300.41 424.76 300.41 424.75ZM300.62 424.59C301.26 424.64 301.9 424.59 302.51 424.46C301.9 423.89 301.26 423.31 300.57 422.77C300.57 422.77 300.57 422.79 300.57 422.79C300.59 422.97 300.48 423.11 300.3 423.15C300.05 423.2 299.82 423.27 299.59 423.38C299.93 423.82 300.23 424.21 300.5 424.59C300.53 424.59 300.55 424.59 300.59 424.59C300.6 424.59 300.61 424.59 300.62 424.59ZM299.11 422.79C299.43 422.61 299.77 422.49 300.11 422.42C300.11 422.42 300.14 422.42 300.14 422.42C298.79 421.33 297.33 420.3 295.79 419.36C296.98 420.41 298.1 421.55 299.11 422.79Z" id="a8W6dC7iJb"></path><path d="M274.63 426.86C274.33 426.61 273.9 427.04 274.19 427.29C275.86 428.73 277.53 430.17 279.2 431.61C279.5 431.86 279.93 431.43 279.63 431.18C277.97 429.74 276.3 428.3 274.63 426.86Z" id="a2xtVlKoWk"></path><path d="M279.41 431.77C279.31 431.77 279.22 431.75 279.15 431.68C278.65 431.25 274.65 427.79 274.15 427.36C274.03 427.27 273.99 427.13 274.03 426.99C274.1 426.83 274.26 426.72 274.42 426.72C274.51 426.72 274.61 426.74 274.67 426.81C275.17 427.24 279.18 430.7 279.68 431.13C279.79 431.22 279.84 431.36 279.79 431.5C279.75 431.66 279.57 431.77 279.41 431.77C279.41 431.77 279.41 431.77 279.41 431.77ZM274.22 427.02C274.19 427.06 274.19 427.15 274.29 427.22C274.79 427.65 278.79 431.11 279.29 431.54C279.43 431.66 279.63 431.59 279.68 431.43C279.7 431.38 279.7 431.29 279.61 431.22C279.11 430.79 275.11 427.33 274.61 426.9C274.54 426.88 274.49 426.86 274.45 426.86C274.35 426.86 274.24 426.93 274.22 427.02Z" id="ak0ARyq4g"></path><path d="M298.01 464.91C297.03 464.34 295.93 463.43 294.79 463.2C294.4 463.13 294.24 463.7 294.63 463.79C295.82 464.02 297.03 465.05 298.06 465.65C299.18 466.31 300.3 466.95 301.42 467.61C301.76 467.79 302.06 467.27 301.71 467.09C300.48 466.35 299.25 465.65 298.01 464.91Z" id="a2FdW4RiDN"></path><path d="M301.58 467.73C301.51 467.73 301.44 467.7 301.39 467.68C301.06 467.48 298.37 465.91 298.03 465.71C297.74 465.55 297.44 465.35 297.12 465.14C296.3 464.59 295.45 464.05 294.63 463.89C294.45 463.84 294.33 463.7 294.35 463.52C294.38 463.31 294.56 463.11 294.83 463.15C295.68 463.31 296.48 463.84 297.26 464.37C297.53 464.55 297.81 464.73 298.08 464.89C298.45 465.11 301.41 466.85 301.78 467.06C301.94 467.15 301.99 467.31 301.94 467.47C301.87 467.59 301.74 467.73 301.58 467.73C301.58 467.73 301.58 467.73 301.58 467.73ZM294.49 463.5C294.49 463.54 294.49 463.68 294.65 463.7C295.52 463.86 296.37 464.43 297.19 464.98C297.51 465.19 297.81 465.39 298.08 465.55C298.42 465.75 301.1 467.32 301.44 467.52C301.49 467.54 301.51 467.54 301.55 467.54C301.55 467.54 301.55 467.54 301.55 467.54C301.67 467.54 301.74 467.45 301.76 467.36C301.78 467.31 301.78 467.2 301.67 467.11C301.3 466.89 298.34 465.15 297.97 464.94C297.69 464.78 297.42 464.59 297.14 464.41C296.37 463.91 295.59 463.38 294.77 463.22C294.77 463.27 294.74 463.27 294.72 463.27C294.58 463.27 294.49 463.38 294.49 463.5Z" id="aJsVv9ooz"></path><path d="M298.22 459.82C297.9 459.59 297.6 460.11 297.92 460.34C300.11 461.85 302.31 463.38 304.53 464.89C304.82 465.1 305.14 464.57 304.82 464.37C302.63 462.86 300.43 461.33 298.22 459.82Z" id="etlczNqAX"></path><path d="M304.66 465.01C304.59 465.01 304.53 464.98 304.46 464.94C303.8 464.48 298.51 460.84 297.85 460.39C297.71 460.3 297.65 460.11 297.69 459.95C297.76 459.7 298.03 459.61 298.24 459.75C298.9 460.2 304.19 463.84 304.85 464.3C304.98 464.39 305.05 464.57 305.01 464.73C304.96 464.89 304.82 465.01 304.66 465.01C304.66 465.01 304.66 465.01 304.66 465.01ZM297.85 459.98C297.83 460.02 297.81 460.16 297.94 460.25C298.6 460.71 303.89 464.35 304.55 464.8C304.66 464.89 304.82 464.82 304.87 464.66C304.89 464.62 304.91 464.48 304.78 464.39C304.12 463.93 298.83 460.29 298.17 459.84C298.13 459.84 298.1 459.82 298.06 459.82C297.97 459.82 297.9 459.89 297.85 459.98Z" id="iS0O5yVNQ"></path><path d="M302.56 460.05C301.92 459.61 301.28 459.18 300.64 458.74C300.25 458.49 300.09 458.35 299.66 458.42C299.52 458.45 299.45 458.58 299.43 458.72C299.41 458.97 299.5 459.04 299.68 459.18C299.79 459.27 299.95 459.22 300.05 459.13C300.07 459.11 300.09 459.09 300.11 459.09C300.53 459.27 301.05 459.77 301.28 459.93C301.81 460.3 302.33 460.64 302.88 461.01C303.2 461.22 305.74 462.94 306.06 463.15C306.4 463.36 306.7 462.83 306.38 462.63C305.1 461.76 303.84 460.91 302.56 460.05Z" id="b9aimOWo4"></path><path d="M306.22 463.27C306.15 463.27 306.08 463.25 306.01 463.2C305.53 462.88 301.71 460.3 301.23 459.98C301.17 459.93 301.05 459.84 300.94 459.75C300.71 459.57 300.39 459.29 300.11 459.18C300.11 459.18 300.09 459.2 300.09 459.2C299.95 459.31 299.75 459.34 299.63 459.25C299.43 459.11 299.34 458.99 299.36 458.72C299.36 458.56 299.45 458.4 299.63 458.35C300.07 458.26 300.25 458.4 300.59 458.63C301.17 459.02 305.82 462.17 306.4 462.56C306.54 462.65 306.61 462.83 306.56 462.99C306.51 463.15 306.38 463.27 306.22 463.27C306.22 463.27 306.22 463.27 306.22 463.27ZM300.14 459.02C300.41 459.13 300.75 459.41 301.03 459.63C301.14 459.73 301.26 459.82 301.33 459.86C301.8 460.19 305.63 462.76 306.1 463.09C306.15 463.11 306.17 463.13 306.22 463.13C306.22 463.13 306.22 463.13 306.22 463.13C306.31 463.13 306.38 463.06 306.42 462.95C306.45 462.9 306.47 462.77 306.33 462.67C305.75 462.28 301.11 459.14 300.53 458.74C300.18 458.51 300.05 458.42 299.68 458.49C299.59 458.51 299.52 458.63 299.52 458.72C299.5 458.93 299.54 458.97 299.73 459.11C299.79 459.15 299.93 459.13 300 459.06C300.01 459.06 300.04 459.04 300.09 458.99C300.12 459.01 300.13 459.02 300.14 459.02Z" id="a4V7R2Syc9"></path></defs><g><g><g><use xlink:href="#f1lkvwj0qg" opacity="1" fill="#000000" fill-opacity="1"></use><g><use xlink:href="#f1lkvwj0qg" opacity="1" fill-opacity="0" stroke="#000000" stroke-width="1" stroke-opacity="0"></use></g></g><g><use xlink:href="#b2CGT5DUTz" opacity="1" fill="#180f0b" fill-opacity="1"></use><g><use xlink:href="#b2CGT5DUTz" opacity="1" fill-opacity="0" stroke="#000000" stroke-width="1" stroke-opacity="0"></use></g></g><g><use xlink:href="#h97p8qZaY" opacity="1" fill="#000000" fill-opacity="1"></use><g><use xlink:href="#h97p8qZaY" opacity="1" fill-opacity="0" stroke="#000000" stroke-width="1" stroke-opacity="0"></use></g></g><g><use xlink:href="#a8W6dC7iJb" opacity="1" fill="#180f0b" fill-opacity="1"></use><g><use xlink:href="#a8W6dC7iJb" opacity="1" fill-opacity="0" stroke="#000000" stroke-width="1" stroke-opacity="0"></use></g></g><g><use xlink:href="#a2xtVlKoWk" opacity="1" fill="#000000" fill-opacity="1"></use><g><use xlink:href="#a2xtVlKoWk" opacity="1" fill-opacity="0" stroke="#000000" stroke-width="1" stroke-opacity="0"></use></g></g><g><use xlink:href="#ak0ARyq4g" opacity="1" fill="#180f0b" fill-opacity="1"></use><g><use xlink:href="#ak0ARyq4g" opacity="1" fill-opacity="0" stroke="#000000" stroke-width="1" stroke-opacity="0"></use></g></g><g><use xlink:href="#a2FdW4RiDN" opacity="1" fill="#000000" fill-opacity="1"></use><g><use xlink:href="#a2FdW4RiDN" opacity="1" fill-opacity="0" stroke="#000000" stroke-width="1" stroke-opacity="0"></use></g></g><g><use xlink:href="#aJsVv9ooz" opacity="1" fill="#180f0b" fill-opacity="1"></use><g><use xlink:href="#aJsVv9ooz" opacity="1" fill-opacity="0" stroke="#000000" stroke-width="1" stroke-opacity="0"></use></g></g><g><use xlink:href="#etlczNqAX" opacity="1" fill="#000000" fill-opacity="1"></use><g><use xlink:href="#etlczNqAX" opacity="1" fill-opacity="0" stroke="#000000" stroke-width="1" stroke-opacity="0"></use></g></g><g><use xlink:href="#iS0O5yVNQ" opacity="1" fill="#180f0b" fill-opacity="1"></use><g><use xlink:href="#iS0O5yVNQ" opacity="1" fill-opacity="0" stroke="#000000" stroke-width="1" stroke-opacity="0"></use></g></g><g><use xlink:href="#b9aimOWo4" opacity="1" fill="#000000" fill-opacity="1"></use><g><use xlink:href="#b9aimOWo4" opacity="1" fill-opacity="0" stroke="#000000" stroke-width="1" stroke-opacity="0"></use></g></g><g><use xlink:href="#a4V7R2Syc9" opacity="1" fill="#180f0b" fill-opacity="1"></use><g><use xlink:href="#a4V7R2Syc9" opacity="1" fill-opacity="0" stroke="#000000" stroke-width="1" stroke-opacity="0"></use></g></g></g></g></svg>