<?xml version="1.0" encoding="UTF-8" standalone="no"?>
<!DOCTYPE svg PUBLIC "-//W3C//DTD SVG 1.1//EN" "http://www.w3.org/Graphics/SVG/1.1/DTD/svg11.dtd">
<svg version="1.1" xmlns="http://www.w3.org/2000/svg" xmlns:xlink="http://www.w3.org/1999/xlink" preserveAspectRatio="xMidYMid meet" viewBox="151.68064800311748 504.25142857142856 63.36792342545391 61.98857142857145" width="63.37" height="61.99"><defs><path d="M214.35 511.41C211.63 509.35 208.91 507.29 206.19 505.21C205.97 505.05 205.76 505.1 205.62 505.26C200.78 504.96 195.93 504.66 191.09 504.34C191.04 504.34 190.99 504.34 190.95 504.34C190.7 504.25 190.4 504.34 190.31 504.66C188.25 512.55 185.83 520.32 183.06 527.95C181.67 523.38 180 518.9 178.13 514.54C178.08 514.45 178.06 514.35 178.01 514.26C178.13 514.13 178.15 513.92 177.94 513.83C177.9 513.81 177.85 513.78 177.81 513.76C177.49 513.03 177.1 512.34 176.57 511.73C175.86 510.93 174.83 510.35 173.97 509.76C171.82 508.3 169.67 506.83 167.54 505.37C167.18 504.78 166.65 504.37 165.71 504.34C161.39 504.25 157.03 504.37 152.71 504.39C152.48 504.39 152.34 504.5 152.27 504.66C151.98 504.66 151.68 504.91 151.84 505.26C159.04 523.13 165.76 541.21 172.46 559.27C172.53 559.45 172.69 559.61 172.89 559.63C174.4 560.55 175.93 561.49 177.44 562.4C178.22 562.88 179.02 563.36 179.79 563.84C180.53 564.27 181.28 564.87 182.08 565.17C182.81 565.42 183.59 565.42 184.37 565.46C185.44 565.53 186.49 565.58 187.57 565.65C189.44 565.74 191.29 565.85 193.17 565.94C193.21 565.97 193.26 566.01 193.3 566.03C193.65 566.26 193.99 565.99 194.03 565.67C194.1 565.46 194.06 565.19 193.85 565.05C197.37 557.71 200.91 550.33 204.16 542.83C204.18 542.79 204.21 542.74 204.23 542.7C208.53 532.8 212.34 522.72 215.02 512.25C215.02 511.98 214.79 511.75 214.54 511.68C214.51 511.59 214.45 511.47 214.35 511.41ZM181.85 527.59C179.75 526.72 177.58 525.99 175.38 525.37C174.99 525.26 174.83 525.85 175.22 525.97C177.55 526.61 179.84 527.41 182.08 528.34C182.15 528.59 182.24 528.85 182.31 529.1C182.35 529.23 182.42 529.33 182.54 529.37C182.45 529.6 182.38 529.83 182.29 530.06C181.23 529.69 180.18 529.33 179.13 528.96C178.15 528.62 176.94 527.93 175.89 528.21C175.25 526.49 174.63 524.78 173.99 523.06C175.18 522.97 176.37 523.61 177.44 524.05C178.65 524.55 179.89 525.05 181.1 525.53C181.14 525.55 181.19 525.58 181.21 525.58C181.44 526.24 181.65 526.93 181.85 527.59ZM177.97 533.94C177.71 533.23 177.46 532.55 177.19 531.84C178.42 532.18 179.63 532.55 180.87 532.89C181.23 533.01 181.39 532.41 181.03 532.3C179.66 531.91 178.31 531.52 176.94 531.11C176.85 530.88 176.18 529.01 176.09 528.78C177.1 528.59 178.45 529.37 179.34 529.67C179.61 529.76 181.81 530.53 182.08 530.63C181.6 531.95 181.1 533.26 180.57 534.56C179.7 534.35 178.83 534.15 177.97 533.94ZM179.36 537.65C178.99 536.64 178.61 535.61 178.24 534.61C178.95 534.79 179.66 534.95 180.37 535.11C180.02 535.95 179.7 536.8 179.36 537.65ZM180.98 524.85C179.61 524.3 178.26 523.73 176.89 523.18C175.86 522.77 174.88 522.35 173.78 522.49C173.51 521.74 173.23 520.98 172.96 520.23C173.55 520.18 174.24 520.64 174.74 520.87C174.92 520.95 176.35 521.57 176.53 521.65C177.83 522.22 179.13 522.79 180.43 523.34C180.43 523.34 180.43 523.34 180.46 523.34C180.64 523.84 180.8 524.34 180.98 524.85ZM180.21 522.58C178.72 521.94 177.26 521.3 175.77 520.66C174.9 520.3 173.76 519.5 172.75 519.66C172.55 519.09 172.34 518.51 172.14 517.97C174.51 518.9 176.91 519.84 179.29 520.78C179.36 520.78 179.45 520.75 179.52 520.73C179.75 521.35 179.98 521.97 180.21 522.58ZM179.27 520.09C176.8 519.13 174.31 518.15 171.84 517.19C171.43 516.07 171.02 514.95 170.61 513.83C170.61 513.83 170.61 513.81 170.61 513.81C172.96 515.38 175.52 516.59 178.24 517.46C178.61 518.33 178.95 519.22 179.27 520.09ZM177.23 515.09C177.46 515.63 177.71 516.18 177.94 516.73C175.2 515.82 172.62 514.51 170.26 512.82C169.99 512.05 169.69 511.27 169.42 510.49C171.82 511.73 174.26 512.89 176.75 514.01C176.91 514.35 177.07 514.72 177.23 515.09ZM175.34 512.05C175.73 512.37 176.02 512.73 176.3 513.14C173.87 512.05 171.45 510.88 169.07 509.65C168.85 509.03 168.62 508.39 168.39 507.77C168.32 507.57 168.23 507.34 168.16 507.11C169.58 508.07 170.99 509.03 172.41 510.01C173.39 510.67 174.42 511.31 175.34 512.05ZM164.46 505.39C164.85 505.39 165.23 505.39 165.65 505.39C165.87 505.39 166.06 505.44 166.19 505.51C166.19 505.67 166.26 505.83 166.42 505.92C166.51 505.99 166.63 506.06 166.72 506.13C166.81 506.35 166.88 506.63 166.97 506.88C167.34 507.89 167.7 508.89 168.09 509.92C168.82 511.93 169.58 513.97 170.31 515.98C173.14 523.68 175.95 531.38 178.79 539.09C178.88 539.36 179.15 539.45 179.38 539.43C179.57 539.41 179.73 539.31 179.82 539.11C180.94 536.41 182.01 533.69 183.04 530.95C183.29 530.95 183.38 530.61 183.22 530.45C186.29 522.24 188.91 513.87 191.15 505.39C195.79 505.69 200.41 505.97 205.05 506.26C203.89 510.51 202.26 514.63 200.66 518.74C198.9 523.25 197.14 527.75 195.41 532.25C195.03 533.23 191.99 541.04 191.61 542.01C191.31 541.76 190.9 542.17 191.18 542.45C191.25 542.51 191.31 542.56 191.36 542.63C190.73 544.24 185.72 557.09 185.1 558.7C185.07 558.7 185.03 558.67 184.98 558.67C182.65 558.56 180.32 558.51 177.99 558.54C177.9 558.49 177.81 558.51 177.74 558.54C176.23 558.56 174.72 558.58 173.21 558.65C166.61 540.85 160 523.04 152.89 505.44C156.75 505.42 160.59 505.42 164.46 505.39ZM182.56 564.32C181.76 564.14 180.91 563.43 180.23 562.99C179.45 562.51 178.65 562.03 177.87 561.55C176.8 560.89 175.73 560.25 174.65 559.59C175.86 559.54 177.1 559.52 178.31 559.52C180.3 561.14 182.35 562.72 184.48 564.18C184.8 564.41 185.1 563.89 184.78 563.66C182.9 562.33 181.05 560.96 179.27 559.52C180.39 559.52 181.51 559.54 182.63 559.57C184.41 561.39 186.33 563.11 188.34 564.69C188.32 564.71 188.3 564.71 188.27 564.71C186.42 564.62 184.37 564.73 182.56 564.32ZM189.01 564.48C187.06 562.97 185.21 561.35 183.47 559.61C183.95 559.63 184.41 559.66 184.89 559.68C185.01 559.84 185.21 559.91 185.42 559.89C187.31 561.71 189.33 563.38 191.45 564.89C190.7 564.85 189.92 564.8 189.14 564.75C189.14 564.66 189.12 564.55 189.01 564.48ZM186.03 559.09C186.31 558.4 186.58 557.69 186.86 557.01C189.1 558.61 191.27 560.32 193.33 562.15C193.62 562.4 194.06 561.99 193.76 561.71C191.63 559.84 189.39 558.06 187.09 556.43C187.36 555.75 187.61 555.06 187.89 554.4C187.91 554.4 187.93 554.38 187.95 554.35C187.98 554.4 188 554.45 188.07 554.47C188.39 554.7 188.69 554.95 189.01 555.18C189.62 555.66 190.26 556.14 190.88 556.62C192.14 557.58 193.39 558.54 194.65 559.5C194.97 559.73 195.27 559.2 194.95 558.97C193.17 557.62 191.41 556.25 189.62 554.9C189.17 554.56 188.64 554.22 188.25 553.81C188.23 553.78 188.18 553.76 188.16 553.71C188.24 553.5 188.9 551.82 188.98 551.61C191.5 553.14 193.81 554.93 195.93 556.96C196.21 557.23 196.64 556.8 196.37 556.53C194.19 554.42 191.79 552.59 189.21 551.04C189.49 550.35 189.76 549.67 190.01 548.96C192.57 550.81 194.95 552.87 197.14 555.11C197.21 555.2 197.33 555.2 197.39 555.2C195.89 558.33 194.38 561.49 192.87 564.64C190.42 562.99 188.14 561.12 186.03 559.09ZM197.55 554.67C195.29 552.37 192.85 550.24 190.22 548.37C190.3 548.15 190.98 546.43 191.06 546.22C193.51 548.27 195.98 550.33 198.42 552.39C198.49 552.46 198.58 552.48 198.67 552.46C198.31 553.21 197.94 553.97 197.6 554.72C197.58 554.7 197.58 554.67 197.55 554.67ZM198.86 551.95C196.41 549.9 193.94 547.84 191.5 545.78C191.43 545.71 191.34 545.69 191.27 545.71C191.57 544.91 191.89 544.14 192.18 543.34C194.7 545.6 197.23 547.86 199.75 550.13C199.45 550.74 199.15 551.36 198.88 551.98C198.88 551.95 198.86 551.96 198.86 551.95ZM192.41 542.72C192.98 541.28 193.53 539.82 194.1 538.38C196.73 540.64 199.34 542.9 201.97 545.19C201.33 546.65 200.66 548.09 200 549.53C197.46 547.27 194.93 544.98 192.41 542.72ZM194.33 537.81C194.56 537.23 194.77 536.69 194.99 536.11C197.81 538.13 200.53 540.27 203.13 542.54C202.83 543.22 202.51 543.91 202.22 544.62C199.59 542.35 196.96 540.07 194.33 537.81ZM195.22 535.52C195.52 534.77 195.79 534.03 196.09 533.28C196.09 533.28 196.09 533.28 196.09 533.28C198.74 535.54 201.49 537.71 204.3 539.79C204 540.5 203.68 541.23 203.38 541.94C200.75 539.68 198.03 537.53 195.22 535.52ZM197.94 530.4C197.65 530.13 197.23 530.56 197.51 530.83C200 533.12 202.61 535.27 205.37 537.23C205.1 537.9 204.82 538.56 204.55 539.22C201.81 537.19 199.13 535.06 196.53 532.85C196.46 532.78 196.37 532.75 196.3 532.78C196.31 532.75 196.38 532.55 196.39 532.53C197.3 530.17 198.22 527.82 199.15 525.44C201.53 527.36 203.89 529.28 206.26 531.2C206.56 531.45 206.99 531.02 206.7 530.77C204.32 528.85 201.94 526.9 199.54 524.98C199.47 524.94 199.43 524.91 199.36 524.91C199.63 524.21 199.91 523.5 200.18 522.79C202.9 524.96 205.6 527.15 208.32 529.33C208.37 529.37 208.41 529.37 208.46 529.39C207.54 531.84 206.58 534.26 205.6 536.66C202.93 534.74 200.37 532.64 197.94 530.4ZM205.81 522.81C205.05 522.24 204.27 521.69 203.5 521.17C202.97 520.8 202.22 520.11 201.55 520.11C201.44 520.11 201.35 520.18 201.3 520.27C201.28 520.32 201.26 520.37 201.23 520.41C201.17 520.55 201.19 520.66 201.28 520.78C201.3 520.8 201.33 520.85 201.35 520.87C201.51 521.05 201.74 520.96 201.83 520.78C202.31 521.17 205.17 523.09 205.53 523.36C206.9 524.39 208.21 525.53 209.46 526.72C209.21 527.43 208.94 528.16 208.69 528.87C207.86 528.2 201.26 522.88 200.43 522.22C200.85 521.14 201.26 520.09 201.67 519.02C201.74 518.86 201.78 518.72 201.85 518.56C204.89 520.25 207.66 522.33 210.15 524.75C209.97 525.19 209.81 525.62 209.65 526.08C208.41 524.94 207.15 523.84 205.81 522.81ZM203.45 515.43C203.13 515.2 202.81 515.73 203.15 515.95C205.87 517.78 208.53 519.68 211.15 521.65C210.88 522.47 210.61 523.29 210.33 524.09C207.84 521.69 205.07 519.63 202.06 517.97C202.93 515.75 203.77 513.51 204.55 511.27C204.66 511.57 205.17 511.52 205.14 511.18C205.53 511.29 205.87 511.47 206.15 511.75C206.47 512 206.77 512.27 207.09 512.53C207.61 512.96 208.11 513.39 208.64 513.81C209.67 514.67 210.72 515.52 211.75 516.39C212.05 516.64 212.48 516.21 212.18 515.95C210.42 514.49 208.64 513.03 206.88 511.57C206.45 511.2 205.78 510.42 205.17 510.42C205.03 510.42 204.89 510.47 204.8 510.54C205.07 509.69 205.35 508.85 205.62 508C208.18 510.17 210.74 512.34 213.3 514.51C212.69 516.71 212.02 518.88 211.34 521.05C208.75 519.11 206.13 517.23 203.45 515.43ZM205.78 507.38C205.87 507.06 205.97 506.72 206.06 506.4C208.64 508.37 211.22 510.33 213.83 512.3C213.85 512.32 213.85 512.32 213.87 512.32C213.74 512.82 213.6 513.35 213.46 513.87C210.9 511.7 208.34 509.55 205.78 507.38Z" id="a1vDwkHT1b"></path><path d="M193.49 566.24C193.37 566.24 193.28 566.22 193.19 566.15C193.18 566.14 193.14 566.12 193.07 566.08C187.81 565.79 184.88 565.63 184.3 565.6C184.18 565.6 184.09 565.6 183.98 565.58C183.31 565.55 182.65 565.51 182.01 565.28C181.42 565.07 180.85 564.71 180.32 564.34C180.11 564.21 179.91 564.07 179.73 563.95C179.04 563.53 173.51 560.17 172.82 559.75C172.62 559.73 172.43 559.57 172.34 559.34C165.78 541.62 158.99 523.31 151.73 505.33C151.63 505.12 151.7 504.96 151.75 504.87C151.84 504.73 152 504.64 152.18 504.62C152.27 504.43 152.46 504.34 152.66 504.34C154.1 504.34 155.59 504.32 157.01 504.3C158.67 504.27 160.39 504.25 162.1 504.25C163.41 504.25 164.59 504.27 165.69 504.3C166.54 504.32 167.13 504.66 167.57 505.35C168.21 505.79 173.35 509.3 173.99 509.74C174.19 509.87 174.4 510.01 174.63 510.15C175.34 510.61 176.07 511.09 176.62 511.7C177.19 512.34 177.55 513.1 177.85 513.74C177.86 513.74 177.95 513.78 177.97 513.78C178.08 513.83 178.15 513.9 178.17 514.01C178.19 514.1 178.17 514.22 178.1 514.31C178.11 514.33 178.19 514.51 178.19 514.54C180.07 518.86 181.69 523.29 183.09 527.75C185.83 520.18 188.23 512.41 190.24 504.66C190.31 504.41 190.51 504.25 190.77 504.25C190.83 504.25 190.9 504.25 190.95 504.27C190.99 504.27 191.04 504.27 191.09 504.27C192.54 504.36 204.15 505.08 205.6 505.17C205.78 504.98 206.03 504.98 206.24 505.14C207.06 505.76 213.58 510.72 214.4 511.34C214.49 511.41 214.56 511.5 214.61 511.61C214.77 511.66 214.88 511.75 214.97 511.86C215.04 512 215.06 512.14 215.04 512.3C212.64 521.62 209.21 531.31 204.23 542.77C204.23 542.81 204.21 542.86 204.16 542.9C201.05 550.08 197.81 556.89 193.9 565.05C194.08 565.21 194.13 565.49 194.06 565.71C193.97 566.01 193.74 566.24 193.49 566.24C193.49 566.24 193.49 566.24 193.49 566.24ZM156.98 504.46C155.57 504.48 154.08 504.48 152.64 504.5C152.41 504.5 152.32 504.64 152.27 504.73C152.27 504.73 152.27 504.75 152.25 504.78C152.22 504.78 152.21 504.78 152.21 504.78C152.05 504.78 151.91 504.85 151.84 504.96C151.77 505.05 151.77 505.17 151.82 505.28C159.09 523.29 165.87 541.6 172.43 559.29C172.48 559.43 172.62 559.59 172.8 559.61C172.8 559.61 172.81 559.61 172.82 559.61C176.96 562.13 179.27 563.54 179.73 563.82C179.93 563.93 180.14 564.07 180.34 564.21C180.87 564.55 181.44 564.91 182.01 565.12C182.63 565.35 183.27 565.37 183.93 565.39C184.05 565.39 184.14 565.39 184.25 565.42C184.84 565.45 187.78 565.61 193.07 565.9C193.17 565.95 193.22 565.98 193.23 565.99C193.3 566.03 193.37 566.06 193.46 566.06C193.67 566.06 193.83 565.85 193.85 565.67C193.92 565.46 193.85 565.23 193.71 565.12C193.71 565.12 193.7 565.1 193.67 565.07C193.68 565.05 193.69 565.03 193.69 565.03C197.62 556.85 200.87 550.03 204 542.81C204.02 542.77 204.05 542.74 204.05 542.7C209.03 531.22 212.46 521.55 214.86 512.23C214.88 512.11 214.88 512 214.81 511.91C214.74 511.82 214.63 511.73 214.51 511.7C214.51 511.7 214.5 511.7 214.47 511.7C214.45 511.68 214.45 511.66 214.45 511.66C214.42 511.57 214.35 511.47 214.29 511.43C213.47 510.81 206.94 505.85 206.13 505.23C205.97 505.12 205.78 505.12 205.65 505.28C205.64 505.28 205.64 505.29 205.62 505.3L205.58 505.3C196.84 504.75 191.99 504.45 191.02 504.39C190.99 504.39 190.95 504.39 190.93 504.39C190.92 504.39 190.92 504.39 190.9 504.39C190.89 504.39 190.88 504.39 190.88 504.39C190.83 504.37 190.77 504.37 190.72 504.37C190.63 504.37 190.4 504.39 190.33 504.66C188.3 512.48 185.85 520.32 183.09 527.98C183.08 527.99 183.06 528.06 183.02 528.18C182.98 528.06 182.95 527.99 182.95 527.98C181.55 523.45 179.89 518.93 178.01 514.56C178 514.54 177.96 514.43 177.87 514.24C177.89 514.21 177.9 514.2 177.9 514.19C177.94 514.13 177.97 514.06 177.97 513.99C177.94 513.94 177.92 513.9 177.85 513.87C177.84 513.87 177.78 513.85 177.67 513.81C177.65 513.79 177.65 513.78 177.65 513.78C177.35 513.14 176.98 512.41 176.41 511.77C175.89 511.18 175.15 510.7 174.45 510.24C174.24 510.1 174.01 509.97 173.81 509.83C173.16 509.39 168 505.86 167.36 505.42C166.95 504.75 166.4 504.43 165.6 504.41C164.55 504.43 163.38 504.41 162.08 504.41C160.39 504.41 158.65 504.43 156.98 504.46ZM189.07 564.85C189.07 564.8 189.07 564.78 189.07 564.78C189.07 564.71 189.05 564.64 188.98 564.57C187.06 563.09 185.19 561.44 183.43 559.7C183.42 559.69 183.37 559.65 183.29 559.57C183.4 559.57 183.46 559.57 183.47 559.57C183.95 559.59 184.41 559.61 184.89 559.63C184.89 559.63 184.91 559.63 184.94 559.63C184.95 559.65 184.96 559.66 184.96 559.66C185.05 559.79 185.23 559.86 185.42 559.84C185.42 559.84 185.44 559.84 185.46 559.84C185.48 559.85 185.48 559.86 185.49 559.86C187.36 561.67 189.39 563.36 191.52 564.85C191.53 564.85 191.6 564.9 191.73 564.98L189.07 564.85ZM191.2 564.8C189.14 563.34 187.2 561.71 185.39 559.98C185.19 560 184.96 559.91 184.85 559.77C184.46 559.75 184.07 559.73 183.66 559.73C185.37 561.42 187.18 563.02 189.05 564.46C189.17 564.5 189.21 564.59 189.21 564.69C189.61 564.71 191 564.79 191.2 564.8ZM188.27 564.78C187.73 564.75 187.13 564.73 186.56 564.73C185.21 564.71 183.82 564.69 182.54 564.41C181.94 564.27 181.33 563.86 180.78 563.47C180.57 563.34 180.37 563.2 180.18 563.09C179.8 562.85 177.86 561.67 174.38 559.54C174.53 559.54 174.61 559.54 174.63 559.54C175.82 559.5 177.05 559.47 178.29 559.47C178.29 559.47 178.29 559.47 178.31 559.47C178.32 559.49 178.33 559.5 178.33 559.5C180.37 561.14 182.42 562.72 184.48 564.16C184.59 564.25 184.75 564.18 184.8 564.02C184.82 563.98 184.85 563.84 184.71 563.75C182.86 562.45 181.01 561.05 179.2 559.59C179.19 559.58 179.14 559.53 179.04 559.45C179.16 559.45 179.23 559.45 179.25 559.45C180.32 559.45 181.44 559.47 182.61 559.5C182.61 559.5 182.61 559.5 182.63 559.5C182.64 559.51 182.65 559.52 182.65 559.52C184.41 561.33 186.35 563.04 188.37 564.64C188.38 564.65 188.45 564.7 188.57 564.8C188.39 564.79 188.29 564.78 188.27 564.78ZM180.27 562.95C180.46 563.06 180.66 563.2 180.89 563.36C181.42 563.73 182.03 564.14 182.61 564.27C183.86 564.55 185.26 564.57 186.61 564.59C187.11 564.59 187.63 564.62 188.14 564.64C186.19 563.11 184.32 561.44 182.61 559.68C181.53 559.66 180.5 559.63 179.5 559.63C181.26 561.05 183.06 562.4 184.85 563.63C184.98 563.73 185.05 563.91 184.98 564.07C184.91 564.32 184.64 564.41 184.43 564.27C182.38 562.83 180.32 561.26 178.29 559.61C177.12 559.63 176 559.66 174.9 559.68C175.98 560.33 179.74 562.62 180.27 562.95ZM192.85 564.71C190.4 563.06 188.09 561.19 185.99 559.13C185.99 559.13 185.97 559.11 185.94 559.09L186.81 556.87C186.85 556.9 186.88 556.91 186.88 556.91C189.12 558.51 191.31 560.25 193.37 562.06C193.51 562.17 193.71 562.1 193.76 561.94C193.78 561.9 193.78 561.81 193.69 561.74C191.59 559.86 189.35 558.1 187.02 556.46C187.01 556.46 187 556.45 186.97 556.43L187.79 554.31C187.81 554.29 187.82 554.29 187.82 554.29C187.84 554.29 187.86 554.26 187.86 554.26C187.87 554.26 187.9 554.24 187.95 554.19C187.98 554.25 188 554.28 188 554.29C188 554.31 188.05 554.33 188.07 554.35C188.73 554.86 193.99 558.88 194.65 559.38C194.79 559.47 194.9 559.38 194.95 559.27C194.97 559.22 194.99 559.09 194.86 558.97C194.32 558.56 190.06 555.31 189.53 554.9C189.42 554.81 189.28 554.72 189.17 554.63C188.82 554.38 188.46 554.1 188.14 553.78C188.11 553.76 188.09 553.74 188.05 553.71C188.04 553.71 188.03 553.7 188 553.67L188.87 551.43C188.91 551.46 188.93 551.47 188.94 551.47C191.45 553.01 193.78 554.81 195.89 556.82C196 556.94 196.21 556.87 196.27 556.73C196.3 556.69 196.32 556.59 196.23 556.5C194.08 554.42 191.68 552.57 189.1 551.02C189.09 551.02 189.08 551.01 189.05 550.99L189.92 548.78C189.96 548.8 189.98 548.82 189.99 548.82C192.55 550.65 194.95 552.73 197.14 554.99C197.19 555.04 197.26 555.06 197.33 555.06C197.33 555.06 197.38 555.05 197.46 555.04C197.42 555.12 197.4 555.17 197.39 555.18C195.91 558.33 194.42 561.44 192.89 564.64C192.89 564.65 192.9 564.69 192.91 564.75C192.87 564.73 192.85 564.71 192.85 564.71ZM192.85 564.53C194.33 561.39 195.82 558.35 197.26 555.27C197.19 555.25 197.12 555.22 197.07 555.15C194.9 552.94 192.55 550.88 190.03 549.07C189.96 549.27 189.36 550.8 189.28 550.99C191.84 552.55 194.24 554.4 196.39 556.46C196.5 556.57 196.53 556.71 196.48 556.85C196.41 557.01 196.27 557.1 196.11 557.1C196.02 557.1 195.93 557.05 195.86 556.98C193.78 554.99 191.47 553.21 189.01 551.68C188.93 551.88 188.33 553.45 188.25 553.65C188.27 553.67 188.3 553.69 188.32 553.69C188.62 553.99 188.96 554.26 189.33 554.51C189.44 554.61 189.58 554.7 189.69 554.79C190.22 555.2 194.48 558.45 195.02 558.86C195.18 558.99 195.2 559.18 195.15 559.31C195.06 559.54 194.81 559.66 194.63 559.5C193.97 558.99 188.7 554.97 188.05 554.47C188.02 554.45 188 554.42 187.98 554.4C187.9 554.59 187.3 556.15 187.22 556.34C189.53 557.99 191.77 559.75 193.85 561.6C193.97 561.69 194.01 561.85 193.94 561.99C193.87 562.15 193.71 562.26 193.55 562.26C193.46 562.26 193.37 562.22 193.3 562.17C191.27 560.39 189.12 558.67 186.9 557.1C186.85 557.23 186.59 557.88 186.13 559.06C189.01 561.62 191.25 563.44 192.85 564.53ZM185.07 558.77C185.05 558.77 185.01 558.74 184.98 558.74C182.67 558.63 180.32 558.58 177.99 558.61C177.99 558.61 177.98 558.61 177.97 558.61C177.95 558.61 177.94 558.61 177.94 558.61C177.87 558.58 177.81 558.58 177.76 558.61C177.76 558.61 177.74 558.61 177.74 558.61C176.23 558.63 174.7 558.65 173.21 558.72C173.21 558.72 173.19 558.72 173.17 558.72C173.15 558.69 173.14 558.68 173.14 558.67C166.7 541.3 160.05 523.34 152.85 505.44C152.84 505.43 152.83 505.39 152.8 505.33C160.52 505.3 164.81 505.28 165.67 505.28C165.9 505.28 166.1 505.33 166.26 505.39C166.27 505.4 166.28 505.4 166.31 505.42C166.31 505.44 166.31 505.46 166.31 505.46C166.31 505.58 166.33 505.71 166.49 505.83C166.51 505.84 166.62 505.92 166.81 506.06C166.81 506.07 166.81 506.08 166.81 506.08C166.86 506.22 166.93 506.38 166.97 506.51C167.02 506.63 167.04 506.74 167.09 506.83C168.27 510.05 177.72 535.82 178.9 539.04C178.97 539.22 179.13 539.34 179.34 539.34C179.36 539.34 179.41 539.34 179.43 539.34C179.54 539.31 179.7 539.27 179.79 539.06C180.89 536.39 181.99 533.65 183.02 530.9C183.02 530.9 183.03 530.88 183.04 530.86C183.07 530.86 183.08 530.86 183.09 530.86C183.18 530.86 183.25 530.77 183.25 530.74C183.29 530.67 183.29 530.56 183.22 530.47C183.22 530.47 183.21 530.46 183.2 530.45C183.21 530.42 183.22 530.4 183.22 530.4C186.26 522.22 188.94 513.78 191.15 505.35C191.16 505.34 191.16 505.32 191.18 505.28L191.25 505.28L205.23 506.15C205.22 506.2 205.21 506.23 205.21 506.24C204.07 510.38 202.49 514.47 200.94 518.4C200.32 519.98 197.24 527.88 191.7 542.1C191.65 542.06 191.62 542.04 191.61 542.03C191.47 541.92 191.29 541.99 191.22 542.15C191.2 542.19 191.2 542.29 191.29 542.35C191.31 542.37 191.38 542.44 191.52 542.56L191.5 542.61L185.14 558.79C185.1 558.77 185.08 558.77 185.07 558.77ZM185.01 558.58C185.03 558.58 185.05 558.58 185.05 558.58C185.47 557.52 187.54 552.19 191.27 542.61C191.17 542.52 191.12 542.48 191.11 542.47C190.99 542.38 190.95 542.22 191.02 542.08C191.09 541.87 191.36 541.76 191.57 541.85C192.48 539.5 199.81 520.68 200.73 518.33C202.26 514.42 203.82 510.38 204.96 506.29C203.59 506.2 192.6 505.52 191.22 505.44C189.01 513.85 186.35 522.24 183.31 530.4C183.38 530.51 183.41 530.67 183.34 530.79C183.29 530.9 183.2 530.97 183.09 530.99C182.06 533.71 180.98 536.46 179.89 539.11C179.79 539.31 179.61 539.45 179.41 539.47C179.36 539.47 179.34 539.47 179.29 539.47C179.02 539.47 178.81 539.34 178.72 539.09C177.54 535.87 168.08 510.1 166.9 506.88C166.86 506.77 166.83 506.65 166.79 506.54C166.74 506.4 166.7 506.26 166.65 506.13C166.62 506.11 166.4 505.96 166.38 505.94C166.22 505.83 166.13 505.69 166.13 505.51C165.99 505.44 165.83 505.42 165.65 505.42C164.38 505.42 154.27 505.46 153.01 505.46C160.18 523.29 166.83 541.21 173.26 558.54C174.74 558.47 176.23 558.42 177.71 558.42C177.81 558.38 177.9 558.38 177.99 558.42C178.33 558.45 178.65 558.45 178.99 558.45C181.01 558.45 183.02 558.49 185.01 558.58ZM197.53 554.77C197.53 554.74 197.51 554.74 197.51 554.72C195.27 552.43 192.82 550.31 190.17 548.41C190.17 548.41 190.15 548.39 190.13 548.37L191.02 546.06C195.49 549.8 197.97 551.88 198.47 552.3C198.51 552.34 198.58 552.37 198.65 552.34C198.66 552.34 198.71 552.33 198.79 552.32C198.75 552.4 198.72 552.45 198.72 552.46C198.38 553.21 198.01 553.97 197.67 554.72C197.66 554.73 197.64 554.78 197.6 554.88C197.56 554.81 197.54 554.77 197.53 554.77ZM197.58 554.58C197.9 553.9 198.22 553.21 198.54 552.53C198.47 552.5 198.42 552.48 198.35 552.43C197.87 552.03 195.44 549.99 191.06 546.33L190.31 548.32C193.68 550.97 196.1 553.06 197.58 554.58ZM198.83 552.02C198.83 552.02 198.81 552 198.81 552C198.08 551.38 192.19 546.45 191.45 545.83C191.41 545.78 191.34 545.76 191.27 545.78C191.26 545.78 191.22 545.79 191.15 545.81L192.16 543.22L199.84 550.13C199.83 550.15 199.82 550.17 199.82 550.17C199.54 550.79 199.25 551.41 198.95 552.05C198.95 552.05 198.93 552.07 198.9 552.11C198.86 552.06 198.84 552.03 198.83 552.02ZM191.54 545.71C192.27 546.33 198.13 551.23 198.86 551.84C199.13 551.27 199.38 550.7 199.66 550.13C199.16 549.68 196.68 547.46 192.21 543.45L191.36 545.62C191.44 545.65 191.5 545.68 191.54 545.71ZM192.32 542.74L194.08 538.24L202.08 545.14C202.07 545.17 202.06 545.19 202.06 545.19C201.42 546.61 200.78 548.07 200.09 549.55C200.09 549.56 200.06 549.6 200.02 549.67L192.32 542.74ZM199.95 549.42C200.59 548 201.23 546.58 201.85 545.21C201.33 544.76 198.75 542.53 194.1 538.51L192.48 542.7C196.96 546.73 199.46 548.97 199.95 549.42ZM202.17 544.66L194.24 537.81L194.95 535.98C194.99 536 195.01 536.02 195.02 536.02C197.81 538.01 200.55 540.18 203.18 542.45C203.18 542.45 203.2 542.46 203.22 542.49C203.21 542.52 203.2 542.53 203.2 542.54C202.9 543.22 202.58 543.93 202.29 544.62C202.28 544.62 202.27 544.66 202.24 544.73L202.17 544.66ZM202.19 544.48C202.47 543.84 202.77 543.18 203.04 542.54C200.48 540.3 197.78 538.17 195.02 536.21C194.98 536.31 194.78 536.83 194.42 537.76C199.09 541.79 201.68 544.03 202.19 544.48ZM203.34 541.99C200.73 539.73 197.97 537.58 195.18 535.57C195.17 535.56 195.16 535.55 195.13 535.52L196.07 533.12C196.12 533.16 196.15 533.18 196.16 533.19C198.79 535.43 201.53 537.6 204.37 539.7C204.37 539.71 204.38 539.72 204.41 539.75C204.4 539.78 204.39 539.79 204.39 539.79C204.09 540.5 203.77 541.23 203.47 541.94C203.47 541.95 203.45 541.99 203.41 542.06C203.36 542.02 203.34 541.99 203.34 541.99ZM203.34 541.83C203.63 541.17 203.91 540.5 204.18 539.84C201.42 537.78 198.7 535.63 196.09 533.42C196.04 533.56 195.77 534.25 195.29 535.5C198.93 538.22 201.62 540.34 203.34 541.83ZM204.5 539.27C201.76 537.23 199.06 535.09 196.48 532.89C196.43 532.85 196.37 532.82 196.3 532.85C196.29 532.85 196.25 532.85 196.18 532.87L199.13 525.33C203.45 528.82 205.85 530.77 206.33 531.15C206.38 531.2 206.42 531.2 206.49 531.2C206.61 531.2 206.7 531.13 206.74 531.04C206.77 530.99 206.77 530.93 206.67 530.83C205.96 530.26 200.24 525.63 199.52 525.05C199.47 525.01 199.43 525.01 199.38 525.01C199.38 525.01 199.34 525.01 199.27 525.01L200.18 522.67C205.11 526.64 207.84 528.84 208.39 529.28C208.41 529.3 208.46 529.33 208.5 529.33C208.51 529.33 208.54 529.33 208.59 529.35C208.58 529.4 208.57 529.43 208.57 529.44C207.7 531.79 206.74 534.22 205.74 536.71C205.73 536.71 205.72 536.75 205.69 536.8C205.65 536.77 205.63 536.76 205.62 536.75C202.95 534.83 200.37 532.73 197.97 530.49C197.92 530.45 197.87 530.42 197.81 530.42C197.71 530.42 197.6 530.49 197.58 530.58C197.55 530.63 197.55 530.72 197.62 530.79C200.09 533.05 202.72 535.2 205.46 537.19C205.47 537.19 205.48 537.21 205.51 537.23C205.49 537.26 205.49 537.28 205.49 537.28C205.21 537.94 204.94 538.61 204.66 539.27C204.66 539.27 204.63 539.3 204.57 539.34C204.53 539.3 204.51 539.27 204.5 539.27ZM196.57 532.8C199.13 534.97 201.81 537.1 204.5 539.11C204.75 538.49 205.01 537.87 205.28 537.26C202.56 535.29 199.93 533.14 197.46 530.88C197.35 530.77 197.3 530.63 197.37 530.49C197.44 530.33 197.58 530.24 197.74 530.24C197.83 530.24 197.92 530.29 197.99 530.35C200.39 532.55 202.93 534.65 205.55 536.55C206.54 534.13 207.47 531.75 208.32 529.46C208.3 529.44 208.25 529.44 208.23 529.42C207.69 528.98 205.01 526.82 200.18 522.93C199.73 524.09 199.48 524.74 199.43 524.87C199.47 524.89 199.52 524.91 199.57 524.94C200.28 525.52 206 530.14 206.72 530.72C206.83 530.81 206.88 530.95 206.83 531.09C206.79 531.25 206.61 531.36 206.45 531.36C206.35 531.36 206.26 531.34 206.19 531.27C205.72 530.89 203.38 528.99 199.15 525.58L196.39 532.71C196.46 532.74 196.53 532.77 196.57 532.8ZM178.1 534.49L180.46 535.06C180.44 535.12 180.44 535.15 180.43 535.15C180.05 536.14 179.73 536.94 179.43 537.69C179.42 537.7 179.39 537.76 179.34 537.85L178.1 534.49ZM179.36 537.44C179.63 536.75 179.93 536.02 180.27 535.18C180.15 535.15 179.51 534.99 178.35 534.72C178.96 536.35 179.29 537.26 179.36 537.44ZM177.92 533.99L177.1 531.73C179.39 532.38 180.66 532.75 180.91 532.82C181.07 532.87 181.17 532.75 181.19 532.64C181.21 532.55 181.17 532.43 181.03 532.39C180.75 532.31 179.37 531.91 176.89 531.2L176 528.75C176.05 528.74 176.09 528.73 176.09 528.73C176.21 528.71 176.32 528.71 176.43 528.71C177.14 528.71 177.94 529.05 178.65 529.35C178.93 529.46 179.15 529.55 179.38 529.65C179.57 529.71 180.51 530.04 182.19 530.63C182.18 530.67 182.17 530.69 182.17 530.7C181.69 531.95 181.19 533.28 180.66 534.61C180.66 534.61 180.64 534.61 180.62 534.63L177.92 533.99ZM180.53 534.45C180.73 533.94 180.91 533.44 181.12 532.94C181.05 532.98 180.96 532.98 180.87 532.96C180.63 532.89 179.46 532.55 177.35 531.93L178.03 533.85C179.53 534.21 180.36 534.41 180.53 534.45ZM181.05 532.23C181.19 532.27 181.26 532.34 181.3 532.46C181.53 531.86 181.76 531.27 181.97 530.67C181.7 530.58 179.56 529.85 179.29 529.76C179.06 529.69 178.81 529.58 178.56 529.46C177.87 529.17 177.07 528.85 176.41 528.85C176.34 528.85 176.25 528.85 176.18 528.87C176.24 529.01 176.51 529.75 177.01 531.06C179.43 531.76 180.78 532.15 181.05 532.23ZM179.11 529.05C178.88 528.98 178.67 528.89 178.42 528.78C177.76 528.5 177.05 528.23 176.39 528.23C176.21 528.23 176.05 528.25 175.91 528.27C175.9 528.28 175.88 528.28 175.84 528.3L173.9 522.99C173.95 522.99 173.98 522.99 173.99 522.99C174.99 522.93 175.98 523.34 176.91 523.75C177.1 523.84 177.3 523.91 177.49 524C177.85 524.15 180.78 525.34 181.14 525.49C181.17 525.49 181.19 525.51 181.21 525.51C181.21 525.51 181.23 525.51 181.26 525.51C181.27 525.54 181.28 525.55 181.28 525.55C181.49 526.17 181.69 526.83 181.92 527.57C181.92 527.58 181.94 527.63 181.97 527.73C181.87 527.68 181.82 527.66 181.81 527.66C179.68 526.79 177.51 526.06 175.34 525.46C175.18 525.42 175.09 525.55 175.06 525.67C175.04 525.76 175.09 525.87 175.22 525.92C177.55 526.56 179.89 527.36 182.1 528.3C182.1 528.3 182.11 528.31 182.13 528.32C182.18 528.51 182.21 528.62 182.22 528.64C182.26 528.8 182.31 528.96 182.35 529.12C182.38 529.23 182.45 529.3 182.54 529.37C182.54 529.37 182.56 529.38 182.58 529.39C182.57 529.44 182.56 529.46 182.56 529.46C182.51 529.6 182.47 529.74 182.4 529.85C182.4 529.87 182.37 529.98 182.33 530.17C180.4 529.5 179.32 529.13 179.11 529.05ZM178.49 528.66C178.72 528.75 178.95 528.85 179.18 528.91C179.38 528.99 180.41 529.34 182.26 529.99C182.32 529.87 182.35 529.8 182.35 529.78C182.4 529.67 182.45 529.55 182.49 529.44C182.4 529.37 182.33 529.26 182.29 529.14C182.24 528.98 182.19 528.82 182.15 528.66C182.14 528.64 182.09 528.44 182.08 528.41C179.89 527.5 177.58 526.7 175.27 526.06C175.25 526.06 175.22 526.06 175.22 526.03C175.3 526.24 175.92 527.93 176 528.14C176.07 528.09 176.23 528.09 176.39 528.09C177.1 528.09 177.83 528.39 178.49 528.66ZM175.43 525.33C177.55 525.9 179.68 526.63 181.76 527.47C181.55 526.81 181.35 526.22 181.17 525.65C181.14 525.65 181.12 525.65 181.1 525.62C180.73 525.47 177.81 524.29 177.44 524.14C177.26 524.07 177.05 523.98 176.87 523.89C175.98 523.5 175.06 523.11 174.13 523.13C174.21 523.37 174.91 525.27 174.99 525.51C175.04 525.39 175.15 525.3 175.31 525.3C175.36 525.3 175.38 525.3 175.43 525.33ZM200.32 522.22L201.81 518.42C201.85 518.45 201.87 518.47 201.87 518.47C204.91 520.16 207.7 522.24 210.17 524.66C210.17 524.66 210.18 524.67 210.19 524.69C210.18 524.71 210.17 524.73 210.17 524.73C210.01 525.17 209.87 525.62 209.71 526.06C209.71 526.06 209.7 526.1 209.67 526.17C209.61 526.13 209.58 526.11 209.58 526.1C208.37 524.96 207.06 523.86 205.74 522.86C205.07 522.35 204.32 521.83 203.43 521.21C203.31 521.12 203.18 521.03 203.02 520.91C202.54 520.55 202.01 520.16 201.51 520.16C201.42 520.16 201.35 520.21 201.3 520.27C201.3 520.29 201.24 520.4 201.23 520.41C201.17 520.53 201.23 520.64 201.28 520.69C201.29 520.69 201.34 520.77 201.35 520.78C201.46 520.89 201.62 520.85 201.69 520.71C201.69 520.7 201.71 520.67 201.74 520.62C201.78 520.66 201.8 520.68 201.81 520.69C202.1 520.91 203.25 521.69 204.16 522.33C204.8 522.77 205.35 523.15 205.49 523.27C206.77 524.23 208.05 525.33 209.42 526.63C209.42 526.63 209.44 526.64 209.46 526.65C209.45 526.68 209.44 526.69 209.44 526.7C209.17 527.43 208.91 528.16 208.66 528.85C208.66 528.85 208.67 528.89 208.69 528.96L200.32 522.22ZM208.59 528.71C208.82 528.07 209.07 527.38 209.33 526.7C207.98 525.42 206.72 524.32 205.44 523.38C205.3 523.27 204.75 522.9 204.11 522.47C203.25 521.87 202.19 521.14 201.81 520.87C201.74 520.96 201.62 521.03 201.51 521.03C201.44 521.03 201.35 521.01 201.26 520.89C201.25 520.88 201.2 520.81 201.19 520.8C201.14 520.73 201.1 520.66 201.1 520.59C201.06 520.7 200.85 521.23 200.48 522.17C205.35 526.09 208.05 528.27 208.59 528.71ZM203.15 520.8C203.29 520.91 203.43 521.01 203.54 521.1C204.46 521.71 205.19 522.22 205.87 522.74C207.18 523.73 208.43 524.8 209.62 525.92C209.76 525.53 209.9 525.14 210.03 524.75C207.59 522.38 204.85 520.32 201.87 518.65C201.82 518.8 201.36 519.99 201.3 520.14C201.35 520.07 201.44 520.02 201.55 520.02C202.1 520.02 202.65 520.43 203.15 520.8ZM176.85 523.22C175.95 522.86 175.11 522.51 174.19 522.51C174.06 522.51 173.92 522.51 173.78 522.54C173.78 522.54 173.76 522.54 173.71 522.54L172.82 520.11C172.88 520.11 172.91 520.11 172.91 520.11C173.39 520.07 173.9 520.34 174.33 520.57C174.47 520.64 174.61 520.71 174.72 520.75C175.1 520.92 177.01 521.75 180.46 523.25C180.47 523.27 180.48 523.29 180.48 523.29C180.66 523.79 180.82 524.3 181.01 524.8C181.01 524.81 181.04 524.86 181.1 524.96C178.55 523.92 177.13 523.34 176.85 523.22ZM176.91 523.11C177.31 523.27 180.45 524.55 180.85 524.71C180.71 524.27 180.55 523.84 180.39 523.41C180.39 523.41 180.39 523.41 180.39 523.41C179.82 523.16 175.27 521.18 174.7 520.94C174.56 520.89 174.42 520.82 174.29 520.73C173.9 520.53 173.44 520.3 173.05 520.3C173.13 520.51 173.75 522.19 173.83 522.4C173.94 522.38 174.08 522.38 174.19 522.38C175.13 522.38 176.05 522.74 176.91 523.11ZM210.26 524.16C207.77 521.76 205.01 519.7 201.99 518.03C201.98 518.03 201.96 518.03 201.92 518.01C201.93 517.97 201.94 517.95 201.94 517.94C202.77 515.82 203.63 513.55 204.43 511.25C204.44 511.23 204.46 511.16 204.5 511.04C204.54 511.16 204.57 511.23 204.57 511.25C204.62 511.36 204.73 511.38 204.8 511.38C204.87 511.38 204.91 511.36 204.96 511.31C204.98 511.27 205.01 511.22 205.01 511.18C205.01 511.17 205.01 511.13 205.01 511.06C205.07 511.08 205.11 511.08 205.12 511.09C205.51 511.2 205.87 511.41 206.15 511.68C206.71 512.14 211.19 515.86 211.75 516.32C211.89 516.43 212.09 516.37 212.14 516.21C212.16 516.16 212.16 516.07 212.07 516C211.54 515.56 207.3 512.05 206.77 511.61C206.67 511.52 206.56 511.43 206.45 511.31C206.06 510.95 205.55 510.49 205.1 510.49C204.98 510.49 204.87 510.51 204.78 510.58C204.76 510.59 204.7 510.64 204.59 510.72C204.64 510.58 204.66 510.51 204.66 510.49C204.94 509.65 205.21 508.8 205.49 507.95C205.49 507.95 205.49 507.91 205.51 507.84L213.33 514.45C213.31 514.47 213.3 514.49 213.3 514.49C212.71 516.62 212.07 518.81 211.34 521.03C211.34 521.03 211.33 521.07 211.31 521.12C211.26 521.08 211.23 521.06 211.22 521.05C208.62 519.09 205.97 517.21 203.34 515.43C203.2 515.34 203.06 515.41 203.02 515.57C202.99 515.61 202.97 515.75 203.11 515.84C205.78 517.65 208.48 519.57 211.11 521.53C211.11 521.53 211.13 521.54 211.15 521.55C211.14 521.58 211.13 521.6 211.13 521.6C210.86 522.47 210.58 523.27 210.31 524.05C210.31 524.06 210.33 524.13 210.35 524.25C210.3 524.2 210.27 524.17 210.26 524.16ZM210.31 523.98C210.56 523.25 210.81 522.49 211.06 521.69C208.46 519.73 205.78 517.81 203.11 516.02C203.04 515.98 202.99 515.91 202.95 515.84C202.67 516.55 202.4 517.26 202.15 517.94C205.1 519.59 207.84 521.62 210.31 523.98ZM203.5 515.38C206.1 517.14 208.73 518.99 211.29 520.94C211.98 518.77 212.62 516.62 213.19 514.56C212.43 513.92 206.38 508.8 205.62 508.16C205.39 508.91 205.14 509.67 204.89 510.42C204.96 510.4 205.03 510.38 205.12 510.38C205.65 510.38 206.17 510.86 206.58 511.25C206.7 511.36 206.81 511.45 206.9 511.54C207.43 511.98 211.68 515.49 212.21 515.93C212.32 516.02 212.37 516.16 212.32 516.3C212.27 516.46 212.09 516.57 211.93 516.57C211.84 516.57 211.75 516.55 211.68 516.48C211.12 516.02 206.64 512.3 206.08 511.84C205.83 511.59 205.53 511.41 205.19 511.29C205.17 511.36 205.14 511.41 205.12 511.45C204.98 511.59 204.71 511.59 204.57 511.45C204.11 512.78 203.63 514.08 203.15 515.36C203.18 515.31 203.25 515.31 203.29 515.31C203.36 515.31 203.43 515.34 203.5 515.38ZM175.73 520.69C175.52 520.59 175.31 520.48 175.09 520.39C174.42 520.07 173.69 519.68 173.01 519.68C172.91 519.68 172.82 519.68 172.73 519.7C172.73 519.7 172.7 519.7 172.66 519.7L171.95 517.78C176.34 519.5 178.78 520.45 179.27 520.64C179.34 520.66 179.38 520.66 179.43 520.64C179.43 520.64 179.46 520.62 179.5 520.59C179.51 520.65 179.52 520.68 179.52 520.69C179.73 521.23 179.93 521.81 180.21 522.54C180.21 522.55 180.25 522.6 180.32 522.7C177.56 521.49 176.03 520.82 175.73 520.69ZM175.18 520.25C175.41 520.37 175.61 520.48 175.82 520.55C176.24 520.73 179.66 522.21 180.09 522.4C179.86 521.78 179.68 521.28 179.5 520.8C179.43 520.82 179.36 520.82 179.27 520.78C178.8 520.59 176.47 519.68 172.27 518.03C172.6 518.93 172.79 519.42 172.82 519.52C172.87 519.54 172.94 519.54 173.03 519.54C173.74 519.54 174.49 519.93 175.18 520.25ZM171.79 517.26L170.47 513.62C170.58 513.71 170.64 513.75 170.65 513.76C173.01 515.34 175.57 516.57 178.26 517.42C178.26 517.42 178.27 517.42 178.29 517.42C178.3 517.43 178.31 517.44 178.31 517.44C178.65 518.29 178.99 519.13 179.36 520.07C179.36 520.08 179.38 520.13 179.41 520.23L171.79 517.26ZM179.15 519.95C178.83 519.09 178.51 518.29 178.19 517.51C175.57 516.66 173.07 515.47 170.77 513.97C170.84 514.18 171.22 515.23 171.91 517.12C176.26 518.82 178.67 519.77 179.15 519.95ZM177.9 516.8C175.15 515.89 172.55 514.56 170.19 512.89C170.19 512.89 170.19 512.88 170.17 512.87L169.23 510.33C169.34 510.39 169.4 510.42 169.42 510.42C171.84 511.66 174.31 512.85 176.8 513.97C176.8 513.97 176.81 513.97 176.82 513.99C176.84 514 176.84 514.01 176.85 514.01C176.96 514.26 177.07 514.54 177.19 514.79C177.2 514.82 177.31 515.06 177.33 515.09C177.55 515.61 177.78 516.14 178.03 516.73C178.04 516.74 178.04 516.78 178.06 516.85C177.96 516.82 177.91 516.8 177.9 516.8ZM177.81 516.59C177.6 516.07 177.37 515.59 177.17 515.11C177.15 515.08 177.04 514.84 177.03 514.81C176.91 514.56 176.82 514.31 176.71 514.08C174.31 513.01 171.89 511.84 169.53 510.65C169.58 510.79 169.84 511.5 170.31 512.78C173.52 514.73 176.02 516 177.81 516.59ZM205.71 507.41C205.73 507.38 205.74 507.36 205.74 507.36C205.83 507.04 205.92 506.7 206.01 506.38C206.01 506.37 206.02 506.33 206.03 506.26C210.75 509.84 213.37 511.83 213.9 512.23C213.9 512.23 213.92 512.23 213.92 512.25C213.92 512.25 213.95 512.27 213.99 512.3C213.97 512.32 213.97 512.34 213.97 512.34C213.83 512.82 213.71 513.33 213.58 513.81C213.57 513.82 213.55 513.89 213.51 514.01L205.71 507.41ZM213.42 513.74C213.53 513.28 213.67 512.82 213.78 512.34C213.78 512.34 213.78 512.34 213.78 512.34C213.01 511.76 206.87 507.1 206.1 506.51C206.03 506.79 205.97 507.09 205.87 507.36C207.38 508.64 212.66 513.1 213.42 513.74ZM176.25 513.21C173.81 512.09 171.38 510.93 169.03 509.71C169.03 509.71 169.02 509.71 169.01 509.69C168.58 508.54 168.34 507.9 168.3 507.77C168.23 507.57 168.14 507.34 168.07 507.11C168.06 507.09 168.04 507.03 168 506.9C170.66 508.71 172.14 509.72 172.43 509.92C172.71 510.1 172.98 510.29 173.26 510.47C173.97 510.95 174.7 511.43 175.38 511.98C175.75 512.27 176.07 512.64 176.34 513.1C176.35 513.11 176.4 513.19 176.48 513.33C176.34 513.26 176.27 513.22 176.25 513.21ZM176.09 512.98C175.86 512.64 175.59 512.37 175.29 512.11C174.63 511.59 173.9 511.09 173.19 510.63C172.91 510.45 172.64 510.26 172.37 510.08C171.96 509.8 168.72 507.59 168.32 507.31C168.37 507.45 168.41 507.61 168.48 507.75C168.52 507.87 168.75 508.49 169.14 509.6C172.21 511.14 174.52 512.27 176.09 512.98Z" id="a4ssHgh5FU"></path><path d="M193.78 540.43C193.49 540.18 193.05 540.62 193.35 540.87C195.47 542.58 197.51 544.41 199.41 546.35C199.68 546.63 200.11 546.19 199.84 545.92C197.94 543.98 195.91 542.13 193.78 540.43Z" id="aatyorJO"></path><path d="M199.61 546.51C199.52 546.51 199.43 546.47 199.36 546.4C197.46 544.46 195.43 542.61 193.3 540.91C193.19 540.82 193.14 540.69 193.19 540.55C193.23 540.39 193.42 540.27 193.58 540.27C193.67 540.27 193.76 540.3 193.83 540.37C195.95 542.06 197.99 543.91 199.89 545.85C200 545.97 200.02 546.1 199.95 546.24C199.91 546.4 199.75 546.51 199.61 546.51C199.61 546.51 199.61 546.51 199.61 546.51ZM193.33 540.62C193.3 540.66 193.3 540.73 193.39 540.8C195.52 542.49 197.55 544.34 199.45 546.29C199.57 546.4 199.75 546.35 199.82 546.19C199.84 546.15 199.86 546.06 199.77 545.97C197.87 544.02 195.84 542.17 193.71 540.48C193.69 540.43 193.62 540.43 193.58 540.43C193.46 540.43 193.37 540.5 193.33 540.62Z" id="iL5GxbC13"></path><path d="M198.83 527.5C198.56 527.22 198.13 527.66 198.4 527.93C200.71 530.22 203.2 532.27 205.87 534.13C206.19 534.35 206.49 533.83 206.17 533.6C203.54 531.77 201.1 529.74 198.83 527.5Z" id="a1SJj74FQg"></path><path d="M206.03 534.26C205.97 534.26 205.9 534.24 205.83 534.19C203.18 532.34 200.66 530.24 198.35 527.98C198.24 527.86 198.22 527.73 198.26 527.59C198.33 527.43 198.47 527.34 198.63 527.34C198.72 527.34 198.81 527.38 198.88 527.45C201.14 529.69 203.61 531.75 206.22 533.55C206.35 533.65 206.42 533.83 206.35 533.99C206.31 534.15 206.17 534.26 206.03 534.26C206.03 534.26 206.03 534.26 206.03 534.26ZM198.4 527.63C198.38 527.68 198.35 527.77 198.45 527.86C200.73 530.13 203.25 532.21 205.9 534.06C206.01 534.15 206.17 534.08 206.22 533.92C206.24 533.87 206.26 533.74 206.13 533.65C203.52 531.82 201.05 529.76 198.77 527.52C198.74 527.5 198.67 527.47 198.63 527.47C198.54 527.47 198.45 527.54 198.4 527.63Z" id="a2H0tai8Ka"></path><path d="M204.8 512.64C204.5 512.39 204.07 512.82 204.37 513.07C206.67 515.02 208.96 516.96 211.27 518.93C211.57 519.15 212 518.74 211.7 518.49C209.39 516.55 207.11 514.61 204.8 512.64Z" id="a6t0yO1ftP"></path><path d="M211.47 519.06C211.38 519.06 211.29 519.04 211.22 518.97C210.53 518.39 205.01 513.71 204.32 513.12C204.21 513.03 204.16 512.89 204.21 512.75C204.25 512.59 204.43 512.48 204.59 512.48C204.69 512.48 204.78 512.5 204.85 512.57C205.54 513.16 211.06 517.84 211.75 518.42C211.86 518.51 211.91 518.65 211.86 518.79C211.79 518.95 211.63 519.06 211.47 519.06C211.47 519.06 211.47 519.06 211.47 519.06ZM204.34 512.8C204.32 512.85 204.32 512.94 204.41 513.01C205.1 513.59 210.62 518.27 211.31 518.86C211.36 518.9 211.41 518.93 211.47 518.93C211.47 518.93 211.47 518.93 211.47 518.93C211.59 518.93 211.68 518.86 211.73 518.77C211.75 518.72 211.75 518.63 211.66 518.56C210.97 517.97 205.44 513.29 204.75 512.71C204.71 512.66 204.64 512.64 204.59 512.64C204.48 512.64 204.39 512.71 204.34 512.8Z" id="a3A0XXuuaD"></path></defs><g><g><g><use xlink:href="#a1vDwkHT1b" opacity="1" fill="#000000" fill-opacity="1"></use><g><use xlink:href="#a1vDwkHT1b" opacity="1" fill-opacity="0" stroke="#000000" stroke-width="1" stroke-opacity="0"></use></g></g><g><use xlink:href="#a4ssHgh5FU" opacity="1" fill="#180f0b" fill-opacity="1"></use><g><use xlink:href="#a4ssHgh5FU" opacity="1" fill-opacity="0" stroke="#000000" stroke-width="1" stroke-opacity="0"></use></g></g><g><use xlink:href="#aatyorJO" opacity="1" fill="#000000" fill-opacity="1"></use><g><use xlink:href="#aatyorJO" opacity="1" fill-opacity="0" stroke="#000000" stroke-width="1" stroke-opacity="0"></use></g></g><g><use xlink:href="#iL5GxbC13" opacity="1" fill="#180f0b" fill-opacity="1"></use><g><use xlink:href="#iL5GxbC13" opacity="1" fill-opacity="0" stroke="#000000" stroke-width="1" stroke-opacity="0"></use></g></g><g><use xlink:href="#a1SJj74FQg" opacity="1" fill="#000000" fill-opacity="1"></use><g><use xlink:href="#a1SJj74FQg" opacity="1" fill-opacity="0" stroke="#000000" stroke-width="1" stroke-opacity="0"></use></g></g><g><use xlink:href="#a2H0tai8Ka" opacity="1" fill="#180f0b" fill-opacity="1"></use><g><use xlink:href="#a2H0tai8Ka" opacity="1" fill-opacity="0" stroke="#000000" stroke-width="1" stroke-opacity="0"></use></g></g><g><use xlink:href="#a6t0yO1ftP" opacity="1" fill="#000000" fill-opacity="1"></use><g><use xlink:href="#a6t0yO1ftP" opacity="1" fill-opacity="0" stroke="#000000" stroke-width="1" stroke-opacity="0"></use></g></g><g><use xlink:href="#a3A0XXuuaD" opacity="1" fill="#180f0b" fill-opacity="1"></use><g><use xlink:href="#a3A0XXuuaD" opacity="1" fill-opacity="0" stroke="#000000" stroke-width="1" stroke-opacity="0"></use></g></g></g></g></svg>