<?xml version="1.0" encoding="UTF-8" standalone="no"?>
<!DOCTYPE svg PUBLIC "-//W3C//DTD SVG 1.1//EN" "http://www.w3.org/Graphics/SVG/1.1/DTD/svg11.dtd">
<svg version="1.1" xmlns="http://www.w3.org/2000/svg" xmlns:xlink="http://www.w3.org/1999/xlink" preserveAspectRatio="xMidYMid meet" viewBox="236.85155809915284 508.54857142857134 86.95952909481963 62.42285714285731" width="86.96" height="62.42"><defs><path d="M316.11 511.06C316.05 511.02 316 510.99 315.93 510.97C315.91 510.81 315.82 510.67 315.66 510.63C315.73 510.42 315.63 510.26 315.5 510.17C315.43 510.01 315.29 509.87 315.06 509.87C310.88 509.74 306.72 509.33 302.58 508.62C302.38 508.57 302.1 508.64 302.01 508.85C300.98 511.15 299.98 513.49 298.97 515.82C295.82 514.29 292.69 512.69 289.58 511.04C289.58 511.02 289.6 510.99 289.6 510.97C289.71 510.65 289.42 510.35 289.12 510.33C284.46 510.01 279.82 509.49 275.2 508.75C274.93 508.71 274.65 508.82 274.58 509.1C272.41 517.12 269.99 525.1 267.31 532.98C265.69 528.18 264.09 523.38 262.47 518.58C262.13 517.53 261.83 516.43 261.33 515.45C260.91 514.63 260.07 514.22 259.29 513.81C256.96 512.55 254.63 511.29 252.3 510.03C252.27 509.94 252.23 509.85 252.21 509.76C252.14 509.55 251.95 509.37 251.73 509.39C247.06 509.53 242.42 509.44 237.78 509.14C237.6 509.12 237.46 509.21 237.39 509.3C237.07 509.3 236.78 509.53 236.91 509.92C241.53 522.33 246.38 534.65 251.45 546.88C252.69 549.85 253.92 552.82 255.18 555.79C255.79 557.26 256.41 558.72 257.05 560.18C257.55 561.33 257.92 563.04 259.09 563.68C259.27 563.79 259.5 563.84 259.73 563.86C259.75 563.93 259.79 564.02 259.89 564.09C261.83 565.74 263.73 567.47 265.78 568.98C267.79 570.45 270.03 570.77 272.48 570.54C273.71 570.42 274.93 570.24 276.16 570.08C276.59 570.03 277.03 570.01 277.42 569.92C277.44 569.94 277.46 569.94 277.46 569.97C277.87 570.35 278.45 569.87 278.31 569.44C278.4 569.35 278.49 569.23 278.58 569.1C279.22 567.98 279.54 566.54 280 565.35C280.34 564.43 280.69 563.52 281.03 562.61C281.14 562.63 281.26 562.56 281.33 562.47C281.44 562.77 281.55 563.04 281.65 563.34C281.71 563.54 281.9 563.73 282.13 563.7C282.33 563.7 282.56 563.68 282.77 563.68C282.79 563.75 282.83 563.84 282.93 563.91C284.39 565.07 285.85 566.24 287.36 567.36C288.09 567.91 288.82 568.46 289.55 569.01C290.24 569.51 290.93 570.13 291.73 570.42C293.28 570.99 295.25 570.61 296.89 570.51C297.44 570.47 298.01 570.45 298.56 570.38C298.72 570.54 298.88 570.7 299.04 570.83C299.31 571.11 299.75 570.67 299.47 570.4C299.43 570.35 299.38 570.33 299.36 570.29C300.3 570.17 301.26 570.03 302.19 569.85C302.38 570.15 302.86 570.26 303.04 569.85C310.97 552.87 317.87 535.41 323.68 517.58C323.7 517.39 323.66 517.19 323.52 517.07C321.14 514.97 318.67 512.96 316.11 511.06ZM298.61 516.73C298.19 517.67 297.81 518.63 297.42 519.57C294.33 517.94 291.43 516 288.75 513.78C288.73 513.76 288.69 513.74 288.66 513.74C288.7 513.62 288.9 513.03 289.26 511.98C293.39 514.13 296.5 515.71 298.61 516.73ZM286.86 536.3C286.45 535.43 286.06 534.56 285.69 533.69C286.61 534.06 287.98 534.9 288.27 535.06C289.1 535.52 289.87 536.05 290.65 536.59C290.47 537.07 290.29 537.55 290.1 538.03C289.12 537.39 288.14 536.73 287.11 536.3C287.02 536.25 286.93 536.27 286.86 536.3ZM289.05 540.73C288.39 539.5 287.77 538.26 287.15 537.01C288.09 537.44 288.98 538.03 289.85 538.61C289.58 539.31 289.33 540.02 289.05 540.73ZM285.37 532.96C284.87 531.75 284.39 530.54 283.93 529.3C286.29 530.97 288.55 532.78 290.72 534.67C291.02 534.93 291.45 534.51 291.15 534.24C288.73 532.14 286.22 530.15 283.59 528.32C283.57 528.23 283.52 528.16 283.5 528.07C283.5 528.05 283.52 528.02 283.52 528C283.56 527.9 283.85 527.12 283.89 527.02C286.22 528.66 288.57 530.29 290.9 531.93C291.22 532.16 291.52 531.63 291.2 531.41C288.82 529.74 286.45 528.09 284.09 526.42C284.32 525.78 284.55 525.17 284.78 524.53C287.61 526.38 290.35 528.37 292.96 530.54C292.25 532.37 291.54 534.19 290.83 536.02C289.71 535.2 288.53 534.49 287.29 533.85C286.86 533.62 286.06 533.07 285.37 532.96ZM285.53 522.4C285.55 522.47 285.62 522.54 285.67 522.58C285.69 522.61 285.71 522.63 285.76 522.65C285.92 522.77 286.06 522.7 286.15 522.58C286.63 522.79 287.27 523.41 287.59 523.61C288.23 524.05 288.87 524.48 289.49 524.91C290.74 525.81 292 526.7 293.21 527.63C293.53 527.86 293.83 527.34 293.51 527.11C292.18 526.1 290.81 525.14 289.46 524.18C288.73 523.66 287.98 523.15 287.25 522.65C286.83 522.38 286.38 521.9 285.87 521.9C285.81 521.9 285.74 521.92 285.69 521.97C285.76 521.79 286.27 520.34 286.33 520.16C286.35 520.16 286.38 520.16 286.4 520.18C286.41 520.18 286.48 520.18 286.49 520.18C286.67 520.21 286.77 520.07 286.79 519.93C287.15 520.5 288.21 520.87 288.75 521.19C289.46 521.6 290.17 522.06 290.86 522.51C292.27 523.45 293.65 524.5 294.95 525.6C294.35 527.04 293.78 528.48 293.21 529.94C290.56 527.77 287.82 525.78 284.98 523.93C285.17 523.43 285.35 522.93 285.53 522.4ZM286.63 519.34C286.63 519.34 286.63 519.34 286.61 519.34C286.67 519.17 287.16 517.79 287.22 517.62C287.27 517.62 287.31 517.6 287.34 517.58C287.34 517.57 287.4 517.54 287.41 517.53C287.43 517.51 287.45 517.51 287.47 517.49C287.68 517.6 287.89 517.78 288.02 517.87C288.46 518.15 288.87 518.45 289.3 518.72C290.15 519.29 290.99 519.89 291.84 520.48C293.19 521.42 294.51 522.4 295.82 523.41C295.61 523.93 295.38 524.46 295.18 524.98C293.42 523.54 291.59 522.22 289.65 521.01C288.69 520.41 287.68 519.75 286.63 519.34ZM288.98 517.78C288.55 517.49 288.05 517.01 287.52 516.87C287.61 516.61 288.34 514.56 288.43 514.31C291.15 516.55 294.08 518.49 297.19 520.14C296.82 521.03 296.43 521.94 296.07 522.83C294.56 521.71 293.05 520.59 291.52 519.52C290.67 518.93 289.83 518.35 288.98 517.78ZM266.81 534.47C266.7 534.79 266.58 535.11 266.47 535.43C264.73 535.06 263.04 534.56 261.37 533.97C261.3 533.94 261.26 533.94 261.21 533.94C260.96 533.35 260.71 532.75 260.46 532.16C262.54 532.85 264.62 533.55 266.7 534.24C266.7 534.24 266.71 534.27 266.72 534.31C266.75 534.38 266.78 534.44 266.81 534.47ZM262.42 536.73C262.13 536.05 261.83 535.36 261.53 534.67C263.09 535.22 264.66 535.68 266.29 536.02C265.69 537.74 265.07 539.47 264.46 541.19C263.89 539.95 263.31 538.7 262.74 537.44C263.57 537.65 264.41 537.85 265.23 538.08C265.6 538.17 265.76 537.58 265.39 537.49C264.41 537.23 263.41 536.98 262.42 536.73ZM260.14 531.45C259.75 530.54 259.38 529.6 258.99 528.69C259.02 528.71 259.06 528.73 259.09 528.73C259.15 528.78 259.2 528.78 259.25 528.78C261.33 529.87 263.5 530.77 265.74 531.47C265.78 531.61 266.02 532.31 266.45 533.55C262.66 532.29 260.56 531.59 260.14 531.45ZM265.51 530.77C263.18 529.99 260.94 529.03 258.79 527.84C258.74 527.82 258.7 527.79 258.65 527.79C258.35 527.06 258.08 526.33 257.78 525.6C260.23 526.4 262.54 527.45 264.75 528.75C264.78 528.75 264.82 528.75 264.85 528.78C264.98 529.17 265.44 530.57 265.51 530.77ZM264.57 527.93C262.4 526.67 260.11 525.67 257.71 524.91C257.65 524.89 257.58 524.89 257.53 524.91C257.26 524.18 256.98 523.45 256.71 522.74C259.06 523.54 261.33 524.57 263.5 525.83C263.61 525.87 263.75 525.85 263.84 525.76C263.99 526.19 264.5 527.71 264.57 527.93ZM263.66 525.21C261.37 523.91 258.95 522.83 256.43 522.01C256.23 521.46 256.02 520.91 255.82 520.37C258.31 521.14 260.69 522.19 262.93 523.5C262.99 523.5 263.04 523.52 263.09 523.52C263.2 523.86 263.6 525.04 263.66 525.21ZM262.81 522.7C260.55 521.42 258.17 520.41 255.7 519.66C255.66 519.63 255.63 519.63 255.59 519.63C255.41 519.11 255.2 518.58 255.02 518.06C257.37 519.13 259.75 520.21 262.1 521.28C262.19 521.33 262.26 521.33 262.33 521.3C262.43 521.58 262.76 522.56 262.81 522.7ZM261.87 519.95C261.9 520.02 262.08 520.55 262.1 520.62C259.66 519.5 257.19 518.4 254.74 517.28C254.74 517.28 254.74 517.28 254.74 517.28C254.47 516.5 254.19 515.7 253.92 514.93C256.34 516.11 258.74 517.3 261.17 518.51C261.26 518.56 261.37 518.54 261.44 518.51C261.58 518.99 261.71 519.5 261.87 519.95ZM260.59 516.18C260.87 516.71 261.05 517.28 261.26 517.85C260.5 517.48 254.47 514.5 253.71 514.13C253.69 514.13 253.69 514.13 253.67 514.1C253.37 513.19 253.07 512.27 252.78 511.36C254.54 512.34 256.32 513.3 258.1 514.26C259.06 514.79 260.07 515.15 260.59 516.18ZM261.17 563.82C261.65 563.79 262.1 563.79 262.58 563.77C265.17 565.51 267.95 567.15 270.03 569.49C268.59 569.33 267.29 568.78 266.03 567.86C264.34 566.63 262.77 565.19 261.17 563.82ZM270.56 569.55C270.63 569.44 270.65 569.3 270.54 569.17C268.62 566.97 266.08 565.37 263.63 563.75C264.3 563.73 264.96 563.7 265.62 563.7C265.65 563.75 265.69 563.77 265.74 563.79C268.69 565.44 271.5 567.27 274.22 569.28C273.51 569.37 272.82 569.46 272.11 569.53C271.57 569.58 271.06 569.58 270.56 569.55ZM274.95 569.19C274.93 569.12 274.9 569.05 274.83 569.01C272.25 567.06 269.53 565.28 266.72 563.68C267.13 563.66 267.57 563.66 267.98 563.63C268.71 563.61 269.26 563.36 269.69 562.93C269.6 563.13 269.62 563.41 269.87 563.59C272.23 565.26 274.45 567.09 276.55 569.05C276.16 569.07 275.77 569.07 275.45 569.12C275.29 569.14 275.13 569.17 274.95 569.19ZM277.65 568.69C275.38 566.51 272.96 564.53 270.4 562.7C270.22 562.58 270.06 562.58 269.92 562.67C270.03 562.51 270.15 562.35 270.24 562.17C270.45 561.76 270.63 561.35 270.81 560.91C273.51 562.58 276.07 564.46 278.45 566.56C278.45 566.56 278.47 566.58 278.47 566.58C278.38 566.81 278.29 567.04 278.19 567.29C278.08 567.61 277.92 568.32 277.65 568.69ZM271.02 560.32C271.36 559.47 271.7 558.63 272.05 557.81C274.51 559.82 276.98 561.85 279.47 563.86C279.42 564 279.15 564.7 278.67 565.97C275.37 563.31 272.82 561.43 271.02 560.32ZM280.41 561.33C278.15 559.41 275.89 557.49 273.62 555.54C273.33 555.29 272.89 555.73 273.19 555.98C275.52 557.97 277.85 559.93 280.18 561.92C280.02 562.38 279.84 562.81 279.68 563.27C277.21 561.26 274.74 559.25 272.27 557.23C272.8 555.98 273.33 554.72 273.85 553.46C275.77 555.27 277.76 557.01 279.84 558.63C280.11 559.34 280.39 560.05 280.64 560.75C280.64 560.78 280.59 560.85 280.57 560.91C280.53 561.05 280.48 561.19 280.41 561.33ZM279.43 557.51C277.6 556.02 275.82 554.47 274.1 552.85C274.31 552.37 274.49 551.89 274.7 551.43C275.93 552.09 277.03 552.89 278.03 553.83C278.49 555.06 278.97 556.27 279.43 557.51ZM275.98 548.41C276.5 549.83 277.05 551.22 277.58 552.64C276.78 551.98 275.91 551.38 274.95 550.86C274.97 550.86 274.97 550.86 274.95 550.86C275.29 550.03 275.63 549.23 275.98 548.41ZM276.55 547.04C276.34 546.49 275.52 546.65 275.54 547.13C275.47 547.18 275.41 547.27 275.36 547.36C274.08 550.42 272.78 553.49 271.5 556.55C271.38 556.46 271.25 556.34 271.13 556.25C270.83 556 270.4 556.43 270.7 556.69C270.73 556.72 270.92 556.87 271.25 557.14C270.55 558.8 270.16 559.72 270.08 559.91C269.94 559.98 269.87 560.14 269.92 560.3C269.89 560.38 269.61 561.06 269.58 561.14C269.17 562.13 268.82 562.61 267.68 562.65C266.74 562.7 265.83 562.7 264.89 562.74C263.34 562.79 261.78 562.86 260.23 562.88C259.15 562.9 258.93 561.94 258.58 561.14C258.22 560.3 257.85 559.45 257.49 558.58C256.14 555.45 254.83 552.32 253.51 549.19C248.41 536.96 243.54 524.66 238.88 512.25C238.63 511.57 238.35 510.86 238.1 510.17C242.54 510.45 246.97 510.51 251.41 510.4C251.41 510.4 251.41 510.4 251.41 510.42C251.41 510.51 251.43 510.58 251.47 510.65C254.95 521.62 259.15 532.37 264.07 542.79C264.27 543.22 264.87 543.04 264.98 542.67C265.97 540 266.9 537.33 267.84 534.65C268.02 534.61 268.11 534.35 268 534.17C270.74 526.15 273.23 518.01 275.45 509.83C279.77 510.49 284.09 510.99 288.43 511.31C286.97 515.38 285.53 519.45 284.07 523.52C283.91 523.59 283.82 523.79 283.91 523.95C283.47 525.14 283.06 526.33 282.63 527.52C282.45 527.61 282.31 527.82 282.4 528.07C283.02 529.85 283.68 531.59 284.39 533.33C284.37 533.39 284.39 533.49 284.41 533.55C284.42 533.57 284.45 533.66 284.46 533.67C284.48 533.71 284.53 533.76 284.57 533.78C285.78 536.69 287.15 539.5 288.69 542.26C288.91 542.67 289.46 542.54 289.6 542.15C290.22 540.48 290.83 538.81 291.47 537.14C291.61 537.07 291.7 536.89 291.63 536.73C293.26 532.48 294.9 528.25 296.64 524.05C296.85 524.02 296.98 523.75 296.85 523.54C297.71 521.42 298.61 519.29 299.5 517.19C299.93 517.19 300.25 516.59 299.86 516.32C300.8 514.1 301.76 511.91 302.74 509.71C306.63 510.35 310.56 510.77 314.49 510.93C311.34 519.06 308.18 527.2 305.05 535.36C304.96 535.43 304.91 535.54 304.94 535.66C304.11 537.76 303.31 539.86 302.49 541.97C302.08 543.02 301.69 544.05 301.28 545.1C301.03 545.07 300.87 545.44 301.07 545.65C300.55 546.99 300.02 548.34 299.52 549.67C299.29 549.69 299.11 549.99 299.34 550.17C299.26 550.37 298.66 551.92 298.58 552.11C298.51 552.18 298.47 552.3 298.47 552.39C298.26 552.92 296.62 557.18 296.41 557.71C295.93 558.97 295.45 560.21 294.97 561.46C294.63 562.33 293.78 562.22 293.01 562.26C292.21 562.31 291.41 562.33 290.58 562.38C287.89 562.4 285.19 562.51 282.49 562.65C280.5 557.44 278.54 552.25 276.55 547.04ZM290.38 568.32C289.65 567.79 288.89 567.25 288.16 566.7C286.81 565.69 285.49 564.64 284.16 563.59C284.71 563.57 285.26 563.54 285.81 563.52C285.81 563.61 285.85 563.7 285.97 563.75C289.14 565.26 292.02 567.25 294.54 569.69C293.78 569.69 293.01 569.67 292.3 569.51C291.61 569.35 290.95 568.71 290.38 568.32ZM295.38 569.62C292.87 567.11 289.99 565.05 286.83 563.47C288.05 563.43 289.23 563.36 290.45 563.31C290.45 563.36 290.45 563.41 290.45 563.45C290.47 563.5 290.47 563.54 290.49 563.59C290.58 563.98 291.18 563.82 291.09 563.43C291.27 564.16 292.43 564.8 293.01 565.28C293.67 565.85 294.33 566.42 294.97 566.99C295.86 567.79 296.75 568.59 297.62 569.42C297.49 569.42 297.37 569.42 297.28 569.44C296.69 569.49 296.05 569.55 295.38 569.62ZM303.68 565.44C301.33 563.89 299.11 562.17 297.01 560.3C296.71 560.05 296.27 560.46 296.57 560.73C298.72 562.63 300.98 564.39 303.38 565.97C303.5 566.03 303.61 566.03 303.68 565.97C303.25 566.9 302.83 567.82 302.4 568.75C302.4 568.75 302.4 568.75 302.4 568.75C301.07 569.03 299.73 569.21 298.4 569.35C297.05 568.07 295.66 566.79 294.26 565.58C293.42 564.85 292.55 564.11 291.68 563.41C291.61 563.36 291.57 563.31 291.5 563.25C292.43 563.22 293.46 563.27 294.38 563.09C296.43 565.35 298.81 567.27 301.46 568.8C302.03 569.12 302.54 568.25 301.97 567.93C299.52 566.49 297.3 564.73 295.36 562.65C295.82 562.19 296.02 561.44 296.25 560.87C296.69 559.75 297.12 558.61 297.55 557.49C299.82 559.66 302.24 561.67 304.8 563.52C304.48 564.23 304.16 564.94 303.82 565.67C303.82 565.58 303.77 565.51 303.68 565.44ZM297.78 556.87C297.78 556.87 297.78 556.87 297.76 556.87C297.82 556.71 298.32 555.41 298.38 555.25C300.8 557.12 303.18 559.06 305.49 561.07C305.6 561.17 305.71 561.17 305.83 561.12C305.6 561.76 305.33 562.35 305.05 562.95C302.49 561.1 300.07 559.09 297.78 556.87ZM305.97 560.69C303.59 558.63 301.14 556.62 298.65 554.7C298.86 554.15 299.09 553.6 299.29 553.05C301.85 555.04 304.32 557.14 306.67 559.38C306.45 559.82 306.24 560.3 306.03 560.78C306.01 560.73 305.99 560.71 305.97 560.69ZM299.5 552.43C299.73 551.86 299.93 551.29 300.16 550.72C302.38 552.48 304.55 554.24 306.72 556.07C307.02 556.32 307.45 555.89 307.15 555.63C304.94 553.76 302.67 551.93 300.41 550.13C300.66 549.49 300.91 548.85 301.17 548.21C303.77 550.24 306.29 552.41 308.69 554.67C308.09 556.02 307.5 557.39 306.9 558.74C304.55 556.5 302.08 554.4 299.5 552.43ZM301.35 547.61C301.53 547.11 301.74 546.63 301.92 546.13C304.43 547.93 306.86 549.87 309.19 551.93C309.49 552.18 309.92 551.77 309.62 551.5C307.25 549.37 304.75 547.38 302.15 545.53C302.35 545.03 302.54 544.5 302.74 544C302.75 544 302.76 543.96 302.77 543.95C302.81 544 302.86 544.02 302.9 544.07C302.9 544.07 302.93 544.07 302.93 544.09C305.42 546.19 307.89 548.27 310.38 550.38C310.4 550.4 310.42 550.42 310.45 550.42C309.94 551.63 309.44 552.87 308.91 554.08C306.49 551.82 303.98 549.67 301.35 547.61ZM303.02 543.36C303.09 543.17 303.65 541.69 303.73 541.51C303.75 541.51 303.79 541.53 303.82 541.51C303.84 541.51 303.86 541.51 303.89 541.51C303.91 541.51 303.95 541.49 303.98 541.49C306.47 543.63 308.94 545.87 311.43 548.05C311.18 548.64 310.93 549.26 310.7 549.85C308.14 547.68 305.58 545.53 303.02 543.36ZM304.11 540.82C304.09 540.8 304.05 540.78 304 540.75C304.05 540.62 304.47 539.54 304.53 539.41C307.04 540.96 309.37 542.74 311.57 544.73C311.86 545.01 312.27 544.57 312 544.3C309.76 542.26 307.34 540.43 304.75 538.83C304.85 538.58 305.64 536.55 305.74 536.3C308.32 538.49 310.9 540.71 313.46 542.9C312.87 544.43 312.27 545.94 311.66 547.45C309.14 545.26 306.65 542.99 304.11 540.82ZM305.99 535.7C306.07 535.5 306.69 533.91 306.77 533.71C309.51 535.75 312 538.08 314.24 540.66C314.26 540.71 314.31 540.73 314.33 540.73C314.1 541.26 313.92 541.78 313.71 542.31C311.13 540.11 308.55 537.9 305.99 535.7ZM307.02 533.17C306.99 533.17 306.99 533.14 306.97 533.14C307.05 532.93 307.71 531.23 307.79 531.02C307.82 531.04 307.82 531.04 307.84 531.06C310.54 533.17 313.05 535.5 315.38 537.99C315.11 538.7 314.83 539.41 314.56 540.14C312.3 537.55 309.78 535.22 307.02 533.17ZM309.44 528.32C309.12 528.09 308.82 528.62 309.14 528.85C311.73 530.74 314.17 532.78 316.53 534.95C316.23 535.75 315.93 536.55 315.63 537.35C313.35 534.93 310.9 532.69 308.27 530.63C308.18 530.56 308.07 530.54 307.98 530.58C308.16 530.1 309.09 527.71 310.77 523.41C314.78 527.23 317.02 529.36 317.46 529.78C317.74 530.06 318.17 529.62 317.9 529.35C315.59 527.15 313.3 524.98 310.99 522.79C311.07 522.59 311.67 521.02 311.75 520.82C313.99 523.45 316.39 525.92 318.97 528.21C318.24 530.24 317.51 532.3 316.75 534.33C314.42 532.18 312 530.19 309.44 528.32ZM312.11 520.32C312.07 520.27 312.02 520.23 311.95 520.23C312.03 520.04 312.59 518.56 312.66 518.38C315.11 520.71 317.42 523.15 319.61 525.74C319.66 525.81 319.73 525.83 319.79 525.83C319.59 526.42 319.38 526.99 319.18 527.59C316.66 525.33 314.31 522.9 312.11 520.32ZM312.91 517.76C312.99 517.56 313.61 515.93 313.69 515.73C316.16 517.97 318.54 520.3 320.87 522.7C320.57 523.57 320.3 524.41 320 525.26C317.78 522.63 315.43 520.14 312.91 517.76ZM313.9 515.2C313.97 515.01 314.56 513.51 314.63 513.33C317.07 515.45 319.45 517.67 321.76 519.98C321.76 519.98 321.78 520 321.78 520C321.55 520.69 321.33 521.37 321.1 522.06C318.83 519.73 316.5 517.49 314.1 515.29C314.03 515.25 313.97 515.22 313.9 515.2ZM314.86 512.73C314.9 512.61 315.27 511.68 315.31 511.57C315.34 511.57 315.38 511.59 315.41 511.59C315.43 511.73 315.5 511.84 315.61 511.93C318.01 513.71 320.32 515.61 322.58 517.58C322.38 518.17 322.19 518.77 321.99 519.36C319.68 517.07 317.3 514.86 314.86 512.73Z" id="b796D5Lgp"></path><path d="M298.99 570.86C298.88 570.77 298.79 570.65 298.67 570.56C298.66 570.55 298.55 570.44 298.54 570.42C297.99 570.47 297.44 570.51 296.91 570.56C296.57 570.58 296.21 570.61 295.84 570.65C295.18 570.72 294.49 570.79 293.83 570.79C293.01 570.79 292.32 570.67 291.75 570.47C291.11 570.24 290.54 569.81 289.99 569.37C289.83 569.26 289.69 569.14 289.53 569.03C288.66 568.39 287.95 567.86 287.34 567.38C285.83 566.24 284.34 565.07 282.9 563.93C282.83 563.86 282.79 563.82 282.74 563.73C282.68 563.73 282.19 563.75 282.13 563.75C281.9 563.75 281.69 563.59 281.6 563.34C281.57 563.26 281.33 562.66 281.3 562.58C281.23 562.63 281.17 562.65 281.1 562.65C281 562.92 280.19 565.06 280.09 565.33C279.95 565.71 279.82 566.1 279.68 566.54C279.41 567.43 279.11 568.32 278.67 569.1C278.61 569.21 278.51 569.33 278.42 569.44C278.47 569.6 278.42 569.76 278.33 569.9C278.22 570.06 278.03 570.17 277.85 570.17C277.71 570.17 277.58 570.1 277.46 570.01C277.46 570.01 277.44 569.99 277.44 569.99C277.19 570.03 276.91 570.08 276.64 570.1C276.5 570.13 276.37 570.13 276.23 570.15C275.89 570.19 275.54 570.24 275.2 570.29C274.33 570.4 273.44 570.54 272.55 570.61C272.09 570.65 271.63 570.67 271.22 570.67C269.1 570.67 267.34 570.15 265.81 569.03C264.3 567.93 262.88 566.7 261.49 565.51C260.96 565.05 260.43 564.59 259.89 564.14C259.82 564.07 259.75 564 259.73 563.93C259.47 563.91 259.27 563.84 259.11 563.75C258.17 563.22 257.74 562.06 257.35 561.01C257.23 560.71 257.14 560.46 257.03 560.21C256.41 558.74 255.77 557.28 255.15 555.82C253.83 552.69 252.59 549.76 251.43 546.9C246.38 534.72 241.51 522.29 236.89 509.94C236.82 509.78 236.85 509.6 236.94 509.46C237.03 509.33 237.21 509.23 237.42 509.21C237.49 509.12 237.62 509.03 237.85 509.05C241.05 509.26 244.32 509.35 247.54 509.35C248.96 509.35 250.4 509.33 251.79 509.28C251.79 509.28 251.79 509.28 251.79 509.28C252.05 509.28 252.27 509.46 252.37 509.71C252.37 509.73 252.39 509.81 252.43 509.97C256.69 512.26 259.05 513.53 259.52 513.78C260.27 514.19 261.05 514.61 261.46 515.41C261.85 516.16 262.13 517.01 262.38 517.81C262.47 518.06 262.54 518.31 262.63 518.56C263.11 519.98 266.93 531.33 267.41 532.75C270.03 524.96 272.46 517.01 274.58 509.1C274.65 508.8 274.95 508.64 275.29 508.69C279.86 509.42 284.55 509.94 289.21 510.26C289.42 510.29 289.6 510.4 289.71 510.56C289.81 510.7 289.83 510.86 289.76 511.02C289.76 511.02 289.76 511.02 289.76 511.02C292.75 512.62 295.86 514.22 299.02 515.75C300.07 513.28 301.05 511.04 302.01 508.85C302.08 508.66 302.29 508.55 302.54 508.55C302.58 508.55 302.63 508.55 302.67 508.57C306.77 509.28 310.95 509.69 315.13 509.83C315.36 509.83 315.54 509.97 315.63 510.15C315.79 510.26 315.86 510.45 315.82 510.63C315.93 510.7 316.02 510.81 316.07 510.95C316.11 510.97 316.18 510.99 316.23 511.04C318.79 512.94 321.28 514.97 323.63 517.05C323.79 517.19 323.84 517.44 323.79 517.62C318.01 535.38 311.06 552.96 303.15 569.9C303.06 570.08 302.9 570.19 302.7 570.19C302.7 570.19 302.7 570.19 302.7 570.19C302.51 570.19 302.33 570.1 302.19 569.94C301.35 570.1 300.5 570.24 299.57 570.35C299.57 570.35 299.57 570.35 299.57 570.35C299.68 570.47 299.7 570.61 299.66 570.74C299.54 570.86 299.41 570.97 299.25 570.97C299.15 570.97 299.06 570.93 298.99 570.86ZM298.77 570.45C298.88 570.54 298.97 570.65 299.09 570.74C299.2 570.86 299.41 570.79 299.45 570.65C299.47 570.61 299.5 570.51 299.41 570.42C299.39 570.41 299.31 570.33 299.18 570.19C299.27 570.18 299.33 570.17 299.34 570.17C300.34 570.06 301.26 569.92 302.15 569.74C302.15 569.74 302.17 569.74 302.19 569.74C302.21 569.76 302.22 569.78 302.22 569.78C302.31 569.92 302.47 570.01 302.61 570.01C302.7 570.01 302.83 569.97 302.93 569.78C310.83 552.85 317.78 535.27 323.57 517.53C323.61 517.39 323.57 517.21 323.45 517.12C321.1 515.04 318.63 513.03 316.07 511.13C316.02 511.09 315.98 511.06 315.91 511.06C315.91 511.06 315.89 511.06 315.86 511.06C315.86 511.04 315.86 511.02 315.86 511.02C315.84 510.88 315.75 510.77 315.63 510.72C315.63 510.72 315.61 510.71 315.57 510.7C315.58 510.66 315.59 510.63 315.59 510.63C315.66 510.42 315.54 510.29 315.45 510.24C315.45 510.24 315.44 510.23 315.43 510.22C315.43 510.2 315.43 510.2 315.43 510.19C315.38 510.1 315.29 509.94 315.06 509.94C310.88 509.81 306.67 509.39 302.58 508.69C302.54 508.69 302.51 508.69 302.47 508.69C302.38 508.69 302.17 508.71 302.08 508.89C301.1 511.09 300.11 513.37 299.04 515.86C299.04 515.87 299.03 515.89 299.02 515.93C298.98 515.9 298.95 515.89 298.95 515.89C295.75 514.33 292.59 512.73 289.55 511.09C289.55 511.08 289.53 511.08 289.49 511.06C289.51 510.99 289.53 510.96 289.53 510.95C289.58 510.81 289.53 510.7 289.49 510.63C289.39 510.51 289.26 510.42 289.1 510.4C284.43 510.08 279.75 509.55 275.18 508.82C275.15 508.82 275.11 508.82 275.09 508.82C274.86 508.82 274.7 508.94 274.65 509.12C272.5 517.1 270.06 525.14 267.38 533.01C267.38 533.02 267.36 533.09 267.31 533.21C264.37 524.43 262.73 519.56 262.4 518.58C262.31 518.33 262.24 518.08 262.15 517.83C261.9 517.03 261.62 516.21 261.26 515.45C260.87 514.7 260.11 514.29 259.38 513.9C258.91 513.64 256.53 512.36 252.25 510.06C252.2 509.88 252.17 509.78 252.16 509.76C252.09 509.58 251.93 509.44 251.75 509.44C250.33 509.49 248.89 509.51 247.47 509.51C244.25 509.51 240.98 509.39 237.78 509.21C237.65 509.21 237.53 509.26 237.46 509.35C237.46 509.35 237.45 509.36 237.44 509.37C237.41 509.37 237.4 509.37 237.39 509.37C237.39 509.37 237.39 509.37 237.39 509.37C237.23 509.37 237.07 509.44 237.01 509.55C236.94 509.65 236.94 509.76 236.98 509.87C241.58 522.22 246.47 534.65 251.52 546.83C252.71 549.69 253.92 552.62 255.25 555.75C255.86 557.21 256.48 558.67 257.12 560.14C257.23 560.39 257.33 560.66 257.44 560.96C257.81 561.97 258.24 563.13 259.13 563.61C259.29 563.7 259.5 563.75 259.75 563.77C259.75 563.77 259.77 563.77 259.79 563.77C259.81 563.8 259.82 563.81 259.82 563.82C259.84 563.89 259.89 563.95 259.95 564C260.48 564.46 261.03 564.91 261.55 565.37C262.95 566.56 264.37 567.79 265.87 568.89C267.38 569.97 269.12 570.51 271.2 570.51C271.61 570.51 272.07 570.49 272.53 570.45C273.39 570.38 274.29 570.24 275.15 570.13C275.5 570.08 275.84 570.03 276.18 569.99C276.32 569.97 276.46 569.97 276.59 569.94C276.89 569.92 277.17 569.87 277.42 569.83C277.42 569.83 277.44 569.83 277.46 569.83C277.52 569.87 277.55 569.89 277.55 569.9C277.76 570.08 278.06 570.03 278.22 569.83C278.31 569.71 278.33 569.58 278.29 569.46C278.28 569.46 278.28 569.44 278.26 569.42C278.28 569.4 278.28 569.4 278.29 569.39C278.38 569.3 278.47 569.19 278.54 569.05C278.97 568.3 279.27 567.41 279.54 566.54C279.68 566.1 279.82 565.71 279.95 565.33C280.02 565.14 280.37 564.21 281.01 562.54C281.05 562.54 281.07 562.54 281.07 562.54C281.17 562.54 281.26 562.51 281.3 562.42C281.31 562.42 281.34 562.38 281.39 562.31C281.63 562.9 281.76 563.23 281.78 563.29C281.81 563.36 281.92 563.61 282.17 563.61C282.22 563.61 282.45 563.6 282.88 563.59C282.89 563.62 282.9 563.63 282.9 563.63C282.93 563.7 282.97 563.77 283.04 563.82C284.48 564.98 285.97 566.15 287.47 567.27C288.11 567.75 288.8 568.27 289.67 568.89C289.81 569.01 289.97 569.12 290.13 569.23C290.67 569.65 291.22 570.08 291.84 570.31C292.39 570.51 293.07 570.61 293.87 570.61C294.54 570.61 295.22 570.54 295.89 570.47C296.27 570.42 296.62 570.4 296.98 570.38C297.53 570.35 298.08 570.31 298.65 570.24C298.65 570.24 298.62 570.25 298.58 570.26C298.69 570.37 298.75 570.43 298.77 570.45ZM292.3 569.6C291.75 569.46 291.2 569.05 290.74 568.69C290.61 568.57 290.47 568.48 290.35 568.39C289.69 567.91 289.01 567.41 288.14 566.77C286.88 565.83 285.58 564.8 284.14 563.66C284.13 563.65 284.07 563.61 283.98 563.54L285.92 563.45C285.92 563.49 285.92 563.52 285.92 563.52C285.92 563.59 285.97 563.63 286.03 563.68C289.21 565.19 292.11 567.2 294.63 569.62C294.64 569.63 294.68 569.67 294.77 569.74C294.66 569.74 294.6 569.74 294.58 569.74C294.35 569.74 294.15 569.76 293.94 569.76C293.3 569.76 292.78 569.71 292.3 569.6ZM288.23 566.61C289.07 567.25 289.78 567.77 290.42 568.23C290.56 568.32 290.67 568.43 290.81 568.53C291.27 568.89 291.79 569.28 292.32 569.42C292.89 569.55 293.55 569.6 294.38 569.58C291.91 567.2 289.07 565.26 285.94 563.77C285.85 563.73 285.78 563.66 285.76 563.57C285.67 563.57 285.21 563.59 284.39 563.63C286.14 565.02 287.42 566.01 288.23 566.61ZM295.31 569.67C292.8 567.15 289.94 565.1 286.77 563.54C286.75 563.53 286.67 563.49 286.51 563.41L290.51 563.22C290.5 563.28 290.49 563.31 290.49 563.31C290.49 563.36 290.49 563.38 290.49 563.43C290.5 563.44 290.53 563.55 290.54 563.57C290.58 563.7 290.7 563.73 290.74 563.73C290.81 563.73 290.9 563.68 290.95 563.63C290.99 563.59 290.99 563.52 290.97 563.45C290.99 563.45 291.09 563.41 291.11 563.41C291.25 563.93 291.93 564.41 292.48 564.82C292.69 564.96 292.87 565.1 293.01 565.21C293.6 565.71 294.22 566.26 294.97 566.93C295.82 567.66 296.66 568.46 297.62 569.35C297.63 569.36 297.67 569.39 297.74 569.46C297.45 569.49 297.29 569.51 297.26 569.51C296.91 569.53 296.57 569.58 296.18 569.6C295.91 569.62 295.63 569.65 295.36 569.67C295.36 569.67 295.35 569.68 295.34 569.69C295.32 569.68 295.32 569.67 295.31 569.67ZM295.41 569.53C295.68 569.51 295.93 569.49 296.21 569.46C296.57 569.42 296.94 569.39 297.28 569.37C297.29 569.37 297.4 569.37 297.42 569.37C296.53 568.53 295.7 567.77 294.9 567.06C294.15 566.38 293.51 565.85 292.94 565.35C292.8 565.23 292.62 565.1 292.43 564.96C291.95 564.62 291.36 564.18 291.11 563.73C291.11 563.73 291.11 563.75 291.09 563.75C291.02 563.84 290.88 563.91 290.77 563.91C290.61 563.91 290.47 563.79 290.42 563.63C290.42 563.62 290.38 563.51 290.38 563.5C290.38 563.47 290.38 563.45 290.38 563.41C290.16 563.41 289.07 563.45 287.11 563.52C291.01 565.9 293.78 567.9 295.41 569.53ZM270.56 569.62C270.55 569.62 270.51 569.62 270.42 569.62C270.46 569.55 270.49 569.52 270.49 569.51C270.51 569.46 270.58 569.35 270.47 569.21C268.66 567.18 266.33 565.62 264.05 564.14C264 564.11 263.77 563.95 263.36 563.68C263.91 563.67 264.21 563.66 264.27 563.66C264.71 563.63 265.17 563.63 265.6 563.61C265.6 563.61 265.62 563.61 265.65 563.61C265.66 563.64 265.67 563.65 265.67 563.66C265.69 563.68 265.71 563.7 265.76 563.73C268.69 565.35 271.54 567.2 274.24 569.21C274.25 569.22 274.3 569.26 274.4 569.33C274.29 569.34 274.23 569.35 274.22 569.35C273.55 569.44 272.85 569.53 272.14 569.58C271.79 569.62 271.5 569.65 271.18 569.65C270.97 569.65 270.77 569.65 270.56 569.62ZM272.11 569.46C272.75 569.39 273.39 569.33 274.01 569.26C271.36 567.29 268.57 565.49 265.69 563.89C265.65 563.86 265.62 563.84 265.58 563.79C265.14 563.82 264.71 563.82 264.3 563.84C264.27 563.84 264.12 563.84 263.86 563.84C264.03 563.95 264.12 564.01 264.14 564.02C266.42 565.53 268.78 567.06 270.58 569.12C270.7 569.21 270.72 569.35 270.67 569.49C271.13 569.51 271.61 569.51 272.11 569.46ZM270.01 569.58C268.57 569.39 267.27 568.87 265.99 567.93C264.66 566.97 263.41 565.87 262.17 564.8C261.83 564.5 261.46 564.18 261.12 563.89C261.11 563.88 261.07 563.83 260.98 563.75C261.11 563.75 261.17 563.75 261.19 563.75C261.53 563.75 261.87 563.73 262.22 563.73C262.24 563.72 262.37 563.72 262.61 563.7C262.62 563.72 262.63 563.72 262.63 563.73C263.02 564 263.43 564.25 263.82 564.5C266.03 565.97 268.32 567.45 270.08 569.44C270.09 569.45 270.13 569.5 270.22 569.6C270.09 569.59 270.03 569.58 270.01 569.58ZM262.26 564.69C263.47 565.76 264.75 566.86 266.06 567.82C267.25 568.69 268.48 569.21 269.81 569.39C268.07 567.5 265.85 566.06 263.7 564.64C263.31 564.39 262.93 564.11 262.54 563.86C262.5 563.86 262.23 563.86 262.19 563.86C261.92 563.89 261.65 563.89 261.37 563.91C261.67 564.16 261.97 564.43 262.26 564.69ZM298.33 569.39C296.96 568.09 295.57 566.83 294.19 565.62C293.44 564.96 292.59 564.25 291.63 563.45C291.61 563.43 291.5 563.34 291.29 563.18C291.41 563.18 291.48 563.18 291.5 563.18C291.68 563.18 291.86 563.18 292.05 563.18C292.82 563.18 293.62 563.18 294.35 563.02C294.36 563.02 294.37 563.02 294.4 563.02C294.41 563.03 294.42 563.04 294.42 563.04C296.48 565.28 298.86 567.2 301.49 568.75C301.55 568.8 301.62 568.82 301.69 568.82C301.9 568.82 302.06 568.64 302.1 568.48C302.15 568.3 302.08 568.11 301.92 568.02C299.47 566.61 297.26 564.82 295.29 562.74C295.29 562.74 295.27 562.72 295.25 562.7C295.27 562.67 295.29 562.65 295.29 562.65C295.66 562.31 295.86 561.74 296.02 561.26C296.07 561.14 296.11 561.03 296.16 560.91C296.25 560.68 296.7 559.52 297.51 557.42C297.56 557.46 297.59 557.48 297.6 557.49C299.86 559.66 302.29 561.67 304.85 563.5C304.85 563.5 304.86 563.52 304.89 563.54C304.84 563.67 304.81 563.73 304.8 563.75C304.5 564.41 304.21 565.07 303.91 565.74C303.9 565.75 303.86 565.84 303.79 565.99L303.79 565.99C303.78 566.02 303.77 566.03 303.77 566.03C303.34 566.97 302.93 567.89 302.49 568.82C302.49 568.83 302.48 568.84 302.47 568.87C302.44 568.87 302.43 568.87 302.42 568.87C301.21 569.12 299.89 569.33 298.4 569.46C298.4 569.46 298.38 569.44 298.35 569.42C298.34 569.4 298.33 569.4 298.33 569.39ZM291.73 563.34C292.71 564.14 293.53 564.85 294.31 565.51C295.68 566.7 297.07 567.98 298.42 569.26C299.5 569.17 300.5 569.03 301.42 568.87C301.42 568.87 301.42 568.87 301.42 568.87C298.79 567.34 296.41 565.42 294.35 563.18C293.62 563.31 292.82 563.34 292.05 563.34C291.93 563.31 291.82 563.31 291.7 563.31C291.71 563.32 291.72 563.33 291.73 563.34ZM301.99 567.86C302.22 568 302.31 568.23 302.24 568.5C302.22 568.59 302.17 568.69 302.1 568.75C302.17 568.73 302.24 568.73 302.33 568.71C302.74 567.84 303.13 566.97 303.52 566.13C303.45 566.13 303.38 566.1 303.31 566.06C300.94 564.48 298.65 562.72 296.5 560.82C296.43 560.78 296.41 560.71 296.39 560.64C296.38 560.67 296.29 560.91 296.27 560.94C296.23 561.05 296.18 561.17 296.16 561.28C296 561.71 295.82 562.26 295.45 562.65C297.39 564.71 299.59 566.45 301.99 567.86ZM296.59 560.46C296.57 560.5 296.57 560.59 296.66 560.66C298.79 562.56 301.07 564.32 303.45 565.9C303.52 565.94 303.61 565.94 303.66 565.9C303.66 565.89 303.7 565.86 303.77 565.81C303.76 565.71 303.75 565.66 303.75 565.65C303.75 565.58 303.7 565.53 303.66 565.49C301.33 563.93 299.06 562.19 296.96 560.34C296.91 560.32 296.87 560.3 296.82 560.3C296.73 560.3 296.62 560.37 296.59 560.46ZM297.07 560.23C299.15 562.08 301.42 563.82 303.75 565.37C303.79 565.39 303.82 565.42 303.84 565.46C304.11 564.85 304.39 564.25 304.66 563.63C304.67 563.63 304.7 563.55 304.71 563.54C302.19 561.74 299.79 559.75 297.58 557.62C297.48 557.88 296.67 559.97 296.57 560.23C296.64 560.18 296.73 560.14 296.82 560.14C296.91 560.14 297.01 560.18 297.07 560.23ZM274.86 569.21C274.83 569.14 274.81 569.1 274.77 569.07C272.21 567.15 269.49 565.35 266.67 563.75C266.66 563.74 266.58 563.69 266.45 563.61C266.8 563.6 267 563.59 267.04 563.59C267.36 563.59 267.66 563.57 267.98 563.57C268.69 563.54 269.23 563.31 269.65 562.88C269.65 562.87 269.69 562.83 269.76 562.77C269.81 562.68 269.85 562.64 269.85 562.63C269.97 562.47 270.08 562.31 270.15 562.13C270.33 561.76 270.51 561.37 270.72 560.89C270.72 560.89 270.74 560.85 270.77 560.8C270.81 560.83 270.83 560.84 270.83 560.85C273.55 562.51 276.11 564.41 278.49 566.49C278.5 566.49 278.52 566.51 278.56 566.54C278.38 566.99 278.28 567.24 278.26 567.29C278.24 567.38 278.19 567.5 278.17 567.61C278.06 567.98 277.92 568.43 277.71 568.71C277.71 568.71 277.7 568.74 277.67 568.78C277.63 568.75 277.6 568.73 277.6 568.73C275.34 566.58 272.91 564.57 270.35 562.77C270.22 562.67 270.08 562.67 269.97 562.74C269.96 562.75 269.92 562.77 269.85 562.81C269.81 562.89 269.79 562.94 269.78 562.95C269.71 563.11 269.71 563.36 269.92 563.52C272.25 565.17 274.49 567.02 276.62 568.98C276.62 568.99 276.66 569.03 276.73 569.1C276.64 569.11 276.58 569.12 276.57 569.12C276.41 569.14 276.23 569.14 276.07 569.17C275.86 569.19 275.66 569.19 275.47 569.21C275.43 569.22 275.24 569.24 274.88 569.28C274.87 569.24 274.86 569.22 274.86 569.21ZM274.88 568.94C274.95 568.98 274.97 569.03 275.02 569.1C275.06 569.09 275.41 569.04 275.45 569.03C275.63 569.01 275.84 568.98 276.07 568.98C276.18 568.98 276.27 568.96 276.39 568.96C274.33 567.04 272.11 565.23 269.85 563.61C269.67 563.47 269.6 563.29 269.6 563.11C269.19 563.47 268.66 563.66 268 563.68C267.68 563.7 267.38 563.7 267.06 563.7C267.06 563.7 267.04 563.71 266.99 563.73C270.59 565.95 273.22 567.69 274.88 568.94ZM270.42 562.63C272.96 564.43 275.38 566.42 277.62 568.55C277.81 568.3 277.92 567.89 278.01 567.57C278.06 567.43 278.08 567.31 278.13 567.25C278.15 567.18 278.35 566.65 278.38 566.58C276.05 564.53 273.51 562.65 270.83 561.01C270.65 561.46 270.47 561.83 270.31 562.17C270.24 562.31 270.17 562.42 270.1 562.51C270.1 562.51 270.1 562.51 270.1 562.51C270.22 562.51 270.31 562.56 270.42 562.63ZM278.63 566.03C276.25 563.95 273.67 562.06 270.97 560.41C270.97 560.41 270.95 560.4 270.93 560.39C270.94 560.35 270.95 560.32 270.95 560.32C271.11 559.93 271.27 559.54 271.43 559.15C271.61 558.7 271.79 558.24 271.98 557.81C271.98 557.8 272 557.77 272.02 557.71L279.57 563.86L278.72 566.1C278.67 566.06 278.63 566.04 278.63 566.03ZM278.65 565.83C278.7 565.7 278.94 565.05 279.38 563.89C275.01 560.31 272.58 558.32 272.09 557.92C271.91 558.33 271.75 558.77 271.59 559.18C271.41 559.57 271.27 559.93 271.11 560.3C273.76 561.92 276.3 563.79 278.65 565.83ZM272.21 557.26L273.85 553.33C273.89 553.37 273.92 553.39 273.92 553.39C275.82 555.18 277.83 556.91 279.91 558.56C279.91 558.56 279.92 558.57 279.93 558.58L280.78 560.78C280.76 560.8 280.76 560.82 280.75 560.82C280.71 560.87 280.69 560.91 280.66 560.98C280.65 561.02 280.59 561.18 280.48 561.49C276.37 557.97 274.08 556.02 273.62 555.63C273.49 555.52 273.28 555.59 273.23 555.75C273.21 555.79 273.21 555.89 273.3 555.95C273.77 556.35 276.11 558.35 280.32 561.94L279.73 563.41L272.21 557.26ZM279.66 563.15L280.11 561.97C275.95 558.41 273.63 556.44 273.17 556.05C273.05 555.95 273.01 555.82 273.05 555.68C273.1 555.52 273.28 555.41 273.44 555.41C273.53 555.41 273.62 555.43 273.69 555.5C274.14 555.88 276.37 557.78 280.39 561.21C280.46 561.02 280.5 560.91 280.5 560.89C280.53 560.82 280.55 560.78 280.59 560.73C280.52 560.52 279.89 558.86 279.82 558.65C277.78 557.05 275.79 555.34 273.92 553.58C273.82 553.82 273.31 555.03 272.39 557.21L279.66 563.15ZM305.01 563.02C302.45 561.17 300 559.13 297.74 556.94C297.73 556.93 297.72 556.92 297.69 556.89L297.69 556.85L298.35 555.13C298.41 555.17 298.44 555.2 298.45 555.2C300.89 557.1 303.29 559.06 305.55 561.05C305.62 561.12 305.71 561.12 305.81 561.07C305.82 561.07 305.88 561.04 305.99 560.98C305.84 561.31 305.75 561.49 305.74 561.53C305.53 562.01 305.3 562.49 305.1 562.97C305.1 562.98 305.09 563.01 305.07 563.06C305.03 563.04 305.01 563.02 305.01 563.02ZM305.03 562.86C305.23 562.4 305.44 561.94 305.62 561.51C305.63 561.49 305.71 561.3 305.71 561.28C305.62 561.28 305.53 561.26 305.46 561.19C303.22 559.25 300.85 557.3 298.45 555.41C298.41 555.5 298.22 555.99 297.87 556.87C300.97 559.64 303.35 561.64 305.03 562.86ZM258.61 561.44C258.56 561.35 258.51 561.23 258.49 561.14C258.13 560.3 257.76 559.45 257.39 558.58C256.11 555.59 254.77 552.43 253.42 549.19C248.39 537.14 243.47 524.73 238.79 512.25C238.54 511.57 238.26 510.86 238.01 510.17C238.01 510.16 237.99 510.13 237.97 510.06C238.03 510.06 238.07 510.06 238.08 510.06C241.19 510.24 244.34 510.35 247.47 510.35C248.78 510.35 250.08 510.33 251.38 510.31C251.39 510.31 251.41 510.31 251.45 510.31C251.47 510.36 251.47 510.39 251.47 510.4C251.47 510.47 251.5 510.54 251.54 510.58C251.54 510.59 251.54 510.6 251.54 510.61C255.02 521.53 259.25 532.34 264.14 542.72C264.23 542.9 264.34 542.93 264.46 542.93C264.66 542.93 264.87 542.79 264.91 542.61C265.87 539.98 266.83 537.26 267.77 534.58C267.77 534.58 267.78 534.56 267.79 534.54C267.82 534.54 267.84 534.54 267.84 534.54C267.91 534.51 267.95 534.47 267.98 534.4C268 534.33 268 534.24 267.95 534.17C267.95 534.17 267.95 534.16 267.93 534.15C267.95 534.12 267.95 534.11 267.95 534.1C270.7 526.08 273.19 517.9 275.41 509.76C275.41 509.76 275.41 509.73 275.43 509.69C275.47 509.69 275.49 509.69 275.5 509.69C279.79 510.35 284.16 510.86 288.48 511.18C288.49 511.18 288.52 511.18 288.57 511.18L284.16 523.5C284.15 523.51 284.14 523.52 284.14 523.52C284.07 523.54 284.02 523.61 284 523.68C283.98 523.75 283.98 523.82 284.02 523.86C284.02 523.86 284.03 523.87 284.05 523.89L282.74 527.52C282.73 527.53 282.72 527.54 282.72 527.54C282.65 527.59 282.45 527.7 282.54 528C283.13 529.74 283.79 531.52 284.53 533.23C284.53 533.24 284.53 533.24 284.53 533.26C284.53 533.27 284.53 533.28 284.53 533.28C284.5 533.35 284.53 533.39 284.55 533.46C284.55 533.47 284.59 533.57 284.59 533.58C284.62 533.62 284.64 533.65 284.66 533.67C284.66 533.67 284.67 533.68 284.69 533.69C284.69 533.71 284.69 533.71 284.69 533.71C285.9 536.62 287.29 539.47 288.8 542.19C288.87 542.33 289.01 542.4 289.14 542.4C289.35 542.4 289.53 542.26 289.6 542.08C290.17 540.53 290.79 538.88 291.47 537.07C291.47 537.07 291.47 537.07 291.47 537.05C291.49 537.04 291.5 537.03 291.5 537.03C291.59 536.98 291.66 536.82 291.61 536.71C291.61 536.71 291.61 536.7 291.61 536.69C291.61 536.67 291.61 536.66 291.61 536.66C293.23 532.37 294.93 528.09 296.62 523.98C296.62 523.97 296.63 523.96 296.64 523.93C296.67 523.93 296.68 523.93 296.69 523.93C296.75 523.93 296.8 523.89 296.85 523.82C296.89 523.75 296.89 523.63 296.85 523.54C296.84 523.54 296.84 523.53 296.82 523.52C296.84 523.49 296.84 523.48 296.85 523.47C297.71 521.33 298.61 519.2 299.5 517.12C299.5 517.12 299.51 517.1 299.52 517.07C299.55 517.07 299.56 517.07 299.57 517.07C299.57 517.07 299.57 517.07 299.57 517.07C299.79 517.07 299.95 516.91 300.02 516.73C300.05 516.66 300.09 516.46 299.91 516.34C299.91 516.34 299.89 516.32 299.86 516.3C299.88 516.27 299.88 516.25 299.89 516.25C300.91 513.83 301.85 511.68 302.77 509.65C302.77 509.64 302.77 509.63 302.79 509.6C302.83 509.6 302.85 509.6 302.86 509.6C306.74 510.24 310.7 510.65 314.58 510.81C314.59 510.81 314.63 510.81 314.7 510.81L305.21 535.36C305.2 535.37 305.19 535.38 305.19 535.38C305.12 535.45 305.07 535.52 305.1 535.61C305.1 535.61 305.1 535.62 305.1 535.63L301.42 545.14C301.39 545.14 301.37 545.14 301.37 545.14C301.37 545.14 301.37 545.14 301.37 545.14C301.28 545.14 301.21 545.19 301.17 545.28C301.14 545.33 301.12 545.44 301.21 545.55C301.21 545.56 301.23 545.57 301.26 545.6L299.66 549.71C299.63 549.71 299.61 549.71 299.61 549.71C299.52 549.74 299.41 549.81 299.38 549.9C299.36 549.97 299.38 550.03 299.45 550.08C299.45 550.08 299.47 550.1 299.5 550.13C299.03 551.33 298.77 552 298.72 552.14C298.65 552.18 298.63 552.27 298.63 552.37C298.63 552.37 298.63 552.37 298.63 552.39C296.52 557.85 295.34 560.88 295.11 561.49C294.79 562.29 294.08 562.31 293.39 562.33C293.3 562.33 293.19 562.33 293.1 562.33C292.39 562.36 288.86 562.53 282.51 562.83C278.93 553.44 276.95 548.22 276.55 547.18C276.48 546.99 276.32 546.88 276.11 546.88C275.98 546.88 275.86 546.93 275.77 547.02C275.7 547.09 275.68 547.15 275.68 547.25C275.68 547.25 275.68 547.26 275.68 547.29C275.67 547.31 275.66 547.31 275.66 547.31C275.59 547.36 275.52 547.43 275.5 547.52C275.24 548.14 273.93 551.23 271.59 556.8C271.33 556.58 271.18 556.46 271.15 556.43C271.11 556.39 271.06 556.39 270.99 556.39C270.88 556.39 270.79 556.46 270.74 556.55C270.72 556.59 270.72 556.69 270.81 556.75C270.85 556.79 271.05 556.95 271.41 557.23L270.22 560.07C270.2 560.08 270.2 560.09 270.19 560.09C270.1 560.14 270.03 560.27 270.08 560.39C270.08 560.39 270.08 560.4 270.08 560.41C269.86 560.93 269.74 561.22 269.71 561.28C269.28 562.31 268.89 562.79 267.75 562.83C267.13 562.86 266.49 562.88 265.87 562.88C265.58 562.88 265.26 562.9 264.96 562.9C264.48 562.93 264 562.93 263.52 562.95C262.47 562.97 261.37 563.02 260.3 563.04C260.29 563.03 260.25 562.99 260.18 562.93C259.33 562.42 258.8 561.93 258.61 561.44ZM238.93 512.21C243.61 524.66 248.53 537.1 253.55 549.12C254.9 552.37 256.25 555.52 257.53 558.51C257.9 559.36 258.26 560.23 258.63 561.07C258.67 561.17 258.72 561.28 258.74 561.37C259.04 562.08 259.31 562.77 260.16 562.77C260.16 562.77 260.18 562.77 260.18 562.77C261.26 562.74 262.35 562.72 263.41 562.67C263.89 562.65 264.37 562.65 264.85 562.63C265.14 562.63 265.46 562.61 265.76 562.61C266.38 562.58 266.99 562.58 267.61 562.56C268.69 562.51 269.03 562.1 269.44 561.1C269.47 561.01 269.75 560.36 269.78 560.27C269.74 560.11 269.83 559.93 269.97 559.84C270.04 559.66 270.41 558.76 271.09 557.14C270.78 556.9 270.62 556.76 270.58 556.73C270.47 556.64 270.42 556.5 270.47 556.37C270.51 556.21 270.7 556.09 270.86 556.09C270.95 556.09 271.04 556.11 271.11 556.18C271.13 556.2 271.22 556.27 271.38 556.41C273.67 550.95 274.95 547.92 275.2 547.31C275.25 547.22 275.31 547.13 275.38 547.06C275.38 546.95 275.43 546.86 275.52 546.77C275.63 546.65 275.79 546.58 275.98 546.58C276.25 546.58 276.46 546.72 276.55 546.97C276.94 548.01 278.92 553.2 282.47 562.54C288.76 562.24 292.26 562.07 292.96 562.03C293.07 562.03 293.17 562.03 293.28 562.03C293.94 562.01 294.58 562.01 294.86 561.3C295.21 560.4 298 553.16 298.35 552.25C298.35 552.14 298.4 552.02 298.47 551.93C298.54 551.74 299.13 550.24 299.2 550.06C299.11 549.97 299.09 549.87 299.13 549.76C299.18 549.62 299.29 549.51 299.43 549.49C299.58 549.09 300.81 545.93 300.96 545.53C300.87 545.42 300.85 545.28 300.91 545.14C300.96 545.01 301.07 544.91 301.21 544.91C301.57 543.98 304.46 536.5 304.82 535.57C304.8 535.45 304.85 535.31 304.96 535.22C305.9 532.79 313.41 513.36 314.35 510.93C310.49 510.77 306.61 510.38 302.77 509.74C301.87 511.73 300.96 513.85 299.93 516.23C300.07 516.37 300.11 516.55 300.07 516.75C299.98 517.01 299.77 517.17 299.52 517.19C298.65 519.25 297.76 521.35 296.89 523.47C296.96 523.59 296.96 523.73 296.89 523.86C296.85 523.98 296.75 524.05 296.66 524.07C294.99 528.16 293.3 532.41 291.7 536.69C291.75 536.87 291.68 537.07 291.52 537.17C290.83 538.95 290.24 540.57 289.67 542.13C289.58 542.38 289.33 542.54 289.07 542.54C288.87 542.54 288.71 542.42 288.59 542.24C287.09 539.52 285.69 536.69 284.48 533.78C284.43 533.76 284.39 533.71 284.37 533.65C284.36 533.63 284.32 533.54 284.32 533.53C284.27 533.46 284.27 533.37 284.27 533.28C283.57 531.54 282.88 529.78 282.29 528.05C282.19 527.79 282.29 527.54 282.51 527.41C282.64 527.06 283.65 524.26 283.77 523.91C283.73 523.82 283.73 523.73 283.77 523.63C283.79 523.54 283.89 523.45 283.95 523.41C284.39 522.2 287.84 512.54 288.27 511.34C284 511.02 279.7 510.54 275.45 509.87C273.26 517.99 270.74 526.15 268.02 534.13C268.07 534.22 268.07 534.35 268.02 534.47C267.98 534.56 267.91 534.63 267.84 534.67C266.93 537.35 265.97 540.05 265.01 542.67C264.91 542.93 264.66 543.09 264.39 543.09C264.18 543.09 264.02 542.97 263.93 542.79C259.04 532.41 254.79 521.6 251.31 510.65C251.27 510.58 251.25 510.51 251.25 510.45C249.97 510.47 248.69 510.49 247.41 510.49C244.39 510.49 241.28 510.4 238.19 510.22C238.45 510.88 238.7 511.54 238.93 512.21ZM305.97 560.8C305.94 560.78 305.94 560.75 305.9 560.73C303.54 558.7 301.1 556.69 298.58 554.74C298.58 554.74 298.56 554.72 298.54 554.7L299.25 552.89C299.3 552.93 299.33 552.96 299.34 552.96C301.9 554.93 304.37 557.05 306.72 559.29C306.72 559.29 306.74 559.31 306.77 559.34C306.64 559.63 306.57 559.79 306.56 559.82C306.42 560.16 306.26 560.48 306.13 560.82C306.12 560.83 306.09 560.88 306.03 560.96C305.99 560.86 305.97 560.81 305.97 560.8ZM305.99 560.62C305.99 560.62 305.99 560.62 305.99 560.62C306.13 560.32 306.24 560.02 306.38 559.73C306.39 559.69 306.52 559.4 306.54 559.36C304.23 557.17 301.78 555.09 299.29 553.14C299.25 553.24 299.06 553.75 298.72 554.65C302.01 557.27 304.43 559.26 305.99 560.62ZM306.86 558.81C304.53 556.59 302.03 554.47 299.45 552.5C299.45 552.5 299.43 552.48 299.41 552.46L300.14 550.58C300.19 550.62 300.22 550.65 300.23 550.65C302.47 552.43 304.69 554.22 306.79 556C306.93 556.11 307.13 556.05 307.18 555.89C307.2 555.84 307.2 555.75 307.11 555.68C304.94 553.85 302.65 552 300.37 550.17C300.36 550.17 300.35 550.15 300.32 550.13L301.12 548.07C301.17 548.11 301.21 548.13 301.21 548.14C303.82 550.17 306.35 552.37 308.75 554.61C308.76 554.61 308.77 554.62 308.8 554.65C308.79 554.68 308.78 554.69 308.78 554.7C308.14 556.21 307.57 557.53 307.02 558.79C307.01 558.79 306.98 558.83 306.93 558.88C306.88 558.84 306.86 558.82 306.86 558.81ZM306.88 558.63C307.41 557.42 307.95 556.14 308.57 554.7C306.22 552.48 303.73 550.35 301.17 548.34C301.1 548.52 300.55 549.95 300.48 550.13C302.77 551.93 305.03 553.78 307.2 555.59C307.31 555.68 307.36 555.82 307.31 555.95C307.27 556.11 307.09 556.23 306.93 556.23C306.83 556.23 306.74 556.21 306.67 556.14C304.59 554.4 302.42 552.62 300.21 550.86C300.16 550.96 299.96 551.48 299.59 552.41C302.91 555.11 305.34 557.18 306.88 558.63ZM279.38 557.55C277.55 556.09 275.77 554.51 274.06 552.89C274.05 552.89 274.04 552.87 274.01 552.85L274.65 551.29C274.69 551.32 274.72 551.33 274.72 551.34C275.91 552.02 277.05 552.82 278.06 553.74C278.06 553.74 278.07 553.75 278.08 553.76L279.61 557.74C279.47 557.63 279.4 557.57 279.38 557.55ZM279.27 557.26C279.14 556.92 278.1 554.19 277.97 553.85C276.98 552.96 275.91 552.18 274.74 551.52C274.71 551.61 274.53 552.04 274.22 552.82C276.44 554.85 278.13 556.33 279.27 557.26ZM308.87 554.15C306.47 551.91 303.91 549.74 301.33 547.7C301.32 547.7 301.31 547.68 301.28 547.66L301.92 546.03C301.96 546.06 301.98 546.08 301.99 546.08C304.5 547.89 306.95 549.85 309.26 551.91C309.39 552.02 309.58 551.95 309.65 551.79C309.67 551.75 309.67 551.66 309.58 551.59C307.22 549.49 304.71 547.47 302.13 545.62C302.12 545.62 302.11 545.6 302.08 545.58L302.77 543.84L302.99 544.05C307.47 547.82 309.95 549.91 310.45 550.33C310.47 550.35 310.47 550.35 310.51 550.38C310.52 550.38 310.54 550.39 310.58 550.4C310.57 550.44 310.56 550.46 310.56 550.47C310.01 551.79 309.51 553.01 309.03 554.13C309.02 554.13 308.99 554.16 308.94 554.22C308.9 554.18 308.87 554.15 308.87 554.15ZM308.89 553.94C309.17 553.28 309.46 552.59 309.76 551.86C309.69 552 309.55 552.09 309.39 552.09C309.3 552.09 309.21 552.05 309.14 552C306.88 549.97 304.46 548.02 301.97 546.24C301.93 546.33 301.76 546.78 301.46 547.59C304.83 550.35 307.31 552.46 308.89 553.94ZM309.69 551.47C309.81 551.57 309.85 551.7 309.78 551.84C309.97 551.41 310.15 550.93 310.35 550.47C310.35 550.47 310.33 550.45 310.33 550.45C309.59 549.82 303.63 544.79 302.88 544.16C302.88 544.16 302.86 544.16 302.86 544.14C302.85 544.13 302.84 544.12 302.81 544.09L302.26 545.53C305.65 548.09 308.12 550.07 309.69 551.47ZM277.53 552.69C276.71 552.02 275.84 551.43 274.93 550.93C274.92 550.92 274.9 550.92 274.86 550.9L274.88 550.83L275.98 548.21L277.76 552.87C277.62 552.76 277.55 552.7 277.53 552.69ZM277.44 552.41C277.34 552.16 276.86 550.89 276 548.62L275.06 550.83C276.14 551.5 276.94 552.03 277.44 552.41ZM302.93 543.38L303.68 541.42C303.72 541.43 303.74 541.44 303.75 541.44C303.77 541.44 303.77 541.44 303.79 541.44C303.8 541.44 303.86 541.44 303.86 541.44C303.89 541.44 303.91 541.44 303.93 541.42C303.93 541.42 303.95 541.41 303.98 541.39C304 541.41 304.02 541.42 304.02 541.42C305.42 542.63 306.81 543.86 308.16 545.07C309.23 546.03 310.35 547.02 311.47 548C311.48 548 311.49 548.02 311.52 548.05C311.36 548.47 311.26 548.71 311.25 548.75C311.09 549.14 310.93 549.53 310.77 549.9C310.76 549.9 310.75 549.92 310.72 549.97L302.93 543.38ZM310.67 549.71C310.81 549.37 310.97 549.01 311.11 548.66C311.13 548.6 311.33 548.13 311.36 548.07C310.26 547.11 309.17 546.13 308.09 545.19C306.74 544 305.35 542.77 303.98 541.58C303.95 541.58 303.93 541.58 303.91 541.6C303.9 541.6 303.85 541.6 303.84 541.6C303.82 541.6 303.82 541.6 303.79 541.6C303.75 541.72 303.52 542.29 303.11 543.34C307.65 547.16 310.17 549.29 310.67 549.71ZM311.59 547.52C310.54 546.61 309.49 545.67 308.46 544.75C307.02 543.47 305.53 542.15 304.05 540.87C304.02 540.85 304 540.82 303.95 540.82C303.95 540.82 303.93 540.81 303.89 540.8L304.46 539.29C304.5 539.32 304.52 539.33 304.53 539.34C307.04 540.89 309.39 542.7 311.57 544.66C311.7 544.78 311.89 544.71 311.95 544.57C311.98 544.53 311.98 544.43 311.89 544.37C309.67 542.33 307.22 540.5 304.66 538.9C304.66 538.9 304.64 538.89 304.62 538.88L305.67 536.18L313.53 542.88C313.52 542.91 313.51 542.92 313.51 542.93C312.85 544.64 312.25 546.13 311.7 547.47C311.7 547.48 311.69 547.52 311.68 547.59C311.63 547.55 311.59 547.52 311.59 547.52ZM304.18 540.75C305.67 542.03 307.15 543.36 308.59 544.64C309.6 545.53 310.61 546.45 311.63 547.31C312.16 546.01 312.73 544.55 313.39 542.9C312.89 542.47 310.35 540.31 305.78 536.41C305.23 537.84 304.93 538.63 304.87 538.79C307.43 540.37 309.85 542.19 312.07 544.23C312.18 544.34 312.23 544.48 312.16 544.62C312.09 544.78 311.95 544.87 311.79 544.87C311.7 544.87 311.61 544.82 311.54 544.78C309.42 542.83 307.06 541.05 304.59 539.52C304.56 539.6 304.4 540 304.11 540.71C304.14 540.72 304.17 540.74 304.18 540.75ZM305.87 535.75L306.7 533.62C306.75 533.66 306.78 533.69 306.79 533.69C309.51 535.73 312.02 538.06 314.26 540.64C314.29 540.66 314.31 540.69 314.33 540.71C314.34 540.71 314.36 540.72 314.4 540.73C314.26 541.07 314.19 541.26 314.17 541.3C314.03 541.65 313.9 542.01 313.76 542.35C313.76 542.36 313.75 542.39 313.74 542.45L305.87 535.75ZM313.67 542.17C313.78 541.85 313.92 541.53 314.03 541.21C314.05 541.17 314.2 540.8 314.22 540.75C314.19 540.73 314.17 540.71 314.15 540.69C311.93 538.13 309.44 535.82 306.77 533.81C306.72 533.93 306.48 534.56 306.06 535.68C310.62 539.57 313.16 541.74 313.67 542.17ZM264.37 541.21C263.82 540.02 263.25 538.79 262.65 537.46C262.65 537.45 262.62 537.41 262.58 537.33C264.17 537.72 265.06 537.94 265.23 537.99C265.26 537.99 265.28 537.99 265.3 537.99C265.3 537.99 265.3 537.99 265.3 537.99C265.42 537.99 265.51 537.87 265.53 537.78C265.53 537.74 265.53 537.6 265.37 537.55C265.17 537.5 264.16 537.25 262.35 536.8C262.34 536.79 262.33 536.78 262.33 536.78C262.03 536.09 261.74 535.41 261.44 534.72C261.44 534.71 261.41 534.66 261.37 534.56C261.47 534.6 261.52 534.62 261.53 534.63C263.09 535.18 264.66 535.63 266.26 535.98C266.27 535.98 266.3 535.99 266.35 536C266.34 536.05 266.33 536.09 266.33 536.09C265.62 538.1 265.05 539.75 264.5 541.26C264.5 541.26 264.48 541.3 264.43 541.37C264.39 541.28 264.37 541.22 264.37 541.21ZM264.41 540.98C264.73 540.09 265.07 539.15 265.44 538.13C265.39 538.15 265.35 538.15 265.3 538.15C265.3 538.15 265.3 538.15 265.3 538.15C265.28 538.15 265.23 538.15 265.21 538.13C265.05 538.09 264.27 537.9 262.86 537.55C263.56 539.11 264.08 540.25 264.41 540.98ZM265.39 537.39C265.51 537.42 265.58 537.49 265.62 537.58C265.78 537.1 265.97 536.59 266.15 536.07C264.62 535.73 263.11 535.29 261.65 534.79C261.92 535.43 262.19 536.05 262.47 536.66C263.05 536.81 265.1 537.32 265.39 537.39ZM289.01 540.78C288.37 539.59 287.73 538.33 287.11 537.05C287.1 537.04 287.07 536.97 287.02 536.85C287.14 536.9 287.21 536.93 287.22 536.94C288.07 537.35 288.89 537.9 289.69 538.4C289.71 538.41 289.8 538.47 289.97 538.58C289.8 539.02 289.71 539.27 289.69 539.31C289.51 539.79 289.33 540.27 289.14 540.75C289.14 540.76 289.12 540.82 289.07 540.91C289.03 540.83 289.01 540.79 289.01 540.78ZM289.05 540.55C289.21 540.11 289.37 539.68 289.53 539.25C289.55 539.2 289.62 539 289.76 538.63C289.66 538.56 289.61 538.52 289.6 538.51C288.87 538.06 288.11 537.55 287.34 537.17C287.89 538.33 288.48 539.47 289.05 540.55ZM314.49 540.18C312.25 537.62 309.71 535.27 306.97 533.23C306.97 533.23 306.95 533.21 306.95 533.21C306.94 533.21 306.92 533.2 306.88 533.19L307.77 530.88C307.83 530.93 307.86 530.97 307.86 530.97C307.86 530.97 307.89 530.99 307.89 530.99C310.56 533.1 313.1 535.43 315.43 537.92C315.43 537.92 315.44 537.94 315.45 537.97C315.44 537.99 315.43 538.01 315.43 538.01C315.15 538.74 314.88 539.45 314.61 540.18C314.6 540.19 314.6 540.22 314.58 540.27C314.53 540.22 314.5 540.19 314.49 540.18ZM314.54 540C314.79 539.34 315.04 538.67 315.31 537.99C313.01 535.52 310.49 533.21 307.84 531.13C307.79 531.26 307.53 531.93 307.06 533.12C310.55 536.02 313.04 538.31 314.54 540ZM289.87 537.99C288.96 537.39 288.02 536.78 287.06 536.37C286.99 536.34 286.93 536.34 286.86 536.37C286.85 536.37 286.83 536.37 286.79 536.39C286.77 536.35 286.77 536.32 286.77 536.32C286.31 535.34 285.92 534.49 285.6 533.69C285.6 533.68 285.57 533.63 285.53 533.53C285.63 533.57 285.68 533.6 285.69 533.6C286.45 533.9 287.52 534.54 288.02 534.83C288.14 534.9 288.23 534.95 288.27 534.97C289.03 535.41 289.81 535.91 290.65 536.5C290.65 536.5 290.67 536.51 290.7 536.53C290.68 536.55 290.68 536.57 290.67 536.57C290.56 536.85 290.47 537.12 290.35 537.39C290.34 537.44 290.25 537.7 290.1 538.15C289.97 538.05 289.89 538 289.87 537.99ZM287.13 536.21C288.11 536.64 289.05 537.26 289.97 537.85C289.97 537.85 289.99 537.87 290.03 537.9C290.16 537.58 290.23 537.41 290.24 537.37C290.33 537.12 290.45 536.85 290.54 536.59C289.71 536 288.96 535.52 288.23 535.11C288.18 535.09 288.09 535.04 287.98 534.97C287.5 534.7 286.56 534.13 285.83 533.81C286.15 534.54 286.49 535.29 286.9 536.18C286.9 536.18 286.95 536.18 286.97 536.18C287.02 536.18 287.09 536.21 287.13 536.21ZM315.54 537.39C313.26 534.97 310.79 532.71 308.21 530.67C308.14 530.63 308.05 530.61 307.98 530.63C307.97 530.63 307.91 530.65 307.82 530.67L310.7 523.25C314.77 527.11 317.03 529.26 317.49 529.69C317.6 529.81 317.81 529.74 317.87 529.6C317.9 529.55 317.92 529.46 317.83 529.37C317.37 528.93 315.06 526.74 310.9 522.79L311.73 520.66C311.78 520.72 311.81 520.75 311.82 520.75C314.03 523.36 316.46 525.85 319.04 528.14C319.04 528.14 319.06 528.15 319.09 528.16C319.07 528.19 319.06 528.2 319.06 528.21C318.24 530.49 317.53 532.5 316.85 534.33C316.84 534.34 316.83 534.38 316.8 534.45C316.75 534.4 316.71 534.38 316.71 534.38C314.4 532.25 311.93 530.24 309.42 528.37C309.3 528.27 309.17 528.34 309.12 528.48C309.1 528.53 309.07 528.66 309.21 528.75C311.77 530.63 314.26 532.69 316.59 534.86C316.6 534.86 316.61 534.88 316.64 534.9C316.63 534.93 316.62 534.95 316.62 534.95C316.32 535.75 316.02 536.55 315.7 537.35C315.7 537.36 315.68 537.4 315.63 537.49C315.58 537.43 315.55 537.4 315.54 537.39ZM308.3 530.56C310.86 532.57 313.3 534.81 315.59 537.19C315.86 536.43 316.16 535.7 316.43 534.95C314.1 532.78 311.63 530.74 309.1 528.89C308.96 528.78 308.89 528.62 308.96 528.43C309.03 528.21 309.3 528.09 309.49 528.23C312 530.08 314.42 532.07 316.71 534.17C317.37 532.39 318.08 530.45 318.86 528.21C316.32 525.94 313.94 523.5 311.75 520.94C311.7 521.06 311.47 521.66 311.06 522.74C315.18 526.65 317.46 528.82 317.92 529.26C318.03 529.37 318.06 529.51 318.01 529.65C317.94 529.81 317.81 529.9 317.65 529.9C317.55 529.9 317.46 529.85 317.39 529.78C316.95 529.36 314.74 527.27 310.77 523.5L308.07 530.47C308.18 530.48 308.25 530.51 308.3 530.56ZM290.81 536.07C289.69 535.27 288.48 534.54 287.27 533.92C287.15 533.87 287.04 533.78 286.88 533.71C286.45 533.46 285.87 533.14 285.37 533.03C285.37 533.03 285.35 533.03 285.33 533.03C285.31 533 285.3 532.99 285.3 532.98C284.78 531.73 284.3 530.49 283.86 529.33C283.86 529.31 283.83 529.23 283.77 529.1C283.89 529.18 283.96 529.23 283.98 529.23C286.31 530.9 288.59 532.71 290.77 534.61C290.9 534.72 291.11 534.65 291.15 534.49C291.18 534.45 291.18 534.35 291.09 534.29C288.69 532.21 286.15 530.22 283.52 528.37C283.52 528.36 283.51 528.36 283.5 528.34L283.38 528.05C283.4 528.03 283.4 528.02 283.41 528.02C283.43 528 283.43 527.98 283.43 527.98C283.45 527.91 283.58 527.55 283.82 526.9C288.08 529.88 290.45 531.53 290.93 531.86C291.04 531.95 291.2 531.89 291.25 531.73C291.27 531.68 291.29 531.54 291.15 531.45C290.68 531.12 288.29 529.45 284 526.45L284.73 524.39C284.79 524.42 284.82 524.43 284.82 524.43C287.68 526.29 290.42 528.32 293.03 530.45C293.03 530.45 293.05 530.46 293.07 530.49C293.06 530.52 293.05 530.53 293.05 530.54C292.34 532.32 291.63 534.17 290.93 536.02C290.92 536.03 290.91 536.06 290.88 536.11C290.84 536.09 290.82 536.07 290.81 536.07ZM286.93 533.58C287.06 533.67 287.2 533.74 287.31 533.78C288.5 534.4 289.69 535.11 290.79 535.89C291.47 534.08 292.16 532.27 292.85 530.54C290.29 528.43 287.59 526.47 284.78 524.62C284.74 524.73 284.53 525.32 284.16 526.38C288.4 529.34 290.75 530.99 291.22 531.31C291.36 531.41 291.43 531.59 291.36 531.75C291.29 532 291.02 532.09 290.81 531.95C290.35 531.63 288.03 530.02 283.86 527.11C283.67 527.64 283.56 527.94 283.54 528C283.54 528.02 283.54 528.02 283.52 528.05C283.53 528.06 283.58 528.21 283.59 528.23C286.22 530.06 288.75 532.05 291.13 534.15C291.25 534.24 291.29 534.4 291.22 534.51C291.15 534.67 290.99 534.79 290.83 534.79C290.74 534.79 290.65 534.77 290.58 534.7C288.48 532.87 286.29 531.11 284 529.49C284.5 530.58 284.94 531.73 285.42 532.89C285.94 533.01 286.51 533.33 286.93 533.58ZM266.45 535.52C264.71 535.15 262.99 534.65 261.35 534.03C261.3 534.01 261.28 534.01 261.23 534.03C261.23 534.04 261.21 534.04 261.17 534.06C261.15 534.02 261.14 533.99 261.14 533.99C260.89 533.39 260.64 532.8 260.39 532.21C260.38 532.2 260.36 532.14 260.32 532.05L266.77 534.19C266.78 534.25 266.79 534.28 266.79 534.29C266.81 534.33 266.83 534.38 266.86 534.42C266.86 534.42 266.87 534.43 266.88 534.45C266.87 534.47 266.86 534.49 266.86 534.49C266.79 534.67 266.74 534.86 266.67 535.04C266.66 535.07 266.61 535.24 266.51 535.54C266.47 535.53 266.45 535.52 266.45 535.52ZM261.42 533.9C263.04 534.49 264.73 534.97 266.42 535.36C266.44 535.32 266.55 535.03 266.56 534.99C266.63 534.83 266.67 534.65 266.74 534.49C266.72 534.45 266.7 534.4 266.67 534.35C266.67 534.35 266.67 534.35 266.67 534.33C263.04 533.11 261.02 532.43 260.62 532.3C260.82 532.82 261.03 533.35 261.28 533.87C261.26 533.87 261.26 533.87 261.28 533.87C261.33 533.87 261.37 533.87 261.42 533.9ZM260.09 531.5C260.08 531.48 260.07 531.48 260.07 531.47C259.63 530.4 259.27 529.53 258.93 528.71C258.92 528.69 258.89 528.63 258.83 528.5C259.01 528.61 259.11 528.67 259.13 528.69C259.18 528.71 259.2 528.73 259.25 528.73C259.25 528.73 259.29 528.73 259.29 528.73C261.35 529.81 263.52 530.72 265.76 531.43C265.76 531.43 265.78 531.44 265.81 531.45L266.58 533.67L260.09 531.5ZM266.33 533.44C265.95 532.3 265.73 531.67 265.69 531.54C263.47 530.83 261.3 529.92 259.25 528.87C259.25 528.87 259.25 528.87 259.25 528.87C259.22 528.87 259.18 528.87 259.15 528.85C259.47 529.58 259.79 530.4 260.21 531.38C261.02 531.66 263.06 532.34 266.33 533.44ZM265.51 530.83C263.18 530.06 260.91 529.07 258.77 527.89C258.74 527.86 258.7 527.86 258.67 527.86C258.67 527.86 258.66 527.86 258.63 527.86C258.61 527.84 258.61 527.82 258.61 527.82C258.31 527.09 258.03 526.35 257.74 525.6C257.73 525.59 257.71 525.54 257.67 525.44C257.76 525.47 257.82 525.48 257.83 525.49C260.27 526.29 262.61 527.36 264.8 528.66C264.82 528.69 264.85 528.69 264.87 528.69C264.87 528.69 264.89 528.69 264.91 528.69L265.65 530.88C265.56 530.85 265.52 530.84 265.51 530.83ZM258.83 527.75C260.91 528.91 263.13 529.87 265.42 530.63C265.36 530.45 264.88 529 264.82 528.82C264.8 528.82 264.78 528.8 264.75 528.8C262.61 527.52 260.32 526.47 257.97 525.69C258.17 526.35 258.45 527.04 258.72 527.7C258.77 527.7 258.79 527.73 258.83 527.75ZM293.14 529.97C290.51 527.82 287.77 525.81 284.94 523.98C284.93 523.98 284.92 523.97 284.89 523.95L285.53 522.17C285.57 522.28 285.6 522.34 285.6 522.35C285.62 522.4 285.67 522.45 285.71 522.49C285.72 522.5 285.8 522.55 285.81 522.56C285.9 522.63 286.01 522.61 286.08 522.49C286.08 522.49 286.09 522.47 286.1 522.45C286.14 522.46 286.17 522.47 286.17 522.47C286.51 522.61 286.93 522.95 287.25 523.2C287.41 523.31 287.54 523.43 287.63 523.5C288.32 523.95 288.98 524.41 289.53 524.8C290.7 525.62 291.93 526.51 293.28 527.52C293.39 527.61 293.53 527.54 293.58 527.41C293.6 527.36 293.62 527.22 293.49 527.13C292.16 526.15 290.81 525.17 289.44 524.21C288.8 523.75 288.09 523.27 287.22 522.67C287.13 522.61 287.02 522.54 286.93 522.45C286.61 522.19 286.26 521.94 285.9 521.94C285.83 521.94 285.78 521.97 285.76 521.99C285.75 522 285.68 522.05 285.55 522.15L286.31 520.02C286.35 520.04 286.37 520.04 286.38 520.05C286.4 520.05 286.42 520.05 286.42 520.07C286.43 520.07 286.51 520.07 286.51 520.07C286.7 520.09 286.72 519.93 286.72 519.89C286.72 519.87 286.73 519.79 286.74 519.63C286.83 519.76 286.87 519.83 286.88 519.84C287.13 520.25 287.73 520.53 288.27 520.78C288.48 520.87 288.69 520.96 288.82 521.05C289.46 521.42 290.13 521.85 290.93 522.38C292.27 523.27 293.62 524.27 295.02 525.46C295.02 525.47 295.04 525.48 295.06 525.51C295.05 525.54 295.04 525.55 295.04 525.55C294.38 527.22 293.83 528.59 293.3 529.9C293.3 529.91 293.28 529.95 293.23 530.03C293.18 529.99 293.15 529.97 293.14 529.97ZM293.17 529.78C293.67 528.53 294.19 527.18 294.83 525.6C293.44 524.43 292.11 523.43 290.79 522.56C289.99 522.03 289.33 521.6 288.69 521.23C288.53 521.14 288.34 521.05 288.14 520.96C287.63 520.73 287.09 520.46 286.79 520.09C286.72 520.21 286.61 520.27 286.47 520.25C286.46 520.25 286.43 520.25 286.38 520.25C286.03 521.2 285.84 521.72 285.81 521.83C285.83 521.83 285.83 521.83 285.85 521.83C286.29 521.83 286.65 522.13 286.97 522.38C287.06 522.45 287.18 522.54 287.27 522.61C288.14 523.2 288.85 523.68 289.49 524.14C290.86 525.1 292.21 526.08 293.53 527.06C293.67 527.18 293.74 527.34 293.67 527.52C293.6 527.75 293.33 527.86 293.14 527.7C291.79 526.7 290.58 525.81 289.42 524.98C288.87 524.59 288.21 524.14 287.52 523.68C287.41 523.61 287.27 523.5 287.13 523.36C286.83 523.11 286.45 522.81 286.15 522.67C286.03 522.81 285.85 522.83 285.69 522.72C285.68 522.71 285.61 522.66 285.6 522.65C285.58 522.63 285.55 522.61 285.53 522.58C285.5 522.67 285.35 523.1 285.07 523.89C288.75 526.42 291.44 528.38 293.17 529.78ZM264.53 528C262.35 526.77 260.07 525.74 257.69 524.98C257.65 524.96 257.6 524.96 257.55 524.98C257.55 524.98 257.53 524.99 257.49 525.01C257.47 524.96 257.46 524.94 257.46 524.94C257.19 524.21 256.91 523.47 256.64 522.77C256.64 522.76 256.62 522.7 256.59 522.61C256.69 522.63 256.74 522.65 256.75 522.65C259.11 523.45 261.39 524.5 263.54 525.74C263.63 525.78 263.73 525.78 263.79 525.71C263.8 525.71 263.83 525.68 263.89 525.62L264.71 528.09C264.6 528.04 264.54 528.01 264.53 528ZM257.74 524.85C260.05 525.58 262.31 526.56 264.43 527.77C264.37 527.58 263.86 526.08 263.79 525.9C263.68 525.97 263.57 525.94 263.45 525.9C261.35 524.69 259.13 523.68 256.85 522.88C257.1 523.54 257.35 524.18 257.6 524.85C257.6 524.82 257.6 524.82 257.62 524.82C257.67 524.82 257.69 524.82 257.74 524.85ZM319.13 527.63C316.62 525.37 314.24 522.93 312.07 520.37C312.05 520.32 312 520.3 311.95 520.3C311.95 520.3 311.92 520.29 311.86 520.27L312.64 518.24C312.69 518.28 312.73 518.3 312.73 518.31C315.18 520.64 317.51 523.11 319.68 525.67C319.73 525.71 319.75 525.74 319.79 525.74C319.8 525.74 319.83 525.74 319.89 525.74C319.83 525.89 319.8 525.97 319.79 525.99C319.61 526.51 319.43 527.04 319.25 527.57C319.24 527.57 319.24 527.62 319.22 527.7C319.17 527.66 319.14 527.64 319.13 527.63ZM312.18 520.27C314.33 522.81 316.66 525.21 319.15 527.45C319.34 526.97 319.5 526.47 319.68 525.99C319.68 525.98 319.7 525.91 319.7 525.9C319.66 525.87 319.61 525.85 319.57 525.81C317.44 523.27 315.13 520.82 312.71 518.54C312.67 518.65 312.45 519.2 312.07 520.18C312.13 520.21 312.17 520.24 312.18 520.27ZM319.93 525.33C317.71 522.72 315.34 520.21 312.85 517.85C312.84 517.85 312.83 517.83 312.8 517.81L313.65 515.63C313.7 515.68 313.73 515.7 313.74 515.7C316.16 517.92 318.58 520.25 320.91 522.67C320.92 522.68 320.92 522.68 320.94 522.7C320.84 522.99 320.79 523.15 320.78 523.18C320.55 523.89 320.3 524.57 320.05 525.28C320.04 525.29 320.04 525.33 320.02 525.42C319.97 525.36 319.94 525.33 319.93 525.33ZM319.98 525.12C320.21 524.46 320.43 523.79 320.66 523.15C320.68 523.11 320.79 522.78 320.8 522.74C318.51 520.37 316.14 518.06 313.76 515.89C313.71 516.01 313.46 516.64 313.01 517.76C316.19 520.94 318.51 523.4 319.98 525.12ZM263.59 525.28C261.3 523.98 258.88 522.9 256.39 522.08C256.39 522.08 256.37 522.07 256.34 522.06C256.26 521.82 256.21 521.69 256.21 521.67C256.05 521.23 255.89 520.8 255.73 520.37C255.72 520.36 255.71 520.31 255.68 520.23C255.76 520.26 255.81 520.27 255.82 520.27C258.31 521.05 260.71 522.1 262.95 523.43C262.99 523.45 263.02 523.45 263.06 523.45C263.07 523.45 263.08 523.45 263.11 523.45L263.77 525.37C263.66 525.32 263.6 525.29 263.59 525.28ZM263.52 525.05C263.47 524.91 263.09 523.73 263.04 523.59C262.99 523.59 262.95 523.57 262.93 523.54C260.73 522.26 258.4 521.23 255.98 520.46C256.11 520.85 256.25 521.21 256.41 521.6C256.42 521.62 256.45 521.74 256.5 521.94C259.7 523.18 262.04 524.21 263.52 525.05ZM295.13 525.05C293.39 523.59 291.52 522.26 289.62 521.07C289.59 521.05 289.29 520.87 289.26 520.85C288.41 520.32 287.52 519.77 286.63 519.41C286.62 519.4 286.6 519.4 286.56 519.38L286.56 519.31L287.18 517.55C287.2 517.55 287.22 517.55 287.22 517.55C287.27 517.55 287.29 517.55 287.31 517.53C287.32 517.53 287.38 517.49 287.38 517.49C287.41 517.49 287.41 517.46 287.43 517.44C287.43 517.44 287.45 517.42 287.47 517.39C287.5 517.41 287.52 517.42 287.52 517.42C287.66 517.49 287.79 517.6 287.91 517.69C287.98 517.74 288.02 517.78 288.07 517.81C288.5 518.08 288.91 518.38 289.35 518.65C290.13 519.18 290.93 519.73 291.89 520.41C293.14 521.3 294.45 522.26 295.86 523.34C295.87 523.34 295.88 523.36 295.91 523.38C295.74 523.78 295.65 524 295.63 524.05C295.5 524.37 295.36 524.69 295.25 525.01C295.24 525.01 295.23 525.05 295.2 525.12C295.16 525.08 295.14 525.06 295.13 525.05ZM289.33 520.71C289.36 520.73 289.65 520.91 289.69 520.94C291.57 522.1 293.42 523.43 295.13 524.85C295.25 524.55 295.36 524.27 295.5 523.98C295.52 523.92 295.7 523.46 295.73 523.41C294.33 522.35 293.05 521.39 291.79 520.53C290.83 519.84 290.03 519.29 289.26 518.77C288.82 518.47 288.41 518.19 287.98 517.92C287.93 517.9 287.86 517.85 287.82 517.78C287.73 517.71 287.61 517.62 287.5 517.55C287.5 517.55 287.47 517.58 287.47 517.58C287.47 517.58 287.41 517.62 287.41 517.62C287.38 517.65 287.34 517.67 287.29 517.67C287.25 517.78 287.06 518.32 286.72 519.29C287.91 519.9 288.78 520.37 289.33 520.71ZM296.02 522.88C294.51 521.74 292.98 520.62 291.5 519.57C290.74 519.04 289.94 518.49 288.96 517.83C288.82 517.74 288.71 517.65 288.57 517.53C288.23 517.28 287.89 517.01 287.52 516.91C287.51 516.91 287.48 516.91 287.43 516.89L288.41 514.15C288.47 514.19 288.5 514.21 288.5 514.22C291.2 516.46 294.15 518.4 297.23 520.05C297.24 520.05 297.26 520.05 297.3 520.07C297.29 520.11 297.28 520.13 297.28 520.14C296.91 521.03 296.53 521.94 296.16 522.83C296.16 522.84 296.13 522.88 296.09 522.95C296.05 522.91 296.03 522.88 296.02 522.88ZM288.62 517.44C288.75 517.53 288.87 517.65 289.01 517.71C289.99 518.38 290.79 518.93 291.54 519.45C293.01 520.48 294.51 521.58 296 522.7C296.34 521.85 296.71 521.01 297.05 520.16C294.01 518.56 291.11 516.62 288.43 514.42C288.38 514.58 288.1 515.38 287.59 516.82C288.06 517.08 288.4 517.29 288.62 517.44ZM262.77 522.77C260.5 521.51 258.13 520.48 255.66 519.73C255.63 519.73 255.61 519.73 255.59 519.73C255.58 519.73 255.56 519.73 255.52 519.73C255.41 519.41 255.35 519.24 255.34 519.2C255.2 518.83 255.09 518.47 254.95 518.1C254.94 518.09 254.92 518.04 254.88 517.94C259.24 519.92 261.66 521.01 262.15 521.23C262.19 521.26 262.26 521.26 262.33 521.23C262.34 521.23 262.36 521.23 262.4 521.21L262.95 522.86C262.84 522.8 262.78 522.77 262.77 522.77ZM255.73 519.59C258.13 520.32 260.48 521.33 262.67 522.54C262.64 522.42 262.32 521.51 262.29 521.39C262.22 521.39 262.15 521.39 262.08 521.37C261.39 521.06 255.85 518.55 255.15 518.24C255.27 518.54 255.38 518.86 255.47 519.15C255.48 519.18 255.54 519.32 255.63 519.57C255.66 519.57 255.7 519.57 255.73 519.59ZM321.03 522.13C318.74 519.77 316.39 517.49 314.06 515.36C314.01 515.31 313.97 515.29 313.92 515.29C313.91 515.29 313.87 515.29 313.81 515.29L314.61 513.21C314.66 513.25 314.69 513.28 314.7 513.28C317.14 515.43 319.54 517.65 321.83 519.93C321.83 519.93 321.86 519.95 321.9 519.98C321.88 520 321.88 520.02 321.87 520.02C321.65 520.71 321.42 521.39 321.19 522.08C321.18 522.09 321.16 522.13 321.12 522.22C321.07 522.16 321.03 522.13 321.03 522.13ZM314.15 515.25C316.48 517.35 318.79 519.61 321.05 521.94C321.26 521.3 321.49 520.69 321.69 520.05C319.45 517.81 317.07 515.59 314.65 513.49C314.61 513.6 314.4 514.15 314.01 515.15C314.07 515.18 314.12 515.22 314.15 515.25ZM254.7 517.35C254.68 517.33 254.68 517.33 254.67 517.33C254.4 516.55 254.13 515.75 253.85 514.95C253.85 514.94 253.82 514.88 253.78 514.77C258.23 516.96 260.69 518.18 261.19 518.42C261.26 518.45 261.33 518.47 261.39 518.42C261.4 518.42 261.43 518.4 261.49 518.38C261.54 518.58 261.57 518.7 261.58 518.72C261.69 519.11 261.81 519.52 261.94 519.91C261.96 519.97 262.06 520.26 262.24 520.78L254.7 517.35ZM261.97 520.48C261.87 520.18 261.82 520.01 261.81 519.98C261.67 519.59 261.55 519.18 261.44 518.79C261.44 518.77 261.4 518.62 261.39 518.61C261.3 518.63 261.23 518.61 261.14 518.58C260.43 518.23 254.77 515.44 254.06 515.09C254.31 515.79 254.54 516.53 254.79 517.23C255.75 517.67 258.14 518.75 261.97 520.48ZM297.37 519.63C294.26 517.99 291.34 516.05 288.69 513.83C288.66 513.81 288.64 513.81 288.62 513.78C288.61 513.78 288.59 513.77 288.55 513.76L289.23 511.86C289.28 511.89 289.3 511.91 289.3 511.91C292.34 513.53 295.47 515.13 298.65 516.66C298.66 516.66 298.68 516.67 298.72 516.69C298.71 516.73 298.7 516.75 298.7 516.75C298.29 517.69 297.9 518.65 297.51 519.59C297.5 519.59 297.48 519.63 297.44 519.68C297.4 519.65 297.38 519.64 297.37 519.63ZM288.78 513.74C291.41 515.91 294.29 517.85 297.37 519.47C297.74 518.58 298.13 517.67 298.51 516.78C295.41 515.27 292.32 513.69 289.3 512.09C289.26 512.2 289.07 512.73 288.73 513.69C288.76 513.71 288.78 513.72 288.78 513.74ZM321.94 519.41C319.63 517.12 317.23 514.88 314.81 512.78C314.81 512.77 314.79 512.76 314.77 512.73L315.27 511.45C315.31 511.47 315.33 511.47 315.34 511.47C315.36 511.47 315.38 511.5 315.43 511.5C315.43 511.5 315.46 511.5 315.5 511.5C315.5 511.54 315.5 511.56 315.5 511.57C315.52 511.68 315.59 511.79 315.68 511.86C318.03 513.62 320.39 515.52 322.65 517.51C322.65 517.51 322.67 517.52 322.7 517.53C322.68 517.56 322.68 517.57 322.67 517.58C322.49 518.17 322.29 518.77 322.08 519.36C322.08 519.37 322.06 519.41 322.03 519.5C321.98 519.44 321.95 519.41 321.94 519.41ZM321.97 519.22C322.15 518.67 322.33 518.15 322.49 517.6C320.23 515.61 317.92 513.74 315.57 512C315.45 511.91 315.38 511.82 315.34 511.68C315.31 511.75 315.18 512.09 314.95 512.71C318.1 515.56 320.44 517.73 321.97 519.22ZM253.6 514.17C253.59 514.14 253.58 514.13 253.58 514.13C253.23 513.07 252.94 512.21 252.69 511.38C252.68 511.37 252.66 511.31 252.62 511.2C255.92 512.98 257.76 513.97 258.13 514.17C258.26 514.24 258.42 514.33 258.56 514.4C259.41 514.83 260.18 515.25 260.64 516.14C260.94 516.71 261.14 517.35 261.3 517.83C261.31 517.84 261.33 517.9 261.37 518.01L253.6 514.17ZM253.71 514.06C254.45 514.42 260.38 517.35 261.12 517.71C260.98 517.26 260.78 516.73 260.53 516.23C260.09 515.38 259.31 514.99 258.51 514.56C258.38 514.49 258.22 514.4 258.08 514.33C257.56 514.05 253.41 511.82 252.89 511.54C253.14 512.3 253.39 513.12 253.71 514.06C253.71 514.06 253.71 514.06 253.71 514.06Z" id="c2ynKzTehO"></path><path d="M311.2 525.87C310.93 525.6 310.49 526.03 310.77 526.31C312.8 528.25 314.83 530.19 316.87 532.14C317.17 532.41 317.6 531.98 317.3 531.7C315.27 529.76 313.23 527.82 311.2 525.87Z" id="b3YynYbumf"></path><path d="M317.07 532.3C316.98 532.3 316.89 532.25 316.82 532.18C316.21 531.6 311.33 526.94 310.72 526.35C310.61 526.24 310.58 526.1 310.63 525.97C310.7 525.81 310.83 525.71 310.99 525.71C311.09 525.71 311.18 525.76 311.25 525.83C311.86 526.41 316.74 531.07 317.35 531.66C317.46 531.77 317.49 531.91 317.44 532.05C317.39 532.18 317.23 532.3 317.07 532.3C317.07 532.3 317.07 532.3 317.07 532.3ZM310.77 526.03C310.74 526.08 310.72 526.17 310.81 526.26C311.42 526.85 316.3 531.51 316.91 532.09C316.96 532.14 317.01 532.16 317.07 532.16C317.07 532.16 317.07 532.16 317.07 532.16C317.17 532.16 317.26 532.09 317.3 532C317.33 531.95 317.35 531.86 317.26 531.77C316.65 531.19 311.76 526.53 311.15 525.94C311.09 525.9 311.04 525.87 310.99 525.87C310.9 525.87 310.81 525.94 310.77 526.03Z" id="djtcX5KmG"></path></defs><g><g><g><use xlink:href="#b796D5Lgp" opacity="1" fill="#000000" fill-opacity="1"></use><g><use xlink:href="#b796D5Lgp" opacity="1" fill-opacity="0" stroke="#000000" stroke-width="1" stroke-opacity="0"></use></g></g><g><use xlink:href="#c2ynKzTehO" opacity="1" fill="#180f0b" fill-opacity="1"></use><g><use xlink:href="#c2ynKzTehO" opacity="1" fill-opacity="0" stroke="#000000" stroke-width="1" stroke-opacity="0"></use></g></g><g><use xlink:href="#b3YynYbumf" opacity="1" fill="#000000" fill-opacity="1"></use><g><use xlink:href="#b3YynYbumf" opacity="1" fill-opacity="0" stroke="#000000" stroke-width="1" stroke-opacity="0"></use></g></g><g><use xlink:href="#djtcX5KmG" opacity="1" fill="#180f0b" fill-opacity="1"></use><g><use xlink:href="#djtcX5KmG" opacity="1" fill-opacity="0" stroke="#000000" stroke-width="1" stroke-opacity="0"></use></g></g></g></g></svg>