<?xml version="1.0" encoding="UTF-8" standalone="no"?>
<!DOCTYPE svg PUBLIC "-//W3C//DTD SVG 1.1//EN" "http://www.w3.org/Graphics/SVG/1.1/DTD/svg11.dtd">
<svg version="1.1" xmlns="http://www.w3.org/2000/svg" xmlns:xlink="http://www.w3.org/1999/xlink" preserveAspectRatio="xMidYMid meet" viewBox="346.66628571464906 508.25142857142873 60.485407987166695 61.942857142857406" width="60.49" height="61.94"><defs><path d="M407.02 568.48C406.97 568.25 406.74 568.11 406.54 568.11C406.51 568.11 406.51 568.11 406.49 568.11C406.47 568.09 406.47 568.05 406.45 568.02C401.55 560.07 396.69 552.11 391.79 544.16C391.82 544.05 391.77 543.93 391.66 543.86C391.63 543.86 391.61 543.84 391.61 543.84C390.95 542.74 390.26 541.65 389.6 540.55C389.6 540.55 389.6 540.55 389.6 540.53C395.59 533.26 400.98 525.49 405.71 517.33C405.81 517.39 405.92 517.46 406.01 517.53C406.33 517.76 406.63 517.23 406.31 517.01C406.19 516.94 406.1 516.87 405.99 516.8C406.22 516.39 406.47 515.98 406.7 515.57C406.97 515.09 406.35 514.63 405.99 514.88C405.97 514.79 405.9 514.7 405.81 514.63C405.76 514.59 405.39 514.32 405.35 514.29C405.3 514.24 405.23 514.22 405.19 514.22C402.7 512.53 400.27 510.72 397.97 508.8C397.94 508.78 397.9 508.75 397.87 508.73C397.78 508.66 397.67 508.64 397.55 508.66C392.48 508.3 387.41 508.23 382.31 508.46C381.83 508.48 381.71 509.03 381.92 509.3C379.68 512.53 377.35 515.68 374.9 518.77C374.45 518.08 374.01 517.39 373.55 516.71C373.69 516.57 373.71 516.34 373.49 516.25C373.37 516.21 373.26 516.14 373.14 516.09C373.07 515.98 372.98 515.86 372.91 515.75C372.18 514.63 371.57 513.67 370.35 513.03C367.77 511.61 365.07 510.38 362.45 509.05C362.17 508.91 361.9 509.05 361.76 509.23C361.49 509.17 361.17 509.17 360.85 509.14C359.41 509.12 357.97 509.07 356.5 509.05C355.04 509.03 353.62 508.98 352.16 508.96C351.5 508.94 350.86 508.94 350.19 508.91C349.81 508.91 349.42 508.89 349.01 508.89C348.87 508.89 348.46 508.94 348.14 508.91C348.11 508.87 348.07 508.8 348.02 508.75C348 508.73 347.98 508.71 347.95 508.69C347.77 508.5 347.57 508.5 347.34 508.62C347.25 508.66 347.2 508.69 347.13 508.75C346.79 508.8 346.49 509.28 346.83 509.62C347.15 509.97 347.41 510.33 347.61 510.72C347.59 510.83 347.59 510.95 347.68 511.06C352.78 519.38 358.26 527.45 364.14 535.27C364.27 535.45 364.46 535.5 364.64 535.47C358.31 543.79 352.39 552.43 346.88 561.33C346.72 561.6 346.83 561.85 347.02 561.97C347.04 562.01 347.06 562.06 347.11 562.1C348.57 563.84 350.06 565.55 351.52 567.29C352.73 568.73 353.65 569.85 355.63 569.92C357.83 570.01 360.07 569.81 362.24 569.76C364.37 569.71 366.49 569.65 368.62 569.6C368.75 569.92 369.28 570.06 369.53 569.67C369.53 569.67 369.53 569.67 369.53 569.67C369.71 569.58 369.87 569.39 369.87 569.21C369.87 569.19 369.87 569.17 369.9 569.12C370.51 568.16 371.13 567.2 371.77 566.24C371.79 566.26 371.82 566.29 371.86 566.31C372.14 566.58 372.57 566.15 372.3 565.87C372.28 565.86 372.13 565.73 372.11 565.71C372.57 565.01 373.03 564.32 373.49 563.61C373.67 563.59 373.83 563.38 373.74 563.2C373.85 563.03 374.72 561.66 374.83 561.49C374.86 561.46 374.88 561.44 374.9 561.39C375.73 560.11 376.55 558.83 377.39 557.55C378.86 559.7 380.39 561.81 381.97 563.84C382.15 564.09 382.42 564.05 382.58 563.89C382.61 563.91 382.63 563.91 382.65 563.93C382.67 563.93 382.67 563.95 382.7 563.95C384.48 564.98 386.19 566.08 387.84 567.29C389.58 568.55 390.93 570.06 393.19 570.01C395.57 569.97 397.97 569.78 400.37 569.67C401.58 569.6 402.77 569.55 403.98 569.49C404.53 569.46 405.3 569.55 405.97 569.46C406.19 569.58 406.42 569.49 406.56 569.3C406.67 569.26 406.79 569.19 406.88 569.12C407.06 569.03 407.09 568.82 407.06 568.64C407.04 568.59 407.04 568.53 407.02 568.48ZM404.62 566.99C403.86 566.38 403.11 565.78 402.31 565.21C401.53 564.66 400.73 564.14 399.93 563.63C399.52 563.38 399.11 563.15 398.7 562.9C398.54 562.81 398.06 562.63 397.67 562.42C397.69 562.17 397.55 561.92 397.23 561.9C396.98 561.51 396.73 561.12 396.48 560.71C397.08 561.05 401.87 563.81 402.47 564.16C402.63 564.25 402.77 564.21 402.86 564.11C403.45 565.07 404.05 566.03 404.62 566.99ZM395.79 559.61C395.27 558.79 394.74 557.94 394.22 557.12C396.07 557.85 397.81 558.81 399.41 559.98C399.73 560.21 400.02 559.68 399.7 559.45C397.85 558.1 395.82 557.03 393.67 556.25C393.14 555.43 392.64 554.61 392.14 553.76C394.26 554.83 396.37 555.91 398.49 556.98C399.82 559.15 401.14 561.3 402.47 563.45C400.25 562.17 398.01 560.89 395.79 559.61ZM397.9 556.02C395.77 554.95 393.67 553.87 391.54 552.8C391.06 552.02 390.58 551.25 390.13 550.47C392.21 551.31 394.19 552.37 396.07 553.6C396.18 553.67 396.3 553.65 396.39 553.58C396.89 554.4 397.39 555.2 397.9 556.02ZM395.89 552.78C393.9 551.5 391.79 550.45 389.58 549.62C389.28 549.14 388.98 548.66 388.71 548.18C390.67 549.14 392.62 550.1 394.58 551.06C394.67 551.09 394.77 551.09 394.83 551.06C395.04 551.41 395.78 552.61 395.89 552.78ZM388.14 547.22C387.54 546.24 386.95 545.23 386.35 544.25C388.48 545.6 390.65 546.83 392.91 547.91C393.01 548.07 393.49 548.85 394.35 550.26C391.6 548.91 389.52 547.89 388.14 547.22ZM383.98 539.15C383.66 538.93 383.36 539.45 383.68 539.68C385.87 541.21 388.11 542.61 390.47 543.89C390.65 544.19 392.13 546.62 392.32 546.93C390.26 545.9 388.27 544.75 386.35 543.5C386.19 543.41 386.06 543.45 385.97 543.59C384.71 541.49 383.43 539.36 382.17 537.23C382.38 537.37 382.54 537.51 382.65 537.6C382.85 537.73 384.46 538.75 384.66 538.88C386.01 539.73 387.36 540.57 388.71 541.42C388.8 541.46 388.89 541.49 388.96 541.49C389.26 541.94 389.53 542.4 389.81 542.83C387.82 541.69 385.87 540.48 383.98 539.15ZM388.57 540.14C386.77 538.99 384.96 537.85 383.15 536.73C382.79 536.5 382.35 536.14 381.9 535.86C382.17 535.43 382.45 534.97 382.7 534.54C385.07 535.57 387.43 536.66 389.74 537.81C390.08 537.99 390.4 537.46 390.03 537.28C387.7 536.14 385.37 535.06 382.99 534.01C383.29 533.53 383.57 533.05 383.86 532.57C386.47 533.39 388.91 534.58 391.15 536.16C391.47 536.39 391.77 535.86 391.45 535.63C389.21 534.08 386.77 532.87 384.18 532.05C384.48 531.57 384.78 531.09 385.07 530.58C385.07 530.67 385.12 530.74 385.21 530.81C387.73 532.18 390.33 533.39 393.01 534.45C393.01 534.45 393.03 534.45 393.03 534.45C391.63 536.37 390.15 538.26 388.59 540.11C388.59 540.12 388.58 540.13 388.57 540.14ZM393.21 533.85C390.58 532.82 388.05 531.63 385.58 530.29C385.49 530.24 385.39 530.24 385.3 530.26C385.62 529.71 385.97 529.19 386.29 528.64C386.38 528.82 386.49 529.03 386.58 529.21C386.72 529.49 387.09 529.35 387.13 529.1C389.53 530.29 391.93 531.5 394.29 532.75C394.01 533.21 393.71 533.62 393.39 534.03C393.37 533.97 393.3 533.9 393.21 533.85ZM388.48 525.76C388.16 525.55 387.84 526.08 388.18 526.29C388.93 526.76 394.87 530.59 395.61 531.06C395.31 531.47 395.02 531.91 394.7 532.32C392.07 530.9 389.42 529.55 386.72 528.25C386.67 528.23 386.63 528.23 386.58 528.23C387.41 526.88 388.23 525.51 389.07 524.16C389.07 524.16 389.1 524.16 389.1 524.16C389.87 524.11 390.45 524.66 391.04 525.07C391.24 525.21 392.83 526.31 393.03 526.45C394.33 527.36 395.63 528.25 396.94 529.17C396.62 529.62 396.27 530.08 395.95 530.56C393.46 528.96 390.97 527.36 388.48 525.76ZM393.01 525.67C392 524.98 390.72 523.66 389.42 523.54C389.55 523.32 390.63 521.55 390.77 521.33C391.79 521.94 397.55 526.08 398.13 526.47C398.45 526.7 398.74 526.17 398.42 525.94C396.8 524.8 395.18 523.68 393.55 522.54C392.73 521.97 391.89 521.37 391.06 520.8C391.16 520.64 391.93 519.38 392.02 519.22C394.29 520.91 396.55 522.63 398.79 524.32C399.11 524.55 399.41 524.02 399.09 523.79C396.82 522.1 394.58 520.39 392.32 518.7C392.62 518.22 392.91 517.74 393.19 517.26C395.77 519.18 398.47 520.94 401.28 522.54C400.02 524.62 398.67 526.65 397.3 528.64C395.86 527.66 394.45 526.65 393.01 525.67ZM393.58 516.75C393.78 516.43 393.97 516.11 394.17 515.79C396.69 517.3 399.18 518.79 401.69 520.3C402.03 520.5 402.33 519.98 401.99 519.77C399.5 518.26 396.98 516.78 394.49 515.27C394.83 514.72 395.18 514.15 395.5 513.6C395.52 513.67 395.57 513.74 395.63 513.76C398.4 515.29 401.1 516.89 403.79 518.56C403.09 519.73 402.38 520.89 401.67 522.03C398.86 520.43 396.16 518.67 393.58 516.75ZM395.93 513.26C395.86 513.21 395.79 513.21 395.73 513.23C396.02 512.73 396.34 512.23 396.64 511.73C399.45 513.3 402.17 514.99 404.85 516.78C404.59 517.19 404.34 517.62 404.09 518.06C401.42 516.39 398.7 514.79 395.93 513.26ZM405.28 515.52C405.37 515.57 405.44 515.61 405.53 515.61C405.42 515.82 405.28 516.05 405.17 516.25C402.51 514.45 399.77 512.78 396.98 511.2C397.21 510.77 397.46 510.33 397.74 509.92C400.16 511.91 402.67 513.76 405.28 515.52ZM374.22 519.57C374.01 519.82 373.81 520.07 373.6 520.32C371.93 519.7 370.29 519.02 368.66 518.31C368.16 517.6 367.66 516.89 367.15 516.18C369.49 517.1 371.73 518.08 373.94 519.13C374.03 519.27 374.13 519.43 374.22 519.57ZM370.38 520.69C370.03 520.23 369.69 519.75 369.35 519.29C370.63 519.84 371.91 520.34 373.21 520.85C372.73 521.42 372.25 522.01 371.77 522.58C371.5 522.24 371.25 521.87 370.99 521.53C371.34 521.65 371.68 521.76 372.05 521.85C372.41 521.94 372.57 521.37 372.21 521.26C371.59 521.07 370.99 520.87 370.38 520.69ZM372.05 516.23C372.48 516.89 372.89 517.53 373.33 518.17C371.11 517.14 368.87 516.18 366.58 515.31C366.03 514.51 365.49 513.71 364.94 512.89C365.37 513.1 365.81 513.37 366.08 513.49C366.93 513.85 367.75 514.24 368.59 514.61C369.74 515.15 370.88 515.68 372.05 516.23C372.05 516.23 372.05 516.23 372.05 516.23ZM370.88 514.58C371.09 514.79 371.29 515.02 371.45 515.29C370.35 514.79 369.26 514.29 368.16 513.78C367.31 513.42 366.49 513.03 365.65 512.66C365.28 512.5 364.78 512.18 364.32 512.02C364 511.57 363.68 511.09 363.38 510.63C365.33 511.59 367.27 512.57 369.21 513.55C369.81 513.85 370.38 514.13 370.88 514.58ZM352.05 566.29C351.72 565.9 349.08 562.81 348.75 562.42C349.37 562.49 350.01 562.54 350.63 562.61C352.53 564.71 354.45 566.83 356.34 568.94C355.59 568.94 354.81 568.91 354.13 568.53C353.3 568.05 352.66 566.99 352.05 566.29ZM357.07 568.87C357.07 568.8 357.05 568.73 356.98 568.69C355.15 566.67 353.35 564.66 351.52 562.65C352.25 562.72 352.96 562.79 353.69 562.86C355.73 564.82 357.76 566.77 359.79 568.73C360.07 569.01 360.5 568.57 360.23 568.3C358.38 566.51 356.53 564.73 354.67 562.95C355.61 563.04 356.57 563.13 357.51 563.2C357.53 563.2 357.53 563.2 357.55 563.2C359.45 565.03 361.33 566.88 363.22 568.71C361.19 568.78 359.15 568.82 357.14 568.87C357.12 568.87 357.1 568.87 357.07 568.87ZM364.07 568.69C362.22 566.88 360.37 565.07 358.51 563.29C358.86 563.31 359.18 563.36 359.52 563.38C360.16 563.45 360.94 563.63 361.58 563.5C361.69 563.47 361.83 563.43 361.94 563.38C363.95 565.12 365.94 566.86 367.95 568.59C366.65 568.62 365.35 568.66 364.07 568.69C364.07 568.69 364.07 568.69 364.07 568.69ZM362.81 562.79C363.06 562.54 363.31 562.26 363.54 561.99C365.39 563.5 367.22 565.01 369.07 566.51C369.37 566.77 369.81 566.33 369.51 566.08C368.95 565.62 364.49 561.97 363.93 561.51C364.02 561.37 364.14 561.26 364.23 561.14C364.66 560.64 365.07 560.11 365.49 559.59C365.92 560.73 366.99 561.53 367.86 562.38C368.19 562.69 370.78 565.2 371.11 565.51C370.47 566.47 369.85 567.43 369.23 568.37C367.11 566.49 364.96 564.64 362.81 562.79ZM369.14 562.81C368.14 561.83 366.51 560.73 366.03 559.38C365.99 559.27 365.92 559.22 365.83 559.18C366.22 558.7 366.58 558.22 366.95 557.74C368.87 559.5 370.79 561.26 372.71 563.02C372.27 563.68 371.84 564.34 371.41 565.01C370.65 564.27 369.9 563.54 369.14 562.81ZM367.36 557.3C367.34 557.28 367.31 557.28 367.31 557.26C367.79 556.62 368.25 555.95 368.71 555.29C370.65 557.03 372.43 558.93 374.06 560.94C373.71 561.46 373.37 561.99 373.03 562.49C371.13 560.75 369.23 559.02 367.36 557.3ZM369.03 554.77C369.71 553.71 370.38 552.62 370.95 551.5C370.97 551.52 370.97 551.57 371.02 551.59C372.8 553.37 374.61 555.15 376.39 556.94C376.43 556.98 376.5 557.01 376.55 557.03C375.84 558.17 375.11 559.29 374.38 560.41C372.75 558.4 370.97 556.5 369.03 554.77ZM372.09 549.12C373.49 551.54 374.95 553.9 376.5 556.23C374.81 554.56 373.14 552.87 371.45 551.2C371.38 551.09 371.27 551.09 371.18 551.11C371.5 550.47 371.82 549.81 372.09 549.12ZM382.45 562.81C378.77 558.01 375.41 552.96 372.43 547.7C372.21 547.29 371.66 547.43 371.52 547.82C369.83 552.46 366.81 556.41 363.7 560.16C363.18 560.8 362.67 561.62 361.99 562.1C361.67 561.9 361.26 562.15 361.19 562.45C361.03 562.47 360.87 562.49 360.71 562.47C359.36 562.38 358.03 562.22 356.69 562.1C353.87 561.85 351.04 561.58 348.23 561.33C348.18 561.33 348.14 561.33 348.09 561.33C353.6 552.48 359.52 543.89 365.83 535.59C366.17 535.15 365.58 534.72 365.14 534.93C365.12 534.86 365.1 534.79 365.05 534.72C359.27 527.04 353.85 519.09 348.82 510.88C348.82 510.81 348.8 510.72 348.78 510.65C348.66 510.4 348.53 510.15 348.39 509.92C348.89 509.94 349.39 509.87 349.81 509.9C351.25 509.92 352.69 509.97 354.15 509.99C355.45 510.01 356.78 510.06 358.08 510.08C358.74 510.1 359.38 510.1 360.05 510.13C360.87 510.15 361.69 509.97 362.22 510.74C362.61 511.34 362.99 511.91 363.38 512.48C363.41 512.53 363.43 512.55 363.45 512.59C363.45 512.59 363.45 512.59 363.47 512.62C365.94 516.25 368.43 519.86 371.11 523.36C371.09 523.38 371.06 523.41 371.04 523.43C370.63 523.93 371.34 524.64 371.75 524.14C371.75 524.14 371.75 524.11 371.77 524.11C372.18 524.3 372.75 523.86 372.43 523.43C372.41 523.41 372.41 523.38 372.39 523.38C373.01 522.65 373.6 521.92 374.19 521.19C374.29 521.21 374.35 521.26 374.45 521.28C374.81 521.42 374.97 520.82 374.61 520.69C374.61 520.69 374.61 520.69 374.61 520.69C377.53 517.05 380.34 513.3 382.99 509.46C383.02 509.44 383.02 509.42 383.04 509.39C387.61 509.21 392.18 509.28 396.75 509.58C395.43 511.75 394.1 513.94 392.78 516.11C392.75 516.09 392.73 516.09 392.71 516.07C392.39 515.84 392.09 516.37 392.41 516.59C392.43 516.62 392.46 516.62 392.46 516.64C392.36 516.79 391.61 518.02 391.52 518.17C391.41 518.22 391.31 518.35 391.31 518.49C390.28 520.19 381.97 533.8 380.94 535.5C380.91 535.5 380.89 535.5 380.87 535.5C380.64 535.5 380.48 535.63 380.39 535.82C380.37 535.84 380.37 535.86 380.37 535.91C380.32 536.05 380.32 536.21 380.37 536.37C380.41 536.5 380.53 536.64 380.69 536.71C384.57 543.25 388.48 549.78 392.5 556.25C392.5 556.37 392.55 556.48 392.69 556.55C393.21 557.42 393.76 558.26 394.31 559.13C394.24 559.27 394.26 559.43 394.42 559.52C394.49 559.57 394.56 559.59 394.63 559.63C395.11 560.41 395.61 561.19 396.09 561.94C391.75 562.15 387.41 562.49 383.09 563.02C382.99 562.97 382.9 562.9 382.81 562.86C382.67 562.79 382.56 562.77 382.45 562.81ZM388.09 566.24C386.93 565.39 385.74 564.62 384.5 563.89C385.37 563.79 386.22 563.7 387.09 563.61C387.09 563.63 387.11 563.63 387.11 563.66C389.19 565.55 391.34 567.36 393.6 569.03C393.51 569.01 393.37 569.03 393.23 569.03C391.18 569.12 389.65 567.36 388.09 566.24ZM387.91 563.52C388.89 563.43 389.87 563.36 390.86 563.27C391.73 564.27 392.8 565.12 393.78 566.01C394.81 566.95 395.84 567.89 396.87 568.85C396.09 568.89 395.34 568.94 394.58 568.96C392.25 567.27 390.03 565.44 387.91 563.52ZM397.69 568.82C396.53 567.75 395.36 566.67 394.19 565.6C393.35 564.82 392.43 564.07 391.61 563.22C392.5 563.15 393.37 563.11 394.26 563.06C394.26 563.13 394.29 563.2 394.35 563.27C396.34 565.23 398.47 567.04 400.73 568.66C400.5 568.69 400.25 568.69 400 568.71C399.22 568.75 398.47 568.78 397.69 568.82ZM403.22 568.53C402.72 568.55 402.22 568.57 401.71 568.59C399.31 566.9 397.07 565.03 394.99 562.99C395.54 562.97 396.07 562.93 396.62 562.9C396.98 563.2 397.49 563.36 397.87 563.59C398.81 564.11 399.73 564.66 400.62 565.26C402.1 566.24 403.5 567.31 404.82 568.46C404.82 568.46 404.82 568.46 404.82 568.46C404.3 568.48 403.75 568.5 403.22 568.53Z" id="i1VyczzZNz"></path><path d="M388.8 568.11C388.48 567.86 388.16 567.61 387.82 567.36C386.19 566.19 384.46 565.07 382.67 564.05C382.65 564.05 382.65 564.02 382.63 564.02C382.63 564.02 382.61 564.02 382.61 564.02C382.51 564.09 382.4 564.14 382.29 564.14C382.19 564.14 382.03 564.09 381.9 563.93C380.37 561.97 378.83 559.86 377.37 557.71C377.13 558.09 375.19 561.07 374.95 561.44C374.93 561.46 374.9 561.51 374.88 561.53C374.77 561.7 373.91 563.03 373.81 563.2C373.83 563.29 373.81 563.38 373.76 563.45C373.71 563.54 373.6 563.63 373.51 563.66C373.42 563.79 372.98 564.47 372.18 565.69C372.27 565.76 372.31 565.8 372.32 565.81C372.43 565.92 372.46 566.06 372.41 566.19C372.34 566.35 372.21 566.45 372.05 566.45C371.95 566.45 371.86 566.4 371.79 566.33C371.79 566.33 371.79 566.32 371.77 566.31C370.69 567.98 370.09 568.91 369.97 569.1C369.97 569.12 369.97 569.14 369.97 569.17C369.97 569.37 369.81 569.58 369.6 569.69C369.49 569.85 369.33 569.94 369.14 569.94C368.91 569.94 368.71 569.83 368.59 569.65C367.96 569.66 362.9 569.79 362.26 569.81C361.55 569.83 360.82 569.85 360.11 569.9C359.02 569.94 357.9 569.99 356.8 569.99C356.39 569.99 356.02 569.99 355.66 569.97C353.69 569.9 352.75 568.8 351.59 567.43C351.14 566.9 347.54 562.66 347.09 562.13C347.04 562.08 347.02 562.03 346.99 561.99C346.79 561.83 346.65 561.55 346.86 561.26C352.32 552.46 358.26 543.82 364.53 535.52C364.37 535.5 364.23 535.41 364.11 535.29C358.26 527.52 352.73 519.38 347.66 511.09C347.59 510.97 347.57 510.83 347.59 510.7C347.38 510.31 347.11 509.94 346.83 509.65C346.67 509.49 346.63 509.28 346.7 509.07C346.77 508.87 346.95 508.71 347.15 508.66C347.2 508.62 347.27 508.57 347.36 508.53C347.63 508.41 347.86 508.43 348.05 508.62C348.05 508.62 348.11 508.68 348.11 508.69C348.16 508.73 348.18 508.78 348.21 508.82C348.39 508.82 348.59 508.82 348.75 508.8C348.87 508.8 348.94 508.8 349.01 508.8C350.19 508.83 359.66 509.05 360.85 509.07C361.14 509.07 361.44 509.1 361.74 509.14C361.92 508.91 362.22 508.82 362.47 508.96C363.34 509.39 364.23 509.83 365.1 510.26C366.83 511.11 368.64 512 370.38 512.94C371.59 513.6 372.23 514.56 372.96 515.68C372.98 515.7 373.05 515.82 373.19 516.02C373.38 516.12 373.49 516.17 373.51 516.18C373.62 516.23 373.69 516.32 373.71 516.41C373.74 516.5 373.71 516.62 373.65 516.71C373.77 516.9 374.78 518.44 374.9 518.63C377.33 515.59 379.63 512.43 381.83 509.3C381.71 509.14 381.71 508.89 381.81 508.71C381.9 508.5 382.08 508.39 382.31 508.39C384.25 508.3 386.24 508.25 388.18 508.25C391.29 508.25 394.45 508.37 397.55 508.59C397.55 508.59 397.58 508.59 397.58 508.59C397.69 508.59 397.78 508.62 397.9 508.69C397.94 508.71 397.97 508.73 398.01 508.75C400.3 510.65 402.72 512.48 405.21 514.17C405.28 514.19 405.33 514.22 405.39 514.26C405.44 514.3 405.81 514.57 405.85 514.61C405.92 514.67 405.99 514.74 406.03 514.81C406.29 514.7 406.63 514.83 406.79 515.09C406.88 515.27 406.88 515.45 406.79 515.63C406.56 516.02 406.33 516.41 406.13 516.8C406.15 516.82 406.35 516.96 406.38 516.98C406.51 517.07 406.58 517.26 406.51 517.42C406.45 517.67 406.17 517.76 405.97 517.62C405.94 517.61 405.76 517.48 405.74 517.46C401.05 525.53 395.66 533.3 389.69 540.55C389.82 540.76 390.49 541.85 391.68 543.79C391.69 543.81 391.7 543.82 391.7 543.82C391.84 543.89 391.91 544.02 391.89 544.16C393.35 546.54 405.05 565.62 406.51 568C406.54 568.02 406.54 568.05 406.54 568.07C406.77 568.07 407.04 568.23 407.09 568.5C407.09 568.52 407.13 568.65 407.13 568.66C407.18 568.85 407.15 569.07 406.97 569.23C406.88 569.3 406.79 569.37 406.65 569.44C406.49 569.65 406.24 569.71 406.01 569.62C405.81 569.65 405.58 569.67 405.28 569.67C405.1 569.67 404.91 569.67 404.73 569.67C404.48 569.67 404.23 569.65 404.02 569.67C403.66 569.69 400.77 569.83 400.41 569.85C399.61 569.9 398.83 569.94 398.03 569.99C396.46 570.08 394.83 570.17 393.23 570.19C393.23 570.19 393.2 570.16 393.14 570.1C391.12 569.46 389.67 568.8 388.8 568.11ZM382.74 563.91C382.77 563.91 382.77 563.93 382.79 563.93C384.59 564.96 386.31 566.08 387.93 567.27C388.27 567.52 388.59 567.77 388.91 568.02C390.19 569.03 391.41 569.99 393.17 569.99C393.17 569.99 393.25 569.99 393.26 569.99C394.86 569.97 396.48 569.87 398.06 569.78C398.86 569.74 399.63 569.69 400.43 569.65C400.8 569.63 403.68 569.48 404.05 569.46C404.25 569.46 404.5 569.46 404.75 569.46C404.94 569.46 405.12 569.46 405.3 569.46C405.6 569.46 405.83 569.44 406.03 569.42C406.04 569.42 406.04 569.42 406.06 569.42C406.07 569.42 406.08 569.42 406.08 569.42C406.26 569.51 406.45 569.44 406.58 569.28C406.58 569.28 406.59 569.27 406.61 569.26C406.62 569.26 406.63 569.26 406.63 569.26C406.74 569.21 406.86 569.14 406.93 569.07C407.04 568.96 407.06 568.78 407.04 568.66C407.04 568.65 407 568.52 406.99 568.5C406.95 568.32 406.74 568.21 406.58 568.18C406.58 568.18 406.55 568.18 406.49 568.18C406.48 568.16 406.47 568.14 406.47 568.14C406.47 568.11 406.45 568.09 406.42 568.07C405.45 566.48 400.56 558.51 391.77 544.18C391.77 544.17 391.77 544.16 391.77 544.16C391.77 544.11 391.77 544 391.66 543.95C391.65 543.95 391.63 543.94 391.59 543.91L389.53 540.55C389.55 540.52 389.55 540.51 389.55 540.5C395.54 533.23 400.96 525.44 405.67 517.33C405.67 517.32 405.69 517.3 405.71 517.26C405.93 517.41 406.06 517.49 406.08 517.51C406.19 517.6 406.35 517.53 406.4 517.37C406.42 517.33 406.45 517.19 406.31 517.1C406.28 517.08 406.16 517 405.94 516.85C405.97 516.8 405.99 516.78 405.99 516.78C406.22 516.37 406.47 515.95 406.7 515.54C406.77 515.41 406.77 515.27 406.7 515.13C406.58 514.93 406.26 514.83 406.08 514.95C406.07 514.95 406.04 514.97 405.99 514.99C405.97 514.94 405.97 514.91 405.97 514.9C405.94 514.81 405.87 514.74 405.81 514.67C405.76 514.64 405.39 514.37 405.35 514.33C405.3 514.31 405.26 514.29 405.21 514.26C405.21 514.26 405.19 514.26 405.19 514.26C402.67 512.57 400.25 510.74 397.97 508.82C397.94 508.8 397.92 508.78 397.87 508.75C397.78 508.71 397.69 508.69 397.6 508.69C394.49 508.46 391.34 508.34 388.23 508.34C386.29 508.34 384.3 508.39 382.35 508.48C382.13 508.48 382.03 508.64 381.99 508.73C381.92 508.89 381.94 509.1 382.03 509.21C382.04 509.21 382.04 509.23 382.06 509.26C382.04 509.28 382.04 509.3 382.03 509.3C379.82 512.5 377.46 515.68 375.02 518.77C375.01 518.77 374.99 518.8 374.95 518.86L373.51 516.66C373.54 516.64 373.55 516.62 373.55 516.62C373.62 516.55 373.65 516.48 373.62 516.41C373.62 516.37 373.58 516.32 373.51 516.27C373.48 516.26 373.36 516.21 373.14 516.11C373.01 515.89 372.93 515.77 372.91 515.75C372.18 514.63 371.57 513.69 370.38 513.05C368.64 512.11 366.86 511.22 365.1 510.38C364.23 509.97 363.34 509.51 362.47 509.07C362.26 508.96 362.01 509.05 361.9 509.23C361.9 509.24 361.89 509.25 361.87 509.28C361.85 509.28 361.83 509.28 361.83 509.28C361.55 509.21 361.23 509.21 360.91 509.19C359.73 509.16 350.28 508.94 349.1 508.91C349.1 508.91 349.1 508.91 349.1 508.91C349.03 508.91 348.96 508.91 348.85 508.91C348.66 508.91 348.43 508.94 348.23 508.94C348.23 508.94 348.21 508.94 348.18 508.94C348.17 508.91 348.16 508.89 348.16 508.89C348.14 508.85 348.11 508.8 348.07 508.75C348.06 508.75 348.01 508.69 348 508.69C347.86 508.55 347.68 508.53 347.47 508.62C347.41 508.64 347.34 508.69 347.29 508.73C347.29 508.73 347.28 508.74 347.27 508.75C347.25 508.75 347.25 508.75 347.25 508.75C347.09 508.78 346.93 508.91 346.88 509.07C346.83 509.21 346.86 509.37 346.97 509.49C347.27 509.81 347.54 510.19 347.77 510.61C347.77 510.61 347.78 510.61 347.79 510.63C347.79 510.64 347.79 510.65 347.79 510.65C347.77 510.74 347.79 510.86 347.84 510.95C352.91 519.25 358.45 527.38 364.3 535.15C364.41 535.31 364.55 535.34 364.66 535.34C364.69 535.34 364.71 535.34 364.73 535.34C364.74 535.34 364.8 535.33 364.91 535.31C364.85 535.4 364.81 535.44 364.8 535.45C358.49 543.77 352.53 552.46 347.04 561.28C346.88 561.53 347.02 561.71 347.15 561.83C347.16 561.83 347.16 561.84 347.18 561.85C347.18 561.87 347.18 561.87 347.18 561.87C347.2 561.92 347.22 561.97 347.25 561.99C347.7 562.52 351.3 566.76 351.75 567.29C352.89 568.64 353.81 569.71 355.7 569.78C356.07 569.81 356.43 569.81 356.85 569.81C357.94 569.81 359.09 569.76 360.16 569.71C360.87 569.69 361.6 569.65 362.31 569.62C362.74 569.61 364.88 569.56 368.73 569.46C368.75 569.49 368.75 569.51 368.75 569.51C368.82 569.67 369.01 569.78 369.19 569.78C369.28 569.78 369.44 569.74 369.53 569.58C369.53 569.58 369.54 569.57 369.55 569.55C369.57 569.55 369.58 569.55 369.58 569.55C369.76 569.49 369.87 569.33 369.87 569.17C369.87 569.16 369.87 569.15 369.87 569.14C369.87 569.12 369.87 569.1 369.87 569.07C369.88 569.07 369.88 569.06 369.9 569.03L371.82 566.08C371.9 566.16 371.95 566.21 371.95 566.22C372.07 566.33 372.27 566.26 372.34 566.13C372.37 566.08 372.39 565.99 372.3 565.9C372.28 565.88 372.21 565.81 372.07 565.69L373.49 563.5C373.5 563.5 373.51 563.5 373.51 563.5C373.58 563.47 373.65 563.43 373.69 563.36C373.71 563.34 373.74 563.27 373.71 563.2C373.71 563.2 373.71 563.18 373.69 563.15C374.36 562.11 374.74 561.53 374.81 561.42C374.83 561.39 374.86 561.37 374.86 561.35C375.03 561.09 375.88 559.78 377.42 557.42C377.46 557.47 377.48 557.5 377.49 557.51C378.97 559.68 380.5 561.81 382.06 563.79C382.19 563.98 382.4 563.98 382.58 563.84C382.59 563.84 382.6 563.84 382.63 563.84C382.7 563.88 382.74 563.9 382.74 563.91ZM389.1 567.11C388.73 566.81 388.41 566.54 388.05 566.29C386.95 565.49 385.78 564.71 384.48 563.93C384.47 563.92 384.41 563.89 384.3 563.82C384.43 563.8 384.51 563.8 384.53 563.79C385.33 563.7 386.17 563.61 387.11 563.52C387.11 563.52 387.13 563.52 387.15 563.52C387.17 563.55 387.18 563.56 387.18 563.57C387.18 563.57 387.2 563.59 387.2 563.59C389.26 565.46 391.43 567.27 393.69 568.96C393.7 568.97 393.76 569.01 393.85 569.1C393.49 569.11 393.3 569.12 393.26 569.12C393.19 569.1 393.14 569.1 393.1 569.1C391.54 569.1 390.31 568.09 389.1 567.11ZM388.14 566.17C388.48 566.42 388.85 566.72 389.19 566.99C390.4 568 391.66 569.03 393.23 568.96C393.25 568.96 393.4 568.96 393.42 568.96C391.22 567.31 389.1 565.55 387.09 563.7C387.09 563.7 387.09 563.7 387.06 563.68C386.24 563.75 385.49 563.84 384.75 563.91C385.99 564.66 387.11 565.39 388.14 566.17ZM394.56 569.03C392.23 567.34 389.99 565.49 387.86 563.57C387.85 563.56 387.81 563.52 387.73 563.45C387.84 563.44 387.9 563.43 387.91 563.43C388.8 563.34 389.74 563.27 390.86 563.18C390.86 563.18 390.88 563.18 390.9 563.18C390.92 563.19 390.92 563.2 390.93 563.2C391.54 563.91 392.3 564.57 393.01 565.19C393.28 565.44 393.58 565.69 393.85 565.94C394.07 566.14 395.14 567.12 397.07 568.89C396.58 568.92 396.31 568.93 396.25 568.94C395.7 568.96 395.15 568.98 394.61 569.01C394.6 569.01 394.59 569.01 394.56 569.03C394.56 569.03 394.56 569.03 394.56 569.03ZM394.61 568.89C395.13 568.87 395.68 568.85 396.21 568.82C396.24 568.82 396.39 568.81 396.66 568.8C394.89 567.18 393.91 566.28 393.71 566.1C393.44 565.85 393.17 565.6 392.87 565.35C392.16 564.73 391.43 564.09 390.81 563.38C389.78 563.43 388.91 563.5 388.09 563.59C390.17 565.46 392.37 567.25 394.61 568.89ZM354.08 568.57C353.46 568.23 352.94 567.54 352.48 566.93C352.32 566.7 352.14 566.49 352 566.31C351.77 566.04 350.64 564.7 348.59 562.29L350.7 562.47L350.72 562.49L356.55 568.96C356.45 568.96 356.4 568.96 356.39 568.96C356.23 568.98 356.09 568.98 355.98 568.98C355.41 568.98 354.72 568.94 354.08 568.57ZM352.11 566.22C352.27 566.4 352.43 566.63 352.62 566.83C353.07 567.43 353.58 568.09 354.17 568.43C354.77 568.78 355.43 568.82 355.98 568.82C356.05 568.82 356.14 568.82 356.21 568.82C355.83 568.41 353.97 566.35 350.61 562.63L348.94 562.49C350.84 564.73 351.9 565.97 352.11 566.22ZM357.01 568.89C357.01 568.85 356.98 568.8 356.94 568.75C356.56 568.34 354.7 566.28 351.34 562.56L353.71 562.79C357.39 566.31 359.43 568.27 359.84 568.66C359.95 568.78 360.16 568.71 360.23 568.57C360.25 568.53 360.27 568.43 360.18 568.34C359.8 567.98 357.9 566.14 354.47 562.83L357.6 563.13L357.62 563.15L363.43 568.8L357.01 568.96C357.01 568.92 357.01 568.9 357.01 568.89ZM357.03 568.64C357.07 568.69 357.1 568.73 357.12 568.8C357.12 568.8 357.12 568.8 357.12 568.8L359.68 568.73L353.65 562.93L351.7 562.74C354.9 566.28 356.67 568.25 357.03 568.64ZM360.27 568.23C360.39 568.34 360.41 568.48 360.37 568.62C360.34 568.66 360.34 568.69 360.32 568.71C360.5 568.7 361.41 568.68 363.04 568.64L357.51 563.27L357.49 563.27L354.88 563.04C358.12 566.15 359.91 567.88 360.27 568.23ZM394.15 565.65C393.87 565.39 393.6 565.14 393.3 564.89C392.71 564.37 392.11 563.84 391.57 563.27C391.56 563.26 391.52 563.22 391.45 563.15C391.55 563.14 391.6 563.13 391.61 563.13C392.46 563.06 393.35 563.02 394.26 562.97C394.27 562.97 394.3 562.97 394.35 562.97C394.35 563.03 394.35 563.06 394.35 563.06C394.35 563.11 394.38 563.18 394.42 563.22C396.39 565.17 398.54 566.97 400.78 568.62C400.79 568.63 400.85 568.67 400.96 568.75L397.67 568.89C395.56 566.94 394.38 565.86 394.15 565.65ZM393.42 564.8C393.69 565.05 393.99 565.3 394.26 565.55C394.49 565.77 395.65 566.83 397.74 568.75C399.41 568.67 400.34 568.63 400.53 568.62C398.33 566.99 396.23 565.23 394.31 563.34C394.26 563.29 394.22 563.22 394.19 563.15C393.39 563.18 392.57 563.22 391.79 563.29C392.3 563.82 392.87 564.32 393.42 564.8ZM364 568.75L358.31 563.2C359.04 563.27 359.44 563.31 359.52 563.31C359.7 563.34 359.86 563.36 360.07 563.38C360.39 563.43 360.73 563.47 361.05 563.47C361.23 563.47 361.42 563.45 361.55 563.43C361.67 563.41 361.78 563.36 361.9 563.31C361.9 563.31 361.92 563.31 361.94 563.29C361.97 563.31 361.99 563.31 361.99 563.31C363.93 564.98 365.94 566.74 368 568.53C368.01 568.53 368.05 568.58 368.14 568.66L364.05 568.78L364 568.75ZM364.09 568.62C366.29 568.56 367.5 568.53 367.75 568.53C365.76 566.79 363.79 565.1 361.92 563.47C361.81 563.52 361.69 563.54 361.6 563.57C361.44 563.61 361.26 563.61 361.05 563.61C360.71 563.61 360.37 563.57 360.05 563.52C359.86 563.5 359.68 563.47 359.52 563.45C359.47 563.45 359.2 563.42 358.72 563.38L364.09 568.62ZM401.69 568.69C399.29 566.99 397.03 565.12 394.93 563.06C394.92 563.06 394.88 563.02 394.81 562.95C395.09 562.93 395.24 562.93 395.27 562.93C395.73 562.9 396.16 562.88 396.62 562.86C396.62 562.86 396.63 562.86 396.64 562.86C396.65 562.87 396.66 562.88 396.66 562.88C396.89 563.06 397.19 563.2 397.46 563.34C397.62 563.41 397.76 563.47 397.9 563.54C398.74 564 399.63 564.55 400.66 565.21C402.06 566.13 403.47 567.2 404.87 568.41C404.88 568.42 404.93 568.47 405.03 568.55L404.82 568.55L401.69 568.69C401.69 568.69 401.69 568.69 401.69 568.69ZM401.74 568.55C402.03 568.53 404.35 568.43 404.64 568.41C403.29 567.27 401.94 566.24 400.59 565.35C399.59 564.69 398.7 564.14 397.85 563.68C397.71 563.61 397.58 563.54 397.42 563.47C397.14 563.34 396.85 563.2 396.59 563.02C396.16 563.04 395.7 563.06 395.27 563.09C395.26 563.09 395.22 563.09 395.15 563.09C397.99 565.63 400.18 567.45 401.74 568.55ZM369.17 568.41C367.09 566.58 364.91 564.71 362.74 562.83C362.74 562.83 362.72 562.82 362.67 562.79C362.72 562.75 362.74 562.72 362.74 562.72C363.02 562.47 363.27 562.17 363.45 561.92C363.45 561.92 363.47 561.89 363.5 561.85C366.86 564.59 368.72 566.12 369.1 566.42C369.23 566.54 369.44 566.45 369.49 566.31C369.51 566.26 369.51 566.17 369.42 566.1C369.04 565.8 367.16 564.26 363.77 561.49C363.8 561.44 363.81 561.42 363.82 561.42C363.91 561.28 364.02 561.17 364.11 561.05C364.57 560.5 364.98 560 365.37 559.5C365.38 559.49 365.41 559.46 365.46 559.41C365.49 559.47 365.51 559.51 365.51 559.52C365.85 560.43 366.61 561.12 367.34 561.81C367.52 561.97 367.68 562.13 367.86 562.29C368.08 562.5 369.18 563.56 371.15 565.46L369.23 568.48C369.19 568.44 369.17 568.42 369.17 568.41ZM369.21 568.27C369.33 568.09 369.92 567.18 370.99 565.53C369.07 563.68 368.01 562.65 367.79 562.45C367.63 562.29 367.45 562.13 367.29 561.97C366.58 561.3 365.85 560.64 365.46 559.75C365.1 560.21 364.71 560.69 364.27 561.19C364.18 561.28 364.11 561.39 364.02 561.51C364.58 561.96 369 565.58 369.55 566.03C369.67 566.13 369.71 566.26 369.67 566.4C369.62 566.56 369.44 566.67 369.28 566.67C369.19 566.67 369.1 566.65 369.03 566.58C368.48 566.13 364.11 562.55 363.57 562.1C363.38 562.33 363.15 562.58 362.93 562.81C365.05 564.64 367.15 566.49 369.21 568.27ZM404.57 567.06C403.77 566.42 403.02 565.83 402.26 565.28C401.58 564.78 400.82 564.27 399.89 563.7C399.47 563.45 399.04 563.2 398.65 562.97C398.58 562.93 398.45 562.88 398.29 562.81C398.08 562.72 397.85 562.61 397.62 562.51C397.62 562.51 397.6 562.51 397.58 562.49C397.58 562.46 397.58 562.45 397.58 562.45C397.58 562.33 397.55 562.19 397.49 562.13C397.42 562.06 397.33 562.01 397.23 562.01C397.23 562.01 397.22 562.01 397.19 562.01C397.17 562 397.17 561.99 397.17 561.99C396.98 561.71 396.82 561.44 396.64 561.17C396.61 561.12 396.48 560.91 396.23 560.53C399.99 562.69 402.07 563.9 402.49 564.14C402.54 564.16 402.56 564.16 402.61 564.16C402.7 564.16 402.74 564.11 402.77 564.07C402.77 564.06 402.79 564.03 402.83 563.98L404.91 567.34C404.71 567.17 404.59 567.08 404.57 567.06ZM398.35 562.65C398.54 562.72 398.67 562.79 398.74 562.83C399.11 563.04 399.54 563.29 399.98 563.57C400.91 564.14 401.67 564.64 402.38 565.14C403.02 565.6 403.68 566.1 404.34 566.65C404.19 566.41 403.01 564.47 402.86 564.23C402.74 564.32 402.58 564.32 402.47 564.25C402.09 564.03 400.18 562.93 396.75 560.96C396.8 561.03 396.82 561.07 396.82 561.07C396.98 561.33 397.17 561.6 397.33 561.85C397.46 561.87 397.55 561.92 397.65 562.01C397.69 562.1 397.74 562.24 397.74 562.38C397.94 562.47 398.17 562.58 398.35 562.65ZM369.1 562.86C368.85 562.63 368.57 562.38 368.27 562.13C367.36 561.35 366.33 560.46 365.97 559.41C365.94 559.31 365.85 559.27 365.81 559.27C365.8 559.27 365.76 559.26 365.69 559.25C365.73 559.19 365.76 559.16 365.76 559.15C366.13 558.67 366.51 558.19 366.88 557.71C366.88 557.71 366.9 557.69 366.93 557.65L372.8 563.02L371.43 565.12C370.03 563.76 369.25 563.01 369.1 562.86ZM366.1 559.36C366.47 560.37 367.47 561.26 368.37 562.01C368.66 562.26 368.94 562.51 369.19 562.77C369.34 562.91 370.08 563.62 371.41 564.89L372.62 563.04C369.23 559.94 367.35 558.22 366.97 557.87C366.63 558.29 366.29 558.72 365.94 559.15C366.01 559.2 366.08 559.27 366.1 559.36ZM395.73 559.66C395.2 558.83 394.67 557.99 394.15 557.17C394.14 557.15 394.1 557.08 394.03 556.96C394.16 557.01 394.23 557.05 394.24 557.05C396.09 557.78 397.85 558.74 399.45 559.93C399.57 560.02 399.7 559.95 399.75 559.82C399.77 559.77 399.79 559.63 399.66 559.54C397.83 558.22 395.79 557.14 393.65 556.37C393.64 556.37 393.64 556.37 393.62 556.37C393.61 556.35 393.6 556.34 393.6 556.34C393.07 555.52 392.57 554.7 392.07 553.85C392.06 553.84 392.01 553.76 391.93 553.62L398.54 556.98L398.77 557.37L402.67 563.68C398.51 561.27 396.19 559.93 395.73 559.66ZM402.24 563.25L398.45 557.05C394.78 555.2 392.75 554.17 392.34 553.97C392.8 554.72 393.26 555.45 393.74 556.21C395.89 556.98 397.92 558.06 399.77 559.41C399.91 559.52 399.98 559.68 399.91 559.86C399.84 560.09 399.57 560.21 399.36 560.07C397.83 558.95 396.16 558.01 394.4 557.3C394.88 558.03 395.36 558.79 395.84 559.57C396.69 560.06 398.83 561.28 402.24 563.25ZM383.06 563.09C382.99 563.04 382.95 563.02 382.93 562.99C382.88 562.97 382.83 562.95 382.79 562.9C382.7 562.86 382.58 562.83 382.49 562.86C382.49 562.86 382.47 562.87 382.45 562.88C382.43 562.85 382.42 562.84 382.42 562.83C378.77 558.08 375.38 552.98 372.41 547.7C372.34 547.57 372.21 547.5 372.07 547.5C371.89 547.5 371.7 547.63 371.63 547.82C369.87 552.62 366.67 556.73 363.82 560.18C363.68 560.34 363.54 560.53 363.38 560.73C362.99 561.26 362.58 561.78 362.08 562.15C362.08 562.15 362.06 562.16 362.03 562.17C362.01 562.16 361.99 562.15 361.99 562.15C361.92 562.1 361.85 562.08 361.76 562.08C361.55 562.08 361.35 562.24 361.3 562.45C361.3 562.45 361.3 562.46 361.3 562.49C361.28 562.49 361.26 562.49 361.26 562.49C361.1 562.51 360.94 562.54 360.75 562.51C359.86 562.45 358.95 562.35 358.06 562.26C357.6 562.22 357.17 562.17 356.71 562.13C355.86 562.05 349.1 561.43 348.25 561.35C348.21 561.35 348.18 561.35 348.14 561.35C348.13 561.35 348.07 561.36 347.98 561.37C348.03 561.29 348.06 561.24 348.07 561.23C353.55 552.41 359.54 543.75 365.81 535.5C365.9 535.38 365.92 535.25 365.85 535.15C365.76 534.95 365.44 534.83 365.21 534.95C365.21 534.95 365.17 534.97 365.12 534.99C365.11 534.94 365.1 534.91 365.1 534.9C365.1 534.86 365.05 534.79 365.03 534.74C359.29 527.11 353.83 519.09 348.8 510.9C348.8 510.9 348.8 510.86 348.8 510.86C348.8 510.79 348.78 510.72 348.75 510.65C348.66 510.42 348.53 510.17 348.37 509.92C348.36 509.91 348.34 509.87 348.3 509.81C348.38 509.81 348.43 509.81 348.43 509.81C348.71 509.81 348.96 509.81 349.23 509.78C349.46 509.78 349.67 509.76 349.87 509.76C350.9 509.79 359.09 509.99 360.11 510.01C360.25 510.01 360.39 510.01 360.53 510.01C360.62 510.01 360.71 510.01 360.8 510.01C361.33 510.01 361.92 510.06 362.33 510.65C362.72 511.25 363.11 511.82 363.5 512.39C363.52 512.43 363.54 512.46 363.54 512.48C363.55 512.48 363.56 512.5 363.57 512.5C366.45 516.75 368.87 520.18 371.2 523.25C371.2 523.25 371.22 523.26 371.25 523.29C371.19 523.36 371.16 523.4 371.15 523.41C371.04 523.54 371.02 523.73 371.09 523.89C371.15 524.05 371.31 524.16 371.47 524.16C371.57 524.16 371.68 524.11 371.75 524.02C371.75 524.02 371.77 524 371.79 523.98C371.84 523.98 371.86 523.98 371.86 523.98C372.09 524.07 372.39 523.95 372.48 523.77C372.53 523.66 372.53 523.54 372.43 523.43C372.43 523.42 372.41 523.39 372.37 523.34C372.39 523.31 372.41 523.29 372.41 523.29C372.96 522.65 373.53 521.94 374.22 521.1C374.22 521.09 374.23 521.08 374.24 521.05C374.42 521.12 374.52 521.16 374.54 521.17C374.67 521.21 374.79 521.12 374.79 521.01C374.81 520.91 374.79 520.78 374.65 520.73C374.64 520.73 374.6 520.73 374.51 520.73C374.57 520.66 374.6 520.62 374.61 520.62C377.55 516.96 380.37 513.19 382.99 509.39C383.02 509.37 383.02 509.35 383.02 509.35C383.02 509.35 383.03 509.33 383.04 509.3C383.07 509.3 383.08 509.3 383.09 509.3C384.8 509.23 386.51 509.19 388.23 509.19C391.06 509.19 393.97 509.28 396.8 509.49C396.81 509.49 396.85 509.49 396.91 509.49L392.82 516.21C392.74 516.15 392.69 516.12 392.69 516.11C392.55 516.02 392.43 516.11 392.39 516.23C392.37 516.27 392.34 516.41 392.48 516.53C392.49 516.53 392.53 516.56 392.59 516.62L391.61 518.22C391.6 518.22 391.59 518.22 391.59 518.22C391.5 518.24 391.43 518.35 391.43 518.47C391.43 518.47 391.43 518.48 391.43 518.49L381.03 535.57C380.97 535.57 380.94 535.57 380.94 535.57C380.69 535.59 380.57 535.73 380.53 535.84C380.5 535.86 380.5 535.89 380.5 535.91C380.46 536.05 380.46 536.18 380.5 536.32C380.55 536.46 380.64 536.57 380.75 536.59C380.76 536.59 380.76 536.59 380.78 536.59C380.79 536.61 380.8 536.62 380.8 536.62C384.94 543.59 388.69 549.85 392.62 556.16C392.62 556.16 392.63 556.17 392.64 556.18C392.64 556.2 392.64 556.2 392.64 556.21C392.64 556.25 392.64 556.37 392.78 556.43C392.78 556.43 392.79 556.43 392.8 556.43C392.81 556.45 392.82 556.46 392.82 556.46C393.35 557.33 393.9 558.17 394.45 559.04C394.45 559.04 394.45 559.06 394.47 559.09C394.45 559.11 394.45 559.13 394.45 559.13C394.4 559.22 394.4 559.34 394.54 559.43C394.56 559.44 394.74 559.55 394.77 559.57C395.25 560.34 395.75 561.12 396.23 561.87C396.23 561.88 396.26 561.92 396.3 561.99C396.21 561.99 396.17 561.99 396.16 561.99C391.82 562.19 387.45 562.56 383.18 563.06C383.17 563.06 383.13 563.07 383.06 563.09C383.06 563.09 383.06 563.09 383.06 563.09ZM382.83 562.79C382.88 562.81 382.93 562.83 382.97 562.88C382.98 562.89 383.05 562.94 383.06 562.95C387.29 562.45 391.61 562.1 395.91 561.9C395.45 561.17 394.97 560.43 394.51 559.7C394.5 559.69 394.35 559.6 394.33 559.59C394.15 559.47 394.13 559.29 394.17 559.15C393.65 558.31 393.12 557.46 392.59 556.64C392.46 556.57 392.39 556.46 392.39 556.32C388.48 550.03 384.73 543.77 380.59 536.82C380.43 536.75 380.32 536.62 380.27 536.46C380.23 536.3 380.23 536.11 380.27 535.95C380.27 535.93 380.3 535.89 380.32 535.86C380.43 535.63 380.62 535.52 380.87 535.5C380.87 535.5 380.88 535.5 380.89 535.5C387.09 525.32 390.53 519.67 391.22 518.54C391.22 518.38 391.31 518.22 391.45 518.17C391.51 518.08 391.81 517.6 392.34 516.73C392.34 516.73 392.34 516.73 392.34 516.73C392.18 516.59 392.16 516.41 392.21 516.27C392.3 516.05 392.55 515.93 392.73 516.09C393.12 515.46 396.23 510.37 396.62 509.74C393.83 509.55 390.99 509.46 388.18 509.46C386.49 509.46 384.78 509.51 383.09 509.55C383.09 509.58 383.06 509.58 383.06 509.6C380.46 513.37 377.67 517.12 374.74 520.75C374.88 520.85 374.93 521.01 374.9 521.17C374.86 521.39 374.65 521.53 374.45 521.44C374.43 521.43 374.28 521.38 374.26 521.37C373.6 522.17 373.05 522.86 372.53 523.47C372.53 523.47 372.53 523.47 372.53 523.47C372.66 523.63 372.69 523.82 372.59 523.98C372.48 524.23 372.11 524.37 371.84 524.27C371.73 524.39 371.61 524.46 371.47 524.46C371.27 524.46 371.04 524.32 370.95 524.09C370.86 523.86 370.88 523.63 371.04 523.45C371.04 523.45 371.06 523.43 371.06 523.43C368.75 520.39 366.33 516.98 363.47 512.73C363.43 512.71 363.41 512.66 363.38 512.59C362.99 512.02 362.61 511.45 362.22 510.86C361.85 510.33 361.33 510.29 360.82 510.29C360.73 510.29 360.64 510.29 360.55 510.29C360.41 510.29 360.27 510.29 360.11 510.29C359.09 510.26 350.9 510.06 349.87 510.03C349.69 510.03 349.46 510.03 349.26 510.06C349.03 510.06 348.82 510.08 348.59 510.08C348.73 510.31 348.82 510.51 348.91 510.72C348.94 510.79 348.96 510.88 348.98 510.95C353.99 519.11 359.45 527.13 365.19 534.77C365.23 534.81 365.26 534.86 365.28 534.9C365.55 534.81 365.92 534.95 366.03 535.2C366.13 535.36 366.1 535.54 365.97 535.7C359.73 543.91 353.78 552.53 348.32 561.3C349.17 561.38 355.93 562 356.78 562.08C357.23 562.13 357.67 562.17 358.13 562.22C358.99 562.31 359.91 562.4 360.8 562.47C360.94 562.47 361.07 562.47 361.21 562.45C361.3 562.19 361.55 562.01 361.81 562.01C361.9 562.01 361.99 562.03 362.06 562.08C362.54 561.74 362.93 561.23 363.29 560.73C363.43 560.55 363.57 560.34 363.73 560.18C366.58 556.73 369.78 552.64 371.52 547.84C371.61 547.59 371.84 547.43 372.11 547.43C372.32 547.43 372.48 547.54 372.59 547.7C375.57 552.96 378.93 558.03 382.56 562.77C382.51 562.72 382.54 562.72 382.56 562.72C382.65 562.72 382.74 562.74 382.83 562.79ZM367.31 557.35C367.29 557.33 367.29 557.33 367.27 557.33C367.26 557.32 367.24 557.31 367.2 557.28C367.23 557.24 367.24 557.22 367.25 557.21C367.75 556.55 368.21 555.89 368.64 555.27C368.64 555.26 368.66 555.24 368.69 555.2C368.73 555.24 368.75 555.26 368.75 555.27C370.67 557.01 372.48 558.9 374.1 560.94C374.1 560.94 374.11 560.96 374.13 560.98L373.05 562.61C369.61 559.45 367.7 557.7 367.31 557.35ZM367.41 557.23C367.78 557.58 369.65 559.29 373.03 562.38C373.58 561.53 373.88 561.05 373.94 560.96C372.37 558.97 370.61 557.12 368.71 555.41C368.32 556 367.89 556.62 367.41 557.23C367.41 557.23 367.41 557.23 367.41 557.23ZM374.33 560.46C372.71 558.45 370.93 556.55 369.01 554.83C369 554.83 368.99 554.82 368.96 554.79C368.99 554.76 369 554.75 369.01 554.74C369.74 553.62 370.38 552.57 370.93 551.5C370.93 551.49 370.95 551.44 370.99 551.36C371.04 551.44 371.06 551.49 371.06 551.5C371.09 551.52 371.09 551.54 371.11 551.57C371.65 552.1 375.94 556.38 376.48 556.91C376.53 556.96 376.57 556.98 376.62 556.98C376.62 556.98 376.66 556.99 376.73 557.01L374.4 560.55C374.36 560.49 374.34 560.46 374.33 560.46ZM374.38 560.27C374.59 559.95 376.25 557.39 376.46 557.07C376.41 557.05 376.39 557.03 376.34 557.01C375.81 556.47 371.51 552.19 370.97 551.66C370.45 552.69 369.83 553.71 369.14 554.77C371.02 556.46 372.78 558.31 374.38 560.27ZM371.41 551.25C371.34 551.18 371.27 551.18 371.2 551.18C371.19 551.18 371.14 551.2 371.04 551.22C371.08 551.13 371.1 551.07 371.11 551.06C371.45 550.38 371.75 549.71 372.02 549.07C372.03 549.07 372.05 549.02 372.09 548.94C372.13 549.02 372.16 549.07 372.16 549.07C373.51 551.43 374.99 553.83 376.57 556.18C376.56 556.19 376.53 556.22 376.46 556.27C373.43 553.26 371.74 551.58 371.41 551.25ZM371.52 551.13C371.97 551.58 375.59 555.18 376.05 555.63C374.65 553.53 373.35 551.38 372.11 549.28C371.86 549.85 371.61 550.42 371.31 551.02C371.38 551.04 371.45 551.06 371.52 551.13ZM391.47 552.85C391.47 552.83 391.47 552.82 391.47 552.82C390.99 552.05 390.51 551.27 390.06 550.49C390.05 550.48 390.01 550.41 389.94 550.29C390.07 550.34 390.13 550.37 390.15 550.38C392.23 551.22 394.24 552.27 396.11 553.51C396.16 553.53 396.18 553.55 396.23 553.55C396.23 553.55 396.23 553.55 396.23 553.55C396.27 553.55 396.32 553.53 396.37 553.51C396.37 553.5 396.39 553.48 396.43 553.44L398.08 556.21L391.47 552.85ZM397.69 555.82C396.9 554.53 396.45 553.81 396.37 553.67C396.32 553.69 396.27 553.71 396.21 553.71C396.21 553.71 396.21 553.71 396.21 553.71C396.14 553.71 396.07 553.69 396 553.65C394.19 552.46 392.27 551.43 390.29 550.61C390.72 551.31 391.15 552.02 391.59 552.73C392.4 553.14 394.44 554.17 397.69 555.82ZM395.86 552.82C393.9 551.57 391.77 550.49 389.58 549.67C389.58 549.67 389.57 549.67 389.55 549.67C389.35 549.33 389.23 549.14 389.21 549.1C389.03 548.8 388.85 548.5 388.66 548.21C388.65 548.19 388.61 548.11 388.53 547.98C392.19 549.77 394.22 550.77 394.63 550.97C394.7 550.99 394.77 550.99 394.81 550.97C394.82 550.97 394.84 550.96 394.88 550.95L396.14 553.01C395.97 552.9 395.88 552.84 395.86 552.82ZM395.66 552.55C395.57 552.41 394.9 551.29 394.81 551.15C394.72 551.18 394.63 551.15 394.56 551.13C394 550.85 389.48 548.64 388.91 548.37C389.05 548.59 389.19 548.82 389.33 549.05C389.35 549.08 389.45 549.25 389.65 549.55C392.4 550.76 394.41 551.76 395.66 552.55ZM388.09 547.27C388.08 547.25 388.07 547.25 388.07 547.25C387.47 546.26 386.88 545.26 386.29 544.27C386.28 544.26 386.22 544.16 386.13 544C386.29 544.11 386.38 544.17 386.4 544.18C388.5 545.53 390.72 546.77 392.96 547.84C392.96 547.84 392.97 547.84 392.98 547.84L394.56 550.45L388.09 547.27ZM394.15 550.08C393.37 548.8 392.93 548.1 392.85 547.95C390.7 546.93 388.59 545.74 386.56 544.46C387.11 545.37 387.63 546.26 388.18 547.15C388.98 547.54 390.97 548.52 394.15 550.08ZM392.27 547.02C390.22 545.99 388.21 544.85 386.31 543.59C386.22 543.52 386.1 543.54 386.03 543.66C386.03 543.66 386.01 543.69 385.97 543.75C385.92 543.69 385.9 543.66 385.9 543.66C384.64 541.55 383.36 539.43 382.1 537.3C382.09 537.28 382.02 537.17 381.9 536.96C382.13 537.14 382.26 537.24 382.29 537.26C382.45 537.39 382.61 537.49 382.7 537.55C383.3 537.94 388.15 540.99 388.75 541.37C388.82 541.42 388.89 541.44 388.98 541.44C388.99 541.44 389 541.44 389.03 541.44L390.03 543.06C389.88 542.98 389.8 542.93 389.78 542.93C387.79 541.78 385.83 540.55 383.95 539.25C383.84 539.15 383.68 539.22 383.63 539.38C383.61 539.43 383.59 539.57 383.73 539.66C385.9 541.17 388.18 542.58 390.49 543.86C390.49 543.86 390.5 543.86 390.51 543.86L392.5 547.13C392.37 547.06 392.29 547.02 392.27 547.02ZM386.4 543.45C388.23 544.64 390.17 545.74 392.11 546.74C391.94 546.46 390.57 544.23 390.4 543.95C388.16 542.72 385.94 541.35 383.84 539.91C384.55 541.1 385.26 542.29 385.97 543.47C386.03 543.43 386.1 543.38 386.19 543.38C386.26 543.38 386.33 543.41 386.4 543.45ZM384.02 539.11C385.81 540.37 387.68 541.53 389.58 542.63C389.51 542.52 389 541.68 388.94 541.58C388.85 541.58 388.75 541.53 388.69 541.49C388.08 541.1 383.23 538.05 382.63 537.67C382.58 537.65 382.51 537.6 382.45 537.53C382.79 538.13 383.15 538.7 383.5 539.29C383.54 539.15 383.68 539.04 383.82 539.04C383.89 539.04 383.95 539.06 384.02 539.11ZM383.13 536.8C382.97 536.71 382.79 536.57 382.61 536.43C382.38 536.25 382.13 536.07 381.87 535.93C381.87 535.93 381.85 535.91 381.81 535.89L382.7 534.45C382.74 534.46 382.76 534.47 382.77 534.47C385.17 535.52 387.54 536.62 389.81 537.74C389.97 537.81 390.13 537.69 390.15 537.55C390.17 537.51 390.17 537.39 390.03 537.35C387.77 536.23 385.39 535.13 382.99 534.08C382.99 534.08 382.97 534.06 382.93 534.03L383.86 532.48C383.89 532.49 383.91 532.5 383.91 532.5C386.51 533.33 388.98 534.54 391.22 536.09C391.34 536.18 391.5 536.11 391.54 535.95C391.57 535.91 391.59 535.77 391.45 535.68C389.23 534.13 386.79 532.94 384.18 532.09C384.18 532.09 384.15 532.08 384.09 532.07L385.17 530.33L385.17 530.33L386.29 528.5C386.51 528.91 386.63 529.14 386.65 529.19C386.7 529.28 386.77 529.3 386.81 529.3C386.93 529.3 387.04 529.21 387.06 529.1C387.06 529.09 387.07 529.06 387.09 529.01C387.14 529.03 387.17 529.05 387.18 529.05C389.62 530.24 392.02 531.47 394.33 532.73C394.34 532.73 394.36 532.75 394.4 532.78C394.21 533.04 394.1 533.18 394.08 533.21C393.87 533.51 393.65 533.78 393.44 534.08C393.43 534.09 393.4 534.13 393.35 534.19C393.32 534.11 393.31 534.07 393.3 534.06C393.28 533.99 393.23 533.94 393.17 533.92C390.56 532.91 388 531.7 385.51 530.35C385.44 530.31 385.37 530.31 385.3 530.35C385.29 530.36 385.24 530.38 385.14 530.42C385.14 530.52 385.14 530.57 385.14 530.58C385.14 530.65 385.19 530.7 385.26 530.74C387.75 532.11 390.35 533.33 393.03 534.35C393.04 534.36 393.07 534.36 393.14 534.38C393.12 534.43 393.1 534.46 393.1 534.47C391.63 536.39 390.13 538.31 388.62 540.14C388.62 540.14 388.61 540.18 388.59 540.25C385.32 538.18 383.5 537.03 383.13 536.8ZM382.72 536.32C382.9 536.46 383.06 536.57 383.22 536.69C383.76 537.02 388.04 539.73 388.57 540.07C390.06 538.26 391.54 536.41 392.98 534.51C390.33 533.49 387.73 532.27 385.26 530.9C385.21 530.88 385.17 530.83 385.12 530.79C385.04 530.91 384.44 531.9 384.37 532.02C386.95 532.87 389.37 534.06 391.57 535.59C391.7 535.68 391.77 535.86 391.7 536.02C391.63 536.27 391.36 536.37 391.15 536.23C388.94 534.67 386.51 533.49 383.93 532.66C383.85 532.79 383.21 533.84 383.13 533.97C385.51 534.99 387.84 536.09 390.1 537.19C390.26 537.26 390.33 537.42 390.29 537.58C390.24 537.83 389.94 537.97 389.71 537.85C387.45 536.73 385.12 535.66 382.72 534.61C382.67 534.69 382.45 535.1 382.03 535.84C382.34 536.05 382.57 536.21 382.72 536.32ZM385.62 530.24C388.09 531.59 390.65 532.78 393.26 533.81C393.33 533.83 393.37 533.87 393.42 533.92C393.6 533.67 393.81 533.39 393.99 533.14C394.01 533.11 394.17 532.88 394.19 532.85C391.93 531.63 389.58 530.42 387.2 529.26C387.13 529.39 386.99 529.49 386.83 529.49C386.7 529.49 386.61 529.42 386.54 529.3C386.52 529.27 386.44 529.12 386.29 528.85L385.46 530.19C385.52 530.21 385.58 530.22 385.62 530.24ZM394.63 532.39C392 530.99 389.33 529.62 386.65 528.32C386.63 528.3 386.58 528.3 386.56 528.3C386.55 528.3 386.51 528.3 386.42 528.3L388.98 524.09C389.01 524.09 389.03 524.09 389.03 524.09C389.07 524.09 389.1 524.09 389.14 524.09C389.76 524.09 390.26 524.46 390.74 524.82C390.83 524.89 390.95 524.96 391.04 525.03C391.44 525.3 393.43 526.68 397.01 529.17C396.98 529.21 396.96 529.23 396.96 529.23C396.64 529.71 396.3 530.17 395.95 530.65C395.95 530.66 395.94 530.68 395.91 530.72C391.38 527.81 388.87 526.2 388.37 525.87C388.32 525.85 388.3 525.83 388.25 525.83C388.14 525.83 388.07 525.92 388.05 526.01C388.02 526.06 388 526.19 388.14 526.26C388.64 526.58 391.14 528.19 395.63 531.09C395.48 531.29 395.4 531.41 395.38 531.43C395.15 531.75 394.9 532.09 394.67 532.41C394.68 532.41 394.68 532.41 394.7 532.41C394.66 532.4 394.63 532.39 394.63 532.39ZM386.74 528.18C389.39 529.46 392.05 530.83 394.65 532.23C394.88 531.93 395.11 531.61 395.31 531.31C395.32 531.3 395.38 531.22 395.47 531.09C391.06 528.25 388.6 526.67 388.11 526.35C388.02 526.29 387.98 526.22 387.95 526.13C387.87 526.26 387.45 526.94 386.7 528.16C386.71 528.16 386.73 528.17 386.74 528.18ZM388.53 525.69C389.27 526.17 395.21 529.99 395.95 530.47C396.25 530.03 396.57 529.6 396.87 529.17C396.28 528.76 391.6 525.52 391.02 525.12C390.93 525.05 390.81 524.98 390.72 524.91C390.24 524.55 389.74 524.18 389.12 524.23C389.03 524.37 388.34 525.5 388.25 525.65C388.25 525.62 388.3 525.62 388.32 525.62C388.39 525.62 388.46 525.65 388.53 525.69ZM392.96 525.74C392.71 525.55 392.43 525.35 392.16 525.12C391.31 524.46 390.38 523.7 389.42 523.61C389.41 523.61 389.37 523.6 389.3 523.59L390.77 521.19C390.81 521.22 390.83 521.23 390.83 521.23C391.66 521.74 395.45 524.43 397.28 525.74C397.76 526.08 398.08 526.31 398.22 526.4C398.33 526.49 398.49 526.42 398.54 526.26C398.56 526.22 398.58 526.08 398.45 525.99C397.95 525.64 395.47 523.91 391.02 520.8L392.07 519.09C396.17 522.19 398.45 523.91 398.9 524.25C399.04 524.34 399.15 524.25 399.2 524.14C399.22 524.09 399.25 523.95 399.11 523.86C398.65 523.52 396.38 521.81 392.3 518.72L393.26 517.14C393.3 517.17 393.32 517.19 393.33 517.19C395.91 519.11 398.63 520.89 401.42 522.47C401.42 522.47 401.44 522.49 401.49 522.51C401.46 522.56 401.44 522.58 401.44 522.58C400.14 524.66 398.77 526.72 397.39 528.69C397.39 528.69 397.36 528.71 397.3 528.75C394.7 526.94 393.25 525.94 392.96 525.74ZM392.25 525.03C392.53 525.26 392.8 525.46 393.05 525.62C393.47 525.92 396.86 528.26 397.28 528.55C398.63 526.61 399.95 524.59 401.23 522.58C398.49 521.03 395.82 519.27 393.28 517.39C393.23 517.48 392.96 517.92 392.48 518.7C396.51 521.73 398.75 523.41 399.2 523.75C399.34 523.86 399.41 524.02 399.34 524.21C399.27 524.43 398.99 524.55 398.81 524.39C398.36 524.05 396.13 522.37 392.11 519.34L391.22 520.78C395.61 523.84 398.05 525.53 398.54 525.87C398.67 525.97 398.74 526.15 398.67 526.31C398.61 526.56 398.33 526.65 398.13 526.51C398.01 526.42 397.67 526.19 397.19 525.85C395.41 524.59 391.75 521.99 390.81 521.39C390.73 521.53 390.31 522.24 389.55 523.5C390.8 524.09 391.7 524.6 392.25 525.03ZM371.73 522.61C371.5 522.31 371.29 522.01 371.06 521.74C371.04 521.71 370.95 521.59 370.79 521.37C371.54 521.6 371.96 521.73 372.05 521.76C372.07 521.76 372.09 521.78 372.11 521.78C372.11 521.78 372.11 521.78 372.11 521.78C372.23 521.78 372.3 521.69 372.32 521.58C372.34 521.49 372.3 521.37 372.16 521.33C372.04 521.29 371.42 521.1 370.31 520.75C370.29 520.74 370.29 520.73 370.29 520.73C369.94 520.27 369.6 519.79 369.26 519.34C369.25 519.32 369.19 519.25 369.1 519.11C369.25 519.18 369.33 519.22 369.35 519.22C370.61 519.75 371.89 520.27 373.19 520.78C373.19 520.78 373.23 520.8 373.28 520.82C373.24 520.88 373.22 520.91 373.21 520.91C372.66 521.58 372.21 522.13 371.77 522.65C371.77 522.65 371.78 522.66 371.79 522.67C371.75 522.63 371.73 522.61 371.73 522.61ZM371.79 522.45C371.93 522.29 372.09 522.1 372.23 521.92C372.21 521.92 372.18 521.92 372.14 521.92C372.14 521.92 372.14 521.92 372.14 521.92C372.09 521.92 372.07 521.92 372.02 521.9C371.97 521.88 371.69 521.8 371.2 521.65C371.46 522 371.66 522.26 371.79 522.45ZM372.25 521.19C372.46 521.26 372.53 521.44 372.5 521.6C372.69 521.37 372.89 521.12 373.1 520.87C371.91 520.41 370.74 519.93 369.6 519.45C369.87 519.84 370.15 520.23 370.45 520.62C370.81 520.73 372.07 521.13 372.25 521.19ZM401.62 522.08C398.83 520.5 396.09 518.72 393.51 516.8C393.51 516.8 393.49 516.78 393.46 516.75L394.13 515.66C398.68 518.37 401.21 519.88 401.71 520.18C401.85 520.27 402.01 520.16 402.03 520.05C402.06 520 402.06 519.89 401.94 519.79C401.44 519.49 398.92 517.98 394.38 515.27L395.52 513.39C395.55 513.49 395.56 513.54 395.57 513.55C395.59 513.6 395.61 513.65 395.66 513.67C398.4 515.2 401.14 516.82 403.82 518.47C403.82 518.47 403.84 518.49 403.89 518.51C403.86 518.56 403.84 518.58 403.84 518.58C403.13 519.77 402.42 520.94 401.71 522.03C401.71 522.04 401.71 522.07 401.69 522.13C401.65 522.1 401.63 522.08 401.62 522.08ZM401.65 521.92C402.31 520.85 402.99 519.73 403.68 518.58C401.03 516.94 398.31 515.34 395.59 513.83C395.54 513.81 395.52 513.78 395.47 513.74C395.41 513.84 395.11 514.33 394.56 515.22C399.02 517.9 401.49 519.38 401.99 519.68C402.15 519.77 402.19 519.93 402.15 520.09C402.08 520.34 401.81 520.46 401.6 520.32C401.1 520.02 398.62 518.54 394.15 515.86L393.67 516.73C397.14 519.15 399.8 520.88 401.65 521.92ZM373.6 520.39C371.93 519.75 370.26 519.09 368.66 518.38C368.66 518.38 368.65 518.38 368.64 518.38C368.63 518.36 368.62 518.36 368.62 518.35C368.05 517.55 367.57 516.87 367.11 516.23C367.1 516.21 367.05 516.15 366.97 516.02C367.11 516.08 367.18 516.11 367.2 516.11C369.49 517.01 371.77 517.99 373.97 519.06C373.97 519.06 373.97 519.06 373.99 519.06L374.31 519.57C374.28 519.59 374.27 519.61 374.26 519.61C374.13 519.79 373.99 519.95 373.85 520.14C373.84 520.16 373.77 520.25 373.65 520.41C373.62 520.4 373.6 520.39 373.6 520.39ZM373.58 520.23C373.59 520.21 373.72 520.04 373.74 520.02C373.87 519.86 373.99 519.7 374.13 519.54C374.1 519.51 373.9 519.21 373.87 519.18C371.75 518.15 369.55 517.21 367.36 516.34C367.79 516.94 368.25 517.58 368.73 518.26C370.31 518.95 371.95 519.61 373.58 520.23ZM373.28 518.24C371.09 517.21 368.82 516.25 366.54 515.38C366.54 515.38 366.53 515.38 366.51 515.38C366.5 515.37 366.49 515.36 366.49 515.36C365.97 514.58 365.39 513.78 364.82 512.94C364.81 512.92 364.76 512.85 364.66 512.71C364.81 512.79 364.9 512.84 364.91 512.85C365.12 512.94 365.33 513.05 365.51 513.17C365.71 513.28 365.92 513.39 366.06 513.44C366.9 513.81 367.73 514.19 368.57 514.56C369.6 515.02 370.7 515.54 372.05 516.16C372.05 516.16 372.05 516.16 372.07 516.16L372.09 516.18L372.05 516.25L372.11 516.21L373.53 518.35C373.38 518.29 373.3 518.25 373.28 518.24ZM373.1 517.99C373.02 517.87 372.65 517.3 371.98 516.27C371.98 516.27 371.98 516.27 371.98 516.27C370.63 515.63 369.53 515.13 368.5 514.67C367.66 514.29 366.83 513.92 365.99 513.55C365.83 513.49 365.65 513.39 365.42 513.26C365.3 513.21 365.21 513.14 365.1 513.07C365.65 513.85 366.15 514.56 366.61 515.25C368.8 516.07 370.99 517.01 373.1 517.99ZM404.05 518.1C401.37 516.43 398.63 514.83 395.89 513.3C395.84 513.28 395.77 513.26 395.73 513.28C395.71 513.28 395.65 513.3 395.54 513.33L396.59 511.61C396.64 511.64 396.66 511.65 396.66 511.66C399.47 513.23 402.24 514.93 404.87 516.73C404.87 516.73 404.9 516.75 404.94 516.78C404.91 516.82 404.89 516.84 404.89 516.85C404.64 517.28 404.39 517.71 404.14 518.13C404.14 518.13 404.13 518.13 404.11 518.15C404.07 518.12 404.05 518.11 404.05 518.1ZM395.98 513.19C398.7 514.7 401.42 516.3 404.07 517.94C404.3 517.55 404.53 517.17 404.75 516.78C402.15 515.02 399.45 513.35 396.69 511.79C396.63 511.88 396.36 512.33 395.86 513.14C395.91 513.16 395.95 513.17 395.98 513.19ZM405.1 516.3C402.47 514.51 399.73 512.82 396.91 511.25C396.91 511.24 396.89 511.23 396.85 511.2L397.71 509.78C397.76 509.81 397.78 509.83 397.78 509.83C400.21 511.82 402.74 513.69 405.33 515.41C405.39 515.45 405.46 515.47 405.53 515.47C405.54 515.47 405.58 515.47 405.65 515.47C405.6 515.54 405.58 515.58 405.58 515.59C405.49 515.75 405.39 515.91 405.3 516.05C405.29 516.07 405.25 516.16 405.17 516.34C405.12 516.32 405.1 516.3 405.1 516.3ZM405.12 516.14C405.13 516.13 405.18 516.03 405.19 516.02C405.26 515.91 405.33 515.77 405.39 515.66C405.35 515.63 405.28 515.61 405.23 515.59C402.7 513.87 400.16 512.02 397.76 510.06C397.71 510.13 397.49 510.5 397.07 511.15C400.72 513.3 403.4 514.96 405.12 516.14ZM371.41 515.36C370.17 514.79 369.1 514.31 368.11 513.85C367.27 513.49 366.45 513.1 365.6 512.73C365.46 512.66 365.3 512.59 365.14 512.5C364.87 512.37 364.57 512.21 364.27 512.11C364.27 512.11 364.27 512.11 364.25 512.11C364.24 512.1 364.23 512.09 364.23 512.09C363.91 511.63 363.59 511.15 363.29 510.7C363.28 510.68 363.23 510.61 363.13 510.47C366.86 512.33 368.93 513.37 369.35 513.58C369.92 513.85 370.45 514.13 370.93 514.56C371.11 514.74 371.29 514.97 371.52 515.27C371.53 515.28 371.57 515.35 371.66 515.47C371.51 515.41 371.42 515.37 371.41 515.36ZM365.23 512.34C365.39 512.43 365.55 512.5 365.69 512.57C366.54 512.94 367.36 513.3 368.21 513.69C369.12 514.1 370.13 514.56 371.25 515.09C371.11 514.9 370.97 514.74 370.83 514.63C370.38 514.19 369.85 513.94 369.3 513.67C368.73 513.38 364.18 511.1 363.61 510.81C363.86 511.2 364.11 511.59 364.37 511.95C364.66 512.05 364.96 512.21 365.23 512.34Z" id="anHkrnuSD"></path><path d="M372.53 555.43C371.95 554.83 371.25 553.67 370.38 553.55C370.26 553.53 370.17 553.62 370.13 553.71C370.01 553.9 370.01 553.99 370.06 554.19C370.1 554.33 370.22 554.4 370.35 554.42C370.38 554.42 370.42 554.42 370.45 554.42C370.51 554.42 370.56 554.42 370.61 554.4C370.65 554.45 370.72 554.49 370.81 554.54C370.86 554.59 371.28 555.03 371.34 555.09C371.77 555.54 372.21 555.98 372.64 556.43C373.42 557.23 374.19 558.06 374.97 558.86C375.22 559.11 375.63 558.67 375.36 558.4C374.42 557.42 373.46 556.41 372.53 555.43Z" id="a4uaH4PS6"></path><path d="M375.15 558.99C375.06 558.99 374.97 558.95 374.9 558.88C374.49 558.45 371.18 555.01 370.77 554.58C370.7 554.56 370.63 554.51 370.58 554.47C370.54 554.49 370.49 554.49 370.45 554.49C370.44 554.49 370.36 554.49 370.35 554.49C370.17 554.47 370.06 554.38 369.99 554.22C369.92 553.99 369.92 553.87 370.06 553.69C370.13 553.6 370.24 553.49 370.4 553.51C371.09 553.6 371.66 554.29 372.16 554.9C372.32 555.09 372.46 555.27 372.62 555.43C372.9 555.73 375.17 558.1 375.45 558.4C375.57 558.51 375.59 558.65 375.52 558.81C375.45 558.88 375.29 558.99 375.15 558.99C375.15 558.99 375.15 558.99 375.15 558.99ZM370.67 554.31C370.72 554.35 370.77 554.4 370.86 554.42C370.86 554.42 370.87 554.43 370.88 554.45C373.36 557.04 374.74 558.48 375.02 558.77C375.06 558.81 375.11 558.83 375.15 558.83C375.15 558.83 375.15 558.83 375.15 558.83C375.25 558.83 375.34 558.77 375.38 558.67C375.41 558.63 375.43 558.54 375.34 558.45C375.05 558.15 372.79 555.77 372.5 555.47C372.37 555.31 372.21 555.13 372.05 554.95C371.57 554.35 371.02 553.69 370.4 553.62C370.4 553.62 370.4 553.62 370.4 553.62C370.33 553.62 370.24 553.69 370.22 553.74C370.13 553.9 370.1 553.97 370.17 554.15C370.22 554.29 370.31 554.31 370.4 554.31C370.41 554.31 370.5 554.31 370.51 554.31C370.56 554.31 370.58 554.31 370.61 554.29C370.61 554.28 370.61 554.28 370.63 554.26C370.66 554.29 370.67 554.31 370.67 554.31Z" id="c2S4KcxPtH"></path></defs><g><g><g><use xlink:href="#i1VyczzZNz" opacity="1" fill="#000000" fill-opacity="1"></use><g><use xlink:href="#i1VyczzZNz" opacity="1" fill-opacity="0" stroke="#000000" stroke-width="1" stroke-opacity="0"></use></g></g><g><use xlink:href="#anHkrnuSD" opacity="1" fill="#180f0b" fill-opacity="1"></use><g><use xlink:href="#anHkrnuSD" opacity="1" fill-opacity="0" stroke="#000000" stroke-width="1" stroke-opacity="0"></use></g></g><g><use xlink:href="#a4uaH4PS6" opacity="1" fill="#000000" fill-opacity="1"></use><g><use xlink:href="#a4uaH4PS6" opacity="1" fill-opacity="0" stroke="#000000" stroke-width="1" stroke-opacity="0"></use></g></g><g><use xlink:href="#c2S4KcxPtH" opacity="1" fill="#180f0b" fill-opacity="1"></use><g><use xlink:href="#c2S4KcxPtH" opacity="1" fill-opacity="0" stroke="#000000" stroke-width="1" stroke-opacity="0"></use></g></g></g></g></svg>