<?xml version="1.0" encoding="UTF-8" standalone="no"?>
<!DOCTYPE svg PUBLIC "-//W3C//DTD SVG 1.1//EN" "http://www.w3.org/Graphics/SVG/1.1/DTD/svg11.dtd">
<svg version="1.1" xmlns="http://www.w3.org/2000/svg" xmlns:xlink="http://www.w3.org/1999/xlink" preserveAspectRatio="xMidYMid meet" viewBox="429.39105977893684 508.5636983323222 60.22687415685334 60.41915881053495" width="60.23" height="60.42"><defs><path d="M480.34 509.49C480.11 509.33 479.89 509.39 479.75 509.58C479.68 509.55 479.61 509.53 479.54 509.51C476.87 509.39 474.19 509.28 471.52 509.17C470.19 509.1 468.85 509.05 467.52 508.98C466.86 508.96 466.19 508.91 465.51 508.89C464.87 508.87 463.89 508.98 463.31 508.64C462.81 508.34 462.38 508.98 462.65 509.37C461.21 513.01 459.68 516.59 458.03 520.16C457.49 519.06 456.94 517.99 456.39 516.89C456.41 516.78 456.37 516.64 456.23 516.57C455.7 515.52 455.31 514.38 454.26 513.76C452.94 513.01 451.45 512.43 450.08 511.77C448.66 511.11 447.22 510.42 445.81 509.76C445.65 509.69 445.51 509.69 445.39 509.74C445.05 509.58 444.69 509.49 444.23 509.46C442.65 509.35 441.07 509.28 439.5 509.21C436.34 509.03 433.17 508.87 430.01 508.69C429.49 508.66 429.39 509.33 429.71 509.58C431.17 512.11 442.86 532.37 444.32 534.9C445.42 536.8 446.83 538.77 447.36 540.91C447.63 542.06 447.52 543.34 447.5 544.53C447.5 545.74 447.47 546.95 447.45 548.14C447.36 553.1 447.18 558.06 446.93 563.02C446.93 563.2 447.02 563.36 447.18 563.45C447.22 563.52 447.27 563.59 447.34 563.63C449.01 564.75 450.72 565.78 452.48 566.74C453.9 567.52 455.63 568.71 457.3 568.82C459.27 568.96 461.3 568.69 463.29 568.59C463.75 568.57 464.18 568.55 464.64 568.53C464.69 568.55 464.75 568.59 464.8 568.62C464.96 568.71 465.12 568.64 465.21 568.5C466.65 568.43 468.09 568.37 469.53 568.27C469.85 568.25 470.01 568 470.01 567.77C470.01 567.77 470.01 567.75 470.01 567.75C470.29 567.43 470.29 566.88 470.35 566.51C470.49 565.76 470.51 565.01 470.54 564.25C470.61 562.29 470.54 560.34 470.54 558.38C470.54 554.95 470.54 551.5 470.54 548.07C470.58 548.02 470.63 548 470.65 547.93C470.65 547.93 470.67 547.91 470.67 547.91C470.88 547.84 471.04 547.61 471.04 547.36C472.34 545.35 473.65 543.31 474.9 541.28C475.11 541.28 475.27 541.03 475.18 540.85C475.52 540.3 475.86 539.73 476.21 539.18C476.25 539.2 476.3 539.25 476.34 539.27C476.66 539.5 476.96 538.97 476.64 538.74C476.59 538.72 476.55 538.67 476.53 538.65C481.12 531.11 485.44 523.41 489.44 515.54C489.49 515.45 489.51 515.36 489.49 515.29C489.62 515.09 489.62 514.79 489.3 514.63C486.15 513.23 483.13 511.52 480.34 509.49ZM457.46 521.37C457.44 521.42 457.42 521.46 457.39 521.49C457.39 521.49 457.37 521.49 457.37 521.46C455.36 520.73 453.33 519.98 451.31 519.25C451.25 519.22 451.2 519.22 451.15 519.25C450.77 518.54 450.38 517.85 449.97 517.14C452.09 518.13 454.29 518.95 456.57 519.61C456.87 520.21 457.17 520.78 457.46 521.37ZM455.73 524.73C455.13 524.59 454.54 524.43 453.94 524.3C453.67 523.82 453.42 523.34 453.14 522.86C454.24 522.99 455.29 523.27 456.32 523.68C456.16 524.02 456 524.39 455.82 524.75C455.79 524.73 455.77 524.73 455.73 524.73ZM455.06 526.29C454.83 525.87 454.58 525.44 454.35 525.03C454.74 525.1 455.15 525.21 455.54 525.3C455.38 525.62 455.22 525.94 455.06 526.29ZM452.8 522.19C452.37 521.46 451.95 520.71 451.54 519.98C453.39 520.66 455.27 521.35 457.12 522.03C456.94 522.4 456.78 522.77 456.59 523.13C455.38 522.65 454.13 522.35 452.8 522.19C452.8 522.19 452.8 522.19 452.8 522.19ZM456.18 518.86C453.87 518.17 451.61 517.28 449.44 516.23C449.44 516.23 449.42 516.23 449.42 516.23C449.05 515.59 448.71 514.97 448.34 514.33C450.63 515.18 452.91 516.05 455.2 516.89C455.31 517.07 455.41 517.28 455.5 517.49C455.73 517.94 455.95 518.4 456.18 518.86ZM454.49 515.45C454.61 515.66 454.72 515.86 454.83 516.09C452.53 515.22 450.22 514.35 447.91 513.51C447.5 512.78 447.09 512.07 446.67 511.34C448.8 512.34 450.95 513.35 453.1 514.38C453.69 514.65 454.15 514.88 454.49 515.45ZM445.55 535.13C440.69 526.67 435.82 518.24 430.93 509.78C431.66 509.82 437.53 510.15 438.26 510.19C439.7 510.26 441.17 510.35 442.61 510.42C443.29 510.47 444 510.45 444.66 510.56C445.39 510.67 445.85 511.98 446.15 512.53C448.94 517.46 451.7 522.42 454.49 527.36C454.49 527.36 454.49 527.36 454.49 527.38C454.19 527.95 455.06 528.48 455.36 527.89C458.35 522.01 461.07 516 463.5 509.85C464.37 510.06 465.42 509.94 466.26 509.97C467.73 510.03 469.21 510.1 470.67 510.15C471.55 510.19 478.51 510.48 479.38 510.51C477.39 513.94 475.36 517.33 473.28 520.69C473.21 520.73 473.17 520.8 473.17 520.89C472.3 522.29 471.45 523.66 470.56 525.03C470.26 524.91 470.03 525.3 470.24 525.53C467.98 529.07 465.67 532.57 463.31 536.02C463.13 536.02 462.99 536.23 463.04 536.43C462.26 537.58 461.46 538.72 460.66 539.86C460.66 539.86 460.66 539.86 460.66 539.86C460.14 539.5 459.63 540.37 460.16 540.73C460.16 540.73 460.18 540.75 460.18 540.75C460.21 540.94 460.34 541.07 460.53 541.14C460.53 541.17 460.53 541.19 460.53 541.23C460.53 541.65 460.53 542.03 460.53 542.45C460.32 542.51 460.21 542.86 460.46 543.02C460.48 543.04 460.5 543.06 460.55 543.06C460.62 548.53 460.89 553.99 461.37 559.43C461.07 559.43 460.87 559.84 461.19 559.98C461.28 560.02 461.35 560.05 461.42 560.09C461.46 560.57 461.51 561.03 461.55 561.51C461.46 561.62 461.39 561.76 461.42 561.9C456.94 562.51 452.43 562.72 447.91 562.58C448.16 557.78 448.34 552.98 448.41 548.18C448.43 546.97 448.46 545.76 448.46 544.57C448.5 543.41 448.59 542.19 448.37 541.05C447.98 538.88 446.63 537.01 445.55 535.13ZM462.03 554.17C462.01 554.17 461.99 554.15 461.99 554.15C461.94 553.35 461.9 552.53 461.85 551.73C464.18 553.1 466.51 554.47 468.87 555.84C469.21 556.05 469.51 555.52 469.17 555.31C466.72 553.87 464.27 552.43 461.81 550.99C461.78 550.49 461.76 549.97 461.74 549.46C464.09 550.51 466.4 551.7 468.62 553.05C468.96 553.26 469.26 552.73 468.91 552.53C466.58 551.13 464.18 549.87 461.69 548.8C461.67 548.05 461.65 547.29 461.62 546.54C463.95 547.93 466.38 549.19 468.87 550.31C469.21 550.47 469.53 549.94 469.17 549.78C466.56 548.62 464.05 547.29 461.6 545.81C461.58 545.12 461.58 544.46 461.55 543.77C464.09 545.53 466.74 547.15 469.46 548.62C469.46 551.47 469.46 554.33 469.46 557.19C469.46 557.62 469.46 558.06 469.46 558.51C469.49 558.45 469.44 558.38 469.37 558.33C466.97 556.87 464.53 555.5 462.03 554.17ZM469.51 560.98C467.06 559.61 464.62 558.24 462.17 556.85C462.13 556.18 462.08 555.5 462.03 554.83C464.41 556.11 466.77 557.44 469.05 558.83C469.28 558.97 469.46 558.83 469.51 558.65C469.51 559.43 469.51 560.21 469.51 560.98ZM461.55 541.71C464.21 543.57 466.86 545.44 469.49 547.29C469.49 547.5 469.49 547.7 469.49 547.91C466.77 546.45 464.11 544.82 461.58 543.04C461.58 542.61 461.55 542.17 461.55 541.71ZM452.62 565.71C451.41 565.05 450.22 564.34 449.05 563.59C449.65 563.59 450.24 563.61 450.83 563.61C450.83 563.61 450.86 563.61 450.86 563.63C453.81 564.87 456.66 566.26 459.47 567.82C458.97 567.84 458.45 567.86 457.92 567.86C456.07 567.91 454.19 566.58 452.62 565.71ZM459.82 567.31C457.37 565.97 454.88 564.73 452.34 563.61C453.65 563.59 454.97 563.52 456.27 563.43C456.18 563.57 456.18 563.75 456.37 563.86C458.58 565.12 460.82 566.4 463.04 567.66C461.97 567.7 460.89 567.77 459.84 567.82C460 567.7 460.05 567.43 459.82 567.31ZM456.73 563.38C457.71 563.31 458.72 563.22 459.7 563.11C459.75 563.29 459.84 563.47 460.05 563.59C460.98 564.11 461.92 564.64 462.83 565.14C464.18 565.9 465.55 566.67 466.9 567.43C465.99 567.5 465.07 567.54 464.14 567.59C461.67 566.19 459.2 564.78 456.73 563.38ZM464.55 565.42C463.84 565.03 463.15 564.64 462.45 564.25C462.08 564.05 460.66 562.97 460.25 563.15C460.3 563.13 460.34 563.09 460.37 563.06C461.01 562.99 461.62 562.9 462.26 562.81C464.16 564.46 466.15 565.99 468.23 567.38C468.18 567.36 468.11 567.38 468.05 567.38C466.88 566.72 465.71 566.08 464.55 565.42ZM469.42 565.71C469.42 565.74 469.33 566.31 469.3 566.7C469.26 566.67 469.21 566.65 469.14 566.63C469.05 566.61 468.98 566.58 468.91 566.61C466.7 565.14 464.59 563.52 462.61 561.74C462.56 561.35 462.54 560.96 462.49 560.57C464.87 561.65 467.18 562.86 469.42 564.21C469.44 564.23 469.46 564.23 469.49 564.23C469.49 564.37 469.49 564.5 469.49 564.64C469.49 565.01 469.44 565.35 469.42 565.71ZM462.42 559.86C462.35 559.11 462.29 558.33 462.22 557.58C464.55 558.9 466.88 560.21 469.21 561.53C469.3 561.58 469.39 561.58 469.49 561.55C469.49 561.64 469.49 562.36 469.49 562.45C469.51 562.81 469.51 563.18 469.51 563.54C467.22 562.19 464.87 560.96 462.42 559.86ZM469.76 546.26C467.02 544.32 464.25 542.4 461.51 540.46C461.71 540.16 461.9 539.89 462.1 539.59C462.93 540.34 463.98 540.82 464.96 541.37C466.67 542.33 468.39 543.29 470.08 544.25C470.42 544.43 470.72 543.91 470.38 543.73C469.01 542.95 467.63 542.19 466.29 541.42C465.07 540.73 463.47 540.11 462.45 539.09C462.9 538.42 463.36 537.74 463.84 537.07C466.56 538.97 469.28 540.89 472.02 542.79C472.34 543.02 472.64 542.49 472.32 542.26C469.6 540.37 466.9 538.47 464.18 536.57C464.62 535.93 465.05 535.29 465.49 534.65C468.18 536.89 471.04 538.93 474.01 540.8C472.82 542.7 471.63 544.57 470.42 546.42C470.29 546.22 469.99 546.17 469.76 546.26ZM465.81 534.17C466.17 533.65 466.51 533.1 466.88 532.57C466.88 532.66 466.93 532.73 467.02 532.8C469.78 534.74 472.57 536.69 475.34 538.63C474.99 539.18 474.67 539.73 474.31 540.3C471.34 538.45 468.5 536.39 465.81 534.17ZM467.31 532.27C467.25 532.23 467.18 532.21 467.11 532.23C467.47 531.68 467.84 531.13 468.21 530.58C470.9 532.27 473.62 533.97 476.32 535.66C476.66 535.86 476.96 535.34 476.62 535.13C473.92 533.44 471.22 531.77 468.53 530.08C468.87 529.58 469.19 529.05 469.53 528.55C472.62 529.81 475.47 531.5 478.06 533.58C478.15 533.65 478.24 533.67 478.31 533.65C477.46 535.13 476.57 536.62 475.66 538.1C472.87 536.16 470.1 534.22 467.31 532.27ZM472.98 523.79C472.64 523.59 472.34 524.11 472.69 524.32C475.38 526.01 478.1 527.7 480.8 529.39C480.07 530.67 479.34 531.95 478.58 533.21C478.56 533.19 478.54 533.14 478.51 533.12C475.89 530.99 473.01 529.28 469.87 528C470.29 527.36 470.7 526.72 471.11 526.08C473.81 527.75 476.48 529.46 479.13 531.18C479.45 531.38 479.77 530.86 479.43 530.65C476.78 528.94 474.1 527.22 471.43 525.55C472.27 524.25 473.1 522.93 473.92 521.6C476.66 523.38 479.45 525.1 482.26 526.77C481.87 527.47 481.49 528.16 481.1 528.87C478.4 527.18 475.68 525.49 472.98 523.79ZM474.24 521.12C474.65 520.48 475.04 519.82 475.43 519.18C475.45 519.2 475.47 519.22 475.5 519.25C477.92 521.01 480.32 522.79 482.74 524.55C483.06 524.78 483.36 524.25 483.04 524.02C480.62 522.26 478.22 520.48 475.79 518.72C475.77 518.7 475.75 518.7 475.7 518.67C475.91 518.33 476.11 517.99 476.32 517.65C478.93 519.29 481.49 521.03 484 522.83C484.32 523.06 484.62 522.54 484.3 522.31C481.78 520.5 479.22 518.79 476.62 517.14C477.03 516.48 477.42 515.79 477.81 515.13C480.37 516.78 482.88 518.49 485.33 520.3C485.65 520.53 485.94 520 485.62 519.77C483.18 517.97 480.66 516.25 478.1 514.61C478.38 514.15 478.65 513.69 478.93 513.23C478.93 513.23 478.95 513.26 478.95 513.26C481.44 514.74 483.91 516.3 486.33 517.87C486.65 518.08 486.97 517.55 486.63 517.35C484.21 515.75 481.74 514.22 479.25 512.73C479.25 512.73 479.22 512.73 479.22 512.71C479.59 512.07 479.95 511.45 480.34 510.81C482.86 512.57 485.51 514.08 488.32 515.34C486.51 519.02 484.57 522.65 482.56 526.26C479.75 524.59 476.98 522.88 474.24 521.12Z" id="hMZACJRnn"></path><path d="M457.28 568.94C455.89 568.85 454.47 568.02 453.21 567.31C452.94 567.15 452.66 566.99 452.41 566.86C450.65 565.9 448.91 564.85 447.27 563.75C447.2 563.7 447.13 563.63 447.09 563.57C446.9 563.45 446.81 563.27 446.81 563.09C447.09 558.01 447.27 553.01 447.34 548.21C447.36 546.86 447.38 545.67 447.38 544.59C447.38 544.34 447.38 544.07 447.41 543.82C447.43 542.88 447.45 541.9 447.25 541.03C446.83 539.36 445.9 537.83 444.98 536.34C444.73 535.91 444.46 535.47 444.21 535.04C442.75 532.51 431.06 512.27 429.6 509.74C429.42 509.58 429.35 509.3 429.42 509.05C429.51 508.82 429.69 508.69 429.94 508.71C430.89 508.76 438.48 509.18 439.43 509.23C439.95 509.26 440.48 509.28 441.01 509.33C442.03 509.37 443.11 509.44 444.18 509.51C444.64 509.53 445.03 509.62 445.35 509.78C445.49 509.74 445.65 509.74 445.78 509.81C446.21 510.01 449.63 511.62 450.06 511.82C450.51 512.02 450.99 512.25 451.45 512.43C452.39 512.85 453.37 513.28 454.26 513.81C455.15 514.33 455.59 515.22 456 516.11C456.09 516.3 456.16 516.46 456.25 516.64C456.39 516.71 456.46 516.85 456.43 517.01C456.59 517.32 457.83 519.8 457.99 520.11C459.61 516.62 461.12 513.05 462.51 509.53C462.42 509.37 462.42 509.14 462.51 508.96C462.67 508.66 463.02 508.55 463.31 508.71C463.66 508.91 464.16 508.94 464.62 508.94C464.73 508.94 464.85 508.94 464.94 508.94C465.12 508.94 465.3 508.94 465.46 508.94C466.87 509 478.09 509.47 479.5 509.53C479.57 509.53 479.63 509.55 479.68 509.58C479.86 509.39 480.14 509.37 480.34 509.53C483.13 511.54 486.15 513.26 489.3 514.65C489.49 514.74 489.58 514.88 489.6 514.97C489.65 515.11 489.6 515.27 489.51 515.43C489.51 515.52 489.49 515.61 489.44 515.7C485.49 523.47 481.17 531.22 476.57 538.74C476.58 538.75 476.63 538.78 476.64 538.79C476.78 538.88 476.85 539.06 476.78 539.22C476.73 539.38 476.59 539.5 476.43 539.5C476.43 539.5 476.43 539.5 476.43 539.5C476.37 539.5 476.3 539.47 476.23 539.43C476.22 539.43 476.2 539.41 476.16 539.38C476 539.64 475.9 539.79 475.89 539.82C475.66 540.21 475.43 540.57 475.18 540.96C475.2 541.07 475.2 541.19 475.13 541.28C475.06 541.37 474.97 541.44 474.88 541.46C473.6 543.5 472.32 545.53 471.04 547.47C471.04 547.73 470.88 547.98 470.65 548.07C470.65 548.07 470.65 548.07 470.65 548.07C470.61 548.11 470.58 548.16 470.54 548.21C470.54 549.23 470.54 557.46 470.54 558.49C470.54 559.09 470.54 559.7 470.54 560.3C470.56 561.62 470.56 563.02 470.51 564.37C470.49 565.05 470.47 565.87 470.33 566.65C470.31 566.72 470.31 566.81 470.29 566.9C470.24 567.25 470.19 567.63 469.99 567.91C469.97 568.18 469.81 568.46 469.44 568.48C469.01 568.5 465.59 568.67 465.17 568.69C465.05 568.85 464.85 568.89 464.69 568.8C464.68 568.8 464.63 568.77 464.55 568.73C463.75 568.77 463.31 568.8 463.22 568.8C462.65 568.82 462.06 568.87 461.49 568.91C460.5 568.89 459.45 568.98 458.42 568.98C458.01 568.98 457.65 568.96 457.28 568.94ZM429.6 509.05C429.53 509.23 429.6 509.46 429.74 509.58C429.74 509.58 429.75 509.59 429.76 509.6C438.52 524.8 443.39 533.24 444.37 534.93C444.62 535.36 444.89 535.79 445.14 536.23C446.06 537.74 447.02 539.29 447.43 540.96C447.66 541.87 447.61 542.86 447.59 543.79C447.59 544.07 447.57 544.32 447.57 544.57C447.57 545.65 447.54 546.83 447.52 548.21C447.43 553.01 447.25 558.01 446.99 563.09C446.99 563.22 447.06 563.36 447.2 563.45C447.2 563.45 447.21 563.45 447.22 563.45C447.22 563.47 447.22 563.47 447.22 563.47C447.27 563.54 447.31 563.59 447.36 563.63C449.03 564.73 450.74 565.78 452.5 566.74C452.75 566.88 453.03 567.04 453.3 567.2C454.54 567.91 455.95 568.73 457.3 568.82C457.67 568.85 458.03 568.87 458.45 568.87C459.47 568.87 460.53 568.8 461.53 568.71C462.1 568.66 462.7 568.62 463.27 568.59C463.36 568.59 463.82 568.57 464.64 568.53C464.75 568.58 464.81 568.61 464.82 568.62C464.94 568.69 465.05 568.64 465.12 568.53C465.12 568.52 465.13 568.51 465.14 568.48L465.19 568.48C467.78 568.34 469.22 568.27 469.51 568.25C469.78 568.23 469.92 568.02 469.92 567.82C469.92 567.81 469.92 567.8 469.92 567.77C469.93 567.76 469.94 567.75 469.94 567.75C470.13 567.52 470.17 567.15 470.22 566.81C470.24 566.72 470.24 566.63 470.26 566.54C470.4 565.76 470.42 564.96 470.45 564.27C470.49 562.93 470.47 561.53 470.47 560.21C470.47 559.61 470.47 558.99 470.47 558.4C470.47 557.71 470.47 554.26 470.47 548.05C470.48 548.03 470.49 548.02 470.49 548.02C470.54 548 470.56 547.95 470.61 547.91C470.61 547.91 470.62 547.89 470.65 547.86C470.67 547.86 470.67 547.86 470.67 547.86C470.86 547.82 470.99 547.61 470.97 547.38C470.97 547.38 470.97 547.37 470.97 547.36C470.99 547.35 470.99 547.34 470.99 547.34C472.27 545.37 473.58 543.31 474.86 541.26C474.86 541.25 474.87 541.24 474.88 541.21C474.91 541.21 474.92 541.21 474.93 541.21C474.99 541.21 475.06 541.17 475.11 541.1C475.15 541.03 475.15 540.94 475.13 540.87C475.13 540.87 475.12 540.85 475.11 540.82C475.12 540.8 475.13 540.78 475.13 540.78C475.38 540.39 475.61 540 475.84 539.61C475.86 539.57 475.98 539.38 476.18 539.04C476.31 539.12 476.37 539.17 476.39 539.18C476.5 539.27 476.66 539.2 476.71 539.04C476.73 538.99 476.75 538.86 476.62 538.77C476.6 538.76 476.54 538.71 476.43 538.63C476.46 538.59 476.48 538.56 476.48 538.56C481.07 531.02 485.42 523.25 489.39 515.45C489.44 515.38 489.44 515.31 489.44 515.22C489.44 515.22 489.44 515.21 489.44 515.2C489.45 515.19 489.46 515.18 489.46 515.18C489.53 515.06 489.58 514.95 489.53 514.83C489.51 514.74 489.44 514.67 489.33 514.61C486.17 513.21 483.15 511.47 480.34 509.46C480.16 509.33 479.98 509.37 479.84 509.53C479.84 509.53 479.82 509.55 479.79 509.58C479.77 509.56 479.75 509.56 479.75 509.55C479.68 509.53 479.63 509.51 479.57 509.51C478.16 509.45 466.93 508.97 465.53 508.91C465.37 508.91 465.19 508.91 465.01 508.91C464.89 508.91 464.8 508.91 464.69 508.91C464.21 508.91 463.68 508.89 463.29 508.66C463.06 508.53 462.83 508.62 462.72 508.85C462.65 509.01 462.65 509.17 462.74 509.28C462.74 509.28 462.75 509.29 462.77 509.3C462.75 509.33 462.74 509.35 462.74 509.35C461.33 512.96 459.77 516.57 458.13 520.14C458.12 520.15 458.1 520.19 458.06 520.27L456.34 516.85C456.34 516.83 456.34 516.82 456.34 516.82C456.37 516.73 456.32 516.62 456.23 516.57C456.23 516.57 456.22 516.57 456.21 516.57C456.21 516.56 456.21 516.55 456.21 516.55C456.11 516.37 456.02 516.18 455.95 516C455.54 515.11 455.13 514.26 454.29 513.76C453.39 513.26 452.43 512.82 451.5 512.41C451.04 512.21 450.56 512 450.1 511.79C449.68 511.59 446.26 509.98 445.83 509.78C445.71 509.74 445.58 509.71 445.46 509.76C445.46 509.76 445.45 509.77 445.44 509.78C445.43 509.77 445.42 509.76 445.42 509.76C445.12 509.6 444.73 509.51 444.3 509.49C443.25 509.42 442.17 509.35 441.14 509.3C440.62 509.28 440.09 509.26 439.57 509.21C438.92 509.18 435.72 509.05 429.94 508.8C429.73 508.91 429.62 508.99 429.6 509.05ZM453.46 566.29C453.17 566.1 452.87 565.94 452.59 565.78C451.43 565.14 450.26 564.46 449.03 563.66C449.01 563.65 448.94 563.6 448.8 563.52C448.96 563.52 449.06 563.52 449.07 563.52C449.55 563.52 450.03 563.54 450.56 563.54C450.58 563.54 450.69 563.54 450.88 563.54L450.9 563.54L450.88 563.61C450.89 563.57 450.9 563.55 450.9 563.54C453.81 564.75 456.71 566.17 459.52 567.73C459.53 567.73 459.58 567.76 459.68 567.82C459.75 567.76 459.79 567.73 459.79 567.73C459.86 567.68 459.91 567.59 459.89 567.52C459.89 567.45 459.84 567.41 459.77 567.36C457.37 566.03 454.86 564.78 452.3 563.66C452.28 563.65 452.17 563.6 451.98 563.52C452.18 563.52 452.3 563.52 452.32 563.52C453.6 563.5 454.93 563.43 456.25 563.34C456.26 563.34 456.32 563.34 456.41 563.34C456.36 563.42 456.33 563.47 456.32 563.47C456.27 563.54 456.25 563.61 456.27 563.66C456.3 563.7 456.32 563.75 456.39 563.79C456.85 564.06 459.15 565.37 463.29 567.73C463.14 567.74 463.06 567.75 463.04 567.75C462.1 567.79 460.98 567.86 459.86 567.91C459.86 567.91 459.84 567.91 459.79 567.91L459.79 567.91C459.63 567.91 459.54 567.91 459.52 567.91C458.99 567.93 458.49 567.95 457.97 567.95C457.9 567.95 457.87 567.95 457.83 567.95C456.32 567.95 454.81 567.06 453.46 566.29ZM452.69 565.67C452.96 565.83 453.26 565.99 453.55 566.17C454.88 566.95 456.39 567.82 457.85 567.82C457.87 567.82 457.92 567.82 457.94 567.82C458.38 567.79 458.79 567.79 459.22 567.77C456.5 566.26 453.69 564.91 450.86 563.73C450.86 563.73 450.85 563.73 450.83 563.73C450.66 563.73 450.56 563.73 450.54 563.73C450.13 563.7 449.74 563.7 449.35 563.7C450.49 564.43 451.59 565.07 452.69 565.67ZM459.86 567.25C459.98 567.31 460.05 567.41 460.05 567.52C460.05 567.59 460.05 567.66 460 567.73C460.98 567.68 461.92 567.63 462.77 567.59C462.12 567.22 456.96 564.3 456.32 563.93C456.23 563.89 456.16 563.79 456.14 563.7C456.11 563.63 456.14 563.59 456.14 563.52C454.97 563.59 453.81 563.66 452.69 563.68C455.13 564.78 457.55 565.97 459.86 567.25ZM456.5 563.34C456.65 563.32 456.74 563.32 456.75 563.31C457.71 563.25 458.72 563.15 459.73 563.04C459.73 563.04 459.75 563.04 459.79 563.04C459.81 563.08 459.82 563.1 459.82 563.11C459.84 563.25 459.91 563.43 460.11 563.54C460.59 563.81 462.96 565.13 467.22 567.52C466.78 567.55 466.54 567.56 466.49 567.57C465.69 567.59 464.91 567.63 464.14 567.68C464.14 567.68 464.14 567.68 464.14 567.68L456.5 563.34ZM464.16 567.52C464.91 567.47 465.67 567.43 466.45 567.38C466.46 567.38 466.54 567.37 466.67 567.36C462.68 565.12 460.47 563.88 460.02 563.63C459.86 563.54 459.73 563.38 459.68 563.18C458.77 563.29 457.87 563.38 457.01 563.45C458.44 564.27 463.44 567.11 464.16 567.52ZM462.42 564.3C462.33 564.25 462.19 564.16 462.03 564.05C461.55 563.73 460.73 563.18 460.39 563.18C460.37 563.18 460.32 563.18 460.3 563.2C460.3 563.2 460.3 563.2 460.3 563.2C460.3 563.2 460.3 563.2 460.3 563.2C460.3 563.2 460.3 563.2 460.3 563.2C460.29 563.19 460.24 563.08 460.23 563.06C460.27 563.04 460.3 563.02 460.32 562.99C460.32 562.99 460.33 562.99 460.34 562.97C460.37 562.97 460.39 562.97 460.39 562.97C461.12 562.88 461.71 562.81 462.29 562.72C462.29 562.72 462.3 562.72 462.33 562.72C462.35 562.73 462.35 562.74 462.35 562.74C464.25 564.39 466.26 565.92 468.32 567.31C468.33 567.32 468.39 567.37 468.5 567.45L468.05 567.45C464.67 565.56 462.8 564.51 462.42 564.3ZM462.13 563.93C462.29 564.05 462.42 564.14 462.51 564.18C463.04 564.48 467.27 566.84 467.79 567.13C465.9 565.83 464.05 564.41 462.29 562.88C461.76 562.95 461.23 563.02 460.62 563.09C461.05 563.22 461.67 563.63 462.13 563.93ZM469.28 566.74C469.23 566.72 469.19 566.7 469.12 566.67C469.05 566.65 468.98 566.65 468.94 566.65C468.94 566.65 468.93 566.65 468.91 566.65C468.9 566.64 468.89 566.63 468.89 566.63C466.7 565.17 464.57 563.52 462.56 561.76C462.56 561.76 462.55 561.75 462.54 561.74C462.54 561.72 462.54 561.72 462.54 561.71C462.51 561.46 462.49 561.21 462.47 560.96C462.47 560.92 462.45 560.74 462.42 560.41C462.49 560.44 462.53 560.45 462.54 560.46C464.91 561.53 467.25 562.77 469.46 564.09C469.49 564.09 469.51 564.11 469.53 564.11C469.53 564.12 469.55 564.12 469.58 564.14C469.58 564.26 469.58 564.33 469.58 564.34C469.58 564.43 469.58 564.5 469.58 564.59C469.58 564.96 469.53 565.33 469.51 565.67C469.51 565.67 469.51 565.69 469.51 565.74C469.49 565.9 469.42 566.33 469.39 566.65C469.39 566.66 469.39 566.71 469.37 566.79C469.32 566.76 469.29 566.75 469.28 566.74ZM469.17 566.56C469.19 566.56 469.21 566.58 469.23 566.58C469.26 566.29 469.33 565.92 469.33 565.76C469.33 565.75 469.33 565.7 469.33 565.69C469.35 565.35 469.39 564.98 469.39 564.62C469.39 564.53 469.39 564.46 469.39 564.37C469.39 564.36 469.39 564.28 469.39 564.27C469.37 564.27 469.37 564.25 469.35 564.25C467.18 562.95 464.89 561.74 462.56 560.69C462.56 560.72 462.58 560.95 462.58 560.98C462.61 561.21 462.63 561.46 462.65 561.69C464.62 563.43 466.72 565.05 468.91 566.51C468.94 566.51 468.96 566.51 468.96 566.51C469.03 566.51 469.1 566.54 469.17 566.56ZM469.46 563.61C467.18 562.26 464.8 561.03 462.4 559.95C462.4 559.95 462.38 559.95 462.35 559.93C462.35 559.9 462.35 559.89 462.35 559.89C462.29 559.13 462.22 558.35 462.15 557.6C462.15 557.59 462.15 557.55 462.15 557.46C466.43 559.88 468.8 561.22 469.28 561.49C469.35 561.53 469.42 561.53 469.49 561.49C469.49 561.48 469.53 561.47 469.6 561.44C469.6 562.04 469.6 562.38 469.6 562.45C469.6 562.81 469.6 563.18 469.6 563.57C469.6 563.57 469.59 563.61 469.58 563.68C469.51 563.64 469.47 563.62 469.46 563.61ZM469.42 563.41C469.42 563.09 469.42 562.74 469.42 562.42C469.42 562.35 469.42 561.72 469.42 561.65C469.35 561.65 469.26 561.65 469.19 561.6C468.5 561.21 463 558.1 462.31 557.71C462.38 558.42 462.45 559.13 462.49 559.82C464.85 560.87 467.18 562.08 469.42 563.41ZM447.93 562.65C447.93 562.65 447.9 562.65 447.86 562.65C447.86 562.61 447.86 562.59 447.86 562.58C448.11 557.78 448.3 552.94 448.37 548.18C448.39 547.11 448.41 545.92 448.41 544.57C448.41 544.34 448.41 544.11 448.43 543.86C448.46 542.93 448.48 541.97 448.3 541.07C447.98 539.34 447.02 537.76 446.1 536.23C445.9 535.89 445.69 535.54 445.49 535.18C444.51 533.48 439.61 524.99 430.79 509.71C437.88 510.1 441.82 510.31 442.61 510.35C442.79 510.35 442.99 510.38 443.18 510.38C443.68 510.4 444.18 510.42 444.69 510.49C445.3 510.58 445.71 511.45 446.03 512.09C446.1 512.25 446.17 512.39 446.24 512.5C446.8 513.49 449.59 518.45 454.61 527.38C454.59 527.41 454.58 527.43 454.58 527.43C454.51 527.59 454.51 527.73 454.58 527.86C454.67 528 454.83 528.09 454.99 528.09C455.09 528.09 455.22 528.05 455.31 527.89C458.29 522.08 461.03 516 463.45 509.85C463.45 509.85 463.46 509.82 463.47 509.78C463.52 509.8 463.54 509.8 463.54 509.81C464 509.92 464.5 509.92 464.94 509.92C465.1 509.92 465.26 509.92 465.42 509.92C465.71 509.92 466.01 509.92 466.26 509.92C467.15 509.96 471.57 510.15 479.52 510.49C479.48 510.56 479.46 510.6 479.45 510.61C477.53 513.92 475.5 517.33 473.35 520.78C473.35 520.78 473.33 520.8 473.33 520.8C473.28 520.85 473.23 520.89 473.23 520.96C473.23 520.96 473.23 520.98 473.23 520.98C472.3 522.51 471.43 523.86 470.63 525.12C470.63 525.12 470.61 525.14 470.58 525.17C470.54 525.15 470.52 525.14 470.51 525.14C470.4 525.1 470.29 525.17 470.24 525.28C470.19 525.37 470.22 525.46 470.29 525.53C470.29 525.53 470.3 525.55 470.33 525.58C470.32 525.6 470.31 525.62 470.31 525.62C468.02 529.21 465.69 532.73 463.38 536.11C463.38 536.12 463.37 536.12 463.36 536.14L463.31 536.14C463.31 536.14 463.31 536.14 463.31 536.14C463.25 536.14 463.18 536.18 463.15 536.23C463.11 536.3 463.09 536.39 463.11 536.46C463.11 536.46 463.11 536.47 463.11 536.48C463.09 536.49 463.09 536.5 463.09 536.5C462.26 537.71 461.49 538.83 460.71 539.93C460.71 539.93 460.69 539.95 460.66 539.98C460.62 539.96 460.6 539.96 460.59 539.95C460.5 539.89 460.43 539.86 460.37 539.86C460.21 539.86 460.05 540 460 540.18C459.93 540.39 460 540.57 460.16 540.69C460.16 540.69 460.17 540.69 460.18 540.71C460.2 540.74 460.2 540.75 460.21 540.75C460.23 540.89 460.34 541.01 460.5 541.07C460.51 541.08 460.53 541.08 460.57 541.1C460.57 541.14 460.57 541.16 460.57 541.17C460.57 541.19 460.57 541.21 460.57 541.23C460.57 541.51 460.57 541.81 460.57 542.08C460.57 542.11 460.57 542.24 460.57 542.49C460.54 542.51 460.53 542.51 460.53 542.51C460.46 542.54 460.39 542.63 460.37 542.72C460.37 542.77 460.37 542.88 460.46 542.95C460.46 542.95 460.5 542.98 460.57 543.02C460.57 543.04 460.57 543.06 460.57 543.06C460.64 548.48 460.91 553.99 461.39 559.43C461.39 559.43 461.39 559.47 461.39 559.52C461.34 559.52 461.31 559.52 461.3 559.52C461.3 559.52 461.3 559.52 461.3 559.52C461.17 559.52 461.07 559.63 461.05 559.73C461.03 559.79 461.05 559.86 461.17 559.91C461.18 559.92 461.28 559.95 461.44 560.02C461.47 560.31 461.48 560.47 461.49 560.5C461.51 560.82 461.55 561.17 461.58 561.49C461.58 561.49 461.58 561.5 461.58 561.53C461.56 561.55 461.56 561.55 461.55 561.55C461.46 561.65 461.42 561.76 461.44 561.87C461.44 561.88 461.44 561.9 461.44 561.94C461.4 561.94 461.38 561.94 461.37 561.94C457.9 562.45 454.26 562.7 450.65 562.7C449.74 562.7 448.82 562.67 447.93 562.65ZM450.65 562.54C454.24 562.54 457.83 562.31 461.35 561.83C461.35 561.71 461.39 561.6 461.49 561.49C461.46 561.17 461.42 560.85 461.39 560.53C461.39 560.5 461.38 560.37 461.35 560.14C461.23 560.08 461.16 560.05 461.14 560.05C460.98 559.98 460.91 559.84 460.94 559.68C460.96 559.54 461.1 559.38 461.26 559.36C460.78 553.97 460.5 548.48 460.43 543.09C460.43 543.08 460.39 543.04 460.39 543.04C460.27 542.95 460.21 542.81 460.23 542.65C460.25 542.51 460.32 542.4 460.43 542.35C460.43 542.32 460.43 542.07 460.43 542.03C460.43 541.76 460.43 541.46 460.43 541.19C460.43 541.17 460.43 541.17 460.43 541.17C460.25 541.1 460.14 540.94 460.09 540.78C460.09 540.78 460.09 540.78 460.09 540.78C459.82 540.59 459.79 540.3 459.86 540.09C459.98 539.75 460.32 539.57 460.62 539.73C461.37 538.65 462.13 537.55 462.93 536.39C462.9 536.27 462.95 536.16 463.02 536.07C463.09 536 463.15 535.93 463.25 535.93C465.53 532.57 467.84 529.07 470.13 525.51C470.06 525.42 470.03 525.28 470.1 525.14C470.17 524.96 470.35 524.87 470.51 524.91C471.29 523.68 472.14 522.33 473.07 520.85C473.1 520.75 473.14 520.69 473.21 520.62C475.31 517.21 477.35 513.83 479.25 510.56C477.95 510.51 467.54 510.07 466.24 510.01C465.97 509.99 465.69 510.01 465.39 510.01C465.23 510.01 465.07 510.01 464.91 510.01C464.5 510.01 464 509.99 463.54 509.9C461.12 516.02 458.4 522.08 455.43 527.89C455.34 528.07 455.18 528.18 454.97 528.18C454.77 528.18 454.56 528.07 454.45 527.89C454.33 527.73 454.33 527.52 454.42 527.34C453.59 525.86 446.93 514.03 446.1 512.55C446.03 512.43 445.97 512.3 445.9 512.14C445.6 511.54 445.21 510.7 444.66 510.63C444.18 510.56 443.68 510.54 443.18 510.51C442.99 510.51 442.79 510.49 442.61 510.49C441.84 510.45 437.99 510.24 431.06 509.85C439.79 524.99 444.63 533.4 445.6 535.09C445.81 535.43 446.01 535.77 446.22 536.14C447.13 537.67 448.09 539.27 448.43 541.03C448.59 541.94 448.59 542.93 448.57 543.86C448.57 544.09 448.57 544.32 448.55 544.57C448.53 545.92 448.53 547.11 448.5 548.21C448.43 552.89 448.25 557.71 448 562.49C448.87 562.51 449.76 562.54 450.65 562.54ZM462.1 556.91C462.1 556.89 462.1 556.87 462.1 556.87C462.06 556.21 462.01 555.52 461.97 554.86C461.97 554.85 461.97 554.8 461.97 554.72C462.03 554.76 462.07 554.78 462.08 554.79C464.46 556.07 466.83 557.42 469.12 558.79C469.28 558.88 469.42 558.77 469.44 558.63C469.44 558.63 469.45 558.61 469.46 558.58C469.45 558.56 469.44 558.54 469.44 558.54C469.42 558.49 469.39 558.45 469.35 558.4C466.95 556.96 464.5 555.54 462.03 554.24C462.01 554.24 462.01 554.22 461.99 554.22C461.99 554.22 461.97 554.21 461.94 554.19C461.94 554.17 461.94 554.15 461.94 554.15C461.9 553.42 461.85 552.62 461.81 551.73C461.81 551.72 461.81 551.67 461.81 551.59C466.08 554.1 468.46 555.49 468.94 555.77C469.07 555.86 469.23 555.75 469.26 555.61C469.28 555.57 469.28 555.45 469.17 555.36C468.67 555.07 466.21 553.62 461.78 551.02C461.78 550.99 461.78 550.97 461.78 550.97C461.76 550.54 461.74 550.1 461.71 549.67C461.71 549.65 461.71 549.53 461.69 549.33C461.76 549.35 461.8 549.37 461.81 549.37C464.18 550.42 466.49 551.63 468.69 552.96C468.82 553.05 468.98 552.94 469.01 552.82C469.03 552.78 469.03 552.66 468.91 552.57C466.61 551.18 464.18 549.94 461.71 548.85C461.71 548.84 461.7 548.84 461.67 548.82C461.67 548.8 461.67 548.78 461.67 548.78C461.65 548.02 461.62 547.27 461.6 546.51C461.6 546.51 461.6 546.46 461.6 546.38C461.67 546.42 461.71 546.44 461.71 546.45C464.05 547.84 466.49 549.12 468.94 550.22C469.1 550.29 469.26 550.17 469.28 550.03C469.28 549.99 469.3 549.9 469.17 549.83C466.58 548.66 464.05 547.31 461.6 545.85C461.6 545.85 461.58 545.84 461.55 545.83C461.55 545.8 461.55 545.79 461.55 545.78C461.53 545.1 461.53 544.43 461.51 543.75C461.51 543.74 461.51 543.69 461.51 543.61C461.58 543.67 461.62 543.7 461.62 543.7C464.16 545.44 466.81 547.09 469.53 548.53C469.53 548.53 469.55 548.53 469.58 548.55L469.58 561.12L462.1 556.91ZM469.44 560.87C469.44 559.69 469.44 559.03 469.44 558.9C469.37 558.95 469.3 558.97 469.23 558.97C469.23 558.97 469.23 558.97 469.23 558.97C469.17 558.97 469.1 558.95 469.05 558.93C466.81 557.58 464.48 556.25 462.15 554.99C462.17 555.59 462.22 556.21 462.26 556.82C463.22 557.36 465.61 558.71 469.44 560.87ZM462.06 554.08C464.55 555.41 467.02 556.82 469.39 558.26C469.39 558.26 469.42 558.26 469.42 558.29C469.42 557.32 469.42 549.63 469.42 548.66C466.74 547.22 464.14 545.65 461.65 543.93C461.65 544.55 461.67 545.17 461.69 545.76C464.11 547.22 466.65 548.55 469.21 549.71C469.37 549.78 469.44 549.92 469.42 550.08C469.37 550.24 469.23 550.4 469.03 550.4C468.98 550.4 468.91 550.38 468.87 550.35C466.45 549.26 464.05 548.02 461.74 546.65C461.76 547.34 461.78 548.02 461.81 548.73C464.27 549.83 466.7 551.06 468.98 552.46C469.14 552.55 469.19 552.71 469.14 552.87C469.07 553.12 468.8 553.23 468.59 553.1C466.42 551.79 464.16 550.61 461.83 549.58C461.83 549.59 461.83 549.68 461.83 549.69C461.85 550.1 461.87 550.54 461.87 550.95C462.61 551.38 468.46 554.82 469.19 555.25C469.35 555.34 469.39 555.5 469.35 555.66C469.28 555.91 469.01 556.02 468.8 555.91C468.11 555.5 462.61 552.27 461.92 551.86C461.99 552.66 462.01 553.39 462.06 554.08C462.08 554.08 462.08 554.08 462.06 554.08ZM469.46 547.98C466.74 546.49 464.07 544.85 461.53 543.09C461.53 543.08 461.52 543.08 461.51 543.06C461.51 542.88 461.51 542.79 461.51 542.77C461.51 542.42 461.51 542.06 461.51 541.71C461.51 541.71 461.51 541.66 461.51 541.58L469.6 547.27L469.58 548.05C469.51 548 469.47 547.98 469.46 547.98ZM469.42 547.79C469.42 547.76 469.42 547.61 469.42 547.34C464.74 544.06 462.14 542.24 461.62 541.87C461.62 542.17 461.62 542.47 461.62 542.77C461.62 542.78 461.63 542.86 461.65 542.99C465.04 545.23 467.63 546.83 469.42 547.79ZM470.35 546.47C470.29 546.35 470.15 546.29 469.99 546.29C469.92 546.29 469.85 546.31 469.78 546.33C469.78 546.33 469.76 546.34 469.74 546.35L469.69 546.33L461.37 540.48C461.4 540.44 461.41 540.42 461.42 540.41C461.53 540.25 461.65 540.09 461.74 539.93C461.83 539.79 461.92 539.68 462.01 539.54C462.01 539.54 462.03 539.52 462.06 539.47C462.1 539.52 462.12 539.54 462.13 539.54C462.77 540.14 463.57 540.57 464.34 540.98C464.55 541.1 464.75 541.21 464.96 541.33C465.47 541.61 469.57 543.92 470.08 544.21C470.24 544.3 470.38 544.16 470.42 544.05C470.45 544 470.45 543.89 470.33 543.82C469.92 543.59 466.65 541.74 466.24 541.51C465.92 541.33 465.58 541.14 465.21 540.96C464.21 540.46 463.15 539.91 462.4 539.15C462.4 539.15 462.38 539.14 462.35 539.11C462.38 539.08 462.4 539.07 462.4 539.06C462.74 538.58 463.09 538.08 463.41 537.58C463.43 537.54 463.57 537.34 463.82 536.98C468.75 540.44 471.5 542.36 472.05 542.74C472.16 542.83 472.32 542.77 472.37 542.61C472.39 542.56 472.41 542.42 472.27 542.33C471.73 541.95 468.99 540.04 464.07 536.59C464.1 536.55 464.11 536.53 464.11 536.53C464.43 536.05 464.78 535.57 465.1 535.09C465.12 535.05 465.24 534.87 465.46 534.54C465.5 534.56 465.53 534.58 465.53 534.58C468.23 536.8 471.09 538.88 474.03 540.73C474.04 540.73 474.06 540.75 474.1 540.78C474.08 540.82 474.06 540.84 474.06 540.85C472.89 542.72 471.68 544.62 470.49 546.47C470.49 546.47 470.46 546.51 470.42 546.56C470.38 546.51 470.36 546.47 470.35 546.47ZM470.42 546.31C471.59 544.5 472.75 542.67 473.9 540.85C470.99 539.02 468.16 536.98 465.51 534.79C465.48 534.83 465.26 535.16 465.23 535.2C464.91 535.66 464.62 536.11 464.3 536.57C465.1 537.14 471.56 541.65 472.37 542.22C472.5 542.31 472.57 542.49 472.5 542.65C472.43 542.9 472.16 542.99 471.95 542.86C471.41 542.48 468.71 540.59 463.84 537.19C463.65 537.48 463.54 537.64 463.52 537.67C463.2 538.15 462.86 538.63 462.54 539.09C463.27 539.79 464.3 540.32 465.28 540.8C465.65 540.98 465.99 541.17 466.33 541.35C466.74 541.58 470.01 543.43 470.42 543.66C470.58 543.75 470.65 543.89 470.61 544.07C470.54 544.32 470.26 544.43 470.06 544.32C469.55 544.03 465.45 541.73 464.94 541.44C464.73 541.33 464.53 541.21 464.32 541.1C463.57 540.69 462.79 540.27 462.15 539.7C462.08 539.82 462.01 539.91 461.92 540.02C461.83 540.16 461.74 540.3 461.62 540.43C462.44 541.01 468.97 545.6 469.78 546.17C469.85 546.15 469.92 546.15 470.01 546.15C470.17 546.15 470.31 546.19 470.42 546.31ZM474.29 540.34C471.31 538.49 468.46 536.43 465.78 534.22C465.78 534.21 465.76 534.2 465.74 534.17C465.76 534.14 465.78 534.13 465.78 534.13C466.06 533.74 466.31 533.35 466.58 532.94C466.61 532.9 466.75 532.7 466.99 532.34C467.01 532.48 467.02 532.56 467.02 532.57C467.02 532.64 467.06 532.71 467.11 532.75C467.67 533.14 470.46 535.09 475.5 538.61C475.29 538.95 475.18 539.14 475.15 539.18C474.93 539.57 474.67 539.95 474.45 540.34C474.44 540.35 474.41 540.36 474.35 540.39C474.31 540.36 474.29 540.35 474.29 540.34ZM474.29 540.18C474.51 539.82 474.74 539.45 474.97 539.09C474.99 539.06 475.08 538.9 475.25 538.63C470.28 535.16 467.52 533.23 466.97 532.85C466.93 532.82 466.88 532.78 466.86 532.73C466.84 532.76 466.69 533 466.67 533.03C466.42 533.39 466.17 533.76 465.92 534.15C468.55 536.32 471.38 538.35 474.29 540.18ZM467.27 532.32C467.22 532.27 467.18 532.27 467.11 532.27C467.1 532.28 467.04 532.29 466.93 532.32C466.99 532.22 467.03 532.17 467.04 532.16C467.31 531.75 467.59 531.31 467.89 530.88C467.91 530.85 468 530.71 468.18 530.45L468.25 530.49C473.12 533.54 475.82 535.23 476.37 535.57C476.5 535.66 476.66 535.54 476.69 535.43C476.71 535.38 476.71 535.25 476.59 535.18C476.05 534.84 473.33 533.14 468.43 530.08C468.46 530.04 468.48 530.02 468.48 530.01C468.78 529.58 469.05 529.12 469.35 528.69C469.36 528.67 469.42 528.58 469.53 528.41C469.57 528.43 469.6 528.43 469.6 528.43C472.69 529.69 475.57 531.38 478.15 533.49C478.22 533.53 478.29 533.55 478.35 533.53C478.36 533.53 478.42 533.52 478.51 533.51C478.46 533.59 478.43 533.64 478.42 533.65C477.44 535.29 476.57 536.75 475.75 538.13C475.74 538.13 475.72 538.15 475.68 538.19C470.63 534.67 467.83 532.71 467.27 532.32ZM467.38 532.18C468.21 532.76 474.83 537.39 475.66 537.97C476.46 536.66 477.3 535.25 478.22 533.67C478.15 533.65 478.1 533.62 478.03 533.58C475.47 531.5 472.64 529.83 469.58 528.57C469.57 528.59 469.47 528.72 469.46 528.73C469.19 529.14 468.91 529.58 468.64 529.99C469.44 530.49 475.86 534.49 476.66 534.99C476.82 535.09 476.87 535.25 476.82 535.43C476.75 535.68 476.48 535.79 476.27 535.66C475.74 535.32 473.06 533.65 468.23 530.63C468.11 530.82 468.04 530.93 468.02 530.95C467.77 531.38 467.52 531.77 467.27 532.14C467.31 532.14 467.34 532.16 467.38 532.18ZM478.51 533.26C478.49 533.23 478.49 533.21 478.47 533.19C475.86 531.09 472.96 529.37 469.85 528.07C469.85 528.07 469.81 528.05 469.76 528.02C469.79 527.98 469.8 527.96 469.81 527.95C470.22 527.31 470.63 526.67 471.04 526.03C471.04 526.03 471.06 526.01 471.09 525.97C471.13 525.99 471.15 526.01 471.15 526.01C473.9 527.7 476.59 529.44 479.18 531.13C479.31 531.22 479.45 531.11 479.5 530.99C479.52 530.95 479.54 530.81 479.41 530.74C476.8 529.05 474.1 527.34 471.41 525.65C471.4 525.64 471.38 525.63 471.34 525.6C471.36 525.56 471.38 525.54 471.38 525.53C472.18 524.27 472.98 522.99 473.87 521.58C473.88 521.57 473.89 521.55 473.92 521.51C473.96 521.54 473.98 521.55 473.99 521.55C476.75 523.34 479.54 525.07 482.33 526.72C482.34 526.72 482.36 526.74 482.4 526.77C482.22 527.09 482.12 527.28 482.1 527.31C481.81 527.84 481.51 528.39 481.21 528.91C481.21 528.92 481.19 528.94 481.17 528.98C476.26 525.91 473.53 524.2 472.98 523.86C472.85 523.77 472.69 523.89 472.66 524C472.64 524.05 472.64 524.18 472.75 524.25C473.3 524.59 476.03 526.3 480.94 529.37C480.91 529.41 480.89 529.44 480.89 529.44C480.11 530.79 479.38 532.05 478.67 533.28C478.67 533.29 478.64 533.32 478.58 533.37C478.54 533.3 478.52 533.26 478.51 533.26ZM478.56 533.07C478.56 533.07 478.56 533.07 478.58 533.1C479.27 531.93 479.98 530.72 480.71 529.42C479.9 528.91 473.45 524.89 472.64 524.39C472.55 524.32 472.48 524.23 472.46 524.11C472.14 524.62 471.84 525.1 471.54 525.55C474.24 527.22 476.91 528.94 479.5 530.61C479.63 530.7 479.7 530.86 479.66 531.04C479.59 531.27 479.31 531.41 479.11 531.27C476.53 529.6 473.85 527.89 471.15 526.19C470.74 526.79 470.38 527.38 469.99 527.98C473.07 529.26 475.95 530.97 478.56 533.07ZM473.03 523.73C473.83 524.23 480.27 528.25 481.07 528.75C481.37 528.25 481.65 527.75 481.92 527.22C481.94 527.18 482.13 526.85 482.15 526.81C479.41 525.19 476.66 523.5 473.94 521.74C473.53 522.4 473.12 523.06 472.73 523.68C472.75 523.68 472.8 523.66 472.82 523.66C472.89 523.66 472.96 523.68 473.03 523.73ZM454.99 526.31C454.83 526.01 454.65 525.71 454.49 525.42C454.47 525.38 454.37 525.21 454.19 524.89L455.63 525.23C455.61 525.29 455.59 525.32 455.59 525.33C455.43 525.65 455.27 525.97 455.11 526.31C455.11 526.32 455.09 526.35 455.06 526.42C455.02 526.35 455 526.32 454.99 526.31ZM454.63 525.35C454.77 525.6 454.9 525.85 455.06 526.13C455.2 525.87 455.31 525.62 455.45 525.37C455.39 525.35 455.08 525.27 454.51 525.12C454.58 525.26 454.62 525.33 454.63 525.35ZM482.51 526.31C479.75 524.66 476.94 522.95 474.19 521.17C474.19 521.16 474.17 521.15 474.13 521.12C474.15 521.08 474.17 521.06 474.17 521.05C474.58 520.41 474.97 519.75 475.36 519.11C475.36 519.1 475.39 519.07 475.43 519.02C475.47 519.07 475.49 519.1 475.5 519.11C475.52 519.13 475.54 519.15 475.57 519.18C476.29 519.71 482.09 523.95 482.81 524.48C482.93 524.57 483.06 524.5 483.11 524.37C483.13 524.32 483.15 524.18 483.02 524.09C482.29 523.56 476.5 519.32 475.77 518.79C475.75 518.77 475.73 518.77 475.7 518.77C475.7 518.76 475.67 518.76 475.61 518.74C475.64 518.69 475.65 518.66 475.66 518.65C475.79 518.42 475.93 518.19 476.07 517.97C476.09 517.94 476.17 517.8 476.32 517.55C476.36 517.58 476.38 517.6 476.39 517.6C479.02 519.27 481.62 521.01 484.09 522.79C484.21 522.88 484.34 522.81 484.39 522.67C484.41 522.63 484.43 522.49 484.3 522.4C481.83 520.64 479.25 518.9 476.62 517.23C476.61 517.23 476.59 517.22 476.55 517.19C476.58 517.15 476.59 517.12 476.59 517.12C476.91 516.59 477.21 516.07 477.53 515.54C477.55 515.51 477.65 515.34 477.83 515.04C477.87 515.07 477.89 515.08 477.9 515.09C480.48 516.73 483.02 518.47 485.44 520.25C485.55 520.34 485.69 520.27 485.74 520.14C485.76 520.09 485.78 519.95 485.65 519.86C483.22 518.1 480.71 516.37 478.13 514.7C478.12 514.69 478.1 514.68 478.06 514.65C478.08 514.61 478.1 514.59 478.1 514.58C478.35 514.15 478.61 513.74 478.86 513.3C478.86 513.29 478.9 513.23 478.97 513.12L479.04 513.17L479.02 513.23L479.02 513.23C479.04 513.19 479.06 513.17 479.06 513.17C481.53 514.65 484.02 516.21 486.45 517.78C486.58 517.87 486.72 517.78 486.77 517.65C486.79 517.6 486.81 517.46 486.67 517.39C484.25 515.82 481.78 514.26 479.29 512.78C479.29 512.77 479.25 512.76 479.2 512.73C479.23 512.69 479.24 512.67 479.25 512.66C479.61 512.02 479.98 511.41 480.37 510.77C480.37 510.76 480.38 510.74 480.41 510.7C480.45 510.72 480.48 510.74 480.48 510.74C482.97 512.48 485.67 514.01 488.43 515.27C488.44 515.27 488.46 515.28 488.5 515.29C488.48 515.33 488.46 515.36 488.46 515.36C486.63 518.95 484.66 522.61 482.63 526.29C482.63 526.29 482.61 526.31 482.58 526.35C482.54 526.33 482.52 526.31 482.51 526.31ZM482.54 526.15C483.13 525.07 483.73 524 484.3 522.93C484.21 522.95 484.09 522.93 484 522.86C481.55 521.12 478.99 519.38 476.39 517.71C476.37 517.74 476.22 517.98 476.21 518.01C476.09 518.22 475.95 518.42 475.84 518.63C475.84 518.63 475.86 518.63 475.86 518.65C476.59 519.18 482.38 523.42 483.11 523.95C483.25 524.07 483.31 524.23 483.25 524.41C483.18 524.64 482.9 524.75 482.72 524.62C482 524.09 476.2 519.84 475.47 519.31C475.47 519.31 475.45 519.31 475.45 519.29C475.09 519.89 474.72 520.48 474.35 521.1C477.07 522.86 479.82 524.55 482.54 526.15ZM484.41 522.24C484.48 522.29 484.55 522.38 484.57 522.47C484.94 521.78 485.3 521.1 485.67 520.41C485.58 520.43 485.46 520.43 485.37 520.37C482.97 518.61 480.46 516.89 477.92 515.25C477.9 515.28 477.71 515.57 477.69 515.61C477.39 516.09 477.1 516.59 476.78 517.1C479.38 518.77 481.94 520.48 484.41 522.24ZM485.76 519.68C485.85 519.75 485.9 519.82 485.92 519.91C486.74 518.38 487.52 516.85 488.3 515.36C485.55 514.13 482.93 512.62 480.46 510.9C480.11 511.5 479.77 512.09 479.43 512.66C481.9 514.15 484.37 515.7 486.77 517.28C486.9 517.37 486.97 517.53 486.93 517.71C486.86 517.94 486.58 518.08 486.38 517.94C483.98 516.37 481.51 514.81 479.04 513.35C479.04 513.35 479.02 513.37 479.02 513.37C478.77 513.76 478.54 514.17 478.29 514.56C480.85 516.21 483.36 517.92 485.76 519.68ZM455.77 524.82C455.75 524.8 455.73 524.8 455.7 524.8C455.58 524.77 454.98 524.63 453.9 524.37L453.01 522.77C453.1 522.78 453.16 522.79 453.17 522.79C454.26 522.93 455.34 523.22 456.37 523.61C456.37 523.61 456.39 523.62 456.43 523.63C456.41 523.68 456.39 523.7 456.39 523.7C456.21 524.07 456.05 524.41 455.86 524.78C455.86 524.78 455.85 524.81 455.84 524.87C455.8 524.84 455.78 524.83 455.77 524.82ZM455.77 524.66C455.77 524.66 455.79 524.66 455.79 524.66C455.95 524.34 456.09 524.05 456.25 523.73C455.31 523.36 454.31 523.11 453.3 522.97C453.35 523.06 453.59 523.47 454.01 524.23C455.07 524.49 455.65 524.63 455.77 524.66ZM456.57 523.2C455.34 522.72 454.1 522.42 452.8 522.29C452.8 522.29 452.78 522.29 452.75 522.29L452.71 522.24L451.36 519.84L457.21 521.99C457.18 522.03 457.17 522.05 457.17 522.06C457.05 522.31 456.94 522.54 456.82 522.79C456.81 522.82 456.75 522.96 456.64 523.22C456.6 523.21 456.58 523.2 456.57 523.2ZM456.55 523.04C456.56 523.01 456.67 522.77 456.69 522.74C456.8 522.51 456.89 522.31 457.01 522.08C456.65 521.95 454.88 521.3 451.68 520.14L452.82 522.13C454.5 522.42 455.74 522.72 456.55 523.04ZM457.35 521.55L457.35 521.46L457.35 521.46L457.33 521.53C453.69 520.2 451.67 519.46 451.27 519.31C451.22 519.29 451.18 519.29 451.15 519.31C451.15 519.32 451.14 519.32 451.11 519.34C450.85 518.87 450.7 518.61 450.67 518.56C450.42 518.1 450.15 517.65 449.9 517.17C449.89 517.15 449.85 517.08 449.78 516.96C449.91 517.01 449.97 517.05 449.99 517.05C452.11 518.06 454.35 518.88 456.59 519.52C456.6 519.52 456.6 519.52 456.62 519.52L457.53 521.35L457.42 521.58L457.35 521.55ZM451.34 519.18C451.74 519.32 453.75 520.06 457.37 521.39L457.39 521.37C456.89 520.36 456.6 519.79 456.55 519.68C454.38 519.06 452.23 518.26 450.17 517.3C450.4 517.69 450.61 518.08 450.83 518.49C450.87 518.56 451.18 519.11 451.22 519.18C451.18 519.15 451.18 519.15 451.2 519.15C451.25 519.15 451.29 519.15 451.34 519.18ZM456.18 518.93C453.85 518.22 451.59 517.35 449.44 516.3C449.44 516.3 449.43 516.3 449.42 516.3L449.39 516.27C449.28 516.07 449.22 515.95 449.21 515.93C448.91 515.41 448.62 514.88 448.32 514.35C448.31 514.34 448.27 514.28 448.21 514.17L455.27 516.82C455.28 516.84 455.29 516.84 455.29 516.85C455.38 517.05 455.5 517.26 455.59 517.46C455.64 517.56 455.89 518.07 456.34 518.97C456.25 518.94 456.19 518.93 456.18 518.93ZM449.49 516.16C451.59 517.19 453.78 518.06 456.05 518.74C455.98 518.62 455.49 517.65 455.43 517.53C455.34 517.35 455.25 517.14 455.15 516.96C454.49 516.71 449.19 514.74 448.53 514.49C448.78 514.95 449.05 515.41 449.3 515.89C449.32 515.9 449.38 516 449.49 516.16C449.49 516.16 449.49 516.16 449.49 516.16ZM447.84 513.55C447.66 513.24 447.56 513.06 447.54 513.03C447.22 512.48 446.93 511.93 446.61 511.38C446.6 511.37 446.56 511.3 446.49 511.18C450.5 513.07 452.72 514.12 453.17 514.33C453.76 514.61 454.24 514.83 454.56 515.43C454.7 515.66 454.81 515.89 454.9 516.07C454.91 516.08 454.93 516.13 454.97 516.23L447.84 513.55ZM454.67 515.95C454.61 515.82 454.51 515.66 454.42 515.5C454.1 514.95 453.65 514.72 453.07 514.45C453.07 514.45 453.07 514.45 453.05 514.45C449.32 512.68 447.25 511.69 446.83 511.5C447.11 511.98 447.38 512.46 447.66 512.94C447.68 512.97 447.78 513.14 447.95 513.44C451.99 514.95 454.23 515.79 454.67 515.95Z" id="br00Tekhq"></path></defs><g><g><g><use xlink:href="#hMZACJRnn" opacity="1" fill="#000000" fill-opacity="1"></use><g><use xlink:href="#hMZACJRnn" opacity="1" fill-opacity="0" stroke="#000000" stroke-width="1" stroke-opacity="0"></use></g></g><g><use xlink:href="#br00Tekhq" opacity="1" fill="#180f0b" fill-opacity="1"></use><g><use xlink:href="#br00Tekhq" opacity="1" fill-opacity="0" stroke="#000000" stroke-width="1" stroke-opacity="0"></use></g></g></g></g></svg>