<?xml version="1.0" ?><svg id="图层_1" style="enable-background:new -239 241 32 32;" version="1.1" viewBox="-239 241 32 32" xml:space="preserve" xmlns="http://www.w3.org/2000/svg" xmlns:xlink="http://www.w3.org/1999/xlink"><style type="text/css">
	.st0{fill:#F42F42;}
	.st1{opacity:0.2038;fill:#332E0A;enable-background:new    ;}
	.st2{fill:none;stroke:#0A2933;stroke-linejoin:round;}
	.st3{fill:none;stroke:#FFFFFF;stroke-linecap:round;stroke-linejoin:round;stroke-dasharray:1,2,6,2,3;}
</style><path class="letter-fill" d="M-219.1,263.8c-1.1,0.9-2.2,1.5-3.3,2c-1.1,0.4-2.2,0.7-3.6,0.7c-1.2,0-2.3-0.2-3.2-0.7  c-0.9-0.5-1.6-1.1-2.1-1.9c-0.5-0.8-0.7-1.7-0.7-2.6c0-1.3,0.4-2.4,1.2-3.3c0.8-0.9,1.9-1.5,3.3-1.8c0.3-0.1,1-0.2,2.2-0.5  c1.2-0.2,2.2-0.5,3-0.7c0.8-0.2,1.8-0.4,2.7-0.7c-0.1-1.2-0.3-2.1-0.7-2.7c-0.4-0.6-1.4-0.9-2.7-0.9c-1.2,0-2.1,0.2-2.7,0.5  c-0.6,0.3-1.1,0.8-1.5,1.5c-0.4,0.7-0.7,1.1-0.9,1.3s-0.6,0.3-1.1,0.3c-0.5,0-1-0.2-1.4-0.5c-0.4-0.3-0.6-0.8-0.6-1.3  c0-0.8,0.3-1.6,0.9-2.4c0.6-0.8,1.5-1.4,2.7-1.9s2.8-0.8,4.6-0.8c2.1,0,3.7,0.2,4.9,0.7c1.2,0.5,2,1.3,2.5,2.3  c0.5,1.1,0.7,2.4,0.7,4.2c0,1.1,0,2,0,2.8s0,1.6,0,2.6c0,0.9,0.1,1.8,0.4,2.8s0.4,1.6,0.4,1.8c0,0.5-0.2,0.9-0.7,1.3s-1,0.6-1.5,0.6  c-0.5,0-1-0.2-1.4-0.7C-218.1,265.3-218.6,264.6-219.1,263.8z M-219.4,257c-0.7,0.3-1.7,0.5-3,0.8c-1.3,0.3-2.2,0.5-2.7,0.6  c-0.5,0.1-1,0.4-1.4,0.8s-0.7,0.9-0.7,1.6c0,0.7,0.3,1.3,0.8,1.8c0.5,0.5,1.2,0.7,2.1,0.7c0.9,0,1.8-0.2,2.6-0.6  c0.8-0.4,1.4-0.9,1.7-1.6c0.4-0.7,0.6-1.9,0.6-3.5V257z"/><path class="st1" d="M-232,260.4c0.1,0.7,0.3,1.4,0.7,2c0.5,0.8,1.2,1.5,2.1,1.9c0.9,0.5,2,0.7,3.2,0.7  c1.3,0,2.5-0.2,3.6-0.7c1.1-0.4,2.2-1.1,3.3-2c0.5,0.9,1,1.5,1.5,2c0.5,0.5,0.9,0.7,1.4,0.7c0.6,0,1.1-0.2,1.5-0.6  c0.2-0.2,0.4-0.4,0.6-0.5c0.1,0.3,0.1,0.5,0.1,0.6c0,0.5-0.2,0.9-0.7,1.3s-1,0.6-1.5,0.6c-0.5,0-1-0.2-1.4-0.7c-0.5-0.5-1-1.1-1.5-2  c-1.1,0.9-2.2,1.5-3.3,2c-1.1,0.4-2.2,0.7-3.6,0.7c-1.2,0-2.3-0.2-3.2-0.7c-0.9-0.5-1.6-1.1-2.1-1.9c-0.5-0.8-0.7-1.7-0.7-2.6  C-232,260.9-232,260.7-232,260.4z" id="Combined-Shape"/><path class="letter-border" d="M-219.1,263.8c-1.1,0.9-2.2,1.5-3.3,2c-1.1,0.4-2.2,0.7-3.6,0.7c-1.2,0-2.3-0.2-3.2-0.7  c-0.9-0.5-1.6-1.1-2.1-1.9c-0.5-0.8-0.7-1.7-0.7-2.6c0-1.3,0.4-2.4,1.2-3.3c0.8-0.9,1.9-1.5,3.3-1.8c0.3-0.1,1-0.2,2.2-0.5  c1.2-0.2,2.2-0.5,3-0.7c0.8-0.2,1.8-0.4,2.7-0.7c-0.1-1.2-0.3-2.1-0.7-2.7c-0.4-0.6-1.4-0.9-2.7-0.9c-1.2,0-2.1,0.2-2.7,0.5  c-0.6,0.3-1.1,0.8-1.5,1.5c-0.4,0.7-0.7,1.1-0.9,1.3s-0.6,0.3-1.1,0.3c-0.5,0-1-0.2-1.4-0.5c-0.4-0.3-0.6-0.8-0.6-1.3  c0-0.8,0.3-1.6,0.9-2.4c0.6-0.8,1.5-1.4,2.7-1.9s2.8-0.8,4.6-0.8c2.1,0,3.7,0.2,4.9,0.7c1.2,0.5,2,1.3,2.5,2.3  c0.5,1.1,0.7,2.4,0.7,4.2c0,1.1,0,2,0,2.8s0,1.6,0,2.6c0,0.9,0.1,1.8,0.4,2.8s0.4,1.6,0.4,1.8c0,0.5-0.2,0.9-0.7,1.3s-1,0.6-1.5,0.6  c-0.5,0-1-0.2-1.4-0.7C-218.1,265.3-218.6,264.6-219.1,263.8z M-219.4,257c-0.7,0.3-1.7,0.5-3,0.8c-1.3,0.3-2.2,0.5-2.7,0.6  c-0.5,0.1-1,0.4-1.4,0.8s-0.7,0.9-0.7,1.6c0,0.7,0.3,1.3,0.8,1.8c0.5,0.5,1.2,0.7,2.1,0.7c0.9,0,1.8-0.2,2.6-0.6  c0.8-0.4,1.4-0.9,1.7-1.6c0.4-0.7,0.6-1.9,0.6-3.5V257z"/><path class="st3" d="M-229.2,250.5c1.4-1.4,3.3-2.1,5.6-2.1" id="Path-2"/></svg>