<?xml version="1.0" encoding="UTF-8" standalone="no"?>
<!DOCTYPE svg PUBLIC "-//W3C//DTD SVG 1.1//EN" "http://www.w3.org/Graphics/SVG/1.1/DTD/svg11.dtd">
<svg version="1.1" xmlns="http://www.w3.org/2000/svg" xmlns:xlink="http://www.w3.org/1999/xlink" preserveAspectRatio="xMidYMid meet" viewBox="63.68000000000002 233.30285714285725 64.01260417483077 62.10285714285709" width="64.01" height="62.1"><defs><path d="M93.51 256.02C93.53 255.91 93.51 255.77 93.39 255.68C93.39 255.68 93.39 255.68 93.39 255.68C93.25 255.25 92.06 251.81 91.91 251.38C91.75 250.9 91.11 250.9 90.93 251.38C89.39 255.7 87.84 260.05 86.31 264.37C86.29 264.37 86.26 264.39 86.24 264.39C86.13 264.46 86.08 264.59 86.1 264.73C86.1 264.78 86.13 264.8 86.15 264.85C85.85 265.67 85.55 266.51 85.26 267.34C84.89 267.57 84.98 268.27 85.53 268.27C89.44 268.18 93.35 268.16 97.26 268.23C97.87 268.23 97.9 267.34 97.37 267.22C96.09 263.5 94.79 259.75 93.51 256.02ZM91.09 253.92C91.12 253.83 91.37 253.12 91.41 253.03C91.59 253.55 91.77 254.06 91.93 254.56C91.66 254.35 91.36 254.13 91.09 253.92ZM92.3 255.59C92.62 256.48 92.91 257.39 93.23 258.29C92.25 257.6 91.27 256.91 90.29 256.23C90.33 256.11 90.52 255.54 90.88 254.51C91.5 254.99 91.98 255.34 92.3 255.59ZM93.55 259.27C93.9 260.25 94.24 261.23 94.56 262.22C92.98 260.8 91.29 259.54 89.46 258.45C89.5 258.34 89.7 257.8 90.06 256.82C91.61 257.9 92.78 258.72 93.55 259.27ZM86.95 265.55C87.09 265.62 87.22 265.71 87.34 265.78C87.98 266.22 88.59 266.7 89.21 267.22C88.27 267.2 87.31 267.22 86.35 267.25C86.56 266.67 86.77 266.1 86.95 265.55ZM89.9 266.97C89.42 266.56 88.91 266.15 88.41 265.76C88.16 265.58 87.91 265.39 87.66 265.23C87.57 265.17 87.36 265.07 87.18 264.96C87.38 264.34 87.61 263.75 87.82 263.13C89.37 264.48 90.93 265.83 92.48 267.18C91.66 267.18 90.81 267.18 89.99 267.18C89.99 267.11 89.97 267.02 89.9 266.97ZM88.02 262.51C88.21 262.01 88.39 261.51 88.57 261.01C90.06 262.01 91.36 263.18 92.57 264.48C93.44 265.44 94.33 266.38 95.31 267.18C94.7 267.18 94.03 267.18 93.39 267.18C91.61 265.62 89.81 264.07 88.02 262.51ZM88.78 260.41C88.83 260.27 89.21 259.18 89.26 259.04C91.31 260.3 93.21 261.76 94.97 263.43C95.41 264.66 95.82 265.9 96.25 267.13C94.95 266.22 93.87 265.01 92.78 263.82C91.57 262.51 90.24 261.37 88.78 260.41Z" id="dkdovID26"></path><path d="M84.98 267.95C84.91 267.7 85.01 267.43 85.19 267.29C85.28 267.05 85.97 265.09 86.06 264.85C86.03 264.82 86.03 264.78 86.03 264.75C85.99 264.59 86.06 264.41 86.22 264.32C86.24 264.32 86.24 264.3 86.26 264.3C86.72 263 90.42 252.63 90.88 251.34C90.97 251.09 91.2 250.93 91.45 250.93C91.7 250.93 91.91 251.09 92 251.34C92.15 251.76 93.32 255.18 93.46 255.61C93.58 255.7 93.62 255.84 93.6 256C93.98 257.12 97.06 266.04 97.44 267.15C97.74 267.25 97.85 267.54 97.83 267.79C97.81 268.05 97.62 268.3 97.28 268.3C97.28 268.3 97.28 268.3 97.28 268.3C95.68 268.27 94.1 268.25 92.5 268.25C90.19 268.25 87.84 268.27 85.51 268.34C85.51 268.34 85.51 268.34 85.51 268.34C85.2 268.25 85.03 268.12 84.98 267.95ZM91.02 251.41C90.71 252.27 89.16 256.62 86.38 264.43C86.35 264.45 86.33 264.46 86.33 264.46C86.31 264.46 86.31 264.46 86.29 264.48C86.19 264.53 86.17 264.64 86.19 264.73C86.19 264.75 86.22 264.8 86.24 264.82C86.24 264.82 86.25 264.83 86.26 264.85L85.37 267.38C85.36 267.4 85.35 267.4 85.35 267.41C85.17 267.52 85.12 267.75 85.19 267.93C85.21 268.02 85.3 268.21 85.58 268.21C85.58 268.21 85.58 268.23 85.58 268.27C85.59 268.23 85.6 268.21 85.6 268.21C87.91 268.16 90.26 268.11 92.57 268.11C94.15 268.11 95.75 268.14 97.33 268.16C97.33 268.16 97.33 268.16 97.33 268.16C97.6 268.16 97.71 267.95 97.74 267.79C97.76 267.59 97.65 267.36 97.42 267.31C97.41 267.31 97.4 267.31 97.37 267.31L97.35 267.27L93.49 256.05C93.49 256.03 93.49 256.02 93.49 256.02C93.51 255.98 93.51 255.84 93.39 255.77C93.39 255.77 93.39 255.76 93.37 255.75C92.48 253.16 91.98 251.72 91.89 251.43C91.75 251.18 91.57 251.09 91.43 251.09C91.27 251.09 91.09 251.18 91.02 251.41ZM96.23 267.18C95.02 266.35 94.03 265.26 93.05 264.21C93.02 264.17 92.76 263.9 92.73 263.86C91.52 262.56 90.17 261.42 88.73 260.46C88.73 260.46 88.71 260.45 88.69 260.43L89.23 258.9C89.28 258.93 89.3 258.95 89.3 258.95C91.36 260.21 93.28 261.69 95.02 263.34C95.02 263.34 95.03 263.35 95.04 263.36L96.41 267.31C96.3 267.23 96.24 267.19 96.23 267.18ZM92.85 263.77C92.88 263.81 93.13 264.08 93.17 264.11C94.08 265.1 95.02 266.13 96.11 266.93C96 266.58 95.04 263.82 94.93 263.47C93.21 261.85 91.34 260.41 89.33 259.15C89.3 259.24 89.14 259.65 88.87 260.39C90.71 261.78 92.04 262.9 92.85 263.77ZM86.93 265.42C86.99 265.46 87.03 265.48 87.04 265.49C87.18 265.55 87.29 265.62 87.41 265.69C88 266.1 88.62 266.56 89.28 267.13C89.29 267.14 89.34 267.19 89.44 267.27C89.32 267.27 89.25 267.27 89.23 267.27C88.18 267.29 87.25 267.29 86.38 267.31C86.37 267.31 86.33 267.31 86.26 267.31L86.93 265.42ZM86.47 267.15C87.25 267.13 88.09 267.13 89.01 267.11C88.41 266.61 87.86 266.19 87.31 265.81C87.22 265.76 87.11 265.71 87.02 265.65C86.91 265.95 86.52 267 86.47 267.15ZM94.99 267.27C94.47 267.27 93.92 267.27 93.39 267.27C93.39 267.27 93.39 267.27 93.37 267.27L87.95 262.56L88.55 260.91C88.6 260.94 88.63 260.96 88.64 260.96C90.01 261.87 91.34 263.02 92.66 264.46C92.67 264.47 92.75 264.56 92.75 264.57C93.58 265.46 94.45 266.4 95.41 267.15C95.41 267.16 95.46 267.2 95.54 267.27C95.21 267.27 95.03 267.27 94.99 267.27ZM95.02 267.11C95.03 267.11 95.12 267.11 95.13 267.11C94.22 266.35 93.42 265.49 92.64 264.64C92.63 264.63 92.56 264.54 92.55 264.53C91.27 263.13 89.99 262.01 88.64 261.1C88.61 261.19 88.45 261.65 88.16 262.47L93.44 267.11C94.14 267.11 94.67 267.11 95.02 267.11ZM89.92 267.18C89.92 267.13 89.9 267.06 89.85 267.02C89.39 266.61 88.89 266.22 88.37 265.83C88.11 265.65 87.84 265.46 87.61 265.3C87.57 265.28 87.47 265.21 87.36 265.17C87.29 265.12 87.2 265.07 87.13 265.03C87.13 265.03 87.11 265.02 87.09 265.01L87.79 263.02L92.69 267.27C92.56 267.27 92.49 267.27 92.48 267.27C91.66 267.27 90.81 267.27 89.99 267.27C89.98 267.27 89.96 267.27 89.92 267.27C89.92 267.21 89.92 267.18 89.92 267.18ZM87.45 265.03C87.57 265.1 87.66 265.14 87.7 265.17C87.93 265.33 88.21 265.51 88.46 265.69C88.98 266.08 89.49 266.49 89.94 266.9C90.01 266.97 90.06 267.04 90.06 267.11C90.79 267.11 91.54 267.11 92.27 267.11C91.98 266.85 90.5 265.57 87.84 263.27L87.27 264.94C87.34 264.98 87.41 265.01 87.45 265.03ZM94.54 262.29C92.96 260.89 91.27 259.63 89.46 258.54C89.46 258.54 89.44 258.53 89.42 258.51L90.06 256.73L93.67 259.25L94.74 262.47C94.62 262.36 94.55 262.3 94.54 262.29ZM94.4 261.97C94.34 261.79 94.03 260.91 93.49 259.31L90.08 256.94L89.58 258.42C91.8 259.92 93.41 261.1 94.4 261.97ZM90.17 256.27L90.83 254.4L92.34 255.54L93.37 258.49L90.17 256.27ZM93.07 258.1L92.23 255.63L90.93 254.63L90.35 256.21L93.07 258.1ZM90.99 253.97L91.41 252.82L92.09 254.79L90.99 253.97ZM91.77 254.35L91.38 253.26L91.18 253.9L91.77 254.35Z" id="cdp19s4pr"></path><path d="M125.85 287.91C125.9 287.77 125.87 287.63 125.74 287.54C125.74 287.54 125.71 287.54 125.71 287.52C120.55 272.64 114.74 257.99 108.32 243.63C108.32 243.54 108.27 243.45 108.21 243.38C107.57 241.97 106.93 240.53 106.26 239.11C106.26 239.11 106.26 239.11 106.26 239.09C106.24 239.06 106.24 239.04 106.22 239.02C106.22 239.02 106.22 238.99 106.19 238.99C106.17 238.97 106.15 238.95 106.15 238.93C106.15 238.93 106.15 238.93 106.15 238.93C106.13 238.9 106.1 238.88 106.08 238.88C104.39 237.81 102.7 236.71 101.01 235.63C100.18 235.11 99.36 234.61 98.49 234.19C98.26 234.08 98.01 233.94 97.74 233.9C97.67 233.83 97.55 233.76 97.42 233.76C95.34 233.62 93.26 233.53 91.18 233.49C90.13 233.46 89.1 233.46 88.05 233.46C87.27 233.46 86.15 233.28 85.42 233.58C85.23 233.65 85.07 233.81 85.05 233.99C84.98 234.03 84.94 234.1 84.91 234.19C81.28 243.29 77.67 252.39 74.03 261.51C70.45 270.54 66.74 279.54 63.84 288.82C63.73 289.19 64.02 289.44 64.32 289.44C64.39 289.51 64.5 289.55 64.64 289.58C67.36 291.2 70.03 292.91 72.64 294.72C72.73 294.79 72.82 294.81 72.91 294.81C73.01 294.9 73.12 294.97 73.26 294.97C74.67 295.02 76.09 295.06 77.51 295.11C77.55 295.13 77.58 295.15 77.62 295.18C77.76 295.29 77.92 295.22 77.99 295.11C80.78 295.2 83.57 295.29 86.33 295.36C86.56 295.36 86.77 295.2 86.81 294.99C87.7 292.02 88.82 289.14 90.17 286.35C91.52 286.37 102.29 286.48 103.63 286.49C103.89 287.18 104.14 287.89 104.37 288.59C104.43 288.8 104.59 288.91 104.8 288.96C104.82 289.03 104.87 289.1 104.94 289.14C106.38 290.33 107.89 291.45 109.44 292.48C110.26 293.01 111.09 293.51 111.93 294.01C112.59 294.4 113.3 294.86 114.1 294.93C116.16 295.09 118.31 294.79 120.34 294.7C122.49 294.61 124.64 294.49 126.79 294.4C126.95 294.4 127.06 294.33 127.13 294.24C127.29 294.13 127.38 293.92 127.36 293.74C127.54 293.55 127.7 293.35 127.61 293.07C127.04 291.34 126.45 289.62 125.85 287.91ZM118.03 284.89C117.94 284.82 117.85 284.8 117.78 284.82C117.58 284.21 117.35 283.59 117.12 282.97C119.68 284.43 122.17 285.97 124.66 287.54C124.89 288.23 125.12 288.91 125.35 289.58C122.81 288.18 120.23 286.79 118.03 284.89ZM116.91 282.17C116.87 282.15 116.85 282.13 116.8 282.13C116.46 281.19 116.11 280.25 115.79 279.31C116.98 279.98 118.19 280.64 119.38 281.3C120.07 281.69 120.73 282.08 121.42 282.47C121.76 282.67 122.1 282.86 122.42 283.06C122.54 283.13 122.95 283.31 123.22 283.47C123.59 284.55 123.98 285.6 124.32 286.63C121.9 285.07 119.43 283.59 116.91 282.17ZM120.71 281.39C119.02 280.41 117.3 279.47 115.59 278.54C115.54 278.51 115.52 278.51 115.47 278.49C115.13 277.58 114.81 276.66 114.47 275.75C114.99 276.02 115.54 276.43 116 276.69C116.69 277.07 117.39 277.49 118.08 277.87C119.41 278.65 120.73 279.43 122.03 280.21C122.33 281.03 122.63 281.85 122.93 282.67C122.19 282.24 121.44 281.81 120.71 281.39ZM118.06 277.17C117.37 276.78 116.69 276.37 115.98 275.98C115.43 275.68 114.81 275.18 114.19 274.99C113.9 274.19 113.6 273.42 113.3 272.62C115.89 273.53 118.33 274.77 120.59 276.3C120.98 277.3 121.35 278.31 121.71 279.31C120.5 278.58 119.27 277.87 118.06 277.17ZM113.01 271.86C112.66 270.99 112.34 270.1 112 269.23C114.4 270.17 116.75 271.2 119.09 272.32C119.47 273.33 119.86 274.33 120.23 275.34C117.97 273.9 115.57 272.73 113.01 271.86ZM111.73 268.5C111.38 267.61 111.04 266.72 110.7 265.83C113.14 267.06 115.59 268.32 118.01 269.55C118.29 270.19 118.54 270.86 118.79 271.52C116.48 270.42 114.13 269.42 111.73 268.5ZM110.38 264.96C110.38 264.96 110.38 264.96 110.38 264.96C110.13 264.34 109.9 263.7 109.65 263.09C110.81 263.54 111.93 264.34 112.98 264.89C114.33 265.6 115.7 266.33 117.05 267.04C117.26 267.59 117.49 268.14 117.69 268.69C115.25 267.45 112.82 266.19 110.38 264.96ZM112.94 264.18C111.79 263.59 110.61 262.72 109.35 262.33C109.12 261.74 108.89 261.14 108.66 260.57C109.46 260.96 110.29 261.35 111.09 261.74C112.69 262.51 114.26 263.27 115.86 264.05C116.14 264.75 116.43 265.46 116.71 266.17C115.45 265.51 114.19 264.85 112.94 264.18ZM112.43 261.74C111.73 261.39 111.02 261.05 110.31 260.71C110.13 260.62 108.66 260.02 108.34 259.79C108.34 259.77 108.32 259.75 108.32 259.75C108.32 259.66 108.3 259.59 108.23 259.52C107.98 258.86 107.7 258.22 107.45 257.55C108.09 257.85 108.8 258.1 109.44 258.38C110.4 258.81 111.36 259.22 112.32 259.66C113.01 259.95 113.76 260.21 114.42 260.55C114.81 261.44 115.18 262.33 115.52 263.22C114.49 262.72 113.46 262.24 112.43 261.74ZM114.1 259.68C113.14 259.25 112.14 258.88 111.2 258.47C110.83 258.31 107.13 256.82 107.15 256.71C107.18 256.57 107.11 256.46 107.02 256.39C106.72 255.63 106.4 254.86 106.1 254.1C106.61 254.35 107.22 254.79 107.45 254.9C108.09 255.22 108.75 255.52 109.42 255.82C110.72 256.39 112.23 256.75 113.28 257.74C113.28 257.78 113.3 257.81 113.33 257.81C113.58 258.42 113.85 259.06 114.1 259.68ZM109.37 255.18C108.5 254.79 107.63 254.35 106.79 253.92C106.47 253.76 106.15 253.49 105.78 253.37C105.55 252.8 105.33 252.21 105.1 251.63C107.31 252.41 109.51 253.21 111.73 253.99C112.09 254.88 112.48 255.79 112.87 256.71C111.79 256.05 110.51 255.68 109.37 255.18ZM105.14 250.99C105.03 250.95 104.94 250.99 104.87 251.04C104.57 250.29 104.25 249.53 103.95 248.75C106.17 249.51 108.37 250.33 110.54 251.18C110.81 251.86 111.11 252.55 111.38 253.21C109.3 252.48 107.22 251.73 105.14 250.99ZM103.63 248.02C103.41 247.47 103.18 246.93 102.97 246.35C105.17 247.04 107.34 247.82 109.46 248.71C109.69 249.28 109.94 249.85 110.19 250.42C108.02 249.58 105.85 248.78 103.63 248.02ZM102.67 245.65C102.4 244.94 102.1 244.25 101.83 243.54C102.79 243.84 103.75 244.16 104.71 244.5C105.3 244.71 105.92 244.94 106.51 245.17C106.72 245.23 107.57 245.46 108.11 245.69C108.46 246.42 108.78 247.18 109.1 247.93C106.99 247.06 104.85 246.31 102.67 245.65ZM105.94 244.32C104.48 243.77 103.02 243.29 101.53 242.83C101.3 242.26 101.07 241.69 100.85 241.14C102.97 241.97 105.07 242.79 107.2 243.61C107.41 244.07 107.61 244.55 107.82 245.03C107.2 244.78 106.56 244.55 105.94 244.32ZM100.53 240.34C100.27 239.75 100.05 239.13 99.79 238.54C101.99 239.61 104.16 240.66 106.35 241.74C106.51 242.1 106.67 242.47 106.83 242.81C104.73 241.99 102.63 241.17 100.53 240.34ZM101.14 236.91C102.56 237.83 103.98 238.74 105.39 239.63C105.58 240.05 105.76 240.46 105.97 240.87C103.79 239.82 101.62 238.74 99.47 237.69C99.15 236.89 98.83 236.09 98.49 235.29C98.74 235.43 98.99 235.57 99.22 235.7C99.89 236.07 100.5 236.5 101.14 236.91ZM73.23 293.92C73.19 293.87 73.17 293.85 73.12 293.81C70.99 292.34 68.85 290.95 66.65 289.6C67.59 289.62 68.53 289.65 69.46 289.67C71.68 291.06 73.9 292.5 76.02 294.01C75.11 293.97 74.17 293.94 73.23 293.92C73.23 293.92 73.23 293.92 73.23 293.92ZM70.65 289.67C71.77 289.69 72.91 289.71 74.03 289.74C75.73 291.22 77.42 292.66 79.15 294.1C78.47 294.08 77.81 294.06 77.12 294.03C75.02 292.5 72.85 291.06 70.65 289.67ZM74.97 289.74C75.7 289.74 76.43 289.76 77.19 289.76C77.21 289.81 77.26 289.85 77.33 289.9C79.57 291.5 81.9 292.94 84.32 294.24C82.93 294.22 81.53 294.17 80.14 294.13C78.4 292.69 76.66 291.22 74.97 289.74ZM78.13 289.26C78.4 288.66 78.67 288.09 78.95 287.5C79.18 287.68 79.45 287.95 79.52 288C79.82 288.25 80.14 288.48 80.43 288.71C81.1 289.21 81.81 289.71 82.49 290.19C83.77 291.09 85.1 291.91 86.47 292.69C86.31 293.14 86.17 293.58 86.03 294.03C83.29 292.62 80.66 291.04 78.13 289.26ZM82.22 289.28C81.35 288.66 80.5 288.02 79.68 287.36C79.52 287.22 79.36 287.09 79.2 286.95C79.47 286.38 79.73 285.78 79.98 285.19C82.31 287.09 84.62 289.07 87.22 290.61C87.02 291.11 86.83 291.61 86.67 292.11C85.14 291.22 83.66 290.29 82.22 289.28ZM80.21 284.62C80.41 284.16 80.59 283.7 80.8 283.22C80.98 283.63 83.98 285.62 84.3 285.85C85.53 286.77 86.77 287.68 88 288.59C87.82 289.1 87.61 289.58 87.43 290.03C84.85 288.5 82.54 286.51 80.21 284.62ZM84.27 285.12C83.52 284.57 82.77 284 82.01 283.45C81.71 283.22 81.39 282.88 81.03 282.72C81.23 282.24 81.44 281.76 81.62 281.28C84.11 282.93 86.58 284.59 89.07 286.24C88.78 286.86 88.5 287.45 88.25 288.05C86.93 287.06 85.6 286.08 84.27 285.12ZM89.51 285.35C87.25 283.84 84.98 282.33 82.72 280.82C83.7 280.78 84.69 280.75 85.65 280.71C87.89 282.17 90.06 283.7 92.16 285.35C92 285.35 91.17 285.33 89.69 285.3C89.6 285.32 89.54 285.33 89.51 285.35ZM93.07 285.1C93.01 284.94 92.85 284.91 92.71 284.98C90.77 283.47 88.75 282.03 86.7 280.66C87.66 280.64 88.62 280.62 89.6 280.62C91.63 282.19 93.69 283.77 95.73 285.35C95.56 285.35 94.71 285.34 93.19 285.33C93.14 285.22 93.1 285.14 93.07 285.1ZM96.64 285.3C94.61 283.75 92.59 282.17 90.56 280.62C91.38 280.62 92.21 280.62 93.01 280.62C95.27 282.22 97.51 283.82 99.77 285.39C99.57 285.39 98.55 285.39 96.71 285.37C96.68 285.34 96.66 285.32 96.64 285.3ZM100.23 284.96C98.17 283.52 96.14 282.06 94.08 280.62C94.42 280.62 94.79 280.62 95.13 280.64C95.84 280.66 96.57 280.66 97.28 280.69C97.39 280.8 97.53 280.89 97.71 281.01C98.31 281.39 98.88 281.78 99.45 282.22C100.75 283.15 101.97 284.21 103.13 285.3C103.15 285.35 103.18 285.39 103.18 285.42C102.99 285.42 102.03 285.41 100.32 285.39C100.37 285.18 100.34 285.04 100.23 284.96ZM98.38 280.73C98.9 280.75 99.45 280.78 99.98 280.8C101.01 280.85 101.26 281.28 101.67 282.06C101.99 282.67 102.29 283.31 102.58 283.93C101.97 283.38 101.35 282.86 100.71 282.35C100.32 282.06 99.91 281.76 99.52 281.46C99.29 281.33 98.67 281.03 98.24 280.73C98.29 280.73 98.33 280.73 98.38 280.73ZM101.1 279.89C99.95 279.66 98.72 279.73 97.55 279.68C92.18 279.5 86.81 279.57 81.46 279.84C81.3 279.84 81.19 279.91 81.1 280C80.91 280.11 80.8 280.32 80.82 280.55C79.7 283.31 78.51 286.06 77.21 288.78C73.12 288.73 69.01 288.66 64.91 288.55C67.75 279.57 71.34 270.86 74.81 262.13C78.47 252.96 82.13 243.77 85.76 234.61C85.87 234.58 85.94 234.51 86.01 234.45C86.74 234.31 87.73 234.47 88.39 234.47C89.44 234.47 90.47 234.47 91.52 234.49C93.33 234.54 95.15 234.63 96.96 234.74C96.96 234.74 96.96 234.74 96.96 234.77C96.98 234.79 96.98 234.79 97.01 234.81C97.05 234.88 97.14 234.93 97.21 234.95C98.29 237.6 99.36 240.25 100.46 242.9C100.43 243.02 100.48 243.11 100.57 243.18C106.58 257.99 112.53 272.82 117.76 287.93C113.58 288.25 109.37 288.25 105.17 287.95C104.5 285.85 103.68 283.84 102.7 281.87C102.38 281.21 101.97 280.05 101.1 279.89ZM110.24 291.75C108.91 290.9 107.66 289.99 106.42 289.03C107.34 289.07 108.23 289.12 109.14 289.14C109.14 289.21 109.19 289.3 109.28 289.35C111.45 290.86 113.65 292.34 115.86 293.83C115.81 293.83 115.55 293.84 115.09 293.85C112.83 293.07 111.22 292.37 110.24 291.75ZM110.06 289.14C111.5 289.17 112.96 289.14 114.4 289.1C116.43 290.65 118.51 292.14 120.64 293.58C120.39 293.59 119.13 293.65 116.87 293.76C113.84 291.72 111.57 290.18 110.06 289.14ZM121.44 293.42C121.35 293.33 121.28 293.21 121.19 293.12C121.1 293.01 120.98 293.01 120.89 293.05C119.02 291.77 117.17 290.45 115.36 289.1C116.39 289.05 117.39 288.98 118.42 288.89C120.8 290.35 123.18 291.82 125.49 293.39C125.22 293.4 123.89 293.46 121.51 293.55C121.49 293.49 121.47 293.45 121.44 293.42ZM118.81 287.86C118.81 287.79 118.81 287.73 118.79 287.66C118.56 287.02 118.33 286.38 118.1 285.74C120.41 287.61 123.06 289.01 125.65 290.45C125.92 291.22 126.17 292.02 126.45 292.8C124.02 291.13 121.51 289.58 119.02 288.05C118.97 287.98 118.9 287.91 118.81 287.86Z" id="a2ZcvMPMyB"></path><path d="M86.31 295.41C83.82 295.34 81.17 295.25 77.99 295.15C77.87 295.29 77.69 295.31 77.53 295.2C77.53 295.2 77.49 295.17 77.44 295.13C76.95 295.12 76.67 295.11 76.62 295.11C75.47 295.06 74.35 295.04 73.21 294.99C73.05 294.99 72.94 294.93 72.82 294.83C72.73 294.83 72.62 294.79 72.53 294.74C69.97 292.98 67.27 291.25 64.55 289.62C64.41 289.62 64.32 289.58 64.23 289.49C64.05 289.49 63.86 289.39 63.77 289.23C63.68 289.1 63.66 288.94 63.7 288.75C66.29 280.53 69.53 272.39 72.69 264.53C73.1 263.5 73.51 262.47 73.92 261.44C75.01 258.71 83.71 236.86 84.8 234.13C84.82 234.03 84.87 233.97 84.94 233.92C84.98 233.69 85.19 233.53 85.35 233.49C85.65 233.37 86.03 233.3 86.56 233.3C86.81 233.3 87.09 233.33 87.34 233.33C87.57 233.35 87.79 233.35 88 233.35C88 233.35 88.02 233.35 88.02 233.35C88.32 233.35 88.59 233.35 88.89 233.35C89.71 233.35 90.47 233.35 91.15 233.37C93.23 233.42 95.34 233.51 97.39 233.65C97.53 233.65 97.65 233.71 97.74 233.78C97.94 233.83 98.15 233.92 98.33 234.01C98.38 234.03 98.42 234.06 98.47 234.08C99.41 234.51 100.27 235.04 101.01 235.52C101.51 235.84 105.57 238.44 106.08 238.77C106.1 238.79 106.13 238.81 106.15 238.83C106.17 238.86 106.19 238.88 106.22 238.9C106.22 238.91 106.24 238.92 106.24 238.93C106.26 238.95 106.29 238.99 106.29 239.02C106.88 240.3 107.5 241.69 108.23 243.29C108.3 243.36 108.34 243.45 108.34 243.57C114.74 257.87 120.59 272.64 125.74 287.43C125.9 287.52 125.94 287.7 125.9 287.86C126.56 289.78 127.13 291.47 127.66 293.01C127.77 293.33 127.59 293.55 127.41 293.65C127.41 293.85 127.31 294.06 127.15 294.17C127.06 294.26 126.93 294.33 126.77 294.33C126.12 294.36 120.96 294.6 120.32 294.63C119.7 294.65 119.06 294.7 118.45 294.74C117.42 294.81 116.34 294.9 115.29 294.9C115.29 294.9 115.29 294.9 115.29 294.9C114.86 294.9 114.45 294.88 114.06 294.86C113.35 294.81 112.71 294.42 112.07 294.08C112.05 294.07 111.86 293.96 111.84 293.94C110.86 293.39 110.08 292.89 109.35 292.41C107.79 291.41 106.29 290.26 104.82 289.07C104.75 289.03 104.71 288.96 104.69 288.89C104.46 288.85 104.3 288.71 104.23 288.48C104.02 287.82 103.77 287.11 103.52 286.42C102.19 286.41 91.51 286.3 90.17 286.29C88.85 289.03 87.73 291.93 86.83 294.88C86.79 295.25 86.56 295.41 86.31 295.41C86.31 295.41 86.31 295.41 86.31 295.41ZM77.97 294.99C81.17 295.11 83.82 295.18 86.31 295.25C86.31 295.25 86.31 295.27 86.31 295.31C86.31 295.27 86.31 295.25 86.31 295.25C86.49 295.25 86.65 295.11 86.72 294.93C87.61 291.95 88.73 289.03 90.08 286.26C90.08 286.26 90.09 286.24 90.1 286.22L90.15 286.22L103.66 286.35C103.67 286.38 103.68 286.4 103.68 286.4C103.95 287.11 104.18 287.82 104.41 288.5C104.48 288.73 104.66 288.8 104.8 288.82C104.8 288.82 104.82 288.82 104.85 288.82C104.86 288.85 104.87 288.87 104.87 288.87C104.89 288.91 104.94 288.98 104.98 289.03C106.42 290.22 107.95 291.34 109.49 292.34C110.22 292.82 110.99 293.3 111.98 293.85C112 293.87 112.18 293.97 112.21 293.99C112.8 294.33 113.44 294.7 114.13 294.77C114.51 294.79 114.9 294.81 115.36 294.81C116.39 294.81 117.46 294.74 118.49 294.65C119.11 294.61 119.75 294.56 120.37 294.54C121.01 294.51 126.17 294.27 126.81 294.24C126.93 294.24 127.02 294.19 127.11 294.1C127.25 293.99 127.34 293.83 127.31 293.65C127.31 293.64 127.31 293.63 127.31 293.6C127.34 293.59 127.36 293.58 127.36 293.58C127.52 293.51 127.66 293.35 127.57 293.1C127.04 291.54 126.47 289.85 125.81 287.93C125.81 287.93 125.81 287.92 125.81 287.91C125.81 287.89 125.81 287.89 125.81 287.89C125.85 287.79 125.83 287.68 125.71 287.61C125.71 287.61 125.71 287.6 125.69 287.59C125.68 287.56 125.67 287.55 125.67 287.54C120.53 272.75 114.67 257.99 108.27 243.66C108.27 243.66 108.27 243.65 108.27 243.63C108.27 243.62 108.27 243.61 108.27 243.61C108.27 243.54 108.25 243.47 108.18 243.43C108.18 243.43 108.16 243.41 108.16 243.41C107.45 241.81 106.81 240.41 106.22 239.13C106.19 239.09 106.19 239.06 106.17 239.06C106.17 239.06 106.19 239.04 106.22 238.99C106.18 239.02 106.15 239.04 106.15 239.04C106.13 239.02 106.13 238.99 106.1 238.99C106.08 238.97 106.06 238.95 106.03 238.95C105.53 238.62 101.47 236.03 100.96 235.7C100.23 235.22 99.36 234.7 98.45 234.26C98.4 234.24 98.35 234.22 98.31 234.19C98.13 234.1 97.92 234.01 97.71 233.97C97.71 233.97 97.71 233.97 97.69 233.97C97.68 233.95 97.67 233.94 97.67 233.94C97.6 233.87 97.51 233.83 97.39 233.83C95.34 233.69 93.23 233.6 91.15 233.55C90.45 233.53 89.71 233.53 88.89 233.53C88.59 233.53 88.32 233.53 88.05 233.53C88.04 233.53 88.03 233.53 88.02 233.53C87.82 233.53 87.59 233.51 87.36 233.51C87.11 233.49 86.83 233.49 86.58 233.49C86.08 233.49 85.71 233.53 85.44 233.65C85.3 233.71 85.14 233.83 85.12 234.01C85.12 234.01 85.12 234.02 85.12 234.03C85.11 234.05 85.1 234.06 85.1 234.06C85.05 234.1 85.01 234.17 84.98 234.24C83.89 236.97 75.19 258.82 74.1 261.55C73.69 262.58 73.28 263.61 72.87 264.64C69.71 272.5 66.47 280.64 63.91 288.87C63.86 289.01 63.89 289.12 63.95 289.21C64.02 289.33 64.18 289.39 64.32 289.39C64.32 289.39 64.33 289.39 64.34 289.39C64.36 289.41 64.36 289.42 64.37 289.42C64.43 289.49 64.53 289.53 64.64 289.53C64.64 289.53 64.68 289.53 64.69 289.53C67.43 291.18 70.1 292.89 72.69 294.67C72.75 294.72 72.82 294.74 72.91 294.74C72.92 294.74 72.93 294.74 72.96 294.74C72.99 294.76 73 294.76 73.01 294.77C73.07 294.86 73.19 294.9 73.3 294.9C74.45 294.95 75.57 294.97 76.71 295.02C76.77 295.02 77.06 295.03 77.58 295.04C77.65 295.09 77.68 295.13 77.69 295.13C77.78 295.2 77.9 295.18 77.94 295.09C77.94 295.08 77.93 295.05 77.92 294.99C77.95 294.99 77.96 294.99 77.97 294.99ZM84.3 294.35C83.27 294.33 82.24 294.29 81.23 294.26C81.16 294.26 80.79 294.24 80.11 294.22C80.1 294.2 80.09 294.2 80.09 294.19C78.35 292.78 76.62 291.29 74.93 289.81C74.92 289.8 74.86 289.75 74.77 289.67C75.14 289.67 75.34 289.67 75.38 289.67C75.98 289.67 76.57 289.69 77.19 289.69C77.19 289.69 77.21 289.69 77.23 289.69C77.25 289.71 77.26 289.71 77.26 289.71C77.28 289.76 77.33 289.81 77.37 289.83C79.59 291.41 81.94 292.87 84.34 294.17C84.36 294.18 84.45 294.24 84.62 294.35C84.43 294.35 84.32 294.35 84.3 294.35ZM81.23 294.08C82.15 294.1 83.06 294.15 83.98 294.17C81.65 292.89 79.41 291.5 77.26 289.97C77.21 289.92 77.17 289.9 77.12 289.85C76.53 289.85 75.95 289.83 75.36 289.83C75.34 289.83 75.17 289.83 75.15 289.83C76.82 291.27 78.49 292.69 80.16 294.06C80.37 294.06 81.13 294.08 81.23 294.08ZM78.24 294.15C77.87 294.15 77.49 294.13 77.12 294.1C77.12 294.1 77.11 294.1 77.1 294.1C77.08 294.09 77.08 294.08 77.07 294.08C75.18 292.69 73.14 291.31 70.61 289.71C70.59 289.71 70.51 289.66 70.38 289.58C70.54 289.58 70.63 289.58 70.65 289.58C71.77 289.6 72.91 289.62 74.03 289.65C74.04 289.65 74.04 289.65 74.06 289.65C74.07 289.66 74.08 289.67 74.08 289.67C75.73 291.11 77.44 292.57 79.2 294.03C79.21 294.04 79.27 294.1 79.38 294.19C78.7 294.17 78.32 294.15 78.24 294.15ZM78.24 293.99C78.31 293.99 78.86 294.01 78.93 294.01C77.23 292.62 75.59 291.2 73.99 289.81C72.96 289.78 71.93 289.76 70.9 289.76C73.33 291.29 75.31 292.62 77.14 293.97C77.51 293.99 77.87 293.99 78.24 293.99ZM85.99 294.1C83.25 292.69 80.59 291.09 78.08 289.33C78.08 289.32 78.06 289.31 78.03 289.28C78.05 289.24 78.06 289.22 78.06 289.21C78.31 288.69 78.56 288.14 78.88 287.45C78.88 287.45 78.9 287.41 78.93 287.36C78.97 287.4 78.99 287.42 78.99 287.43C79.13 287.54 79.29 287.7 79.43 287.82C79.5 287.89 79.54 287.93 79.57 287.95C79.86 288.18 80.16 288.41 80.48 288.66C80.48 288.67 80.5 288.68 80.5 288.69C81.1 289.14 81.74 289.6 82.56 290.17C83.75 290.99 85.05 291.82 86.51 292.66C86.52 292.66 86.53 292.67 86.56 292.69C86.55 292.73 86.54 292.75 86.54 292.75C86.35 293.26 86.22 293.69 86.1 294.08C86.1 294.08 86.09 294.11 86.08 294.15C86.03 294.12 85.99 294.11 85.99 294.1ZM85.99 293.92C86.1 293.55 86.22 293.19 86.38 292.73C84.91 291.91 83.63 291.09 82.47 290.26C81.65 289.69 81.01 289.23 80.41 288.78C80.41 288.77 80.39 288.76 80.39 288.75C80.09 288.53 79.77 288.3 79.47 288.05C79.45 288.02 79.38 287.98 79.31 287.91C79.22 287.82 79.09 287.7 78.97 287.59C78.7 288.23 78.45 288.75 78.22 289.23C80.69 290.97 83.29 292.55 85.99 293.92ZM75.11 294.03C74.49 294.01 73.85 293.99 73.23 293.97C73.23 293.97 73.22 293.97 73.19 293.97C73.17 293.95 73.17 293.94 73.17 293.94C73.14 293.9 73.1 293.87 73.07 293.85C70.99 292.41 68.82 290.99 66.61 289.65C66.59 289.64 66.51 289.59 66.38 289.51C66.54 289.51 66.63 289.51 66.65 289.51C67.29 289.53 67.93 289.53 68.59 289.55C68.66 289.56 68.96 289.56 69.51 289.58C69.52 289.58 69.53 289.58 69.53 289.58C72.11 291.18 74.19 292.57 76.11 293.92C76.12 293.93 76.18 293.98 76.27 294.08C75.57 294.05 75.19 294.04 75.11 294.03ZM75.11 293.9C75.17 293.9 75.71 293.92 75.77 293.92C73.92 292.62 71.91 291.27 69.44 289.74C69.35 289.73 68.66 289.72 68.57 289.71C68.02 289.71 67.47 289.69 66.93 289.67C69.05 290.97 71.13 292.34 73.17 293.74C73.19 293.76 73.23 293.81 73.26 293.83C73.87 293.85 74.49 293.87 75.11 293.9ZM110.81 292.21C110.61 292.07 110.4 291.93 110.19 291.79C108.94 290.99 107.7 290.1 106.38 289.07C106.36 289.07 106.3 289.02 106.19 288.94C106.33 288.95 106.41 288.96 106.42 288.96C107.29 289.01 108.18 289.05 109.14 289.07C109.15 289.07 109.17 289.07 109.21 289.07C109.21 289.12 109.21 289.14 109.21 289.14C109.21 289.21 109.26 289.26 109.3 289.3C111.38 290.74 113.53 292.21 115.89 293.78C115.9 293.79 115.96 293.84 116.07 293.92C115.47 293.95 115.13 293.96 115.06 293.97C115.02 293.92 114.97 293.92 114.9 293.92C113.39 293.92 112.09 293.05 110.81 292.21ZM110.29 291.7C110.49 291.84 110.7 291.98 110.9 292.11C112.21 292.98 113.55 293.87 115.09 293.78C115.14 293.78 115.58 293.76 115.63 293.76C113.37 292.25 111.27 290.83 109.26 289.42C109.19 289.37 109.14 289.3 109.1 289.21C108.23 289.19 107.45 289.14 106.67 289.12C107.91 290.1 109.1 290.93 110.29 291.7ZM116.85 293.85C114.63 292.37 112.32 290.81 110.01 289.21C110 289.2 109.93 289.16 109.81 289.07C109.96 289.07 110.04 289.07 110.06 289.07C111.5 289.1 112.96 289.07 114.4 289.03C114.4 289.03 114.41 289.03 114.42 289.03C114.44 289.04 114.44 289.05 114.45 289.05C116.46 290.58 118.56 292.09 120.69 293.53C120.7 293.54 120.76 293.59 120.87 293.67L116.85 293.85C116.85 293.85 116.85 293.85 116.85 293.85ZM116.89 293.69C117.24 293.68 120.06 293.55 120.41 293.53C118.35 292.14 116.34 290.67 114.38 289.19C113.03 289.23 111.66 289.23 110.31 289.23C112.55 290.79 114.74 292.27 116.89 293.69ZM121.42 293.55C121.42 293.51 121.39 293.49 121.37 293.44C121.35 293.41 121.15 293.17 121.12 293.14C121.05 293.07 120.98 293.05 120.91 293.07C120.91 293.08 120.9 293.08 120.87 293.1C120.84 293.08 120.83 293.08 120.82 293.07C118.97 291.82 117.1 290.47 115.29 289.1C115.28 289.09 115.23 289.04 115.13 288.96C115.25 288.96 115.32 288.96 115.34 288.96C116.37 288.91 117.39 288.85 118.4 288.75C118.4 288.75 118.41 288.75 118.42 288.75C118.92 289.06 119.19 289.22 119.25 289.26C121.33 290.54 123.47 291.86 125.51 293.26C125.52 293.27 125.58 293.31 125.69 293.39L121.44 293.62C121.43 293.58 121.42 293.56 121.42 293.55ZM121.26 293.05C121.28 293.08 121.48 293.32 121.51 293.35C121.53 293.37 121.55 293.42 121.58 293.46C121.95 293.44 124.89 293.3 125.26 293.28C123.27 291.93 121.19 290.65 119.18 289.42C119.1 289.37 118.48 288.99 118.4 288.94C117.46 289.01 116.53 289.07 115.57 289.12C117.3 290.42 119.11 291.73 120.89 292.94C120.94 292.94 120.98 292.91 121.01 292.91C121.07 292.91 121.17 292.94 121.26 293.05ZM126.4 292.85C124.21 291.31 121.87 289.9 119.63 288.5C119.57 288.46 119.02 288.11 118.95 288.07C118.9 288 118.86 287.95 118.77 287.93C118.76 287.93 118.75 287.92 118.72 287.91C118.72 287.87 118.72 287.84 118.72 287.84C118.72 287.79 118.72 287.73 118.7 287.68C118.54 287.2 118.38 286.74 118.19 286.26C118.18 286.21 118.08 285.95 117.92 285.49C118.04 285.58 118.11 285.64 118.13 285.65C120.14 287.29 122.49 288.59 124.73 289.83C125.03 289.99 125.35 290.17 125.65 290.33C125.65 290.33 125.65 290.34 125.67 290.35C125.71 290.49 125.73 290.57 125.74 290.58C125.99 291.29 126.22 292.02 126.47 292.73C126.48 292.75 126.51 292.83 126.58 292.98C126.47 292.9 126.41 292.85 126.4 292.85ZM119.7 288.37C121.87 289.71 124.14 291.11 126.29 292.59C126.06 291.95 125.85 291.31 125.62 290.65C125.62 290.63 125.56 290.49 125.55 290.47C125.26 290.31 124.96 290.15 124.66 289.97C122.47 288.75 120.21 287.52 118.24 285.94C118.25 285.97 118.32 286.19 118.33 286.22C118.49 286.7 118.65 287.15 118.83 287.63C118.86 287.7 118.86 287.75 118.86 287.82C118.95 287.84 119.02 287.91 119.06 287.98C119.19 288.05 119.64 288.33 119.7 288.37ZM86.63 292.18C85.07 291.29 83.59 290.33 82.17 289.35C81.37 288.8 80.55 288.16 79.63 287.43C79.57 287.36 79.47 287.31 79.41 287.25C79.31 287.18 79.25 287.11 79.15 287.04C79.15 287.04 79.14 287.02 79.11 286.99C79.12 286.97 79.13 286.95 79.13 286.95C79.41 286.38 79.66 285.78 79.91 285.21C79.91 285.21 79.93 285.17 79.95 285.12C80 285.16 80.02 285.18 80.02 285.19C80.34 285.44 80.64 285.69 80.96 285.94C82.95 287.59 85.01 289.28 87.27 290.58C87.27 290.58 87.29 290.59 87.31 290.61C87.3 290.65 87.29 290.67 87.29 290.67C87.11 291.18 86.93 291.68 86.74 292.16C86.74 292.16 86.72 292.19 86.7 292.23C86.66 292.2 86.63 292.19 86.63 292.18ZM79.5 287.11C79.57 287.18 79.63 287.22 79.7 287.29C80.62 288.02 81.46 288.64 82.24 289.21C83.63 290.19 85.1 291.13 86.61 292C86.77 291.54 86.93 291.11 87.11 290.65C84.87 289.33 82.83 287.66 80.85 286.03C80.57 285.81 80.27 285.58 80 285.35C79.77 285.87 79.52 286.4 79.29 286.93C79.36 286.99 79.43 287.04 79.5 287.11ZM87.41 290.1C85.21 288.8 83.2 287.15 81.26 285.55C80.89 285.26 80.55 284.96 80.18 284.69C80.18 284.68 80.16 284.67 80.14 284.64C80.15 284.61 80.16 284.6 80.16 284.59C80.37 284.14 80.55 283.68 80.75 283.2C80.76 283.19 80.78 283.14 80.82 283.04C80.86 283.14 80.89 283.19 80.89 283.2C81.03 283.52 83.13 284.96 83.93 285.51C84.14 285.65 84.3 285.76 84.37 285.81C84.62 285.99 85.87 286.91 88.11 288.57C88.1 288.6 88.09 288.61 88.09 288.62C87.86 289.14 87.68 289.6 87.52 290.03C87.52 290.04 87.5 290.08 87.47 290.15C87.43 290.12 87.41 290.11 87.41 290.1ZM81.35 285.46C83.27 287.04 85.26 288.66 87.41 289.94C87.57 289.55 87.73 289.14 87.93 288.66C87.57 288.39 84.64 286.24 84.27 285.97C84.21 285.92 84.07 285.81 83.84 285.67C82.49 284.73 81.21 283.82 80.85 283.43C80.66 283.79 80.48 284.21 80.32 284.62C80.66 284.89 81.01 285.19 81.35 285.46ZM124.94 289.44C122.54 288.11 120.07 286.77 117.99 284.96C117.92 284.91 117.87 284.89 117.78 284.91C117.78 284.92 117.76 284.92 117.71 284.94C117.7 284.9 117.69 284.87 117.69 284.87C117.53 284.41 117.37 283.95 117.21 283.5C117.2 283.45 117.12 283.23 116.98 282.83C117.09 282.89 117.15 282.92 117.17 282.93C119.68 284.37 122.22 285.92 124.71 287.5C124.71 287.5 124.72 287.51 124.73 287.52C124.83 287.79 124.88 287.95 124.89 287.98C125.07 288.5 125.26 289.05 125.44 289.58C125.44 289.59 125.46 289.64 125.49 289.74C125.16 289.56 124.97 289.46 124.94 289.44ZM118.08 284.85C120.16 286.65 122.63 288 125.01 289.3C125.03 289.31 125.19 289.41 125.21 289.42C125.05 288.94 124.89 288.48 124.73 288C124.72 287.96 124.61 287.63 124.59 287.59C122.19 286.03 119.73 284.55 117.26 283.13C117.27 283.16 117.34 283.38 117.35 283.41C117.51 283.86 117.67 284.3 117.83 284.75C117.83 284.75 117.83 284.75 117.83 284.75C117.92 284.75 118.01 284.78 118.08 284.85ZM77.23 288.85C73.17 288.8 69.03 288.73 64.94 288.62C64.93 288.62 64.9 288.62 64.85 288.62C64.86 288.56 64.87 288.53 64.87 288.53C67.41 280.5 70.58 272.57 73.65 264.91C74.01 263.98 74.4 263.04 74.77 262.1C75.5 260.27 79.15 251.08 85.74 234.54C85.76 234.54 85.78 234.54 85.78 234.54C85.87 234.51 85.94 234.47 85.99 234.4C85.99 234.4 86 234.39 86.01 234.38C86.03 234.38 86.03 234.38 86.03 234.38C86.24 234.33 86.49 234.33 86.77 234.33C87.06 234.33 87.38 234.35 87.68 234.38C87.93 234.4 88.18 234.4 88.41 234.4C88.41 234.4 88.43 234.4 88.43 234.4C88.59 234.4 88.75 234.4 88.91 234.4C89.71 234.4 90.56 234.4 91.57 234.42C93.26 234.47 95.04 234.54 97.01 234.67C97.01 234.67 97.02 234.67 97.05 234.67L97.07 234.7L97.03 234.74L97.1 234.7C97.12 234.72 97.14 234.74 97.14 234.74C97.19 234.79 97.23 234.83 97.3 234.86C97.31 234.86 97.32 234.86 97.35 234.86C97.86 236.11 98.14 236.8 98.19 236.94C98.99 238.9 99.79 240.89 100.59 242.86C100.59 242.86 100.59 242.87 100.59 242.88C100.59 242.89 100.59 242.9 100.59 242.9C100.59 242.99 100.62 243.06 100.69 243.11C100.69 243.11 100.69 243.12 100.71 243.13C100.71 243.15 100.71 243.15 100.71 243.15C106.47 257.37 112.57 272.53 117.9 287.91C117.9 287.91 117.91 287.95 117.92 288C117.87 288 117.83 288 117.83 288C115.66 288.16 113.46 288.25 111.29 288.25C109.28 288.25 107.25 288.18 105.23 288.05C105.23 288.05 105.22 288.05 105.19 288.05C105.17 288.02 105.17 288 105.17 288C104.5 285.94 103.66 283.91 102.67 281.97C102.63 281.87 102.58 281.76 102.51 281.65C102.19 280.98 101.83 280.16 101.12 280.02C100.25 279.86 99.36 279.84 98.47 279.84C98.17 279.84 97.87 279.84 97.58 279.82C95.57 279.75 93.51 279.73 91.47 279.73C88.21 279.73 84.87 279.82 81.49 279.98C81.35 279.98 81.26 280.02 81.19 280.11C81.19 280.12 81.17 280.13 81.17 280.14C81.01 280.23 80.91 280.43 80.94 280.62C80.94 280.62 80.94 280.63 80.94 280.64C80.94 280.65 80.94 280.66 80.94 280.66C79.84 283.43 78.63 286.19 77.33 288.89C77.32 288.89 77.31 288.87 77.28 288.85C77.25 288.85 77.24 288.85 77.23 288.85ZM77.19 288.69C78.47 286.01 79.66 283.27 80.75 280.53C80.73 280.3 80.85 280.05 81.05 279.93C81.17 279.82 81.28 279.77 81.46 279.75C84.82 279.57 88.18 279.5 91.45 279.5C93.51 279.5 95.57 279.54 97.58 279.59C97.87 279.59 98.17 279.61 98.47 279.61C99.36 279.63 100.27 279.63 101.14 279.79C101.9 279.93 102.33 280.85 102.63 281.51C102.67 281.62 102.74 281.74 102.79 281.83C103.75 283.77 104.59 285.78 105.26 287.84C107.25 287.98 109.26 288.05 111.25 288.05C113.37 288.05 115.54 287.98 117.69 287.82C112.37 272.48 106.31 257.35 100.55 243.18C100.46 243.11 100.41 242.99 100.41 242.86C99.61 240.89 98.81 238.93 98.01 236.96C97.93 236.76 97.27 235.17 97.19 234.97C97.1 234.95 97.03 234.9 96.98 234.83C96.98 234.83 96.96 234.79 96.96 234.79C95.02 234.65 93.23 234.58 91.57 234.54C90.58 234.51 89.71 234.51 88.91 234.51C88.75 234.51 88.59 234.51 88.43 234.51C88.43 234.51 88.41 234.51 88.41 234.51C88.18 234.51 87.95 234.49 87.68 234.49C87.38 234.47 87.09 234.45 86.79 234.45C86.51 234.45 86.29 234.47 86.1 234.49C86.03 234.56 85.97 234.61 85.87 234.65C84.78 237.4 76.02 259.4 74.93 262.15C74.56 263.09 74.17 264.02 73.81 264.96C70.74 272.59 67.57 280.5 65.05 288.46C69.07 288.57 73.17 288.64 77.19 288.69ZM81.97 283.52C81.87 283.45 81.78 283.36 81.67 283.29C81.46 283.11 81.23 282.93 80.98 282.81C80.98 282.81 80.96 282.8 80.91 282.79C80.93 282.75 80.94 282.72 80.94 282.72C81.14 282.24 81.33 281.76 81.53 281.28C81.53 281.27 81.55 281.24 81.58 281.19L89.14 286.24C89.13 286.28 89.12 286.3 89.12 286.31C88.85 286.88 88.57 287.5 88.3 288.11C88.3 288.12 88.29 288.14 88.27 288.18C84.49 285.39 82.39 283.83 81.97 283.52ZM81.76 283.15C81.85 283.25 81.97 283.31 82.06 283.38C82.67 283.84 87.59 287.48 88.21 287.93C88.46 287.36 88.71 286.79 88.96 286.26C88.23 285.78 82.38 281.88 81.65 281.39C81.49 281.83 81.3 282.26 81.12 282.7C81.35 282.81 81.55 282.99 81.76 283.15ZM124.3 286.7C121.83 285.12 119.34 283.63 116.91 282.24C116.89 282.22 116.85 282.22 116.82 282.22C116.82 282.22 116.8 282.22 116.78 282.22C116.76 282.19 116.76 282.17 116.75 282.17C116.41 281.23 116.07 280.3 115.75 279.36C115.74 279.35 115.72 279.29 115.68 279.18C115.79 279.23 115.85 279.26 115.86 279.27C117.14 279.98 118.33 280.62 119.45 281.26C120.14 281.65 120.8 282.03 121.49 282.42C121.81 282.61 122.13 282.79 122.45 282.99C122.45 283 122.49 283.01 122.49 283.02C122.54 283.04 122.61 283.09 122.7 283.11C122.88 283.2 123.11 283.31 123.29 283.43C123.29 283.43 123.3 283.44 123.31 283.45C123.31 283.47 123.31 283.47 123.31 283.47C123.68 284.53 124.05 285.55 124.41 286.61C124.42 286.62 124.44 286.69 124.48 286.81C124.37 286.74 124.31 286.7 124.3 286.7ZM116.96 282.13C119.34 283.47 121.76 284.94 124.18 286.47C123.84 285.51 123.5 284.53 123.15 283.57C122.99 283.45 122.77 283.36 122.61 283.27C122.51 283.22 122.45 283.18 122.4 283.15C122.4 283.15 122.36 283.13 122.35 283.13C122.03 282.95 121.71 282.77 121.39 282.56C120.71 282.17 120.05 281.78 119.36 281.39C118.29 280.78 117.17 280.16 115.95 279.5C116.25 280.34 116.57 281.21 116.87 282.08C116.89 282.08 116.94 282.1 116.96 282.13ZM100.18 285.49C100.22 285.42 100.25 285.38 100.25 285.37C100.3 285.28 100.32 285.12 100.18 285.05C99.76 284.75 97.65 283.26 93.85 280.57C94.22 280.57 94.43 280.57 94.47 280.57C94.7 280.57 94.93 280.57 95.15 280.57C95.77 280.59 96.43 280.59 97.33 280.62C97.33 280.62 97.33 280.62 97.35 280.62C97.36 280.63 97.37 280.64 97.37 280.64C97.46 280.73 97.55 280.8 97.69 280.87C97.7 280.88 97.77 280.93 97.78 280.94C98.31 281.26 98.83 281.65 99.54 282.15C100.75 283.02 101.97 284.05 103.22 285.26C103.22 285.26 103.23 285.27 103.25 285.28L103.31 285.51L100.18 285.49ZM103.11 285.35C103.11 285.35 103.11 285.35 103.11 285.35C101.85 284.14 100.64 283.13 99.45 282.26C98.77 281.76 98.22 281.39 97.71 281.05C97.71 281.04 97.63 280.99 97.62 280.98C97.51 280.91 97.39 280.85 97.3 280.75C96.46 280.73 95.79 280.71 95.18 280.71C94.95 280.71 94.72 280.71 94.49 280.71C94.48 280.71 94.44 280.71 94.35 280.71C97.92 283.23 99.9 284.63 100.3 284.91C100.43 285.01 100.46 285.19 100.43 285.33C100.79 285.33 101.68 285.34 103.11 285.35ZM96.66 285.44C96.65 285.43 96.64 285.42 96.64 285.42C96.62 285.39 96.62 285.37 96.59 285.37C96.18 285.05 94.1 283.44 90.35 280.55C90.49 280.55 90.57 280.55 90.58 280.55C91.41 280.55 92.23 280.55 93.05 280.55C93.05 280.55 93.06 280.55 93.07 280.55L93.62 280.94L100.02 285.46L96.66 285.44ZM99.57 285.3C95.64 282.52 93.46 280.97 93.03 280.66C92.3 280.66 91.57 280.66 90.81 280.66C91.4 281.12 96.12 284.78 96.71 285.23C96.71 285.26 96.73 285.28 96.75 285.28C97.13 285.28 98.07 285.29 99.57 285.3ZM93.12 285.42C93.05 285.25 93.01 285.16 93.01 285.14C92.96 285.03 92.85 285.01 92.75 285.05C92.75 285.05 92.74 285.06 92.71 285.07C92.68 285.06 92.67 285.05 92.66 285.05C90.72 283.54 88.71 282.1 86.67 280.73C86.66 280.72 86.59 280.68 86.47 280.59C86.61 280.59 86.68 280.59 86.7 280.59C87.57 280.57 88.48 280.55 89.6 280.55C89.6 280.55 89.61 280.55 89.62 280.55L95.95 285.44L93.12 285.42ZM95.52 285.28C91.95 282.52 89.97 280.99 89.58 280.69C88.59 280.69 87.75 280.71 86.95 280.73C88.91 282.06 90.86 283.45 92.71 284.89C92.87 284.82 93.05 284.89 93.14 285.07C93.15 285.09 93.18 285.15 93.23 285.26L95.52 285.28ZM82.49 280.73C82.63 280.73 82.7 280.73 82.72 280.73C83.68 280.69 84.66 280.66 85.65 280.62C85.65 280.62 85.65 280.62 85.67 280.62C85.68 280.63 85.69 280.64 85.69 280.64C87.91 282.1 90.1 283.66 92.21 285.28C92.22 285.29 92.28 285.33 92.39 285.42C90.77 285.4 89.87 285.4 89.69 285.39C89.69 285.39 89.69 285.39 89.69 285.39C89.65 285.39 89.58 285.39 89.53 285.42C89.53 285.42 89.52 285.42 89.51 285.42L82.49 280.73ZM89.51 285.26C89.58 285.23 89.62 285.23 89.69 285.23C89.92 285.24 91.71 285.25 91.93 285.26C89.9 283.7 87.77 282.19 85.62 280.78C84.73 280.8 83.82 280.82 82.95 280.87C84.26 281.75 88.85 284.82 89.51 285.26ZM102.51 284C101.87 283.43 101.26 282.9 100.64 282.42C100.23 282.1 99.82 281.78 99.45 281.53C99.36 281.46 99.18 281.37 98.97 281.23C98.72 281.1 98.45 280.94 98.19 280.78C98.18 280.77 98.1 280.71 97.97 280.62C98.21 280.63 98.35 280.64 98.38 280.64C98.9 280.66 99.45 280.69 99.98 280.71C101.03 280.75 101.3 281.19 101.74 282.01C102.06 282.61 102.35 283.22 102.65 283.91C102.66 283.93 102.71 284.04 102.79 284.23C102.62 284.09 102.53 284.02 102.51 284ZM99.04 281.1C99.25 281.21 99.45 281.33 99.54 281.39C99.91 281.65 100.32 281.97 100.73 282.29C101.26 282.7 101.81 283.15 102.35 283.63C102.1 283.09 101.85 282.58 101.6 282.08C101.17 281.26 100.94 280.89 99.98 280.85C99.47 280.85 98.99 280.82 98.51 280.8C98.7 280.91 98.88 281.01 99.04 281.1ZM122.88 282.72C122.15 282.29 121.39 281.85 120.66 281.44C119.06 280.53 117.39 279.59 115.54 278.58C115.52 278.56 115.5 278.56 115.45 278.56C115.45 278.56 115.43 278.56 115.41 278.56C115.39 278.53 115.38 278.52 115.38 278.51C115.04 277.6 114.72 276.69 114.38 275.77C114.37 275.76 114.35 275.7 114.31 275.59C114.42 275.64 114.48 275.67 114.49 275.68C114.81 275.84 115.13 276.05 115.43 276.25C115.63 276.39 115.84 276.53 116.02 276.62C116.71 277.01 117.42 277.42 118.1 277.81C119.31 278.51 120.59 279.27 122.06 280.14C122.06 280.14 122.07 280.15 122.08 280.16C122.08 280.17 122.08 280.18 122.08 280.18C122.38 281.01 122.67 281.81 122.97 282.63C122.98 282.64 123.01 282.71 123.06 282.83C122.95 282.77 122.89 282.73 122.88 282.72ZM115.63 278.45C117.49 279.45 119.15 280.39 120.75 281.3C121.44 281.69 122.1 282.08 122.79 282.49C122.51 281.76 122.26 281.01 121.99 280.27C120.55 279.41 119.27 278.65 118.06 277.97C117.37 277.58 116.69 277.17 115.98 276.78C115.79 276.66 115.59 276.55 115.38 276.41C115.13 276.25 114.88 276.07 114.63 275.93C114.93 276.75 115.25 277.58 115.54 278.42C115.57 278.42 115.61 278.45 115.63 278.45ZM121.67 279.38C120.34 278.58 119.13 277.9 118.01 277.23C117.33 276.85 116.64 276.43 115.93 276.05C115.77 275.95 115.59 275.84 115.41 275.73C114.99 275.45 114.58 275.2 114.17 275.06C114.17 275.06 114.15 275.06 114.13 275.06C114.11 275.04 114.1 275.02 114.1 275.02C113.92 274.49 113.71 273.97 113.51 273.46C113.48 273.4 113.36 273.08 113.14 272.5C113.24 272.53 113.29 272.55 113.3 272.55C115.86 273.46 118.33 274.72 120.62 276.25C120.62 276.25 120.63 276.26 120.64 276.27C120.64 276.29 120.64 276.3 120.64 276.3C121.01 277.3 121.39 278.31 121.76 279.31C121.77 279.33 121.8 279.39 121.85 279.5C121.74 279.43 121.68 279.39 121.67 279.38ZM115.5 275.59C115.68 275.7 115.84 275.82 116 275.91C116.69 276.3 117.39 276.71 118.08 277.1C119.15 277.71 120.3 278.4 121.55 279.13C121.21 278.19 120.87 277.26 120.53 276.34C118.31 274.86 115.91 273.65 113.42 272.73C113.44 272.8 113.64 273.33 113.67 273.39C113.87 273.9 114.06 274.42 114.26 274.93C114.7 275.06 115.11 275.34 115.5 275.59ZM120.21 275.41C117.97 273.97 115.54 272.8 113.01 271.95C113 271.95 113 271.95 112.98 271.93C112.97 271.92 112.96 271.91 112.96 271.91C112.71 271.27 112.48 270.63 112.23 269.99C112.21 269.93 112.09 269.64 111.89 269.12C111.98 269.16 112.04 269.18 112.05 269.19C114.42 270.13 116.82 271.15 119.13 272.27C119.13 272.28 119.14 272.28 119.15 272.3C119.28 272.61 119.35 272.79 119.36 272.82C119.68 273.67 120 274.49 120.32 275.34C120.32 275.35 120.35 275.41 120.39 275.52C120.28 275.45 120.22 275.41 120.21 275.41ZM120.09 275.15C119.79 274.38 119.52 273.62 119.22 272.85C119.2 272.8 119.06 272.43 119.04 272.39C116.8 271.29 114.47 270.29 112.16 269.37C112.18 269.43 112.35 269.87 112.37 269.92C112.59 270.56 112.85 271.18 113.07 271.82C115.54 272.66 117.9 273.78 120.09 275.15ZM118.74 271.57C116.46 270.47 114.08 269.46 111.7 268.55C111.7 268.55 111.69 268.54 111.68 268.53C111.67 268.51 111.66 268.5 111.66 268.5C111.38 267.79 111.11 267.09 110.83 266.35C110.82 266.31 110.72 266.06 110.56 265.62L118.08 269.46C118.24 269.87 118.34 270.1 118.35 270.15C118.51 270.58 118.7 271.02 118.86 271.45C118.86 271.47 118.88 271.53 118.93 271.66C118.82 271.6 118.76 271.57 118.74 271.57ZM118.65 271.34C118.51 270.97 118.35 270.58 118.22 270.22C118.2 270.17 118.12 269.96 117.97 269.58L110.83 265.94C110.92 266.15 110.96 266.26 110.97 266.29C111.25 267.02 111.52 267.73 111.79 268.41C114.13 269.3 116.41 270.29 118.65 271.34ZM110.31 265.01C110.29 264.99 110.29 264.98 110.29 264.98C110.13 264.57 109.97 264.14 109.81 263.73C109.79 263.67 109.69 263.41 109.51 262.95C109.6 262.99 109.66 263.01 109.67 263.02C110.42 263.31 111.18 263.77 111.91 264.18C112.3 264.41 112.66 264.62 113.03 264.82C113.3 264.97 114.67 265.69 117.12 266.99C117.27 267.38 117.35 267.59 117.37 267.63C117.51 267.98 117.65 268.32 117.78 268.66C117.79 268.68 117.8 268.74 117.83 268.85L110.31 265.01ZM117.55 268.53C117.44 268.25 117.33 267.95 117.21 267.68C117.2 267.64 117.12 267.44 116.98 267.09C114.56 265.8 113.21 265.08 112.94 264.94C112.57 264.75 112.21 264.53 111.82 264.3C111.15 263.91 110.47 263.5 109.76 263.2C109.78 263.25 109.92 263.61 109.94 263.66C110.1 264.09 110.26 264.5 110.42 264.89C111.85 265.62 116.84 268.16 117.55 268.53ZM112.89 264.25C112.55 264.07 112.21 263.86 111.86 263.66C111.04 263.18 110.19 262.67 109.33 262.4C109.32 262.4 109.31 262.4 109.28 262.4C109.27 262.39 109.26 262.38 109.26 262.38C109.1 261.97 108.94 261.58 108.78 261.17C108.76 261.12 108.66 260.87 108.48 260.43L115.89 264.02C116.01 264.32 116.08 264.49 116.09 264.53C116.32 265.07 116.53 265.62 116.75 266.17C116.76 266.18 116.79 266.24 116.85 266.35C114.47 265.09 113.16 264.39 112.89 264.25ZM111.93 263.54C112.3 263.75 112.62 263.95 112.96 264.14C113.32 264.33 116.19 265.84 116.55 266.03C116.37 265.55 116.16 265.05 115.98 264.57C115.96 264.54 115.9 264.39 115.79 264.11L108.8 260.73C108.9 260.96 108.95 261.09 108.96 261.12C109.1 261.49 109.26 261.87 109.39 262.29C110.26 262.56 111.11 263.06 111.93 263.54ZM110.31 260.78C110.26 260.75 110.13 260.71 109.97 260.62C109.44 260.39 108.57 260.02 108.34 259.86C108.34 259.86 108.33 259.85 108.32 259.84L108.27 259.75C108.27 259.73 108.27 259.73 108.27 259.73C108.27 259.68 108.27 259.61 108.21 259.57C108.2 259.56 108.19 259.55 108.18 259.54C108.02 259.15 107.89 258.77 107.73 258.4C107.7 258.33 107.57 258.01 107.34 257.42C107.45 257.47 107.51 257.5 107.52 257.51C107.89 257.69 108.3 257.85 108.66 257.99C108.94 258.1 109.23 258.22 109.49 258.33C109.77 258.46 112.08 259.48 112.37 259.61C112.64 259.73 112.91 259.84 113.19 259.95C113.62 260.11 114.06 260.3 114.47 260.5C114.47 260.5 114.48 260.51 114.49 260.53C114.49 260.54 114.49 260.55 114.49 260.55C114.86 261.44 115.22 262.33 115.57 263.22C115.57 263.23 115.61 263.29 115.68 263.38C112.46 261.82 110.67 260.95 110.31 260.78ZM109.99 260.48C110.17 260.55 110.31 260.62 110.35 260.64C110.86 260.88 114.88 262.82 115.38 263.06C115.06 262.24 114.72 261.42 114.38 260.59C113.97 260.39 113.55 260.23 113.12 260.07C112.85 259.95 112.55 259.84 112.27 259.73C111.99 259.6 109.68 258.57 109.39 258.45C109.12 258.33 108.85 258.22 108.57 258.1C108.25 257.97 107.91 257.83 107.59 257.69C107.61 257.76 107.81 258.27 107.84 258.33C108 258.72 108.14 259.09 108.3 259.47C108.37 259.54 108.41 259.63 108.41 259.75C108.41 259.75 108.41 259.75 108.41 259.75C109.16 260.1 109.68 260.34 109.99 260.48ZM114.06 259.77C113.53 259.54 113.01 259.31 112.48 259.11C112.05 258.93 111.59 258.74 111.15 258.56C111.06 258.51 110.81 258.42 110.47 258.29C107.02 256.87 107.02 256.82 107.04 256.71C107.06 256.57 106.99 256.5 106.95 256.48C106.95 256.48 106.94 256.47 106.93 256.46C106.93 256.44 106.93 256.44 106.93 256.43C106.74 255.95 106.54 255.47 106.35 254.99C106.33 254.93 106.19 254.58 105.94 253.97C106.05 254.02 106.11 254.05 106.13 254.06C106.42 254.22 106.77 254.42 107.04 254.58C107.22 254.7 107.38 254.81 107.47 254.86C108.02 255.13 108.64 255.43 109.42 255.77C109.76 255.93 110.13 256.07 110.47 256.18C111.47 256.57 112.5 256.96 113.3 257.71C113.33 257.74 113.33 257.74 113.35 257.74C113.35 257.74 113.36 257.75 113.37 257.76C113.37 257.77 113.37 257.78 113.37 257.78C113.62 258.4 113.9 259.04 114.15 259.66C114.15 259.67 114.19 259.73 114.24 259.84C114.13 259.8 114.07 259.78 114.06 259.77ZM110.56 258.15C110.9 258.29 111.15 258.4 111.25 258.42C111.68 258.61 112.11 258.79 112.57 258.97C113.03 259.15 113.53 259.34 113.99 259.57C113.76 258.99 113.53 258.45 113.3 257.87C113.28 257.85 113.26 257.85 113.26 257.83C112.48 257.1 111.47 256.71 110.47 256.34C110.13 256.21 109.76 256.07 109.39 255.91C108.59 255.57 108 255.27 107.43 254.99C107.34 254.95 107.15 254.83 106.97 254.72C106.77 254.58 106.51 254.42 106.26 254.29C106.29 254.35 106.49 254.86 106.51 254.93C106.7 255.41 106.9 255.89 107.09 256.34C107.18 256.46 107.22 256.57 107.22 256.71C107.47 256.89 109.62 257.76 110.56 258.15ZM112.82 256.75C112.11 256.3 111.29 256 110.49 255.68C110.1 255.54 109.71 255.38 109.33 255.22C108.55 254.88 107.73 254.47 106.74 253.97C106.63 253.9 106.51 253.83 106.4 253.76C106.19 253.62 105.97 253.49 105.76 253.42C105.76 253.42 105.75 253.42 105.74 253.42C105.72 253.4 105.72 253.4 105.71 253.39C105.58 253.05 105.44 252.69 105.3 252.34C105.28 252.29 105.17 252 104.96 251.5L111.77 253.92C111.92 254.26 112.01 254.45 112.02 254.49C112.34 255.22 112.64 255.95 112.94 256.69C112.94 256.7 112.97 256.77 113.03 256.89C112.91 256.81 112.84 256.76 112.82 256.75ZM106.49 253.65C106.61 253.71 106.72 253.78 106.83 253.85C107.82 254.38 108.62 254.77 109.42 255.11C109.78 255.27 110.19 255.43 110.56 255.57C111.29 255.84 112.02 256.14 112.71 256.53C112.43 255.86 112.16 255.2 111.86 254.54C111.85 254.5 111.78 254.34 111.66 254.03L105.23 251.75C105.36 252.06 105.43 252.24 105.44 252.27C105.58 252.62 105.71 252.96 105.85 253.3C106.08 253.37 106.29 253.51 106.49 253.65ZM105.12 251.06C105.05 251.04 104.98 251.04 104.91 251.11C104.91 251.11 104.88 251.15 104.82 251.2C104.8 251.13 104.78 251.09 104.78 251.09C104.59 250.65 104.43 250.22 104.25 249.78C104.22 249.71 104.07 249.33 103.79 248.66C103.89 248.69 103.94 248.71 103.95 248.71C106.17 249.46 108.37 250.29 110.54 251.13C110.54 251.13 110.55 251.14 110.56 251.15C110.7 251.48 110.77 251.67 110.79 251.7C110.99 252.21 111.22 252.71 111.43 253.21C111.43 253.22 111.47 253.27 111.52 253.35C107.68 251.98 105.55 251.22 105.12 251.06ZM105.17 250.93C105.77 251.14 110.64 252.88 111.25 253.1C111.06 252.64 110.86 252.21 110.67 251.75C110.65 251.7 110.49 251.32 110.47 251.27C108.37 250.45 106.22 249.65 104.07 248.91C104.1 249 104.36 249.65 104.39 249.74C104.55 250.15 104.71 250.54 104.87 250.95C104.94 250.9 104.98 250.9 105.03 250.9C105.07 250.9 105.12 250.9 105.17 250.93ZM110.17 250.49C108 249.65 105.81 248.85 103.63 248.09C103.63 248.09 103.63 248.09 103.61 248.09L102.86 246.24C102.95 246.27 103.01 246.28 103.02 246.29C105.21 246.97 107.41 247.77 109.51 248.64C109.51 248.64 109.52 248.65 109.53 248.66C109.64 248.92 109.7 249.07 109.71 249.1C109.9 249.53 110.08 249.97 110.29 250.4C110.29 250.41 110.3 250.46 110.33 250.56C110.24 250.52 110.18 250.5 110.17 250.49ZM110.06 250.29C109.9 249.9 109.74 249.53 109.58 249.17C109.56 249.13 109.43 248.82 109.42 248.78C107.38 247.93 105.26 247.15 103.13 246.49C103.17 246.59 103.36 247.09 103.7 247.98C106.54 248.98 108.66 249.75 110.06 250.29ZM109.07 248C106.97 247.13 104.8 246.38 102.65 245.71C102.65 245.71 102.63 245.71 102.61 245.71C102.59 245.7 102.58 245.69 102.58 245.69C102.42 245.33 102.29 244.94 102.13 244.57C102.1 244.5 101.94 244.12 101.67 243.45C101.76 243.48 101.82 243.49 101.83 243.5C102.81 243.79 103.77 244.11 104.71 244.46C105.35 244.69 105.99 244.91 106.51 245.12C106.58 245.14 106.72 245.19 106.9 245.23C107.27 245.35 107.75 245.49 108.11 245.65C108.12 245.65 108.12 245.65 108.14 245.67C108.33 246.09 108.44 246.33 108.46 246.38C108.69 246.9 108.91 247.41 109.14 247.93C109.15 247.94 109.19 247.99 109.26 248.07C109.15 248.03 109.09 248 109.07 248ZM108.98 247.77C108.78 247.31 108.57 246.86 108.37 246.38C108.34 246.31 108.1 245.78 108.07 245.71C107.7 245.58 107.25 245.44 106.88 245.33C106.7 245.28 106.56 245.23 106.49 245.19C105.97 244.98 105.33 244.75 104.69 244.53C103.79 244.21 102.88 243.91 101.97 243.63C102 243.72 102.25 244.37 102.29 244.46C102.45 244.85 102.58 245.21 102.74 245.58C104.82 246.22 106.93 246.95 108.98 247.77ZM107.79 245.1C107.15 244.85 106.54 244.59 105.92 244.39C104.57 243.89 103.13 243.41 101.51 242.9C101.51 242.9 101.49 242.9 101.46 242.9L100.69 241.01L107.22 243.57C107.35 243.85 107.41 244.01 107.43 244.05C107.57 244.37 107.73 244.69 107.86 245.01C107.87 245.02 107.91 245.07 107.98 245.17C107.87 245.12 107.81 245.1 107.79 245.1ZM105.99 244.23C106.54 244.43 107.11 244.64 107.68 244.87C107.57 244.59 107.45 244.34 107.31 244.07C107.3 244.04 107.24 243.9 107.13 243.66L100.98 241.26L101.6 242.77C103.63 243.41 105.09 243.89 105.99 244.23ZM100.48 240.41L99.66 238.4L106.42 241.69C106.56 241.99 106.64 242.16 106.65 242.19C106.74 242.4 106.83 242.61 106.93 242.79C106.93 242.8 106.95 242.85 106.99 242.95L100.48 240.41ZM106.7 242.67C106.63 242.54 106.56 242.38 106.49 242.24C106.48 242.21 106.41 242.07 106.29 241.81L99.93 238.7L100.59 240.3C104.26 241.72 106.29 242.52 106.7 242.67ZM99.41 237.78C99.24 237.37 99.15 237.14 99.13 237.1C98.9 236.5 98.65 235.93 98.42 235.34C98.42 235.32 98.4 235.26 98.35 235.15C98.46 235.21 98.52 235.24 98.54 235.25C98.77 235.36 98.99 235.5 99.22 235.61C99.23 235.62 99.28 235.65 99.29 235.66C99.79 235.93 100.27 236.25 100.73 236.55C100.89 236.64 101.05 236.75 101.19 236.85C101.47 237.03 102.9 237.94 105.46 239.59C105.46 239.6 105.46 239.61 105.46 239.61C105.58 239.86 105.69 240.14 105.81 240.39C105.83 240.43 105.93 240.65 106.13 241.05L99.41 237.78ZM105.81 240.73C105.74 240.57 105.7 240.48 105.69 240.46C105.58 240.21 105.46 239.95 105.35 239.7C104.92 239.43 101.52 237.25 101.1 236.98C100.94 236.89 100.78 236.78 100.64 236.69C100.18 236.39 99.68 236.07 99.2 235.79C99.19 235.79 99.14 235.75 99.13 235.75C98.97 235.66 98.81 235.57 98.65 235.47C98.86 236 99.09 236.53 99.29 237.05C99.31 237.09 99.38 237.3 99.52 237.67L105.81 240.73Z" id="c5srO3tYZn"></path></defs><g><g><g><use xlink:href="#dkdovID26" opacity="1" fill="#000000" fill-opacity="1"></use><g><use xlink:href="#dkdovID26" opacity="1" fill-opacity="0" stroke="#000000" stroke-width="1" stroke-opacity="0"></use></g></g><g><use xlink:href="#cdp19s4pr" opacity="1" fill="#180f0b" fill-opacity="1"></use><g><use xlink:href="#cdp19s4pr" opacity="1" fill-opacity="0" stroke="#000000" stroke-width="1" stroke-opacity="0"></use></g></g><g><use xlink:href="#a2ZcvMPMyB" opacity="1" fill="#000000" fill-opacity="1"></use><g><use xlink:href="#a2ZcvMPMyB" opacity="1" fill-opacity="0" stroke="#000000" stroke-width="1" stroke-opacity="0"></use></g></g><g><use xlink:href="#c5srO3tYZn" opacity="1" fill="#180f0b" fill-opacity="1"></use><g><use xlink:href="#c5srO3tYZn" opacity="1" fill-opacity="0" stroke="#000000" stroke-width="1" stroke-opacity="0"></use></g></g></g></g></svg>