<?xml version="1.0" encoding="UTF-8" standalone="no"?>
<!DOCTYPE svg PUBLIC "-//W3C//DTD SVG 1.1//EN" "http://www.w3.org/Graphics/SVG/1.1/DTD/svg11.dtd">
<svg version="1.1" xmlns="http://www.w3.org/2000/svg" xmlns:xlink="http://www.w3.org/1999/xlink" preserveAspectRatio="xMidYMid meet" viewBox="145.92000000000002 233.55428571428575 53.76070764470319 62.697142857142865" width="53.76" height="62.7"><defs><path d="M195.27 266.19C195.41 266.01 195.43 265.78 195.29 265.6C199.66 262.24 200.41 255.86 198.24 250.95C195.36 244.39 189.07 240.59 183.11 237.14C182.97 237.07 182.83 237.05 182.72 237.1C182.4 236.91 182.08 236.75 181.74 236.59C176.78 234.29 171.06 234.24 165.71 234.01C159.31 233.74 152.89 233.62 146.49 233.62C145.83 233.62 145.83 234.63 146.49 234.63C146.54 234.63 146.61 234.63 146.65 234.63C147.82 252.43 148.11 270.29 147.57 288.14C147.57 288.27 147.61 288.39 147.68 288.48C147.75 288.66 147.89 288.8 148.14 288.82C148.23 288.82 148.3 288.82 148.39 288.85C151.04 291.02 153.76 293.1 156.55 295.06C156.59 295.27 156.75 295.43 157.01 295.45C163.63 295.73 170.26 295.95 176.87 296.14C182.54 296.3 188.53 296.41 193.46 293.19C197.99 290.24 199.34 284.91 199.57 279.79C199.79 275.06 198.7 270.13 195.54 266.49C195.45 266.38 195.36 266.29 195.27 266.19ZM198.51 276.75C196.55 275.7 194.54 274.77 192.5 273.9C192.55 273.23 192.53 272.57 192.48 271.93C192.5 271.93 192.5 271.93 192.53 271.91C192.8 272.05 193.33 272.37 193.49 272.43C193.9 272.62 194.33 272.75 194.74 272.91C195.93 273.3 197.1 273.67 198.1 274.45C198.1 274.47 198.15 274.49 198.19 274.49C198.33 275.25 198.45 276 198.51 276.75ZM198.01 273.65C197.14 273.07 196.18 272.75 195.18 272.41C194.49 272.18 193.83 271.95 193.19 271.63C192.91 271.5 192.69 271.29 192.41 271.25C192.37 270.77 192.27 270.29 192.18 269.81C193.92 270.49 195.63 271.18 197.37 271.86C197.42 271.89 197.44 271.89 197.49 271.89C197.69 272.46 197.87 273.05 198.01 273.65ZM196.05 268.87C196.5 269.6 196.89 270.35 197.21 271.15C196.69 270.95 192.54 269.3 192.02 269.1C191.77 268.05 191.41 267.02 190.97 266.03C192.62 266.95 194.26 267.86 195.89 268.82C195.93 268.85 196 268.87 196.05 268.87ZM190.56 265.23C190.17 264.5 189.76 263.77 189.28 263.09C190.63 263.98 192 264.85 193.42 265.67C193.42 265.74 193.44 265.81 193.46 265.85C193.46 266.15 193.71 266.45 194.01 266.4C194.47 266.83 194.86 267.29 195.25 267.75C193.76 266.9 192.27 266.06 190.77 265.26C190.7 265.21 190.63 265.21 190.56 265.23ZM186.1 259.59C186.17 259.57 186.24 259.54 186.31 259.5C186.63 259.25 186.95 258.95 187.25 258.67C190.22 260.21 192.89 262.31 196.05 263.5C195.57 264.05 195.02 264.57 194.35 265.03C191.5 263.38 188.73 261.58 186.1 259.59ZM187.7 258.19C188.21 257.65 188.64 257.03 189.03 256.41C190.51 256.85 191.93 257.94 193.23 258.7C194.65 259.52 196.09 260.32 197.51 261.14C197.21 261.78 196.87 262.4 196.46 262.97C193.3 261.85 190.65 259.75 187.7 258.19ZM193.19 257.99C191.95 257.28 190.7 256.32 189.33 255.89C189.6 255.36 189.85 254.83 190.03 254.26C190.31 254.4 190.74 254.7 190.86 254.74C191.22 254.93 191.57 255.13 191.93 255.31C192.64 255.7 193.35 256.07 194.06 256.46C195.45 257.19 196.82 257.94 198.22 258.67C198.1 259.31 197.94 259.95 197.71 260.57C196.21 259.7 194.7 258.83 193.19 257.99ZM198.31 258.03C196.75 257.21 195.2 256.37 193.65 255.54C192.82 255.11 191.98 254.65 191.15 254.22C190.9 254.08 190.56 253.81 190.22 253.67C190.4 253.07 190.54 252.46 190.65 251.84C191.09 252 191.98 252.5 192.16 252.59C192.89 252.91 193.62 253.23 194.35 253.55C195.68 254.1 197.01 254.67 198.31 255.25C198.4 256.18 198.4 257.12 198.31 258.03ZM193.94 252.71C193.1 252.34 192.23 251.98 191.38 251.59C191.18 251.5 190.97 251.36 190.74 251.29C190.83 250.51 190.86 249.71 190.81 248.91C193.1 250.15 195.43 251.36 197.76 252.53C197.97 253.19 198.13 253.85 198.22 254.56C196.8 253.94 195.36 253.33 193.94 252.71ZM197.44 251.7C195.18 250.56 192.94 249.39 190.72 248.18C190.67 247.86 190.63 247.54 190.58 247.22C190.54 246.95 190.47 246.67 190.4 246.4C191.29 246.74 192.21 247.06 193.07 247.43C193.6 247.63 194.13 247.89 194.65 248.14C194.95 248.3 195.52 248.5 195.89 248.78C196.23 249.26 196.53 249.76 196.8 250.29C197.05 250.74 197.26 251.2 197.44 251.7ZM193.99 247.15C192.75 246.61 191.45 246.17 190.19 245.69C189.94 244.96 189.65 244.25 189.28 243.59C190.22 243.82 191.13 244.09 192.02 244.41C193.12 245.35 194.15 246.42 195.04 247.59C194.65 247.43 194.26 247.27 193.99 247.15ZM188.87 242.86C188.48 242.22 188.05 241.6 187.54 241.03C188.66 241.74 189.74 242.51 190.79 243.34C190.15 243.15 189.51 242.99 188.87 242.86ZM147.66 234.63C153.01 234.65 158.35 234.74 163.7 234.95C168.96 235.13 174.42 235.13 179.45 236.78C184 238.29 187.82 241.69 189.28 246.31C190.7 250.74 189.23 255.86 185.58 258.77C185.44 258.88 185.39 259.02 185.42 259.15C184.91 258.86 184.46 259.68 184.96 260.05C189.07 263.11 191.47 268.07 191.47 273.17C191.47 278.24 188.71 283.04 184.64 285.97C181.49 288.25 177.78 288.94 174.01 289.05C173.87 288.91 173.69 288.96 173.58 289.05C171.61 289.1 169.65 288.98 167.73 288.87C167.04 288.82 166.35 288.8 165.69 288.75C165.62 288.69 165.53 288.64 165.42 288.69C165.37 288.71 165.35 288.71 165.33 288.73C159.79 288.43 154.29 288.11 148.75 287.82C148.73 287.77 148.66 287.73 148.59 287.68C149.12 269.99 148.82 252.27 147.66 234.63ZM157.1 294.17C154.72 292.48 152.39 290.72 150.1 288.89C151.29 288.96 152.5 289.03 153.69 289.1C154.22 289.51 154.77 290.17 155.11 290.51C155.77 291.15 156.43 291.77 157.14 292.34C158.22 293.21 159.38 293.92 160.62 294.54C159.52 294.49 158.4 294.45 157.28 294.4C157.23 294.31 157.19 294.24 157.1 294.17ZM161.6 294.33C159.86 293.53 158.26 292.53 156.8 291.27C156.11 290.67 155.47 290.01 154.81 289.39C154.74 289.33 154.65 289.26 154.58 289.17C155.47 289.21 156.34 289.26 157.23 289.3C158.47 290.35 159.73 291.41 160.96 292.46C161.85 293.21 162.74 293.99 163.73 294.65C163.09 294.63 162.42 294.61 161.76 294.58C161.76 294.49 161.74 294.38 161.6 294.33ZM164.96 294.67C163.54 293.9 162.35 292.82 161.12 291.77C160.16 290.97 159.22 290.17 158.26 289.35C159.29 289.39 160.3 289.46 161.33 289.51C161.35 289.53 161.37 289.55 161.39 289.58C161.4 289.58 161.46 289.62 161.46 289.62C161.58 289.71 161.69 289.69 161.76 289.62C161.94 289.78 162.19 290.06 162.29 290.13C162.61 290.4 162.9 290.72 163.2 291.02C163.79 291.61 164.39 292.23 165.01 292.82C165.74 293.53 166.49 294.19 167.34 294.74C166.54 294.77 165.76 294.72 164.98 294.7C164.98 294.69 164.96 294.68 164.96 294.67ZM164.73 291.77C164.14 291.18 163.54 290.56 162.93 289.97C162.83 289.87 162.72 289.74 162.58 289.62C163.63 289.69 164.69 289.74 165.74 289.81C167.29 291.73 169.05 293.42 170.99 294.93C170.22 294.88 169.39 294.86 168.57 294.83C167.11 294.06 165.9 292.94 164.73 291.77ZM172.05 294.95C172.02 294.93 172 294.9 171.98 294.88C169.97 293.42 168.16 291.75 166.58 289.85C167.11 289.87 167.63 289.92 168.16 289.94C168.8 289.99 169.44 290.01 170.1 290.03C171.27 290.83 172.21 291.82 173.21 292.82C174.06 293.67 174.99 294.42 175.98 295.09C175.86 295.06 175.79 295.06 175.7 295.06C174.49 295.02 173.26 294.99 172.05 294.95ZM176.98 295.02C175.57 294.13 174.31 293.1 173.14 291.91C172.5 291.25 171.86 290.63 171.18 290.08C172.18 290.1 173.19 290.1 174.19 290.08C175.93 291.84 177.67 293.71 179.66 295.2C178.77 295.15 177.9 295.13 177.07 295.11C177.05 295.06 177.03 295.04 176.98 295.02ZM178.63 289.55C180.5 291.43 182.4 293.26 184.37 295.04C183.15 295.15 181.92 295.18 180.69 295.18C178.56 293.76 176.78 291.84 174.97 290.01C176.21 289.94 177.42 289.81 178.63 289.55ZM185.17 294.95C183.15 293.14 181.21 291.29 179.34 289.39C180.07 289.21 180.8 289.01 181.51 288.75C184.5 290.19 187.29 292.02 190.1 293.78C188.53 294.4 186.86 294.77 185.17 294.95C185.17 294.95 185.17 294.95 185.17 294.95ZM190.79 293.51C190.79 293.51 190.79 293.51 190.77 293.49C187.98 291.75 185.21 289.92 182.26 288.46C183.09 288.11 183.91 287.68 184.69 287.18C184.71 287.15 184.73 287.15 184.73 287.13C185.17 287.38 185.62 287.59 186.08 287.82C186.99 288.27 187.86 288.82 188.73 289.37C190.24 290.31 191.75 291.27 193.37 291.95C193.07 292.21 192.78 292.41 192.46 292.62C191.91 292.96 191.36 293.23 190.79 293.51ZM189.33 289.03C188.55 288.55 187.77 288.07 186.99 287.61C186.45 287.31 185.85 287.06 185.28 286.77C186.15 286.15 186.95 285.44 187.68 284.69C190.31 286.45 193.07 288 195.95 289.33C195.38 290.15 194.7 290.9 193.92 291.54C192.3 290.9 190.81 289.97 189.33 289.03ZM188.09 284.25C188.5 283.79 188.89 283.29 189.26 282.79C190.05 283.22 196.37 286.64 197.17 287.06C196.94 287.68 196.66 288.27 196.3 288.82C193.44 287.52 190.7 285.99 188.09 284.25ZM197.42 286.47C194.83 285.07 192.23 283.68 189.65 282.29C190.1 281.6 190.51 280.87 190.88 280.11C193.37 281.12 195.82 282.24 198.19 283.5C197.99 284.43 197.76 285.37 197.49 286.26C197.46 286.33 197.44 286.4 197.42 286.47ZM191.09 279.57C191.36 278.95 191.59 278.33 191.77 277.69C194.03 278.7 196.27 279.77 198.47 280.91C198.45 281.58 198.38 282.22 198.26 282.88C195.93 281.65 193.53 280.55 191.09 279.57ZM191.98 277.1C192.09 276.64 192.21 276.18 192.27 275.7C192.34 275.31 192.39 274.9 192.43 274.51C194.51 275.38 196.57 276.37 198.56 277.44C198.58 277.92 198.61 278.38 198.61 278.86C198.58 279.34 198.58 279.79 198.56 280.25C196.41 279.13 194.22 278.08 191.98 277.1Z" id="d189vd4E5n"></path><path d="M180.43 296.25C179.25 296.25 178.03 296.23 176.89 296.18C170.29 296 163.61 295.75 157.03 295.5C156.78 295.5 156.57 295.34 156.5 295.09C153.76 293.17 151.04 291.09 148.39 288.89C148.37 288.89 148.18 288.87 148.16 288.87C147.91 288.85 147.73 288.71 147.63 288.5C147.54 288.41 147.5 288.27 147.5 288.11C148.05 270.38 147.73 252.41 146.58 234.7C146.57 234.7 146.5 234.7 146.49 234.7C146.13 234.7 145.92 234.4 145.92 234.13C145.92 233.83 146.1 233.55 146.49 233.55C153.01 233.55 159.47 233.69 165.71 233.94C166.13 233.97 166.54 233.97 166.95 233.99C171.98 234.19 177.19 234.38 181.78 236.53C182.1 236.66 182.42 236.85 182.74 237.01C182.88 236.98 183.02 237.01 183.15 237.07C188.57 240.21 195.31 244.11 198.31 250.9C200.34 255.5 199.98 262.01 195.38 265.6C195.47 265.76 195.47 265.99 195.36 266.17C195.45 266.26 195.52 266.35 195.59 266.42C198.45 269.71 199.89 274.45 199.66 279.75C199.36 286.31 197.35 290.7 193.53 293.19C189.44 295.89 184.62 296.25 180.43 296.25C180.43 296.25 180.43 296.25 180.43 296.25ZM146.08 234.13C146.08 234.33 146.22 234.56 146.49 234.56C146.51 234.56 146.58 234.56 146.72 234.56C146.72 234.6 146.72 234.62 146.72 234.63C147.89 252.37 148.18 270.38 147.63 288.14C147.63 288.25 147.66 288.34 147.73 288.43C147.73 288.44 147.75 288.45 147.75 288.46C147.82 288.64 147.95 288.73 148.14 288.75C148.16 288.76 148.25 288.76 148.41 288.78C148.43 288.79 148.43 288.8 148.43 288.8C151.11 290.99 153.85 293.07 156.59 295.02C156.6 295.02 156.6 295.03 156.62 295.04C156.62 295.05 156.62 295.06 156.62 295.06C156.66 295.25 156.82 295.38 157.01 295.38C163.59 295.66 170.29 295.89 176.87 296.07C178.01 296.09 179.2 296.14 180.39 296.14C184.55 296.14 189.35 295.77 193.39 293.14C197.19 290.67 199.15 286.31 199.45 279.82C199.68 274.56 198.26 269.85 195.43 266.61C195.34 266.51 195.25 266.4 195.15 266.31C195.15 266.31 195.14 266.29 195.11 266.26C195.14 266.24 195.15 266.22 195.15 266.22C195.25 266.08 195.29 265.87 195.18 265.71C195.17 265.71 195.16 265.69 195.13 265.65C195.17 265.62 195.2 265.6 195.2 265.6C199.77 262.08 200.14 255.61 198.13 251.04C195.15 244.3 188.43 240.39 183.04 237.28C182.93 237.21 182.83 237.21 182.72 237.23C182.72 237.23 182.71 237.23 182.7 237.23C182.68 237.22 182.68 237.21 182.67 237.21C182.33 237.03 182.01 236.87 181.69 236.71C177.14 234.58 171.93 234.38 166.93 234.17C166.51 234.15 166.1 234.15 165.69 234.13C159.47 233.83 153.01 233.69 146.49 233.69C146.22 233.69 146.08 233.92 146.08 234.13ZM180.66 295.25C180.65 295.23 180.64 295.22 180.64 295.22C178.67 293.9 176.98 292.16 175.34 290.47C175.3 290.43 175.13 290.26 174.81 289.94C174.91 289.94 174.96 289.94 174.97 289.94C176.27 289.87 177.46 289.71 178.61 289.49C178.61 289.49 178.62 289.49 178.65 289.49C178.67 289.5 178.67 289.51 178.67 289.51C180.69 291.52 182.56 293.33 184.41 294.99C184.42 295 184.47 295.04 184.55 295.11C184.44 295.12 184.38 295.13 184.37 295.13C183.31 295.2 182.15 295.25 180.82 295.25C180.8 295.25 180.75 295.25 180.66 295.25ZM180.82 295.11C182.08 295.11 183.18 295.06 184.18 294.99C182.38 293.37 180.55 291.61 178.61 289.67C177.51 289.87 176.39 290.03 175.15 290.1C175.18 290.13 175.4 290.37 175.43 290.4C177.07 292.05 178.77 293.78 180.71 295.11C180.73 295.11 180.81 295.11 180.82 295.11ZM179.63 295.25C178.79 295.22 177.94 295.2 177.07 295.18C177.07 295.18 177.06 295.18 177.03 295.18C177.01 295.16 177.01 295.16 177.01 295.15C176.98 295.13 176.96 295.11 176.94 295.09C175.54 294.22 174.24 293.17 173.1 291.95C172.34 291.18 171.75 290.61 171.13 290.13C171.12 290.12 171.06 290.07 170.95 289.99C171.09 289.99 171.16 289.99 171.18 289.99C172.25 290.01 173.26 290.01 174.19 289.99C174.2 289.99 174.2 289.99 174.22 289.99C174.23 290 174.24 290.01 174.24 290.01C174.49 290.26 174.77 290.54 175.02 290.81C176.48 292.32 177.99 293.87 179.68 295.13C179.69 295.14 179.75 295.18 179.86 295.25C179.73 295.25 179.65 295.25 179.63 295.25ZM179.38 295.09C177.76 293.85 176.3 292.34 174.88 290.9C174.63 290.65 174.38 290.4 174.13 290.13C173.28 290.15 172.37 290.15 171.36 290.13C171.93 290.58 172.48 291.11 173.17 291.82C174.31 293.01 175.61 294.06 176.98 294.93C177.05 294.97 177.07 294.99 177.1 295.02C177.87 295.04 178.63 295.06 179.38 295.09ZM175.7 295.13C174.49 295.09 173.26 295.06 172.05 295.02C172.04 295.02 172.03 295.02 172 295.02C171.99 295 171.98 295 171.98 294.99C171.95 294.97 171.93 294.95 171.91 294.93C169.9 293.46 168.09 291.77 166.49 289.87C166.48 289.87 166.45 289.82 166.38 289.74C167.43 289.79 168.02 289.82 168.14 289.83C168.85 289.87 169.49 289.9 170.08 289.92C170.08 289.92 170.09 289.92 170.1 289.92C170.12 289.93 170.12 289.94 170.13 289.94C171.18 290.67 172.02 291.52 172.94 292.43C172.97 292.47 173.23 292.72 173.26 292.75C174.06 293.55 174.95 294.29 176.02 294.99C176.04 295 176.1 295.06 176.21 295.15C175.9 295.14 175.74 295.13 175.7 295.13ZM175.7 294.97C174.72 294.29 173.87 293.6 173.14 292.85C173.11 292.81 172.85 292.56 172.82 292.53C171.93 291.63 171.09 290.79 170.06 290.08C169.49 290.06 168.85 290.03 168.14 289.99C168 289.98 166.88 289.93 166.74 289.92C168.3 291.75 170.08 293.39 172.02 294.81C172.05 294.81 172.07 294.83 172.09 294.86C173.3 294.9 174.49 294.93 175.7 294.97ZM185.12 295.02C183.27 293.35 181.35 291.54 179.29 289.46C179.29 289.46 179.25 289.43 179.2 289.37C179.28 289.36 179.33 289.35 179.34 289.35C180.11 289.17 180.82 288.96 181.51 288.71C181.51 288.71 181.52 288.71 181.53 288.71C181.55 288.72 181.55 288.73 181.55 288.73C184.21 290.01 186.72 291.59 189.17 293.14C189.49 293.35 189.83 293.55 190.15 293.76C190.16 293.76 190.2 293.79 190.29 293.83C190.2 293.86 190.16 293.87 190.15 293.87C188.69 294.45 187.06 294.83 185.19 295.06C185.19 295.06 185.17 295.05 185.14 295.04C185.13 295.03 185.12 295.02 185.12 295.02ZM185.19 294.88C186.97 294.67 188.53 294.31 189.92 293.76C189.62 293.58 189.35 293.39 189.07 293.21C186.65 291.68 184.14 290.1 181.51 288.82C180.87 289.07 180.21 289.28 179.47 289.46C181.51 291.5 183.38 293.28 185.19 294.88ZM171.04 294.99C170.22 294.97 169.42 294.95 168.59 294.9C168.59 294.9 168.57 294.9 168.57 294.9C167.18 294.15 166.01 293.12 164.71 291.82C164.55 291.66 164.39 291.5 164.25 291.36C163.82 290.93 163.36 290.47 162.9 290.03C162.83 289.97 162.74 289.87 162.67 289.78C162.66 289.77 162.58 289.69 162.45 289.55L165.83 289.74C165.84 289.75 165.85 289.76 165.85 289.76C167.41 291.66 169.17 293.37 171.11 294.86C171.12 294.87 171.17 294.91 171.27 294.99C171.13 294.99 171.06 294.99 171.04 294.99ZM170.79 294.81C168.91 293.35 167.22 291.68 165.71 289.85C165.42 289.84 163.08 289.71 162.79 289.69C162.86 289.76 162.93 289.83 162.99 289.9C163.45 290.33 163.91 290.79 164.34 291.25C164.5 291.41 164.64 291.57 164.8 291.7C166.08 293.01 167.22 294.01 168.59 294.74C169.33 294.77 170.06 294.79 170.79 294.81ZM166.4 294.81C165.92 294.79 165.44 294.79 164.96 294.77C164.96 294.77 164.95 294.77 164.94 294.77C164.92 294.75 164.92 294.74 164.91 294.74C164.89 294.74 164.89 294.72 164.89 294.72C163.66 294.03 162.56 293.1 161.49 292.21C161.33 292.07 161.19 291.95 161.03 291.82C160.83 291.65 159.81 290.79 157.99 289.26L161.3 289.44C161.32 289.45 161.32 289.46 161.33 289.46C161.35 289.49 161.37 289.51 161.39 289.51C161.4 289.51 161.46 289.55 161.46 289.55C161.53 289.6 161.62 289.6 161.69 289.55C161.69 289.55 161.71 289.54 161.74 289.51C161.76 289.54 161.78 289.55 161.78 289.55C161.92 289.65 162.06 289.81 162.17 289.94C162.22 290.01 162.26 290.06 162.31 290.08C162.61 290.35 162.9 290.65 163.2 290.93C163.2 290.93 163.24 290.97 163.25 290.97C163.52 291.25 163.79 291.52 164.07 291.79C164.39 292.14 164.73 292.46 165.05 292.78C165.85 293.55 166.61 294.19 167.38 294.7C167.4 294.71 167.47 294.76 167.59 294.86C166.88 294.83 166.48 294.81 166.4 294.81ZM166.42 294.67C166.49 294.68 167.02 294.69 167.09 294.7C166.4 294.22 165.69 293.62 164.96 292.91C164.62 292.59 164.3 292.25 163.98 291.93C163.7 291.66 163.43 291.38 163.18 291.11C163.17 291.1 163.14 291.07 163.13 291.06C162.86 290.79 162.56 290.49 162.24 290.22C162.22 290.19 162.15 290.13 162.1 290.08C162.01 289.99 161.87 289.85 161.76 289.76C161.65 289.81 161.53 289.81 161.42 289.74C161.41 289.73 161.36 289.7 161.35 289.69C161.33 289.67 161.3 289.67 161.28 289.65C161.09 289.64 160.16 289.58 158.47 289.49C160.07 290.84 160.96 291.6 161.14 291.75C161.3 291.89 161.46 292 161.6 292.14C162.65 293.01 163.75 293.94 165.01 294.63C164.98 294.61 164.98 294.63 165.01 294.63C165.49 294.65 165.94 294.65 166.42 294.67ZM162.86 294.7C162.49 294.67 162.13 294.67 161.76 294.65C161.75 294.65 161.72 294.65 161.67 294.65C161.67 294.6 161.67 294.57 161.67 294.56C161.67 294.51 161.67 294.42 161.55 294.38C159.79 293.58 158.17 292.55 156.73 291.29C156.3 290.9 155.86 290.51 155.45 290.1C155.2 289.87 154.97 289.65 154.72 289.42C154.65 289.35 154.56 289.28 154.49 289.19C154.48 289.18 154.44 289.13 154.35 289.05L157.23 289.21C159.65 291.25 160.99 292.39 161.26 292.62C162.06 293.28 162.88 293.99 163.75 294.56C163.77 294.57 163.85 294.63 164 294.74C163.31 294.72 162.93 294.7 162.86 294.7ZM162.88 294.56C162.94 294.56 163.41 294.58 163.47 294.58C162.67 294.03 161.92 293.39 161.19 292.78C160.92 292.55 159.59 291.42 157.19 289.39C155.73 289.31 154.93 289.27 154.77 289.26C154.79 289.28 154.83 289.33 154.86 289.35C155.11 289.58 155.34 289.81 155.59 290.06C156 290.45 156.41 290.86 156.85 291.22C158.26 292.46 159.89 293.49 161.62 294.29C161.76 294.31 161.83 294.4 161.85 294.51C162.19 294.54 162.54 294.54 162.88 294.56ZM160.5 294.61C159.43 294.56 158.35 294.51 157.28 294.47C157.28 294.47 157.26 294.47 157.23 294.47C157.22 294.44 157.21 294.43 157.21 294.42C157.19 294.35 157.12 294.29 157.05 294.24C154.72 292.59 152.37 290.81 150.06 288.96C150.04 288.95 149.98 288.91 149.87 288.82L153.74 289.03C153.75 289.04 153.76 289.05 153.76 289.05C154.13 289.33 154.49 289.74 154.79 290.06C154.93 290.22 155.09 290.38 155.2 290.47C155.79 291.04 156.48 291.7 157.23 292.3C158.24 293.12 159.41 293.85 160.71 294.47C160.73 294.48 160.83 294.53 161.01 294.63C160.7 294.61 160.54 294.61 160.5 294.61ZM160.32 294.45C159.15 293.85 158.08 293.17 157.14 292.41C156.39 291.82 155.7 291.15 155.11 290.58C154.99 290.47 154.86 290.33 154.7 290.15C154.4 289.83 154.06 289.44 153.69 289.19C153.36 289.17 150.69 289.02 150.35 289.01C152.59 290.81 154.88 292.53 157.17 294.13C157.23 294.17 157.3 294.26 157.35 294.33C158.33 294.38 159.31 294.4 160.32 294.45ZM190.72 293.53C190.29 293.26 189.83 292.98 189.39 292.69C187.09 291.25 184.71 289.74 182.24 288.5C182.23 288.5 182.19 288.48 182.1 288.43C182.2 288.39 182.25 288.37 182.26 288.37C183.11 288 183.91 287.59 184.66 287.09C184.67 287.08 184.7 287.06 184.75 287.02C184.78 287.03 184.8 287.04 184.8 287.04C185.1 287.2 185.39 287.36 185.69 287.5C185.85 287.57 185.99 287.63 186.15 287.73C187.04 288.18 187.91 288.73 188.75 289.26C188.77 289.26 188.86 289.32 188.87 289.33C190.33 290.24 191.84 291.18 193.44 291.89C193.45 291.89 193.49 291.9 193.55 291.93C193.49 291.97 193.45 292 193.44 292C193.14 292.23 192.82 292.43 192.5 292.64C191.98 292.96 191.41 293.26 190.81 293.53C190.81 293.53 190.79 293.55 190.77 293.58C190.74 293.55 190.72 293.53 190.72 293.53ZM189.46 292.57C189.9 292.85 190.33 293.12 190.79 293.39C191.36 293.14 191.91 292.85 192.41 292.53C192.69 292.37 192.96 292.16 193.23 291.98C191.66 291.29 190.19 290.35 188.75 289.46C188.74 289.46 188.65 289.4 188.64 289.39C187.82 288.87 186.95 288.32 186.06 287.89C185.9 287.82 185.76 287.75 185.6 287.66C185.33 287.52 185.03 287.38 184.73 287.22C184.73 287.22 184.71 287.22 184.71 287.22C184 287.7 183.25 288.11 182.45 288.46C184.87 289.67 187.2 291.15 189.46 292.57ZM193.9 291.61C192.21 290.95 190.67 289.97 189.3 289.1C188.57 288.64 187.77 288.14 186.97 287.68C186.7 287.52 186.38 287.38 186.08 287.22C185.81 287.09 185.53 286.97 185.26 286.81C185.25 286.81 185.21 286.78 185.14 286.74C185.2 286.7 185.23 286.68 185.23 286.67C186.08 286.08 186.88 285.37 187.63 284.59C187.64 284.59 187.65 284.58 187.68 284.55C187.71 284.58 187.72 284.59 187.73 284.59C190.33 286.35 193.12 287.91 196 289.23C196.01 289.24 196.04 289.25 196.09 289.28C196.06 289.32 196.05 289.34 196.05 289.35C195.47 290.17 194.77 290.93 193.99 291.59C193.99 291.59 193.97 291.61 193.94 291.63C193.92 291.62 193.9 291.61 193.9 291.61ZM186.13 287.11C186.42 287.25 186.74 287.41 187.02 287.57C187.82 288.02 188.62 288.53 189.37 288.98C190.72 289.83 192.25 290.79 193.9 291.47C194.63 290.86 195.29 290.15 195.84 289.37C193.01 288.07 190.26 286.54 187.68 284.8C186.99 285.53 186.22 286.19 185.42 286.77C185.65 286.88 185.87 286.99 186.13 287.11ZM167.75 288.96C167.61 288.95 166.92 288.91 165.67 288.85C165.65 288.83 165.65 288.82 165.65 288.82C165.6 288.78 165.53 288.73 165.44 288.78C165.42 288.8 165.37 288.8 165.35 288.82C165.35 288.82 165.34 288.82 165.33 288.82L165.3 288.82L148.71 287.89L148.48 287.7C148.48 287.68 148.48 287.66 148.48 287.66C149.01 270.03 148.69 252.18 147.54 234.61C147.54 234.6 147.54 234.57 147.54 234.51C147.6 234.51 147.63 234.51 147.63 234.51C153.03 234.54 158.45 234.63 163.68 234.83C164.27 234.86 164.87 234.88 165.46 234.9C170.15 235.06 174.97 235.2 179.45 236.69C184.23 238.26 187.91 241.83 189.33 246.26C190.77 250.77 189.23 255.91 185.58 258.79C185.46 258.88 185.42 258.99 185.44 259.11C185.44 259.12 185.45 259.17 185.46 259.27C185.38 259.21 185.33 259.18 185.33 259.18C185.12 259.04 184.87 259.18 184.8 259.43C184.75 259.59 184.75 259.82 184.96 259.95C189.05 262.99 191.5 267.91 191.5 273.14C191.5 278.01 188.87 282.93 184.64 285.99C181.9 287.95 178.51 288.94 173.97 289.07C173.96 289.07 173.96 289.07 173.94 289.07C173.93 289.06 173.92 289.05 173.92 289.05C173.83 288.96 173.69 288.96 173.6 289.05C173.6 289.05 173.59 289.06 173.58 289.07C173.56 289.07 173.56 289.07 173.55 289.07C173.35 289.14 173.07 289.14 172.82 289.14C171.09 289.14 169.3 289.05 167.75 288.96ZM167.75 288.82C169.53 288.91 171.59 289.03 173.58 289.01C173.71 288.89 173.92 288.87 174.06 288.98C178.56 288.85 181.92 287.86 184.62 285.92C188.82 282.88 191.43 278.01 191.41 273.19C191.41 268.02 188.98 263.13 184.91 260.11C184.66 259.91 184.64 259.63 184.71 259.43C184.8 259.13 185.1 258.95 185.35 259.04C185.37 258.93 185.44 258.79 185.55 258.7C189.14 255.86 190.65 250.77 189.23 246.33C187.84 241.94 184.18 238.4 179.45 236.85C174.99 235.38 170.17 235.22 165.51 235.06C164.91 235.04 164.32 235.02 163.73 234.99C158.51 234.81 153.14 234.7 147.77 234.67C148.91 252.23 149.23 270.03 148.71 287.61C148.72 287.62 148.75 287.65 148.82 287.7C158.72 288.25 164.23 288.56 165.33 288.62C165.35 288.59 165.37 288.59 165.42 288.57C165.51 288.59 165.62 288.62 165.74 288.71C166.14 288.73 167.55 288.81 167.75 288.82ZM196.27 288.89C193.44 287.59 190.67 286.06 188.07 284.3C188.06 284.29 188.04 284.28 188 284.25C188.04 284.21 188.06 284.19 188.07 284.18C188.48 283.73 188.87 283.25 189.23 282.74C189.24 282.74 189.25 282.72 189.28 282.7L197.33 287.04C197.31 287.08 197.3 287.1 197.3 287.11C197.05 287.75 196.75 288.34 196.41 288.89C196.41 288.89 196.38 288.9 196.34 288.91C196.3 288.9 196.28 288.89 196.27 288.89ZM196.27 288.73C196.59 288.23 196.87 287.68 197.1 287.09C196.32 286.67 190.08 283.3 189.3 282.88C188.96 283.36 188.59 283.79 188.23 284.23C190.79 285.94 193.49 287.45 196.27 288.73ZM189.51 282.31C189.54 282.27 189.55 282.24 189.55 282.24C190.01 281.55 190.42 280.82 190.79 280.09C190.79 280.09 190.8 280.06 190.81 280.02C190.85 280.04 190.88 280.04 190.88 280.05C193.37 281.03 195.82 282.17 198.19 283.43C198.2 283.43 198.21 283.44 198.24 283.45C198.24 283.48 198.24 283.49 198.24 283.5C198.06 284.43 197.83 285.37 197.55 286.26C197.53 286.31 197.53 286.35 197.51 286.4C197.51 286.42 197.49 286.47 197.49 286.49C197.48 286.5 197.47 286.53 197.44 286.58L189.51 282.31ZM197.37 286.38C197.37 286.38 197.37 286.38 197.37 286.38C197.39 286.33 197.39 286.29 197.42 286.26C197.69 285.39 197.92 284.48 198.1 283.57C195.77 282.33 193.35 281.21 190.9 280.23C190.56 280.91 190.15 281.6 189.74 282.26C191.26 283.09 196.61 285.97 197.37 286.38ZM198.24 282.95C195.93 281.74 193.53 280.62 191.09 279.66C191.08 279.66 191.06 279.65 191.02 279.63C191.03 279.59 191.04 279.57 191.04 279.57C191.31 278.95 191.54 278.33 191.73 277.69C191.73 277.69 191.73 277.65 191.75 277.6C191.79 277.63 191.81 277.64 191.82 277.65C194.08 278.65 196.34 279.73 198.54 280.87C198.54 280.87 198.56 280.88 198.58 280.89C198.58 280.92 198.58 280.93 198.58 280.94C198.54 281.6 198.45 282.26 198.35 282.9C198.35 282.91 198.35 282.94 198.33 282.99C198.28 282.97 198.25 282.95 198.24 282.95ZM198.22 282.77C198.31 282.17 198.38 281.58 198.42 280.96C196.27 279.84 194.06 278.79 191.84 277.81C191.66 278.38 191.45 278.97 191.2 279.54C193.6 280.5 195.95 281.58 198.22 282.77ZM198.51 280.32C196.34 279.2 194.15 278.15 191.93 277.19C191.93 277.19 191.9 277.18 191.86 277.17C191.88 277.12 191.88 277.1 191.89 277.1C192 276.64 192.11 276.16 192.18 275.7C192.25 275.31 192.3 274.93 192.34 274.51C192.34 274.51 192.34 274.47 192.34 274.4C192.4 274.43 192.43 274.44 192.43 274.45C194.51 275.31 196.59 276.32 198.56 277.39C198.56 277.4 198.58 277.4 198.61 277.42C198.61 277.44 198.61 277.46 198.61 277.46C198.63 277.94 198.65 278.42 198.65 278.88C198.65 279.29 198.63 279.73 198.61 280.27C198.61 280.28 198.61 280.31 198.63 280.37C198.56 280.34 198.52 280.32 198.51 280.32ZM198.49 280.14C198.51 279.66 198.54 279.25 198.54 278.88C198.54 278.45 198.51 277.99 198.49 277.53C196.57 276.48 194.56 275.52 192.5 274.65C192.46 275.02 192.41 275.38 192.34 275.75C192.27 276.16 192.18 276.62 192.07 277.07C194.22 278.01 196.39 279.04 198.49 280.14ZM198.47 276.82C196.53 275.79 194.51 274.83 192.46 273.97C192.45 273.96 192.44 273.96 192.41 273.94C192.41 273.92 192.41 273.9 192.41 273.9C192.43 273.26 192.43 272.59 192.39 271.93C192.39 271.93 192.39 271.9 192.39 271.86L192.48 271.84C192.52 271.84 192.54 271.84 192.55 271.84C192.69 271.91 192.91 272.05 193.1 272.16C193.26 272.25 193.42 272.34 193.49 272.39C193.87 272.57 194.29 272.71 194.7 272.85C194.73 272.85 194.96 272.93 194.99 272.94C196.11 273.3 197.17 273.67 198.13 274.38C198.15 274.4 198.19 274.42 198.22 274.42C198.22 274.42 198.24 274.42 198.26 274.42C198.26 274.45 198.26 274.47 198.26 274.47C198.4 275.2 198.51 275.98 198.58 276.73C198.58 276.74 198.58 276.8 198.58 276.89C198.51 276.85 198.48 276.83 198.47 276.82ZM198.42 276.62C198.35 275.93 198.26 275.22 198.13 274.56C198.1 274.54 198.06 274.54 198.03 274.51C197.12 273.81 196.07 273.46 194.95 273.1C194.92 273.09 194.68 273.01 194.65 273.01C194.24 272.87 193.83 272.73 193.44 272.55C193.37 272.53 193.21 272.43 193.03 272.32C192.87 272.23 192.71 272.14 192.57 272.05C192.59 272.64 192.59 273.26 192.57 273.85C194.56 274.7 196.53 275.61 198.42 276.62ZM197.97 273.71C197.12 273.17 196.21 272.85 195.15 272.5C194.54 272.3 193.83 272.07 193.14 271.73C193.05 271.68 192.96 271.61 192.87 271.57C192.71 271.47 192.55 271.38 192.39 271.36C192.38 271.36 192.36 271.36 192.32 271.36C192.32 271.32 192.32 271.3 192.32 271.29C192.27 270.83 192.18 270.33 192.09 269.85C192.09 269.84 192.08 269.8 192.07 269.71C195.26 270.98 197.04 271.68 197.39 271.82C197.42 271.82 197.44 271.84 197.49 271.84C197.49 271.84 197.5 271.84 197.53 271.84C197.55 271.87 197.55 271.88 197.55 271.89C197.76 272.46 197.94 273.05 198.08 273.65C198.08 273.66 198.1 273.72 198.13 273.83C198.03 273.76 197.98 273.72 197.97 273.71ZM192.96 271.43C193.05 271.47 193.14 271.54 193.23 271.59C193.9 271.91 194.61 272.16 195.22 272.37C196.21 272.69 197.1 273.01 197.9 273.51C197.76 273.01 197.62 272.48 197.44 271.98C197.42 271.98 197.37 271.95 197.35 271.95C196.84 271.76 192.8 270.16 192.3 269.97C192.37 270.38 192.43 270.81 192.48 271.2C192.66 271.25 192.8 271.34 192.96 271.43ZM191.95 269.17C191.95 269.14 191.95 269.12 191.95 269.12C191.7 268.07 191.34 267.04 190.9 266.08C190.9 266.07 190.87 266 190.81 265.87C190.93 265.94 191 265.98 191.02 265.99C192.69 266.9 194.35 267.84 195.93 268.78C195.98 268.8 196 268.8 196.05 268.8C196.05 268.8 196.06 268.8 196.09 268.8C196.11 268.83 196.11 268.84 196.11 268.85C196.57 269.55 196.96 270.33 197.3 271.15C197.31 271.16 197.32 271.21 197.35 271.29L191.95 269.17ZM197.07 271.02C196.75 270.29 196.41 269.58 196 268.94C195.95 268.94 195.91 268.91 195.84 268.89C194.31 268 192.73 267.09 191.13 266.22C191.52 267.13 191.84 268.09 192.09 269.05C193.09 269.44 196.58 270.82 197.07 271.02ZM195.2 267.82C193.69 266.95 192.21 266.1 190.72 265.33C190.67 265.3 190.63 265.28 190.56 265.3C190.56 265.3 190.54 265.31 190.51 265.33C190.5 265.3 190.49 265.28 190.49 265.28C190.13 264.55 189.69 263.82 189.21 263.15C189.2 263.13 189.12 263.03 188.98 262.83C189.19 262.97 189.3 263.05 189.33 263.06C190.7 263.98 192.09 264.85 193.44 265.65C193.44 265.65 193.46 265.65 193.49 265.67C193.49 265.7 193.49 265.71 193.49 265.71C193.49 265.76 193.51 265.83 193.53 265.87C193.53 265.88 193.53 265.88 193.53 265.9C193.53 265.91 193.53 265.92 193.53 265.92C193.53 266.03 193.58 266.17 193.67 266.26C193.76 266.35 193.87 266.4 193.99 266.38C193.99 266.38 194.01 266.38 194.03 266.38C194.05 266.39 194.06 266.4 194.06 266.4C194.49 266.81 194.9 267.27 195.29 267.77C195.31 267.79 195.39 267.87 195.54 268.02C195.34 267.9 195.22 267.83 195.2 267.82ZM190.81 265.19C192.16 265.92 193.55 266.7 194.93 267.47C194.63 267.11 194.31 266.79 193.99 266.47C193.83 266.47 193.69 266.42 193.58 266.29C193.46 266.17 193.39 266.01 193.39 265.85C193.37 265.81 193.35 265.74 193.35 265.69C192.09 264.96 190.83 264.18 189.58 263.34C189.94 263.93 190.31 264.53 190.63 265.14C190.63 265.14 190.63 265.14 190.63 265.14C190.7 265.14 190.74 265.17 190.81 265.19ZM194.31 265.1C191.45 263.45 188.66 261.62 186.06 259.63C186.05 259.63 186 259.6 185.92 259.54C186.02 259.52 186.07 259.5 186.08 259.5C186.15 259.47 186.19 259.45 186.26 259.41C186.58 259.15 186.9 258.88 187.2 258.58C187.2 258.58 187.22 258.56 187.25 258.54C187.27 258.55 187.29 258.56 187.29 258.56C188.43 259.15 189.53 259.82 190.61 260.48C192.34 261.55 194.15 262.65 196.09 263.38C196.1 263.39 196.13 263.4 196.18 263.43C196.14 263.48 196.12 263.51 196.11 263.52C195.61 264.11 195.04 264.64 194.4 265.1C194.4 265.1 194.38 265.11 194.35 265.12C194.33 265.11 194.31 265.1 194.31 265.1ZM194.35 264.94C194.93 264.53 195.47 264.05 195.93 263.5C194.01 262.77 192.23 261.67 190.51 260.62C189.46 259.98 188.37 259.31 187.27 258.72C186.97 258.99 186.67 259.27 186.35 259.52C186.33 259.57 186.31 259.59 186.26 259.61C188.85 261.55 191.57 263.34 194.35 264.94ZM196.43 263.04C194.42 262.33 192.57 261.19 190.79 260.09C189.78 259.47 188.73 258.81 187.66 258.26C187.65 258.26 187.62 258.24 187.57 258.22C187.61 258.18 187.63 258.15 187.63 258.15C188.11 257.6 188.57 257.01 188.96 256.37C188.96 256.36 188.97 256.35 188.98 256.32C189.01 256.33 189.03 256.34 189.03 256.34C190.1 256.66 191.13 257.3 192.11 257.94C192.5 258.19 192.89 258.42 193.26 258.65C193.55 258.82 194.99 259.64 197.58 261.12C197.56 261.16 197.56 261.18 197.55 261.19C197.26 261.85 196.91 262.47 196.5 263.04C196.5 263.04 196.49 263.05 196.48 263.06C196.45 263.05 196.44 263.04 196.43 263.04ZM190.88 259.95C192.64 261.03 194.47 262.15 196.43 262.88C196.8 262.35 197.14 261.78 197.42 261.17C197 260.93 193.63 259.01 193.21 258.77C192.85 258.56 192.46 258.31 192.07 258.06C191.11 257.44 190.1 256.82 189.07 256.5C188.69 257.1 188.27 257.65 187.82 258.17C188.87 258.72 189.87 259.36 190.88 259.95ZM193.14 258.03C192.8 257.83 192.46 257.62 192.09 257.39C191.2 256.82 190.26 256.25 189.3 255.93C189.3 255.93 189.27 255.92 189.21 255.91C189.24 255.85 189.25 255.82 189.26 255.82C189.53 255.31 189.76 254.77 189.97 254.22C189.97 254.21 189.97 254.19 189.99 254.15C190.03 254.18 190.05 254.19 190.06 254.19C190.24 254.29 190.49 254.45 190.67 254.56C190.77 254.61 190.83 254.65 190.88 254.67C191.37 254.94 193.84 256.26 198.29 258.63C198.29 258.66 198.29 258.67 198.29 258.67C198.17 259.34 198.01 259.98 197.78 260.57C197.78 260.58 197.77 260.61 197.76 260.66C194.99 259.09 193.45 258.21 193.14 258.03ZM192.18 257.26C192.55 257.49 192.89 257.69 193.23 257.9C193.68 258.15 197.25 260.18 197.69 260.43C197.9 259.89 198.03 259.29 198.15 258.7C197.42 258.31 191.57 255.18 190.83 254.79C190.79 254.77 190.72 254.72 190.63 254.65C190.47 254.56 190.26 254.42 190.1 254.33C189.9 254.86 189.67 255.36 189.44 255.82C190.4 256.14 191.31 256.71 192.18 257.26ZM191.13 254.29C191.04 254.24 190.93 254.15 190.81 254.08C190.63 253.97 190.42 253.83 190.22 253.74C190.21 253.74 190.19 253.73 190.15 253.71C190.16 253.67 190.17 253.65 190.17 253.65C190.35 253.05 190.49 252.43 190.61 251.82C190.61 251.81 190.61 251.78 190.63 251.73C190.68 251.74 190.71 251.75 190.72 251.75C191.02 251.86 191.5 252.11 191.86 252.3C192.02 252.39 192.16 252.46 192.23 252.48C192.64 252.66 194.7 253.55 198.4 255.15C198.4 255.18 198.4 255.2 198.4 255.2C198.49 256.16 198.49 257.1 198.4 258.01C198.4 258.02 198.39 258.07 198.38 258.15C194.03 255.83 191.61 254.54 191.13 254.29ZM190.88 253.94C190.99 254.01 191.11 254.08 191.2 254.15C191.9 254.53 197.54 257.54 198.24 257.92C198.33 257.07 198.33 256.21 198.24 255.31C197.63 255.05 192.75 252.93 192.14 252.66C192.07 252.64 191.93 252.57 191.77 252.48C191.45 252.32 191.02 252.09 190.72 251.95C190.63 252.53 190.49 253.07 190.33 253.62C190.51 253.71 190.72 253.83 190.88 253.94ZM191.36 251.66C191.27 251.61 191.18 251.57 191.11 251.52C190.99 251.45 190.86 251.38 190.74 251.34C190.74 251.34 190.72 251.33 190.7 251.31C190.7 251.27 190.7 251.25 190.7 251.25C190.79 250.47 190.81 249.69 190.77 248.89C190.77 248.88 190.77 248.84 190.77 248.75C190.83 248.8 190.87 248.82 190.88 248.82C193.19 250.08 195.52 251.29 197.83 252.43C197.83 252.44 197.84 252.44 197.85 252.46C197.85 252.47 197.85 252.48 197.85 252.48C198.06 253.17 198.24 253.85 198.33 254.51C198.33 254.52 198.33 254.58 198.33 254.67C194.15 252.86 191.82 251.86 191.36 251.66ZM191.18 251.38C191.27 251.43 191.34 251.47 191.43 251.5C192.1 251.79 197.48 254.13 198.15 254.42C198.03 253.81 197.9 253.19 197.69 252.57C195.45 251.45 193.17 250.26 190.9 249.03C190.93 249.78 190.9 250.51 190.83 251.22C190.95 251.27 191.06 251.34 191.18 251.38ZM197.42 251.75C195.13 250.61 192.89 249.42 190.7 248.23C190.69 248.23 190.68 248.22 190.65 248.21C190.65 248.18 190.65 248.16 190.65 248.16C190.61 247.84 190.56 247.52 190.51 247.2C190.47 246.93 190.4 246.65 190.33 246.38C190.33 246.37 190.31 246.32 190.29 246.24C190.49 246.32 190.61 246.37 190.63 246.38C191.45 246.67 192.27 246.99 193.1 247.31C193.6 247.52 194.1 247.75 194.67 248.02C194.74 248.07 194.83 248.09 194.93 248.14C195.25 248.27 195.63 248.46 195.91 248.66C195.91 248.67 195.93 248.68 195.93 248.69C196.27 249.19 196.57 249.71 196.85 250.22C197.07 250.65 197.3 251.13 197.49 251.63C197.49 251.65 197.53 251.72 197.6 251.84C197.49 251.79 197.43 251.75 197.42 251.75ZM197.3 251.54C197.12 251.11 196.94 250.72 196.73 250.33C196.46 249.83 196.16 249.33 195.84 248.82C195.57 248.62 195.2 248.46 194.88 248.32C194.79 248.27 194.7 248.23 194.63 248.21C194.06 247.93 193.55 247.7 193.05 247.5C192.23 247.18 191.38 246.86 190.58 246.56C190.58 246.56 190.52 246.54 190.51 246.54C190.58 246.77 190.63 246.99 190.67 247.22C190.72 247.52 190.77 247.82 190.81 248.14C192.91 249.28 195.11 250.42 197.3 251.54ZM195.02 247.66C194.81 247.57 194.61 247.47 194.42 247.41C194.26 247.34 194.1 247.27 193.97 247.22C193.01 246.79 191.98 246.42 190.99 246.06C190.72 245.97 190.45 245.85 190.17 245.76C190.17 245.76 190.16 245.75 190.15 245.74C190.13 245.71 190.13 245.69 190.13 245.69C189.9 244.98 189.6 244.27 189.21 243.59C189.21 243.58 189.18 243.52 189.14 243.43C189.24 243.46 189.29 243.47 189.3 243.47C190.24 243.7 191.15 243.98 192.07 244.3C192.07 244.3 192.09 244.32 192.09 244.32C193.26 245.37 194.26 246.42 195.13 247.54C195.14 247.56 195.2 247.63 195.29 247.77C195.13 247.7 195.04 247.66 195.02 247.66ZM191.04 245.92C192.02 246.29 193.05 246.65 194.01 247.09C194.15 247.15 194.31 247.2 194.47 247.27C194.58 247.31 194.67 247.36 194.79 247.41C193.97 246.38 193.05 245.42 191.98 244.46C191.13 244.16 190.29 243.91 189.42 243.68C189.76 244.32 190.03 244.98 190.24 245.62C190.51 245.71 190.77 245.83 191.04 245.92ZM190.77 243.41C190.15 243.22 189.49 243.06 188.85 242.93C188.84 242.93 188.84 242.93 188.82 242.93C188.81 242.91 188.8 242.9 188.8 242.9C188.41 242.26 187.98 241.65 187.5 241.07C187.47 241.05 187.36 240.92 187.15 240.69C187.41 240.85 187.56 240.94 187.59 240.96C188.8 241.76 189.87 242.51 190.83 243.29C190.85 243.31 190.95 243.38 191.13 243.52C190.91 243.45 190.79 243.41 190.77 243.41ZM190.45 243.18C189.67 242.58 188.85 241.99 187.93 241.37C188.27 241.81 188.62 242.29 188.91 242.79C189.42 242.9 189.94 243.02 190.45 243.18Z" id="a3DoAqEwTG"></path><path d="M169.19 244.05C166.83 243.89 164.48 243.93 162.13 243.86C161.76 243.86 161.6 244.16 161.65 244.46C161.53 244.55 161.46 244.66 161.46 244.85C161.44 247.2 161.42 249.55 161.42 251.91C161.42 253.1 161.39 254.26 161.39 255.45C161.39 256.05 161.67 256.64 162.33 256.69C164.64 256.85 167.04 256.75 169.35 256.64C171.27 256.55 173.12 256.07 174.58 254.81C177.19 252.55 176.48 247.59 173.99 245.51C172.66 244.41 170.83 244.16 169.19 244.05ZM171.95 245.53C171.95 245.53 171.98 245.53 171.98 245.53C173.58 246.08 174.61 247.52 174.99 249.12C174.01 247.91 172.98 246.72 171.95 245.53ZM162.38 255.04C162.38 254.77 162.38 254.49 162.38 254.22C163.06 254.65 163.7 255.13 164.34 255.66C163.89 255.68 163.43 255.68 162.99 255.68C162.45 255.68 162.38 255.59 162.38 255.04ZM165.14 255.57C164.27 254.81 163.36 254.13 162.38 253.51C162.38 253.49 162.38 253.49 162.38 253.46C162.38 253.01 162.38 252.55 162.38 252.09C164.37 253.28 166.38 254.45 168.37 255.63C167.34 255.7 166.29 255.7 165.23 255.68C165.21 255.63 165.19 255.61 165.14 255.57ZM169.49 255.59C167.15 254.22 164.82 252.82 162.47 251.45C162.45 251.43 162.42 251.43 162.4 251.43C162.4 251.2 162.4 250.97 162.4 250.74C162.4 250.03 162.4 249.33 162.42 248.62C164.71 250.81 167.22 252.75 169.92 254.4C169.92 254.79 169.9 255.18 169.87 255.57C169.74 255.59 169.62 255.59 169.49 255.59ZM162.45 247.77C162.45 247.04 162.47 246.31 162.47 245.6C164.09 246.93 165.69 248.25 167.31 249.58C168.09 250.22 169.81 251.15 169.92 252.23C169.97 252.71 169.97 253.19 169.97 253.69C167.25 252 164.73 250.03 162.45 247.77ZM163.2 244.91C164.25 244.94 165.28 244.96 166.33 244.98C168.64 246.74 170.81 248.64 172.89 250.67C172.02 250.7 171.15 250.74 170.29 250.77C169.9 250.33 169.37 249.97 168.94 249.62C167.02 248.05 165.12 246.49 163.2 244.91ZM170.9 255.43C170.95 254.29 171.04 253.1 170.9 251.95C170.9 251.89 170.88 251.82 170.88 251.75C172.27 251.7 173.69 251.63 175.09 251.59C175.09 251.59 175.11 251.59 175.11 251.59C174.93 252.55 174.51 253.42 173.83 254.08C173.03 254.83 171.98 255.22 170.9 255.43ZM173.74 250.63C173.74 250.63 173.74 250.63 173.74 250.63C171.73 248.62 169.6 246.74 167.36 245.01C167.45 245.01 167.52 245.01 167.61 245.01C168.73 245.03 169.83 245.07 170.93 245.28C172.39 246.93 173.81 248.59 175.18 250.29C175.18 250.38 175.18 250.49 175.18 250.58C175.15 250.58 175.11 250.58 175.06 250.58C174.63 250.61 174.17 250.61 173.74 250.63Z" id="j1mOGc8rnu"></path><path d="M164.96 256.82C163.98 256.82 163.11 256.8 162.29 256.75C161.53 256.71 161.28 256.02 161.28 255.45C161.29 254.39 161.36 245.91 161.37 244.85C161.37 244.69 161.44 244.53 161.55 244.43C161.53 244.27 161.6 244.11 161.69 243.98C161.78 243.86 161.94 243.79 162.1 243.79C162.86 243.82 163.59 243.82 164.32 243.82C165.92 243.84 167.59 243.86 169.19 243.95C170.93 244.07 172.73 244.34 174.03 245.44C175.38 246.58 176.27 248.64 176.27 250.7C176.27 252.43 175.68 253.9 174.58 254.83C173.23 255.98 171.52 256.57 169.3 256.69C167.91 256.78 166.42 256.82 164.96 256.82C164.96 256.82 164.96 256.82 164.96 256.82ZM161.81 244.09C161.71 244.18 161.69 244.32 161.71 244.46C161.71 244.46 161.71 244.48 161.71 244.5C161.69 244.52 161.67 244.52 161.67 244.53C161.6 244.57 161.51 244.69 161.51 244.85C161.5 245.91 161.43 254.39 161.42 255.45C161.42 255.95 161.65 256.57 162.29 256.62C163.11 256.66 163.98 256.69 164.96 256.69C166.42 256.69 167.91 256.62 169.28 256.57C171.47 256.48 173.17 255.89 174.47 254.77C175.54 253.85 176.11 252.43 176.11 250.74C176.11 248.73 175.25 246.72 173.92 245.6C172.64 244.53 170.88 244.27 169.17 244.16C167.54 244.05 165.9 244.02 164.3 244.02C163.59 243.98 162.86 243.95 162.13 243.95C162.13 243.95 162.13 243.95 162.13 243.95C161.99 243.95 161.9 244 161.81 244.09ZM165.23 255.77C165.23 255.77 165.22 255.77 165.19 255.77C165.17 255.74 165.17 255.73 165.17 255.73C165.14 255.7 165.14 255.66 165.1 255.63C164.25 254.88 163.31 254.19 162.35 253.6C162.35 253.6 162.34 253.59 162.31 253.58L162.33 252L168.66 255.73C168.51 255.73 168.43 255.73 168.41 255.73C167.73 255.75 167.02 255.77 166.1 255.77C165.81 255.77 165.51 255.77 165.23 255.77ZM166.1 255.61C166.9 255.61 167.54 255.61 168.11 255.59C167.74 255.37 165.86 254.25 162.47 252.25C162.47 252.99 162.47 253.4 162.47 253.49C163.43 254.1 164.37 254.77 165.21 255.52C165.23 255.54 165.26 255.59 165.28 255.61C165.55 255.61 165.83 255.61 166.1 255.61ZM164.34 255.77C163.89 255.77 163.45 255.77 162.99 255.77C162.99 255.77 162.97 255.77 162.97 255.77C162.72 255.77 162.54 255.75 162.42 255.63C162.31 255.52 162.29 255.34 162.31 255.06C162.31 255 162.31 254.68 162.31 254.1C162.38 254.14 162.42 254.17 162.42 254.17C163.11 254.61 163.77 255.11 164.39 255.63C164.4 255.64 164.45 255.69 164.55 255.77C164.43 255.77 164.36 255.77 164.34 255.77ZM164.14 255.61C163.61 255.18 163.04 254.77 162.47 254.38C162.47 254.45 162.47 254.99 162.47 255.06C162.47 255.31 162.47 255.45 162.56 255.54C162.63 255.61 162.74 255.63 162.99 255.63C163 255.63 163.01 255.63 163.02 255.63C163.15 255.61 163.34 255.61 163.5 255.61C163.7 255.61 163.91 255.61 164.14 255.61ZM162.42 251.52C162.4 251.52 162.38 251.5 162.38 251.5C162.37 251.5 162.36 251.49 162.33 251.47L162.35 248.41C162.44 248.48 162.48 248.52 162.49 248.53C164.78 250.72 167.29 252.66 169.99 254.29C169.99 254.29 170.01 254.29 170.03 254.31C170.03 254.34 170.03 254.35 170.03 254.35C170.03 254.51 170.01 254.7 170.01 254.86C169.99 255.09 169.99 255.31 169.97 255.54C169.97 255.55 169.97 255.57 169.97 255.61C169.92 255.61 169.9 255.61 169.9 255.61C169.76 255.63 169.65 255.63 169.51 255.63C169.51 255.64 169.49 255.65 169.46 255.68C165.24 253.18 162.89 251.8 162.42 251.52ZM162.51 251.41C163.21 251.82 168.81 255.13 169.51 255.54C169.6 255.54 169.71 255.52 169.81 255.52C169.81 255.31 169.83 255.11 169.83 254.9C169.83 254.74 169.85 254.61 169.85 254.45C167.22 252.85 164.75 250.95 162.49 248.8C162.49 248.97 162.48 249.83 162.47 251.38C162.48 251.4 162.5 251.41 162.51 251.41ZM170.83 255.09C170.88 254.06 170.95 252.98 170.83 251.95C170.83 251.89 170.81 251.82 170.81 251.77C170.81 251.77 170.8 251.73 170.79 251.68L175.18 251.52C175.18 251.57 175.18 251.61 175.18 251.61C174.99 252.64 174.56 253.51 173.87 254.15C173.17 254.83 172.18 255.27 170.9 255.52C170.9 255.52 170.87 255.52 170.81 255.52C170.83 255.26 170.83 255.11 170.83 255.09ZM170.97 251.93C171.09 252.96 171.04 254.03 170.97 255.09C170.97 255.11 170.95 255.31 170.95 255.34C172.16 255.11 173.07 254.67 173.76 254.03C174.38 253.44 174.81 252.62 174.99 251.68C174.72 251.69 173.38 251.73 170.95 251.82C170.96 251.86 170.97 251.9 170.97 251.93ZM169.92 253.74C167.2 252.05 164.66 250.06 162.38 247.82C162.38 247.82 162.37 247.81 162.35 247.79L162.38 245.42C165.37 247.87 167.03 249.24 167.36 249.51C167.52 249.65 167.75 249.81 168 249.97C168.85 250.58 169.92 251.34 170.01 252.21C170.06 252.62 170.08 253.1 170.06 253.67C170.06 253.68 170.05 253.72 170.03 253.81C169.97 253.76 169.93 253.74 169.92 253.74ZM169.9 253.53C169.9 253.03 169.9 252.59 169.85 252.23C169.76 251.43 168.73 250.67 167.91 250.1C167.68 249.94 167.45 249.78 167.27 249.62C166.95 249.36 165.38 248.07 162.54 245.74L162.51 247.73C165.65 250.48 168.11 252.42 169.9 253.53ZM170.24 250.81C169.97 250.51 169.62 250.24 169.28 249.99C169.14 249.87 169.01 249.78 168.87 249.67C168.48 249.35 166.51 247.73 162.97 244.82L166.35 244.89C166.37 244.91 166.38 244.91 166.38 244.91C168.64 246.65 170.86 248.57 172.94 250.61C172.95 250.61 172.99 250.65 173.07 250.72L170.26 250.83C170.25 250.82 170.24 250.81 170.24 250.81ZM168.98 249.55C169.1 249.67 169.23 249.76 169.37 249.87C169.69 250.13 170.03 250.4 170.33 250.7C170.57 250.69 172.49 250.61 172.73 250.61C170.7 248.62 168.53 246.77 166.33 245.05C166.14 245.05 165.17 245.02 163.43 244.98C166.76 247.73 168.61 249.25 168.98 249.55ZM173.69 250.7C171.7 248.73 169.55 246.83 167.31 245.07C167.3 245.07 167.24 245.02 167.13 244.94C167.42 244.94 167.58 244.94 167.61 244.94C168.8 244.96 169.87 245.01 170.93 245.21C170.93 245.21 170.93 245.21 170.95 245.21C170.96 245.23 170.97 245.23 170.97 245.23C172.43 246.88 173.87 248.57 175.22 250.24C175.22 250.24 175.23 250.25 175.25 250.26C175.25 250.28 175.25 250.28 175.25 250.29C175.25 250.38 175.25 250.49 175.25 250.58C175.25 250.59 175.25 250.62 175.25 250.67C175.19 250.66 175.16 250.65 175.15 250.65C175.13 250.65 175.11 250.65 175.09 250.65C174.99 250.66 174.54 250.68 173.71 250.72C173.7 250.71 173.69 250.7 173.69 250.7ZM173.78 250.56C173.92 250.56 174.98 250.52 175.11 250.51C175.11 250.51 175.11 250.51 175.13 250.51C175.13 250.45 175.13 250.38 175.13 250.33C173.78 248.66 172.37 246.99 170.9 245.37C169.83 245.14 168.78 245.12 167.59 245.07C167.59 245.07 167.59 245.07 167.59 245.07C170.42 247.45 172.49 249.28 173.78 250.56ZM174.95 249.19C173.94 247.95 172.91 246.77 171.91 245.6C171.9 245.59 171.84 245.52 171.73 245.39C171.9 245.45 172 245.48 172.02 245.49C173.51 245.97 174.65 247.31 175.09 249.12C175.09 249.14 175.11 249.25 175.15 249.44C175.03 249.29 174.96 249.21 174.95 249.19ZM174.83 248.8C174.38 247.34 173.44 246.22 172.21 245.71C173.07 246.72 173.97 247.75 174.83 248.8Z" id="a3xIVQVuUg"></path><path d="M168.23 265.07C166.13 264.94 164.02 264.82 161.92 264.69C161.6 264.66 161.44 264.89 161.44 265.14C161.39 265.23 161.39 265.35 161.42 265.44C161.42 265.46 161.42 265.46 161.42 265.49C161.42 265.55 161.42 265.62 161.42 265.67C161.42 265.67 161.42 265.67 161.42 265.67C161.42 265.71 161.42 266.04 161.42 266.08C161.42 266.08 161.42 266.08 161.42 266.08C161.42 269.87 161.42 273.67 161.42 277.46C161.42 277.76 161.65 277.94 161.92 277.97C167.38 278.31 177.19 280.05 178.15 272.23C178.51 269.23 176.32 266.61 173.58 265.71C171.89 265.17 169.99 265.19 168.23 265.07ZM174.72 267.41C175.22 267.73 175.66 268.14 176.02 268.57C175.59 268.18 175.15 267.79 174.72 267.41ZM172.78 266.54C174.22 267.7 175.59 268.94 176.91 270.22C177.01 270.49 177.05 270.77 177.1 271.06C176.55 271.02 176.02 270.95 175.5 270.88C174.26 270.15 173.21 269.26 172.11 268.3C171.2 267.5 170.22 266.79 169.21 266.1C169.97 266.17 170.72 266.24 171.5 266.31C171.93 266.35 172.37 266.42 172.78 266.54ZM170.49 271.04C170.4 271.61 170.47 272.27 170.49 272.8C167.79 271.2 165.12 269.6 162.42 268C162.42 267.88 162.42 267.26 162.42 266.15C166.05 268.25 168.74 269.88 170.49 271.04ZM170.49 273.51C170.49 274.26 170.51 275.04 170.54 275.79C169.23 275.13 167.95 274.47 166.65 273.81C165.97 273.44 165.28 273.07 164.59 272.69C164.41 272.57 162.47 271.47 162.47 271.41C162.49 271.29 162.47 271.2 162.4 271.13C162.42 270.35 162.42 269.53 162.42 268.71C165.12 270.31 167.82 271.91 170.49 273.51ZM162.42 275.18C163.7 275.93 165.03 276.64 166.35 277.3C165.05 277.21 163.73 277.07 162.42 277.01C162.42 276.39 162.42 275.79 162.42 275.18ZM162.42 274.47C162.42 273.67 162.42 272.85 162.42 272.05C163.25 272.62 164.11 273.12 164.98 273.62C166.81 274.65 168.71 275.57 170.58 276.5C170.58 276.66 170.61 276.85 170.61 277.01C170.61 277.14 170.65 277.23 170.72 277.33C169.81 277.39 168.87 277.42 167.93 277.37C166.06 276.5 164.21 275.52 162.42 274.47ZM163.89 265.81C165.26 265.87 166.61 265.94 167.98 266.03C169.35 266.95 170.72 267.89 171.95 268.98C172.64 269.58 173.3 270.15 174.03 270.67C173.21 270.54 172.39 270.38 171.57 270.19C171.45 270.17 171.34 270.17 171.25 270.22C171.2 270.22 171.13 270.22 171.09 270.22C168.73 268.66 166.35 267.18 163.89 265.81ZM171.57 277.21C171.59 277.14 171.61 277.07 171.59 277.01C171.54 276.07 171.52 275.13 171.5 274.19C171.5 273.65 171.5 273.12 171.5 272.57C171.5 272.39 171.41 271.66 171.43 271.27C171.45 271.25 171.47 271.25 171.5 271.22C173.35 271.63 175.22 271.91 177.1 272.09C177.14 272.14 177.12 272.18 177.12 272.23C176.91 275.22 174.24 276.8 171.57 277.21Z" id="a1GcRGHDe7"></path><path d="M168.59 278.45C166.95 278.45 165.28 278.31 163.79 278.19C163.13 278.15 162.49 278.08 161.9 278.06C161.58 278.03 161.33 277.78 161.33 277.49C161.33 276.73 161.33 272.93 161.33 266.1L161.33 265.69C161.33 265.57 161.33 265.5 161.33 265.49C161.33 265.46 161.33 265.46 161.33 265.44C161.3 265.35 161.3 265.23 161.35 265.12C161.37 264.85 161.55 264.59 161.92 264.62C162.55 264.66 167.6 264.97 168.23 265.01C168.57 265.03 168.94 265.05 169.3 265.05C170.74 265.12 172.23 265.19 173.6 265.62C176.18 266.47 178.61 269.03 178.22 272.23C177.53 277.81 172.41 278.45 168.59 278.45C168.59 278.45 168.59 278.45 168.59 278.45ZM161.53 265.12C161.53 265.12 161.53 265.14 161.53 265.14C161.51 265.23 161.49 265.33 161.51 265.39C161.51 265.4 161.51 265.4 161.51 265.42L161.51 265.44L161.51 266.06C161.51 272.89 161.51 276.68 161.51 277.44C161.51 277.71 161.74 277.85 161.94 277.87C162.54 277.92 163.18 277.97 163.84 278.01C165.3 278.13 166.97 278.26 168.62 278.26C168.62 278.26 168.62 278.26 168.62 278.26C172.37 278.26 177.42 277.62 178.08 272.18C178.47 269.05 176.09 266.56 173.58 265.74C172.23 265.3 170.77 265.23 169.33 265.17C168.96 265.14 168.62 265.14 168.25 265.12C167.62 265.08 162.57 264.77 161.94 264.73C161.92 264.75 161.9 264.75 161.9 264.75C161.65 264.75 161.53 264.96 161.53 265.12ZM167.93 277.44C167.93 277.44 167.91 277.44 167.91 277.44C166.03 276.57 164.16 275.59 162.4 274.51C162.4 274.51 162.38 274.51 162.35 274.49L162.35 271.86C162.42 271.92 162.46 271.95 162.47 271.95C163.18 272.46 163.98 272.94 165.03 273.53C166.4 274.31 167.84 275.02 169.21 275.7C169.67 275.93 170.15 276.18 170.61 276.41C170.61 276.41 170.62 276.42 170.65 276.43C170.65 276.53 170.65 276.58 170.65 276.59C170.65 276.73 170.67 276.87 170.67 276.98C170.67 277.1 170.72 277.17 170.79 277.26C170.79 277.26 170.83 277.3 170.88 277.37C170.78 277.39 170.73 277.39 170.72 277.39C170.15 277.44 169.53 277.46 168.85 277.46C168.55 277.46 168.25 277.46 167.93 277.44ZM170.61 277.26C170.56 277.19 170.54 277.1 170.54 277.01C170.54 276.87 170.51 276.73 170.51 276.62C170.51 276.61 170.51 276.56 170.51 276.55C170.06 276.32 169.6 276.09 169.14 275.86C167.75 275.18 166.33 274.45 164.96 273.69C163.95 273.14 163.2 272.66 162.51 272.21C162.51 272.43 162.51 274.22 162.51 274.45C164.25 275.47 166.08 276.43 167.95 277.3C168.94 277.33 169.81 277.33 170.61 277.26ZM166.35 277.37C165.65 277.33 164.94 277.26 164.23 277.21C163.61 277.17 163.02 277.12 162.4 277.07C162.4 277.07 162.37 277.07 162.33 277.07L162.33 275.04C162.4 275.08 162.44 275.1 162.45 275.11C163.75 275.89 165.07 276.59 166.38 277.23C166.4 277.24 166.52 277.3 166.74 277.39C166.51 277.38 166.38 277.37 166.35 277.37ZM164.25 277.05C164.82 277.1 165.42 277.14 165.99 277.19C164.85 276.62 163.66 275.98 162.49 275.29C162.49 275.4 162.49 275.94 162.49 276.91C163.27 276.98 163.86 277.02 164.25 277.05ZM171.52 277.21C171.54 277.17 171.54 277.1 171.54 277.03C171.5 276.09 171.47 275.13 171.45 274.19C171.45 273.65 171.45 273.07 171.45 272.57C171.45 272.5 171.45 272.39 171.43 272.23C171.41 271.93 171.38 271.52 171.38 271.27C171.38 271.27 171.38 271.25 171.38 271.22C171.41 271.21 171.43 271.2 171.43 271.2C171.45 271.18 171.47 271.18 171.5 271.15C171.5 271.15 171.51 271.15 171.52 271.13C171.55 271.13 171.56 271.13 171.57 271.13C173.39 271.54 175.27 271.82 177.17 272C177.17 272 177.19 272 177.23 272C177.23 272.07 177.23 272.11 177.23 272.11C177.23 272.14 177.23 272.16 177.23 272.21C177.03 275.31 174.19 276.85 171.63 277.26C171.62 277.26 171.57 277.28 171.47 277.33C171.5 277.26 171.52 277.22 171.52 277.21ZM171.57 272.21C171.59 272.37 171.59 272.5 171.59 272.57C171.59 273.05 171.59 273.62 171.59 274.19C171.61 275.13 171.63 276.07 171.68 277.01C171.68 277.05 171.68 277.1 171.68 277.12C174.17 276.69 176.85 275.2 177.05 272.23C177.05 272.21 177.05 272.18 177.05 272.18C175.2 272 173.35 271.7 171.52 271.31C171.54 271.31 171.54 271.31 171.52 271.31C171.52 271.54 171.54 271.93 171.57 272.21ZM169.83 275.52C168.75 274.97 167.68 274.42 166.63 273.87C165.92 273.51 165.23 273.14 164.57 272.75C164.56 272.75 164.51 272.73 164.5 272.73C162.38 271.52 162.38 271.47 162.4 271.41C162.42 271.31 162.38 271.25 162.35 271.2C162.35 271.2 162.35 271.19 162.33 271.18L162.33 268.57L170.56 273.46C170.56 273.49 170.56 273.51 170.56 273.51C170.56 274.22 170.58 274.97 170.61 275.79C170.61 275.8 170.61 275.85 170.63 275.93C170.15 275.68 169.88 275.55 169.83 275.52ZM164.59 272.59C164.6 272.6 164.66 272.61 164.66 272.62C165.33 273.01 166.01 273.37 166.72 273.74C167.79 274.29 168.85 274.83 169.92 275.38C169.98 275.41 170.43 275.65 170.49 275.68C170.47 274.93 170.45 274.24 170.45 273.55C169.92 273.24 167.27 271.67 162.51 268.85C162.51 270.22 162.51 270.98 162.51 271.13C162.56 271.2 162.58 271.31 162.58 271.41C162.67 271.47 163.04 271.7 164.59 272.59ZM162.35 268.05L162.35 266.01C162.42 266.05 162.46 266.08 162.47 266.08C165.21 267.59 167.93 269.26 170.54 270.97C170.54 270.97 170.56 270.98 170.58 270.99C170.58 271.02 170.58 271.04 170.58 271.04C170.51 271.45 170.54 271.93 170.56 272.37C170.56 272.5 170.58 272.66 170.58 272.78C170.58 272.79 170.58 272.84 170.58 272.94L162.35 268.05ZM170.42 272.66C170.42 272.57 170.42 272.48 170.4 272.39C170.38 271.98 170.35 271.5 170.4 271.09C167.84 269.39 165.19 267.77 162.49 266.29C162.49 266.4 162.5 266.95 162.51 267.95C167.26 270.78 169.9 272.35 170.42 272.66ZM177.1 271.18C176.62 271.13 176.07 271.06 175.47 270.99C175.47 270.99 175.45 270.99 175.45 270.99C174.26 270.29 173.23 269.44 172.07 268.39C171.13 267.54 170.08 266.81 169.17 266.19C169.15 266.18 169.07 266.13 168.94 266.03C169.1 266.05 169.19 266.06 169.21 266.06C170.06 266.13 170.81 266.19 171.5 266.26C171.93 266.31 172.37 266.4 172.78 266.49C172.78 266.49 172.8 266.51 172.8 266.51C174.22 267.68 175.61 268.91 176.94 270.19C176.94 270.2 176.95 270.2 176.96 270.22C176.96 270.23 176.96 270.24 176.96 270.24C177.05 270.51 177.12 270.81 177.14 271.11C177.15 271.11 177.16 271.14 177.19 271.18C177.13 271.18 177.1 271.18 177.1 271.18ZM177.01 271.02C176.96 270.77 176.91 270.54 176.85 270.29C175.52 269.01 174.13 267.77 172.73 266.63C172.32 266.51 171.91 266.45 171.47 266.4C170.86 266.33 170.22 266.29 169.49 266.22C170.33 266.79 171.29 267.47 172.16 268.25C173.33 269.3 174.33 270.13 175.52 270.83C176.07 270.9 176.55 270.97 177.01 271.02ZM174.03 270.77C173.17 270.63 172.34 270.47 171.57 270.29C171.47 270.26 171.38 270.26 171.29 270.31C171.29 270.31 171.28 270.31 171.27 270.31C171.25 270.31 171.25 270.31 171.25 270.31C171.2 270.31 171.15 270.29 171.11 270.31C171.11 270.31 171.1 270.31 171.09 270.31C171.07 270.29 171.06 270.29 171.06 270.29C168.73 268.75 166.33 267.27 163.89 265.87C163.87 265.86 163.78 265.81 163.61 265.71C164.32 265.76 164.72 265.78 164.8 265.78C165.85 265.83 166.95 265.9 168.05 265.97C168.05 265.97 168.05 265.97 168.07 265.97C168.08 265.97 168.09 265.97 168.09 265.97C169.42 266.86 170.81 267.79 172.07 268.94C172.85 269.62 173.49 270.15 174.15 270.63C174.16 270.64 174.23 270.7 174.35 270.81C174.16 270.78 174.06 270.77 174.03 270.77ZM171.59 270.13C172.27 270.29 172.98 270.42 173.74 270.56C173.17 270.15 172.59 269.65 171.91 269.05C170.65 267.93 169.28 266.99 167.95 266.1C166.88 266.03 165.78 265.99 164.73 265.92C164.68 265.92 164.26 265.9 164.21 265.9C166.56 267.22 168.87 268.66 171.11 270.15C171.15 270.15 171.2 270.15 171.25 270.15C171.31 270.13 171.38 270.1 171.45 270.1C171.5 270.1 171.54 270.1 171.59 270.13ZM174.67 267.47C174.68 267.46 174.76 267.37 174.77 267.36C175.29 267.7 175.73 268.09 176.09 268.55C176.08 268.55 176.05 268.59 175.98 268.64C175.4 268.12 174.96 267.73 174.67 267.47Z" id="ieCisMfDP"></path></defs><g><g><g><use xlink:href="#d189vd4E5n" opacity="1" fill="#000000" fill-opacity="1"></use><g><use xlink:href="#d189vd4E5n" opacity="1" fill-opacity="0" stroke="#000000" stroke-width="1" stroke-opacity="0"></use></g></g><g><use xlink:href="#a3DoAqEwTG" opacity="1" fill="#180f0b" fill-opacity="1"></use><g><use xlink:href="#a3DoAqEwTG" opacity="1" fill-opacity="0" stroke="#000000" stroke-width="1" stroke-opacity="0"></use></g></g><g><use xlink:href="#j1mOGc8rnu" opacity="1" fill="#000000" fill-opacity="1"></use><g><use xlink:href="#j1mOGc8rnu" opacity="1" fill-opacity="0" stroke="#000000" stroke-width="1" stroke-opacity="0"></use></g></g><g><use xlink:href="#a3xIVQVuUg" opacity="1" fill="#180f0b" fill-opacity="1"></use><g><use xlink:href="#a3xIVQVuUg" opacity="1" fill-opacity="0" stroke="#000000" stroke-width="1" stroke-opacity="0"></use></g></g><g><use xlink:href="#a1GcRGHDe7" opacity="1" fill="#000000" fill-opacity="1"></use><g><use xlink:href="#a1GcRGHDe7" opacity="1" fill-opacity="0" stroke="#000000" stroke-width="1" stroke-opacity="0"></use></g></g><g><use xlink:href="#ieCisMfDP" opacity="1" fill="#180f0b" fill-opacity="1"></use><g><use xlink:href="#ieCisMfDP" opacity="1" fill-opacity="0" stroke="#000000" stroke-width="1" stroke-opacity="0"></use></g></g></g></g></svg>