<?xml version="1.0" ?><svg id="图层_1" style="enable-background:new -239 241 32 32;" version="1.1" viewBox="-239 241 32 32" xml:space="preserve" xmlns="http://www.w3.org/2000/svg" xmlns:xlink="http://www.w3.org/1999/xlink"><style type="text/css">
	.st0{fill:#F42F42;}
	.st1{opacity:0.2038;fill:#332E0A;enable-background:new    ;}
	.st2{fill:none;stroke:#0A2933;stroke-linejoin:round;}
	.st3{fill:none;stroke:#FFFFFF;stroke-linecap:round;stroke-linejoin:round;stroke-dasharray:1,2,6,2,3;}
</style><path class="letter-fill" d="M-227.7,244.6v6.9c0.8-0.9,1.7-1.6,2.6-2c0.9-0.5,2-0.7,3.3-0.7c1.5,0,2.8,0.4,3.9,1.1s2,1.7,2.6,3.1  c0.6,1.3,0.9,2.9,0.9,4.8c0,1.4-0.2,2.6-0.5,3.8s-0.8,2.1-1.5,3c-0.7,0.8-1.5,1.5-2.4,1.9c-0.9,0.5-2,0.7-3.1,0.7  c-0.7,0-1.3-0.1-2-0.2c-0.6-0.2-1.1-0.4-1.6-0.7c-0.4-0.3-0.8-0.5-1.1-0.8c-0.3-0.3-0.7-0.7-1.2-1.3v0.4c0,0.8-0.2,1.5-0.6,1.9  c-0.4,0.4-0.9,0.7-1.6,0.7c-0.6,0-1.1-0.2-1.5-0.7c-0.4-0.4-0.6-1.1-0.6-1.9v-19.7c0-0.9,0.2-1.6,0.6-2.1c0.4-0.5,0.9-0.7,1.5-0.7  c0.7,0,1.2,0.2,1.6,0.7C-227.9,243.1-227.7,243.7-227.7,244.6z M-227.5,257.9c0,1.8,0.4,3.2,1.2,4.1c0.8,1,1.9,1.4,3.2,1.4  c1.1,0,2.1-0.5,2.9-1.5s1.2-2.4,1.2-4.2c0-1.2-0.2-2.2-0.5-3.1s-0.8-1.5-1.5-2s-1.4-0.7-2.2-0.7c-0.9,0-1.6,0.2-2.3,0.7  s-1.2,1.1-1.6,2S-227.5,256.7-227.5,257.9z"/><path class="st1" d="M-214.4,256.9c0,0.3,0,0.5,0,0.8c0,1.4-0.2,2.6-0.5,3.8s-0.8,2.1-1.5,3  c-0.7,0.8-1.5,1.5-2.4,1.9c-0.9,0.5-2,0.7-3.1,0.7c-0.7,0-1.3-0.1-2-0.2c-0.6-0.2-1.1-0.4-1.6-0.7c-0.4-0.3-0.8-0.5-1.1-0.8  c-0.3-0.3-0.7-0.7-1.2-1.3v0.4c0,0.8-0.2,1.5-0.6,1.9c-0.4,0.4-0.9,0.7-1.6,0.7c-0.6,0-1.1-0.2-1.5-0.7c-0.4-0.4-0.6-1.1-0.6-1.9v0  c0.3,0.1,0.5,0.3,0.6,0.4c0.4,0.4,0.9,0.7,1.5,0.7c0.6,0,1.1-0.2,1.6-0.7c0.4-0.4,0.6-1.1,0.6-1.9v-0.4c0.5,0.6,0.9,1,1.2,1.3  c0.3,0.3,0.7,0.6,1.1,0.8c0.4,0.3,0.9,0.5,1.6,0.7c0.6,0.2,1.3,0.2,2,0.2c1.1,0,2.2-0.2,3.1-0.7s1.7-1.1,2.4-1.9  c0.7-0.8,1.2-1.8,1.5-3C-214.6,258.9-214.5,258-214.4,256.9z" id="Combined-Shape"/><path class="letter-border" d="M-227.7,244.6v6.9c0.8-0.9,1.7-1.6,2.6-2c0.9-0.5,2-0.7,3.3-0.7c1.5,0,2.8,0.4,3.9,1.1  s2,1.7,2.6,3.1c0.6,1.3,0.9,2.9,0.9,4.8c0,1.4-0.2,2.6-0.5,3.8s-0.8,2.1-1.5,3c-0.7,0.8-1.5,1.5-2.4,1.9c-0.9,0.5-2,0.7-3.1,0.7  c-0.7,0-1.3-0.1-2-0.2c-0.6-0.2-1.1-0.4-1.6-0.7c-0.4-0.3-0.8-0.5-1.1-0.8c-0.3-0.3-0.7-0.7-1.2-1.3v0.4c0,0.8-0.2,1.5-0.6,1.9  c-0.4,0.4-0.9,0.7-1.6,0.7c-0.6,0-1.1-0.2-1.5-0.7c-0.4-0.4-0.6-1.1-0.6-1.9v-19.7c0-0.9,0.2-1.6,0.6-2.1c0.4-0.5,0.9-0.7,1.5-0.7  c0.7,0,1.2,0.2,1.6,0.7C-227.9,243.1-227.7,243.7-227.7,244.6z M-227.5,257.9c0,1.8,0.4,3.2,1.2,4.1c0.8,1,1.9,1.4,3.2,1.4  c1.1,0,2.1-0.5,2.9-1.5s1.2-2.4,1.2-4.2c0-1.2-0.2-2.2-0.5-3.1s-0.8-1.5-1.5-2s-1.4-0.7-2.2-0.7c-0.9,0-1.6,0.2-2.3,0.7  s-1.2,1.1-1.6,2S-227.5,256.7-227.5,257.9z" id="b-copy"/><path class="st3" d="M-226,251.5c2.3-1.7,4.6-2,6.9-0.9" id="Path-3"/></svg>