<?xml version="1.0" ?><svg id="图层_1" style="enable-background:new -239 241 32 32;" version="1.1" viewBox="-239 241 32 32" xml:space="preserve" xmlns="http://www.w3.org/2000/svg" xmlns:xlink="http://www.w3.org/1999/xlink"><style type="text/css">
	.st0{fill:#F42F42;}
	.st1{opacity:0.2038;fill:#332E0A;enable-background:new    ;}
	.st2{fill:none;stroke:#0A2933;stroke-linejoin:round;}
	.st3{fill:none;stroke:#FFFFFF;stroke-linecap:round;stroke-linejoin:round;stroke-dasharray:1,2,6,2,3;}
</style><path class="st0" d="M-213.7,260.7c0,0.6-0.2,1.2-0.5,1.9c-0.4,0.7-0.9,1.3-1.6,2c-0.7,0.6-1.7,1.1-2.8,1.5s-2.4,0.6-3.8,0.6  c-3,0-5.3-0.9-7-2.6s-2.5-4.1-2.5-7c0-2,0.4-3.7,1.2-5.3c0.8-1.5,1.9-2.7,3.3-3.5c1.5-0.8,3.2-1.3,5.2-1.3c1.3,0,2.4,0.2,3.5,0.5  c1,0.4,1.9,0.8,2.7,1.4c0.7,0.6,1.3,1.2,1.7,1.9c0.4,0.7,0.6,1.3,0.6,1.8c0,0.6-0.2,1.1-0.6,1.5c-0.4,0.4-1,0.6-1.6,0.6  c-0.4,0-0.7-0.1-1-0.3c-0.3-0.2-0.6-0.5-0.9-1c-0.6-0.9-1.2-1.6-1.9-2s-1.5-0.7-2.5-0.7c-1.4,0-2.6,0.6-3.5,1.7  c-0.9,1.1-1.3,2.6-1.3,4.6c0,0.9,0.1,1.7,0.3,2.5c0.2,0.8,0.5,1.4,1,2s0.9,0.9,1.5,1.2c0.6,0.3,1.3,0.4,2,0.4c1,0,1.8-0.2,2.5-0.7  c0.7-0.4,1.3-1.1,1.8-2.1c0.3-0.5,0.6-1,1-1.3s0.8-0.5,1.3-0.5c0.6,0,1.1,0.2,1.5,0.7C-213.9,259.7-213.7,260.2-213.7,260.7z"/><path class="st1" d="M-232,256.4c0.1,2.6,0.9,4.8,2.5,6.4c1.7,1.7,4,2.6,7,2.6c1.4,0,2.7-0.2,3.8-0.6  s2.1-0.9,2.8-1.5s1.3-1.3,1.6-2c0.2-0.4,0.4-0.8,0.5-1.2c0,0.2,0.1,0.4,0.1,0.5c0,0.6-0.2,1.2-0.5,1.9c-0.4,0.7-0.9,1.3-1.6,2  c-0.7,0.6-1.7,1.1-2.8,1.5s-2.4,0.6-3.8,0.6c-3,0-5.3-0.9-7-2.6s-2.5-4.1-2.5-7C-232,256.9-232,256.6-232,256.4z" id="Combined-Shape"/><path class="st2" d="M-213.7,260.7c0,0.6-0.2,1.2-0.5,1.9c-0.4,0.7-0.9,1.3-1.6,2c-0.7,0.6-1.7,1.1-2.8,1.5s-2.4,0.6-3.8,0.6  c-3,0-5.3-0.9-7-2.6s-2.5-4.1-2.5-7c0-2,0.4-3.7,1.2-5.3c0.8-1.5,1.9-2.7,3.3-3.5c1.5-0.8,3.2-1.3,5.2-1.3c1.3,0,2.4,0.2,3.5,0.5  c1,0.4,1.9,0.8,2.7,1.4c0.7,0.6,1.3,1.2,1.7,1.9c0.4,0.7,0.6,1.3,0.6,1.8c0,0.6-0.2,1.1-0.6,1.5c-0.4,0.4-1,0.6-1.6,0.6  c-0.4,0-0.7-0.1-1-0.3c-0.3-0.2-0.6-0.5-0.9-1c-0.6-0.9-1.2-1.6-1.9-2s-1.5-0.7-2.5-0.7c-1.4,0-2.6,0.6-3.5,1.7  c-0.9,1.1-1.3,2.6-1.3,4.6c0,0.9,0.1,1.7,0.3,2.5c0.2,0.8,0.5,1.4,1,2s0.9,0.9,1.5,1.2c0.6,0.3,1.3,0.4,2,0.4c1,0,1.8-0.2,2.5-0.7  c0.7-0.4,1.3-1.1,1.8-2.1c0.3-0.5,0.6-1,1-1.3s0.8-0.5,1.3-0.5c0.6,0,1.1,0.2,1.5,0.7C-213.9,259.7-213.7,260.2-213.7,260.7z"/><path class="st3" d="M-230,253.1c0.5-2.3,2-3.8,4.8-4.8" id="Path-4"/></svg>