<?xml version="1.0" ?><svg id="图层_1" style="enable-background:new -239 241 32 32;" version="1.1" viewBox="-239 241 32 32" xml:space="preserve" xmlns="http://www.w3.org/2000/svg" xmlns:xlink="http://www.w3.org/1999/xlink"><style type="text/css">
	.st0{fill:#F42F42;}
	.st1{opacity:0.2038;fill:#332E0A;enable-background:new    ;}
	.st2{fill:none;stroke:#0A2933;stroke-linejoin:round;}
	.st3{fill:none;stroke:#FFFFFF;stroke-linecap:round;stroke-linejoin:round;stroke-dasharray:1,2,6,2,3;}
</style><path class="st0" d="M-218.6,264.4V264c-0.6,0.7-1.2,1.3-1.8,1.7s-1.2,0.8-1.9,1c-0.7,0.2-1.4,0.3-2.3,0.3c-1.1,0-2.1-0.2-3-0.7  c-0.9-0.5-1.7-1.1-2.4-2c-0.7-0.8-1.2-1.8-1.5-3c-0.3-1.1-0.5-2.4-0.5-3.7c0-2.8,0.7-5,2.1-6.6s3.2-2.4,5.4-2.4  c1.3,0,2.4,0.2,3.3,0.7c0.9,0.4,1.8,1.1,2.6,2.1v-6.6c0-0.9,0.2-1.6,0.6-2.1c0.4-0.5,0.9-0.7,1.6-0.7c0.7,0,1.2,0.2,1.6,0.7  c0.4,0.4,0.6,1.1,0.6,1.9v19.9c0,0.9-0.2,1.5-0.6,1.9c-0.4,0.4-0.9,0.6-1.5,0.6c-0.6,0-1.1-0.2-1.5-0.7S-218.6,265.3-218.6,264.4z   M-227.5,257.8c0,1.2,0.2,2.3,0.6,3.1s0.9,1.5,1.6,1.9c0.7,0.4,1.4,0.7,2.2,0.7c0.8,0,1.5-0.2,2.2-0.6c0.7-0.4,1.2-1,1.6-1.9  c0.4-0.9,0.6-1.9,0.6-3.2c0-1.2-0.2-2.2-0.6-3.1c-0.4-0.9-0.9-1.5-1.6-2c-0.7-0.5-1.4-0.7-2.2-0.7c-0.8,0-1.6,0.2-2.2,0.7  s-1.2,1.1-1.5,2C-227.3,255.6-227.5,256.7-227.5,257.8z"/><path class="st1" d="M-232,256.9c0.1,1,0.2,2,0.5,3c0.3,1.1,0.9,2.1,1.5,3c0.7,0.8,1.5,1.5,2.4,2  c0.9,0.5,1.9,0.7,3,0.7c0.8,0,1.6-0.1,2.3-0.3c0.7-0.2,1.3-0.6,1.9-1c0.6-0.4,1.2-1,1.8-1.7v0.4c0,0.8,0.2,1.5,0.6,1.9  s0.9,0.7,1.5,0.7c0.6,0,1.1-0.2,1.5-0.6c0.4-0.4,0.6-1.1,0.6-1.9v1.6c0,0.9-0.2,1.5-0.6,1.9c-0.4,0.4-0.9,0.6-1.5,0.6  c-0.6,0-1.1-0.2-1.5-0.7s-0.6-1.1-0.6-1.9V264c-0.6,0.7-1.2,1.3-1.8,1.7s-1.2,0.8-1.9,1c-0.7,0.2-1.4,0.3-2.3,0.3  c-1.1,0-2.1-0.2-3-0.7c-0.9-0.5-1.7-1.1-2.4-2c-0.7-0.8-1.2-1.8-1.5-3c-0.3-1.1-0.5-2.4-0.5-3.7C-232,257.4-232,257.1-232,256.9z" id="Combined-Shape"/><path class="st2" d="M-218.6,264.4V264c-0.6,0.7-1.2,1.3-1.8,1.7s-1.2,0.8-1.9,1c-0.7,0.2-1.4,0.3-2.3,0.3c-1.1,0-2.1-0.2-3-0.7  c-0.9-0.5-1.7-1.1-2.4-2c-0.7-0.8-1.2-1.8-1.5-3c-0.3-1.1-0.5-2.4-0.5-3.7c0-2.8,0.7-5,2.1-6.6s3.2-2.4,5.4-2.4  c1.3,0,2.4,0.2,3.3,0.7c0.9,0.4,1.8,1.1,2.6,2.1v-6.6c0-0.9,0.2-1.6,0.6-2.1c0.4-0.5,0.9-0.7,1.6-0.7c0.7,0,1.2,0.2,1.6,0.7  c0.4,0.4,0.6,1.1,0.6,1.9v19.9c0,0.9-0.2,1.5-0.6,1.9c-0.4,0.4-0.9,0.6-1.5,0.6c-0.6,0-1.1-0.2-1.5-0.7S-218.6,265.3-218.6,264.4z   M-227.5,257.8c0,1.2,0.2,2.3,0.6,3.1s0.9,1.5,1.6,1.9c0.7,0.4,1.4,0.7,2.2,0.7c0.8,0,1.5-0.2,2.2-0.6c0.7-0.4,1.2-1,1.6-1.9  c0.4-0.9,0.6-1.9,0.6-3.2c0-1.2-0.2-2.2-0.6-3.1c-0.4-0.9-0.9-1.5-1.6-2c-0.7-0.5-1.4-0.7-2.2-0.7c-0.8,0-1.6,0.2-2.2,0.7  s-1.2,1.1-1.5,2C-227.3,255.6-227.5,256.7-227.5,257.8z"/><path class="st3" d="M-230.3,255.8c0-2.3,1.1-4,3.4-5.2" id="Path-5"/></svg>