<?xml version="1.0" encoding="UTF-8" standalone="no"?>
<!DOCTYPE svg PUBLIC "-//W3C//DTD SVG 1.1//EN" "http://www.w3.org/Graphics/SVG/1.1/DTD/svg11.dtd">
<svg version="1.1" xmlns="http://www.w3.org/2000/svg" xmlns:xlink="http://www.w3.org/1999/xlink" preserveAspectRatio="xMidYMid meet" viewBox="303.1670625893293 233.5085714285714 56.99620402694512 60.75428571428577" width="57" height="60.75"><defs><path d="M358.97 259.84C359.04 259.7 359.02 259.5 358.86 259.41C357.55 254.99 355.25 250.9 352.21 247.43C352.21 247.29 352.16 247.15 352 247.11C351.95 247.09 351.91 247.09 351.86 247.06C349.33 244.25 346.29 241.87 342.9 240.16C340.78 238.29 338.26 236.91 335.47 236.07C330.65 234.58 325.37 234.19 320.39 233.83C314.83 233.44 309.28 233.51 303.73 233.94C303.18 233.99 303.09 234.74 303.5 234.93C303.93 252.57 304.07 270.24 303.91 287.91C303.91 288.07 304 288.27 304.16 288.34C307.06 289.62 309.81 291.25 312.32 293.19C312.3 293.44 312.46 293.74 312.8 293.78C319.18 294.51 325.58 294.38 331.91 293.44C337.44 292.62 343.04 291.2 348 288.57C348.71 288.21 349.39 287.79 350.06 287.36C350.31 287.5 350.61 287.27 350.54 287.04C353.81 284.8 356.41 281.81 358.06 278.15C358.15 278.08 358.19 277.97 358.19 277.85C358.24 277.74 358.29 277.62 358.33 277.51C360.37 272.57 360.5 266.97 359.45 261.85C359.31 261.17 359.15 260.5 358.97 259.84ZM359.06 266.7C356.09 265.05 353.17 263.31 350.33 261.49C350.35 260.71 350.35 259.93 350.35 259.15C351.82 259.98 353.23 260.85 354.65 261.71C355.91 262.49 357.3 263.79 358.81 264.05C358.86 264.34 358.88 264.64 358.93 264.94C358.99 265.53 359.04 266.1 359.06 266.7ZM356.62 262.22C355.84 261.71 355.06 261.23 354.29 260.75C352.98 259.95 351.66 259.18 350.31 258.42C350.29 257.67 350.24 256.91 350.17 256.16C352.71 257.37 355.22 258.58 357.83 259.63C358.19 260.87 358.49 262.13 358.72 263.41C357.94 263.2 357.26 262.63 356.62 262.22ZM350.1 255.47C350.01 254.58 349.87 253.67 349.69 252.8C350.17 253.01 350.81 253.46 351.06 253.6C351.73 253.94 352.39 254.26 353.07 254.58C354.17 255.09 355.31 255.54 356.43 255.98C356.89 256.91 357.26 257.9 357.6 258.9C355.06 257.85 352.59 256.66 350.1 255.47ZM352.39 253.55C351.73 253.23 351.06 252.89 350.4 252.55C350.13 252.39 349.85 252.21 349.58 252.14C349.42 251.41 349.21 250.7 349.01 249.99C350.7 250.61 352.39 251.15 354.13 251.66C354.83 252.75 355.5 253.94 356.09 255.15C354.83 254.65 353.6 254.13 352.39 253.55ZM348.75 249.26C348.46 248.41 348.11 247.57 347.75 246.77C347.79 246.79 347.84 246.81 347.91 246.81C348.87 246.86 349.81 247.02 350.7 247.29C351.73 248.39 352.69 249.58 353.58 250.86C351.95 250.38 350.35 249.85 348.75 249.26ZM347.89 246.19C347.7 246.19 347.59 246.33 347.59 246.47C347.04 245.35 346.4 244.25 345.67 243.22C345.53 243.04 345.42 242.86 345.28 242.7C346.93 243.79 348.48 245.05 349.87 246.45C349.23 246.31 348.57 246.22 347.89 246.19ZM304.5 234.88C310.83 234.42 317.21 234.47 323.54 235.09C329.53 235.66 336.32 236.23 341.26 240.05C341.49 240.21 341.69 240.39 341.9 240.57C341.92 240.71 341.99 240.82 342.15 240.89C342.24 240.94 342.33 240.98 342.42 241.05C346.13 244.5 348.16 249.42 348.94 254.38C349.87 260.37 349.21 266.93 347.45 272.71C346.31 276.46 344.32 279.84 341.44 282.51C338.67 285.07 335.18 286.81 331.59 287.91C326.86 289.35 321.94 289.55 317.05 289.19C316.89 289.07 316.73 289.01 316.55 289.01C316.46 289.01 316.37 289.05 316.3 289.14C312.53 288.8 308.78 288.16 305.12 287.47C305.05 287.41 304.98 287.41 304.91 287.43C305.07 269.92 304.94 252.39 304.5 234.88ZM313.17 292.53C311.41 291.15 309.53 289.94 307.59 288.87C308.96 289.1 310.33 289.33 311.73 289.51C313.49 290.79 315.29 291.98 317.17 293.07C315.89 293.03 314.61 292.91 313.33 292.78C313.3 292.69 313.26 292.59 313.17 292.53ZM318.19 292.98C316.41 291.98 314.67 290.88 312.98 289.69C314.45 289.87 315.91 290.01 317.39 290.13C317.55 290.26 317.69 290.4 317.78 290.47C318.29 290.83 318.79 291.18 319.29 291.52C320.21 292.14 321.14 292.69 322.1 293.21C320.87 293.21 319.59 293.19 318.33 293.14C318.31 293.07 318.26 293.03 318.19 292.98ZM323.09 293.05C321.78 292.34 320.53 291.59 319.29 290.79C318.99 290.61 318.72 290.4 318.42 290.19C319.66 290.26 320.87 290.29 322.08 290.26C322.26 290.4 322.47 290.54 322.54 290.58C322.93 290.83 323.31 291.09 323.7 291.36C324.48 291.91 325.23 292.48 325.97 293.1C325.07 293.12 324.16 293.17 323.22 293.19C323.2 293.14 323.15 293.07 323.09 293.05ZM326.61 292.75C325.69 292 324.73 291.27 323.75 290.61C323.59 290.49 323.41 290.35 323.22 290.19C323.98 290.17 324.75 290.1 325.51 290.03C326.72 291.06 328.02 291.95 329.42 292.75C328.5 292.85 327.59 292.94 326.7 293.01C326.72 292.91 326.7 292.82 326.61 292.75ZM330.17 292.48C328.8 291.75 327.52 290.9 326.33 289.94C327.25 289.83 328.16 289.69 329.07 289.51C329.3 289.67 329.51 289.9 329.65 289.99C330.13 290.33 330.61 290.65 331.11 290.97C331.82 291.43 332.55 291.82 333.3 292.18C332.32 292.37 331.31 292.5 330.31 292.64C330.29 292.57 330.24 292.53 330.17 292.48ZM334.22 291.95C333.14 291.45 332.11 290.88 331.13 290.26C330.67 289.99 330.24 289.67 329.83 289.37C330.79 289.17 331.75 288.89 332.71 288.59C334.08 289.65 335.54 290.61 337.1 291.43C336.14 291.63 335.22 291.82 334.29 292C334.26 291.98 334.24 291.95 334.22 291.95ZM337.94 291.18C336.32 290.35 334.81 289.39 333.37 288.34C334.22 288.05 335.06 287.7 335.89 287.31C337.33 288.48 338.83 289.53 340.41 290.49C339.59 290.74 338.77 290.97 337.94 291.18C337.94 291.18 337.92 291.18 337.94 291.18ZM341.19 290.26C339.54 289.3 337.97 288.23 336.48 287.04C337.1 286.72 337.71 286.4 338.33 286.03C339.77 287.38 341.33 288.59 342.97 289.65C342.58 289.78 342.15 289.94 341.74 290.08C341.55 290.15 341.37 290.19 341.19 290.26ZM339.11 285.55C339.75 285.14 340.37 284.69 340.96 284.23C342.67 285.69 344.46 287.04 346.35 288.25C345.49 288.66 344.62 289.05 343.73 289.39C341.99 288.3 340.37 287.09 338.88 285.69C338.95 285.65 339.04 285.6 339.11 285.55ZM341.44 283.82C342.03 283.31 342.58 282.79 343.11 282.22C345.21 283.61 347.25 285.1 349.23 286.65C348.5 287.11 347.75 287.52 346.99 287.91C345.05 286.67 343.18 285.33 341.44 283.82ZM343.5 281.78C343.84 281.39 344.18 280.98 344.5 280.57C346.99 281.69 349.12 283.54 351.22 285.26C350.77 285.62 350.26 285.99 349.76 286.31C347.73 284.71 345.65 283.2 343.5 281.78ZM344.89 280.09C345.33 279.47 345.76 278.83 346.15 278.17C348.64 279.84 351.11 281.53 353.62 283.13C353.03 283.75 352.39 284.34 351.73 284.89C349.55 283.15 347.41 281.28 344.89 280.09ZM354.01 282.67C351.45 281.05 348.94 279.34 346.42 277.65C346.88 276.8 347.31 275.91 347.68 275.02C350.26 276.96 352.98 278.7 355.79 280.27C355.61 280.57 355.41 280.87 355.18 281.19C354.81 281.71 354.42 282.19 354.01 282.67ZM347.91 274.42C348.05 274.03 348.21 273.65 348.32 273.26C348.41 272.96 348.5 272.66 348.59 272.37C351.34 274.29 354.06 276.34 357.07 277.81C356.8 278.47 356.46 279.11 356.11 279.73C353.26 278.15 350.54 276.37 347.91 274.42ZM348.78 271.77C349.05 270.81 349.28 269.85 349.49 268.87C352.53 270.49 355.47 272.23 358.38 274.08C358.1 275.15 357.76 276.23 357.33 277.26C354.29 275.77 351.54 273.69 348.78 271.77ZM349.6 268.25C349.78 267.25 349.94 266.19 350.06 265.17C351.2 266.31 352.66 267.06 354.03 267.89C355.68 268.87 357.3 269.85 358.95 270.83C358.86 271.7 358.7 272.57 358.51 273.46C355.61 271.59 352.64 269.85 349.6 268.25ZM354.67 267.54C353.1 266.61 351.36 265.74 350.13 264.34C350.19 263.61 350.24 262.88 350.29 262.17C353.17 264.02 356.09 265.76 359.09 267.38C359.11 268.32 359.09 269.23 358.99 270.13C357.55 269.26 356.11 268.41 354.67 267.54Z" id="d4N6euEqjU"></path><path d="M312.8 293.81C312.43 293.76 312.25 293.46 312.25 293.19C309.78 291.29 307.04 289.67 304.14 288.39C303.95 288.3 303.84 288.07 303.84 287.89C304 270.33 303.86 252.53 303.43 234.97C303.25 234.86 303.13 234.63 303.18 234.38C303.22 234.08 303.43 233.9 303.73 233.87C306.83 233.62 309.92 233.51 312.96 233.51C315.45 233.51 317.94 233.6 320.39 233.76C325.92 234.15 330.88 234.58 335.5 236C338.35 236.87 340.87 238.26 342.95 240.11C346.29 241.83 349.3 244.16 351.91 247.02C351.91 247.02 351.95 247.04 351.95 247.04C351.98 247.04 352 247.06 352.02 247.06C352.18 247.13 352.27 247.27 352.27 247.43C355.34 250.93 357.62 255.04 358.9 259.38C359.09 259.5 359.11 259.73 359.04 259.89C359.22 260.57 359.38 261.23 359.52 261.87C360.66 267.47 360.27 273.03 358.42 277.53C358.4 277.6 358.35 277.67 358.33 277.74C358.31 277.78 358.31 277.81 358.29 277.85C358.29 277.97 358.24 278.08 358.15 278.17C356.53 281.74 354.01 284.73 350.65 287.06C350.65 287.13 350.63 287.22 350.58 287.29C350.47 287.43 350.26 287.5 350.1 287.43C349.44 287.86 348.75 288.27 348.07 288.62C343.7 290.93 338.42 292.53 331.95 293.49C328.3 293.99 324.62 294.26 320.98 294.26C318.24 294.26 315.5 294.1 312.8 293.81ZM303.75 233.99C303.5 234.01 303.36 234.19 303.34 234.38C303.31 234.54 303.36 234.74 303.54 234.83C303.55 234.84 303.56 234.84 303.59 234.86C303.59 234.88 303.59 234.9 303.59 234.9C304.02 252.5 304.16 270.31 304 287.89C304 288.02 304.07 288.21 304.21 288.25C307.13 289.55 309.9 291.18 312.39 293.1C312.39 293.1 312.4 293.11 312.41 293.12C312.41 293.15 312.41 293.16 312.41 293.17C312.41 293.39 312.55 293.65 312.82 293.67C315.52 293.97 318.26 294.13 321.01 294.13C324.64 294.13 328.3 293.85 331.93 293.3C338.38 292.34 343.63 290.74 348 288.46C348.69 288.09 349.37 287.68 350.06 287.25C350.06 287.24 350.08 287.24 350.1 287.22C350.13 287.24 350.15 287.24 350.15 287.25C350.26 287.31 350.4 287.27 350.47 287.18C350.49 287.15 350.51 287.09 350.51 287.02C350.51 287.01 350.51 287 350.49 286.97C350.52 286.96 350.53 286.95 350.54 286.95C353.9 284.62 356.43 281.65 358.03 278.08C358.04 278.08 358.05 278.06 358.06 278.06C358.13 278.01 358.17 277.92 358.15 277.83C358.15 277.83 358.15 277.82 358.15 277.81C358.15 277.79 358.15 277.78 358.15 277.78C358.17 277.74 358.19 277.69 358.22 277.65C358.24 277.58 358.29 277.51 358.31 277.44C360.16 272.96 360.55 267.43 359.41 261.87C359.27 261.23 359.11 260.57 358.93 259.86C358.93 259.86 358.93 259.85 358.93 259.84C358.94 259.83 358.95 259.82 358.95 259.82C358.99 259.7 358.99 259.54 358.86 259.47C358.86 259.47 358.85 259.47 358.83 259.45C358.83 259.44 358.83 259.43 358.83 259.43C357.55 255.11 355.27 250.97 352.21 247.47C352.2 247.47 352.2 247.47 352.18 247.45C352.18 247.44 352.18 247.43 352.18 247.43C352.18 247.38 352.18 247.25 352.02 247.18C352 247.18 351.98 247.15 351.95 247.15C351.95 247.15 351.87 247.11 351.86 247.11C349.28 244.23 346.26 241.92 342.93 240.21C342.92 240.21 342.91 240.21 342.9 240.21C340.85 238.38 338.35 236.98 335.5 236.11C330.88 234.7 325.94 234.26 320.41 233.9C317.94 233.71 315.45 233.62 312.96 233.62C309.94 233.62 306.83 233.76 303.75 233.99ZM318.33 293.21C318.33 293.21 318.31 293.21 318.29 293.21C318.27 293.18 318.26 293.17 318.26 293.17C318.24 293.12 318.22 293.07 318.17 293.05C316.39 292.05 314.63 290.95 312.96 289.76C312.94 289.75 312.86 289.69 312.71 289.58C312.89 289.6 312.99 289.62 313.01 289.62C314.54 289.81 316.02 289.97 317.42 290.06C317.42 290.06 317.43 290.06 317.44 290.06C317.51 290.11 317.55 290.14 317.55 290.15C317.67 290.26 317.78 290.35 317.85 290.4C318.38 290.79 318.9 291.13 319.36 291.45C320.21 292 321.12 292.57 322.17 293.14C322.19 293.15 322.27 293.2 322.42 293.28C322.24 293.28 322.15 293.28 322.13 293.28C321.85 293.28 321.58 293.28 321.28 293.28C320.27 293.28 319.29 293.26 318.33 293.21ZM321.83 293.12C320.87 292.59 320.02 292.07 319.25 291.57C318.79 291.27 318.26 290.9 317.74 290.51C317.67 290.47 317.55 290.35 317.44 290.26C317.43 290.26 317.38 290.2 317.37 290.19C316.07 290.1 314.7 289.99 313.28 289.81C314.88 290.93 316.55 291.98 318.24 292.91C318.31 292.96 318.35 293.01 318.38 293.07C319.5 293.12 320.66 293.14 321.83 293.12ZM323.15 293.21C323.13 293.17 323.11 293.14 323.06 293.1C321.76 292.41 320.48 291.63 319.27 290.83C318.99 290.65 318.72 290.47 318.4 290.24C318.39 290.23 318.32 290.18 318.19 290.08C318.35 290.09 318.43 290.1 318.45 290.1C319.36 290.15 320.25 290.17 321.12 290.17C321.44 290.17 321.78 290.17 322.1 290.17C322.1 290.17 322.11 290.17 322.13 290.17C322.14 290.19 322.15 290.19 322.15 290.19C322.22 290.24 322.31 290.31 322.38 290.35C322.47 290.42 322.56 290.47 322.61 290.51C323.02 290.77 323.43 291.06 323.77 291.29C324.48 291.77 325.21 292.34 326.06 293.03C326.07 293.04 326.11 293.07 326.19 293.14C326.08 293.16 326.02 293.16 326.01 293.17C325.05 293.23 324.14 293.28 323.25 293.3C323.24 293.3 323.22 293.28 323.18 293.26C323.16 293.23 323.16 293.21 323.15 293.21ZM319.34 290.7C320.55 291.5 321.83 292.27 323.13 292.96C323.2 292.98 323.25 293.03 323.27 293.1C324.07 293.07 324.94 293.03 325.78 292.98C325.03 292.37 324.32 291.84 323.66 291.38C323.31 291.13 322.9 290.86 322.49 290.61C322.45 290.58 322.35 290.51 322.26 290.45C322.19 290.4 322.13 290.35 322.06 290.31C320.98 290.33 319.86 290.31 318.7 290.26C318.93 290.42 319.15 290.58 319.34 290.7ZM317.17 293.17C315.89 293.1 314.58 292.98 313.33 292.85C313.32 292.85 313.31 292.85 313.28 292.85C313.28 292.82 313.28 292.8 313.28 292.8C313.26 292.73 313.21 292.66 313.14 292.59C311.38 291.25 309.51 290.01 307.57 288.96C307.54 288.94 307.4 288.87 307.15 288.73C307.43 288.77 307.58 288.8 307.61 288.8C309.1 289.05 310.45 289.26 311.75 289.44C311.75 289.44 311.79 289.46 311.79 289.46C313.55 290.74 315.38 291.93 317.23 293.03C317.25 293.04 317.33 293.09 317.49 293.19C317.29 293.17 317.19 293.17 317.17 293.17ZM316.87 293.01C315.11 291.98 313.37 290.83 311.7 289.6C310.54 289.44 309.35 289.26 308.02 289.03C309.83 290.03 311.59 291.2 313.21 292.46C313.3 292.55 313.37 292.62 313.39 292.71C314.54 292.82 315.7 292.91 316.87 293.01ZM326.63 293.01C326.65 292.94 326.63 292.89 326.56 292.82C325.65 292.07 324.69 291.34 323.73 290.67C323.61 290.58 323.45 290.47 323.31 290.35C323.3 290.34 323.2 290.26 323.04 290.13C323.16 290.13 323.23 290.13 323.25 290.13C324 290.1 324.75 290.03 325.53 289.97C325.53 289.97 325.54 289.97 325.55 289.97C325.57 289.98 325.58 289.99 325.58 289.99C326.79 291.02 328.11 291.93 329.49 292.69C329.5 292.69 329.57 292.73 329.69 292.8C329.55 292.81 329.48 292.82 329.46 292.82C328.55 292.94 327.63 293.01 326.74 293.07C326.73 293.08 326.69 293.08 326.61 293.1C326.62 293.04 326.63 293.01 326.63 293.01ZM323.79 290.54C324.78 291.2 325.74 291.93 326.65 292.69C326.72 292.75 326.77 292.82 326.79 292.91C327.59 292.85 328.39 292.78 329.19 292.69C327.89 291.93 326.65 291.06 325.49 290.1C324.78 290.19 324.09 290.24 323.43 290.26C323.57 290.38 323.68 290.47 323.79 290.54ZM330.24 292.66C330.22 292.62 330.19 292.57 330.15 292.55C328.8 291.82 327.5 290.97 326.29 290.01C326.28 290 326.23 289.97 326.15 289.9C326.26 289.88 326.32 289.88 326.33 289.87C327.25 289.76 328.16 289.62 329.07 289.44C329.08 289.44 329.08 289.44 329.1 289.44C329.11 289.45 329.12 289.46 329.12 289.46C329.23 289.55 329.37 289.67 329.46 289.76C329.55 289.83 329.62 289.9 329.69 289.94C330.19 290.31 330.72 290.65 331.15 290.93C331.79 291.34 332.53 291.73 333.35 292.14C333.36 292.14 333.43 292.17 333.55 292.23C333.42 292.26 333.34 292.27 333.33 292.27C332.32 292.46 331.31 292.59 330.33 292.73C330.33 292.73 330.3 292.73 330.26 292.73C330.25 292.69 330.24 292.67 330.24 292.66ZM330.22 292.43C330.29 292.48 330.33 292.53 330.35 292.57C331.25 292.46 332.16 292.32 333.05 292.16C332.3 291.79 331.66 291.43 331.06 291.04C330.63 290.77 330.1 290.42 329.6 290.06C329.53 290.01 329.46 289.94 329.37 289.87C329.28 289.78 329.17 289.69 329.05 289.6C328.23 289.76 327.38 289.9 326.54 290.01C327.68 290.93 328.94 291.73 330.22 292.43ZM334.24 292.07C334.22 292.05 334.19 292.05 334.17 292.02C333.1 291.52 332.07 290.95 331.06 290.33C330.58 290.03 330.13 289.71 329.74 289.44C329.73 289.43 329.68 289.4 329.6 289.35C329.7 289.32 329.75 289.31 329.76 289.3C330.74 289.1 331.7 288.82 332.62 288.53C332.62 288.52 332.64 288.52 332.66 288.5C332.68 288.52 332.68 288.52 332.69 288.53C334.06 289.58 335.54 290.54 337.05 291.36C337.06 291.37 337.12 291.4 337.23 291.45C337.12 291.48 337.06 291.49 337.05 291.5C336.14 291.73 335.2 291.91 334.29 292.09C334.28 292.09 334.28 292.09 334.26 292.09C334.25 292.08 334.24 292.07 334.24 292.07ZM331.15 290.19C332.14 290.81 333.19 291.38 334.24 291.89C334.26 291.89 334.29 291.91 334.31 291.93C335.15 291.77 336 291.59 336.85 291.38C335.41 290.61 333.99 289.69 332.66 288.66C331.79 288.94 330.9 289.19 329.99 289.39C330.33 289.65 330.74 289.92 331.15 290.19ZM337.9 291.25L337.92 291.18C337.89 291.22 337.88 291.24 337.87 291.25C336.27 290.42 334.74 289.49 333.33 288.41C333.32 288.41 333.28 288.37 333.21 288.32C333.29 288.29 333.34 288.28 333.35 288.27C334.19 287.98 335.04 287.63 335.86 287.25C335.87 287.24 335.88 287.24 335.91 287.22C335.94 287.24 335.95 287.24 335.95 287.25C337.39 288.41 338.9 289.49 340.48 290.42C340.49 290.43 340.53 290.46 340.62 290.51C340.52 290.54 340.47 290.56 340.46 290.56C339.61 290.81 338.79 291.04 337.99 291.25C337.98 291.25 337.96 291.25 337.92 291.27L337.9 291.25ZM337.94 291.11C337.94 291.11 337.94 291.11 337.94 291.11C338.67 290.93 339.45 290.7 340.21 290.47C338.7 289.55 337.23 288.53 335.86 287.41C335.11 287.77 334.31 288.09 333.53 288.37C334.93 289.39 336.41 290.31 337.94 291.11ZM341.17 290.31C339.52 289.35 337.92 288.25 336.46 287.09C336.45 287.08 336.42 287.06 336.37 287.02C336.43 286.99 336.47 286.97 336.48 286.97C337.1 286.67 337.71 286.33 338.33 285.97C338.33 285.96 338.35 285.96 338.38 285.94C338.4 285.97 338.42 285.99 338.42 285.99C339.84 287.34 341.42 288.55 343.06 289.6C343.07 289.61 343.12 289.64 343.2 289.69C343.12 289.72 343.07 289.73 343.06 289.74C342.58 289.92 342.19 290.06 341.81 290.17C341.67 290.22 341.53 290.26 341.39 290.31C341.38 290.31 341.31 290.32 341.19 290.33C341.17 290.32 341.17 290.31 341.17 290.31ZM341.21 290.17C341.22 290.17 341.31 290.13 341.33 290.13C341.46 290.08 341.6 290.03 341.74 289.99C342.08 289.87 342.45 289.76 342.83 289.6C341.23 288.57 339.73 287.41 338.35 286.1C337.78 286.45 337.21 286.74 336.64 287.04C338.08 288.18 339.61 289.23 341.21 290.17ZM343.68 289.42C341.94 288.37 340.32 287.11 338.83 285.74C338.83 285.73 338.81 285.71 338.77 285.67C338.88 285.6 338.94 285.56 338.95 285.55C338.99 285.53 339.04 285.51 339.09 285.46C339.7 285.07 340.32 284.62 340.91 284.14C340.92 284.13 340.93 284.12 340.96 284.09C340.99 284.12 341 284.13 341.01 284.14C342.7 285.6 344.53 286.95 346.4 288.14C346.41 288.14 346.45 288.16 346.51 288.21C346.45 288.25 346.41 288.27 346.4 288.27C345.55 288.69 344.66 289.07 343.75 289.42C343.75 289.42 343.73 289.43 343.7 289.44C343.69 289.43 343.68 289.42 343.68 289.42ZM343.73 289.28C344.57 288.96 345.39 288.59 346.19 288.21C344.37 287.04 342.61 285.71 340.96 284.3C340.37 284.78 339.77 285.21 339.15 285.6C339.11 285.65 339.06 285.67 339.02 285.69C339.02 285.69 339.02 285.69 339.02 285.69C341.04 287.38 342.61 288.58 343.73 289.28ZM317.05 289.23C317.05 289.23 317.04 289.23 317.03 289.23C317.01 289.22 317.01 289.21 317.01 289.21C316.85 289.1 316.69 289.03 316.55 289.03C316.55 289.02 316.55 289 316.55 288.96C316.55 289 316.55 289.02 316.55 289.03C316.48 289.03 316.41 289.07 316.37 289.12C316.36 289.12 316.36 289.14 316.34 289.17C316.32 289.17 316.3 289.17 316.3 289.17C312.43 288.82 308.5 288.14 305.12 287.5C305.05 287.47 305.01 287.5 304.94 287.5C304.93 287.5 304.9 287.51 304.85 287.52C304.85 287.47 304.85 287.43 304.85 287.43C305.01 269.99 304.87 252.32 304.43 234.88C304.43 234.88 304.43 234.85 304.43 234.81C304.48 234.81 304.5 234.81 304.5 234.81C307.27 234.61 310.08 234.51 312.87 234.51C316.43 234.51 320.02 234.67 323.57 235.02C323.59 235.02 323.81 235.04 323.84 235.04C329.76 235.59 336.46 236.23 341.3 239.98C341.51 240.14 341.71 240.3 341.94 240.5C341.94 240.5 341.95 240.51 341.97 240.53C341.97 240.54 341.97 240.55 341.97 240.55C341.99 240.66 342.06 240.75 342.17 240.82C342.24 240.85 342.29 240.89 342.33 240.91C342.35 240.92 342.45 240.98 342.47 240.98C346.77 244.98 348.39 250.45 349.01 254.35C349.92 260.09 349.37 266.61 347.5 272.71C346.29 276.64 344.27 279.95 341.46 282.56C338.9 284.91 335.59 286.74 331.59 287.98C328.46 288.91 325.03 289.39 321.17 289.39C319.86 289.39 318.49 289.35 317.05 289.23ZM321.19 289.23C325.03 289.23 328.43 288.75 331.59 287.79C335.57 286.58 338.88 284.78 341.42 282.42C344.18 279.86 346.19 276.57 347.41 272.64C349.26 266.54 349.81 260.05 348.89 254.35C348.27 250.49 346.65 245.05 342.4 241.1C342.39 241.09 342.3 241.06 342.29 241.05C342.24 241.03 342.17 240.98 342.13 240.96C341.94 240.87 341.85 240.71 341.83 240.59C341.6 240.41 341.39 240.23 341.21 240.09C336.39 236.37 329.71 235.73 323.82 235.18C323.79 235.17 323.57 235.16 323.54 235.15C320 234.81 316.41 234.65 312.87 234.65C310.13 234.65 307.34 234.74 304.59 234.95C305.01 252.32 305.14 269.94 305.01 287.34C305.05 287.34 305.1 287.34 305.17 287.34C308.53 287.95 312.46 288.66 316.3 289.01C316.37 288.91 316.48 288.87 316.57 288.87C316.57 288.87 316.57 288.87 316.57 288.87C316.78 288.87 316.96 288.98 317.1 289.07C318.51 289.19 319.89 289.23 321.19 289.23ZM346.95 287.98C345.01 286.74 343.13 285.37 341.37 283.89C341.37 283.88 341.34 283.86 341.3 283.82C341.34 283.78 341.37 283.75 341.37 283.75C341.97 283.25 342.51 282.72 343.04 282.17C343.04 282.17 343.06 282.15 343.09 282.13C343.11 282.15 343.13 282.17 343.13 282.17C345.21 283.57 347.29 285.05 349.26 286.61C349.26 286.61 349.29 286.63 349.35 286.67C349.29 286.72 349.26 286.74 349.26 286.74C348.57 287.18 347.82 287.61 347.02 288C347.02 288 347.01 288 346.99 288C346.97 287.99 346.95 287.98 346.95 287.98ZM346.99 287.82C347.75 287.43 348.46 287.04 349.1 286.63C347.15 285.12 345.14 283.66 343.11 282.31C342.63 282.83 342.1 283.34 341.55 283.82C343.27 285.28 345.1 286.63 346.99 287.82ZM349.71 286.38C347.68 284.78 345.58 283.27 343.45 281.85C343.45 281.85 343.42 281.83 343.38 281.81C343.42 281.76 343.45 281.74 343.45 281.74C343.82 281.33 344.14 280.94 344.46 280.55C344.46 280.55 344.48 280.53 344.5 280.5C344.53 280.52 344.55 280.52 344.55 280.53C346.74 281.51 348.64 283.06 350.49 284.57C350.77 284.8 351.02 285.01 351.29 285.21C351.3 285.22 351.32 285.24 351.36 285.28C351.32 285.32 351.3 285.34 351.29 285.35C350.83 285.69 350.35 286.06 349.83 286.4C349.82 286.4 349.8 286.4 349.76 286.4C349.73 286.39 349.72 286.38 349.71 286.38ZM349.78 286.22C350.26 285.9 350.7 285.58 351.13 285.26C350.88 285.05 350.65 284.87 350.4 284.66C348.57 283.18 346.7 281.62 344.55 280.66C344.25 281.03 343.95 281.37 343.63 281.76C345.71 283.15 347.79 284.66 349.78 286.22ZM351.68 284.94C351.41 284.71 351.13 284.5 350.88 284.27C349.01 282.74 347.06 281.17 344.87 280.14C344.86 280.13 344.83 280.12 344.78 280.09C344.8 280.05 344.82 280.03 344.82 280.02C345.28 279.41 345.69 278.77 346.06 278.13C346.06 278.12 346.08 278.1 346.1 278.06C346.14 278.08 346.17 278.1 346.17 278.1C346.7 278.47 347.22 278.81 347.77 279.18C349.69 280.46 351.68 281.81 353.67 283.06C353.67 283.07 353.7 283.08 353.74 283.11C353.7 283.15 353.67 283.17 353.67 283.18C353.1 283.79 352.46 284.39 351.77 284.94C351.77 284.94 351.75 284.96 351.73 284.98C351.7 284.96 351.68 284.94 351.68 284.94ZM350.95 284.16C351.2 284.37 351.45 284.57 351.7 284.78C352.34 284.25 352.94 283.7 353.46 283.13C351.5 281.9 349.55 280.57 347.66 279.29C347.15 278.95 346.65 278.61 346.13 278.26C345.81 278.88 345.42 279.47 344.98 280.05C347.18 281.07 349.1 282.65 350.95 284.16ZM353.99 282.72C351.95 281.44 349.94 280.09 348 278.79C347.47 278.42 346.93 278.06 346.4 277.71C346.4 277.71 346.37 277.7 346.33 277.67C346.35 277.63 346.35 277.6 346.35 277.6C346.83 276.75 347.25 275.86 347.61 274.97C347.61 274.97 347.63 274.93 347.66 274.88C347.7 274.92 347.72 274.94 347.73 274.95C350.29 276.87 353.03 278.63 355.84 280.18C355.84 280.19 355.87 280.2 355.91 280.23C355.88 280.27 355.87 280.29 355.86 280.3C355.66 280.62 355.45 280.94 355.25 281.23C354.9 281.74 354.49 282.24 354.08 282.72C354.08 282.72 354.06 282.74 354.03 282.77C354.01 282.74 353.99 282.72 353.99 282.72ZM348.07 278.67C349.99 279.98 352 281.33 353.99 282.58C354.4 282.13 354.77 281.65 355.11 281.17C355.29 280.89 355.5 280.59 355.68 280.32C352.91 278.79 350.24 277.05 347.7 275.15C347.36 275.98 346.97 276.8 346.51 277.62C347.04 277.97 347.54 278.31 348.07 278.67ZM356.07 279.79C353.21 278.22 350.47 276.43 347.86 274.47C347.86 274.47 347.84 274.46 347.82 274.45C347.83 274.42 347.84 274.4 347.84 274.4C348 273.97 348.14 273.6 348.25 273.23C348.34 272.94 348.43 272.64 348.53 272.34C348.53 272.34 348.53 272.31 348.55 272.25C348.6 272.29 348.63 272.32 348.64 272.32C349.03 272.59 349.39 272.85 349.78 273.12C352.11 274.77 354.51 276.48 357.12 277.74C357.12 277.74 357.15 277.75 357.19 277.76C357.17 277.8 357.17 277.82 357.17 277.83C356.87 278.51 356.53 279.15 356.18 279.75C356.18 279.75 356.16 279.79 356.14 279.84C356.1 279.81 356.07 279.8 356.07 279.79ZM356.07 279.63C356.39 279.09 356.69 278.49 356.98 277.85C354.4 276.59 352.02 274.88 349.69 273.26C349.35 273.01 348.98 272.75 348.64 272.5C348.55 272.78 348.48 273.03 348.39 273.3C348.27 273.62 348.16 273.99 348 274.4C350.56 276.32 353.28 278.08 356.07 279.63ZM357.3 277.33C354.72 276.07 352.32 274.35 350.01 272.71C349.6 272.41 349.17 272.11 348.75 271.82C348.75 271.82 348.74 271.81 348.71 271.79C348.72 271.77 348.73 271.75 348.73 271.75C349.01 270.81 349.23 269.83 349.44 268.85C349.44 268.84 349.45 268.81 349.46 268.75C349.52 268.78 349.55 268.8 349.55 268.8C352.57 270.42 355.57 272.16 358.45 274.03C358.45 274.04 358.46 274.04 358.49 274.06C358.48 274.08 358.47 274.1 358.47 274.1C358.19 275.22 357.85 276.3 357.42 277.3C357.41 277.31 357.4 277.33 357.37 277.37C357.33 277.34 357.31 277.33 357.3 277.33ZM350.08 272.59C352.37 274.22 354.74 275.91 357.28 277.17C357.67 276.21 358.01 275.18 358.26 274.13C355.43 272.3 352.5 270.58 349.53 268.98C349.35 269.92 349.12 270.83 348.87 271.73C349.28 272 349.69 272.3 350.08 272.59ZM358.47 273.51C355.59 271.66 352.59 269.9 349.55 268.3C349.55 268.3 349.54 268.29 349.51 268.27C349.51 268.25 349.51 268.23 349.51 268.23C349.69 267.22 349.85 266.19 349.97 265.17C349.97 265.16 349.97 265.1 349.99 265.01C350.06 265.07 350.1 265.11 350.1 265.12C351.04 266.06 352.23 266.74 353.35 267.41C353.6 267.54 353.83 267.68 354.06 267.82C354.39 268.02 356.03 269.01 358.99 270.79C358.99 270.82 358.99 270.83 358.99 270.83C358.9 271.73 358.74 272.62 358.56 273.49C358.56 273.49 358.56 273.52 358.56 273.58C358.51 273.54 358.47 273.51 358.47 273.51ZM358.47 273.33C358.65 272.53 358.79 271.68 358.88 270.83C358.39 270.54 354.5 268.22 354.01 267.93C353.78 267.79 353.53 267.66 353.3 267.52C352.21 266.88 351.06 266.22 350.13 265.33C350.01 266.29 349.85 267.27 349.69 268.18C352.66 269.76 355.61 271.5 358.47 273.33ZM354.65 267.61C354.35 267.43 354.08 267.27 353.78 267.11C352.46 266.35 351.11 265.55 350.1 264.41C350.1 264.41 350.09 264.4 350.08 264.39C350.08 264.37 350.08 264.37 350.08 264.37C350.15 263.66 350.19 262.93 350.24 262.19C350.24 262.19 350.24 262.14 350.24 262.06C350.31 262.1 350.35 262.12 350.35 262.13C353.21 263.95 356.16 265.71 359.13 267.34C359.13 267.34 359.15 267.35 359.18 267.36C359.18 267.39 359.18 267.4 359.18 267.41C359.2 268.34 359.18 269.26 359.09 270.15C359.08 270.16 359.08 270.19 359.06 270.26C356.42 268.67 354.95 267.79 354.65 267.61ZM353.85 266.97C354.15 267.13 354.45 267.31 354.72 267.47C355.14 267.73 358.51 269.74 358.93 269.99C358.99 269.14 359.02 268.3 358.99 267.43C356.07 265.83 353.17 264.11 350.35 262.31C350.33 262.99 350.29 263.66 350.22 264.34C351.22 265.46 352.55 266.24 353.85 266.97ZM359.04 266.77C356.07 265.14 353.14 263.38 350.29 261.55C350.28 261.55 350.27 261.55 350.24 261.53C350.24 261.5 350.24 261.49 350.24 261.49C350.26 260.71 350.26 259.93 350.26 259.15C350.26 259.15 350.26 259.1 350.26 259.02C350.33 259.06 350.37 259.08 350.38 259.09C351.79 259.89 353.26 260.75 354.7 261.65C355.04 261.85 355.41 262.1 355.77 262.38C356.75 263.06 357.76 263.79 358.83 263.98C358.84 263.98 358.85 263.98 358.88 263.98C358.88 264 358.88 264.02 358.88 264.02C358.93 264.34 358.97 264.62 358.99 264.91C359.06 265.49 359.11 266.08 359.13 266.67C359.13 266.68 359.14 266.74 359.15 266.83C359.09 266.79 359.05 266.77 359.04 266.77ZM358.97 266.56C358.95 266.01 358.9 265.46 358.83 264.94C358.81 264.66 358.77 264.39 358.72 264.11C357.62 263.91 356.62 263.2 355.66 262.49C355.29 262.22 354.93 261.99 354.58 261.76C353.19 260.89 351.77 260.05 350.4 259.27C350.42 260 350.42 260.73 350.4 261.44C353.19 263.25 356.07 264.96 358.97 266.56ZM358.7 263.47C358.08 263.31 357.55 262.95 357.03 262.58C356.87 262.47 356.73 262.38 356.57 262.29C355.89 261.85 355.15 261.39 354.24 260.82C352.98 260.05 351.68 259.29 350.29 258.49C350.28 258.49 350.27 258.48 350.24 258.47C350.24 258.44 350.24 258.43 350.24 258.42C350.22 257.71 350.17 256.98 350.1 256.18C350.1 256.17 350.09 256.13 350.08 256.05C350.15 256.09 350.19 256.11 350.19 256.11C352.66 257.3 355.2 258.51 357.85 259.57C357.85 259.57 357.86 259.57 357.87 259.59C357.87 259.62 357.87 259.63 357.87 259.63C358.24 260.89 358.54 262.15 358.77 263.41C358.77 263.41 358.78 263.44 358.81 263.5C358.74 263.48 358.7 263.48 358.7 263.47ZM354.31 260.69C355.22 261.23 355.95 261.71 356.64 262.15C356.8 262.24 356.94 262.35 357.1 262.47C357.58 262.79 358.08 263.13 358.61 263.29C358.4 262.08 358.13 260.87 357.76 259.68C355.18 258.63 352.66 257.44 350.24 256.27C350.33 257.03 350.35 257.71 350.38 258.38C351.77 259.18 353.07 259.93 354.31 260.69ZM357.55 258.95C355.15 257.97 352.78 256.82 350.47 255.73C350.44 255.71 350.29 255.64 350.03 255.52C350.03 255.49 350.03 255.48 350.03 255.47C349.94 254.58 349.81 253.69 349.62 252.8C349.62 252.79 349.61 252.75 349.6 252.66C349.68 252.69 349.73 252.71 349.74 252.71C350.06 252.85 350.45 253.07 350.74 253.28C350.9 253.37 351.04 253.46 351.11 253.51C351.68 253.81 352.3 254.1 353.12 254.47C354.13 254.93 355.22 255.38 356.48 255.86C356.48 255.86 356.49 255.86 356.5 255.86C356.52 255.88 356.52 255.88 356.53 255.89C356.96 256.85 357.35 257.85 357.67 258.83C357.67 258.85 357.69 258.91 357.71 259.02C357.62 258.98 357.56 258.95 357.55 258.95ZM350.54 255.61C352.8 256.69 355.11 257.81 357.46 258.77C357.14 257.85 356.8 256.91 356.39 256.02C355.13 255.54 354.03 255.09 353.05 254.63C352.23 254.24 351.61 253.94 351.04 253.65C350.95 253.6 350.81 253.51 350.65 253.42C350.4 253.26 350.08 253.05 349.81 252.91C349.97 253.76 350.08 254.58 350.17 255.43C350.24 255.47 350.5 255.59 350.54 255.61ZM356.05 255.22C354.77 254.72 353.53 254.17 352.34 253.62C351.75 253.35 351.15 253.03 350.35 252.62C350.26 252.57 350.19 252.53 350.1 252.48C349.92 252.37 349.74 252.25 349.53 252.21C349.53 252.21 349.51 252.21 349.49 252.21C349.49 252.18 349.49 252.16 349.49 252.16C349.33 251.45 349.14 250.74 348.91 250.03C348.91 250.03 348.9 249.98 348.87 249.9C348.95 249.92 349 249.94 349.01 249.94C350.79 250.61 352.48 251.13 354.13 251.59C354.13 251.59 354.13 251.59 354.15 251.59C354.16 251.6 354.17 251.61 354.17 251.61C354.9 252.75 355.59 253.94 356.16 255.15C356.16 255.16 356.19 255.21 356.23 255.29C356.12 255.25 356.06 255.23 356.05 255.22ZM350.19 252.32C350.26 252.37 350.35 252.41 350.45 252.46C351.25 252.87 351.86 253.19 352.43 253.46C353.55 254.01 354.74 254.51 355.95 254.99C355.41 253.87 354.77 252.75 354.08 251.68C352.48 251.22 350.86 250.7 349.12 250.08C349.3 250.74 349.46 251.41 349.62 252.05C349.83 252.09 350.01 252.21 350.19 252.32ZM353.55 250.9C351.98 250.45 350.35 249.9 348.73 249.3C348.73 249.3 348.72 249.29 348.71 249.28C348.69 249.27 348.69 249.26 348.69 249.26C348.39 248.41 348.05 247.59 347.68 246.77C347.67 246.74 347.56 246.52 347.54 246.49C346.97 245.35 346.33 244.25 345.65 243.27C345.51 243.09 345.39 242.9 345.26 242.74C345.24 242.72 345.15 242.6 344.98 242.38C345.22 242.53 345.35 242.61 345.37 242.63C347.02 243.73 348.55 244.98 349.97 246.38C349.98 246.39 350.04 246.45 350.15 246.56C350 246.53 349.91 246.52 349.9 246.51C349.26 246.38 348.59 246.29 347.93 246.26C347.93 246.26 347.93 246.26 347.93 246.26C347.77 246.26 347.73 246.38 347.73 246.47C347.73 246.48 347.73 246.52 347.73 246.61C347.79 246.65 347.83 246.67 347.84 246.67C347.89 246.7 347.91 246.72 347.95 246.72C348.89 246.77 349.85 246.93 350.77 247.2C350.77 247.2 350.77 247.2 350.79 247.2C350.8 247.21 350.81 247.22 350.81 247.22C351.86 248.34 352.85 249.55 353.71 250.81C353.72 250.82 353.73 250.88 353.76 250.97C353.64 250.93 353.57 250.91 353.55 250.9ZM353.37 250.72C352.55 249.53 351.61 248.41 350.63 247.36C349.74 247.09 348.8 246.95 347.86 246.9C347.86 246.9 347.86 246.9 347.84 246.9C348.21 247.63 348.53 248.41 348.8 249.19C350.33 249.76 351.89 250.26 353.37 250.72ZM347.86 246.13C348.48 246.15 349.05 246.22 349.65 246.33C348.39 245.12 347.04 244 345.62 243.02C345.67 243.09 345.71 243.13 345.76 243.2C346.45 244.16 347.04 245.19 347.59 246.29C347.63 246.19 347.73 246.13 347.86 246.13C347.86 246.13 347.86 246.13 347.86 246.13Z" id="j1hceoggvH"></path><path d="M331.22 249.33C327.45 246.54 322.54 245.49 318.01 246.7C317.94 246.65 317.9 246.63 317.83 246.58C317.46 246.35 317.12 246.65 317.07 246.99C316.71 247.22 316.82 247.82 317.19 247.91C317.17 253.1 317.12 258.29 317.1 263.45C317.03 263.54 317.01 263.66 317.07 263.77C317.07 263.77 317.1 263.79 317.1 263.79C317.09 264.95 317.04 274.2 317.03 275.36C317.03 275.57 317.19 275.82 317.39 275.84C322.45 276.78 328.09 277.6 332.46 274.29C336.27 271.45 337.9 266.49 337.69 261.9C337.49 257.07 335.11 252.23 331.22 249.33ZM330.86 250.33C331.57 250.86 332.23 251.47 332.8 252.16C332.18 251.52 331.54 250.9 330.86 250.33ZM332.48 252.69C331.73 252.57 330.97 252.5 330.22 252.48C328.62 251.22 327.02 249.99 325.42 248.73C325.24 248.59 323.79 247.46 323.61 247.31C324.87 247.47 326.1 247.82 327.29 248.27C329.17 249.58 330.9 251.04 332.48 252.69ZM322.49 247.27C322.51 247.22 327.13 250.83 329.26 252.5C328.53 252.53 327.79 252.57 327.09 252.69C326.72 252.14 326.1 251.77 325.55 251.43C323.45 250.1 321.35 248.8 319.25 247.47C320.16 247.27 321.1 247.2 322.06 247.22C322.15 247.38 322.35 247.45 322.49 247.27ZM324.02 251.63C325.17 252.34 326.4 252.8 326.42 254.31C326.42 254.81 326.42 255.29 326.42 255.79C323.68 253.92 320.96 252.05 318.22 250.17C318.22 249.46 318.22 248.73 318.22 248C320.16 249.21 322.08 250.42 324.02 251.63ZM326.38 256.53C326.35 257.19 326.33 257.85 326.31 258.51C323.66 256.85 320.94 255.29 318.17 253.78C318.19 252.82 318.19 251.86 318.19 250.9C320.91 252.78 323.66 254.65 326.38 256.53ZM326.31 259.2C326.29 260.3 326.26 261.37 326.24 262.47C323.68 260.5 320.98 258.7 318.17 257.1C318.17 256.92 318.17 256.05 318.17 254.47C321.83 256.51 324.54 258.09 326.31 259.2ZM326.24 263.25C326.22 264 326.22 264.78 326.19 265.53C323.52 263.75 320.85 261.97 318.17 260.16C318.15 259.36 318.15 258.58 318.17 257.81C320.98 259.43 323.68 261.23 326.24 263.25ZM326.17 266.24C326.15 266.97 326.15 267.73 326.13 268.46C324.71 267.63 323.29 266.83 321.87 266.01C321.19 265.62 320.53 265.23 319.84 264.85C319.45 264.62 318.67 264.32 318.15 263.95C318.13 262.93 318.13 261.92 318.15 260.89C320.82 262.67 323.5 264.46 326.17 266.24ZM318.51 264.78C318.75 264.91 320.65 266.01 320.89 266.15C322.58 267.13 324.3 268.11 325.99 269.07C326.03 269.1 326.08 269.12 326.1 269.12C326.08 269.81 326.08 270.49 326.06 271.18C323.45 269.6 320.8 268.11 318.13 266.72C318.1 266.01 318.13 265.3 318.13 264.57C318.26 264.64 318.38 264.71 318.51 264.78ZM326.03 271.89C326.01 272.75 325.99 273.62 325.99 274.47C323.52 272.78 320.98 271.2 318.35 269.76C318.26 269.71 318.17 269.71 318.1 269.74C318.1 268.96 318.1 268.18 318.1 267.41C320.8 268.82 323.43 270.31 326.03 271.89ZM318.08 272.8C318.67 273.17 319.25 273.58 319.82 273.97C320.82 274.61 321.87 275.15 322.97 275.63C321.3 275.52 319.63 275.25 318.06 274.95C318.06 274.24 318.06 273.51 318.08 272.8ZM323.34 275.66C323.54 275.54 323.61 275.25 323.36 275.15C322.35 274.72 321.39 274.22 320.43 273.65C319.63 273.17 318.9 272.57 318.08 272.11C318.08 271.52 318.08 270.93 318.08 270.33C320.8 271.84 323.45 273.49 326.03 275.27C326.26 275.63 326.97 275.54 326.97 274.99C327.11 269.01 327.22 263.02 327.36 257.01C327.38 255.91 327.5 254.74 327.36 253.65C329.58 253.35 331.79 253.49 333.99 254.03C334.06 254.06 334.13 254.06 334.19 254.06C335.61 256.32 336.46 258.97 336.66 261.6C337.03 265.92 335.47 270.49 332.11 273.33C329.65 275.43 326.49 275.84 323.34 275.66Z" id="ane0NiCDd"></path><path d="M324.5 276.78C322.08 276.78 319.57 276.34 317.42 275.95C317.14 275.91 316.98 275.63 316.98 275.38C316.99 274.23 317.04 264.99 317.05 263.84C317.05 263.84 317.05 263.84 317.05 263.82C316.98 263.7 316.98 263.57 317.05 263.45C317.06 261.9 317.13 249.52 317.14 247.98C316.96 247.91 316.85 247.73 316.8 247.52C316.75 247.29 316.85 247.09 317.01 246.95C317.05 246.65 317.28 246.42 317.55 246.42C317.65 246.42 317.76 246.45 317.85 246.51C317.87 246.52 318 246.6 318.01 246.61C319.25 246.29 320.53 246.13 321.81 246.13C325.17 246.13 328.53 247.25 331.25 249.28C335.04 252.09 337.53 256.94 337.76 261.92C337.99 267.02 335.98 271.79 332.53 274.4C330.4 275.98 327.77 276.78 324.5 276.78C324.5 276.78 324.5 276.78 324.5 276.78ZM317.17 246.99C317.17 247 317.17 247.01 317.17 247.04C317.15 247.05 317.14 247.06 317.14 247.06C316.98 247.18 316.94 247.36 316.96 247.5C316.98 247.68 317.1 247.82 317.23 247.84C317.24 247.84 317.25 247.85 317.28 247.86L317.28 247.93L317.19 263.5C317.17 263.51 317.17 263.52 317.17 263.52C317.12 263.57 317.1 263.66 317.14 263.75C317.14 263.75 317.17 263.77 317.17 263.77C317.17 263.77 317.17 263.78 317.17 263.79L317.17 263.82C317.12 270.76 317.1 274.61 317.1 275.38C317.1 275.54 317.23 275.77 317.42 275.79C319.57 276.21 322.08 276.62 324.48 276.62C324.48 276.62 324.48 276.62 324.48 276.62C327.73 276.62 330.31 275.84 332.41 274.24C335.82 271.66 337.81 266.93 337.58 261.9C337.35 256.96 334.88 252.16 331.13 249.37C328.43 247.36 325.1 246.26 321.78 246.26C320.5 246.26 319.22 246.42 317.99 246.77C317.99 246.77 317.98 246.77 317.97 246.77C317.84 246.68 317.77 246.64 317.76 246.63C317.71 246.58 317.65 246.56 317.58 246.56C317.35 246.56 317.19 246.79 317.17 246.99ZM323.38 275.75C323.38 275.75 323.38 275.75 323.38 275.75L323.04 275.73L323.04 275.73C322.99 275.73 322.95 275.73 322.95 275.73C321.28 275.61 319.59 275.31 318.03 275.04C318.03 275.04 318.01 275.03 317.97 275.02L317.99 272.66C318.06 272.7 318.1 272.73 318.1 272.73C318.45 272.94 318.79 273.19 319.11 273.39C319.36 273.55 319.59 273.74 319.84 273.9C320.75 274.49 321.78 275.04 322.97 275.57C322.98 275.57 323.04 275.6 323.15 275.66C323.22 275.63 323.26 275.61 323.27 275.61C323.36 275.57 323.41 275.47 323.41 275.38C323.41 275.31 323.36 275.27 323.29 275.25C322.29 274.81 321.3 274.29 320.37 273.71C320 273.49 319.63 273.23 319.27 273.01C318.86 272.73 318.45 272.43 318.01 272.18C318.01 272.18 317.99 272.17 317.97 272.16L317.97 270.19C318.03 270.24 318.07 270.26 318.08 270.26C320.8 271.77 323.47 273.42 326.03 275.2C326.04 275.2 326.05 275.22 326.06 275.22C326.13 275.34 326.26 275.41 326.42 275.41C326.63 275.41 326.86 275.27 326.86 274.99C326.9 273.2 327.21 258.8 327.25 257.01C327.25 256.71 327.27 256.41 327.27 256.11C327.31 255.29 327.34 254.47 327.25 253.65C327.25 253.64 327.25 253.62 327.25 253.58C327.29 253.58 327.31 253.58 327.31 253.58C329.53 253.28 331.77 253.42 333.97 253.97C334.03 253.99 334.08 253.99 334.13 253.97C334.13 253.97 334.14 253.97 334.17 253.97C334.19 253.99 334.19 254.01 334.19 254.01C335.59 256.25 336.46 258.88 336.69 261.6C337.05 266.17 335.31 270.72 332.11 273.42C330.24 274.99 327.77 275.79 324.59 275.79C324.21 275.79 323.79 275.77 323.38 275.75ZM326.45 275.54C326.26 275.54 326.1 275.45 326.01 275.31C323.5 273.58 320.87 271.93 318.19 270.45C318.19 270.61 318.19 271.91 318.19 272.07C318.63 272.32 319.04 272.59 319.43 272.87C319.77 273.12 320.14 273.35 320.5 273.58C321.44 274.15 322.42 274.65 323.41 275.09C323.52 275.13 323.61 275.25 323.61 275.36C323.59 275.45 323.57 275.54 323.52 275.61C324.57 275.66 325.53 275.63 326.45 275.54ZM322.56 275.54C321.51 275.06 320.62 274.56 319.79 274.03C319.54 273.87 319.31 273.71 319.06 273.53C318.77 273.33 318.47 273.12 318.17 272.94C318.17 273.07 318.16 273.72 318.15 274.9C320.08 275.24 321.55 275.45 322.56 275.54ZM327.47 256.09C327.45 256.39 327.45 256.69 327.45 256.98C327.41 258.78 327.1 273.17 327.06 274.97C327.06 275.27 326.88 275.43 326.65 275.5C328.82 275.22 330.61 274.49 332.05 273.26C335.22 270.58 336.94 266.1 336.57 261.58C336.34 258.9 335.52 256.32 334.15 254.1C334.08 254.1 334.03 254.1 333.97 254.08C331.84 253.55 329.62 253.42 327.45 253.69C327.54 254.49 327.5 255.31 327.47 256.09ZM325.94 274.54C323.47 272.85 320.91 271.27 318.31 269.83C318.24 269.78 318.17 269.78 318.13 269.81C318.12 269.81 318.08 269.82 318.01 269.85L318.03 267.27C318.1 267.31 318.14 267.33 318.15 267.34C320.85 268.75 323.52 270.26 326.08 271.82C326.08 271.82 326.1 271.83 326.13 271.84L326.06 274.61C325.99 274.56 325.95 274.54 325.94 274.54ZM318.38 269.69C320.94 271.11 323.45 272.66 325.9 274.33C325.9 274.09 325.94 272.17 325.94 271.93C323.43 270.4 320.8 268.91 318.17 267.54C318.17 267.76 318.15 269.46 318.15 269.67C318.17 269.65 318.19 269.65 318.19 269.65C318.26 269.65 318.31 269.67 318.38 269.69ZM326.01 271.25C323.41 269.67 320.73 268.18 318.08 266.79C318.08 266.79 318.06 266.78 318.03 266.77L318.06 264.46L318.17 264.5L318.15 264.57C318.18 264.53 318.19 264.51 318.19 264.5C318.33 264.57 318.45 264.64 318.56 264.69C319.31 265.12 325.29 268.55 326.03 268.98C326.06 269.01 326.1 269.01 326.13 269.01C326.13 269.01 326.15 269.01 326.19 269.01L326.13 271.31C326.06 271.27 326.02 271.25 326.01 271.25ZM325.99 271.04C325.99 270.85 326.03 269.35 326.03 269.17C326.01 269.17 325.99 269.14 325.94 269.12C325.2 268.69 319.22 265.25 318.47 264.82C318.38 264.78 318.29 264.73 318.19 264.69C318.19 264.82 318.19 265.48 318.19 266.67C321.68 268.56 324.28 270.02 325.99 271.04ZM319.79 264.91C319.63 264.82 319.43 264.73 319.2 264.62C318.83 264.43 318.42 264.25 318.08 264.02C318.08 264.02 318.07 264.01 318.06 264L318.08 260.73L326.24 266.19L326.19 268.59C322.35 266.39 320.22 265.16 319.79 264.91ZM319.27 264.48C319.5 264.59 319.7 264.69 319.86 264.78C320.27 265.01 322.33 266.2 326.03 268.34L326.08 266.29L318.22 261.03L318.19 263.93C318.67 264.19 319.02 264.37 319.27 264.48ZM318.06 260.21L318.08 257.67C318.15 257.71 318.19 257.73 318.19 257.74C321.03 259.36 323.73 261.19 326.26 263.18C326.26 263.18 326.27 263.19 326.29 263.2L326.24 265.67L318.06 260.21ZM326.1 265.37C326.13 264.11 326.15 263.41 326.15 263.27C323.66 261.33 321.01 259.54 318.24 257.94C318.24 258.09 318.23 258.81 318.22 260.11L326.1 265.37ZM326.19 262.54C323.61 260.57 320.91 258.74 318.13 257.17C318.12 257.16 318.11 257.16 318.08 257.14L318.1 254.33C318.17 254.37 318.21 254.4 318.22 254.4C321.19 256 323.84 257.55 326.35 259.15C326.36 259.16 326.37 259.16 326.4 259.18L326.31 262.63C326.24 262.57 326.2 262.54 326.19 262.54ZM326.17 262.33C326.18 262.02 326.23 259.55 326.24 259.25C323.77 257.69 321.17 256.16 318.26 254.58C318.26 254.75 318.25 255.57 318.24 257.05C321.84 259.28 324.48 261.04 326.17 262.33ZM326.29 258.56C323.77 256.98 321.12 255.43 318.15 253.85C318.15 253.85 318.13 253.84 318.1 253.83L318.13 250.77L326.47 256.48C326.45 256.88 326.45 257.1 326.45 257.14C326.42 257.6 326.42 258.06 326.4 258.49C326.4 258.5 326.4 258.55 326.4 258.63C326.33 258.59 326.29 258.56 326.29 258.56ZM326.26 258.38C326.26 257.97 326.29 257.55 326.31 257.14C326.31 257.1 326.32 256.91 326.33 256.57L318.29 251.06L318.26 253.74C321.95 255.79 324.62 257.34 326.26 258.38ZM318.13 250.22L318.15 247.86C321.7 250.08 323.67 251.32 324.07 251.57C324.25 251.68 324.41 251.77 324.59 251.89C325.55 252.46 326.47 252.98 326.51 254.31C326.51 254.83 326.51 255.36 326.51 255.79C326.51 255.8 326.5 255.86 326.47 255.95L318.13 250.22ZM326.33 255.68C326.33 255.27 326.35 254.81 326.33 254.33C326.31 253.1 325.46 252.62 324.5 252.05C324.32 251.95 324.16 251.84 323.98 251.73C323.6 251.49 321.7 250.3 318.29 248.16L318.29 250.15C323.11 253.47 325.8 255.31 326.33 255.68ZM332.46 252.78C331.7 252.66 330.95 252.59 330.19 252.57C330.19 252.57 330.19 252.57 330.17 252.57L330.15 252.55L323.34 247.22C323.5 247.25 323.59 247.27 323.61 247.27C324.87 247.43 326.1 247.75 327.29 248.23C329.17 249.53 330.93 251.02 332.5 252.66C332.52 252.67 332.58 252.72 332.69 252.8C332.55 252.79 332.47 252.78 332.46 252.78ZM332.27 252.59C330.72 251.02 329.03 249.6 327.25 248.34C326.17 247.91 325.03 247.61 323.89 247.43C324.31 247.76 326.43 249.42 330.24 252.41C331.14 252.46 331.82 252.52 332.27 252.59ZM326.99 252.69C326.67 252.18 326.1 251.84 325.6 251.52C325.16 251.25 322.97 249.87 319.02 247.41C319.13 247.38 319.19 247.36 319.2 247.36C320.11 247.18 321.07 247.11 322.03 247.11C322.04 247.11 322.05 247.11 322.08 247.11C322.09 247.12 322.1 247.13 322.1 247.13C322.19 247.25 322.33 247.29 322.42 247.18C322.42 247.18 322.43 247.17 322.45 247.15C322.47 247.15 322.49 247.15 322.49 247.15C322.54 247.15 322.61 247.15 329.3 252.41C329.31 252.42 329.37 252.47 329.46 252.55C329.34 252.55 329.27 252.55 329.26 252.55C328.53 252.57 327.79 252.62 327.09 252.73C327.08 252.73 327.06 252.73 327.02 252.73C327 252.7 327 252.69 326.99 252.69ZM325.67 251.41C326.17 251.73 326.74 252.07 327.09 252.57C327.73 252.48 328.37 252.43 329.03 252.41C324.16 248.59 322.77 247.52 322.49 247.34C322.42 247.41 322.33 247.43 322.29 247.43C322.17 247.43 322.08 247.38 322.01 247.29C321.14 247.27 320.27 247.34 319.43 247.5C320.68 248.28 325.04 251.01 325.67 251.41ZM330.83 250.38C330.84 250.37 330.92 250.27 330.93 250.26C331.61 250.81 332.27 251.43 332.87 252.11C332.86 252.12 332.82 252.15 332.75 252.21C331.92 251.37 331.28 250.76 330.83 250.38Z" id="c6QSsxrtp8"></path></defs><g><g><g><use xlink:href="#d4N6euEqjU" opacity="1" fill="#000000" fill-opacity="1"></use><g><use xlink:href="#d4N6euEqjU" opacity="1" fill-opacity="0" stroke="#000000" stroke-width="1" stroke-opacity="0"></use></g></g><g><use xlink:href="#j1hceoggvH" opacity="1" fill="#180f0b" fill-opacity="1"></use><g><use xlink:href="#j1hceoggvH" opacity="1" fill-opacity="0" stroke="#000000" stroke-width="1" stroke-opacity="0"></use></g></g><g><use xlink:href="#ane0NiCDd" opacity="1" fill="#000000" fill-opacity="1"></use><g><use xlink:href="#ane0NiCDd" opacity="1" fill-opacity="0" stroke="#000000" stroke-width="1" stroke-opacity="0"></use></g></g><g><use xlink:href="#c6QSsxrtp8" opacity="1" fill="#180f0b" fill-opacity="1"></use><g><use xlink:href="#c6QSsxrtp8" opacity="1" fill-opacity="0" stroke="#000000" stroke-width="1" stroke-opacity="0"></use></g></g></g></g></svg>