<?xml version="1.0" ?><svg id="图层_1" style="enable-background:new -239 241 32 32;" version="1.1" viewBox="-239 241 32 32" xml:space="preserve" xmlns="http://www.w3.org/2000/svg" xmlns:xlink="http://www.w3.org/1999/xlink"><style type="text/css">
	.st0{fill:#F42F42;}
	.st1{opacity:0.2038;fill:#332E0A;enable-background:new    ;}
	.st2{fill:none;stroke:#0A2933;stroke-linejoin:round;}
	.st3{fill:none;stroke:#FFFFFF;stroke-linecap:round;stroke-linejoin:round;stroke-dasharray:1,2,6,2,3;}
</style><path class="st0" d="M-217.9,258.1h-9.2c0,1.1,0.2,2,0.6,2.8c0.4,0.8,1,1.4,1.7,1.8s1.5,0.6,2.3,0.6c0.6,0,1.1-0.1,1.5-0.2  c0.5-0.1,0.9-0.3,1.3-0.6c0.4-0.3,0.8-0.6,1.2-0.9c0.4-0.3,0.8-0.8,1.4-1.3c0.2-0.2,0.6-0.3,1-0.3c0.5,0,0.9,0.1,1.2,0.4  s0.4,0.6,0.4,1.1c0,0.4-0.2,0.9-0.5,1.5c-0.3,0.6-0.8,1.1-1.5,1.6s-1.5,1-2.5,1.3c-1,0.3-2.2,0.5-3.5,0.5c-3,0-5.4-0.9-7-2.6  c-1.7-1.7-2.5-4.1-2.5-7c0-1.4,0.2-2.7,0.6-3.9s1-2.2,1.8-3.1c0.8-0.8,1.8-1.5,2.9-2s2.4-0.7,3.9-0.7c1.8,0,3.4,0.4,4.7,1.2  c1.3,0.8,2.3,1.8,2.9,3s1,2.5,1,3.7c0,1.2-0.3,1.9-1,2.3C-215.8,257.9-216.7,258.1-217.9,258.1z M-227.1,255.4h8.5  c-0.1-1.6-0.5-2.8-1.3-3.6s-1.7-1.2-3-1.2c-1.2,0-2.1,0.4-2.9,1.2C-226.5,252.7-227,253.9-227.1,255.4z"/><path class="st1" d="M-214.5,261c0.1,0.2,0.1,0.4,0.1,0.7c0,0.4-0.2,0.9-0.5,1.5c-0.3,0.6-0.8,1.1-1.5,1.6  c-0.7,0.5-1.5,1-2.5,1.3s-2.2,0.5-3.5,0.5c-3,0-5.4-0.9-7-2.6s-2.5-4.1-2.5-7c0-0.2,0-0.5,0-0.7c0.1,2.6,1,4.7,2.5,6.2  c1.7,1.7,4,2.6,7,2.6c1.3,0,2.5-0.2,3.5-0.5s1.9-0.8,2.5-1.3c0.7-0.5,1.2-1.1,1.5-1.6C-214.7,261.4-214.6,261.2-214.5,261z" id="Combined-Shape"/><path class="st2" d="M-217.9,258.1h-9.2c0,1.1,0.2,2,0.6,2.8c0.4,0.8,1,1.4,1.7,1.8s1.5,0.6,2.3,0.6  c0.6,0,1.1-0.1,1.5-0.2c0.5-0.1,0.9-0.3,1.3-0.6c0.4-0.3,0.8-0.6,1.2-0.9c0.4-0.3,0.8-0.8,1.4-1.3c0.2-0.2,0.6-0.3,1-0.3  c0.5,0,0.9,0.1,1.2,0.4s0.4,0.6,0.4,1.1c0,0.4-0.2,0.9-0.5,1.5c-0.3,0.6-0.8,1.1-1.5,1.6s-1.5,1-2.5,1.3c-1,0.3-2.2,0.5-3.5,0.5  c-3,0-5.4-0.9-7-2.6c-1.7-1.7-2.5-4.1-2.5-7c0-1.4,0.2-2.7,0.6-3.9s1-2.2,1.8-3.1c0.8-0.8,1.8-1.5,2.9-2s2.4-0.7,3.9-0.7  c1.8,0,3.4,0.4,4.7,1.2c1.3,0.8,2.3,1.8,2.9,3s1,2.5,1,3.7c0,1.2-0.3,1.9-1,2.3C-215.8,257.9-216.7,258.1-217.9,258.1z   M-227.1,255.4h8.5c-0.1-1.6-0.5-2.8-1.3-3.6s-1.7-1.2-3-1.2c-1.2,0-2.1,0.4-2.9,1.2C-226.5,252.7-227,253.9-227.1,255.4z M-232,247  " id="Path-6"/><path class="st3" d="M-230.5,254.3c0.5-2,1.5-3.4,2.9-4.4" id="Path-7"/></svg>