<?xml version="1.0" ?><svg id="图层_1" style="enable-background:new -239 241 32 32;" version="1.1" viewBox="-239 241 32 32" xml:space="preserve" xmlns="http://www.w3.org/2000/svg" xmlns:xlink="http://www.w3.org/1999/xlink"><style type="text/css">
	.st0{fill:#F42F42;}
	.st1{opacity:0.2038;fill:#332E0A;enable-background:new    ;}
	.st2{fill:none;stroke:#0A2933;stroke-linejoin:round;}
	.st3{fill:none;stroke:#FFFFFF;stroke-linecap:round;stroke-linejoin:round;stroke-dasharray:1,2,6,2,3;}
</style><path class="st0" d="M-227.8,254h1.1v-1.3c0-1.4,0.2-2.5,0.5-3.3c0.4-0.8,0.9-1.4,1.8-1.8c0.8-0.4,2-0.6,3.4-0.6  c2.6,0,3.9,0.6,3.9,1.9c0,0.4-0.1,0.8-0.4,1.1c-0.3,0.3-0.6,0.4-1,0.4c-0.2,0-0.5,0-0.9-0.1s-0.8-0.1-1.1-0.1  c-0.8,0-1.3,0.2-1.5,0.7c-0.2,0.5-0.3,1.1-0.3,2v1.1h1.1c1.7,0,2.5,0.5,2.5,1.5c0,0.7-0.2,1.2-0.7,1.4c-0.4,0.2-1.1,0.3-1.9,0.3  h-1.1v11.7c0,0.9-0.2,1.5-0.6,2s-1,0.7-1.6,0.7c-0.6,0-1.1-0.2-1.6-0.7s-0.6-1.1-0.6-2v-11.7h-1.2c-0.7,0-1.2-0.1-1.5-0.4  c-0.4-0.3-0.5-0.7-0.5-1.2C-230,254.5-229.3,254-227.8,254z"/><path class="st1" d="M-222.3,267.2v1.6c0,0.9-0.2,1.5-0.6,2s-1,0.7-1.6,0.7c-0.6,0-1.1-0.2-1.6-0.7  s-0.6-1.1-0.6-2v-1.6c0,0.9,0.2,1.5,0.6,2c0.4,0.5,0.9,0.7,1.6,0.7c0.7,0,1.2-0.2,1.6-0.7C-222.5,268.8-222.3,268.1-222.3,267.2z" id="Combined-Shape"/><path class="st2" d="M-227.8,254h1.1v-1.3c0-1.4,0.2-2.5,0.5-3.3c0.4-0.8,0.9-1.4,1.8-1.8c0.8-0.4,2-0.6,3.4-0.6  c2.6,0,3.9,0.6,3.9,1.9c0,0.4-0.1,0.8-0.4,1.1c-0.3,0.3-0.6,0.4-1,0.4c-0.2,0-0.5,0-0.9-0.1s-0.8-0.1-1.1-0.1  c-0.8,0-1.3,0.2-1.5,0.7c-0.2,0.5-0.3,1.1-0.3,2v1.1h1.1c1.7,0,2.5,0.5,2.5,1.5c0,0.7-0.2,1.2-0.7,1.4c-0.4,0.2-1.1,0.3-1.9,0.3  h-1.1v11.7c0,0.9-0.2,1.5-0.6,2s-1,0.7-1.6,0.7c-0.6,0-1.1-0.2-1.6-0.7s-0.6-1.1-0.6-2v-11.7h-1.2c-0.7,0-1.2-0.1-1.5-0.4  c-0.4-0.3-0.5-0.7-0.5-1.2C-230,254.5-229.3,254-227.8,254z"/><path class="st3" d="M-224.6,248.8c-0.6,0.6-0.9,2.1-0.9,4.5" id="Path-8"/></svg>