<?xml version="1.0" ?><svg id="图层_1" style="enable-background:new -239 241 32 32;" version="1.1" viewBox="-239 241 32 32" xml:space="preserve" xmlns="http://www.w3.org/2000/svg" xmlns:xlink="http://www.w3.org/1999/xlink"><style type="text/css">
	.st0{fill:#F42F42;}
	.st1{opacity:0.2038;fill:#332E0A;enable-background:new    ;}
	.st2{fill:none;stroke:#0A2933;stroke-width:0.9286;stroke-linejoin:round;}
	
		.st3{fill:none;stroke:#FFFFFF;stroke-width:0.9286;stroke-linecap:round;stroke-linejoin:round;stroke-dasharray:0.9286,1.8571,5.5714,1.8571,2.7857;}
</style><path class="letter-fill" d="M-214.7,250.2v12.6c0,1.4-0.2,2.7-0.5,3.7c-0.3,1-0.8,1.9-1.5,2.6c-0.7,0.7-1.6,1.2-2.7,1.5  c-1.1,0.3-2.5,0.5-4.2,0.5c-1.5,0-2.9-0.2-4.1-0.6s-2.1-1-2.8-1.6c-0.7-0.7-1-1.3-1-2c0-0.5,0.2-1,0.6-1.3c0.4-0.3,0.8-0.5,1.3-0.5  c0.7,0,1.2,0.3,1.7,0.8c0.2,0.3,0.5,0.6,0.7,0.9c0.3,0.3,0.5,0.5,0.8,0.7c0.3,0.2,0.7,0.4,1.1,0.5c0.4,0.1,0.9,0.2,1.5,0.2  c1.1,0,2-0.2,2.7-0.5c0.6-0.3,1.1-0.8,1.3-1.3c0.3-0.6,0.4-1.2,0.4-1.8c0-0.6,0.1-1.7,0.1-3.1c-0.7,0.9-1.5,1.6-2.4,2.1  s-2,0.7-3.2,0.7c-1.5,0-2.8-0.4-3.9-1.1s-2-1.8-2.6-3.1s-0.9-2.9-0.9-4.6c0-1.3,0.2-2.5,0.5-3.5c0.4-1.1,0.9-1.9,1.6-2.7  c0.7-0.7,1.4-1.3,2.3-1.6s1.8-0.5,2.9-0.5c1.3,0,2.3,0.2,3.3,0.7s1.8,1.2,2.6,2.2v-0.6c0-0.8,0.2-1.3,0.6-1.8s0.9-0.6,1.5-0.6  c0.9,0,1.4,0.3,1.7,0.8C-214.8,248.4-214.7,249.2-214.7,250.2z M-227.5,255.7c0,1.8,0.4,3.1,1.2,4c0.8,0.9,1.8,1.4,3,1.4  c0.7,0,1.4-0.2,2.1-0.6s1.2-1,1.6-1.8c0.4-0.8,0.6-1.7,0.6-2.8c0-1.8-0.4-3.2-1.2-4.1c-0.8-1-1.8-1.5-3.1-1.5c-1.3,0-2.3,0.5-3,1.4  C-227.2,252.6-227.5,254-227.5,255.7z"/><path class="st1" d="M-214.7,261.2v1.6c0,1.4-0.2,2.7-0.5,3.7c-0.3,1-0.8,1.9-1.5,2.6c-0.7,0.7-1.6,1.2-2.7,1.5  c-1.1,0.3-2.5,0.5-4.2,0.5c-1.5,0-2.9-0.2-4.1-0.6s-2.1-1-2.8-1.6c-0.7-0.7-1-1.3-1-2c0-0.3,0.1-0.5,0.2-0.8  c0.2,0.4,0.4,0.8,0.8,1.2c0.7,0.7,1.6,1.2,2.8,1.6s2.6,0.6,4.1,0.6c1.7,0,3.1-0.2,4.2-0.5c1.1-0.3,2-0.8,2.7-1.5  c0.7-0.7,1.2-1.5,1.5-2.6C-214.8,263.9-214.7,262.7-214.7,261.2z" id="Combined-Shape"/><path class="letter-border" d="M-214.7,250.2v12.6c0,1.4-0.2,2.7-0.5,3.7c-0.3,1-0.8,1.9-1.5,2.6c-0.7,0.7-1.6,1.2-2.7,1.5  c-1.1,0.3-2.5,0.5-4.2,0.5c-1.5,0-2.9-0.2-4.1-0.6s-2.1-1-2.8-1.6c-0.7-0.7-1-1.3-1-2c0-0.5,0.2-1,0.6-1.3c0.4-0.3,0.8-0.5,1.3-0.5  c0.7,0,1.2,0.3,1.7,0.8c0.2,0.3,0.5,0.6,0.7,0.9c0.3,0.3,0.5,0.5,0.8,0.7c0.3,0.2,0.7,0.4,1.1,0.5c0.4,0.1,0.9,0.2,1.5,0.2  c1.1,0,2-0.2,2.7-0.5c0.6-0.3,1.1-0.8,1.3-1.3c0.3-0.6,0.4-1.2,0.4-1.8c0-0.6,0.1-1.7,0.1-3.1c-0.7,0.9-1.5,1.6-2.4,2.1  s-2,0.7-3.2,0.7c-1.5,0-2.8-0.4-3.9-1.1s-2-1.8-2.6-3.1s-0.9-2.9-0.9-4.6c0-1.3,0.2-2.5,0.5-3.5c0.4-1.1,0.9-1.9,1.6-2.7  c0.7-0.7,1.4-1.3,2.3-1.6s1.8-0.5,2.9-0.5c1.3,0,2.3,0.2,3.3,0.7s1.8,1.2,2.6,2.2v-0.6c0-0.8,0.2-1.3,0.6-1.8s0.9-0.6,1.5-0.6  c0.9,0,1.4,0.3,1.7,0.8C-214.8,248.4-214.7,249.2-214.7,250.2z M-227.5,255.7c0,1.8,0.4,3.1,1.2,4c0.8,0.9,1.8,1.4,3,1.4  c0.7,0,1.4-0.2,2.1-0.6s1.2-1,1.6-1.8c0.4-0.8,0.6-1.7,0.6-2.8c0-1.8-0.4-3.2-1.2-4.1c-0.8-1-1.8-1.5-3.1-1.5c-1.3,0-2.3,0.5-3,1.4  C-227.2,252.6-227.5,254-227.5,255.7z"/><path class="st3" d="M-230.2,253.2c0.6-2.4,1.8-3.9,3.6-4.5" id="Path-9"/></svg>