<?xml version="1.0" ?><svg id="图层_1" style="enable-background:new -239 241 32 32;" version="1.1" viewBox="-239 241 32 32" xml:space="preserve" xmlns="http://www.w3.org/2000/svg" xmlns:xlink="http://www.w3.org/1999/xlink"><style type="text/css">
	.st0{fill:#F42F42;}
	.st1{opacity:0.2038;fill:#332E0A;enable-background:new    ;}
	.st2{fill:none;stroke:#0A2933;stroke-linejoin:round;}
	.st3{fill:none;stroke:#FFFFFF;stroke-linecap:round;stroke-linejoin:round;stroke-dasharray:1,2,6,2,3;}
</style><path class="letter-fill" d="M-226.7,244.9v6.4c0.5-0.6,1.1-1.1,1.6-1.5c0.5-0.4,1.1-0.6,1.7-0.8c0.6-0.2,1.3-0.3,2-0.3  c1.1,0,2.1,0.2,2.9,0.7s1.5,1.1,2,2c0.3,0.5,0.5,1.1,0.6,1.7c0.1,0.6,0.2,1.4,0.2,2.2v8.3c0,0.9-0.2,1.5-0.6,2  c-0.4,0.4-0.9,0.7-1.6,0.7c-1.4,0-2.1-0.9-2.1-2.6v-7.3c0-1.4-0.2-2.4-0.6-3.2c-0.4-0.7-1.2-1.1-2.3-1.1c-0.8,0-1.5,0.2-2.1,0.7  s-1.1,1-1.4,1.8c-0.2,0.6-0.3,1.8-0.3,3.4v5.7c0,0.9-0.2,1.5-0.6,2c-0.4,0.4-0.9,0.7-1.6,0.7c-1.4,0-2.1-0.9-2.1-2.6v-18.7  c0-0.9,0.2-1.5,0.6-2c0.4-0.4,0.9-0.7,1.6-0.7c0.7,0,1.2,0.2,1.6,0.7S-226.7,244.1-226.7,244.9z"/><path class="st1" d="M-226.7,261.9v1.7c0,0.9-0.2,1.5-0.6,2c-0.4,0.4-0.9,0.7-1.6,0.7c-1.4,0-2.1-0.9-2.1-2.6  v-1.7c0,1.7,0.7,2.6,2.1,2.6c0.7,0,1.2-0.2,1.6-0.7S-226.7,262.8-226.7,261.9z" id="Combined-Shape"/><path class="st1" d="M-215.6,261.9v1.7c0,0.9-0.2,1.5-0.6,2c-0.4,0.4-0.9,0.7-1.6,0.7  c-1.4,0-2.1-0.9-2.1-2.6v-1.7c0,1.7,0.7,2.6,2.1,2.6c0.7,0,1.2-0.2,1.6-0.7C-215.8,263.4-215.6,262.8-215.6,261.9z" id="Combined-Shape_1_"/><path class="letter-border" d="M-226.7,244.9v6.4c0.5-0.6,1.1-1.1,1.6-1.5c0.5-0.4,1.1-0.6,1.7-0.8c0.6-0.2,1.3-0.3,2-0.3  c1.1,0,2.1,0.2,2.9,0.7s1.5,1.1,2,2c0.3,0.5,0.5,1.1,0.6,1.7c0.1,0.6,0.2,1.4,0.2,2.2v8.3c0,0.9-0.2,1.5-0.6,2  c-0.4,0.4-0.9,0.7-1.6,0.7c-1.4,0-2.1-0.9-2.1-2.6v-7.3c0-1.4-0.2-2.4-0.6-3.2c-0.4-0.7-1.2-1.1-2.3-1.1c-0.8,0-1.5,0.2-2.1,0.7  s-1.1,1-1.4,1.8c-0.2,0.6-0.3,1.8-0.3,3.4v5.7c0,0.9-0.2,1.5-0.6,2c-0.4,0.4-0.9,0.7-1.6,0.7c-1.4,0-2.1-0.9-2.1-2.6v-18.7  c0-0.9,0.2-1.5,0.6-2c0.4-0.4,0.9-0.7,1.6-0.7c0.7,0,1.2,0.2,1.6,0.7S-226.7,244.1-226.7,244.9z"/><path class="st3" d="M-229.5,245.8v8.2" id="Path-10"/></svg>