<?xml version="1.0" encoding="UTF-8" standalone="no"?>
<!DOCTYPE svg PUBLIC "-//W3C//DTD SVG 1.1//EN" "http://www.w3.org/Graphics/SVG/1.1/DTD/svg11.dtd">
<svg version="1.1" xmlns="http://www.w3.org/2000/svg" xmlns:xlink="http://www.w3.org/1999/xlink" preserveAspectRatio="xMidYMid meet" viewBox="63.22285714285716 320.4948571432204 56.747916789714175 60.96799999963679" width="56.75" height="60.97"><defs><path d="M118.72 378.77C118.72 374.86 118.72 370.93 118.72 367.02C118.74 367.04 118.93 367.2 118.95 367.22C119.25 367.47 119.68 367.06 119.38 366.79C119.15 366.61 118.95 366.4 118.72 366.22C118.72 365.62 118.72 365.03 118.72 364.41C118.86 364.3 118.9 364.11 118.74 363.98C118.74 363.98 118.72 363.95 118.72 363.95C118.72 358.4 118.72 352.85 118.74 347.27C118.74 346.87 118.74 343.69 118.74 343.29C118.77 343.29 118.77 343.31 118.79 343.31C119.11 343.52 119.43 342.99 119.09 342.79C118.97 342.72 118.86 342.63 118.74 342.56C118.74 342.36 118.74 340.73 118.74 340.53C118.74 340.53 118.74 340.53 118.74 340.53C119.09 340.73 119.38 340.21 119.04 340C118.95 339.93 118.83 339.86 118.74 339.82C118.74 339.16 118.74 333.87 118.74 333.21C119.04 333.44 119.47 333.03 119.15 332.78C119.02 332.66 118.88 332.55 118.74 332.43C118.74 332.3 118.74 331.24 118.74 331.11C118.74 330.01 118.88 328.82 118.58 327.75C118.35 326.9 117.49 326.45 116.8 326.06C114.72 324.8 112.62 323.54 110.54 322.29C110.51 322.06 110.51 321.85 110.49 321.62C110.45 321.03 109.62 320.98 109.49 321.46C105.51 321.26 101.53 321.07 97.55 320.87C97.28 320.85 97.05 321.12 97.05 321.37C97.14 327.25 96.96 333.12 96.48 338.97C93.42 339.18 90.33 339.34 87.25 339.45C86.77 335.45 86.51 331.41 86.49 327.38C86.49 327.22 86.4 327.02 86.24 326.95C83.38 325.49 80.66 323.84 78.03 322.01C78.03 321.9 78.01 321.78 78.01 321.67C77.99 321.39 77.81 321.17 77.51 321.17C73.07 320.96 68.62 320.75 64.18 320.55C64.14 320.55 64.07 320.55 64.05 320.57C63.75 320.46 63.34 320.62 63.34 321.03C63.52 338.95 63.7 356.87 63.89 374.77C63.89 375.04 64.11 375.27 64.39 375.27C64.41 375.27 64.43 375.27 64.46 375.27C64.48 375.29 64.5 375.29 64.53 375.31C66.15 376.39 67.75 377.44 69.37 378.51C70.72 379.41 72.05 380.25 73.67 380.43C75.59 380.64 77.53 380.57 79.45 380.62C81.55 380.66 83.63 380.71 85.74 380.73C86.17 380.73 86.31 380.32 86.17 380.02C86.24 380 86.31 379.95 86.35 379.91C86.63 380.18 87.22 380.07 87.22 379.57C87.15 376.23 87.06 372.91 86.99 369.58C86.95 367.98 86.93 366.38 86.88 364.78C86.86 363.98 86.83 363.18 86.83 362.38C86.83 362.35 86.83 362.33 86.83 362.33C87.09 362.31 87.27 362.01 87.04 361.83C86.97 361.76 86.88 361.71 86.81 361.65C86.81 361.49 86.81 361.35 86.81 361.19C86.81 360.98 86.77 360.71 86.74 360.43C86.88 360.37 86.99 360.25 87.04 360.09C87.06 360.05 87.11 360 87.11 359.93C87.11 359.89 87.13 359.86 87.13 359.82C87.13 359.82 87.13 359.82 87.13 359.82C87.86 359.84 88.59 359.86 89.3 359.91C89.46 360.05 89.62 360.18 89.78 360.32C90.06 360.55 90.45 360.21 90.26 359.95C92.09 360.02 93.92 360.09 95.75 360.16C95.95 364.91 96.16 369.69 96.37 374.45C96 374.54 95.75 374.97 96.11 375.27C96.23 375.36 96.34 375.45 96.43 375.52C96.5 375.7 96.66 375.84 96.87 375.86C98.24 376.94 99.61 378.01 100.96 379.09C102.51 380.3 103.75 381.42 105.81 381.39C110.15 381.35 114.49 381.03 118.83 380.85C119.06 380.85 119.27 380.66 119.34 380.46C119.79 380.43 120.14 379.93 119.75 379.61C119.41 379.34 119.06 379.04 118.72 378.77ZM116.89 327.34C117.62 327.77 117.74 328.34 117.74 329.14C117.74 329.44 117.74 329.74 117.74 330.01C115.38 328.11 113.1 326.13 110.9 324.05C110.81 323.98 110.72 323.95 110.65 323.98C110.65 323.84 110.63 323.68 110.63 323.54C112.27 324.57 113.94 325.55 115.61 326.56C116.05 326.81 116.46 327.06 116.89 327.34ZM79.02 339.7C78.99 338.9 78.97 338.1 78.95 337.3C80.11 337.87 81.19 338.61 82.13 339.52C82.4 339.79 82.83 339.36 82.56 339.09C81.49 338.06 80.27 337.23 78.93 336.62C78.9 335.77 78.86 334.93 78.83 334.08C81.28 335.61 83.45 337.62 86.17 338.67C86.19 338.95 86.22 339.25 86.26 339.54C83.84 339.63 81.42 339.68 79.02 339.7ZM78.79 333.35C78.77 332.73 78.72 332.11 78.7 331.5C79.38 331.89 84.81 335.01 85.49 335.41C85.62 335.47 85.74 335.45 85.83 335.38C85.92 336.25 85.99 337.12 86.08 337.99C83.41 336.87 81.26 334.83 78.79 333.35ZM78.54 328.46C80.82 329.81 83.13 331.15 85.42 332.5C85.51 332.55 85.58 332.55 85.65 332.53C85.69 333.3 85.74 334.08 85.78 334.88C83.43 333.51 81.05 332.14 78.67 330.77C78.63 329.99 78.58 329.23 78.54 328.46ZM78.49 327.73C78.45 327.11 78.4 326.51 78.38 325.9C80.62 327.25 82.93 328.46 85.3 329.55C85.39 329.6 85.49 329.6 85.55 329.55C85.55 330.35 85.58 331.13 85.62 331.93C83.25 330.54 80.87 329.14 78.49 327.73ZM85.53 328.98C83.11 327.86 80.75 326.63 78.47 325.23C78.42 325.21 78.35 325.19 78.31 325.19C78.26 324.57 78.22 323.95 78.17 323.34C80.53 324.96 82.97 326.42 85.51 327.73C85.51 328.14 85.51 328.57 85.53 328.98ZM69.87 377.69C68.71 376.94 67.57 376.16 66.4 375.41C66.71 375.42 69.2 375.53 69.51 375.54C71.2 376.98 72.96 378.33 74.81 379.57C74.81 379.57 74.81 379.57 74.79 379.57C72.85 379.5 71.45 378.74 69.87 377.69ZM70.51 375.59C70.84 375.6 73.46 375.71 73.78 375.73C74.9 376.57 76.02 377.42 77.14 378.24C77.78 378.72 78.42 379.18 79.06 379.66C78.03 379.63 77.01 379.61 75.98 379.59C74.08 378.35 72.25 377.03 70.51 375.59ZM77.12 377.49C76.34 376.91 75.59 376.34 74.83 375.77C75.07 375.78 76.95 375.87 77.19 375.89C77.39 375.89 77.58 375.75 77.65 375.59C80.02 377.19 82.54 378.61 85.17 379.77C83.5 379.73 81.83 379.7 80.16 379.68C79.34 378.99 77.44 377.74 77.12 377.49ZM77.71 374.4C77.74 373.55 77.74 372.73 77.76 371.89C77.83 371.93 77.9 371.98 77.97 372.02C78.38 372.3 78.79 372.57 79.2 372.85C80.02 373.39 80.8 373.99 81.6 374.56C83.2 375.77 84.75 377.07 86.24 378.45C86.24 378.67 86.24 378.9 86.26 379.13C83.25 377.85 80.41 376.27 77.74 374.42C77.71 374.42 77.72 374.4 77.71 374.4ZM85.81 360.85C83.38 358.95 80.87 357.17 78.24 355.54C78.29 355.41 78.19 355.22 78.03 355.15C78.03 354.88 78.03 354.61 78.06 354.33C80.64 356.23 83.2 358.1 85.78 360C85.76 360.3 85.78 360.59 85.81 360.85C85.81 360.85 85.81 360.85 85.81 360.85ZM85.85 364C83.79 362.61 81.74 361.21 79.68 359.82C79.34 359.59 78.58 358.83 77.97 358.72C77.99 357.85 77.99 356.98 78.01 356.14C80.73 357.81 83.34 359.63 85.81 361.65C85.81 362.12 85.85 363.76 85.85 364ZM78.06 359.43C78.29 359.57 78.49 359.73 78.72 359.86C79.04 360.09 79.38 360.3 79.7 360.53C80.48 361.05 81.23 361.55 82.01 362.08C83.31 362.95 84.59 363.84 85.9 364.71C85.9 364.92 85.94 366.58 85.94 366.79C83.93 365.51 81.9 364.23 79.89 362.97C79.31 362.61 78.74 362.24 78.17 361.9C78.1 361.85 78.01 361.78 77.92 361.71C77.94 361.01 77.94 360.27 77.97 359.57C77.99 359.52 78.01 359.43 77.99 359.34C78.01 359.36 78.03 359.41 78.06 359.43ZM81.3 364.59C82.86 365.58 84.41 366.56 85.97 367.54C85.99 368.27 85.99 368.98 86.01 369.71C83.52 367.77 80.87 366.03 78.06 364.57C77.99 364.55 77.94 364.53 77.9 364.53C77.92 363.84 77.92 363.15 77.94 362.47C78.24 362.67 78.56 362.88 78.9 363.09C79.7 363.59 80.5 364.09 81.3 364.59ZM86.06 372.94C83.47 370.97 80.73 369.28 77.81 367.91C77.83 366.99 77.83 366.08 77.85 365.17C80.73 366.67 83.47 368.46 86.01 370.49C86.03 371.31 86.06 372.11 86.06 372.94ZM86.19 377.62C84.16 375.79 82.03 374.1 79.79 372.55C79.2 372.14 78.58 371.73 77.97 371.31C77.9 371.27 77.83 371.22 77.78 371.18C77.81 370.31 77.81 369.44 77.83 368.55C80.75 369.99 83.52 371.7 86.1 373.71C86.13 375.02 86.17 376.32 86.19 377.62ZM86.01 358.93C83.75 357.28 81.51 355.61 79.25 353.97C80.16 353.92 81.07 353.9 81.99 353.87C84 355.54 86.03 357.21 88.05 358.88C87.47 358.86 86.93 358.83 86.35 358.81C86.22 358.81 86.1 358.86 86.01 358.93ZM82.93 353.85C84 353.83 85.07 353.81 86.15 353.81C88.43 355.38 90.58 357.12 92.59 359.04C91.41 358.99 90.22 358.95 89.05 358.9C87.02 357.21 84.96 355.52 82.93 353.85ZM87.2 353.83C87.89 353.83 88.59 353.83 89.28 353.85C89.39 353.97 89.53 354.08 89.65 354.19C90.26 354.81 90.9 355.41 91.54 355.98C92.75 357.1 94.03 358.15 95.31 359.15C95.19 359.15 94.59 359.13 93.51 359.09C90.8 356.63 88.69 354.88 87.2 353.83ZM91.15 354.77C90.88 354.51 90.61 354.26 90.35 353.99C90.31 353.94 90.26 353.9 90.19 353.85C90.88 353.87 91.57 353.9 92.23 353.92C93.65 354.63 94.67 355.82 95.66 357.05C95.68 357.6 95.7 358.15 95.73 358.72C94.72 357.92 93.76 357.12 92.8 356.27C92.23 355.79 91.7 355.27 91.15 354.77ZM95.52 354.06C95.54 354.72 95.59 355.38 95.61 356.02C94.97 355.27 94.29 354.54 93.49 353.97C94.17 353.99 94.83 354.03 95.52 354.06ZM96.02 353.07C90.01 352.71 83.98 352.71 77.97 353.01C77.93 352.98 77.62 352.74 77.58 352.71C77.05 352.32 76.55 353.21 77.07 353.58C77.07 353.58 77.07 353.58 77.07 353.58C77.03 356.18 76.98 358.81 76.94 361.42C76.78 361.51 76.69 361.67 76.75 361.92C76.78 361.99 76.85 362.08 76.91 362.1C76.87 364.98 76.82 367.86 76.78 370.77C76.32 370.79 76.32 371.45 76.69 371.61C76.71 371.63 76.73 371.63 76.75 371.63C76.73 372.71 76.71 373.76 76.71 374.83C76.38 374.82 73.77 374.71 73.44 374.7C73.42 374.67 73.39 374.67 73.39 374.65C73.26 374.56 73.14 374.58 73.05 374.67C72.68 374.66 69.68 374.53 69.3 374.51C69.26 374.47 69.19 374.42 69.14 374.38C68.96 374.22 68.73 374.29 68.64 374.49C67.41 374.45 66.17 374.38 64.94 374.33C64.75 356.75 64.57 339.2 64.41 321.62C65.65 321.68 75.52 322.14 76.75 322.19C76.78 322.31 76.85 322.42 76.96 322.51C77.01 322.56 77.07 322.61 77.14 322.63C77.37 325.23 77.55 327.86 77.69 330.49C77.6 330.61 77.58 330.79 77.71 330.9C77.76 331.61 77.78 332.3 77.83 333.01C77.69 333.12 77.65 333.37 77.85 333.49C77.94 335.73 78.01 337.99 78.06 340.23C78.06 340.5 78.29 340.73 78.56 340.73C81.26 340.71 83.93 340.66 86.63 340.57C86.83 340.71 87.11 340.69 87.27 340.55C90.51 340.43 93.76 340.25 97.01 340.02C97.3 340 97.49 339.82 97.51 339.52C97.99 333.69 98.19 327.84 98.13 321.99C101.74 322.17 105.35 322.35 108.94 322.54C108.98 322.58 109.03 322.63 109.07 322.67C109.23 322.79 109.42 322.88 109.58 322.99C110.63 340.02 110.99 357.07 110.67 374.13C107.27 374.58 103.84 374.83 100.41 374.9C100.34 374.88 100.27 374.88 100.21 374.9C99.29 374.93 98.35 374.93 97.44 374.93C97.14 367.77 96.82 360.69 96.53 353.58C96.5 353.28 96.3 353.1 96.02 353.07ZM101.44 378.13C100.48 377.37 99.52 376.62 98.56 375.89C99.25 375.89 99.93 375.86 100.62 375.86C102.22 377.37 103.82 378.88 105.42 380.39C104.94 380.37 104.46 380.27 104 380.05C103.06 379.59 102.24 378.77 101.44 378.13ZM106.29 380.39C104.69 378.88 103.06 377.35 101.46 375.84C102.1 375.82 102.77 375.79 103.41 375.75C103.43 375.77 103.43 375.77 103.45 375.79C105.19 377.28 106.95 378.79 108.69 380.27C108.57 380.28 108.02 380.3 107.02 380.34C106.7 380.36 106.45 380.37 106.29 380.39ZM104.27 375.68C105.03 375.63 105.81 375.57 106.56 375.5C106.54 375.86 106.74 376.14 107.15 376.27C107.25 376.3 107.31 376.3 107.38 376.25C108.8 377.55 110.19 378.83 111.61 380.14C111.48 380.14 110.81 380.17 109.6 380.23C107.24 378.22 105.46 376.7 104.27 375.68ZM107.41 375.43C108 375.36 108.59 375.31 109.21 375.25C111.04 376.98 113.01 378.56 115.09 380C114.22 380.02 113.35 380.07 112.48 380.09C110.79 378.54 109.1 376.98 107.41 375.43ZM117.46 379.89C116.98 379.91 116.5 379.93 116.02 379.95C116 379.91 115.98 379.86 115.91 379.84C113.81 378.45 111.82 376.87 109.97 375.15C110.33 375.11 110.72 375.06 111.09 375.02C113.39 376.25 115.59 377.67 117.67 379.27C117.69 379.36 117.69 379.45 117.69 379.57C117.55 379.66 117.49 379.77 117.46 379.89ZM111.68 374.15C111.7 373.17 111.73 372.18 111.73 371.2C112.75 371.98 113.76 372.78 114.79 373.55C115.41 374.03 116.02 374.49 116.64 374.97C117.03 375.27 117.3 375.54 117.69 375.59C117.69 376.39 117.69 377.19 117.69 377.99C115.77 376.57 113.78 375.29 111.68 374.15ZM117.51 374.88C117.23 374.56 116.5 374.13 116.32 373.99C115.82 373.6 115.29 373.19 114.79 372.8C113.78 372.02 112.75 371.25 111.75 370.47C111.75 369.65 111.77 368.8 111.77 367.98C112.37 368.44 117.12 372.11 117.71 372.57C117.69 373.33 117.69 374.06 117.69 374.81C117.62 374.81 117.55 374.83 117.51 374.88ZM111.77 367.22C111.77 366.26 111.79 365.33 111.79 364.37C113.69 366.13 115.66 367.79 117.71 369.37C117.69 370.17 117.69 370.99 117.69 371.82C115.73 370.29 113.74 368.75 111.77 367.22ZM111.77 363.54C111.77 362.67 111.77 361.81 111.77 360.91C113.74 362.65 115.73 364.39 117.69 366.13C117.69 366.29 117.69 367.11 117.69 368.59C115.01 366.42 113.04 364.73 111.77 363.54ZM111.95 360.25C111.91 360.21 111.86 360.18 111.79 360.18C111.79 359.63 111.79 359.11 111.79 358.56C113.76 360.32 115.75 362.1 117.71 363.86C117.71 364.37 117.71 364.85 117.71 365.33C116.56 364.31 112.53 360.76 111.95 360.25ZM111.77 357.74C111.77 357.05 111.75 356.37 111.75 355.68C112.02 355.91 112.3 356.21 112.43 356.3C112.94 356.71 113.44 357.1 113.94 357.51C114.95 358.31 115.95 359.11 116.96 359.91C117.26 360.16 117.69 359.73 117.39 359.47C116.18 358.51 114.99 357.55 113.78 356.57C113.19 356.09 112.57 355.61 111.98 355.13C111.91 355.06 111.84 355.02 111.75 354.95C111.75 354.35 111.73 353.74 111.73 353.14C113.55 354.86 115.47 356.43 117.53 357.87C117.58 357.99 117.62 358.08 117.71 358.15C117.71 359.79 117.71 361.42 117.71 363.06C115.73 361.28 113.76 359.52 111.77 357.74ZM111.75 352.34C111.73 352.32 111.73 352.32 111.7 352.3C111.7 351.86 111.68 351.41 111.68 350.97C113.69 352.5 115.7 354.03 117.71 355.57C117.71 355.68 117.71 356.24 117.71 357.26C114.99 355.17 113 353.53 111.75 352.34ZM111.66 350.22C111.63 349.42 111.63 348.64 111.61 347.84C111.93 348.34 112.55 348.78 112.98 349.17C113.51 349.65 114.06 350.08 114.61 350.54C115.59 351.31 116.64 352.02 117.71 352.69C117.71 353.39 117.71 354.1 117.71 354.83C115.7 353.3 113.69 351.75 111.66 350.22ZM112.89 348.27C112.62 348.02 112.11 347.29 111.61 347.18C111.59 346.45 111.57 345.71 111.57 345.01C113.58 346.38 115.52 347.82 117.42 349.35C117.53 349.44 117.65 349.44 117.74 349.39C117.71 350.24 117.71 351.11 117.71 351.98C116 350.9 114.38 349.67 112.89 348.27ZM111.52 344.23C111.5 343.36 111.47 342.51 111.43 341.65C113.49 343.29 115.57 344.91 117.65 346.51C117.67 346.51 117.67 346.54 117.69 346.54C117.71 347.31 117.71 348.07 117.71 348.82C115.7 347.22 113.65 345.69 111.52 344.23ZM111.43 340.87C111.41 340.27 111.38 339.66 111.36 339.06C111.5 339.02 111.59 338.9 111.61 338.77C111.77 338.83 111.91 338.9 112.02 339.02C112.37 339.22 112.69 339.45 113.03 339.66C113.69 340.09 114.38 340.53 115.04 340.96C115.93 341.53 116.8 342.1 117.69 342.67C117.71 343.7 117.71 344.75 117.71 345.81C115.59 344.18 113.49 342.56 111.43 340.87ZM115.04 340.21C114.38 339.77 113.69 339.34 113.03 338.9C112.55 338.58 111.95 338.01 111.34 338.01C111.31 337.28 111.27 336.55 111.25 335.82C113.42 337.19 115.57 338.56 117.74 339.93C117.71 340.59 117.71 341.28 117.71 341.94C116.82 341.37 115.93 340.8 115.04 340.21ZM111.2 335.11C111.15 334.03 111.11 332.98 111.06 331.91C113.1 333.85 115.34 335.57 117.71 337.05C117.71 337.76 117.71 338.49 117.71 339.22C115.54 337.85 113.37 336.48 111.2 335.11ZM111.13 331.13C111.09 331.11 111.06 331.09 111.02 331.06C110.99 330.54 110.97 330.01 110.95 329.51C113.05 331.52 115.29 333.37 117.67 335.02C117.69 335.04 117.71 335.04 117.74 335.06C117.71 335.47 117.71 335.89 117.71 336.32C115.34 334.83 113.14 333.1 111.13 331.13ZM111.61 326.79C111.31 326.54 110.88 326.97 111.18 327.22C113.37 328.96 115.54 330.7 117.74 332.46C117.74 332.71 117.74 332.94 117.74 333.19C117.74 333.55 117.74 333.94 117.74 334.31C115.36 332.64 113.14 330.79 111.09 328.75C111.04 328.71 110.97 328.69 110.93 328.66C110.86 327.34 110.79 326.01 110.7 324.66C112.96 326.79 115.31 328.82 117.74 330.79C117.74 330.79 117.74 330.79 117.74 330.79C117.74 331.11 117.74 331.41 117.74 331.68C115.7 330.06 113.65 328.43 111.61 326.79Z" id="a1XoXxSdlR"></path><path d="M101.35 379.43C101.23 379.34 101.1 379.25 100.98 379.13C100.57 378.81 97.3 376.25 96.89 375.93C96.69 375.91 96.5 375.77 96.43 375.57C96.4 375.54 96.15 375.34 96.11 375.31C95.95 375.18 95.89 375.02 95.91 374.83C95.95 374.63 96.11 374.47 96.32 374.38C96.28 373.43 96.07 368.72 95.7 360.23C92.52 360.11 90.75 360.04 90.4 360.02C90.42 360.09 90.4 360.16 90.38 360.23C90.26 360.43 89.97 360.53 89.76 360.37C89.73 360.34 89.57 360.21 89.28 359.98L87.2 359.89C87.19 359.93 87.18 359.95 87.18 359.95C87.15 360.02 87.13 360.07 87.11 360.14C87.06 360.3 86.95 360.43 86.83 360.5C86.83 360.62 86.86 360.75 86.86 360.87C86.88 361.01 86.88 361.12 86.88 361.21C86.88 361.24 86.88 361.38 86.88 361.62C86.92 361.66 86.94 361.69 86.95 361.69C86.99 361.71 87.04 361.76 87.06 361.78C87.18 361.87 87.22 362.01 87.18 362.15C87.13 362.29 87.02 362.38 86.88 362.42C86.92 364.14 87.23 377.87 87.27 379.59C87.27 379.75 87.22 379.89 87.13 379.98C86.95 380.18 86.56 380.18 86.33 380.02C86.31 380.05 86.26 380.07 86.24 380.07C86.29 380.25 86.26 380.43 86.17 380.59C86.08 380.75 85.92 380.82 85.71 380.82C85.09 380.81 80.06 380.72 79.43 380.71C78.9 380.71 78.38 380.69 77.85 380.69C76.46 380.69 75.02 380.66 73.62 380.53C71.93 380.34 70.51 379.41 69.28 378.61C68.8 378.29 64.92 375.73 64.43 375.41C64.41 375.38 64.41 375.38 64.39 375.36C64.38 375.36 64.35 375.36 64.34 375.36C64.02 375.34 63.77 375.09 63.77 374.79C63.72 369.41 63.28 326.43 63.22 321.05C63.22 320.89 63.27 320.75 63.38 320.66C63.54 320.5 63.79 320.46 64.02 320.53C64.07 320.53 64.11 320.5 64.14 320.5C64.14 320.5 64.15 320.5 64.16 320.5C72.16 320.87 76.6 321.08 77.49 321.12C77.81 321.14 78.03 321.37 78.06 321.69C78.06 321.72 78.08 321.98 78.08 322.01C80.69 323.84 83.43 325.49 86.24 326.93C86.4 327.02 86.54 327.22 86.54 327.43C86.54 331.41 86.79 335.45 87.27 339.43C90.31 339.31 93.37 339.15 96.37 338.95C96.82 333.12 97.03 327.22 96.94 321.42C96.94 321.26 97.01 321.12 97.12 321.01C97.23 320.89 97.37 320.85 97.51 320.85C97.51 320.85 97.52 320.85 97.53 320.85C104.65 321.2 108.6 321.4 109.39 321.44C109.46 321.23 109.67 321.12 109.92 321.12C110.22 321.12 110.51 321.3 110.54 321.67C110.54 321.71 110.56 321.92 110.58 322.29C114.42 324.6 116.56 325.89 116.98 326.15C117.65 326.54 118.4 326.99 118.63 327.79C118.86 328.62 118.83 329.51 118.81 330.38C118.81 330.65 118.79 330.9 118.79 331.18C118.79 331.26 118.79 331.69 118.79 332.46C119.02 332.65 119.15 332.76 119.18 332.78C119.29 332.87 119.34 333.01 119.29 333.14C119.22 333.33 118.99 333.46 118.79 333.39C118.79 333.82 118.79 335.96 118.79 339.82C118.95 339.93 119.04 339.99 119.06 340C119.2 340.09 119.27 340.25 119.22 340.43C119.15 340.64 118.97 340.75 118.79 340.71C118.79 340.83 118.79 341.46 118.79 342.58C118.98 342.71 119.09 342.77 119.11 342.79C119.25 342.88 119.31 343.04 119.27 343.22C119.2 343.43 118.99 343.57 118.79 343.47C118.79 345.52 118.77 361.91 118.77 363.95C118.86 364.05 118.88 364.14 118.88 364.21C118.88 364.3 118.83 364.39 118.77 364.46C118.77 364.57 118.77 365.15 118.77 366.19C119.15 366.52 119.36 366.71 119.41 366.74C119.52 366.83 119.57 366.99 119.5 367.11C119.43 367.27 119.27 367.38 119.11 367.38C119.02 367.38 118.93 367.36 118.86 367.29C118.85 367.29 118.82 367.25 118.77 367.2C118.77 374.13 118.77 377.97 118.77 378.74C119.13 379.02 119.45 379.29 119.77 379.57C119.95 379.7 120 379.91 119.95 380.11C119.89 380.34 119.66 380.5 119.43 380.53C119.34 380.75 119.11 380.91 118.88 380.91C117.44 380.98 115.98 381.05 114.56 381.12C111.7 381.28 108.75 381.44 105.85 381.46C105.85 381.46 105.83 381.46 105.81 381.46C103.76 380.84 102.28 380.16 101.35 379.43ZM95.86 360.11L96.5 374.54C96.46 374.55 96.44 374.56 96.43 374.56C96.25 374.61 96.09 374.74 96.07 374.9C96.05 375.02 96.09 375.13 96.21 375.22C96.23 375.24 96.34 375.33 96.55 375.5C96.55 375.51 96.55 375.52 96.55 375.52C96.62 375.68 96.75 375.79 96.91 375.82C96.92 375.82 96.92 375.82 96.94 375.82C99.41 377.75 100.78 378.83 101.05 379.04C101.17 379.13 101.3 379.25 101.42 379.34C102.77 380.41 103.95 381.35 105.78 381.35C105.79 381.35 105.84 381.35 105.85 381.35C108.75 381.33 111.7 381.17 114.56 381.01C115.98 380.94 117.44 380.85 118.88 380.8C119.09 380.8 119.27 380.64 119.31 380.46C119.32 380.45 119.32 380.44 119.34 380.41C119.36 380.41 119.38 380.41 119.38 380.41C119.57 380.41 119.77 380.27 119.82 380.09C119.86 379.95 119.82 379.82 119.7 379.7C119.38 379.43 119.04 379.15 118.67 378.88C118.67 378.88 118.67 378.87 118.65 378.86L118.65 366.9C118.86 367.09 118.97 367.2 118.99 367.22C119.13 367.34 119.34 367.27 119.38 367.11C119.41 367.06 119.41 366.97 119.31 366.9C119.27 366.86 119.04 366.67 118.63 366.31L118.63 364.43C118.64 364.42 118.65 364.41 118.65 364.41C118.7 364.37 118.74 364.3 118.74 364.25C118.74 364.21 118.72 364.14 118.67 364.11C118.67 364.11 118.67 364.11 118.65 364.09L118.63 364.05L118.65 343.27C118.75 343.34 118.8 343.38 118.81 343.38C118.86 343.41 118.88 343.43 118.93 343.43C119.04 343.43 119.11 343.34 119.13 343.25C119.15 343.2 119.18 343.06 119.04 342.99C119.01 342.98 118.88 342.89 118.65 342.74L118.65 340.53C118.72 340.57 118.76 340.59 118.77 340.59C118.9 340.69 119.06 340.57 119.09 340.46C119.11 340.41 119.11 340.27 118.99 340.21C118.97 340.19 118.86 340.12 118.65 340L118.65 333.21C118.72 333.27 118.76 333.3 118.77 333.3C118.9 333.39 119.11 333.33 119.15 333.19C119.18 333.12 119.15 333.05 119.09 333.01C119.06 332.98 118.9 332.86 118.63 332.64C118.63 331.83 118.63 331.38 118.63 331.29C118.63 331.04 118.63 330.77 118.65 330.49C118.67 329.65 118.7 328.75 118.49 327.95C118.29 327.22 117.55 326.79 116.91 326.4C116.77 326.32 116.07 325.9 114.81 325.14L110.45 322.51C110.42 322.09 110.4 321.85 110.4 321.81C110.38 321.53 110.15 321.39 109.94 321.39C109.81 321.39 109.6 321.46 109.55 321.67C109.55 321.67 109.55 321.7 109.53 321.74C102.33 321.38 98.33 321.18 97.53 321.14C97.53 321.14 97.53 321.14 97.53 321.14C97.42 321.14 97.33 321.19 97.23 321.26C97.14 321.35 97.1 321.46 97.1 321.55C97.19 327.38 96.98 333.3 96.53 339.15C96.53 339.16 96.53 339.18 96.53 339.22C96.48 339.22 96.46 339.22 96.46 339.22C93.42 339.43 90.31 339.59 87.22 339.7C87.22 339.7 87.2 339.7 87.15 339.7C87.15 339.66 87.15 339.64 87.15 339.63C86.67 335.63 86.42 331.57 86.4 327.54C86.4 327.38 86.31 327.25 86.19 327.18C83.36 325.74 80.59 324.07 77.99 322.24C77.99 322.24 77.98 322.23 77.97 322.22C77.95 321.98 77.94 321.85 77.94 321.83C77.92 321.58 77.76 321.39 77.51 321.39C76.18 321.33 65.52 320.84 64.18 320.78C64.14 320.78 64.09 320.78 64.05 320.8C64.04 320.8 64.04 320.8 64.02 320.8C64.01 320.8 64 320.8 64 320.8C63.84 320.73 63.61 320.78 63.5 320.89C63.43 320.96 63.38 321.05 63.38 321.19C63.44 326.56 63.88 369.55 63.93 374.93C63.93 375.15 64.11 375.34 64.37 375.36C64.37 375.36 64.4 375.36 64.46 375.36C64.47 375.37 64.48 375.38 64.48 375.38C64.5 375.41 64.53 375.41 64.53 375.43C65.01 375.75 68.89 378.31 69.37 378.63C70.65 379.47 71.98 380.34 73.65 380.53C75.04 380.69 76.46 380.69 77.85 380.69C78.38 380.69 78.9 380.69 79.43 380.71C80.06 380.72 85.09 380.81 85.71 380.82C85.71 380.82 85.71 380.82 85.71 380.82C85.9 380.82 86.01 380.73 86.06 380.66C86.15 380.53 86.15 380.37 86.08 380.21C86.08 380.2 86.07 380.18 86.06 380.14C86.1 380.12 86.12 380.12 86.13 380.11C86.17 380.09 86.24 380.07 86.29 380.02C86.29 380.02 86.3 380 86.33 379.98C86.36 380 86.37 380.02 86.38 380.02C86.54 380.18 86.86 380.18 87.02 380.02C87.09 379.95 87.13 379.86 87.13 379.73C87.11 378.57 86.98 372.8 86.74 362.42C86.78 362.42 86.81 362.42 86.81 362.42C86.9 362.42 87.02 362.33 87.04 362.24C87.06 362.19 87.06 362.13 86.97 362.06C86.93 362.03 86.88 361.99 86.86 361.97C86.85 361.96 86.8 361.92 86.72 361.85C86.72 361.55 86.72 361.38 86.72 361.35C86.72 361.26 86.7 361.14 86.7 361.03C86.67 360.89 86.67 360.73 86.67 360.59C86.67 360.59 86.67 360.58 86.67 360.55C86.7 360.53 86.72 360.53 86.72 360.53C86.83 360.48 86.93 360.37 86.97 360.23C86.97 360.23 86.97 360.21 86.97 360.21C86.99 360.16 87.02 360.11 87.04 360.07C87.04 360.06 87.06 360 87.09 359.91L87.15 359.91L89.35 360C89.65 360.25 89.82 360.38 89.85 360.41C89.97 360.5 90.17 360.46 90.24 360.32C90.26 360.27 90.29 360.21 90.24 360.14C90.23 360.12 90.2 360.04 90.15 359.89L95.86 360.11ZM105.42 380.46C104.85 380.43 104.39 380.32 103.95 380.11C103.27 379.77 102.65 379.27 102.06 378.77C101.83 378.56 101.6 378.38 101.37 378.19C101.17 378.04 100.16 377.24 98.33 375.82C98.47 375.82 98.54 375.82 98.56 375.82C99.18 375.82 99.82 375.79 100.62 375.79C100.62 375.79 100.63 375.79 100.64 375.79L100.66 375.82L105.62 380.46C105.5 380.46 105.43 380.46 105.42 380.46ZM101.49 378.08C101.71 378.26 101.94 378.45 102.17 378.65C102.77 379.15 103.38 379.66 104.05 380C104.39 380.16 104.78 380.27 105.23 380.32C104.77 379.88 101.08 376.39 100.62 375.95C99.91 375.93 99.31 375.95 98.79 375.95C99.33 376.38 101.22 377.87 101.49 378.08ZM101.28 375.75C101.39 375.75 101.45 375.75 101.46 375.75C102.06 375.73 102.7 375.7 103.41 375.66C103.41 375.66 103.42 375.66 103.45 375.66C103.47 375.67 103.47 375.68 103.47 375.68C103.47 375.7 103.5 375.7 103.52 375.73C103.88 376.03 105.68 377.56 108.91 380.32C107.78 380.37 107.14 380.41 107.02 380.41C106.88 380.41 106.77 380.43 106.63 380.43C106.51 380.43 106.4 380.46 106.29 380.46C106.28 380.46 106.28 380.46 106.26 380.46L101.28 375.75ZM106.33 380.3C106.42 380.3 106.54 380.3 106.63 380.27C106.77 380.27 106.88 380.25 107.02 380.25C107.12 380.25 107.62 380.22 108.53 380.18C105.47 377.56 103.77 376.11 103.43 375.82C103.43 375.82 103.41 375.79 103.41 375.79C102.77 375.84 102.19 375.86 101.67 375.89C102.6 376.77 105.87 379.86 106.33 380.3ZM104.09 375.61C104.2 375.6 104.26 375.59 104.27 375.59C104.96 375.54 105.69 375.5 106.56 375.41C106.57 375.41 106.6 375.41 106.65 375.41C106.65 375.46 106.65 375.49 106.65 375.5C106.63 375.84 106.81 376.07 107.18 376.18C107.25 376.21 107.29 376.21 107.34 376.16C107.34 376.16 107.36 376.15 107.38 376.14L111.79 380.18L109.58 380.3L104.09 375.61ZM109.62 380.16L111.43 380.09C109 377.86 107.65 376.61 107.38 376.37C107.31 376.39 107.22 376.39 107.15 376.37C106.74 376.25 106.51 375.98 106.51 375.61C105.74 375.66 105.1 375.7 104.48 375.75C105.17 376.34 106.88 377.81 109.62 380.16ZM107.22 375.38C107.32 375.37 107.37 375.36 107.38 375.36C107.98 375.31 108.57 375.25 109.19 375.18C109.19 375.18 109.21 375.18 109.23 375.18C109.25 375.19 109.26 375.2 109.26 375.2C111.06 376.94 113.05 378.51 115.11 379.93C115.12 379.94 115.18 379.99 115.29 380.07L112.46 380.18L107.22 375.38ZM112.53 380.02C113.92 379.97 114.7 379.94 114.86 379.93C112.85 378.56 110.95 377.01 109.19 375.34C108.64 375.38 108.11 375.43 107.59 375.5C108.25 376.1 109.89 377.61 112.53 380.02ZM115.95 379.98C115.93 379.93 115.91 379.91 115.86 379.89C113.76 378.49 111.77 376.91 109.92 375.2C109.91 375.19 109.87 375.15 109.81 375.09C110.07 375.06 110.21 375.04 110.24 375.04C110.54 374.99 110.81 374.97 111.11 374.93C111.11 374.93 111.12 374.93 111.13 374.93C111.15 374.94 111.15 374.95 111.15 374.95C113.46 376.18 115.68 377.62 117.74 379.2C117.74 379.2 117.75 379.21 117.76 379.22L117.76 379.59C117.73 379.6 117.72 379.61 117.71 379.61C117.6 379.68 117.53 379.77 117.53 379.89C117.53 379.89 117.53 379.91 117.53 379.95L115.98 380.02C115.96 380 115.96 379.98 115.95 379.98ZM115.95 379.77C116 379.79 116.02 379.84 116.07 379.89C116.2 379.88 117.26 379.82 117.39 379.82C117.42 379.73 117.49 379.61 117.62 379.52C117.62 379.5 117.62 379.33 117.62 379.31C115.59 377.76 113.39 376.32 111.11 375.11C110.83 375.15 110.56 375.18 110.26 375.22C110.26 375.22 110.22 375.21 110.15 375.2C112.65 377.33 114.58 378.86 115.95 379.77ZM85.14 379.84C84.23 379.82 83.31 379.82 82.4 379.79C81.65 379.77 80.89 379.77 80.16 379.75C80.16 379.75 80.15 379.75 80.14 379.75C80.12 379.73 80.12 379.73 80.11 379.73C79.52 379.22 78.33 378.42 77.62 377.92C77.37 377.74 77.17 377.6 77.07 377.53C76.39 377.03 75.68 376.48 74.79 375.82C74.77 375.81 74.71 375.76 74.58 375.68C76.13 375.75 76.99 375.79 77.17 375.79C77.17 375.79 77.17 375.79 77.17 375.79C77.33 375.79 77.49 375.7 77.55 375.54C77.56 375.54 77.57 375.51 77.6 375.45C77.64 375.48 77.66 375.49 77.67 375.5C80.05 377.1 82.56 378.51 85.17 379.68C85.19 379.69 85.3 379.74 85.51 379.84C85.29 379.84 85.17 379.84 85.14 379.84ZM82.42 379.66C83.22 379.68 84 379.68 84.8 379.7C82.33 378.56 79.93 377.23 77.69 375.7C77.58 375.86 77.42 375.98 77.23 375.98C77.23 375.98 77.23 375.98 77.21 375.98C75.95 375.92 75.25 375.89 75.11 375.89C75.91 376.5 76.59 377.01 77.21 377.46C77.3 377.53 77.49 377.67 77.76 377.85C78.42 378.29 79.59 379.11 80.21 379.61C80.94 379.63 81.69 379.63 82.42 379.66ZM79.06 379.75C78.03 379.73 77.01 379.7 75.98 379.68C75.98 379.68 75.97 379.68 75.95 379.68C75.94 379.67 75.93 379.66 75.93 379.66C74.03 378.45 72.18 377.1 70.45 375.63C70.43 375.63 70.37 375.58 70.26 375.5L73.78 375.66C73.8 375.67 73.8 375.68 73.81 375.68C75.02 376.59 76.11 377.44 77.17 378.19C77.81 378.67 78.45 379.13 79.09 379.61C79.1 379.62 79.18 379.67 79.31 379.75C79.16 379.75 79.08 379.75 79.06 379.75ZM78.81 379.59C78.24 379.18 77.65 378.74 77.07 378.33C76.02 377.55 74.95 376.73 73.74 375.82C73.44 375.8 71.02 375.69 70.72 375.68C72.41 377.05 74.17 378.33 76 379.52C76.94 379.54 77.87 379.57 78.81 379.59ZM74.81 379.63L74.81 379.57L74.79 379.63C74.77 379.63 74.77 379.63 74.77 379.63C72.73 379.57 71.27 378.72 69.83 377.76C69.58 377.6 68.35 376.78 66.13 375.31L69.53 375.47C69.55 375.49 69.55 375.5 69.55 375.5C71.22 376.94 73.01 378.29 74.86 379.52C74.87 379.53 74.95 379.57 75.09 379.63L74.81 379.63ZM69.94 377.65C71.31 378.56 72.71 379.36 74.58 379.5C72.82 378.31 71.11 377.01 69.51 375.63C69.32 375.63 68.38 375.58 66.7 375.5C68.64 376.79 69.73 377.5 69.94 377.65ZM86.17 379.22C83.2 377.92 80.34 376.34 77.69 374.49C77.69 374.49 77.66 374.47 77.62 374.45L77.67 371.77C77.86 371.89 77.97 371.96 77.99 371.98C78.42 372.25 78.86 372.55 79.22 372.8C79.95 373.3 80.71 373.85 81.62 374.51C83.13 375.66 84.66 376.91 86.26 378.4C86.26 378.4 86.27 378.41 86.29 378.42L86.29 379.27C86.22 379.24 86.18 379.23 86.17 379.22ZM77.78 374.35C80.41 376.16 83.22 377.74 86.15 379.02C86.15 378.96 86.13 378.52 86.13 378.47C84.53 377.01 83.02 375.75 81.53 374.63C80.62 373.94 79.86 373.39 79.13 372.91C78.77 372.66 78.33 372.37 77.9 372.09C77.89 372.09 77.86 372.06 77.81 372.02L77.78 374.35C77.78 374.35 77.78 374.35 77.78 374.35ZM117.65 378.06C115.75 376.64 113.71 375.36 111.63 374.22C111.63 374.22 111.62 374.21 111.59 374.19C111.59 374.17 111.59 374.15 111.59 374.15C111.61 373.17 111.63 372.18 111.63 371.2C111.63 371.19 111.63 371.14 111.63 371.04C114.65 373.36 116.33 374.65 116.66 374.9C116.73 374.95 116.8 375.02 116.87 375.06C117.14 375.29 117.37 375.47 117.69 375.5C117.7 375.5 117.72 375.5 117.76 375.5L117.76 378.15C117.69 378.09 117.65 378.06 117.65 378.06ZM117.62 377.85C117.62 377.63 117.62 375.9 117.62 375.68C117.3 375.63 117.07 375.45 116.8 375.22C116.73 375.18 116.66 375.11 116.59 375.06C116.12 374.69 112.29 371.75 111.82 371.38C111.79 372.3 111.77 373.21 111.75 374.13C113.78 375.22 115.75 376.48 117.62 377.85ZM86.13 377.67C84.11 375.86 81.97 374.15 79.75 372.59C79.22 372.23 78.65 371.84 77.92 371.36C77.85 371.31 77.78 371.27 77.74 371.22C77.74 371.22 77.73 371.21 77.71 371.2L77.76 368.41C77.83 368.44 77.87 368.45 77.87 368.46C80.82 369.87 83.61 371.61 86.17 373.6C86.17 373.6 86.18 373.61 86.19 373.62L86.26 377.78C86.18 377.71 86.13 377.68 86.13 377.67ZM77.99 371.27C78.74 371.75 79.31 372.14 79.84 372.5C82.01 374.03 84.14 375.7 86.1 377.46C86.09 377.09 86.02 374.13 86.01 373.76C83.5 371.82 80.78 370.1 77.87 368.71C77.87 368.87 77.86 369.69 77.83 371.15C77.89 371.2 77.94 371.24 77.99 371.27ZM117.46 374.95C117.28 374.72 116.82 374.42 116.55 374.24C116.43 374.17 116.34 374.1 116.3 374.06C115.99 373.82 114.45 372.64 111.68 370.51C111.68 370.49 111.68 370.47 111.68 370.47C111.68 369.65 111.7 368.8 111.7 367.98C111.7 367.97 111.7 367.91 111.7 367.82L117.78 372.53L117.78 374.88C117.74 374.88 117.72 374.88 117.71 374.88C117.67 374.88 117.62 374.9 117.6 374.93C117.59 374.93 117.56 374.96 117.51 375.02C117.48 374.98 117.47 374.95 117.46 374.95ZM116.37 373.92C116.41 373.97 116.5 374.01 116.62 374.08C116.89 374.26 117.3 374.54 117.53 374.77C117.55 374.74 117.6 374.74 117.62 374.72C117.62 374.58 117.62 373.86 117.62 372.57C114.15 369.88 112.23 368.39 111.84 368.09C111.84 368.89 111.82 369.67 111.82 370.42C112.73 371.12 115.91 373.57 116.37 373.92ZM97.44 374.95C97.44 374.95 97.41 374.95 97.37 374.95C96.81 362.14 96.5 355.02 96.43 353.6C96.43 353.35 96.25 353.19 96 353.17C92.82 352.98 89.58 352.89 86.38 352.89C83.59 352.89 80.73 352.96 77.94 353.1C77.94 353.1 77.93 353.1 77.92 353.1C77.67 352.92 77.54 352.82 77.51 352.8C77.28 352.64 77.01 352.75 76.94 353.03C76.87 353.23 76.94 353.44 77.1 353.55C77.1 353.56 77.11 353.56 77.12 353.58L77.12 353.62L76.98 361.51C76.96 361.52 76.94 361.53 76.94 361.53C76.78 361.6 76.73 361.74 76.8 361.94C76.82 362.01 76.87 362.06 76.91 362.08C76.92 362.08 76.93 362.09 76.96 362.1L76.8 370.88C76.76 370.88 76.74 370.88 76.73 370.88C76.53 370.9 76.48 371.06 76.46 371.13C76.43 371.29 76.48 371.5 76.66 371.59C76.69 371.59 76.71 371.61 76.73 371.61C76.74 371.61 76.76 371.61 76.8 371.61L76.75 374.95L73.39 374.79C73.35 374.76 73.33 374.75 73.33 374.74C73.23 374.67 73.14 374.72 73.1 374.77C73.1 374.77 73.09 374.77 73.07 374.79L69.26 374.63C69.15 374.53 69.09 374.48 69.07 374.47C68.94 374.35 68.78 374.4 68.71 374.56C68.71 374.56 68.7 374.58 68.69 374.61L64.85 374.42L64.85 374.35L64.32 321.55L76.8 322.13C76.81 322.17 76.82 322.19 76.82 322.19C76.85 322.31 76.91 322.4 77.01 322.47C77.02 322.48 77.09 322.52 77.21 322.61C77.21 322.63 77.21 322.65 77.21 322.65C77.44 325.23 77.62 327.89 77.76 330.51C77.76 330.52 77.76 330.52 77.76 330.54C77.75 330.55 77.74 330.56 77.74 330.56C77.67 330.65 77.65 330.79 77.74 330.88C77.74 330.88 77.75 330.89 77.76 330.9C77.76 330.92 77.76 330.92 77.76 330.93C77.81 331.63 77.83 332.32 77.87 333.03C77.87 333.03 77.87 333.05 77.87 333.07C77.86 333.09 77.85 333.1 77.85 333.1C77.78 333.14 77.76 333.23 77.76 333.3C77.76 333.37 77.81 333.42 77.85 333.46C77.85 333.46 77.87 333.47 77.9 333.49C77.9 333.51 77.9 333.53 77.9 333.53C77.99 335.79 78.06 338.06 78.1 340.27C78.1 340.5 78.31 340.71 78.54 340.71C81.17 340.69 83.89 340.64 86.61 340.55C86.61 340.55 86.61 340.55 86.63 340.55C86.64 340.56 86.65 340.57 86.65 340.57C86.83 340.69 87.09 340.66 87.2 340.55C87.2 340.55 87.21 340.54 87.22 340.53C87.24 340.53 87.24 340.53 87.25 340.53C90.51 340.41 93.78 340.23 96.98 340C97.23 339.98 97.39 339.82 97.42 339.57C97.9 333.78 98.1 327.89 98.03 322.03C98.03 322.03 98.03 322 98.03 321.94L108.98 322.49C109 322.51 109 322.51 109.01 322.51C109.05 322.56 109.07 322.61 109.12 322.63C109.16 322.65 109.34 322.76 109.67 322.95C109.67 322.98 109.67 322.99 109.67 322.99C110.72 339.95 111.09 357.17 110.77 374.13C110.77 374.13 110.77 374.15 110.77 374.19C110.72 374.19 110.7 374.19 110.7 374.19C107.34 374.63 103.89 374.9 100.43 374.99C100.43 374.99 100.43 374.99 100.41 374.99C100.4 374.99 100.39 374.99 100.39 374.99C100.34 374.97 100.3 374.97 100.25 374.99C100.25 374.99 100.23 374.99 100.23 374.99C99.45 374.93 98.77 374.95 98.1 374.95C97.87 374.95 97.67 374.95 97.44 374.95ZM100.18 374.77C100.25 374.74 100.34 374.74 100.41 374.77C103.84 374.7 107.27 374.42 110.58 373.99C110.9 357.05 110.54 339.91 109.49 322.97C109.44 322.94 109.05 322.7 109.01 322.67C108.96 322.65 108.91 322.61 108.87 322.56C107.8 322.51 99.24 322.09 98.17 322.03C98.24 327.86 98.03 333.74 97.55 339.5C97.53 339.84 97.3 340.05 96.98 340.07C93.81 340.3 90.54 340.46 87.27 340.59C87.09 340.73 86.79 340.75 86.58 340.62C83.86 340.71 81.14 340.78 78.54 340.78C78.22 340.78 77.97 340.53 77.97 340.21C77.92 337.99 77.85 335.75 77.76 333.51C77.67 333.44 77.62 333.37 77.62 333.26C77.62 333.14 77.65 333.03 77.74 332.94C77.71 332.25 77.67 331.59 77.65 330.9C77.51 330.77 77.53 330.56 77.62 330.42C77.49 327.82 77.3 325.19 77.07 322.63C77.06 322.62 76.95 322.55 76.94 322.54C76.82 322.47 76.75 322.35 76.71 322.24C75.89 322.2 71.83 322.02 64.5 321.69L65.03 374.24C67.18 374.34 68.38 374.39 68.62 374.4C68.75 374.19 69.03 374.15 69.21 374.31C69.22 374.32 69.27 374.35 69.35 374.42C71.57 374.52 72.8 374.57 73.05 374.58C73.17 374.47 73.33 374.47 73.46 374.58C73.47 374.58 73.48 374.59 73.51 374.61L76.66 374.74C76.69 372.91 76.71 371.88 76.71 371.68C76.71 371.68 76.69 371.68 76.69 371.66C76.43 371.54 76.34 371.27 76.39 371.04C76.43 370.83 76.55 370.7 76.73 370.67C76.75 369.82 76.85 362.98 76.87 362.13C76.8 362.08 76.73 361.99 76.71 361.92C76.64 361.67 76.69 361.49 76.89 361.35C76.91 360.57 77.01 354.35 77.03 353.58C76.8 353.37 76.78 353.1 76.85 352.91C76.94 352.66 77.12 352.5 77.35 352.5C77.46 352.5 77.55 352.55 77.67 352.62C77.71 352.64 78 352.86 78.03 352.89C80.82 352.75 83.66 352.69 86.45 352.69C89.65 352.69 92.89 352.78 96.07 352.96C96.39 352.98 96.64 353.21 96.64 353.53C96.7 354.95 96.99 362.03 97.51 374.79C98.65 374.79 99.54 374.78 100.18 374.77ZM86.03 373.01C83.45 371.04 80.69 369.35 77.78 367.98C77.78 367.98 77.76 367.97 77.74 367.95L77.78 365.03C77.85 365.07 77.89 365.09 77.9 365.1C80.78 366.63 83.52 368.43 86.06 370.45C86.06 370.45 86.07 370.45 86.08 370.47L86.15 373.1C86.08 373.04 86.04 373.01 86.03 373.01ZM85.99 372.78C85.98 372.55 85.95 370.76 85.94 370.54C83.45 368.55 80.75 366.79 77.94 365.28C77.94 365.45 77.92 366.3 77.9 367.84C81.6 369.85 84.3 371.5 85.99 372.78ZM111.7 367.25C111.7 367.22 111.7 367.2 111.7 367.2C111.7 366.24 111.73 365.3 111.73 364.34C111.73 364.33 111.73 364.27 111.73 364.16C111.81 364.23 111.85 364.27 111.86 364.27C113.74 366.01 115.73 367.7 117.76 369.26C117.76 369.26 117.77 369.27 117.78 369.28L117.78 371.95L111.7 367.25ZM117.62 371.66C117.62 370.3 117.62 369.55 117.62 369.39C115.63 367.86 113.71 366.24 111.86 364.53C111.86 365.42 111.86 366.31 111.84 367.18C112.61 367.77 114.54 369.27 117.62 371.66ZM85.94 369.78C83.43 367.84 80.75 366.1 77.99 364.64C77.94 364.62 77.92 364.62 77.87 364.62C77.87 364.62 77.83 364.62 77.76 364.62L77.81 362.35L85.99 367.52L86.08 369.87C86 369.82 85.95 369.79 85.94 369.78ZM78.08 364.48C80.8 365.92 83.45 367.63 85.92 369.53C85.92 369.4 85.9 368.75 85.87 367.57L77.99 362.58L77.94 364.43C78 364.45 78.05 364.46 78.08 364.48ZM117.67 368.66C115.61 367.06 113.62 365.37 111.75 363.61C111.75 363.61 111.74 363.6 111.73 363.59C111.73 363.57 111.73 363.57 111.73 363.57C111.73 362.95 111.73 362.35 111.73 361.74C111.73 361.67 111.73 361.35 111.73 360.78L117.81 366.1L117.78 368.75C117.71 368.7 117.68 368.67 117.67 368.66ZM117.62 368.46C117.62 368.3 117.62 367.54 117.62 366.17L111.86 361.1C111.86 361.48 111.86 361.69 111.86 361.74C111.86 362.33 111.86 362.93 111.86 363.52C113.69 365.23 115.63 366.88 117.62 368.46ZM78.13 361.97C78.06 361.92 77.99 361.87 77.9 361.81C77.89 361.8 77.87 361.79 77.83 361.76L77.87 359.54C77.87 359.53 77.87 359.52 77.87 359.52C77.9 359.47 77.92 359.41 77.9 359.34C77.89 359.31 77.87 359.19 77.83 358.97L78.1 359.36L85.94 364.66L86.01 366.95C81.28 363.96 78.65 362.3 78.13 361.97ZM78.19 361.85C78.7 362.17 81.25 363.78 85.83 366.67L85.78 364.78C81.13 361.62 78.55 359.87 78.03 359.52C78.03 359.54 78.01 359.57 78.01 359.59C78.01 359.73 78 360.43 77.99 361.69C78.1 361.77 78.16 361.82 78.19 361.85ZM111.89 360.3C111.84 360.27 111.82 360.25 111.77 360.25C111.77 360.25 111.74 360.25 111.7 360.25C111.7 360.21 111.7 360.19 111.7 360.18C111.7 359.86 111.7 359.54 111.7 359.22C111.7 359.17 111.7 358.89 111.7 358.4L117.78 363.84L117.78 365.49C114.24 362.37 112.28 360.64 111.89 360.3ZM112 360.18C112.38 360.51 114.26 362.17 117.65 365.14L117.65 363.89L111.86 358.72C111.86 359.01 111.86 359.17 111.86 359.2C111.86 359.52 111.86 359.82 111.86 360.11C111.91 360.14 111.95 360.16 112 360.18ZM79.63 359.86C79.54 359.79 79.43 359.7 79.29 359.59C78.9 359.27 78.38 358.86 77.94 358.77C77.94 358.76 77.92 358.76 77.87 358.74L77.92 355.95C77.99 356 78.03 356.02 78.03 356.02C80.75 357.71 83.38 359.57 85.85 361.55C85.85 361.56 85.86 361.56 85.87 361.58L85.94 364.14C82.16 361.57 80.05 360.15 79.63 359.86ZM79.41 359.47C79.54 359.59 79.66 359.68 79.75 359.73C80.15 360 82.17 361.37 85.81 363.84C85.78 362.54 85.76 361.81 85.76 361.67C83.34 359.73 80.78 357.9 78.1 356.23C78.1 356.39 78.08 357.2 78.06 358.65C78.7 359 79.15 359.28 79.41 359.47ZM111.7 357.76C111.7 357.75 111.7 357.74 111.7 357.74C111.7 357.28 111.7 356.82 111.68 356.37C111.68 356.31 111.68 356.02 111.68 355.5C111.76 355.57 111.81 355.6 111.82 355.61C111.98 355.75 112.11 355.89 112.25 356C112.37 356.09 112.43 356.18 112.5 356.23C112.95 356.59 116.56 359.48 117.01 359.84C117.14 359.95 117.35 359.86 117.42 359.73C117.44 359.68 117.44 359.61 117.35 359.54C116.81 359.11 112.47 355.63 111.93 355.2C111.89 355.18 111.84 355.13 111.82 355.11C111.79 355.09 111.75 355.06 111.73 355.02C111.72 355.02 111.72 355.01 111.7 354.99C111.7 354.97 111.7 354.95 111.7 354.95C111.7 354.56 111.7 354.17 111.68 353.78C111.68 353.73 111.67 353.45 111.66 352.96C111.74 353.03 111.79 353.07 111.79 353.07C113.6 354.79 115.54 356.37 117.6 357.81C117.6 357.81 117.61 357.81 117.62 357.83C117.62 357.84 117.62 357.85 117.62 357.85C117.65 357.94 117.71 358.03 117.78 358.08C117.78 358.08 117.79 358.09 117.81 358.1L117.78 363.22L111.7 357.76ZM117.62 362.9C117.62 360.08 117.62 358.51 117.62 358.19C117.55 358.13 117.49 358.03 117.46 357.94C115.47 356.55 113.55 355.02 111.79 353.35C111.79 353.39 111.79 353.76 111.79 353.81C111.79 354.19 111.82 354.56 111.82 354.95C111.84 354.97 111.86 354.99 111.89 355.02C111.93 355.04 111.95 355.09 112 355.11C112.54 355.54 116.88 359.02 117.42 359.45C117.53 359.54 117.58 359.68 117.53 359.82C117.49 359.98 117.3 360.09 117.14 360.09C117.05 360.09 116.96 360.07 116.89 360C116.44 359.64 112.84 356.75 112.39 356.39C112.32 356.34 112.23 356.25 112.14 356.16C112.05 356.07 111.93 355.98 111.84 355.89C111.84 355.94 111.84 356.36 111.84 356.41C111.84 356.82 111.84 357.26 111.84 357.71C112.61 358.41 114.54 360.14 117.62 362.9ZM85.74 360.94C83.34 359.02 80.8 357.23 78.17 355.61C78.17 355.61 78.15 355.6 78.13 355.59C78.14 355.55 78.15 355.52 78.15 355.52C78.19 355.43 78.1 355.29 77.99 355.22C77.99 355.22 77.97 355.21 77.94 355.2L77.97 354.17L85.85 359.95C85.85 359.98 85.85 360 85.85 360C85.83 360.18 85.85 360.39 85.87 360.57C85.87 360.66 85.9 360.75 85.9 360.85C85.9 360.86 85.89 360.92 85.87 361.03C85.79 360.97 85.75 360.94 85.74 360.94ZM85.71 360.69C85.71 360.64 85.71 360.62 85.71 360.57C85.71 360.39 85.69 360.21 85.69 360.02C85.19 359.65 82.67 357.8 78.13 354.47C78.13 354.85 78.13 355.07 78.13 355.11C78.26 355.2 78.33 355.36 78.31 355.5C80.87 357.07 83.36 358.81 85.71 360.69ZM93.46 359.18C93.45 359.16 93.44 359.16 93.44 359.15C91.5 357.26 89.37 355.47 87.15 353.9C87.14 353.89 87.07 353.84 86.95 353.76C87.09 353.76 87.16 353.76 87.18 353.76C87.86 353.76 88.57 353.76 89.26 353.78C89.26 353.78 89.27 353.78 89.28 353.78C89.29 353.8 89.3 353.8 89.3 353.81C89.35 353.85 89.42 353.92 89.49 353.97C89.55 354.03 89.62 354.08 89.67 354.15C90.22 354.67 90.81 355.25 91.57 355.93C92.71 356.96 93.94 358.01 95.34 359.11C95.35 359.12 95.42 359.16 95.54 359.25L93.46 359.18ZM95.09 359.06C93.76 358.01 92.57 357.01 91.5 356.02C90.74 355.34 90.15 354.77 89.6 354.22C89.53 354.15 89.49 354.1 89.42 354.06C89.37 354.01 89.3 353.97 89.26 353.92C88.66 353.92 88.05 353.9 87.45 353.9C89.6 355.43 91.63 357.17 93.53 358.99C93.84 359.01 94.93 359.06 95.09 359.06ZM89.01 358.99L82.7 353.78C82.82 353.78 82.89 353.78 82.9 353.78C83.98 353.76 85.05 353.74 86.15 353.74C86.15 353.74 86.16 353.74 86.17 353.74C86.19 353.75 86.19 353.76 86.19 353.76C88.46 355.31 90.65 357.07 92.66 358.99C92.67 359 92.71 359.05 92.78 359.13L89.01 358.99ZM92.39 358.97C90.42 357.12 88.32 355.41 86.1 353.9C85.1 353.9 84.09 353.92 83.11 353.92C83.51 354.25 85.49 355.89 89.07 358.83C91.06 358.92 92.17 358.96 92.39 358.97ZM79.02 353.9C79.14 353.9 79.21 353.9 79.22 353.9C80.05 353.85 80.91 353.83 81.97 353.81C81.97 353.81 81.97 353.81 81.99 353.81L82.9 354.56L88.23 358.97C87.06 358.93 86.42 358.91 86.29 358.9C86.17 358.9 86.1 358.93 86.01 358.99C86.01 359 86.01 359 86.01 359.02L79.02 353.9ZM86.01 358.83C86.1 358.77 86.22 358.74 86.33 358.74C86.33 358.74 86.34 358.74 86.35 358.74L87.82 358.79C84.29 355.88 82.33 354.27 81.94 353.94C81.01 353.97 80.21 353.99 79.47 354.03C80.78 354.99 85.36 358.35 86.01 358.83ZM95.68 358.79C94.67 357.99 93.67 357.17 92.75 356.37C92.27 355.93 91.75 355.47 91.11 354.86C90.83 354.61 90.56 354.33 90.31 354.08C90.29 354.06 90.19 353.97 90.01 353.81C90.12 353.81 90.18 353.81 90.19 353.81C90.88 353.83 91.57 353.85 92.23 353.87C92.23 353.87 92.25 353.87 92.25 353.87C93.67 354.58 94.7 355.77 95.7 357.03C95.7 357.03 95.71 357.04 95.73 357.05L95.82 358.88C95.73 358.83 95.69 358.79 95.68 358.79ZM90.38 353.94C90.65 354.22 90.93 354.47 91.2 354.72C91.86 355.34 92.37 355.79 92.85 356.23C93.74 357.01 94.67 357.78 95.63 358.56C95.63 358.41 95.57 357.24 95.57 357.1C94.58 355.86 93.58 354.7 92.21 354.01C91.61 353.97 90.99 353.94 90.38 353.94C90.38 353.94 90.38 353.94 90.38 353.94ZM117.67 357.33C115.57 355.84 113.55 354.19 111.7 352.39C111.68 352.37 111.68 352.37 111.66 352.37C111.66 352.36 111.65 352.36 111.63 352.34C111.63 352.32 111.63 352.3 111.63 352.3C111.63 352.02 111.63 351.77 111.61 351.5C111.61 351.45 111.6 351.22 111.59 350.81L117.78 355.52L117.78 357.42C117.71 357.36 117.68 357.33 117.67 357.33ZM111.79 352.3C113.6 354.06 115.57 355.68 117.62 357.12C117.62 357.02 117.62 356.52 117.62 355.61L111.75 351.13C111.75 351.35 111.75 351.47 111.75 351.5C111.77 351.75 111.77 352.02 111.77 352.27C111.78 352.28 111.79 352.29 111.79 352.3ZM95.57 356.07C95.04 355.43 94.33 354.63 93.46 354.01C93.45 354 93.38 353.96 93.26 353.87C93.41 353.87 93.49 353.87 93.51 353.87C94.29 353.9 94.95 353.94 95.54 353.97C95.55 353.97 95.57 353.97 95.61 353.97L95.7 356.25C95.62 356.14 95.57 356.08 95.57 356.07ZM95.54 355.82C95.54 355.65 95.48 354.29 95.47 354.13C94.93 354.1 94.38 354.08 93.74 354.06C94.47 354.61 95.06 355.27 95.54 355.82ZM111.59 350.24C111.59 350.21 111.59 350.2 111.59 350.19C111.57 349.46 111.57 348.71 111.54 347.98C111.54 347.95 111.54 347.8 111.54 347.54C111.63 347.69 111.67 347.78 111.68 347.79C111.91 348.16 112.3 348.5 112.66 348.8C112.8 348.91 112.91 349.01 113.03 349.12C113.49 349.53 113.99 349.94 114.65 350.49C115.57 351.22 116.59 351.93 117.74 352.64C117.74 352.64 117.76 352.65 117.78 352.66L117.78 354.97L111.59 350.24ZM117.65 354.67C117.65 353.51 117.65 352.86 117.65 352.73C116.48 352.02 115.47 351.31 114.56 350.61C113.9 350.08 113.37 349.65 112.94 349.23C112.82 349.14 112.71 349.03 112.57 348.91C112.27 348.66 111.93 348.39 111.7 348.09C111.7 348.78 111.73 349.49 111.75 350.17C112.53 350.77 114.5 352.27 117.65 354.67ZM117.67 352.05C115.93 350.95 114.31 349.71 112.82 348.34C112.75 348.27 112.66 348.18 112.57 348.07C112.3 347.77 111.93 347.34 111.59 347.27C111.58 347.27 111.56 347.26 111.52 347.25C111.52 347.2 111.52 347.18 111.52 347.18C111.5 346.45 111.47 345.71 111.47 345.01C111.47 345 111.47 344.94 111.47 344.85C111.54 344.9 111.58 344.93 111.59 344.94C113.62 346.33 115.59 347.79 117.44 349.28C117.51 349.35 117.6 349.35 117.69 349.3C117.7 349.3 117.74 349.28 117.81 349.26L117.78 352.11C117.71 352.07 117.68 352.05 117.67 352.05ZM112.69 347.93C112.78 348.05 112.87 348.14 112.94 348.21C114.38 349.55 115.95 350.77 117.62 351.84C117.62 351.6 117.62 349.72 117.62 349.49C117.51 349.51 117.42 349.46 117.33 349.39C115.52 347.93 113.6 346.51 111.61 345.14C111.63 345.81 111.66 346.47 111.68 347.11C112.05 347.22 112.43 347.63 112.69 347.93ZM117.67 348.89C115.68 347.29 113.6 345.76 111.5 344.32C111.5 344.32 111.49 344.31 111.47 344.3C111.47 344.27 111.47 344.25 111.47 344.25C111.45 343.68 111.45 343.11 111.43 342.54C111.43 342.47 111.42 342.12 111.41 341.49C111.49 341.55 111.53 341.59 111.54 341.6C113.62 343.27 115.73 344.91 117.76 346.47C117.76 346.47 117.78 346.49 117.78 346.49C117.79 346.49 117.8 346.5 117.83 346.51L117.83 346.56L117.78 348.98C117.71 348.93 117.68 348.9 117.67 348.89ZM117.65 348.66C117.65 348.45 117.65 346.79 117.65 346.58C117.65 346.58 117.65 346.58 117.62 346.58C115.61 345.05 113.55 343.45 111.52 341.83C111.52 341.9 111.54 342.47 111.54 342.54C111.57 343.09 111.59 343.66 111.61 344.21C113.69 345.62 115.7 347.11 117.65 348.66ZM117.67 345.85C115.57 344.25 113.44 342.61 111.36 340.91C111.36 340.91 111.35 340.91 111.34 340.89C111.34 340.86 111.34 340.85 111.34 340.85C111.31 340.48 111.31 340.11 111.29 339.73C111.29 339.68 111.28 339.42 111.27 338.97C111.3 338.96 111.31 338.95 111.31 338.95C111.43 338.9 111.5 338.81 111.54 338.7C111.54 338.69 111.55 338.66 111.57 338.61C111.61 338.62 111.63 338.63 111.63 338.63C111.79 338.7 111.95 338.79 112.07 338.9C112.45 339.15 114.35 340.37 117.78 342.58L117.78 345.94C117.71 345.89 117.68 345.86 117.67 345.85ZM117.65 345.65C117.65 345.45 117.65 344.47 117.65 342.7C114.26 340.52 112.38 339.31 112 339.06C111.89 338.97 111.77 338.9 111.66 338.86C111.61 338.97 111.52 339.06 111.43 339.11C111.43 339.17 111.45 339.68 111.45 339.75C111.47 340.11 111.47 340.48 111.5 340.82C113.53 342.45 115.59 344.07 117.65 345.65ZM112.98 338.97C112.87 338.9 112.75 338.81 112.62 338.72C112.23 338.42 111.77 338.1 111.31 338.1C111.31 338.1 111.29 338.1 111.25 338.1C111.25 338.06 111.25 338.04 111.25 338.03C111.22 337.49 111.2 336.91 111.18 336.37C111.18 336.32 111.17 336.1 111.15 335.7L117.81 339.91L117.81 342.08C114.91 340.21 113.3 339.18 112.98 338.97ZM112.69 338.61C112.82 338.7 112.94 338.79 113.05 338.86C113.36 339.05 114.89 340.04 117.65 341.81L117.65 339.98L111.31 335.98C111.33 336.2 111.34 336.32 111.34 336.34C111.36 336.87 111.38 337.42 111.38 337.94C111.86 337.99 112.3 338.31 112.69 338.61ZM78.93 339.7C78.9 338.9 78.88 338.1 78.86 337.3C78.86 337.3 78.86 337.26 78.86 337.19C78.93 337.22 78.96 337.23 78.97 337.23C80.14 337.81 81.21 338.56 82.17 339.47C82.29 339.59 82.49 339.52 82.54 339.38C82.56 339.34 82.58 339.25 82.49 339.15C81.44 338.13 80.23 337.3 78.88 336.71C78.88 336.71 78.86 336.7 78.83 336.69C78.83 336.66 78.83 336.64 78.83 336.64C78.81 335.79 78.77 334.95 78.74 334.1C78.74 334.09 78.74 334.05 78.74 333.97C78.81 334.01 78.85 334.03 78.86 334.03C79.68 334.56 80.5 335.13 81.28 335.7C82.81 336.8 84.39 337.94 86.17 338.63C86.17 338.63 86.19 338.64 86.22 338.65C86.23 338.82 86.24 338.91 86.24 338.93C86.26 339.15 86.29 339.36 86.31 339.59C86.31 339.59 86.31 339.63 86.31 339.68C86.25 339.68 86.22 339.68 86.22 339.68C83.77 339.77 81.33 339.82 78.97 339.84C78.97 339.84 78.95 339.81 78.93 339.77C78.93 339.73 78.93 339.71 78.93 339.7ZM79.06 339.63C80.05 339.63 81.05 339.61 82.06 339.59C82.06 339.59 82.06 339.59 82.06 339.59C81.17 338.67 80.14 337.97 79.02 337.42C79.04 338.15 79.06 338.88 79.06 339.63ZM82.61 339.02C82.72 339.13 82.74 339.27 82.7 339.41C82.67 339.45 82.63 339.52 82.61 339.54C83.79 339.52 84.98 339.47 86.19 339.45C86.17 339.27 86.15 339.06 86.13 338.88C86.12 338.86 86.11 338.72 86.1 338.7C84.32 337.99 82.74 336.87 81.21 335.77C80.48 335.25 79.7 334.7 78.93 334.19C78.95 334.99 78.97 335.77 78.99 336.55C80.34 337.17 81.55 337.99 82.61 339.02ZM111.13 335.13C111.13 335.1 111.13 335.09 111.13 335.09C111.09 334.01 111.04 332.96 110.99 331.89C110.99 331.87 110.99 331.81 110.99 331.7C111.08 331.79 111.12 331.83 111.13 331.84C113.17 333.76 115.41 335.5 117.78 336.96C117.79 336.96 117.8 336.97 117.83 336.98L117.81 339.36L111.13 335.13ZM117.65 339.06C117.65 337.86 117.65 337.19 117.65 337.05C115.31 335.61 113.14 333.94 111.15 332.07C111.2 333.07 111.25 334.06 111.27 335.04C112.12 335.58 114.24 336.92 117.65 339.06ZM86.06 338.06C84.39 337.37 82.9 336.3 81.46 335.25C80.59 334.61 79.7 333.97 78.77 333.42C78.76 333.42 78.75 333.41 78.72 333.39C78.72 333.37 78.72 333.35 78.72 333.35C78.7 332.73 78.65 332.11 78.63 331.5C78.63 331.49 78.63 331.44 78.63 331.36C82.77 333.75 85.07 335.07 85.53 335.34C85.62 335.41 85.74 335.36 85.78 335.31C85.79 335.31 85.83 335.27 85.9 335.2C85.91 335.3 85.92 335.35 85.92 335.36C85.99 336.23 86.08 337.12 86.17 337.97C86.17 337.97 86.17 338.02 86.17 338.1C86.1 338.08 86.06 338.06 86.06 338.06ZM81.55 335.13C82.95 336.14 84.39 337.19 85.99 337.87C85.9 337.1 85.83 336.3 85.76 335.52C85.67 335.57 85.55 335.54 85.44 335.5C84.77 335.11 79.43 332.04 78.77 331.66C78.81 332.18 78.86 332.73 78.88 333.3C79.79 333.85 80.69 334.51 81.55 335.13ZM117.69 336.39C115.31 334.88 113.1 333.14 111.09 331.2C111.06 331.18 111.04 331.15 110.99 331.15C110.99 331.15 110.98 331.15 110.95 331.13C110.95 331.1 110.95 331.09 110.95 331.09C110.93 330.77 110.93 330.45 110.9 330.13C110.9 330.07 110.88 329.81 110.86 329.33C110.94 329.41 110.99 329.45 110.99 329.46C113.07 331.47 115.34 333.33 117.71 334.97C117.74 334.97 117.74 334.99 117.76 334.99C117.76 335 117.78 335 117.81 335.02L117.81 336.46C117.74 336.42 117.7 336.39 117.69 336.39ZM111.18 331.06C113.14 332.98 115.31 334.7 117.65 336.16C117.65 336.05 117.65 335.19 117.65 335.09C117.65 335.09 117.62 335.06 117.62 335.06C115.29 333.44 113.07 331.63 111.04 329.67C111.04 329.71 111.06 330.04 111.06 330.08C111.06 330.4 111.09 330.7 111.09 330.99C111.11 331.02 111.15 331.04 111.18 331.06ZM78.61 330.81C78.61 330.78 78.61 330.77 78.61 330.77C78.56 329.99 78.51 329.23 78.47 328.46C78.47 328.45 78.47 328.4 78.47 328.32C82.67 330.79 85 332.16 85.46 332.43C85.53 332.46 85.58 332.48 85.65 332.46C85.65 332.46 85.68 332.45 85.74 332.43C85.74 332.49 85.74 332.52 85.74 332.53C85.78 333.42 85.83 334.17 85.87 334.88C85.88 334.89 85.88 334.93 85.9 335.02L78.61 330.81ZM85.71 334.74C85.67 334.1 85.62 333.42 85.58 332.62C85.51 332.62 85.44 332.59 85.37 332.57C84.69 332.17 79.28 328.99 78.61 328.59C78.67 329.3 78.72 330.01 78.74 330.72C80.14 331.52 85.02 334.34 85.71 334.74ZM117.69 334.38C115.34 332.71 113.1 330.83 111.02 328.82C110.97 328.78 110.95 328.78 110.9 328.75C110.9 328.75 110.88 328.75 110.83 328.75C110.83 328.71 110.83 328.69 110.83 328.69C110.77 327.38 110.7 326.03 110.61 324.69C110.61 324.67 110.61 324.61 110.61 324.5C110.69 324.59 110.73 324.63 110.74 324.64C113.01 326.77 115.38 328.82 117.78 330.74C117.78 330.74 117.79 330.75 117.81 330.77L117.81 330.81L117.81 331.84C114.05 328.85 111.96 327.19 111.54 326.86C111.41 326.74 111.2 326.83 111.13 326.97C111.11 327.02 111.11 327.09 111.2 327.15C111.64 327.5 113.83 329.26 117.78 332.41L117.81 334.47C117.74 334.41 117.7 334.38 117.69 334.38ZM111.11 328.71C113.14 330.7 115.34 332.53 117.65 334.17C117.65 334.06 117.65 333.5 117.65 332.5C113.72 329.38 111.54 327.64 111.11 327.29C110.99 327.2 110.95 327.06 110.99 326.93C111.04 326.77 111.22 326.65 111.38 326.65C111.47 326.65 111.57 326.67 111.63 326.74C112.04 327.06 114.04 328.65 117.65 331.52C117.65 331.11 117.65 330.88 117.65 330.83C115.29 328.96 112.98 326.95 110.77 324.87C110.83 326.15 110.9 327.41 110.97 328.62C111.02 328.64 111.06 328.66 111.11 328.71ZM78.42 327.77C78.42 327.74 78.42 327.73 78.42 327.73C78.38 327.11 78.33 326.51 78.31 325.9C78.31 325.89 78.31 325.84 78.31 325.76C78.38 325.8 78.42 325.82 78.42 325.83C80.66 327.18 82.97 328.39 85.33 329.49C85.39 329.51 85.46 329.51 85.51 329.49C85.52 329.48 85.55 329.47 85.62 329.44C85.62 329.51 85.62 329.55 85.62 329.55C85.65 330.35 85.67 331.15 85.71 331.91C85.71 331.92 85.71 331.97 85.71 332.07L78.42 327.77ZM85.53 331.79C85.51 331.11 85.49 330.38 85.46 329.67C85.39 329.67 85.33 329.67 85.26 329.65C82.95 328.59 80.66 327.38 78.45 326.06C78.49 326.58 78.54 327.13 78.56 327.68C79.95 328.5 84.83 331.38 85.53 331.79ZM117.69 330.1C115.31 328.18 113.03 326.17 110.86 324.14C110.81 324.09 110.74 324.07 110.67 324.07C110.67 324.07 110.64 324.08 110.58 324.09L110.54 323.43C113.77 325.38 115.57 326.46 115.93 326.67C116.27 326.88 116.59 327.09 116.94 327.27C117.67 327.73 117.81 328.27 117.81 329.14C117.81 329.39 117.81 329.65 117.81 329.9C117.81 329.92 117.81 330.02 117.81 330.19C117.74 330.14 117.7 330.11 117.69 330.1ZM110.97 324.02C113.1 326.03 115.34 328 117.67 329.87C117.67 329.65 117.67 329.39 117.67 329.17C117.67 328.32 117.53 327.82 116.87 327.41C116.55 327.2 116.21 326.99 115.86 326.81C115.52 326.6 113.81 325.57 110.72 323.7L110.72 323.91C110.84 323.94 110.93 323.98 110.97 324.02ZM85.49 329.07C83.06 327.98 80.69 326.7 78.42 325.33C78.38 325.3 78.35 325.3 78.31 325.3C78.3 325.3 78.28 325.3 78.24 325.3C78.24 325.26 78.24 325.24 78.24 325.23C78.19 324.62 78.15 324 78.1 323.38C78.1 323.37 78.09 323.32 78.08 323.22C78.16 323.28 78.21 323.31 78.22 323.31C80.55 324.91 83.02 326.38 85.55 327.68C85.56 327.68 85.57 327.69 85.6 327.7C85.6 327.73 85.6 327.75 85.6 327.75C85.6 328.16 85.6 328.59 85.62 329.01C85.62 329.01 85.61 329.05 85.6 329.12C85.53 329.09 85.49 329.08 85.49 329.07ZM78.49 325.19C80.73 326.54 83.06 327.77 85.42 328.87C85.42 328.5 85.39 328.14 85.39 327.77C82.93 326.49 80.53 325.05 78.22 323.5C78.31 324.05 78.35 324.59 78.38 325.14C78.42 325.14 78.47 325.17 78.49 325.19Z" id="c7xSAQuO59"></path></defs><g><g><g><use xlink:href="#a1XoXxSdlR" opacity="1" fill="#000000" fill-opacity="1"></use><g><use xlink:href="#a1XoXxSdlR" opacity="1" fill-opacity="0" stroke="#000000" stroke-width="1" stroke-opacity="0"></use></g></g><g><use xlink:href="#c7xSAQuO59" opacity="1" fill="#180f0b" fill-opacity="1"></use><g><use xlink:href="#c7xSAQuO59" opacity="1" fill-opacity="0" stroke="#000000" stroke-width="1" stroke-opacity="0"></use></g></g></g></g></svg>