<?xml version="1.0" ?><svg id="图层_1" style="enable-background:new -239 241 32 32;" version="1.1" viewBox="-239 241 32 32" xml:space="preserve" xmlns="http://www.w3.org/2000/svg" xmlns:xlink="http://www.w3.org/1999/xlink"><style type="text/css">
	.st0{fill:#F42F42;}
	.st1{opacity:0.2038;fill:#332E0A;enable-background:new    ;}
	.st2{fill:none;stroke:#0A2933;stroke-linejoin:round;}
	.st3{fill:none;stroke:#FFFFFF;stroke-linecap:round;stroke-linejoin:round;stroke-dasharray:1,2,6,2,3;}
</style><path class="letter-fill" d="M-221.3,251v12.9c0,0.9-0.2,1.6-0.6,2s-1,0.7-1.6,0.7c-0.7,0-1.2-0.2-1.6-0.7c-0.4-0.5-0.6-1.1-0.6-2v-12.8  c0-0.9,0.2-1.6,0.6-2c0.4-0.4,0.9-0.7,1.6-0.7c0.7,0,1.2,0.2,1.6,0.7S-221.3,250.2-221.3,251z M-223.5,246.4c-0.6,0-1.2-0.2-1.6-0.6  s-0.7-0.9-0.7-1.6c0-0.6,0.2-1.2,0.7-1.6c0.5-0.4,1-0.6,1.6-0.6c0.6,0,1.1,0.2,1.5,0.6c0.4,0.4,0.7,0.9,0.7,1.6  c0,0.7-0.2,1.2-0.7,1.6C-222.4,246.2-222.9,246.4-223.5,246.4z"/><path class="st1" d="M-221.3,262.3v1.6c0,0.9-0.2,1.6-0.6,2s-1,0.7-1.6,0.7c-0.7,0-1.2-0.2-1.6-0.7  c-0.4-0.5-0.6-1.1-0.6-2v-1.6c0,0.9,0.2,1.5,0.6,2c0.4,0.5,0.9,0.7,1.6,0.7c0.7,0,1.2-0.2,1.6-0.7  C-221.5,263.9-221.3,263.2-221.3,262.3z" id="Combined-Shape"/><path class="letter-border" d="M-221.3,251v12.9c0,0.9-0.2,1.6-0.6,2s-1,0.7-1.6,0.7c-0.7,0-1.2-0.2-1.6-0.7c-0.4-0.5-0.6-1.1-0.6-2v-12.8  c0-0.9,0.2-1.6,0.6-2c0.4-0.4,0.9-0.7,1.6-0.7c0.7,0,1.2,0.2,1.6,0.7S-221.3,250.2-221.3,251z M-223.5,246.4c-0.6,0-1.2-0.2-1.6-0.6  s-0.7-0.9-0.7-1.6c0-0.6,0.2-1.2,0.7-1.6c0.5-0.4,1-0.6,1.6-0.6c0.6,0,1.1,0.2,1.5,0.6c0.4,0.4,0.7,0.9,0.7,1.6  c0,0.7-0.2,1.2-0.7,1.6C-222.4,246.2-222.9,246.4-223.5,246.4z"/><path class="st3" d="M-224.8,250.9v5.6" id="Path-11"/></svg>