<?xml version="1.0" ?><svg id="图层_1" style="enable-background:new -239 241 32 32;" version="1.1" viewBox="-239 241 32 32" xml:space="preserve" xmlns="http://www.w3.org/2000/svg" xmlns:xlink="http://www.w3.org/1999/xlink"><style type="text/css">
	.st0{fill:#F42F42;}
	.st1{opacity:0.2038;fill:#332E0A;enable-background:new    ;}
	.st2{fill:none;stroke:#0A2933;stroke-linejoin:round;}
	.st3{fill:none;stroke:#FFFFFF;stroke-linecap:round;stroke-linejoin:round;stroke-dasharray:1,2,6,2,3;}
</style><path class="st0" d="M-218.2,250.9v14.3c0,1,0,1.9-0.1,2.5c-0.1,0.6-0.2,1.1-0.3,1.4c-0.7,1.8-2.2,2.7-4.5,2.7  c-1.3,0-2.2-0.2-2.9-0.5c-0.7-0.4-1-0.9-1-1.5c0-0.5,0.1-0.9,0.4-1.2c0.3-0.3,0.7-0.5,1.2-0.5c0.1,0,0.2,0,0.3,0  c0.1,0,0.3,0,0.6,0.1c0.3,0,0.5,0,0.6,0c0.6,0,0.9-0.2,1.1-0.7c0.2-0.4,0.3-1.2,0.3-2.4v-14.2c0-0.8,0.2-1.5,0.6-1.9  c0.4-0.4,0.9-0.6,1.5-0.6c0.6,0,1.1,0.2,1.5,0.6S-218.2,250.1-218.2,250.9z M-220.3,246.5c-0.6,0-1.1-0.2-1.5-0.5  c-0.4-0.4-0.6-0.9-0.6-1.5c0-0.6,0.2-1.1,0.6-1.5c0.4-0.4,0.9-0.6,1.5-0.6c0.5,0,1,0.2,1.5,0.5s0.6,0.9,0.6,1.5  c0,0.6-0.2,1.2-0.6,1.5C-219.3,246.3-219.8,246.5-220.3,246.5z"/><path class="st1" d="M-218.2,263.3v2c0,1,0,1.9-0.1,2.5c-0.1,0.6-0.2,1.1-0.3,1.4c-0.7,1.8-2.2,2.7-4.5,2.7  c-1.3,0-2.2-0.2-2.9-0.5c-0.7-0.4-1-0.9-1-1.5c0-0.4,0.1-0.8,0.3-1c0.2,0.2,0.4,0.4,0.7,0.6c0.7,0.4,1.6,0.5,2.9,0.5  c2.3,0,3.8-0.9,4.5-2.7c0.1-0.3,0.2-0.8,0.3-1.4C-218.3,265.1-218.2,264.3-218.2,263.3z" id="Combined-Shape"/><path class="st2" d="M-218.2,250.9v14.3c0,1,0,1.9-0.1,2.5c-0.1,0.6-0.2,1.1-0.3,1.4c-0.7,1.8-2.2,2.7-4.5,2.7  c-1.3,0-2.2-0.2-2.9-0.5c-0.7-0.4-1-0.9-1-1.5c0-0.5,0.1-0.9,0.4-1.2c0.3-0.3,0.7-0.5,1.2-0.5c0.1,0,0.2,0,0.3,0  c0.1,0,0.3,0,0.6,0.1c0.3,0,0.5,0,0.6,0c0.6,0,0.9-0.2,1.1-0.7c0.2-0.4,0.3-1.2,0.3-2.4v-14.2c0-0.8,0.2-1.5,0.6-1.9  c0.4-0.4,0.9-0.6,1.5-0.6c0.6,0,1.1,0.2,1.5,0.6S-218.2,250.1-218.2,250.9z M-220.3,246.5c-0.6,0-1.1-0.2-1.5-0.5  c-0.4-0.4-0.6-0.9-0.6-1.5c0-0.6,0.2-1.1,0.6-1.5c0.4-0.4,0.9-0.6,1.5-0.6c0.5,0,1,0.2,1.5,0.5s0.6,0.9,0.6,1.5  c0,0.6-0.2,1.2-0.6,1.5C-219.3,246.3-219.8,246.5-220.3,246.5z"/><path class="st3" d="M-221,252v7" id="Path-12"/></svg>