<?xml version="1.0" ?><svg id="图层_1" style="enable-background:new -239 241 32 32;" version="1.1" viewBox="-239 241 32 32" xml:space="preserve" xmlns="http://www.w3.org/2000/svg" xmlns:xlink="http://www.w3.org/1999/xlink"><style type="text/css">
	.st0{fill:#F42F42;}
	.st1{opacity:0.2038;fill:#332E0A;enable-background:new    ;}
	.st2{fill:none;stroke:#0A2933;stroke-linejoin:round;}
	.st3{fill:none;stroke:#FFFFFF;stroke-linecap:round;stroke-linejoin:round;stroke-dasharray:1,2,6,2,3;}
</style><path class="st0" d="M-219.7,264.6l-3.9-6.4l-2.4,2.3v3.5c0,0.9-0.2,1.5-0.7,2c-0.4,0.5-1,0.7-1.5,0.7c-0.7,0-1.2-0.2-1.6-0.7  c-0.4-0.5-0.6-1.1-0.6-2v-18.8c0-1,0.2-1.7,0.6-2.2c0.4-0.5,0.9-0.8,1.6-0.8c0.7,0,1.2,0.2,1.6,0.7c0.4,0.5,0.6,1.1,0.6,2.1v10.7  l5-5.2c0.6-0.6,1.1-1.1,1.4-1.3c0.3-0.2,0.7-0.4,1.2-0.4c0.6,0,1,0.2,1.4,0.5c0.4,0.4,0.6,0.8,0.6,1.3c0,0.6-0.6,1.5-1.8,2.6  l-2.3,2.2l4.5,7.1c0.3,0.5,0.6,0.9,0.7,1.2c0.1,0.3,0.2,0.5,0.2,0.8c0,0.7-0.2,1.3-0.6,1.7s-0.9,0.6-1.5,0.6c-0.5,0-1-0.1-1.2-0.4  C-218.8,265.8-219.2,265.3-219.7,264.6z"/><path class="st1" d="M-226,262.4v1.5c0,0.9-0.2,1.5-0.7,2c-0.4,0.5-1,0.7-1.5,0.7c-0.7,0-1.2-0.2-1.6-0.7  c-0.4-0.5-0.6-1.1-0.6-2v-1.5c0,0.9,0.2,1.6,0.6,2c0.4,0.5,0.9,0.7,1.6,0.7c0.6,0,1.1-0.2,1.5-0.7C-226.2,263.9-226,263.2-226,262.4  L-226,262.4z" id="Combined-Shape"/><path class="st1" d="M-223.7,258.3l0.2-0.3l3.8,5.1c0.5,0.8,0.9,1.3,1.2,1.6c0.3,0.3,0.7,0.4,1.2,0.4  c0.6,0,1.1-0.2,1.5-0.6c0.2-0.2,0.3-0.4,0.4-0.7c0.1,0.2,0.1,0.4,0.1,0.6c0,0.7-0.2,1.3-0.6,1.7s-0.9,0.6-1.5,0.6  c-0.5,0-1-0.1-1.2-0.4c-0.3-0.3-0.7-0.8-1.2-1.6l-3.9-6.4L-223.7,258.3z" id="Combined-Shape_1_"/><path class="st2" d="M-219.7,264.6l-3.9-6.4l-2.4,2.3v3.5c0,0.9-0.2,1.5-0.7,2c-0.4,0.5-1,0.7-1.5,0.7c-0.7,0-1.2-0.2-1.6-0.7  c-0.4-0.5-0.6-1.1-0.6-2v-18.8c0-1,0.2-1.7,0.6-2.2c0.4-0.5,0.9-0.8,1.6-0.8c0.7,0,1.2,0.2,1.6,0.7c0.4,0.5,0.6,1.1,0.6,2.1v10.7  l5-5.2c0.6-0.6,1.1-1.1,1.4-1.3c0.3-0.2,0.7-0.4,1.2-0.4c0.6,0,1,0.2,1.4,0.5c0.4,0.4,0.6,0.8,0.6,1.3c0,0.6-0.6,1.5-1.8,2.6  l-2.3,2.2l4.5,7.1c0.3,0.5,0.6,0.9,0.7,1.2c0.1,0.3,0.2,0.5,0.2,0.8c0,0.7-0.2,1.3-0.6,1.7s-0.9,0.6-1.5,0.6c-0.5,0-1-0.1-1.2-0.4  C-218.8,265.8-219.2,265.3-219.7,264.6z"/><path class="st3" d="M-219.8,251.5l-4.3,4.3" id="Path-13"/></svg>