<?xml version="1.0" encoding="UTF-8" standalone="no"?>
<!DOCTYPE svg PUBLIC "-//W3C//DTD SVG 1.1//EN" "http://www.w3.org/Graphics/SVG/1.1/DTD/svg11.dtd">
<svg version="1.1" xmlns="http://www.w3.org/2000/svg" xmlns:xlink="http://www.w3.org/1999/xlink" preserveAspectRatio="xMidYMid meet" viewBox="257.34659251851207 321.782857142857 59.59417053579142 61.78111406379776" width="59.59" height="61.78"><defs><path d="M316.46 382.24C316.39 382.01 316.3 381.76 316.23 381.53C316.16 381.28 315.95 381.19 315.75 381.19C312.5 376.07 309.28 370.95 306.08 365.83C306.19 365.69 306.17 365.42 305.94 365.33C305.85 365.3 305.78 365.26 305.69 365.23C302.9 360.8 300.14 356.34 297.37 351.89C297.33 351.82 297.28 351.77 297.23 351.73C301.62 346.77 305.74 341.55 309.51 336.11C309.65 336.07 309.74 335.93 309.74 335.79C311.25 333.62 312.69 331.41 314.1 329.14C314.24 328.94 314.17 328.57 313.92 328.46C313.08 328.08 306.37 325.06 305.53 324.69C305.44 324.55 305.26 324.43 305.1 324.41C299.84 324 294.63 323.36 289.44 322.49C289.28 322.47 289.07 322.47 288.94 322.63C286.58 325.6 284.23 328.59 281.85 331.57C281.81 330.86 281.76 330.13 281.71 329.42C281.69 329.1 281.78 328.57 281.53 328.32C281.07 327.86 280.32 327.57 279.77 327.22C277.46 325.76 275.18 324.25 272.94 322.67C272.87 322.47 272.71 322.33 272.46 322.31C267.75 322.15 263.04 321.97 258.31 321.81C257.74 321.78 257.67 322.58 258.13 322.77C256.75 331.36 257.67 340.21 258.1 348.85C258.56 357.87 259.02 366.9 259.45 375.93C259.22 376.14 259.13 376.57 259.47 376.8C261.07 377.92 262.67 379.04 264.25 380.16C265.1 380.75 265.94 381.35 266.81 381.94C267.41 382.35 268 382.9 268.75 382.95C270.67 383.06 272.64 382.86 274.54 382.79C274.93 382.77 275.31 382.77 275.7 382.74C275.75 382.77 275.82 382.79 275.89 382.79C275.91 382.79 276.07 382.79 276.09 382.79C276.18 382.79 276.23 382.77 276.3 382.72C277.85 382.67 279.38 382.63 280.94 382.58C281.05 382.58 281.12 382.56 281.21 382.51C281.49 382.67 281.85 382.61 281.92 382.24C282.72 377.42 282.17 372.41 281.97 367.54C281.97 367.52 281.97 367.47 281.94 367.45C282.72 366.67 283.52 365.87 284.3 365.1C286.99 369.01 289.62 372.96 292.23 376.91C292.32 377.03 292.41 377.1 292.53 377.14C292.55 377.17 292.55 377.17 292.57 377.19C294.1 378.61 295.7 379.98 297.35 381.28C298.08 381.85 298.83 382.49 299.66 382.95C300.46 383.38 301.55 383.25 302.45 383.25C302.51 383.25 303.06 383.25 303.13 383.25C303.2 383.31 303.27 383.36 303.36 383.43C303.57 383.59 303.84 383.45 303.89 383.25C304.89 383.25 305.9 383.25 306.9 383.25C306.95 383.29 306.99 383.34 307.06 383.36C307.25 383.5 307.5 383.41 307.57 383.25C310.42 383.25 313.26 383.27 316.11 383.27C316.57 383.41 317.12 382.79 316.66 382.42C316.62 382.35 316.55 382.29 316.46 382.24ZM313.97 380.25C313.62 379.95 313.3 379.63 313.01 379.29C312.5 378.74 312 378.24 311.41 377.78C310.99 377.46 310.15 377.1 309.74 376.66C309.74 376.62 309.71 376.57 309.69 376.5C309.69 376.48 309.67 376.48 309.67 376.46C309.62 376.37 309.53 376.3 309.44 376.25C309.44 376.16 309.42 376.07 309.35 375.95C308.96 375.38 308.55 374.79 308.16 374.22C309.14 374.95 310.17 375.61 311.27 376.16C311.34 376.18 311.38 376.21 311.43 376.21C312.27 377.55 313.12 378.9 313.97 380.25ZM307.29 372.71C307.22 372.64 307.15 372.62 307.09 372.64C306.56 371.86 306.03 371.11 305.49 370.33C306.58 370.88 307.68 371.43 308.75 371.98C309.46 373.05 310.15 374.15 310.81 375.22C309.55 374.51 308.37 373.69 307.29 372.71ZM304.78 369.3C304.25 368.57 303.75 367.82 303.22 367.09C304.39 367.73 305.58 368.32 306.79 368.85C307.25 369.53 307.7 370.26 308.16 370.99C307.04 370.42 305.9 369.87 304.78 369.3ZM302.4 365.9C301.94 365.23 301.49 364.57 301.01 363.91C301.37 364.06 304.3 365.27 304.66 365.42C305.19 366.26 305.71 367.09 306.22 367.91C304.91 367.31 303.63 366.63 302.4 365.9ZM304.11 364.53C302.86 364 301.6 363.5 300.37 362.97C299.59 361.87 298.81 360.8 298.06 359.7C298.52 360 302.19 362.4 302.65 362.7C302.77 362.79 302.88 362.77 302.97 362.7C303.36 363.31 303.75 363.93 304.11 364.53ZM297.3 358.51C297.26 358.47 297.19 358.47 297.14 358.47C296.43 357.49 295.73 356.48 295.02 355.5C296.89 356.48 298.72 357.55 300.48 358.74C301.14 359.77 301.78 360.82 302.42 361.85C300.71 360.73 299.02 359.63 297.3 358.51ZM294.26 354.45C293.62 353.55 292.98 352.66 292.32 351.77C294.26 352.85 296.18 353.9 298.13 354.97C298.65 355.82 299.18 356.66 299.73 357.51C297.97 356.39 296.14 355.36 294.26 354.45ZM291.47 350.61C290.67 349.53 289.9 348.43 289.1 347.36C291.66 349.05 294.17 350.81 296.64 352.64C296.66 352.66 296.69 352.69 296.71 352.69C296.96 353.1 297.21 353.51 297.46 353.9C295.47 352.8 293.46 351.7 291.47 350.61ZM289.49 346.4C289.83 345.97 290.15 345.55 290.49 345.12C292.98 346.54 295.45 347.98 297.94 349.39C297.42 349.99 296.89 350.61 296.37 351.2C294.13 349.53 291.82 347.93 289.49 346.4ZM290.86 344.66C291.34 344.07 291.79 343.45 292.27 342.86C294.67 344.43 297.07 346.03 299.47 347.61C299.11 348.02 298.72 348.48 298.33 348.94C296.84 348.08 291.6 345.09 290.86 344.66ZM299.68 346.99C297.33 345.44 294.99 343.91 292.64 342.35C293.1 341.76 293.55 341.14 294.03 340.55C294.81 341.17 297.03 342.61 297.28 342.81C298.54 343.75 299.79 344.71 301.03 345.69C300.73 346.06 300.43 346.45 300.11 346.81C299.93 346.7 299.73 346.81 299.68 346.99ZM296.37 341.39C296.11 341.21 295.25 340.39 294.47 339.98C294.88 339.45 295.27 338.93 295.66 338.4C298.03 339.98 300.41 341.55 302.81 343.13C302.88 343.18 302.97 343.2 303.02 343.18C302.49 343.86 301.97 344.55 301.42 345.21C299.77 343.91 298.08 342.63 296.37 341.39ZM303.13 342.63C300.78 341.05 298.4 339.5 296.05 337.92C296.32 337.58 296.57 337.21 296.85 336.87C299.31 338.47 301.76 340.05 304.23 341.65C303.91 342.06 303.59 342.49 303.27 342.9C303.27 342.81 303.25 342.7 303.13 342.63ZM304.59 341.17C302.13 339.57 299.66 337.97 297.21 336.39C297.65 335.82 298.06 335.27 298.49 334.7C299.24 335.16 305.22 338.89 305.97 339.36C305.49 339.95 305.05 340.57 304.59 341.17C304.57 341.17 304.57 341.17 304.59 341.17ZM298.86 334.22C299.25 333.71 299.61 333.21 300 332.69C302.35 334.38 304.8 335.98 307.29 337.46C307.29 337.46 307.31 337.46 307.31 337.46C306.97 337.94 306.63 338.4 306.31 338.86C303.82 337.3 301.33 335.75 298.86 334.22ZM307.59 336.94C305.1 335.45 302.7 333.87 300.34 332.18C300.69 331.73 301.03 331.25 301.37 330.77C301.37 330.77 301.37 330.77 301.39 330.79C303.79 332.39 306.19 333.99 308.62 335.59C308.3 336.07 307.98 336.53 307.66 336.98C307.63 336.96 307.61 336.96 307.59 336.94ZM301.74 330.31C302.17 329.71 302.61 329.12 303.06 328.53C303.06 328.53 303.06 328.53 303.06 328.53C305.44 330.13 307.82 331.7 310.19 333.3C309.78 333.9 309.37 334.51 308.96 335.11C306.56 333.51 304.14 331.91 301.74 330.31ZM312.91 329.1C312.53 329.71 312.11 330.35 311.73 330.97C310.65 330.26 309.6 329.55 308.53 328.85C308 328.48 307.45 328.14 306.93 327.77C306.54 327.52 305.01 326.74 304.78 326.17C304.91 325.97 305.03 325.78 305.17 325.6C307.75 326.77 310.33 327.93 312.91 329.1ZM306.95 328.5C309.62 330.29 311.11 331.28 311.41 331.47C311.13 331.91 310.83 332.34 310.54 332.78C308.16 331.2 305.78 329.6 303.41 328.02C303.73 327.59 304.05 327.15 304.34 326.72C304.46 326.81 304.55 326.9 304.69 326.99C304.99 327.2 305.74 327.7 306.95 328.5ZM280.18 333.62C277.97 332.23 275.75 330.81 273.53 329.42C273.49 328.64 273.42 327.86 273.35 327.09C274.09 327.56 280.03 331.32 280.78 331.79C280.8 331.79 280.8 331.82 280.82 331.82C280.85 332.11 280.87 332.43 280.89 332.73C280.66 333.03 280.43 333.33 280.18 333.62ZM274.31 338.31C274.74 338.42 275.18 338.56 275.61 338.67C276 338.79 276.16 338.19 275.77 338.08C275.27 337.94 274.77 337.81 274.26 337.67C274.13 337.62 273.99 337.58 273.83 337.53C273.83 336.85 273.81 336.18 273.78 335.5C274.97 336.07 276.14 336.64 277.33 337.21C276.16 338.67 274.99 340.16 273.83 341.62C273.87 340.48 273.87 339.34 273.85 338.17C274.01 338.22 274.15 338.26 274.31 338.31ZM273.71 333.12C275.31 333.97 276.91 334.83 278.54 335.68C278.26 336.02 277.99 336.37 277.71 336.71C277.69 336.71 277.69 336.69 277.67 336.69C276.39 336.07 275.09 335.43 273.78 334.81C273.76 334.24 273.74 333.69 273.71 333.12ZM273.69 332.43C273.65 331.68 273.62 330.9 273.58 330.15C275.66 331.45 277.74 332.78 279.82 334.08C279.52 334.45 279.22 334.81 278.95 335.18C277.23 334.29 275.52 333.39 273.81 332.48C273.76 332.46 273.74 332.46 273.69 332.43ZM280.8 331.06C278.31 329.49 275.79 327.91 273.3 326.31C273.23 325.53 273.17 324.73 273.07 323.95C275.57 325.69 278.08 327.36 280.66 328.94C280.71 329.65 280.75 330.35 280.8 331.06ZM267.02 380.8C266.26 380.27 265.53 379.75 264.78 379.25C263.77 378.54 262.74 377.83 261.74 377.12C262.61 377.19 263.5 377.26 264.37 377.3C266.31 378.95 268.32 380.48 270.45 381.87C270.08 381.87 269.71 381.9 269.37 381.9C268.39 381.92 267.77 381.35 267.02 380.8ZM265.35 377.35C266.24 377.39 267.13 377.42 268.02 377.44C270.08 378.93 272.16 380.37 274.29 381.76C273.35 381.78 272.41 381.81 271.47 381.85C269.35 380.48 267.29 378.97 265.35 377.35ZM269.1 377.44C270.17 377.44 271.27 377.44 272.34 377.42C272.39 377.42 272.46 377.39 272.5 377.39C274.88 378.79 277.26 380.18 279.63 381.6C279.35 381.61 277.92 381.65 275.36 381.71C272.56 379.84 270.47 378.42 269.1 377.44ZM272.96 366.4C272.96 366.06 272.94 365.71 272.94 365.39C272.91 364.5 272.85 363.61 272.85 362.72C272.85 362.65 272.85 362.61 272.85 362.54C275.47 364.39 278.24 366.03 280.96 367.75C281.01 368.73 281.05 369.71 281.12 370.7C278.42 369.28 275.73 367.84 273.03 366.42C273.01 366.4 272.98 366.4 272.96 366.4ZM281.26 373.05C278.45 371.91 275.68 370.63 273.01 369.19C273.01 368.5 272.98 367.79 272.98 367.11C273.53 367.4 276.26 368.83 281.17 371.41C281.21 372.14 281.24 372.69 281.26 373.05ZM280.89 381.17C278.26 379.61 275.63 378.08 273.01 376.53C272.96 376.5 272.91 376.48 272.87 376.48C272.89 375.89 272.91 375.29 272.94 374.7C275.73 376.39 278.47 378.13 281.19 379.95C281.14 380.37 281.1 380.82 281.03 381.28C280.98 381.23 280.96 381.19 280.89 381.17ZM272.94 373.97C272.96 373.39 272.96 372.82 272.96 372.27C275.7 373.81 278.45 375.36 281.17 376.89C281.21 376.91 281.26 376.94 281.3 376.94C281.33 377.69 281.28 378.47 281.23 379.22C278.51 377.42 275.75 375.66 272.94 373.97ZM272.98 369.85C275.61 371.25 278.31 372.5 281.07 373.62C281.14 373.65 281.19 373.65 281.23 373.65C281.28 374.51 281.3 375.41 281.3 376.27C278.56 374.72 275.77 373.14 272.98 371.59C272.98 371.02 272.98 370.42 272.98 369.85ZM273.1 361.49C273.33 360.96 273.67 360.5 274.03 360.02C276.8 361.87 279.57 363.73 282.33 365.58C281.97 365.97 281.58 366.33 281.21 366.72C278.49 365.01 275.73 363.36 273.1 361.49ZM274.4 359.54C274.83 358.99 275.29 358.45 275.73 357.9C278.45 359.59 280.94 361.58 283.2 363.82C283.29 363.91 283.38 363.91 283.47 363.89C283.54 363.98 283.61 364.09 283.68 364.18C283.41 364.53 283.09 364.82 282.77 365.14C279.98 363.27 277.19 361.42 274.4 359.54ZM277.62 355.54C279.15 357.69 280.66 359.84 282.17 362.01C280.3 360.32 278.26 358.79 276.11 357.42C276.62 356.8 277.12 356.16 277.62 355.54ZM284.85 364.09C284.82 364.02 284.78 363.95 284.71 363.89C282.54 360.73 280.32 357.58 278.08 354.45C277.92 354.22 277.51 354.06 277.28 354.35C276 355.95 274.72 357.55 273.42 359.18C272.91 359.79 272.32 360.43 272.07 361.19C271.79 362.06 271.79 362.9 271.82 363.79C272 368 272 372.21 271.82 376.41C268.02 376.48 264.21 376.34 260.43 376C260 367.2 259.57 358.42 259.11 349.62C258.67 340.75 257.65 331.63 259.09 322.81C263.38 322.97 267.66 323.13 271.95 323.27C272.48 328.05 272.75 332.85 272.82 337.67C272.78 337.78 272.78 337.92 272.82 338.03C272.85 339.73 272.82 341.39 272.78 343.09C272.78 343.5 273.35 343.79 273.65 343.45C276.25 340.16 278.86 336.87 281.46 333.6C281.69 333.58 281.92 333.42 281.9 333.12C281.9 333.1 281.9 333.07 281.9 333.05C284.41 329.87 286.93 326.7 289.46 323.52C294.33 324.32 299.22 324.91 304.11 325.33C302.61 327.43 301.05 329.53 299.5 331.61C299.47 331.59 299.43 331.57 299.41 331.54C299.09 331.31 298.79 331.84 299.11 332.07C299.13 332.07 299.13 332.09 299.15 332.09C296.73 335.36 294.26 338.61 291.75 341.83C291.59 341.85 291.47 342.01 291.47 342.17C290.97 342.83 290.45 343.47 289.94 344.14C289.67 344.05 289.44 344.37 289.58 344.59C289.23 345.03 288.91 345.44 288.57 345.87C288.34 345.81 288.14 345.94 288.05 346.15C287.63 345.99 287.11 346.4 287.43 346.83C294.63 356.59 301.65 366.47 308.48 376.48C308.55 376.57 308.62 376.62 308.69 376.66C308.69 376.71 308.66 376.75 308.66 376.8C308.18 377.21 305.62 376.78 305.17 376.73C303.84 376.64 302.51 376.53 301.19 376.43C298.4 376.23 295.61 376.02 292.85 375.82C292.82 375.79 292.78 375.82 292.73 375.82C290.15 371.89 287.52 367.98 284.85 364.09ZM297.78 380.3C296.41 379.22 295.09 378.08 293.81 376.91C294.79 376.98 295.77 377.05 296.75 377.14C298.38 378.95 300.14 380.66 301.97 382.24C301.39 382.22 300.85 382.19 300.32 382.08C299.45 381.9 298.45 380.8 297.78 380.3ZM302.86 382.19C301.01 380.64 299.27 378.95 297.62 377.19C298.45 377.26 299.29 377.3 300.11 377.37C300.21 377.46 300.32 377.49 300.48 377.51C302.13 379.15 303.82 380.71 305.6 382.19C304.96 382.17 304.3 382.17 303.61 382.17C303.36 382.17 303.11 382.17 302.86 382.19ZM301.3 377.44C301.45 377.45 302.66 377.54 302.81 377.55C303.15 377.58 303.52 377.6 303.86 377.62C303.84 377.71 303.86 377.78 303.95 377.87C305.58 379.27 307.2 380.71 308.75 382.19C308.05 382.17 307.31 382.17 306.58 382.17C304.75 380.69 302.99 379.11 301.3 377.44ZM304.69 377.69C305.65 377.76 306.63 377.83 307.59 377.9C307.7 377.9 307.84 377.92 307.98 377.92C308 377.97 308.02 377.99 308.05 378.03C309.49 379.43 310.93 380.8 312.37 382.19C311.47 382.19 310.58 382.19 309.67 382.19C308.05 380.66 306.38 379.15 304.69 377.69ZM313.12 382.06C311.66 380.66 310.19 379.25 308.73 377.85C308.96 377.81 309.19 377.71 309.37 377.58C309.62 377.76 309.9 377.9 310.13 378.06C310.83 378.56 311.47 379.09 312.07 379.73C312.91 380.64 313.83 381.42 314.79 382.19C314.68 382.19 314.15 382.19 313.19 382.19C313.16 382.13 313.14 382.09 313.12 382.06Z" id="jtwayBLd7"></path><path d="M303.29 383.43C303.25 383.41 303.2 383.36 303.18 383.34C303.17 383.33 303.15 383.31 303.11 383.27C302.71 383.27 302.49 383.27 302.45 383.27C302.45 383.27 302.45 383.27 302.45 383.27C302.26 383.27 302.08 383.27 301.9 383.29C301.69 383.29 301.51 383.31 301.3 383.31C300.8 383.31 300.16 383.27 299.63 382.99C298.95 382.63 298.33 382.13 297.71 381.65C297.58 381.53 297.44 381.44 297.33 381.33C295.68 380.02 294.06 378.65 292.53 377.23C292.53 377.23 292.5 377.21 292.5 377.21C292.37 377.17 292.25 377.1 292.18 376.96C289.65 373.07 286.99 369.12 284.3 365.21C284.07 365.44 282.26 367.25 282.03 367.47C282.03 367.5 282.03 367.52 282.03 367.54C282.08 368.5 282.13 369.46 282.19 370.42C282.42 374.33 282.65 378.35 281.99 382.26C281.94 382.54 281.76 382.7 281.51 382.7C281.42 382.7 281.3 382.67 281.21 382.63C281.14 382.67 281.05 382.7 280.94 382.7C280.48 382.71 276.78 382.82 276.32 382.83C276.25 382.88 276.18 382.9 276.09 382.9C276.07 382.9 275.91 382.9 275.89 382.9C275.82 382.9 275.75 382.88 275.68 382.86C275.57 382.86 274.65 382.9 274.54 382.9C273.94 382.93 273.35 382.95 272.75 382.99C271.82 383.04 270.86 383.09 269.92 383.09C269.51 383.09 269.12 383.09 268.75 383.06C268.11 383.02 267.57 382.63 267.06 382.26C266.97 382.19 266.88 382.13 266.79 382.06C266.05 381.54 260.19 377.43 259.45 376.91C259.29 376.8 259.2 376.64 259.2 376.46C259.2 376.27 259.27 376.09 259.41 375.95C259.27 373.25 258.19 351.62 258.06 348.91C257.99 347.41 257.9 345.87 257.81 344.39C257.37 337.3 256.94 329.97 258.06 322.88C257.81 322.74 257.74 322.45 257.78 322.22C257.83 322.01 257.99 321.78 258.31 321.78C258.31 321.78 258.32 321.78 258.33 321.78C266.82 322.08 271.54 322.25 272.48 322.29C272.73 322.29 272.91 322.42 273.01 322.67C275.38 324.32 277.6 325.81 279.82 327.2C280 327.31 280.18 327.41 280.39 327.52C280.82 327.75 281.28 328 281.58 328.32C281.81 328.55 281.78 328.91 281.78 329.23C281.78 329.33 281.78 329.39 281.78 329.49C281.79 329.62 281.83 330.27 281.9 331.45C286.07 326.19 288.38 323.26 288.85 322.67C288.94 322.56 289.07 322.51 289.26 322.51C289.3 322.51 289.37 322.51 289.42 322.54C294.58 323.38 299.84 324.02 305.07 324.46C305.26 324.48 305.44 324.59 305.55 324.73C306.39 325.11 313.1 328.13 313.94 328.5C314.06 328.55 314.17 328.66 314.22 328.82C314.26 328.98 314.24 329.17 314.17 329.3C312.8 331.52 311.34 333.74 309.83 335.93C309.83 336.09 309.71 336.25 309.58 336.3C305.83 341.69 301.74 346.93 297.37 351.84C297.42 351.89 297.44 351.91 297.46 351.95C300.09 356.21 302.81 360.55 305.78 365.28C305.81 365.29 305.99 365.36 306.01 365.37C306.13 365.42 306.22 365.51 306.24 365.62C306.26 365.74 306.26 365.85 306.22 365.94C309.44 371.09 312.69 376.23 315.84 381.23C316.09 381.26 316.27 381.39 316.34 381.65C316.36 381.71 316.53 382.26 316.55 382.33C316.62 382.38 316.69 382.45 316.75 382.51C316.91 382.65 316.98 382.86 316.91 383.04C316.82 383.29 316.57 383.45 316.32 383.45C316.32 383.45 316.32 383.45 316.32 383.45C316.25 383.45 316.18 383.43 316.11 383.41C315.26 383.4 308.46 383.39 307.61 383.38C307.47 383.57 307.2 383.63 307.02 383.47C307.01 383.47 306.96 383.43 306.88 383.36C305.12 383.36 304.15 383.36 303.95 383.36C303.86 383.41 303.7 383.52 303.54 383.52C303.45 383.52 303.36 383.5 303.29 383.43ZM303.15 383.11C303.22 383.16 303.26 383.19 303.27 383.2C303.31 383.22 303.36 383.27 303.38 383.29C303.43 383.34 303.47 383.34 303.54 383.34C303.66 383.34 303.77 383.25 303.79 383.15C303.8 383.15 303.8 383.13 303.82 383.09L306.9 383.09C307 383.17 307.05 383.21 307.06 383.22C307.2 383.31 307.38 383.27 307.45 383.13C307.45 383.13 307.46 383.11 307.47 383.09C312.64 383.1 315.52 383.11 316.09 383.11C316.32 383.2 316.64 383.06 316.71 382.83C316.75 382.7 316.71 382.56 316.59 382.47C316.59 382.47 316.57 382.45 316.57 382.45C316.53 382.38 316.48 382.33 316.41 382.29C316.41 382.28 316.4 382.28 316.39 382.26C316.25 381.81 316.18 381.56 316.16 381.51C316.07 381.23 315.84 381.21 315.75 381.21C315.75 381.21 315.73 381.21 315.7 381.21C315.69 381.18 315.68 381.17 315.68 381.17C312.5 376.14 309.26 370.97 306.01 365.81C306.01 365.8 306 365.79 305.99 365.76C306 365.73 306.01 365.72 306.01 365.71C306.06 365.65 306.08 365.55 306.06 365.49C306.03 365.44 306.01 365.37 305.92 365.33C305.9 365.32 305.82 365.28 305.67 365.21C305.65 365.2 305.65 365.19 305.65 365.19C302.67 360.46 299.95 356.09 297.33 351.84C297.3 351.79 297.26 351.75 297.21 351.7C297.21 351.7 297.18 351.68 297.14 351.66C297.17 351.62 297.19 351.59 297.19 351.59C301.58 346.65 305.69 341.42 309.44 336C309.44 336 309.45 335.99 309.46 335.98C309.48 335.98 309.48 335.98 309.49 335.98C309.58 335.95 309.65 335.84 309.65 335.73C309.65 335.72 309.65 335.72 309.65 335.7C309.66 335.69 309.67 335.68 309.67 335.68C311.18 333.49 312.64 331.25 314.03 329.03C314.1 328.94 314.1 328.8 314.08 328.66C314.06 328.55 313.99 328.48 313.9 328.43C313.34 328.18 310.53 326.92 305.49 324.64C305.47 324.63 305.46 324.62 305.46 324.62C305.37 324.48 305.23 324.39 305.07 324.39C299.84 323.98 294.56 323.34 289.39 322.47C289.35 322.47 289.3 322.47 289.26 322.47C289.12 322.47 289.03 322.51 288.96 322.58C288.48 323.19 286.08 326.22 281.76 331.68C281.68 330.27 281.63 329.48 281.62 329.33C281.62 329.26 281.62 329.17 281.62 329.07C281.62 328.78 281.62 328.46 281.46 328.27C281.17 327.98 280.73 327.75 280.3 327.52C280.09 327.41 279.89 327.31 279.73 327.2C277.51 325.81 275.27 324.32 272.89 322.65C272.89 322.65 272.88 322.64 272.87 322.63C272.87 322.61 272.87 322.61 272.87 322.61C272.8 322.42 272.66 322.31 272.46 322.31C271.04 322.26 259.72 321.86 258.31 321.81C258.1 321.81 257.97 321.92 257.92 322.13C257.87 322.31 257.97 322.56 258.17 322.63C258.17 322.63 258.19 322.64 258.22 322.65C258.22 322.69 258.22 322.72 258.22 322.72C257.1 329.81 257.53 337.17 257.94 344.25C258.03 345.74 258.13 347.27 258.19 348.78C258.28 350.58 258.73 359.62 259.54 375.89C259.53 375.9 259.52 375.91 259.52 375.91C259.41 376 259.34 376.16 259.34 376.32C259.34 376.41 259.38 376.55 259.52 376.66C260.25 377.18 266.12 381.29 266.86 381.81C266.95 381.87 267.04 381.94 267.15 382.01C267.66 382.38 268.16 382.77 268.78 382.79C269.14 382.81 269.53 382.81 269.94 382.81C270.88 382.81 271.84 382.77 272.78 382.72C273.37 382.7 273.97 382.65 274.56 382.63C274.64 382.63 275.04 382.61 275.75 382.58C275.76 382.6 275.77 382.6 275.77 382.61C275.82 382.63 275.84 382.65 275.91 382.65C275.93 382.65 276.09 382.65 276.11 382.65C276.18 382.65 276.23 382.63 276.25 382.61C276.25 382.6 276.26 382.6 276.27 382.58C279.07 382.5 280.63 382.45 280.94 382.45C281.03 382.45 281.1 382.42 281.17 382.38C281.17 382.38 281.18 382.37 281.21 382.35C281.24 382.37 281.25 382.38 281.26 382.38C281.33 382.42 281.42 382.45 281.51 382.45C281.6 382.45 281.81 382.42 281.85 382.15C282.49 378.26 282.26 374.24 282.03 370.35C281.99 369.42 281.92 368.43 281.87 367.47C281.87 367.45 281.87 367.43 281.85 367.38C281.85 367.38 281.85 367.36 281.85 367.34L284.3 364.89C284.32 364.93 284.34 364.96 284.34 364.96C287.06 368.91 289.71 372.89 292.27 376.78C292.34 376.87 292.43 376.94 292.53 376.96C292.53 376.96 292.53 376.96 292.55 376.96C292.56 376.99 292.57 377 292.57 377.01C292.57 377.01 292.57 377.03 292.59 377.03C294.13 378.45 295.73 379.82 297.37 381.12C297.51 381.23 297.65 381.33 297.76 381.44C298.35 381.92 298.97 382.42 299.66 382.79C300.16 383.06 300.75 383.09 301.23 383.09C301.44 383.09 301.62 383.09 301.83 383.06C302.06 383.11 302.24 383.11 302.42 383.11C302.52 383.11 302.76 383.11 303.15 383.11ZM300.3 382.15C299.63 382.01 298.88 381.35 298.29 380.82C298.08 380.64 297.9 380.48 297.74 380.34C296.46 379.34 295.13 378.22 293.74 376.94C293.73 376.93 293.67 376.88 293.58 376.8L296.78 377.03C296.79 377.04 296.8 377.05 296.8 377.05C298.42 378.86 300.18 380.57 302.01 382.15C302.02 382.16 302.08 382.2 302.17 382.29L301.83 382.29C301.08 382.26 300.57 382.21 300.3 382.15ZM297.83 380.23C297.99 380.37 298.19 380.53 298.4 380.71C298.99 381.23 299.7 381.87 300.34 382.01C300.73 382.1 301.19 382.15 301.78 382.15C300 380.62 298.31 378.95 296.73 377.19C296.55 377.17 295.64 377.11 294.01 376.98C295.73 378.49 297.01 379.57 297.83 380.23ZM313.14 382.29C313.13 382.26 313.12 382.24 313.12 382.24C313.12 382.19 313.1 382.17 313.05 382.15C312.75 381.86 311.26 380.43 308.57 377.85C308.65 377.84 308.7 377.83 308.71 377.83C308.96 377.78 309.14 377.69 309.3 377.55C309.31 377.55 309.32 377.54 309.35 377.51C309.38 377.52 309.39 377.53 309.39 377.53C309.51 377.62 309.65 377.69 309.78 377.78C309.92 377.87 310.03 377.94 310.15 378.01C310.93 378.54 311.57 379.09 312.11 379.68C312.98 380.62 313.92 381.42 314.81 382.15C314.82 382.16 314.88 382.2 314.99 382.29L313.14 382.29ZM314.58 382.13C313.74 381.44 312.85 380.69 312.02 379.79C311.47 379.2 310.86 378.67 310.08 378.15C309.97 378.08 309.85 377.99 309.71 377.92C309.6 377.85 309.49 377.78 309.37 377.69C309.23 377.78 309.07 377.87 308.89 377.92C309.32 378.33 312.74 381.62 313.17 382.03C313.21 382.03 313.23 382.08 313.26 382.13C313.52 382.13 314.45 382.13 314.58 382.13ZM309.65 382.26C309.63 382.25 309.62 382.24 309.62 382.24C308 380.71 306.31 379.2 304.64 377.74C304.63 377.73 304.57 377.67 304.46 377.58C306.34 377.71 307.38 377.79 307.59 377.81C307.7 377.81 307.84 377.83 307.98 377.83C307.98 377.83 308 377.83 308.02 377.83C308.04 377.86 308.04 377.87 308.05 377.87C308.05 377.9 308.07 377.94 308.11 377.97C308.41 378.25 309.9 379.68 312.57 382.26L309.65 382.26ZM312.18 382.1C309.67 379.69 308.28 378.35 308 378.08C307.98 378.06 307.95 378.01 307.93 377.99C307.82 377.99 307.7 377.99 307.59 377.97C307.32 377.95 305.18 377.78 304.91 377.76C306.51 379.18 308.14 380.64 309.69 382.1C310.02 382.1 310.85 382.1 312.18 382.1ZM302.83 382.26C300.96 380.69 299.2 378.99 297.55 377.21C297.55 377.2 297.5 377.16 297.42 377.07L300.14 377.28C300.15 377.29 300.16 377.3 300.16 377.3C300.23 377.37 300.34 377.42 300.48 377.42C300.48 377.42 300.49 377.42 300.5 377.42C300.52 377.43 300.52 377.44 300.53 377.44C302.15 379.09 303.89 380.66 305.65 382.13C305.66 382.13 305.71 382.18 305.81 382.26C304.46 382.26 303.72 382.26 303.57 382.26C303.34 382.26 303.09 382.26 302.83 382.29C302.83 382.28 302.83 382.28 302.83 382.26C302.83 382.26 302.83 382.26 302.83 382.26ZM302.88 382.1C303.11 382.1 303.36 382.08 303.59 382.08C303.77 382.08 305.23 382.08 305.42 382.08C303.7 380.66 302.03 379.13 300.46 377.55C300.3 377.53 300.18 377.49 300.09 377.42C299.94 377.41 299.18 377.35 297.81 377.26C300 379.48 301.69 381.1 302.88 382.1ZM306.56 382.26C306.55 382.25 306.54 382.24 306.54 382.24C304.71 380.75 302.93 379.15 301.26 377.51C301.25 377.5 301.2 377.45 301.12 377.37L303.98 377.58C303.96 377.63 303.96 377.66 303.95 377.67C303.95 377.74 303.98 377.78 304.02 377.83C305.62 379.2 307.25 380.64 308.85 382.15C308.85 382.16 308.9 382.19 308.98 382.26L306.56 382.26ZM308.59 382.1C307.04 380.66 305.46 379.25 303.93 377.92C303.86 377.85 303.82 377.78 303.82 377.69C303.82 377.69 303.82 377.69 303.82 377.69C302.45 377.6 301.68 377.54 301.53 377.53C303.13 379.13 304.85 380.66 306.61 382.1C307 382.1 308.4 382.1 308.59 382.1ZM267.31 381.12C267.2 381.03 267.09 380.96 266.97 380.87C266.6 380.61 264.77 379.32 261.46 377.01C261.63 377.02 261.72 377.03 261.74 377.03C262.61 377.1 263.47 377.17 264.37 377.21C264.37 377.21 264.37 377.21 264.39 377.21C264.4 377.23 264.41 377.23 264.41 377.23C266.35 378.88 268.39 380.41 270.49 381.81C270.51 381.81 270.57 381.86 270.7 381.94C269.93 381.97 269.5 381.99 269.42 381.99C269.35 381.99 269.33 381.99 269.3 381.99C268.48 381.99 267.91 381.58 267.31 381.12ZM267.04 380.75C267.15 380.85 267.27 380.91 267.38 381.01C267.98 381.44 268.55 381.87 269.37 381.83C269.45 381.83 270.11 381.81 270.19 381.81C268.18 380.43 266.19 378.95 264.32 377.37C263.54 377.33 262.77 377.28 261.99 377.21C263 377.92 266.53 380.4 267.04 380.75ZM271.45 381.92C269.3 380.53 267.25 379.02 265.3 377.39C265.29 377.39 265.23 377.34 265.12 377.26C265.26 377.26 265.33 377.26 265.35 377.26C266.15 377.3 267.04 377.33 268.02 377.35C268.02 377.35 268.03 377.35 268.05 377.35C268.06 377.36 268.07 377.37 268.07 377.37C270.08 378.83 272.18 380.27 274.33 381.69C274.35 381.7 274.41 381.75 274.54 381.83L271.45 381.92C271.45 381.92 271.45 381.92 271.45 381.92ZM271.5 381.76C271.75 381.75 273.8 381.68 274.06 381.67C271.98 380.3 269.94 378.88 268 377.49C267.11 377.49 266.31 377.46 265.58 377.42C267.45 378.97 269.46 380.41 271.5 381.76ZM275.34 381.78C273.23 380.41 271.11 378.97 269.05 377.49C269.04 377.48 268.97 377.43 268.85 377.35C268.98 377.35 269.06 377.35 269.07 377.35C270.17 377.35 271.29 377.35 272.32 377.33C272.37 377.33 272.41 377.33 272.46 377.3C272.46 377.3 272.47 377.3 272.48 377.3L279.86 381.65L275.34 381.78C275.34 381.78 275.34 381.78 275.34 381.78ZM275.36 381.62C275.63 381.61 276.96 381.57 279.36 381.49C275.23 379.06 272.94 377.71 272.48 377.44C272.43 377.46 272.39 377.46 272.34 377.46C271.38 377.51 270.35 377.53 269.33 377.51C271.31 378.93 273.35 380.32 275.36 381.62ZM280.96 381.3C280.91 381.26 280.89 381.23 280.85 381.21C280.06 380.75 273.75 377.04 272.96 376.57C272.94 376.55 272.89 376.53 272.85 376.53C272.84 376.52 272.82 376.52 272.78 376.5C272.78 376.46 272.78 376.44 272.78 376.43C272.8 375.84 272.82 375.25 272.85 374.65C272.85 374.64 272.85 374.6 272.85 374.51C272.91 374.56 272.95 374.58 272.96 374.58C275.77 376.27 278.54 378.06 281.21 379.84C281.21 379.84 281.23 379.85 281.26 379.86C281.26 379.89 281.26 379.91 281.26 379.91C281.21 380.41 281.17 380.85 281.1 381.26C281.1 381.27 281.09 381.33 281.07 381.44C281.01 381.36 280.97 381.31 280.96 381.3ZM273.03 376.43C273.82 376.9 280.13 380.61 280.91 381.07C280.94 381.07 280.94 381.1 280.96 381.1C281.01 380.75 281.05 380.37 281.1 379.93C278.47 378.17 275.75 376.46 273.01 374.79C272.98 375.34 272.96 375.86 272.94 376.39C272.96 376.41 273.01 376.41 273.03 376.43ZM313.94 380.32C313.58 379.98 313.26 379.66 312.98 379.36C312.43 378.74 311.93 378.26 311.41 377.85C311.25 377.74 311.04 377.6 310.79 377.46C310.42 377.23 309.99 376.98 309.74 376.71C309.74 376.71 309.73 376.7 309.71 376.69C309.71 376.67 309.71 376.66 309.71 376.66C309.71 376.62 309.69 376.57 309.67 376.53C309.67 376.52 309.65 376.48 309.65 376.48C309.6 376.41 309.53 376.34 309.44 376.3C309.44 376.3 309.42 376.29 309.39 376.27C309.39 376.25 309.39 376.23 309.39 376.23C309.39 376.14 309.37 376.07 309.33 375.98C309.03 375.52 308.71 375.09 308.41 374.63C308.38 374.58 308.2 374.32 307.89 373.85C308.11 374.02 308.23 374.11 308.25 374.13C309.23 374.86 310.29 375.52 311.36 376.07C311.41 376.09 311.43 376.09 311.47 376.09C311.48 376.09 311.49 376.09 311.52 376.09C312.01 376.87 312.29 377.31 312.34 377.39C312.94 378.33 313.51 379.25 314.1 380.18C314.12 380.22 314.2 380.38 314.35 380.69C314.11 380.47 313.97 380.34 313.94 380.32ZM310.86 377.33C311.09 377.46 311.31 377.6 311.47 377.71C312 378.13 312.53 378.61 313.07 379.25C313.23 379.43 313.39 379.61 313.58 379.79C313.1 379.04 312.62 378.26 312.14 377.51C312.06 377.39 311.44 376.4 311.36 376.27C311.31 376.27 311.27 376.25 311.22 376.23C310.26 375.75 309.35 375.18 308.46 374.54C308.46 374.54 308.48 374.56 308.48 374.56C308.8 375.02 309.1 375.45 309.39 375.91C309.46 376 309.49 376.09 309.49 376.21C309.58 376.25 309.67 376.34 309.71 376.43C309.72 376.44 309.73 376.45 309.74 376.46C309.81 376.53 309.83 376.57 309.85 376.62C310.1 376.87 310.49 377.1 310.86 377.33ZM281.19 379.29C278.47 377.49 275.68 375.73 272.91 374.03C272.91 374.03 272.9 374.03 272.87 374.01C272.87 373.98 272.87 373.97 272.87 373.97C272.89 373.39 272.89 372.82 272.89 372.27C272.89 372.27 272.89 372.22 272.89 372.14C277.88 374.95 280.66 376.51 281.21 376.82C281.23 376.85 281.28 376.85 281.3 376.85C281.31 376.85 281.33 376.85 281.37 376.85C281.37 376.89 281.37 376.91 281.37 376.91C281.37 377.74 281.33 378.49 281.28 379.22C281.28 379.23 281.29 379.28 281.3 379.36C281.23 379.32 281.2 379.3 281.19 379.29ZM281.17 379.11C281.21 378.45 281.23 377.76 281.23 377.01C281.21 377.01 281.17 376.98 281.14 376.96C280.33 376.51 273.84 372.87 273.03 372.41C273.05 372.91 273.05 373.42 273.03 373.94C275.75 375.59 278.49 377.33 281.17 379.11ZM305.65 376.85C305.44 376.82 305.28 376.8 305.21 376.8C303.98 376.71 294.12 375.98 292.89 375.89C292.85 375.89 292.8 375.89 292.78 375.89C292.77 375.89 292.76 375.89 292.73 375.89C292.72 375.86 292.71 375.84 292.71 375.84C290.17 371.95 287.52 368.02 284.82 364.11C284.78 364.02 284.75 363.98 284.69 363.93C282.47 360.71 280.23 357.53 278.06 354.49C277.97 354.35 277.78 354.26 277.65 354.26C277.53 354.26 277.46 354.31 277.39 354.38C277.01 354.86 273.92 358.72 273.53 359.2C273.46 359.29 273.37 359.41 273.3 359.5C272.87 360.02 272.41 360.57 272.21 361.21C271.91 362.08 271.93 362.97 271.95 363.79C272.14 368.02 272.14 372.25 271.95 376.41C271.95 376.42 271.95 376.44 271.95 376.48C271.91 376.48 271.89 376.48 271.89 376.48C268.09 376.55 264.25 376.41 260.48 376.07C260.48 376.07 260.45 376.07 260.41 376.07L260.41 376C259.62 360.17 259.17 351.38 259.09 349.62C258.99 347.95 258.9 346.24 258.79 344.59C258.33 337.39 257.87 329.97 259.04 322.79C259.04 322.78 259.04 322.76 259.04 322.72L272.05 323.2C272.05 323.24 272.05 323.26 272.05 323.27C272.57 328.02 272.85 332.87 272.91 337.67C272.91 337.67 272.91 337.68 272.91 337.69C272.91 337.71 272.91 337.71 272.91 337.71C272.87 337.81 272.87 337.92 272.91 338.03C272.91 338.04 272.91 338.05 272.91 338.06C272.94 339.75 272.91 341.44 272.87 343.11C272.87 343.2 272.91 343.31 272.98 343.38C273.07 343.47 273.21 343.54 273.33 343.54C273.39 343.54 273.51 343.52 273.6 343.41C274.12 342.75 276.74 339.46 281.44 333.53C281.45 333.53 281.46 333.53 281.46 333.53C281.65 333.51 281.85 333.39 281.83 333.12C281.83 333.11 281.83 333.08 281.83 333.03L281.85 333.01L289.44 323.43C289.47 323.43 289.48 323.43 289.49 323.43C294.33 324.23 299.27 324.82 304.14 325.23C304.15 325.23 304.19 325.23 304.27 325.23C304.23 325.3 304.21 325.34 304.21 325.35C302.83 327.25 301.33 329.3 299.59 331.63C299.59 331.64 299.57 331.66 299.54 331.7C299.45 331.63 299.39 331.6 299.38 331.59C299.27 331.5 299.13 331.57 299.09 331.7C299.06 331.75 299.04 331.89 299.18 331.98C299.18 331.98 299.21 332 299.27 332.05C299.24 332.09 299.23 332.11 299.22 332.11C296.71 335.5 294.22 338.79 291.82 341.85C291.82 341.85 291.81 341.86 291.79 341.87C291.78 341.87 291.77 341.87 291.77 341.87C291.66 341.87 291.57 342.01 291.57 342.13C291.57 342.13 291.57 342.13 291.57 342.15C291.55 342.16 291.54 342.17 291.54 342.17C291.04 342.83 290.51 343.47 290.01 344.14C290.01 344.14 290 344.16 289.99 344.18C289.96 344.17 289.95 344.16 289.94 344.16C289.83 344.11 289.71 344.21 289.67 344.27C289.62 344.34 289.62 344.43 289.67 344.5C289.67 344.51 289.68 344.52 289.69 344.55C289.46 344.85 289.33 345.02 289.3 345.05C289.1 345.33 288.87 345.6 288.66 345.87C288.66 345.88 288.65 345.89 288.64 345.92C288.61 345.91 288.6 345.9 288.59 345.9C288.41 345.85 288.25 345.94 288.16 346.13C288.16 346.13 288.15 346.15 288.14 346.19C288.1 346.18 288.07 346.17 288.07 346.17C287.86 346.1 287.57 346.19 287.47 346.38C287.41 346.49 287.43 346.61 287.52 346.74C294.67 356.46 301.76 366.42 308.57 376.39C308.62 376.46 308.69 376.5 308.75 376.55C308.76 376.55 308.77 376.56 308.8 376.57C308.79 376.61 308.78 376.64 308.78 376.64C308.78 376.69 308.75 376.71 308.78 376.75C308.78 376.76 308.78 376.77 308.78 376.8C308.76 376.81 308.76 376.82 308.75 376.82C308.59 376.96 308.27 377.03 307.75 377.03C307.06 377.03 306.17 376.91 305.65 376.85ZM292.89 375.73C294.12 375.82 303.98 376.55 305.21 376.64C305.3 376.64 305.46 376.66 305.67 376.69C306.19 376.75 307.09 376.87 307.75 376.87C308.27 376.87 308.53 376.8 308.62 376.73C308.62 376.71 308.62 376.69 308.62 376.69C308.55 376.64 308.48 376.59 308.43 376.5C301.62 366.54 294.56 356.57 287.38 346.86C287.27 346.7 287.25 346.51 287.31 346.33C287.43 346.1 287.75 345.97 288.02 346.01C288.14 345.83 288.34 345.71 288.57 345.74C288.78 345.49 288.98 345.21 289.19 344.96C289.22 344.92 289.48 344.59 289.51 344.55C289.46 344.46 289.46 344.32 289.53 344.23C289.62 344.07 289.78 344 289.94 344.02C290.45 343.38 290.93 342.77 291.43 342.13C291.43 341.94 291.57 341.76 291.73 341.74C294.1 338.7 296.57 335.45 299.06 332.09C298.95 331.98 298.9 331.82 298.95 331.66C299.02 331.43 299.29 331.31 299.47 331.45C299.48 331.45 299.49 331.47 299.5 331.47C301.17 329.21 302.65 327.2 303.98 325.35C299.15 324.94 294.26 324.34 289.49 323.57C288.98 324.2 286.48 327.36 281.97 333.05C281.97 333.07 281.97 333.07 281.97 333.07C281.99 333.42 281.76 333.6 281.49 333.65C280.71 334.63 274.47 342.49 273.69 343.47C273.6 343.59 273.46 343.66 273.3 343.66C273.14 343.66 272.98 343.59 272.85 343.45C272.73 343.34 272.69 343.2 272.69 343.06C272.73 341.42 272.73 339.73 272.73 338.03C272.69 337.9 272.69 337.76 272.73 337.62C272.69 332.85 272.39 328.05 271.89 323.31C270.61 323.27 260.43 322.9 259.15 322.86C257.99 329.99 258.47 337.39 258.9 344.55C258.99 346.19 259.11 347.91 259.2 349.58C259.33 352.21 260.39 373.25 260.53 375.89C264.25 376.23 268.02 376.37 271.77 376.3C271.93 372.18 271.93 367.95 271.77 363.77C271.73 362.93 271.73 362.03 272.02 361.12C272.23 360.46 272.69 359.91 273.14 359.36C273.23 359.27 273.3 359.15 273.37 359.06C273.76 358.58 276.85 354.72 277.23 354.24C277.33 354.13 277.46 354.06 277.6 354.06C277.81 354.06 278.01 354.17 278.15 354.33C280.32 357.37 282.56 360.55 284.78 363.77C284.85 363.82 284.89 363.91 284.94 364C287.61 367.86 290.24 371.79 292.78 375.68C292.8 375.73 292.82 375.73 292.85 375.73C292.87 375.73 292.87 375.73 292.89 375.73ZM272.94 371.61C272.94 371.58 272.94 371.57 272.94 371.57C272.94 370.99 272.94 370.4 272.94 369.83C272.94 369.82 272.94 369.77 272.94 369.69C273.01 369.73 273.04 369.76 273.05 369.76C275.66 371.15 278.38 372.41 281.14 373.53C281.19 373.55 281.23 373.55 281.26 373.55C281.26 373.55 281.29 373.55 281.35 373.53C281.35 373.59 281.35 373.62 281.35 373.62C281.39 374.63 281.42 375.47 281.42 376.25C281.42 376.26 281.42 376.31 281.42 376.39L272.94 371.61ZM281.26 376.14C281.26 375.41 281.23 374.65 281.19 373.71C281.14 373.71 281.1 373.71 281.05 373.69C278.33 372.59 275.63 371.34 273.05 369.97C273.07 370.49 273.07 371.02 273.07 371.54C274.71 372.46 280.44 375.68 281.26 376.14ZM310.79 375.29C309.51 374.58 308.32 373.74 307.25 372.78C307.2 372.73 307.15 372.71 307.09 372.71C307.08 372.71 307.07 372.71 307.04 372.71C307.03 372.69 307.02 372.69 307.02 372.69C306.49 371.91 305.97 371.15 305.42 370.38C305.41 370.36 305.35 370.28 305.26 370.13L308.82 371.91C308.82 371.92 308.82 371.93 308.82 371.93C309.21 372.55 309.6 373.17 309.99 373.78C310.06 373.89 310.41 374.44 311.04 375.43C310.89 375.35 310.81 375.3 310.79 375.29ZM307.34 372.66C308.32 373.55 309.42 374.33 310.58 375.02C310.51 374.9 309.95 373.99 309.87 373.87C309.49 373.26 309.1 372.64 308.71 372.02C308.41 371.87 306.01 370.69 305.71 370.54C306.19 371.2 306.67 371.89 307.13 372.57C307.22 372.57 307.29 372.62 307.34 372.66ZM281.21 373.1C278.42 371.98 275.63 370.67 272.96 369.21C272.96 369.21 272.94 369.2 272.91 369.19C272.91 369.16 272.91 369.15 272.91 369.14C272.91 368.48 272.89 367.79 272.89 367.06C272.89 367.05 272.89 367.01 272.89 366.93L281.23 371.31C281.23 371.34 281.23 371.36 281.23 371.36C281.26 371.91 281.3 372.46 281.33 373.01C281.33 373.01 281.33 373.06 281.33 373.14C281.26 373.12 281.22 373.1 281.21 373.1ZM281.17 372.91C281.14 372.41 281.12 371.93 281.1 371.43C280.29 371.01 273.86 367.62 273.05 367.2C273.05 367.89 273.07 368.5 273.07 369.12C275.7 370.54 278.42 371.82 281.17 372.91ZM304.71 369.35C304.41 368.91 304.24 368.67 304.21 368.62C303.86 368.11 303.52 367.63 303.18 367.13C303.16 367.11 303.1 367.02 302.99 366.86C303.17 366.95 303.27 367.01 303.29 367.02C304.43 367.66 305.65 368.23 306.86 368.75C306.86 368.75 306.87 368.75 306.88 368.75L308.37 371.18L304.71 369.35ZM307.93 370.79C307.2 369.64 306.8 369 306.72 368.87C305.6 368.39 304.5 367.86 303.45 367.27C303.73 367.68 304.02 368.09 304.3 368.5C304.33 368.55 304.51 368.8 304.82 369.23L307.93 370.79ZM272.98 366.51C272.96 366.51 272.94 366.49 272.94 366.49C272.93 366.49 272.92 366.48 272.89 366.47C272.89 366.24 272.89 366.11 272.89 366.08C272.89 365.85 272.89 365.62 272.87 365.39C272.87 365.1 272.85 364.82 272.82 364.53C272.8 363.93 272.78 363.31 272.78 362.72C272.78 362.65 272.78 362.61 272.78 362.54C272.78 362.53 272.78 362.48 272.78 362.4C272.85 362.44 272.88 362.46 272.89 362.47C274.9 363.89 277.03 365.21 279.09 366.47C279.73 366.86 280.37 367.27 281.01 367.66C281.01 367.66 281.01 367.67 281.03 367.68C281.03 367.71 281.03 367.72 281.03 367.73C281.07 368.64 281.12 369.55 281.17 370.47C281.17 370.49 281.17 370.61 281.19 370.83C276.27 368.24 273.53 366.8 272.98 366.51ZM273.05 366.38C273.58 366.66 276.24 368.06 281.03 370.58C281.03 370.54 281.03 370.52 281.03 370.51C280.98 369.62 280.91 368.71 280.89 367.82C280.27 367.43 279.63 367.04 279.02 366.65C277.01 365.39 274.9 364.11 272.94 362.72C272.94 362.74 272.94 362.74 272.94 362.77C272.94 363.36 272.96 363.98 272.98 364.57C273.01 364.87 273.01 365.14 273.03 365.44C273.03 365.67 273.05 365.9 273.05 366.13C273.05 366.14 273.04 366.22 273.03 366.35C273.04 366.35 273.05 366.36 273.05 366.38ZM306.19 367.95C304.89 367.36 303.61 366.67 302.38 365.94C302.38 365.94 302.37 365.93 302.35 365.92C302.19 365.67 302.1 365.54 302.08 365.51C301.71 364.98 301.35 364.46 300.98 363.93C300.97 363.92 300.92 363.85 300.82 363.73L304.75 365.35C304.77 365.36 304.78 365.37 304.78 365.37C305.1 365.87 305.39 366.35 305.71 366.86C305.76 366.94 306 367.34 306.42 368.07C306.29 368 306.21 367.96 306.19 367.95ZM306.01 367.73C305.96 367.65 305.58 367.03 305.53 366.95C305.23 366.47 304.91 365.97 304.62 365.49C304.28 365.35 301.57 364.23 301.23 364.09C301.55 364.55 301.87 365.01 302.19 365.46C302.21 365.49 302.29 365.61 302.45 365.83C304.02 366.71 305.2 367.34 306.01 367.73ZM281.17 366.79C280.62 366.45 280.05 366.1 279.5 365.76C277.35 364.43 275.13 363.06 273.05 361.58C273.05 361.57 273.03 361.56 273.01 361.53C273.02 361.5 273.03 361.49 273.03 361.49C273.23 360.98 273.55 360.53 273.97 360.02C273.97 360.02 273.98 360 274.01 359.98L282.45 365.62L281.21 366.81C281.18 366.8 281.17 366.79 281.17 366.79ZM279.57 365.62C280.11 365.97 280.64 366.29 281.19 366.63C281.26 366.56 281.59 366.22 282.19 365.6C277.3 362.32 274.58 360.5 274.03 360.14C273.69 360.59 273.39 361.01 273.19 361.46C275.25 362.95 277.44 364.3 279.57 365.62ZM274.31 359.57L275.73 357.78C275.77 357.81 275.79 357.83 275.79 357.83C278.51 359.52 281.03 361.53 283.29 363.77C283.36 363.84 283.43 363.84 283.5 363.84C283.5 363.84 283.52 363.83 283.54 363.82L283.82 364.23L282.79 365.23L274.31 359.57ZM282.74 365.05L283.59 364.21C283.51 364.08 283.46 364.01 283.45 364C283.34 364.02 283.25 363.98 283.15 363.89C280.91 361.67 278.42 359.7 275.75 358.01C275.67 358.11 275.25 358.62 274.51 359.54L282.74 365.05ZM300.3 363.06C300.28 363.05 300.28 363.04 300.27 363.04C299.5 361.94 298.72 360.87 297.97 359.77C297.95 359.75 297.87 359.64 297.74 359.45C300.7 361.39 302.35 362.46 302.67 362.67C302.77 362.74 302.86 362.7 302.9 362.67C302.91 362.67 302.93 362.66 302.97 362.63L304.3 364.71L300.3 363.06ZM303.93 364.39C303.34 363.44 303.01 362.92 302.95 362.81C302.83 362.86 302.72 362.86 302.61 362.79C302.18 362.51 298.76 360.3 298.33 360.02C299.02 360.98 299.73 361.94 300.41 362.93C300.88 363.12 302.05 363.61 303.93 364.39ZM282.15 362.08C280.27 360.39 278.24 358.83 276.09 357.51C276.09 357.51 276.06 357.49 276.02 357.46L277.65 355.43C277.69 355.48 277.71 355.51 277.71 355.52C279.09 357.46 280.55 359.52 282.26 361.99C282.29 362.02 282.41 362.2 282.63 362.51C282.34 362.25 282.18 362.11 282.15 362.08ZM281.76 361.55C280.21 359.34 278.9 357.46 277.62 355.68C277.53 355.8 277.07 356.37 276.23 357.42C278.76 359.15 280.6 360.53 281.76 361.55ZM297.26 358.58C297.21 358.56 297.19 358.54 297.14 358.54C297.14 358.54 297.12 358.54 297.1 358.54L297.07 358.51C296.72 358.02 296.52 357.75 296.48 357.69C295.95 356.98 295.45 356.25 294.93 355.54C294.91 355.53 294.85 355.44 294.74 355.29C294.91 355.37 295 355.42 295.02 355.43C296.89 356.39 298.74 357.49 300.5 358.67C300.51 358.68 300.52 358.69 300.53 358.7C300.89 359.29 301.26 359.86 301.62 360.46C301.69 360.57 302.04 361.12 302.67 362.1C299.42 359.99 297.62 358.82 297.26 358.58ZM297.35 358.47C297.67 358.68 299.29 359.73 302.19 361.62C301.8 360.99 301.58 360.64 301.53 360.57C301.17 359.98 300.8 359.41 300.43 358.81C298.79 357.69 297.05 356.66 295.27 355.73C295.73 356.37 296.18 356.98 296.64 357.62C296.68 357.67 296.86 357.93 297.19 358.4C297.26 358.42 297.32 358.44 297.35 358.47ZM299.68 357.58C297.92 356.46 296.09 355.41 294.22 354.51C294.21 354.51 294.2 354.49 294.19 354.49C293.55 353.6 292.91 352.71 292.25 351.82C292.24 351.8 292.17 351.71 292.05 351.54L298.17 354.9C298.17 354.92 298.17 354.92 298.17 354.93C298.45 355.38 298.74 355.84 299.02 356.27C299.27 356.66 299.52 357.07 299.77 357.46C299.78 357.48 299.84 357.58 299.95 357.76C299.79 357.65 299.7 357.59 299.68 357.58ZM299.47 357.26C299.29 356.96 299.09 356.64 298.9 356.34C298.63 355.89 298.35 355.45 298.06 354.99C297.51 354.69 293.12 352.28 292.57 351.98C293.14 352.8 293.74 353.58 294.31 354.38C296.07 355.25 297.81 356.21 299.47 357.26ZM291.41 350.65C290.61 349.58 289.83 348.48 289.03 347.41C289.01 347.38 288.93 347.27 288.78 347.06C288.98 347.2 289.1 347.28 289.12 347.29C291.73 349.01 294.26 350.77 296.66 352.57C296.69 352.59 296.71 352.59 296.73 352.62C296.73 352.62 296.74 352.62 296.75 352.62L297.67 354.1C293.91 352.03 291.82 350.88 291.41 350.65ZM297.23 353.69C296.88 353.12 296.68 352.8 296.64 352.73C296.62 352.71 296.59 352.71 296.57 352.69C294.29 350.97 291.86 349.28 289.39 347.63C290.1 348.62 290.81 349.6 291.52 350.56C292.28 350.98 294.19 352.02 297.23 353.69ZM296.32 351.25C294.08 349.6 291.77 347.98 289.44 346.45C289.44 346.44 289.41 346.43 289.37 346.4C289.4 346.36 289.41 346.34 289.42 346.33C289.65 346.06 289.85 345.76 290.08 345.49C290.11 345.45 290.24 345.29 290.47 345.01L298.06 349.35C298.02 349.39 297.99 349.41 297.99 349.42C297.37 350.13 296.87 350.7 296.41 351.22C296.41 351.23 296.39 351.25 296.37 351.29C296.34 351.26 296.32 351.25 296.32 351.25ZM296.34 351.09C296.78 350.58 297.26 350.06 297.81 349.42C297.32 349.14 294.88 347.74 290.49 345.23C290.31 345.47 290.21 345.6 290.19 345.62C289.99 345.85 289.78 346.13 289.58 346.38C291.86 347.89 294.13 349.46 296.34 351.09ZM290.74 344.66C290.77 344.62 290.79 344.6 290.79 344.59C291.27 344 291.73 343.38 292.21 342.79C292.21 342.79 292.22 342.77 292.25 342.74L299.59 347.59C299.56 347.63 299.55 347.65 299.54 347.66C299.15 348.11 298.79 348.55 298.4 349.01C298.4 349.01 298.38 349.01 298.35 349.03L290.74 344.66ZM298.33 348.82C298.67 348.41 299.04 348 299.38 347.59C298.67 347.12 293.01 343.39 292.3 342.93C291.84 343.5 291.41 344.07 290.97 344.62C292.44 345.46 297.6 348.4 298.33 348.82ZM292.55 342.38C292.58 342.34 292.59 342.31 292.59 342.31C292.89 341.94 293.17 341.55 293.46 341.19C293.5 341.14 293.69 340.9 294.03 340.46C294.08 340.48 294.1 340.5 294.1 340.5C294.63 340.94 295.86 341.76 296.66 342.29C297.01 342.51 297.28 342.7 297.35 342.77C298.51 343.63 299.75 344.57 301.1 345.65C301.1 345.65 301.12 345.66 301.17 345.69C300.96 345.94 300.85 346.08 300.82 346.1C300.62 346.35 300.41 346.61 300.21 346.86C300.2 346.86 300.19 346.88 300.16 346.9C300.13 346.88 300.12 346.86 300.11 346.86C300 346.79 299.84 346.86 299.79 346.99C299.79 347 299.77 347.04 299.73 347.11L292.55 342.38ZM299.66 346.88C299.75 346.72 299.95 346.65 300.11 346.72C300.32 346.49 300.5 346.24 300.71 346.01C300.73 345.98 300.93 345.74 300.96 345.71C299.63 344.66 298.42 343.75 297.28 342.88C297.21 342.81 296.94 342.65 296.59 342.42C295.82 341.9 294.65 341.12 294.08 340.66C294.03 340.72 293.65 341.22 293.6 341.28C293.3 341.62 293.03 341.97 292.75 342.33C294.13 343.24 298.97 346.43 299.66 346.88ZM301.37 345.28C299.7 343.95 298.01 342.67 296.34 341.46C296.27 341.42 296.16 341.33 296.02 341.19C295.61 340.85 295.02 340.34 294.45 340.05C294.44 340.04 294.42 340.03 294.38 340C294.4 339.96 294.42 339.94 294.42 339.93C294.67 339.61 294.93 339.27 295.18 338.95C295.21 338.91 295.37 338.69 295.66 338.31C299.98 341.17 302.38 342.77 302.86 343.09C302.9 343.13 302.97 343.13 303.02 343.11C303.03 343.11 303.08 343.09 303.18 343.06C303.19 342.95 303.2 342.89 303.2 342.88C303.2 342.81 303.2 342.74 303.09 342.67C302.61 342.36 300.22 340.77 295.93 337.92C295.96 337.88 295.97 337.86 295.98 337.85C296.14 337.65 296.3 337.44 296.43 337.23C296.46 337.2 296.59 337.03 296.82 336.73L304.32 341.6C304.29 341.64 304.28 341.66 304.27 341.67C303.95 342.1 303.63 342.51 303.31 342.93C303.31 342.93 303.28 342.97 303.22 343.04L303.22 343.04C303.14 343.15 303.09 343.21 303.09 343.22C302.54 343.93 301.99 344.62 301.46 345.26C301.46 345.26 301.45 345.28 301.44 345.33C301.4 345.3 301.38 345.28 301.37 345.28ZM296.09 341.07C296.23 341.19 296.34 341.28 296.41 341.33C298.08 342.54 299.75 343.82 301.39 345.1C301.87 344.5 302.38 343.89 302.86 343.25C302.81 343.25 302.79 343.22 302.74 343.2C302.27 342.89 299.91 341.32 295.66 338.49C295.41 338.81 295.27 338.98 295.25 339.02C295.04 339.34 294.81 339.66 294.58 339.95C295.13 340.27 295.73 340.75 296.09 341.07ZM303.15 342.56C303.22 342.61 303.27 342.65 303.29 342.72C303.57 342.38 303.84 342.01 304.09 341.67C303.61 341.35 301.19 339.79 296.85 336.96C296.67 337.19 296.57 337.32 296.55 337.35C296.43 337.53 296.3 337.71 296.14 337.9C297.54 338.83 302.45 342.09 303.15 342.56ZM273.78 341.62C273.81 340.59 273.81 339.47 273.78 338.19C273.78 338.19 273.78 338.16 273.78 338.1C274.89 338.42 275.51 338.59 275.63 338.63C275.79 338.67 275.89 338.56 275.91 338.42C275.93 338.33 275.89 338.22 275.75 338.17C275.6 338.13 274.39 337.8 274.24 337.76C274.15 337.74 274.06 337.71 273.97 337.67C273.92 337.65 273.85 337.62 273.81 337.62C273.8 337.62 273.79 337.61 273.76 337.6C273.76 337.57 273.76 337.56 273.76 337.55C273.76 336.94 273.74 336.27 273.71 335.52C273.71 335.51 273.71 335.47 273.71 335.41L277.44 337.21L273.78 341.85C273.78 341.71 273.78 341.64 273.78 341.62ZM273.94 341.39C274.16 341.12 275.27 339.73 277.26 337.23C275.25 336.27 274.14 335.74 273.92 335.63C273.94 336.32 273.94 336.94 273.97 337.49C274.01 337.51 274.03 337.51 274.08 337.53C274.17 337.55 274.26 337.6 274.35 337.62C274.51 337.66 275.71 337.99 275.86 338.03C276.07 338.1 276.16 338.29 276.14 338.45C276.11 338.61 275.98 338.79 275.77 338.79C275.73 338.79 275.7 338.79 275.66 338.77C275.54 338.73 274.97 338.57 273.94 338.29C273.94 339.73 273.94 340.77 273.94 341.39ZM304.53 341.23L297.07 336.41C297.1 336.37 297.12 336.35 297.12 336.34C297.46 335.91 297.78 335.47 298.1 335.02C298.12 334.99 298.23 334.84 298.42 334.58L306.01 339.31C305.98 339.36 305.97 339.38 305.97 339.38C305.44 340.09 305.01 340.66 304.62 341.21C304.62 341.22 304.61 341.24 304.59 341.28L304.53 341.23ZM304.57 341.07C304.96 340.57 305.35 340.02 305.83 339.38C305.34 339.08 302.89 337.55 298.49 334.81C298.35 335 298.28 335.11 298.26 335.13C297.94 335.52 297.62 335.95 297.33 336.37C298.77 337.31 303.85 340.6 304.57 341.07ZM298.74 334.24C298.77 334.2 298.79 334.18 298.79 334.17C299.15 333.69 299.5 333.21 299.86 332.73C299.87 332.72 299.91 332.68 299.98 332.59C300.02 332.62 300.04 332.64 300.05 332.64C302.4 334.33 304.85 335.93 307.34 337.42C307.34 337.42 307.36 337.44 307.41 337.46C307.39 337.5 307.38 337.53 307.38 337.53C307.06 337.99 306.72 338.45 306.38 338.9C306.37 338.91 306.36 338.93 306.33 338.97L298.74 334.24ZM306.29 338.77C306.58 338.35 306.9 337.92 307.2 337.51C304.75 336.05 302.33 334.47 300 332.8C300 332.8 299.98 332.82 299.98 332.82C299.63 333.28 299.29 333.74 298.95 334.19C300.42 335.11 305.55 338.31 306.29 338.77ZM307.59 337.03C307.57 337.01 307.57 337.01 307.54 336.98C305.07 335.52 302.63 333.92 300.3 332.23C300.29 332.23 300.27 332.21 300.23 332.18C300.26 332.14 300.27 332.12 300.27 332.11C300.5 331.82 300.71 331.52 300.94 331.22C300.97 331.18 301.11 330.99 301.37 330.65L301.44 330.7L308.71 335.54C308.64 335.64 308.6 335.69 308.59 335.7C308.3 336.14 308 336.55 307.7 336.98C307.7 336.99 307.68 337.03 307.66 337.1C307.62 337.06 307.59 337.03 307.59 337.03ZM307.63 336.87C307.63 336.87 307.63 336.87 307.63 336.87C307.91 336.46 308.21 336.07 308.48 335.66C308.48 335.65 308.49 335.64 308.5 335.61L301.39 330.88C301.19 331.15 301.07 331.31 301.05 331.34C300.85 331.63 300.66 331.91 300.46 332.18C302.77 333.85 305.19 335.43 307.63 336.87ZM277.67 336.78C277.65 336.78 277.65 336.75 277.62 336.75C277.36 336.63 276.05 336 273.69 334.86C273.69 334.83 273.69 334.81 273.69 334.81C273.67 334.24 273.65 333.69 273.62 333.12C273.62 333.11 273.62 333.07 273.62 332.98L278.63 335.66L277.74 336.82C277.7 336.8 277.67 336.78 277.67 336.78ZM277.71 336.62C277.71 336.62 277.71 336.62 277.71 336.62C277.76 336.56 278 336.25 278.42 335.7C275.65 334.22 274.11 333.4 273.81 333.23C273.83 333.76 273.85 334.26 273.87 334.77C274.64 335.14 277.33 336.43 277.71 336.62ZM273.78 332.53C273.76 332.5 273.71 332.5 273.69 332.5C273.69 332.5 273.66 332.5 273.62 332.5C273.62 332.46 273.62 332.44 273.62 332.43C273.6 331.73 273.55 330.97 273.51 330.15C273.51 330.14 273.51 330.09 273.51 330.01L279.93 334.08L278.95 335.29C275.85 333.63 274.13 332.71 273.78 332.53ZM273.85 332.41C274.19 332.59 275.87 333.49 278.9 335.11L279.68 334.13C276.06 331.84 274.05 330.56 273.65 330.31C273.71 331.04 273.74 331.73 273.78 332.39C273.81 332.39 273.83 332.41 273.85 332.41ZM301.65 330.33C301.67 330.29 301.69 330.27 301.69 330.26C302.13 329.67 302.56 329.07 303.02 328.48C303.02 328.48 303.04 328.46 303.06 328.43L303.13 328.48L310.33 333.28C310.3 333.32 310.29 333.34 310.29 333.35C309.83 334.03 309.42 334.63 309.05 335.18C309.05 335.18 309.02 335.2 308.98 335.22L301.65 330.33ZM308.94 335.02C309.28 334.51 309.67 333.94 310.1 333.3C309.4 332.83 303.79 329.09 303.09 328.62C302.67 329.19 302.26 329.74 301.85 330.29C303.27 331.23 308.23 334.54 308.94 335.02ZM273.46 329.44C273.46 329.41 273.46 329.4 273.46 329.39C273.42 328.66 273.35 327.91 273.28 327.06C273.28 327.05 273.27 327 273.26 326.9C277.8 329.77 280.32 331.36 280.82 331.68C280.82 331.68 280.85 331.7 280.85 331.7C280.85 331.7 280.86 331.71 280.89 331.73L280.89 331.77L280.94 332.71L280.21 333.71L273.46 329.44ZM280.16 333.53L280.8 332.73C280.77 332.22 280.76 331.94 280.75 331.89C280.75 331.89 280.75 331.89 280.73 331.89C280 331.42 274.15 327.73 273.42 327.27C273.51 328 273.55 328.69 273.6 329.37C274.47 329.93 276.66 331.31 280.16 333.53ZM303.31 328.05C303.34 328 303.36 327.98 303.36 327.98C303.57 327.68 303.79 327.38 304 327.09C304.02 327.05 304.15 326.88 304.37 326.58C304.41 326.62 304.43 326.65 304.43 326.65C304.5 326.74 304.62 326.83 304.75 326.9C305.21 327.2 307.46 328.71 311.52 331.43C311.44 331.55 311.39 331.62 311.38 331.63C311.13 332.02 310.88 332.41 310.63 332.8C310.62 332.81 310.6 332.84 310.56 332.89L303.31 328.05ZM310.51 332.66C310.77 332.3 310.99 331.93 311.25 331.57C311.25 331.56 311.26 331.53 311.29 331.47C307.3 328.81 305.08 327.34 304.64 327.04C304.53 326.97 304.43 326.9 304.37 326.81C304.34 326.85 304.14 327.12 304.11 327.15C303.91 327.47 303.73 327.75 303.52 328C304.92 328.93 309.81 332.2 310.51 332.66ZM273.21 326.38C273.21 326.35 273.21 326.33 273.21 326.33C273.14 325.49 273.07 324.71 272.98 323.98C272.98 323.97 272.97 323.91 272.96 323.82C273.04 323.87 273.09 323.9 273.1 323.91C275.61 325.65 278.15 327.31 280.69 328.87C280.69 328.87 280.69 328.88 280.71 328.89L280.87 331.22L273.21 326.38ZM280.71 330.93C280.64 329.76 280.6 329.11 280.59 328.98C278.13 327.45 275.63 325.83 273.17 324.14C273.23 324.8 273.3 325.51 273.37 326.29C274.35 326.9 276.8 328.45 280.71 330.93ZM306.88 327.82C306.79 327.77 306.65 327.68 306.49 327.59C305.85 327.22 304.89 326.65 304.69 326.19C304.68 326.19 304.68 326.18 304.66 326.15C304.79 325.98 304.85 325.89 304.87 325.87C304.94 325.78 305.03 325.67 305.1 325.55C305.1 325.55 305.12 325.54 305.14 325.51L313.03 329.05C313 329.09 312.99 329.12 312.98 329.12C312.59 329.71 312.21 330.35 311.79 330.99C311.79 331 311.78 331.02 311.75 331.06C308.83 329.12 307.2 328.03 306.88 327.82ZM306.58 327.47C306.77 327.57 306.88 327.66 306.97 327.7C307.44 328.02 311.23 330.54 311.7 330.86C312.09 330.26 312.46 329.69 312.8 329.12C312.04 328.78 305.95 326.03 305.19 325.69C305.12 325.78 305.07 325.87 305.01 325.94C305 325.96 304.95 326.03 304.87 326.17C305.63 326.81 306.2 327.25 306.58 327.47Z" id="f3rZj0r2Qu"></path></defs><g><g><g><use xlink:href="#jtwayBLd7" opacity="1" fill="#000000" fill-opacity="1"></use><g><use xlink:href="#jtwayBLd7" opacity="1" fill-opacity="0" stroke="#000000" stroke-width="1" stroke-opacity="0"></use></g></g><g><use xlink:href="#f3rZj0r2Qu" opacity="1" fill="#180f0b" fill-opacity="1"></use><g><use xlink:href="#f3rZj0r2Qu" opacity="1" fill-opacity="0" stroke="#000000" stroke-width="1" stroke-opacity="0"></use></g></g></g></g></svg>