<?xml version="1.0" encoding="UTF-8" standalone="no"?>
<!DOCTYPE svg PUBLIC "-//W3C//DTD SVG 1.1//EN" "http://www.w3.org/Graphics/SVG/1.1/DTD/svg11.dtd">
<svg version="1.1" xmlns="http://www.w3.org/2000/svg" xmlns:xlink="http://www.w3.org/1999/xlink" preserveAspectRatio="xMidYMid meet" viewBox="341.8971428571429 322.04517995840695 46.55999999999989 61.70339147016449" width="46.56" height="61.7"><defs><path d="M388.27 378.81C388.25 378.1 388.25 377.39 388.21 376.69C388.16 375.75 388.11 374.83 388.05 373.9C387.98 373.1 388.02 372.16 387.82 371.38C387.68 370.88 386.72 370.51 386.33 370.26C385.6 369.78 384.89 369.28 384.16 368.75C382.67 367.68 381.23 366.51 379.84 365.33C379.79 365.28 379.73 365.26 379.68 365.23C379.63 364.98 379.45 364.85 379.18 364.8C374.83 364.27 370.49 363.84 366.13 363.52C364.94 362.81 363.75 362.1 362.56 361.37C361.78 360.89 361.03 360.41 360.25 359.93C359.93 359.73 359.59 359.52 359.27 359.31C359.11 359.2 358.38 358.86 358.1 358.63C358.1 358.61 358.1 358.56 358.1 358.54C358.1 358.51 358.1 358.49 358.08 358.49C358.08 358.45 358.06 358.42 358.03 358.38C358.03 357.74 358.03 357.07 358.01 356.43C361.05 357.94 363.73 360.05 366.45 362.08C366.45 362.42 366.47 362.77 366.49 363.09C366.51 363.73 367.52 363.75 367.5 363.09C367.43 360.78 367.34 358.45 367.25 356.14C367.43 356.05 367.54 355.82 367.34 355.66C367.29 355.63 367.27 355.59 367.22 355.57C367.18 354.56 367.15 353.53 367.11 352.53C367.22 352.41 367.27 352.23 367.13 352.09C367.13 352.09 367.11 352.07 367.11 352.07C367.02 349.81 366.93 347.54 366.81 345.28C366.86 345.19 366.88 345.07 366.79 344.98C366.7 343.31 366.63 341.62 366.54 339.95C366.45 338.1 366.33 336.23 366.24 334.38C366.15 332.66 366.26 330.72 365.69 329.07C365.23 327.75 363.84 327.02 362.74 326.31C361.12 325.28 359.52 324.23 357.9 323.2C357.83 323.15 357.78 323.13 357.71 323.13C357.62 322.97 357.46 322.88 357.28 322.86C352.91 322.67 348.53 322.49 344.16 322.31C343.98 322.1 343.63 322.1 343.41 322.29C343.36 322.29 343.31 322.29 343.27 322.29C342.63 322.26 342.63 323.22 343.22 323.29C342.63 340.62 342.24 357.94 342.06 375.27C341.97 375.43 341.97 375.59 342.06 375.73C342.1 375.98 342.31 376.14 342.56 376.16C342.65 376.16 342.77 376.16 342.86 376.18C344.27 376.87 345.62 377.62 346.95 378.49C348.53 379.54 349.87 380.85 351.38 381.97C352.8 383.02 354.51 382.95 356.21 383.04C358.33 383.15 360.48 383.22 362.63 383.29C363.54 383.31 364.46 383.34 365.37 383.34C365.37 383.34 365.39 383.36 365.39 383.36C365.51 383.45 365.65 383.43 365.71 383.34C369.83 383.41 373.97 383.34 378.08 383.2C378.24 383.34 378.4 383.47 378.56 383.61C378.86 383.86 379.29 383.45 378.99 383.18C378.99 383.18 378.97 383.18 378.97 383.15C380.71 383.09 382.47 382.99 384.21 382.9C384.32 382.99 384.46 382.97 384.57 382.88C385.55 382.81 386.54 382.77 387.5 382.7C387.75 382.83 388.14 382.77 388.25 382.47C388.37 382.29 388.39 382.06 388.3 381.87C388.27 381.03 388.27 380.18 388.27 379.34C388.41 379.22 388.46 378.95 388.27 378.81ZM380.5 372.8C380.43 372.25 380.39 371.68 380.32 371.13C382.51 372.87 384.8 374.51 387.18 376.02C387.18 376.73 387.22 377.42 387.25 378.1C384.91 376.46 382.65 374.67 380.5 372.8ZM380.21 370.29C380.16 369.76 380.09 369.26 380.05 368.73C380.78 369.39 381.65 369.92 382.45 370.49C383.95 371.57 385.49 372.62 386.99 373.69C387.04 374.22 387.09 374.77 387.11 375.29C384.73 373.74 382.42 372.07 380.21 370.29ZM386.93 372.91C385.85 372.16 384.78 371.41 383.7 370.65C382.47 369.78 380.96 368.98 379.95 367.82C379.91 367.43 379.86 367.04 379.84 366.65C382.06 368.5 384.39 370.24 386.83 371.82C386.88 372.18 386.9 372.55 386.93 372.91ZM361.28 361.28C362.45 362.01 363.61 362.72 364.78 363.43C362.54 363.27 360.3 363.13 358.03 363.02C358.06 362.97 358.06 362.93 358.06 362.88C358.06 361.69 358.03 360.5 358.03 359.31C358.26 359.41 358.49 359.52 358.65 359.61C359.52 360.16 360.39 360.73 361.28 361.28ZM358.01 355.73C358.01 354.77 357.99 353.81 357.99 352.82C359.02 353.65 360.23 354.29 361.3 354.97C362.97 356.02 364.64 357.07 366.31 358.13C366.35 359.18 366.4 360.21 366.42 361.26C363.73 359.25 361.05 357.19 358.01 355.73ZM366.29 357.39C364.96 356.55 363.61 355.73 362.29 354.88C360.87 353.99 359.2 353.19 357.97 352.05C357.97 351.09 357.94 350.13 357.94 349.17C359.27 349.92 360.46 350.88 361.65 351.84C363.18 353.03 364.71 354.26 366.22 355.5C366.24 356.14 366.26 356.75 366.29 357.39ZM362.08 351.38C360.75 350.31 359.45 349.26 357.94 348.43C357.94 347.59 357.92 346.72 357.92 345.87C360.8 347.66 363.52 349.69 366.06 351.93C366.13 352.87 366.15 353.78 366.19 354.7C364.82 353.6 363.45 352.48 362.08 351.38ZM357.92 345.19C357.92 344.23 357.9 343.27 357.9 342.31C360.66 344.02 363.43 345.74 365.9 347.86C365.94 348.94 365.99 350.03 366.03 351.11C363.5 348.91 360.78 346.93 357.92 345.19ZM357.92 341.6C357.92 340.48 357.9 339.34 357.9 338.22C360.53 340.43 363.15 342.67 365.78 344.89C365.81 345.6 365.83 346.31 365.87 347.04C363.41 344.96 360.64 343.29 357.92 341.6ZM357.87 337.39C357.87 336.48 357.85 335.54 357.85 334.63C360.59 336.64 363.18 338.86 365.58 341.28C365.62 342.19 365.67 343.13 365.71 344.05C363.11 341.83 360.48 339.61 357.87 337.39ZM357.85 333.9C357.85 333.01 357.83 332.11 357.83 331.22C360.43 333.26 363.22 335.22 365.44 337.67C365.46 338.56 365.51 339.47 365.55 340.39C363.15 338.03 360.57 335.86 357.85 333.9ZM357.83 330.42C357.83 330.21 357.81 328.47 357.81 328.25C357.9 328.25 357.99 328.23 358.03 328.16C358.08 328.11 358.08 328.09 358.1 328.05C360.43 330.15 362.83 332.21 365.28 334.17C365.33 335.02 365.37 335.86 365.39 336.71C363.13 334.35 360.37 332.43 357.83 330.42ZM364.98 330.49C365.1 331.45 365.19 332.41 365.26 333.37C362.72 331.29 360.25 329.17 357.83 326.97C357.83 326.08 357.81 325.21 357.81 324.32C359.04 325.12 360.3 325.92 361.58 326.74C363.11 327.73 364.73 328.48 364.98 330.49ZM344.23 323.29C348.41 323.47 352.59 323.63 356.78 323.82C356.8 326.97 356.82 330.13 356.85 333.26C356.64 333.33 356.53 333.67 356.78 333.83C356.8 333.85 356.82 333.87 356.87 333.9C356.89 337.46 356.91 341.01 356.94 344.57C356.94 344.57 356.94 344.57 356.91 344.57C356.57 344.37 356.27 344.89 356.62 345.1C356.73 345.17 356.82 345.23 356.94 345.3C356.94 346.22 356.96 347.15 356.96 348.07C356.73 348.16 356.62 348.48 356.89 348.59C356.91 348.59 356.94 348.62 356.96 348.62C357.01 353.37 357.03 358.1 357.07 362.86C357.07 362.9 357.07 362.95 357.1 362.97C356.59 363.09 356.66 363.93 357.26 363.98C364.43 364.32 371.61 364.91 378.74 365.78C378.81 366.42 379.36 371.52 379.43 372.16C379.27 372.25 379.22 372.5 379.36 372.64C379.41 372.69 379.45 372.71 379.47 372.75C379.49 372.95 379.66 374.52 379.68 374.72C367.52 375.66 355.29 375.82 343.11 375.18C343.09 375.13 343.06 375.13 343.06 375.13C343.25 357.85 343.63 340.57 344.23 323.29ZM345.21 376.25C346.15 376.3 347.06 376.32 348 376.37C348.02 376.43 348.07 376.48 348.14 376.53C350.99 378.35 353.85 380.21 356.71 382.03C354.95 382.03 353.05 382.03 351.7 380.91C349.6 379.18 347.52 377.58 345.21 376.25ZM349.05 376.39C350.22 376.43 351.38 376.46 352.57 376.48C352.59 376.53 352.62 376.57 352.66 376.59C355.25 378.45 357.83 380.3 360.41 382.15C359.57 382.13 358.72 382.1 357.87 382.06C356.11 380.92 349.93 376.96 349.05 376.39ZM361.49 382.19C358.83 380.3 356.18 378.4 353.55 376.5C354.67 376.53 355.79 376.53 356.91 376.53C359.18 378.54 361.51 380.46 363.93 382.26C363.89 382.26 363.84 382.26 363.79 382.26C363.02 382.24 362.26 382.22 361.49 382.19ZM357.83 376.55C358.81 376.55 359.79 376.55 360.8 376.53C363.25 378.58 365.78 380.53 368.43 382.31C367.27 382.31 366.13 382.31 364.96 382.29C362.49 380.48 360.11 378.56 357.83 376.55ZM369.33 382.19C366.7 380.43 364.16 378.54 361.71 376.5C362.54 376.5 363.38 376.48 364.21 376.46C366.56 378.56 369.05 380.5 371.66 382.31C370.93 382.31 370.17 382.31 369.44 382.31C369.42 382.26 369.39 382.22 369.33 382.19ZM372.57 382.19C369.97 380.43 367.47 378.51 365.12 376.46C365.87 376.43 366.65 376.41 367.41 376.39C367.43 376.43 367.45 376.46 367.5 376.5C369.76 378.42 372.05 380.37 374.31 382.29C373.74 382.26 373.19 382.29 372.66 382.29C372.64 382.24 372.62 382.22 372.57 382.19ZM368.25 376.34C368.96 376.32 369.67 376.3 370.38 376.25C370.35 376.34 370.38 376.43 370.47 376.5C372.62 378.4 374.79 380.3 376.94 382.17C376.37 382.19 375.77 382.22 375.2 382.24C372.89 380.27 370.56 378.31 368.25 376.34ZM371.06 376.23C372.14 376.18 373.21 376.11 374.29 376.07C374.88 376.65 379.65 381.33 380.25 381.92C380.53 382.19 380.96 381.76 380.69 381.49C378.83 379.66 376.98 377.83 375.11 376.02C375.84 375.98 376.57 375.93 377.3 375.89C377.3 375.91 377.33 375.91 377.35 375.93C379.31 377.94 381.28 379.95 383.25 381.97C381.44 382.03 379.63 382.1 377.83 382.17C376.48 380.98 371.74 376.82 371.06 376.23ZM378.08 375.82C378.67 375.77 379.29 375.73 379.89 375.68C379.93 375.75 380 375.77 380.09 375.82C380.66 376.82 381.94 377.65 382.72 378.33C383.98 379.47 385.23 380.62 386.49 381.76C385.65 381.78 384.85 381.85 384.05 381.9C382.06 379.86 380.07 377.85 378.08 375.82ZM384.59 378.67C384 378.15 383.43 377.6 382.83 377.07C382.38 376.66 381.35 375.98 380.96 375.29C381.05 375.06 380.98 374.81 380.8 374.7C380.78 374.61 380.73 374.51 380.66 374.47C380.64 374.22 380.62 373.97 380.57 373.71C382.72 375.54 384.94 377.26 387.25 378.88C387.27 379.61 387.27 380.34 387.27 381.1C386.38 380.3 385.49 379.47 384.59 378.67Z" id="b1jEBm9DG"></path><path d="M378.49 383.66C378.45 383.62 378.08 383.31 378.03 383.27C375.02 383.38 372.02 383.43 369.1 383.43C367.98 383.43 366.83 383.43 365.71 383.41C365.6 383.5 365.44 383.5 365.33 383.41C365.33 383.41 365.33 383.41 365.33 383.41C364.27 383.38 363.41 383.38 362.61 383.36C360.32 383.29 358.22 383.22 356.18 383.11C355.98 383.11 355.77 383.09 355.57 383.09C354.1 383.02 352.59 382.97 351.31 382.03C350.67 381.55 350.06 381.05 349.46 380.55C348.64 379.86 347.79 379.15 346.88 378.54C345.6 377.69 344.25 376.94 342.81 376.25C342.78 376.25 342.56 376.23 342.54 376.23C342.24 376.21 342.01 376.02 341.97 375.75C341.87 375.61 341.87 375.41 341.97 375.22C342.15 358.01 342.54 340.55 343.13 323.31C342.83 323.25 342.67 322.95 342.7 322.7C342.72 322.45 342.88 322.17 343.22 322.17C343.24 322.17 343.35 322.17 343.36 322.17C343.59 321.99 343.98 322.01 344.16 322.19C345.47 322.25 355.95 322.69 357.26 322.74C357.46 322.74 357.65 322.86 357.74 323.02C357.81 323.04 357.85 323.06 357.92 323.09C358.4 323.4 362.28 325.88 362.77 326.19C362.9 326.29 363.02 326.35 363.15 326.45C364.18 327.09 365.33 327.82 365.74 329.01C366.17 330.26 366.22 331.66 366.24 333.03C366.24 333.49 366.26 333.9 366.29 334.33C366.4 336.34 366.49 338.17 366.58 339.91C366.67 341.58 366.74 343.25 366.83 344.91C366.9 345.01 366.9 345.14 366.86 345.26C366.95 347.27 367.06 349.49 367.15 351.98C367.15 351.98 367.15 351.98 367.15 351.98C367.22 352.05 367.27 352.14 367.27 352.23C367.27 352.32 367.22 352.41 367.15 352.48C367.18 353.21 367.22 353.92 367.25 354.65C367.25 354.7 367.25 354.97 367.27 355.45C367.32 355.49 367.35 355.52 367.36 355.52C367.45 355.59 367.5 355.7 367.5 355.82C367.47 355.93 367.41 356.02 367.29 356.09C367.41 358.77 367.47 360.96 367.54 362.99C367.54 363.15 367.5 363.29 367.41 363.38C367.38 363.41 367.34 363.45 367.29 363.47C371.25 363.79 375.22 364.21 379.13 364.66C379.43 364.71 379.61 364.85 379.68 365.12C379.73 365.14 379.77 365.17 379.82 365.21C381.33 366.51 382.74 367.63 384.14 368.64C384.96 369.23 385.65 369.71 386.31 370.15C386.4 370.22 386.56 370.29 386.7 370.38C387.15 370.63 387.73 370.93 387.84 371.31C388 371.89 388.02 372.53 388.05 373.14C388.05 373.39 388.07 373.62 388.09 373.85C388.18 374.95 388.23 375.82 388.25 376.64C388.27 377.28 388.3 377.97 388.32 378.74C388.41 378.81 388.46 378.9 388.46 379.02C388.46 379.13 388.41 379.25 388.34 379.34C388.34 380.16 388.34 380.98 388.34 381.81C388.43 382.01 388.41 382.26 388.27 382.45C388.21 382.65 387.98 382.79 387.73 382.79C387.73 382.79 387.73 382.79 387.73 382.79C387.61 382.79 387.52 382.77 387.43 382.72C386.56 382.79 385.65 382.83 384.55 382.9C384.43 382.99 384.27 382.99 384.14 382.93C382.4 383.02 380.71 383.11 379.09 383.18C379.13 383.27 379.13 383.36 379.11 383.45C379.06 383.63 378.9 383.75 378.74 383.75C378.65 383.75 378.56 383.73 378.49 383.66ZM378.61 383.52C378.74 383.63 378.95 383.57 378.99 383.41C379.02 383.36 379.02 383.27 378.93 383.2C378.92 383.19 378.87 383.15 378.79 383.09C378.9 383.07 378.96 383.06 378.97 383.06C380.64 382.99 382.4 382.9 384.21 382.81C384.21 382.81 384.21 382.81 384.23 382.81C384.24 382.83 384.25 382.83 384.25 382.83C384.32 382.9 384.43 382.88 384.5 382.81C384.5 382.81 384.51 382.8 384.53 382.79C384.54 382.79 384.55 382.79 384.55 382.79C385.67 382.72 386.61 382.65 387.47 382.61C387.48 382.61 387.48 382.61 387.5 382.61C387.51 382.62 387.52 382.63 387.52 382.63C387.59 382.67 387.66 382.7 387.75 382.7C387.75 382.7 387.75 382.7 387.75 382.7C387.93 382.7 388.09 382.61 388.16 382.45C388.27 382.29 388.3 382.08 388.21 381.92C388.21 381.92 388.21 381.91 388.21 381.9C388.21 381.88 388.21 381.88 388.21 381.87C388.23 381.03 388.23 380.18 388.21 379.36C388.21 379.36 388.21 379.34 388.21 379.31C388.22 379.3 388.23 379.29 388.23 379.29C388.3 379.25 388.32 379.15 388.32 379.09C388.32 379.04 388.3 378.97 388.23 378.9C388.23 378.9 388.22 378.89 388.21 378.88C388.21 378.85 388.21 378.84 388.21 378.83C388.18 378.06 388.18 377.35 388.14 376.71C388.11 375.89 388.05 375.02 387.98 373.92C387.95 373.69 387.95 373.46 387.93 373.21C387.91 372.59 387.89 371.98 387.73 371.43C387.63 371.09 387.11 370.81 386.67 370.58C386.51 370.49 386.38 370.42 386.26 370.35C385.62 369.92 384.94 369.44 384.09 368.85C382.7 367.84 381.28 366.72 379.77 365.42C379.73 365.37 379.68 365.35 379.63 365.33C379.63 365.32 379.62 365.32 379.59 365.3C379.59 365.28 379.59 365.26 379.59 365.26C379.54 365.03 379.41 364.91 379.15 364.89C374.86 364.37 370.47 363.93 366.1 363.61C366.1 363.61 366.08 363.61 366.08 363.61C364.78 362.83 363.61 362.13 362.51 361.46C361.83 361.03 361.1 360.57 360.21 360.02C359.91 359.84 359.61 359.63 359.31 359.45C359.31 359.45 359.23 359.41 359.22 359.41C359.18 359.38 359.06 359.31 358.95 359.25C358.65 359.09 358.24 358.88 358.03 358.7C358.03 358.7 358.03 358.69 358.01 358.67C358.01 358.65 358.01 358.63 358.01 358.63C358.01 358.61 358.01 358.58 358.01 358.56C358.01 358.56 357.99 358.52 357.99 358.51C357.99 358.49 357.97 358.47 357.94 358.45C357.94 358.44 357.93 358.44 357.92 358.42L357.9 356.32C357.97 356.35 358 356.36 358.01 356.37C360.75 357.74 363.27 359.61 365.67 361.42C365.94 361.62 366.19 361.81 366.47 362.01C366.47 362.01 366.48 362.02 366.49 362.03C366.51 362.31 366.51 362.46 366.51 362.49C366.51 362.67 366.54 362.88 366.54 363.06C366.54 363.34 366.77 363.47 366.99 363.47C367.11 363.47 367.22 363.43 367.31 363.36C367.38 363.29 367.43 363.2 367.41 363.06C367.34 361.03 367.27 358.81 367.15 356.11C367.15 356.11 367.15 356.1 367.15 356.07C367.18 356.05 367.2 356.05 367.2 356.05C367.29 356 367.34 355.93 367.36 355.86C367.36 355.79 367.34 355.75 367.29 355.7C367.28 355.7 367.24 355.66 367.15 355.59C367.14 355.07 367.13 354.78 367.13 354.72C367.11 353.99 367.09 353.26 367.04 352.53C367.04 352.52 367.04 352.51 367.04 352.48C367.05 352.47 367.06 352.46 367.06 352.46C367.11 352.41 367.15 352.34 367.15 352.3C367.15 352.25 367.13 352.21 367.09 352.16C367.08 352.16 367.07 352.14 367.04 352.11C367.04 352.1 367.04 352.09 367.04 352.09C366.93 349.55 366.83 347.34 366.74 345.3C366.74 345.3 366.74 345.29 366.74 345.28C366.76 345.27 366.76 345.26 366.77 345.26C366.79 345.21 366.81 345.14 366.77 345.05C366.76 345.05 366.76 345.04 366.74 345.03C366.74 345.01 366.74 345.01 366.74 345.01C366.65 343.34 366.58 341.65 366.49 339.98C366.4 338.24 366.31 336.41 366.19 334.4C366.17 333.97 366.15 333.53 366.15 333.1C366.13 331.75 366.08 330.35 365.65 329.12C365.26 327.98 364.11 327.27 363.11 326.65C362.97 326.56 362.86 326.49 362.72 326.4C362.24 326.09 358.36 323.6 357.87 323.29C357.83 323.27 357.78 323.25 357.71 323.22C357.71 323.22 357.7 323.22 357.67 323.22C357.65 323.21 357.65 323.2 357.65 323.2C357.58 323.06 357.44 322.97 357.26 322.97C356.38 322.93 351.99 322.75 344.09 322.42C344.08 322.41 344.07 322.4 344.07 322.4C343.93 322.24 343.61 322.22 343.43 322.38C343.43 322.38 343.42 322.39 343.41 322.4C343.3 322.4 343.24 322.4 343.22 322.4C342.95 322.4 342.86 322.61 342.83 322.77C342.81 322.97 342.95 323.22 343.2 323.25C343.2 323.25 343.23 323.25 343.27 323.25C343.27 323.29 343.27 323.31 343.27 323.31C342.67 340.57 342.29 358.06 342.1 375.29C342.1 375.3 342.1 375.33 342.1 375.34C342.03 375.47 342.03 375.61 342.1 375.73C342.11 375.73 342.12 375.75 342.13 375.75C342.15 375.95 342.33 376.11 342.56 376.11C342.59 376.12 342.85 376.13 342.88 376.14C344.32 376.82 345.69 377.6 346.97 378.45C347.91 379.06 348.75 379.77 349.58 380.46C350.17 380.96 350.79 381.46 351.41 381.92C352.64 382.83 354.06 382.88 355.57 382.95C355.77 382.95 355.98 382.97 356.18 382.97C358.19 383.09 360.3 383.15 362.58 383.22C363.41 383.25 364.27 383.27 365.33 383.27C365.33 383.27 365.33 383.27 365.35 383.27C365.38 383.28 365.39 383.29 365.39 383.29C365.51 383.38 365.6 383.34 365.62 383.29C365.62 383.29 365.63 383.28 365.65 383.27C365.66 383.27 365.67 383.27 365.67 383.27C366.79 383.29 367.93 383.29 369.07 383.29C372 383.29 375.02 383.25 378.03 383.13C378.04 383.13 378.06 383.11 378.1 383.09C378.4 383.35 378.57 383.49 378.61 383.52ZM366.63 363.47C366.51 363.38 366.45 363.25 366.42 363.06C366.42 362.88 366.4 362.67 366.4 362.49C366.4 362.45 366.38 362.14 366.38 362.1C366.13 361.92 365.87 361.71 365.6 361.53C363.22 359.75 360.78 357.92 358.08 356.55C358.08 356.73 358.1 358.17 358.1 358.35C358.13 358.38 358.15 358.42 358.15 358.47C358.15 358.47 358.17 358.51 358.17 358.51C358.17 358.54 358.17 358.56 358.17 358.58C358.35 358.74 358.77 358.95 359.02 359.09C359.15 359.15 359.25 359.2 359.31 359.25C359.32 359.25 359.4 359.29 359.41 359.29C359.7 359.47 360 359.68 360.3 359.86C361.19 360.41 361.92 360.87 362.61 361.3C363.68 361.97 364.85 362.65 366.15 363.43C366.31 363.45 366.47 363.45 366.63 363.47ZM368.41 382.38C367.09 382.38 365.99 382.35 364.96 382.35C364.96 382.35 364.95 382.35 364.94 382.35C364.92 382.34 364.92 382.33 364.91 382.33C362.47 380.53 360.05 378.61 357.76 376.57C357.75 376.56 357.7 376.52 357.6 376.43C357.72 376.43 357.79 376.43 357.81 376.43C358.74 376.43 359.73 376.43 360.78 376.41C360.78 376.41 360.79 376.41 360.8 376.41C360.81 376.43 360.82 376.43 360.82 376.43C363.25 378.49 365.81 380.43 368.46 382.22C368.47 382.23 368.54 382.28 368.66 382.38C368.51 382.38 368.43 382.38 368.41 382.38ZM368.18 382.22C365.62 380.48 363.13 378.58 360.78 376.57C359.82 376.57 358.93 376.59 358.03 376.59C360.27 378.56 362.61 380.46 365.01 382.19C365.97 382.22 366.99 382.22 368.18 382.22ZM369.35 382.33C369.33 382.29 369.3 382.26 369.26 382.24C366.63 380.5 364.07 378.58 361.65 376.55C361.64 376.54 361.58 376.49 361.49 376.41C361.61 376.41 361.68 376.41 361.69 376.41C362.51 376.41 363.36 376.39 364.18 376.37C364.18 376.37 364.19 376.37 364.21 376.37C364.22 376.38 364.23 376.39 364.23 376.39C366.58 378.47 369.07 380.43 371.66 382.22C371.67 382.23 371.74 382.27 371.86 382.35C371.73 382.35 371.65 382.35 371.63 382.35C370.88 382.35 370.15 382.38 369.39 382.38C369.39 382.38 369.39 382.38 369.37 382.38C369.36 382.35 369.35 382.33 369.35 382.33ZM369.37 382.13C369.42 382.15 369.46 382.19 369.49 382.24C370.13 382.24 370.79 382.24 371.43 382.24C368.91 380.5 366.47 378.58 364.18 376.55C363.43 376.55 362.67 376.57 361.92 376.57C364.3 378.54 366.79 380.41 369.37 382.13ZM372.59 382.31C372.57 382.29 372.55 382.26 372.53 382.24C369.94 380.5 367.43 378.56 365.05 376.48C365.04 376.47 365 376.43 364.91 376.34C365.02 376.34 365.08 376.34 365.1 376.34C365.85 376.32 366.63 376.3 367.38 376.27C367.39 376.27 367.4 376.27 367.43 376.27C367.44 376.3 367.45 376.32 367.45 376.32C367.47 376.34 367.47 376.37 367.52 376.39C367.98 376.78 370.31 378.76 374.49 382.31C374.37 382.31 374.3 382.31 374.29 382.31C373.74 382.31 373.19 382.33 372.66 382.33C372.66 382.33 372.64 382.34 372.62 382.35C372.6 382.33 372.6 382.31 372.59 382.31ZM372.62 382.13C372.66 382.15 372.69 382.17 372.71 382.22C373.17 382.22 373.62 382.19 374.1 382.19C373.44 381.63 368.12 377.11 367.45 376.55C367.43 376.53 367.41 376.5 367.38 376.46C366.67 376.46 365.99 376.48 365.3 376.5C367.61 378.51 370.08 380.41 372.62 382.13ZM363.77 382.35C362.99 382.33 362.24 382.31 361.46 382.29C361.46 382.29 361.45 382.29 361.44 382.29L361.42 382.26L353.28 376.43C353.43 376.43 353.51 376.43 353.53 376.43C354.63 376.46 355.75 376.46 356.89 376.46C356.89 376.46 356.9 376.46 356.91 376.46C356.93 376.47 356.94 376.48 356.94 376.48C359.18 378.47 361.53 380.41 363.95 382.22C363.97 382.23 364.04 382.27 364.16 382.35C363.93 382.35 363.8 382.35 363.77 382.35ZM363.7 382.19C361.37 380.43 359.06 378.56 356.89 376.62C355.84 376.62 354.81 376.59 353.81 376.59C354.32 376.96 356.89 378.81 361.51 382.13C362.48 382.16 363.22 382.18 363.7 382.19ZM375.18 382.31L368.07 376.25C368.19 376.25 368.26 376.25 368.27 376.25C368.96 376.23 369.65 376.21 370.33 376.16C370.34 376.16 370.4 376.16 370.51 376.16C370.5 376.21 370.49 376.25 370.49 376.25C370.47 376.32 370.49 376.39 370.56 376.43C371 376.82 373.2 378.76 377.17 382.24C376.81 382.25 376.61 382.26 376.57 382.26C376.11 382.29 375.68 382.29 375.22 382.31C375.22 382.31 375.2 382.31 375.18 382.31L375.18 382.31ZM375.22 382.17C375.66 382.17 376.11 382.15 376.55 382.13C376.56 382.13 376.63 382.13 376.75 382.13C372.96 378.79 370.84 376.94 370.42 376.57C370.35 376.5 370.31 376.41 370.31 376.34C369.69 376.34 369.07 376.39 368.46 376.41C369.81 377.56 374.55 381.6 375.22 382.17ZM360.41 382.24C359.57 382.22 358.72 382.17 357.87 382.15C357.87 382.15 357.87 382.15 357.85 382.15L357.83 382.15L348.78 376.34C348.94 376.34 349.03 376.34 349.05 376.34C350.17 376.39 351.36 376.41 352.57 376.43C352.57 376.43 352.59 376.43 352.62 376.43C352.63 376.46 352.64 376.48 352.64 376.48C352.66 376.53 352.69 376.55 352.71 376.57C353.24 376.95 355.89 378.84 360.66 382.24C360.51 382.24 360.43 382.24 360.41 382.24ZM360.16 382.08C359.41 381.54 353.37 377.2 352.62 376.66C352.57 376.64 352.55 376.59 352.53 376.57C351.43 376.55 350.35 376.53 349.33 376.5C349.9 376.87 352.75 378.7 357.9 381.99C358.9 382.03 359.66 382.06 360.16 382.08ZM370.88 376.16C370.99 376.16 371.05 376.16 371.06 376.16C372.02 376.11 373.07 376.07 374.29 376C374.29 376 374.29 376 374.31 376C377.9 379.52 379.9 381.48 380.3 381.87C380.41 381.99 380.62 381.92 380.66 381.78C380.69 381.74 380.71 381.65 380.62 381.55C380.24 381.18 378.34 379.31 374.93 375.95C375.02 375.95 375.08 375.95 375.09 375.95C375.82 375.91 376.55 375.86 377.28 375.82C377.28 375.82 377.3 375.82 377.33 375.82C377.34 375.84 377.35 375.86 377.35 375.86C377.35 375.89 377.37 375.89 377.37 375.91C377.77 376.32 379.78 378.37 383.38 382.06C383.29 382.06 383.23 382.06 383.22 382.06C381.37 382.15 379.57 382.24 377.83 382.29C377.83 382.28 377.82 382.27 377.81 382.24L370.88 376.16ZM377.85 382.1C378.63 382.08 379.43 382.06 380.23 382.01C380.21 381.99 380.21 381.99 380.18 381.97C379.59 381.38 374.83 376.72 374.24 376.14C373.14 376.18 372.16 376.25 371.25 376.3C372.57 377.46 377.19 381.52 377.85 382.1ZM380.71 381.42C380.82 381.53 380.85 381.67 380.8 381.81C380.78 381.87 380.73 381.92 380.69 381.97C381.46 381.92 382.26 381.9 383.06 381.85C382.48 381.26 377.86 376.54 377.28 375.95C377.28 375.95 377.26 375.93 377.26 375.93C376.59 375.98 375.93 376.02 375.27 376.07C376.36 377.14 380.16 380.88 380.71 381.42ZM356.62 382.13C354.93 382.1 352.98 382.1 351.63 380.98C349.69 379.38 347.57 377.74 345.14 376.32C345.12 376.31 345.03 376.26 344.87 376.16C345.06 376.17 345.17 376.18 345.19 376.18C346.03 376.23 346.9 376.25 347.98 376.3C347.98 376.3 348 376.3 348.02 376.3C348.04 376.32 348.04 376.34 348.05 376.34C348.07 376.39 348.09 376.43 348.14 376.46C348.73 376.84 351.67 378.72 356.96 382.13C356.75 382.13 356.64 382.13 356.62 382.13ZM351.75 380.87C353.01 381.9 354.74 381.94 356.43 381.97C355.6 381.43 348.91 377.13 348.07 376.59C348 376.55 347.95 376.5 347.93 376.43C347.02 376.41 346.24 376.39 345.51 376.34C347.84 377.71 349.87 379.31 351.75 380.87ZM377.9 375.75C377.99 375.73 378.05 375.73 378.06 375.73C378.65 375.68 379.27 375.63 379.86 375.59C379.87 375.59 379.88 375.59 379.91 375.59C379.92 375.6 379.93 375.61 379.93 375.61C379.98 375.66 380.02 375.7 380.09 375.73C380.09 375.73 380.1 375.73 380.11 375.73C380.13 375.74 380.14 375.75 380.14 375.75C380.55 376.46 381.33 377.1 382.01 377.62C382.29 377.83 382.54 378.03 382.74 378.24C383 378.48 384.31 379.66 386.65 381.78C386.54 381.8 386.48 381.8 386.47 381.81C385.67 381.85 384.85 381.9 384.05 381.94C384.04 381.94 384.03 381.95 384 381.97L377.9 375.75ZM384.05 381.81C384.78 381.76 385.53 381.71 386.26 381.67C385.9 381.34 382.99 378.71 382.63 378.38C382.42 378.19 382.17 377.99 381.9 377.76C381.21 377.21 380.43 376.59 380 375.86C379.93 375.84 379.89 375.79 379.82 375.75C379.31 375.79 378.79 375.84 378.24 375.86C379.4 377.05 383.47 381.21 384.05 381.81ZM382.77 377.14C382.65 377.03 382.49 376.91 382.31 376.75C381.81 376.34 381.17 375.86 380.87 375.34C380.87 375.34 380.86 375.33 380.85 375.31C380.86 375.3 380.87 375.29 380.87 375.29C380.94 375.09 380.89 374.88 380.73 374.79C380.73 374.79 380.72 374.78 380.71 374.77C380.71 374.75 380.71 374.74 380.71 374.74C380.69 374.67 380.66 374.61 380.59 374.54C380.59 374.54 380.59 374.53 380.57 374.51L380.46 373.53C380.54 373.6 380.59 373.64 380.59 373.65C382.72 375.45 384.96 377.19 387.27 378.81C387.27 378.81 387.28 378.82 387.29 378.83C387.29 378.86 387.29 378.88 387.29 378.88C387.31 379.63 387.31 380.39 387.31 381.12C387.32 381.13 387.32 381.18 387.34 381.28C384.59 378.8 383.07 377.42 382.77 377.14ZM382.4 376.62C382.58 376.75 382.74 376.89 382.88 377.01C383.31 377.4 386.77 380.52 387.2 380.91C387.2 380.25 387.2 379.57 387.18 378.88C384.94 377.3 382.74 375.61 380.66 373.85C380.67 373.91 380.72 374.35 380.73 374.4C380.8 374.47 380.85 374.54 380.87 374.63C381.05 374.77 381.12 375.04 381.03 375.27C381.3 375.75 381.92 376.23 382.4 376.62ZM387.2 378.15C384.89 376.5 382.61 374.72 380.43 372.85C380.43 372.84 380.43 372.84 380.41 372.82L380.21 370.95C380.29 371.02 380.33 371.06 380.34 371.06C382.54 372.8 384.85 374.45 387.18 375.95C387.18 375.96 387.19 375.96 387.2 375.98C387.2 376 387.2 376.02 387.2 376.02C387.25 376.82 387.27 377.49 387.29 378.08C387.29 378.09 387.3 378.14 387.31 378.24C387.25 378.19 387.21 378.15 387.2 378.15ZM387.15 377.97C387.13 377.42 387.11 376.8 387.09 376.09C384.8 374.63 382.56 373.01 380.41 371.31C380.42 371.41 380.47 371.9 380.55 372.78C383.44 375.15 385.65 376.88 387.15 377.97ZM343.09 375.22C343.08 375.22 343.08 375.22 343.06 375.22L342.97 375.18C342.97 375.15 342.97 375.13 342.97 375.13C343.15 357.94 343.54 340.5 344.14 323.29C344.14 323.29 344.14 323.26 344.14 323.22L344.21 323.22L356.82 323.75L356.89 333.33C356.86 333.34 356.85 333.35 356.85 333.35C356.78 333.37 356.71 333.46 356.69 333.55C356.69 333.6 356.69 333.71 356.78 333.78C356.78 333.79 356.82 333.82 356.89 333.87L356.89 333.94L356.98 344.71C356.91 344.67 356.88 344.64 356.87 344.64C356.82 344.62 356.78 344.59 356.73 344.59C356.62 344.59 356.55 344.69 356.53 344.78C356.5 344.82 356.5 344.94 356.62 345.03C356.69 345.07 356.73 345.1 356.8 345.14C356.85 345.17 356.89 345.21 356.94 345.23C356.94 345.24 356.96 345.24 356.98 345.26L357.01 348.11C356.98 348.13 356.96 348.14 356.96 348.14C356.87 348.18 356.8 348.27 356.78 348.37C356.78 348.43 356.82 348.5 356.89 348.53C356.9 348.53 356.94 348.54 357.01 348.57C357.07 357.14 357.11 361.9 357.12 362.86C357.12 362.9 357.12 362.93 357.14 362.95C357.14 362.95 357.15 362.98 357.17 363.02C357.12 363.03 357.1 363.04 357.1 363.04C356.89 363.09 356.8 363.31 356.82 363.47C356.85 363.66 356.96 363.86 357.23 363.89C364.37 364.23 371.61 364.82 378.74 365.69C378.75 365.69 378.77 365.69 378.81 365.69L379.52 372.18C379.49 372.2 379.48 372.2 379.47 372.21C379.41 372.25 379.36 372.32 379.36 372.39C379.36 372.43 379.36 372.5 379.43 372.55C379.44 372.56 379.48 372.6 379.57 372.69L379.79 374.74C379.75 374.74 379.73 374.74 379.73 374.74C372.43 375.31 365.07 375.61 357.78 375.61C352.89 375.61 347.95 375.47 343.09 375.22ZM357.78 375.45C365.03 375.45 372.37 375.18 379.59 374.61C379.57 374.48 379.51 373.87 379.38 372.75C379.33 372.7 379.3 372.67 379.29 372.66C379.2 372.59 379.18 372.48 379.18 372.37C379.18 372.25 379.25 372.16 379.31 372.09C379.25 371.46 378.7 366.43 378.63 365.81C371.52 364.96 364.32 364.37 357.19 364.02C356.85 364 356.66 363.75 356.64 363.47C356.62 363.2 356.75 362.97 356.96 362.88C356.96 362.86 356.96 362.83 356.96 362.81C356.95 361.87 356.91 357.13 356.85 348.62C356.83 348.6 356.82 348.6 356.82 348.59C356.69 348.53 356.62 348.41 356.62 348.3C356.62 348.16 356.71 348.02 356.85 347.95C356.84 347.69 356.83 345.55 356.82 345.28C356.78 345.26 356.75 345.23 356.71 345.21C356.64 345.17 356.59 345.14 356.53 345.1C356.37 345.01 356.32 344.85 356.37 344.69C356.41 344.48 356.62 344.34 356.82 344.39C356.82 343.69 356.8 340.18 356.75 333.87C356.73 333.85 356.71 333.83 356.71 333.83C356.59 333.74 356.53 333.6 356.55 333.44C356.57 333.3 356.64 333.19 356.75 333.14C356.75 332.52 356.73 329.41 356.69 323.82C349.25 323.5 345.12 323.33 344.3 323.29C343.7 340.53 343.31 357.92 343.13 375.06C348 375.31 352.91 375.45 357.78 375.45ZM387.06 375.34C384.69 373.78 382.35 372.09 380.16 370.33C380.16 370.33 380.15 370.32 380.14 370.31L379.95 368.53C380.04 368.61 380.08 368.65 380.09 368.66C380.64 369.17 381.28 369.6 381.9 370.01C382.08 370.15 382.29 370.29 382.47 370.4C382.77 370.61 384.31 371.69 387.06 373.62C387.06 373.65 387.06 373.67 387.06 373.67C387.11 374.24 387.15 374.77 387.18 375.27C387.18 375.28 387.19 375.33 387.2 375.43C387.12 375.37 387.07 375.34 387.06 375.34ZM387.02 375.15C386.99 374.72 386.95 374.24 386.93 373.74C386.47 373.42 382.85 370.88 382.4 370.56C382.22 370.42 382.01 370.29 381.83 370.17C381.26 369.78 380.69 369.39 380.14 368.94C380.15 369.03 380.19 369.47 380.27 370.26C383.22 372.5 385.46 374.13 387.02 375.15ZM383.66 370.7C383.34 370.47 383.02 370.26 382.67 370.03C381.69 369.39 380.66 368.71 379.91 367.86C379.91 367.86 379.9 367.85 379.89 367.84L379.75 366.47C379.83 366.54 379.88 366.58 379.89 366.58C382.1 368.46 384.48 370.19 386.9 371.75C386.9 371.75 386.91 371.76 386.93 371.77C386.93 371.8 386.93 371.81 386.93 371.82C386.95 372.09 386.97 372.39 386.99 372.69C387 372.71 387 372.83 387.02 373.05C385 371.64 383.88 370.85 383.66 370.7ZM382.74 369.92C383.09 370.15 383.43 370.35 383.75 370.58C383.96 370.73 384.99 371.45 386.86 372.75C386.86 372.71 386.86 372.69 386.86 372.69C386.83 372.41 386.81 372.14 386.79 371.86C384.41 370.33 382.13 368.64 379.93 366.83C379.94 366.9 379.97 367.21 380.02 367.77C381.2 368.78 382.1 369.49 382.74 369.92ZM364.78 363.47C362.47 363.31 360.21 363.15 358.06 363.06C358.05 363.06 358.02 363.06 357.97 363.06C357.98 363.01 357.99 362.98 357.99 362.97C358.01 362.93 358.01 362.88 358.01 362.86C358.01 362.61 358 361.38 357.99 359.15C358.06 359.2 358.1 359.22 358.1 359.22C358.19 359.27 358.29 359.34 358.4 359.38C358.51 359.45 358.63 359.5 358.72 359.57C359.5 360.07 360.34 360.59 361.35 361.21C362.35 361.85 363.47 362.51 364.85 363.36C364.86 363.37 364.95 363.41 365.1 363.5C364.91 363.48 364.8 363.48 364.78 363.47ZM364.46 363.31C363.2 362.56 362.17 361.92 361.21 361.35C360.21 360.71 359.36 360.18 358.58 359.68C358.49 359.63 358.38 359.57 358.26 359.5C358.19 359.47 358.15 359.43 358.08 359.41C358.08 359.75 358.1 362.49 358.1 362.83C358.15 362.88 358.15 362.9 358.13 362.93C360.16 363.04 362.29 363.15 364.46 363.31ZM365.92 360.96C363.43 359.09 360.85 357.17 357.99 355.77C357.99 355.77 357.97 355.76 357.94 355.75L357.92 352.66C357.99 352.72 358.03 352.75 358.03 352.75C358.74 353.33 359.57 353.81 360.37 354.29C360.69 354.49 361.03 354.67 361.37 354.88C361.71 355.09 363.39 356.15 366.42 358.06C366.42 358.08 366.42 358.1 366.42 358.1C366.45 358.9 366.49 359.73 366.51 360.53C366.51 360.59 366.51 360.88 366.51 361.42C366.16 361.14 365.96 360.99 365.92 360.96ZM365.99 360.85C366.01 360.86 366.13 360.95 366.33 361.1C366.32 360.75 366.31 360.56 366.31 360.53C366.29 359.73 366.26 358.95 366.22 358.15C365.72 357.84 361.73 355.33 361.23 355.02C360.91 354.81 360.57 354.61 360.25 354.42C359.5 353.97 358.72 353.51 358.03 352.98C358.04 353.16 358.05 354.06 358.08 355.68C361.71 357.89 364.34 359.61 365.99 360.85ZM362.26 354.95C361.87 354.7 361.46 354.47 361.03 354.22C359.95 353.58 358.83 352.94 357.94 352.11C357.94 352.11 357.93 352.11 357.92 352.09L357.9 349.05C357.97 349.09 358 349.12 358.01 349.12C359.36 349.9 360.55 350.86 361.71 351.79C362.02 352.04 363.55 353.28 366.31 355.5L366.38 357.53C363.91 355.98 362.54 355.12 362.26 354.95ZM361.1 354.08C361.51 354.33 361.94 354.56 362.33 354.81C362.59 354.97 363.89 355.79 366.22 357.26L366.15 355.54C363.42 353.35 361.9 352.13 361.6 351.89C360.48 350.97 359.31 350.03 358.03 349.28C358.04 349.46 358.04 350.37 358.06 352C359.37 352.96 360.38 353.65 361.1 354.08ZM361.97 351.41C360.69 350.38 359.36 349.3 357.9 348.53C357.89 348.52 357.88 348.52 357.85 348.5L357.83 345.76C357.9 345.8 357.94 345.82 357.94 345.83C360.8 347.61 363.54 349.65 366.1 351.89C366.1 351.89 366.11 351.89 366.13 351.91C366.13 351.92 366.13 351.93 366.13 351.93C366.15 352.55 366.17 353.17 366.19 353.78C366.2 353.85 366.22 354.21 366.26 354.86C363.68 352.79 362.25 351.64 361.97 351.41ZM362.08 351.27C362.35 351.48 363.69 352.57 366.1 354.51C366.09 354.08 366.08 353.83 366.08 353.78C366.06 353.17 366.03 352.57 366.01 351.95C363.52 349.76 360.82 347.75 358.01 346.01C358.01 346.17 358.02 346.96 358.03 348.39C359.88 349.62 361.23 350.58 362.08 351.27ZM365.99 351.15C363.47 348.98 360.73 346.97 357.9 345.23C357.89 345.23 357.88 345.23 357.85 345.21L357.83 342.15C358.01 342.26 358.11 342.32 358.13 342.33C360.8 343.98 363.54 345.69 365.97 347.79C365.97 347.8 365.97 347.8 365.99 347.82C365.99 347.83 365.99 347.84 365.99 347.84C366.03 348.91 366.08 349.99 366.13 351.09C366.13 351.1 366.13 351.16 366.13 351.27C366.04 351.2 366 351.16 365.99 351.15ZM365.97 350.93C365.92 349.92 365.87 348.91 365.83 347.91C363.43 345.83 360.69 344.14 358.03 342.49C358.03 342.49 358.02 342.47 357.99 342.45L358.01 345.14C361.65 347.58 364.3 349.51 365.97 350.93ZM365.81 347.09C363.47 345.12 360.82 343.5 358.29 341.9C358.26 341.88 358.1 341.78 357.83 341.6L357.81 338.01L358.79 338.86L365.83 344.82C365.83 344.84 365.83 344.84 365.83 344.85C365.85 345.3 365.87 345.76 365.9 346.22C365.9 346.28 365.92 346.61 365.94 347.2C365.86 347.13 365.81 347.09 365.81 347.09ZM358.38 341.81C360.89 343.36 363.47 344.96 365.78 346.88C365.78 346.82 365.76 346.35 365.76 346.29C365.74 345.83 365.71 345.39 365.69 344.94C365.18 344.5 362.6 342.31 357.97 338.38L357.99 341.55C358.22 341.71 358.35 341.79 358.38 341.81ZM357.81 337.44L357.78 334.49C357.85 334.55 357.89 334.58 357.9 334.58C360.62 336.57 363.22 338.81 365.65 341.23C365.65 341.24 365.65 341.24 365.67 341.26C365.67 341.27 365.67 341.28 365.67 341.28C365.69 341.9 365.74 342.54 365.76 343.15C365.76 343.23 365.78 343.58 365.81 344.23L357.81 337.44ZM365.62 343.89C365.6 343.45 365.58 343.2 365.58 343.15C365.55 342.54 365.51 341.92 365.49 341.3C363.11 338.95 360.57 336.75 357.9 334.79C357.9 334.96 357.92 335.82 357.94 337.37L365.62 343.89ZM365.49 340.43C363.11 338.1 360.53 335.91 357.81 333.94C357.8 333.94 357.8 333.93 357.78 333.92L357.76 331.06C357.83 331.12 357.87 331.15 357.87 331.15C358.33 331.5 358.79 331.86 359.25 332.21C361.42 333.85 363.66 335.57 365.49 337.6C365.49 337.6 365.49 337.61 365.51 337.62C365.51 337.64 365.51 337.64 365.51 337.65C365.53 338.56 365.58 339.47 365.62 340.39C365.62 340.4 365.62 340.46 365.62 340.57C365.54 340.49 365.49 340.44 365.49 340.43ZM365.46 340.21C365.42 339.36 365.39 338.54 365.37 337.69C363.54 335.68 361.33 333.99 359.18 332.34C358.77 332.02 358.33 331.7 357.92 331.38C357.92 331.55 357.92 332.37 357.92 333.85C361.38 336.56 363.89 338.68 365.46 340.21ZM365.35 336.78C363.61 334.97 361.58 333.42 359.59 331.91C358.99 331.45 358.38 330.97 357.78 330.51C357.78 330.51 357.77 330.51 357.76 330.49L357.74 328.21L357.81 328.21C357.81 328.21 357.81 328.21 357.81 328.21C357.87 328.21 357.94 328.18 357.99 328.14C358.01 328.11 358.03 328.09 358.03 328.05C358.04 328.04 358.05 328 358.08 327.93C358.13 327.97 358.17 328 358.17 328C360.53 330.13 362.95 332.18 365.35 334.13C365.35 334.13 365.36 334.13 365.37 334.15C365.37 334.16 365.37 334.17 365.37 334.17C365.42 335.04 365.46 335.89 365.49 336.71C365.49 336.72 365.49 336.79 365.49 336.91C365.4 336.83 365.36 336.79 365.35 336.78ZM359.68 331.77C361.62 333.26 363.61 334.77 365.33 336.53C365.3 335.79 365.26 335.02 365.21 334.24C362.83 332.32 360.46 330.29 358.15 328.18C358.13 328.21 358.13 328.23 358.1 328.23C358.06 328.27 357.97 328.32 357.9 328.34C357.9 328.48 357.9 329.17 357.9 330.4C358.69 331.01 359.28 331.47 359.68 331.77ZM365.19 333.42C362.65 331.34 360.14 329.19 357.76 327.02C357.76 327.02 357.75 327.01 357.74 326.99L357.71 324.16C360.06 325.67 361.36 326.51 361.62 326.67C361.81 326.79 361.99 326.9 362.17 327.02C363.54 327.86 364.85 328.66 365.05 330.47C365.17 331.34 365.23 332.27 365.33 333.35C365.33 333.36 365.33 333.42 365.33 333.53C365.24 333.46 365.2 333.42 365.19 333.42ZM365.14 333.19C365.07 332.18 364.98 331.29 364.89 330.49C364.69 328.75 363.43 327.98 362.08 327.15C361.9 327.04 361.71 326.93 361.53 326.81C361.29 326.65 360.06 325.87 357.85 324.46L357.87 326.93C361.06 329.74 363.48 331.83 365.14 333.19Z" id="d3gh2Xacf9"></path></defs><g><g><g><use xlink:href="#b1jEBm9DG" opacity="1" fill="#000000" fill-opacity="1"></use><g><use xlink:href="#b1jEBm9DG" opacity="1" fill-opacity="0" stroke="#000000" stroke-width="1" stroke-opacity="0"></use></g></g><g><use xlink:href="#d3gh2Xacf9" opacity="1" fill="#180f0b" fill-opacity="1"></use><g><use xlink:href="#d3gh2Xacf9" opacity="1" fill-opacity="0" stroke="#000000" stroke-width="1" stroke-opacity="0"></use></g></g></g></g></svg>