<?xml version="1.0" ?><svg id="图层_1" style="enable-background:new -239 241 32 32;" version="1.1" viewBox="-239 241 32 32" xml:space="preserve" xmlns="http://www.w3.org/2000/svg" xmlns:xlink="http://www.w3.org/1999/xlink"><style type="text/css">
	.st0{fill:#F42F42;}
	.st1{opacity:0.2038;fill:#332E0A;enable-background:new    ;}
	.st2{fill:none;stroke:#0A2933;stroke-linejoin:round;}
	.st3{fill:none;stroke:#FFFFFF;stroke-linecap:round;stroke-linejoin:round;stroke-dasharray:1,2,6,2,3;}
</style><path class="letter-fill" d="M-220.1,257.5v6.3c0,1-0.2,1.7-0.7,2.2c-0.5,0.5-1,0.7-1.8,0.7c-0.7,0-1.3-0.2-1.7-0.7s-0.7-1.2-0.7-2.2v-7.6  c0-1.2,0-2.1-0.1-2.8c-0.1-0.7-0.3-1.2-0.7-1.6c-0.4-0.4-0.9-0.6-1.7-0.6c-1.6,0-2.6,0.5-3.1,1.6s-0.7,2.6-0.7,4.6v6.4  c0,1-0.2,1.7-0.7,2.2s-1,0.8-1.8,0.8c-0.7,0-1.3-0.3-1.8-0.8s-0.7-1.2-0.7-2.2v-13.6c0-0.9,0.2-1.6,0.6-2c0.4-0.5,1-0.7,1.6-0.7  c0.6,0,1.2,0.2,1.6,0.7c0.4,0.4,0.7,1,0.7,1.8v0.5c0.8-1,1.7-1.7,2.6-2.2c0.9-0.5,2-0.7,3.1-0.7c1.2,0,2.2,0.2,3.1,0.7  c0.9,0.5,1.6,1.2,2.1,2.2c0.8-1,1.7-1.7,2.6-2.2s1.9-0.7,3-0.7c1.3,0,2.4,0.3,3.4,0.8c0.9,0.5,1.6,1.2,2.1,2.2  c0.4,0.9,0.6,2.2,0.6,4v9.3c0,1-0.2,1.7-0.7,2.2s-1,0.7-1.8,0.7c-0.7,0-1.3-0.3-1.8-0.8s-0.7-1.2-0.7-2.2v-8c0-1,0-1.8-0.1-2.5  c-0.1-0.6-0.3-1.1-0.7-1.5c-0.4-0.4-1-0.6-1.7-0.6c-0.6,0-1.2,0.2-1.8,0.6s-1,0.9-1.3,1.5C-219.9,254.1-220.1,255.5-220.1,257.5z"/><path class="st1" d="M-209,262.4v1.4c0,1-0.2,1.7-0.7,2.2s-1,0.7-1.8,0.7c-0.7,0-1.3-0.3-1.8-0.8  s-0.7-1.2-0.7-2.2v-1.4c0,1,0.2,1.7,0.7,2.2s1,0.8,1.8,0.8c0.7,0,1.3-0.2,1.8-0.7S-209,263.4-209,262.4z M-220.1,262.4v1.4  c0,1-0.2,1.7-0.7,2.2c-0.5,0.5-1,0.7-1.8,0.7c-0.7,0-1.3-0.2-1.7-0.7s-0.7-1.2-0.7-2.2v-1.4c0,1,0.2,1.7,0.7,2.2s1,0.7,1.7,0.7  c0.7,0,1.3-0.2,1.8-0.7C-220.3,264.1-220.1,263.4-220.1,262.4z M-231.3,262.4v1.4c0,1-0.2,1.7-0.7,2.2s-1,0.8-1.8,0.8  c-0.7,0-1.3-0.3-1.8-0.8s-0.7-1.2-0.7-2.2v-1.4c0,1,0.2,1.7,0.7,2.2s1,0.8,1.8,0.8c0.7,0,1.3-0.3,1.8-0.8S-231.3,263.4-231.3,262.4z  " id="Combined-Shape"/><path class="letter-border" d="M-220.1,257.5v6.3c0,1-0.2,1.7-0.7,2.2c-0.5,0.5-1,0.7-1.8,0.7c-0.7,0-1.3-0.2-1.7-0.7s-0.7-1.2-0.7-2.2v-7.6  c0-1.2,0-2.1-0.1-2.8c-0.1-0.7-0.3-1.2-0.7-1.6c-0.4-0.4-0.9-0.6-1.7-0.6c-1.6,0-2.6,0.5-3.1,1.6s-0.7,2.6-0.7,4.6v6.4  c0,1-0.2,1.7-0.7,2.2s-1,0.8-1.8,0.8c-0.7,0-1.3-0.3-1.8-0.8s-0.7-1.2-0.7-2.2v-13.6c0-0.9,0.2-1.6,0.6-2c0.4-0.5,1-0.7,1.6-0.7  c0.6,0,1.2,0.2,1.6,0.7c0.4,0.4,0.7,1,0.7,1.8v0.5c0.8-1,1.7-1.7,2.6-2.2c0.9-0.5,2-0.7,3.1-0.7c1.2,0,2.2,0.2,3.1,0.7  c0.9,0.5,1.6,1.2,2.1,2.2c0.8-1,1.7-1.7,2.6-2.2s1.9-0.7,3-0.7c1.3,0,2.4,0.3,3.4,0.8c0.9,0.5,1.6,1.2,2.1,2.2  c0.4,0.9,0.6,2.2,0.6,4v9.3c0,1-0.2,1.7-0.7,2.2s-1,0.7-1.8,0.7c-0.7,0-1.3-0.3-1.8-0.8s-0.7-1.2-0.7-2.2v-8c0-1,0-1.8-0.1-2.5  c-0.1-0.6-0.3-1.1-0.7-1.5c-0.4-0.4-1-0.6-1.7-0.6c-0.6,0-1.2,0.2-1.8,0.6s-1,0.9-1.3,1.5C-219.9,254.1-220.1,255.5-220.1,257.5z"/><path class="st3" d="M-234.3,251.5v7.2" id="Path-15"/></svg>