<?xml version="1.0" ?><svg id="图层_1" style="enable-background:new -239 241 32 32;" version="1.1" viewBox="-239 241 32 32" xml:space="preserve" xmlns="http://www.w3.org/2000/svg" xmlns:xlink="http://www.w3.org/1999/xlink"><style type="text/css">
	.st0{fill:#F42F42;}
	.st1{opacity:0.2038;fill:#332E0A;enable-background:new    ;}
	.st2{fill:none;stroke:#0A2933;stroke-linejoin:round;}
	.st3{fill:none;stroke:#FFFFFF;stroke-linecap:round;stroke-linejoin:round;stroke-dasharray:1,2,6,2,3;}
</style><path class="st0" d="M-226.5,250v0.6c0.8-1.1,1.7-1.9,2.7-2.4s2.1-0.8,3.4-0.8c1.3,0,2.4,0.3,3.4,0.8c1,0.5,1.7,1.3,2.2,2.3  c0.3,0.6,0.5,1.2,0.6,1.9c0.1,0.7,0.1,1.5,0.1,2.6v8.8c0,0.9-0.2,1.7-0.7,2.2s-1,0.7-1.7,0.7c-0.7,0-1.3-0.2-1.7-0.7  c-0.4-0.5-0.7-1.2-0.7-2.1v-7.9c0-1.6-0.2-2.8-0.7-3.6c-0.4-0.8-1.3-1.2-2.6-1.2c-0.8,0-1.6,0.3-2.3,0.8c-0.7,0.5-1.2,1.2-1.5,2.1  c-0.2,0.7-0.3,2-0.3,4v5.9c0,1-0.2,1.7-0.7,2.2c-0.4,0.5-1,0.7-1.7,0.7c-0.7,0-1.2-0.2-1.7-0.7c-0.4-0.5-0.7-1.2-0.7-2.1v-13.7  c0-0.9,0.2-1.6,0.6-2c0.4-0.4,0.9-0.7,1.6-0.7c0.4,0,0.8,0.1,1.1,0.3s0.6,0.5,0.8,0.9S-226.5,249.5-226.5,250z"/><path class="st1" d="M-214,262.3v1.5c0,0.9-0.2,1.7-0.7,2.2s-1,0.7-1.7,0.7c-0.7,0-1.3-0.2-1.7-0.7  c-0.4-0.5-0.7-1.2-0.7-2.1v-1.5c0,0.9,0.2,1.6,0.7,2.1c0.4,0.5,1,0.7,1.7,0.7c0.7,0,1.3-0.2,1.7-0.7S-214,263.3-214,262.3z   M-226.2,262.3v1.5c0,1-0.2,1.7-0.7,2.2c-0.4,0.5-1,0.7-1.7,0.7c-0.7,0-1.2-0.2-1.7-0.7c-0.4-0.5-0.7-1.2-0.7-2.1v-1.5  c0,0.9,0.2,1.6,0.7,2.1c0.4,0.5,1,0.7,1.7,0.7c0.7,0,1.3-0.2,1.7-0.7C-226.4,264-226.2,263.3-226.2,262.3z" id="Combined-Shape"/><path class="st2" d="M-226.5,250v0.6c0.8-1.1,1.7-1.9,2.7-2.4s2.1-0.8,3.4-0.8c1.3,0,2.4,0.3,3.4,0.8c1,0.5,1.7,1.3,2.2,2.3  c0.3,0.6,0.5,1.2,0.6,1.9c0.1,0.7,0.1,1.5,0.1,2.6v8.8c0,0.9-0.2,1.7-0.7,2.2s-1,0.7-1.7,0.7c-0.7,0-1.3-0.2-1.7-0.7  c-0.4-0.5-0.7-1.2-0.7-2.1v-7.9c0-1.6-0.2-2.8-0.7-3.6c-0.4-0.8-1.3-1.2-2.6-1.2c-0.8,0-1.6,0.3-2.3,0.8c-0.7,0.5-1.2,1.2-1.5,2.1  c-0.2,0.7-0.3,2-0.3,4v5.9c0,1-0.2,1.7-0.7,2.2c-0.4,0.5-1,0.7-1.7,0.7c-0.7,0-1.2-0.2-1.7-0.7c-0.4-0.5-0.7-1.2-0.7-2.1v-13.7  c0-0.9,0.2-1.6,0.6-2c0.4-0.4,0.9-0.7,1.6-0.7c0.4,0,0.8,0.1,1.1,0.3s0.6,0.5,0.8,0.9S-226.5,249.5-226.5,250z"/><path class="st3" d="M-225.1,250.7c1-1.5,2.7-2.2,5.2-2.2" id="Path-16"/></svg>