<?xml version="1.0" encoding="UTF-8" standalone="no"?>
<!DOCTYPE svg PUBLIC "-//W3C//DTD SVG 1.1//EN" "http://www.w3.org/Graphics/SVG/1.1/DTD/svg11.dtd">
<svg version="1.1" xmlns="http://www.w3.org/2000/svg" xmlns:xlink="http://www.w3.org/1999/xlink" preserveAspectRatio="xMidYMid meet" viewBox="517.8968754823202 325.21142857142854 58.831459333122325 61.280000000000086" width="58.83" height="61.28"><defs><path d="M576.32 383.7C576.32 383.68 576.32 383.66 576.32 383.63C576.21 373.03 576.09 362.4 576 351.79C575.95 346.58 575.91 341.37 575.84 336.16C575.82 334.13 575.27 332.57 573.53 331.43C571.54 330.1 569.58 329.01 567.82 327.36C567.75 327.29 567.66 327.25 567.59 327.25C567.93 326.99 567.82 326.33 567.29 326.33C562.65 326.22 558.01 326.13 553.37 326.01C553.1 326.01 552.85 326.24 552.87 326.51C553.3 333.42 553.51 340.34 553.46 347.27C550.86 343.57 548.25 339.84 545.67 336.14C544.91 335.06 544.18 334.01 543.43 332.94C542.93 332.23 542.35 331.63 541.55 331.31C540.43 330.88 539.29 330.61 538.22 330.03C537.17 329.49 536.23 328.73 535.41 327.89C535.31 327.79 535.2 327.75 535.09 327.75C534.1 327.02 533.01 326.83 531.63 326.77C527.45 326.51 523.27 326.26 519.11 326.01C519.11 325.92 519.09 325.85 519.09 325.76C519.02 325.12 518.01 325.12 518.08 325.76C518.1 325.87 518.1 326.01 518.13 326.13C517.97 326.33 517.99 326.67 518.19 326.86C519.91 344.41 520.32 362.08 519.45 379.7C519.43 379.98 519.7 380.21 519.95 380.21C520 380.21 520.02 380.21 520.07 380.21C521.46 381.46 522.86 382.7 524.25 383.95C525.44 385.03 526.29 385.97 527.95 385.99C529.6 386.01 531.27 386.01 532.91 385.99C533.03 386.1 533.14 386.22 533.23 386.33C533.49 386.58 533.85 386.26 533.71 385.99C535.82 385.99 537.9 385.97 540 385.97C540.46 385.97 540.59 385.46 540.41 385.17C540.39 385.03 540.32 384.91 540.18 384.8C540.09 384.73 540 384.66 539.91 384.59C540.62 376.94 541.12 369.28 541.46 361.6C543.43 364.53 545.39 367.45 547.36 370.4C548.55 372.18 549.76 373.97 550.95 375.75C551.54 376.64 552.14 377.53 552.75 378.42C552.94 378.67 553.1 379.11 553.39 379.27C553.46 379.31 553.53 379.34 553.62 379.36C553.65 379.38 553.69 379.43 553.71 379.45C555.27 380.62 556.8 381.81 558.35 382.97C559.79 384.07 561.05 385.23 562.93 385.37C564.91 385.53 566.99 385.33 569.01 385.28C571.11 385.23 573.19 385.21 575.29 385.17C575.7 385.17 575.86 384.75 575.75 384.46C575.79 384.48 575.84 384.5 575.91 384.55C576.46 384.91 576.96 384.05 576.39 383.73C576.37 383.73 576.34 383.7 576.32 383.7ZM571.63 378.19C570.99 377.71 570.35 377.23 569.69 376.75C569.05 376.27 568.25 375.82 567.73 375.18C567.75 374.42 567.75 373.69 567.77 372.94C570.4 374.7 572.91 376.64 575.25 378.79C575.29 379.5 575.29 380.21 575.29 380.94C574.08 380.02 572.87 379.11 571.63 378.19ZM567.86 372.25C567.84 372.25 567.84 372.23 567.82 372.23C567.84 371.43 567.84 370.61 567.86 369.81C570.49 371.68 572.96 373.76 575.25 376.05C575.27 376.69 575.27 377.33 575.27 377.97C572.94 375.89 570.47 373.97 567.86 372.25ZM568.16 369.26C568.07 369.19 567.95 369.19 567.89 369.23C567.91 368.32 567.91 367.41 567.93 366.49C568 366.63 568.07 366.74 568.14 366.88C568.25 367.11 568.53 367.06 568.64 366.9C570.9 368.46 573.03 370.17 575.04 372.05C575.11 372.09 575.15 372.11 575.22 372.14C575.22 373.14 575.22 374.17 575.25 375.18C573.05 373.03 570.67 371.04 568.16 369.26ZM568.25 365.9C568.14 365.83 568.02 365.85 567.93 365.9C567.95 364.91 567.95 363.93 567.98 362.95C570.58 364.85 572.98 366.99 575.2 369.33C575.2 370.01 575.2 370.7 575.2 371.36C573.03 369.35 570.72 367.52 568.25 365.9ZM567.98 362.22C567.98 361.62 567.98 361.01 568 360.41C570.33 361.81 572.48 363.45 574.42 365.35C574.7 365.62 575.13 365.19 574.86 364.91C572.8 362.9 570.51 361.14 568.02 359.7C568.02 358.77 568.02 357.83 568.05 356.89C569.35 357.23 570.4 358.35 571.43 359.18C572.53 360.07 573.62 360.94 574.7 361.83C574.83 361.94 575.02 361.9 575.13 361.81C575.13 364.05 575.15 366.26 575.18 368.46C572.96 366.17 570.56 364.07 567.98 362.22ZM575.11 361.44C573.81 360.39 572.53 359.34 571.25 358.31C570.26 357.51 569.3 356.57 568.05 356.3C568.05 355.52 568.05 354.72 568.05 353.94C570.08 355.45 572.11 356.98 574.13 358.49C574.45 358.72 574.74 358.19 574.42 357.97C572.3 356.37 570.15 354.77 568.02 353.19C568.02 351.95 568.02 350.72 568.02 349.49C570.56 351.04 572.89 352.87 575.04 354.93C575.06 357.07 575.09 359.25 575.11 361.44C575.11 361.44 575.11 361.44 575.11 361.44ZM575.02 354.06C572.87 352.05 570.51 350.29 568 348.75C568 347.84 567.98 346.95 567.98 346.03C568.02 345.97 568.05 345.9 568.02 345.78C568.02 345.78 568.87 346.22 568.94 346.26C569.23 346.45 569.53 346.65 569.83 346.86C570.49 347.31 571.13 347.79 571.77 348.3C572.91 349.21 573.99 350.22 574.99 351.29C575 351.41 575 351.98 575.02 353.01C575.02 353.48 575.02 353.83 575.02 354.06ZM570.42 346.54C569.69 346.01 568.87 345.28 567.98 345.14C567.98 344.37 567.95 343.59 567.95 342.81C567.95 342.81 567.98 342.79 567.98 342.79C568.34 342.97 568.8 343.43 569.05 343.59C569.65 344.02 570.24 344.46 570.83 344.91C572.09 345.87 573.28 346.88 574.47 347.93C574.67 348.11 574.95 347.95 574.99 347.77C574.99 347.95 574.99 348.82 574.99 350.4C573.04 348.6 571.52 347.31 570.42 346.54ZM574.86 347.5C573.65 346.42 572.39 345.37 571.11 344.39C570.42 343.86 569.74 343.36 569.03 342.86C568.71 342.63 568.34 342.26 567.93 342.15C567.93 341.42 567.91 340.69 567.89 339.95C570.03 341.49 572.09 343.11 574.06 344.87C574.35 345.12 574.79 344.71 574.49 344.43C572.39 342.58 570.17 340.85 567.89 339.22C567.89 339.22 567.89 339.22 567.86 339.22C567.84 338.38 567.82 337.53 567.82 336.69C569.94 338.77 572.23 340.66 574.67 342.35C574.74 342.4 574.81 342.42 574.88 342.4C574.88 342.75 574.91 344.49 574.95 347.63C574.92 347.57 574.89 347.53 574.86 347.5ZM567.82 335.89C567.79 335.13 567.77 334.35 567.77 333.6C569.92 335.61 572.09 337.62 574.24 339.63C574.54 339.91 574.95 339.47 574.67 339.2C572.37 337.05 570.06 334.9 567.75 332.75C567.73 332.09 567.7 331.41 567.7 330.74C567.75 330.72 567.79 330.67 567.84 330.61C568.11 330.93 568.5 331.31 568.5 331.34C568.8 331.59 569.1 331.84 569.39 332.09C569.99 332.59 570.56 333.1 571.13 333.6C572.3 334.63 573.42 335.66 574.54 336.71C574.65 336.82 574.79 336.8 574.88 336.75C574.88 337.07 574.86 337.37 574.88 337.67C574.88 338.07 574.92 341.31 574.93 341.71C572.43 340 570.13 338.08 568 335.98C567.95 335.93 567.89 335.89 567.82 335.89ZM574.56 334.1C574.81 334.77 574.86 335.5 574.86 336.25C573.58 335.04 572.27 333.85 570.95 332.69C570.26 332.09 569.6 331.52 568.91 330.93C568.55 330.61 568.16 330.13 567.66 330.01C567.63 329.53 567.63 329.03 567.61 328.55C569.05 329.78 570.58 330.88 572.21 331.82C573.21 332.39 574.15 332.96 574.56 334.1ZM553.44 348.98C553.42 350.58 553.39 352.18 553.35 353.76C552.59 352.64 551.82 351.54 551.06 350.42C551.7 350.47 552.37 350.49 553.01 350.54C553.39 350.56 553.39 349.94 553.01 349.92C552.21 349.87 551.43 349.83 550.63 349.78C550.1 349.03 549.58 348.25 549.05 347.5C550.35 347.77 551.63 348.05 552.94 348.32C552.98 348.34 552.98 348.34 553.01 348.34C553.09 348.47 553.4 348.92 553.44 348.98ZM548.57 346.81C548 345.97 547.41 345.12 546.83 344.3C548.25 344.59 549.65 345.01 551.02 345.53C551.52 346.19 552.02 346.9 552.5 347.63C551.72 347.47 548.96 346.89 548.57 346.81ZM550.4 344.64C549.07 344.18 547.7 343.82 546.33 343.57C546.2 343.38 545.18 341.88 545.05 341.69C546.35 341.94 547.63 342.31 548.89 342.77C548.96 342.81 549.05 342.79 549.1 342.77C549.53 343.38 549.97 344.02 550.4 344.64ZM544.57 340.96C544.45 340.78 543.46 339.36 543.34 339.18C544.73 339.57 546.13 339.98 547.5 340.43C547.86 340.98 548.23 341.51 548.59 342.01C547.29 341.55 545.94 341.21 544.57 340.96ZM542.79 338.42C542.22 337.6 541.65 336.75 541.07 335.93C542.49 336.41 543.91 336.91 545.35 337.39C545.87 338.15 546.38 338.88 546.9 339.63C545.55 339.2 544.18 338.79 542.79 338.42ZM544.75 336.55C544.4 336.43 541.52 335.44 541.17 335.31C540.98 335.25 540.85 335.36 540.8 335.52C540.39 334.93 539.98 334.33 539.59 333.74C540.87 334.08 542.17 334.4 543.5 334.72C543.93 335.34 544.34 335.93 544.75 336.55ZM542.56 333.44C542.7 333.62 542.81 333.81 542.95 333.99C541.74 333.69 540.55 333.39 539.34 333.1C539.25 333.07 539.18 333.1 539.11 333.12C538.61 332.37 538.1 331.59 537.58 330.83C538.26 331.18 538.95 331.47 539.66 331.75C540.82 332.16 541.78 332.39 542.56 333.44ZM524.64 382.97C523.61 382.06 522.58 381.12 521.55 380.21C522.35 380.21 523.15 380.21 523.95 380.21C524.57 380.94 525.44 381.51 526.15 382.17C527.09 383.04 527.93 384 528.73 384.98C528.05 384.98 527.31 385.03 526.72 384.75C525.97 384.39 525.28 383.52 524.64 382.97ZM529.42 384.87C528.69 383.95 527.89 383.06 527.06 382.22C526.38 381.53 525.44 380.91 524.73 380.18C525.62 380.18 526.49 380.18 527.38 380.18C528.89 381.76 530.4 383.36 531.91 384.94C531.75 384.94 530.93 384.95 529.46 384.96C529.45 384.93 529.43 384.9 529.42 384.87ZM528.23 380.21C529.14 380.21 530.06 380.21 530.95 380.21C532.62 381.6 534.08 383.18 535.34 384.96C535.16 384.96 534.3 384.96 532.75 384.96C530.74 382.84 529.23 381.26 528.23 380.21ZM531.89 380.18C532.14 380.18 532.41 380.18 532.66 380.18C532.71 380.18 532.78 380.18 532.82 380.16C534.7 381.85 536.64 383.45 538.67 384.94C538.5 384.94 537.64 384.94 536.09 384.94C534.35 382.71 532.95 381.13 531.89 380.18ZM533.19 379.11C533.19 378.98 533.21 377.96 533.21 377.83C534.81 379.13 536.37 380.48 537.85 381.9C538.13 382.17 538.56 381.74 538.29 381.46C536.66 379.93 534.97 378.45 533.21 377.05C533.21 376.14 533.23 375.25 533.23 374.33C533.26 374.4 533.28 374.45 533.33 374.51C533.46 374.74 533.76 374.67 533.87 374.49C535.75 376.14 537.58 377.83 539.34 379.59C539.22 381.05 539.09 382.49 538.97 383.91C536.96 382.42 535.04 380.82 533.19 379.11ZM533.87 373.74C533.78 373.65 533.62 373.6 533.51 373.69C533.37 373.81 533.28 373.9 533.23 374.01C533.26 372.94 533.26 371.84 533.28 370.77C535.11 372.37 536.82 374.06 538.45 375.84C538.72 376.14 539.13 375.7 538.88 375.41C537.12 373.49 535.27 371.66 533.3 369.97C533.3 369.14 533.33 368.32 533.33 367.5C535.47 369.67 537.62 371.82 539.79 373.99C539.66 375.61 539.52 377.21 539.41 378.83C537.62 377.07 535.79 375.36 533.87 373.74ZM533.49 366.83C533.44 366.79 533.37 366.74 533.3 366.74C533.3 365.97 533.33 365.21 533.33 364.43C533.92 365.03 538.65 369.76 539.25 370.35C539.52 370.63 539.95 370.19 539.68 369.92C539.05 369.29 533.98 364.22 533.35 363.59C533.35 362.86 533.37 362.1 533.37 361.37C535.38 362.88 537.3 364.53 539.09 366.29C539.36 366.56 539.79 366.13 539.52 365.85C537.6 363.95 535.57 362.19 533.39 360.62C533.39 359.91 533.42 359.2 533.42 358.49C535.68 360.43 537.85 362.49 539.91 364.66C540.05 364.82 540.25 364.75 540.34 364.64C540.18 367.5 540 370.35 539.82 373.19C537.71 371.06 535.59 368.96 533.49 366.83ZM540.32 364.25C538.13 361.97 535.82 359.77 533.42 357.71C533.42 356.89 533.44 356.07 533.44 355.25C533.46 355.27 533.46 355.27 533.49 355.29C535.91 357.28 538.24 359.34 540.48 361.51C540.43 362.45 540.39 363.38 540.34 364.3C540.34 364.27 540.32 364.27 540.32 364.25ZM540.5 360.71C538.38 358.67 536.16 356.73 533.9 354.86C533.74 354.72 533.53 354.79 533.44 354.93C533.46 353.83 533.46 352.73 533.49 351.63C534.29 352.3 535.13 352.89 536.02 353.42C537.53 355.68 539.04 357.92 540.55 360.18C540.53 360.23 540.53 360.25 540.53 360.27C540.53 360.41 540.5 360.57 540.5 360.71ZM533.51 349.69C534.06 350.51 534.63 351.36 535.18 352.18C534.58 351.77 534.01 351.34 533.49 350.88C533.49 350.49 533.49 350.08 533.51 349.69ZM552.96 376.91C552.37 376.02 551.77 375.13 551.15 374.24C550.8 373.71 547.92 369.43 547.57 368.89C542.88 361.9 538.19 354.9 533.51 347.91C533.51 347.89 533.51 347.86 533.51 347.84C533.51 347.18 532.5 347.18 532.5 347.84C532.5 347.86 532.5 347.89 532.5 347.93C532.48 348 532.48 348.07 532.5 348.16C532.39 358.33 532.27 368.5 532.18 378.67C532 378.79 531.86 378.97 531.91 379.2C528.09 379.2 524.27 379.2 520.48 379.2C521.33 361.81 520.91 344.37 519.22 327.02C520.35 327.09 529.34 327.63 530.47 327.7C531.38 327.75 532.3 327.77 533.19 327.91C534.29 328.09 534.97 328.87 535.59 329.74C536.82 331.47 538.01 333.23 539.22 334.99C543.95 341.87 548.71 348.75 553.44 355.61C553.71 356.02 554.38 355.89 554.38 355.36C554.45 353.44 554.47 351.52 554.49 349.6C554.72 349.49 554.86 349.21 554.65 348.94C554.64 348.91 554.51 348.73 554.49 348.71C554.56 341.49 554.38 334.26 553.92 327.04C558.15 327.13 562.35 327.22 566.58 327.34C566.81 334.38 566.97 341.44 567.02 348.48C566.93 348.59 566.9 348.78 567.02 348.89C567.04 352.34 567.04 355.79 567.02 359.27C566.77 359.31 566.63 359.68 566.9 359.84C566.95 359.86 566.97 359.89 567.02 359.91C566.97 366.01 566.86 372.11 566.67 378.24C566.67 378.26 566.67 378.26 566.67 378.29C565.19 378.61 563.7 378.81 562.19 378.93C562.1 378.79 561.9 378.72 561.74 378.88C561.71 378.9 561.69 378.93 561.67 378.97C559.43 379.11 557.17 378.99 554.93 378.65C554.63 378.51 554.03 378.54 553.85 378.26C553.55 377.81 553.26 377.37 552.96 376.91ZM561.28 383.93C560.41 383.45 559.63 382.74 558.86 382.15C557.78 381.33 556.71 380.5 555.63 379.68C556.69 379.82 557.74 379.91 558.79 379.93C560.62 381.33 562.42 382.72 564.25 384.11C564.57 384.34 564.87 383.82 564.55 383.59C562.97 382.38 561.37 381.17 559.79 379.95C560.46 379.95 561.12 379.93 561.78 379.89C562.22 380.48 563.04 381.07 563.31 381.35C564.5 382.45 565.76 383.45 567.11 384.37C566.01 384.37 564.96 384.39 563.89 384.41C562.95 384.43 562.13 384.39 561.28 383.93ZM567.86 384.16C567.5 383.91 563.82 381.12 562.54 379.84C563.38 379.77 564.21 379.68 565.03 379.54C566.83 381.21 568.71 382.79 570.65 384.3C570.47 384.3 569.59 384.32 568 384.34C567.97 384.25 567.92 384.19 567.86 384.16ZM571.38 384.07C569.46 382.58 567.61 381.03 565.83 379.38C566.38 379.29 566.93 379.18 567.47 379.04C567.47 379.04 567.47 379.04 567.47 379.04C569.92 380.96 572.48 382.67 575.18 384.18C573.94 384.23 572.73 384.25 571.5 384.27C571.47 384.21 571.45 384.14 571.38 384.07ZM567.68 377.97C567.7 377.33 567.73 376.69 567.73 376.05C568.53 376.8 569.55 377.39 570.38 378.01C571.98 379.22 573.6 380.43 575.2 381.62C575.22 381.65 575.27 381.67 575.29 381.67C575.29 381.81 575.31 382.99 575.31 383.13C572.66 381.62 570.15 379.91 567.75 378.01C567.73 377.99 567.7 377.99 567.68 377.97Z" id="e4llqG20Ss"></path><path d="M533.17 386.38C533.14 386.35 532.9 386.09 532.87 386.06C531.22 386.06 529.58 386.06 527.93 386.06C526.4 386.03 525.55 385.26 524.55 384.34C524.43 384.23 524.3 384.11 524.18 384C523.9 383.75 522.51 382.51 520 380.27C519.96 380.27 519.94 380.27 519.93 380.27C519.77 380.27 519.61 380.21 519.5 380.09C519.38 379.98 519.34 379.84 519.34 379.7C520.21 362.17 519.79 344.39 518.08 326.9C517.87 326.7 517.83 326.33 518.01 326.1C518.01 326.07 517.99 325.79 517.99 325.76C517.97 325.6 518.01 325.46 518.1 325.37C518.19 325.26 518.35 325.21 518.51 325.21C518.81 325.21 519.11 325.39 519.15 325.76C519.16 325.77 519.16 325.83 519.18 325.94C526.67 326.4 530.83 326.65 531.66 326.7C533.1 326.79 534.17 326.97 535.13 327.68C535.27 327.7 535.38 327.75 535.47 327.84C536.39 328.75 537.3 329.46 538.26 329.97C538.97 330.33 539.73 330.61 540.46 330.83C540.82 330.97 541.21 331.09 541.58 331.25C542.29 331.52 542.88 332.02 543.5 332.89C544.02 333.62 544.53 334.38 545.05 335.11C545.89 336.3 552.56 345.83 553.39 347.02C553.42 340.16 553.21 333.28 552.8 326.51C552.8 326.38 552.85 326.24 552.96 326.13C553.07 326.01 553.23 325.94 553.37 325.94C554.77 325.97 565.92 326.23 567.31 326.26C567.57 326.26 567.77 326.42 567.84 326.65C567.91 326.86 567.86 327.09 567.75 327.22C567.79 327.25 567.84 327.29 567.89 327.31C569.23 328.57 570.67 329.49 572.21 330.47C572.66 330.77 573.12 331.06 573.58 331.36C575.2 332.43 575.89 333.87 575.93 336.16C575.98 339.68 576.02 343.25 576.05 346.7C576.07 348.39 576.07 350.1 576.09 351.79C576.12 354.98 576.38 380.45 576.41 383.63C576.41 383.63 576.41 383.66 576.41 383.66C576.41 383.66 576.43 383.66 576.43 383.66C576.66 383.79 576.78 384.02 576.71 384.27C576.64 384.5 576.43 384.75 576.14 384.75C576.14 384.75 576.14 384.75 576.14 384.75C576.05 384.75 575.95 384.73 575.86 384.69C575.86 384.69 575.86 384.69 575.86 384.69C575.86 384.82 575.84 384.96 575.75 385.07C575.66 385.21 575.47 385.3 575.29 385.3C574.66 385.31 569.63 385.41 569.01 385.42C568.37 385.44 567.73 385.46 567.09 385.49C566.24 385.53 565.37 385.55 564.53 385.55C563.93 385.55 563.41 385.53 562.9 385.51C561.23 385.37 560.07 384.48 558.83 383.5C558.65 383.36 558.47 383.22 558.29 383.09C557.82 382.73 554.11 379.92 553.65 379.57C553.62 379.54 553.58 379.52 553.55 379.47C553.46 379.45 553.39 379.41 553.33 379.38C553.1 379.25 552.94 378.97 552.8 378.74C552.75 378.65 552.71 378.58 552.66 378.51C551.55 376.85 542.62 363.54 541.51 361.87C541.17 369.44 540.64 377.1 539.95 384.59C539.96 384.6 540.04 384.66 540.05 384.66C540.09 384.71 540.14 384.73 540.18 384.78C540.32 384.87 540.41 385.01 540.43 385.17C540.55 385.35 540.55 385.6 540.43 385.78C540.34 385.97 540.16 386.06 539.95 386.06C538.58 386.06 537.21 386.06 535.84 386.08C535.63 386.08 533.97 386.08 533.76 386.08C533.78 386.17 533.76 386.24 533.71 386.33C533.67 386.42 533.55 386.49 533.42 386.49C533.33 386.49 533.23 386.45 533.17 386.38ZM533.28 386.26C533.39 386.38 533.55 386.33 533.62 386.22C533.67 386.15 533.67 386.08 533.65 386.01C533.64 386 533.63 385.97 533.6 385.9C534.99 385.9 535.75 385.9 535.91 385.9C537.28 385.9 538.65 385.9 540.02 385.87C540.18 385.87 540.3 385.81 540.39 385.67C540.48 385.53 540.46 385.33 540.39 385.19C540.39 385.19 540.39 385.17 540.39 385.17C540.37 385.05 540.32 384.94 540.21 384.87C540.16 384.82 540.11 384.8 540.05 384.75C540.04 384.75 539.98 384.71 539.89 384.64C539.89 384.61 539.89 384.6 539.89 384.59C540.57 376.98 541.1 369.26 541.44 361.6C541.44 361.58 541.44 361.51 541.44 361.37C548.28 371.59 552.09 377.26 552.85 378.4C552.89 378.47 552.94 378.56 552.98 378.65C553.12 378.88 553.26 379.13 553.44 379.25C553.49 379.27 553.55 379.31 553.65 379.34C553.65 379.34 553.65 379.34 553.67 379.34C553.68 379.35 553.69 379.36 553.69 379.36C553.71 379.41 553.74 379.43 553.78 379.45C554.25 379.8 557.96 382.62 558.42 382.97C558.61 383.11 558.79 383.25 558.97 383.38C560.18 384.34 561.35 385.23 562.95 385.35C563.43 385.39 563.95 385.39 564.55 385.39C565.39 385.39 566.26 385.35 567.09 385.33C567.73 385.3 568.37 385.28 569.01 385.26C569.63 385.25 574.66 385.15 575.29 385.14C575.47 385.14 575.57 385.05 575.63 384.98C575.73 384.87 575.75 384.69 575.68 384.55C575.68 384.54 575.65 384.48 575.61 384.37C575.8 384.48 575.91 384.54 575.93 384.55C576 384.59 576.07 384.59 576.14 384.59C576.34 384.59 576.53 384.41 576.57 384.23C576.59 384.14 576.62 383.93 576.37 383.79C576.36 383.79 576.32 383.77 576.25 383.73C576.25 383.68 576.25 383.66 576.25 383.66C576.25 383.66 576.25 383.63 576.25 383.63C576.22 380.45 575.96 354.98 575.93 351.79C575.91 350.1 575.91 348.39 575.89 346.7C575.86 343.25 575.82 339.68 575.77 336.16C575.75 333.92 575.06 332.53 573.49 331.47C573.03 331.18 572.57 330.88 572.11 330.58C570.58 329.6 569.12 328.66 567.77 327.41C567.7 327.36 567.66 327.31 567.57 327.29C567.56 327.29 567.5 327.27 567.41 327.25C567.49 327.19 567.53 327.16 567.54 327.15C567.68 327.06 567.75 326.83 567.68 326.65C567.66 326.56 567.57 326.38 567.29 326.35C565.9 326.32 554.76 326.07 553.37 326.03C553.37 326.03 553.37 326.03 553.37 326.03C553.26 326.03 553.14 326.08 553.05 326.17C552.98 326.26 552.94 326.35 552.94 326.45C553.37 333.28 553.58 340.27 553.53 347.2C553.53 347.22 553.53 347.29 553.53 347.43C548.36 340.05 545.49 335.95 544.91 335.13C544.39 334.4 543.89 333.65 543.36 332.91C542.77 332.07 542.19 331.59 541.51 331.31C541.14 331.18 540.75 331.04 540.39 330.93C539.66 330.67 538.88 330.42 538.17 330.03C537.19 329.51 536.27 328.82 535.34 327.89C535.27 327.82 535.18 327.77 535.06 327.75C535.06 327.75 535.05 327.75 535.04 327.75C535.03 327.73 535.02 327.73 535.02 327.73C534.08 327.04 533.01 326.83 531.59 326.74C530.75 326.69 526.55 326.44 518.99 325.99C518.98 325.8 518.97 325.69 518.97 325.67C518.95 325.37 518.7 325.26 518.49 325.26C518.38 325.26 518.26 325.3 518.19 325.37C518.13 325.44 518.1 325.53 518.13 325.65C518.13 325.67 518.14 325.8 518.17 326.03C518.16 326.05 518.15 326.06 518.15 326.06C518.01 326.24 518.03 326.54 518.22 326.7C518.22 326.7 518.23 326.71 518.24 326.72C518.24 326.73 518.24 326.74 518.24 326.74C519.95 344.27 520.37 362.06 519.5 379.61C519.5 379.7 519.54 379.82 519.61 379.89C519.7 379.98 519.82 380.02 519.93 380.02C519.94 380.02 519.99 380.02 520.07 380.02C522.59 382.29 523.99 383.54 524.27 383.79C524.41 383.91 524.53 384.02 524.64 384.14C525.65 385.07 526.45 385.81 527.93 385.81C529.58 385.83 531.25 385.83 532.89 385.81C532.89 385.81 532.91 385.81 532.94 385.81C533.14 386.09 533.26 386.24 533.28 386.26ZM526.67 384.8C526.13 384.53 525.62 384.02 525.17 383.54C524.96 383.34 524.78 383.15 524.59 382.99C524.38 382.8 523.3 381.83 521.35 380.09L523.98 380.09C523.99 380.11 524 380.11 524 380.11C524.39 380.57 524.87 380.96 525.35 381.35C525.62 381.58 525.92 381.83 526.19 382.08C527.06 382.88 527.91 383.79 528.8 384.89C528.81 384.9 528.84 384.94 528.89 385.01C528.74 385.01 528.66 385.01 528.64 385.01C528.43 385.05 528.23 385.05 528.02 385.05C527.63 385.05 527.11 385.03 526.67 384.8ZM524.69 382.9C524.87 383.06 525.07 383.27 525.26 383.47C525.74 383.95 526.22 384.43 526.74 384.69C527.15 384.89 527.66 384.91 528.02 384.91C528.21 384.91 528.39 384.91 528.55 384.89C527.7 383.86 526.88 382.99 526.06 382.22C525.81 381.97 525.51 381.74 525.21 381.51C524.75 381.12 524.27 380.73 523.89 380.27C523.74 380.27 523.03 380.27 521.74 380.27C523.51 381.85 524.49 382.73 524.69 382.9ZM529.39 384.98C529.39 384.96 529.37 384.94 529.35 384.91C528.62 384 527.82 383.11 526.99 382.26C526.65 381.92 526.26 381.6 525.87 381.28C525.46 380.94 525.03 380.59 524.66 380.21C524.65 380.2 524.61 380.15 524.53 380.07L527.38 380.07L532.07 384.98L529.42 385.03C529.4 385 529.4 384.99 529.39 384.98ZM525.99 381.19C526.38 381.51 526.79 381.83 527.11 382.17C527.93 383.02 528.73 383.91 529.49 384.82C529.51 384.85 529.51 384.85 529.53 384.87C529.68 384.87 530.42 384.87 531.75 384.87L527.36 380.25L524.91 380.27C525.39 380.69 525.74 380.99 525.99 381.19ZM528.05 380.11L530.97 380.11C530.99 380.13 530.99 380.14 530.99 380.14C532.66 381.53 534.15 383.15 535.41 384.91C535.41 384.92 535.44 384.96 535.5 385.03L532.73 385.03L528.05 380.11ZM532.8 384.89C534.24 384.89 535.04 384.89 535.2 384.89C533.99 383.2 532.55 381.65 530.93 380.3C530.76 380.3 529.92 380.29 528.41 380.27L532.8 384.89ZM536.02 385.01C534.81 383.25 533.42 381.67 531.84 380.27C531.83 380.27 531.78 380.22 531.68 380.14C532.27 380.14 532.6 380.14 532.66 380.14C532.71 380.14 532.75 380.14 532.8 380.11C532.8 380.11 532.82 380.11 532.85 380.09C532.86 380.11 532.87 380.11 532.87 380.11C534.72 381.81 536.69 383.41 538.7 384.89C538.71 384.9 538.77 384.95 538.88 385.03L536.05 385.03C536.03 385.01 536.02 385.01 536.02 385.01ZM536.14 384.87C536.37 384.87 538.21 384.87 538.45 384.87C536.5 383.43 534.61 381.87 532.8 380.25C532.75 380.27 532.71 380.27 532.66 380.27C532.62 380.27 532.43 380.27 532.09 380.27C534.01 382.21 535.36 383.74 536.14 384.87ZM561.23 383.98C560.62 383.63 560.05 383.18 559.5 382.72C559.27 382.54 559.04 382.35 558.81 382.17C558.58 382 557.43 381.12 555.36 379.54C555.52 379.57 555.62 379.59 555.63 379.59C556.66 379.73 557.71 379.82 558.79 379.84C558.79 379.84 558.8 379.84 558.81 379.84C562.1 382.36 563.93 383.77 564.3 384.05C564.43 384.14 564.55 384.05 564.59 383.93C564.62 383.89 564.64 383.75 564.5 383.63C564.17 383.38 562.53 382.13 559.57 379.86C559.7 379.86 559.78 379.86 559.79 379.86C560.43 379.86 561.12 379.84 561.78 379.79C561.79 379.79 561.8 379.79 561.83 379.79C561.84 379.82 561.85 379.84 561.85 379.84C562.17 380.27 562.7 380.73 563.06 381.03C563.2 381.14 563.29 381.23 563.38 381.3C564.5 382.35 565.74 383.34 567.15 384.32C567.17 384.33 567.24 384.37 567.36 384.46C565.29 384.5 564.14 384.52 563.91 384.53C563.77 384.48 563.66 384.48 563.57 384.48C562.81 384.48 562.03 384.41 561.23 383.98ZM558.9 382.08C559.13 382.26 559.36 382.45 559.59 382.63C560.14 383.06 560.71 383.52 561.3 383.86C562.01 384.25 562.72 384.34 563.57 384.34C563.68 384.34 563.77 384.34 563.89 384.34C564.18 384.34 566.56 384.3 566.86 384.3C565.51 383.36 564.32 382.42 563.27 381.42C563.2 381.35 563.09 381.26 562.97 381.17C562.63 380.87 562.08 380.43 561.76 380C561.19 380.05 560.59 380.05 560.02 380.07C560.48 380.42 564.14 383.24 564.59 383.59C564.75 383.73 564.78 383.91 564.73 384.05C564.64 384.27 564.39 384.39 564.21 384.23C563.66 383.81 559.31 380.48 558.77 380.07C557.78 379.98 556.82 379.91 555.89 379.79C556.49 380.25 558.6 381.85 558.9 382.08ZM567.91 384.34C567.89 384.27 567.86 384.23 567.82 384.21C567.47 383.98 563.75 381.14 562.49 379.86C562.48 379.86 562.45 379.82 562.38 379.75C562.47 379.73 562.53 379.73 562.54 379.73C563.36 379.66 564.21 379.57 565.03 379.43C565.03 379.43 565.05 379.43 565.07 379.43C565.09 379.44 565.1 379.45 565.1 379.45C566.86 381.07 568.75 382.67 570.7 384.21C570.71 384.21 570.76 384.26 570.86 384.34L567.93 384.41C567.92 384.37 567.91 384.35 567.91 384.34ZM567.91 384.09C567.98 384.14 568.02 384.21 568.05 384.27C568.29 384.27 570.21 384.23 570.45 384.23C568.55 382.74 566.74 381.19 565.03 379.61C564.27 379.73 563.5 379.82 562.72 379.89C564.07 381.21 567.59 383.86 567.91 384.09ZM571.43 384.27C571.43 384.21 571.38 384.16 571.34 384.11C569.49 382.67 567.61 381.1 565.78 379.43C565.78 379.42 565.74 379.38 565.67 379.31C565.76 379.3 565.82 379.29 565.83 379.29C566.47 379.18 566.99 379.06 567.47 378.95C567.48 378.95 567.48 378.95 567.5 378.95C567.51 378.96 567.52 378.97 567.52 378.97C569.97 380.89 572.57 382.61 575.22 384.11C575.24 384.12 575.32 384.17 575.47 384.25L571.43 384.34C571.43 384.3 571.43 384.28 571.43 384.27ZM571.41 384C571.47 384.05 571.52 384.11 571.54 384.18C571.88 384.18 574.57 384.12 574.9 384.11C572.32 382.65 569.83 380.98 567.45 379.11C566.99 379.25 566.54 379.34 565.97 379.43C567.75 381.05 569.58 382.61 571.41 384ZM538.93 383.95C536.94 382.47 534.97 380.85 533.12 379.15C533.12 379.15 533.11 379.15 533.1 379.13L533.12 377.67C533.19 377.72 533.23 377.75 533.23 377.76C534.86 379.06 536.43 380.43 537.9 381.83C538.01 381.94 538.22 381.87 538.29 381.74C538.31 381.69 538.33 381.6 538.24 381.51C536.64 379.98 534.93 378.51 533.17 377.12C533.16 377.12 533.16 377.11 533.14 377.1L533.17 374.4L533.17 374.4L533.21 370.58C533.28 370.65 533.32 370.69 533.33 370.7C535.13 372.3 536.89 374.01 538.49 375.77C538.61 375.89 538.79 375.84 538.86 375.68C538.88 375.63 538.9 375.54 538.81 375.43C537.07 373.51 535.2 371.68 533.23 369.99C533.23 369.99 533.23 369.98 533.21 369.97L533.23 367.29L539.84 373.92C539.84 373.95 539.84 373.96 539.84 373.97C539.73 375.63 539.61 377.26 539.47 378.81C539.47 378.82 539.47 378.88 539.45 378.97C539.38 378.9 539.34 378.86 539.34 378.86C537.53 377.07 535.68 375.36 533.83 373.76C533.74 373.69 533.62 373.67 533.55 373.71C533.42 373.81 533.35 373.92 533.3 374.01C533.3 374.02 533.28 374.07 533.26 374.15C533.28 374.24 533.3 374.3 533.3 374.31C533.33 374.38 533.35 374.42 533.39 374.49C533.44 374.58 533.53 374.61 533.58 374.61C533.67 374.61 533.76 374.56 533.81 374.47C533.81 374.46 533.82 374.43 533.85 374.38C533.89 374.42 533.92 374.44 533.92 374.45C535.79 376.07 537.65 377.81 539.41 379.54C539.41 379.54 539.41 379.55 539.43 379.57C539.43 379.59 539.43 379.61 539.43 379.61C539.29 381.26 539.18 382.61 539.06 383.91C539.06 383.92 539.05 383.96 539.04 384.05C538.97 383.99 538.93 383.96 538.93 383.95ZM538.9 383.77C539.02 382.54 539.13 381.21 539.25 379.66C537.53 377.94 535.7 376.25 533.87 374.65C533.74 374.81 533.44 374.83 533.3 374.67C533.3 374.91 533.28 376.81 533.28 377.05C535.02 378.45 536.73 379.91 538.33 381.44C538.45 381.55 538.47 381.69 538.42 381.83C538.35 381.99 538.22 382.08 538.06 382.08C537.97 382.08 537.87 382.03 537.81 381.97C536.39 380.62 534.86 379.29 533.28 378.01C533.28 378.08 533.27 378.44 533.26 379.09C535.73 381.23 537.61 382.8 538.9 383.77ZM533.92 373.69C535.75 375.25 537.55 376.94 539.34 378.67C539.45 377.19 539.57 375.63 539.68 374.03C539.26 373.61 537.16 371.5 533.37 367.7C533.36 369.05 533.35 369.79 533.35 369.94C535.31 371.63 537.19 373.46 538.93 375.36C539.04 375.47 539.06 375.63 538.99 375.77C538.93 375.91 538.79 376.02 538.65 376.02C538.56 376.02 538.47 375.98 538.4 375.91C536.82 374.17 535.13 372.5 533.37 370.95C533.37 371.23 533.35 373.5 533.35 373.78C533.39 373.74 533.44 373.69 533.51 373.65C533.51 373.58 533.58 373.58 533.65 373.58C533.74 373.58 533.85 373.62 533.92 373.69ZM575.29 383.2C572.62 381.67 570.06 379.95 567.7 378.08C567.68 378.06 567.66 378.06 567.63 378.03C567.63 378.03 567.62 378.03 567.59 378.01C567.59 377.98 567.59 377.97 567.59 377.97C567.61 377.46 567.61 376.96 567.63 376.46C567.64 376.42 567.64 376.22 567.66 375.86C567.73 375.93 567.76 375.97 567.77 375.98C568.3 376.46 568.91 376.89 569.51 377.3C569.83 377.53 570.13 377.71 570.42 377.94C570.91 378.3 574.76 381.19 575.25 381.55C575.27 381.58 575.29 381.58 575.31 381.6C575.32 381.6 575.33 381.61 575.36 381.62L575.41 383.27C575.34 383.23 575.3 383.2 575.29 383.2ZM567.79 377.94C570.1 379.79 572.62 381.49 575.25 382.99C575.24 382.87 575.23 381.84 575.22 381.71C575.2 381.71 575.18 381.69 575.15 381.67C574.67 381.31 570.81 378.42 570.33 378.06C570.06 377.85 569.76 377.65 569.44 377.42C568.89 377.03 568.3 376.64 567.79 376.18C567.79 376.21 567.79 376.41 567.79 376.43C567.77 376.94 567.77 377.42 567.75 377.92C567.77 377.92 567.77 377.94 567.79 377.94ZM569.69 376.8C569.51 376.66 569.35 376.55 569.14 376.41C568.64 376.05 568.09 375.68 567.7 375.22C567.7 375.22 567.69 375.21 567.68 375.2C567.68 375.19 567.68 375.18 567.68 375.18C567.7 374.72 567.7 374.29 567.7 373.83C567.7 373.53 567.73 373.23 567.73 372.94C567.73 372.93 567.73 372.88 567.73 372.8C567.79 372.84 567.83 372.86 567.84 372.87C570.47 374.63 572.98 376.59 575.31 378.72C575.32 378.72 575.32 378.73 575.34 378.74L575.38 381.07C571.97 378.51 570.07 377.08 569.69 376.8ZM569.23 376.3C569.42 376.43 569.6 376.55 569.78 376.69C570.15 376.96 571.97 378.32 575.25 380.78C575.23 379.6 575.22 378.94 575.22 378.81C572.94 376.73 570.47 374.79 567.91 373.07C567.91 373.33 567.91 373.58 567.89 373.83C567.86 374.26 567.84 374.72 567.84 375.15C568.23 375.59 568.73 375.95 569.23 376.3ZM520.37 379.25C520.37 379.2 520.37 379.18 520.37 379.18C521.21 361.85 520.78 344.3 519.11 327.02C519.11 327.01 519.11 326.98 519.11 326.93L519.2 326.93C525.95 327.34 529.7 327.57 530.45 327.61C530.67 327.63 530.9 327.63 531.13 327.66C531.82 327.68 532.5 327.73 533.19 327.84C534.35 328.02 535.06 328.89 535.63 329.69C536.46 330.86 537.28 332.05 538.08 333.21C538.47 333.78 538.88 334.38 539.27 334.95C540.69 337.01 552.06 353.5 553.49 355.57C553.58 355.7 553.71 355.77 553.87 355.77C554.08 355.77 554.29 355.63 554.31 355.36C554.35 353.6 554.4 351.7 554.42 349.6C554.42 349.6 554.42 349.58 554.42 349.55C554.45 349.54 554.47 349.53 554.47 349.53C554.58 349.46 554.65 349.37 554.67 349.28C554.7 349.19 554.67 349.1 554.61 348.98C554.6 348.97 554.54 348.88 554.45 348.73C554.45 348.72 554.45 348.71 554.45 348.71C554.51 341.51 554.33 334.22 553.87 327.04C553.87 327.03 553.87 327 553.87 326.95L566.7 327.25C566.7 327.29 566.7 327.31 566.7 327.31C566.93 334.29 567.09 341.39 567.13 348.46C567.13 348.46 567.13 348.47 567.13 348.48C567.12 348.49 567.11 348.5 567.11 348.5C567.04 348.59 567.02 348.71 567.11 348.8C567.11 348.8 567.12 348.81 567.13 348.82C567.13 348.84 567.13 348.84 567.13 348.85C567.15 352.41 567.15 355.89 567.13 359.22C567.13 359.23 567.13 359.25 567.13 359.29C567.09 359.29 567.07 359.29 567.06 359.29C566.97 359.31 566.88 359.41 566.86 359.5C566.86 359.54 566.86 359.63 566.97 359.7C566.98 359.71 567.04 359.74 567.13 359.79C567.13 359.82 567.13 359.84 567.13 359.84C567.09 365.97 566.97 372.11 566.79 378.17C566.79 378.18 566.79 378.21 566.79 378.26C566.75 378.28 566.72 378.28 566.72 378.29C565.23 378.61 563.73 378.81 562.22 378.93C562.21 378.93 562.2 378.93 562.17 378.93C562.16 378.91 562.15 378.9 562.15 378.9C562.06 378.79 561.9 378.77 561.81 378.86C561.78 378.88 561.76 378.9 561.74 378.93C561.74 378.93 561.73 378.93 561.71 378.95C561.69 378.95 561.67 378.95 561.67 378.95C559.41 379.09 557.14 378.97 554.9 378.63C554.86 378.63 554.79 378.61 554.72 378.61C554.4 378.58 553.97 378.54 553.81 378.29C552.45 376.26 545.67 366.13 533.46 347.91C533.46 347.85 533.46 347.82 533.46 347.82C533.46 347.7 533.42 347.61 533.35 347.52C533.28 347.45 533.17 347.41 533.03 347.41C532.82 347.41 532.59 347.54 532.59 347.82C532.59 347.83 532.59 347.92 532.59 347.93C532.57 347.98 532.57 348.05 532.59 348.11C532.59 348.11 532.59 348.11 532.59 348.11L532.59 348.11L532.27 378.67C532.25 378.69 532.23 378.7 532.23 378.7C532.07 378.79 531.95 378.97 531.98 379.13C531.98 379.14 531.98 379.18 531.98 379.25L520.37 379.25ZM531.79 379.11C531.79 378.93 531.91 378.74 532.09 378.63C532.12 375.58 532.38 351.21 532.41 348.16C532.39 348.07 532.39 348 532.41 347.91C532.41 347.9 532.41 347.85 532.41 347.84C532.41 347.47 532.71 347.27 533.01 347.27C533.17 347.27 533.33 347.34 533.44 347.43C533.53 347.52 533.6 347.66 533.6 347.82C533.6 347.82 533.6 347.84 533.6 347.86C545.79 366.08 552.57 376.19 553.92 378.22C554.03 378.4 554.45 378.45 554.72 378.47C554.79 378.47 554.86 378.49 554.93 378.49C557.12 378.83 559.38 378.93 561.62 378.81C561.65 378.79 561.67 378.77 561.69 378.74C561.85 378.58 562.1 378.61 562.24 378.77C563.7 378.65 565.17 378.45 566.61 378.15C566.79 372.14 566.9 365.99 566.95 359.91C566.94 359.9 566.89 359.87 566.88 359.86C566.74 359.79 566.67 359.66 566.7 359.5C566.72 359.36 566.83 359.22 566.95 359.18C566.97 355.89 566.97 352.43 566.95 348.89C566.83 348.75 566.86 348.55 566.95 348.43C566.9 341.39 566.77 334.31 566.51 327.38C565.26 327.36 555.26 327.14 554.01 327.11C554.45 334.24 554.63 341.51 554.56 348.66C554.57 348.68 554.68 348.85 554.7 348.87C554.79 349.01 554.81 349.14 554.79 349.28C554.77 349.42 554.67 349.53 554.54 349.62C554.51 351.73 554.47 353.6 554.42 355.36C554.42 355.73 554.13 355.93 553.85 355.93C553.65 355.93 553.46 355.84 553.35 355.66C551.93 353.6 540.55 337.1 539.13 335.04C538.74 334.47 538.33 333.87 537.94 333.3C537.14 332.14 536.34 330.95 535.52 329.78C534.97 329.01 534.29 328.16 533.17 327.98C532.5 327.86 531.79 327.84 531.13 327.79C530.9 327.79 530.67 327.77 530.45 327.75C529.33 327.68 520.41 327.15 519.29 327.09C520.94 344.32 521.37 361.83 520.53 379.11C522.78 379.11 530.67 379.11 531.79 379.11ZM575.22 378.01C572.89 375.93 570.4 374.01 567.82 372.3C567.82 372.3 567.79 372.3 567.79 372.27C567.79 372.27 567.78 372.27 567.75 372.25C567.75 372.22 567.75 372.21 567.75 372.21C567.77 371.7 567.77 371.2 567.77 370.67C567.77 370.6 567.78 370.25 567.79 369.62C567.86 369.68 567.9 369.71 567.91 369.71C570.51 371.57 573.01 373.67 575.29 375.98C575.29 375.98 575.3 375.99 575.31 376L575.36 378.13C575.28 378.06 575.23 378.02 575.22 378.01ZM567.91 372.18C570.45 373.87 572.91 375.75 575.2 377.81C575.2 377.63 575.18 376.26 575.18 376.09C572.94 373.85 570.49 371.79 567.95 369.97C567.95 370.04 567.93 370.64 567.93 370.72C567.93 371.2 567.91 371.68 567.91 372.18C567.91 372.18 567.91 372.18 567.91 372.18ZM575.18 375.22C572.98 373.07 570.61 371.09 568.11 369.3C568.05 369.26 567.98 369.26 567.91 369.28C567.9 369.28 567.86 369.31 567.79 369.35C567.79 369.27 567.79 369.22 567.79 369.21C567.82 368.57 567.82 367.95 567.82 367.31C567.82 367.24 567.83 366.86 567.84 366.17C568.05 366.56 568.16 366.77 568.18 366.81C568.23 366.9 568.3 366.93 568.37 366.93C568.43 366.93 568.53 366.88 568.57 366.83C568.57 366.83 568.59 366.82 568.62 366.79C568.66 366.82 568.68 366.83 568.69 366.83C570.95 368.39 573.1 370.1 575.09 371.98C575.13 372.02 575.18 372.05 575.22 372.05C575.23 372.05 575.25 372.05 575.29 372.05L575.31 375.36C575.23 375.28 575.19 375.23 575.18 375.22ZM568.21 369.21C570.65 370.97 573.01 372.91 575.18 375.02C575.17 374.73 575.16 372.47 575.15 372.18C575.09 372.16 575.04 372.14 574.99 372.09C573.03 370.24 570.9 368.53 568.66 366.99C568.59 367.06 568.48 367.11 568.39 367.11C568.25 367.11 568.16 367.04 568.09 366.93C568.09 366.92 568.06 366.88 568.02 366.81C568.02 367.15 568.02 367.34 568.02 367.38C568.02 367.98 568 368.57 568 369.17C567.98 369.14 567.98 369.14 568 369.14C568.07 369.14 568.14 369.17 568.21 369.21ZM533.44 366.9C533.39 366.86 533.35 366.83 533.3 366.83C533.3 366.83 533.28 366.83 533.23 366.83L533.26 364.3C536.89 367.93 538.91 369.95 539.31 370.35C539.43 370.47 539.63 370.4 539.68 370.26C539.7 370.22 539.73 370.13 539.63 370.03C539.21 369.61 537.09 367.49 533.28 363.68L533.3 361.28C533.37 361.33 533.41 361.37 533.42 361.37C535.43 362.86 537.35 364.53 539.13 366.31C539.25 366.42 539.45 366.35 539.5 366.22C539.52 366.17 539.54 366.08 539.45 365.99C537.55 364.11 535.5 362.35 533.33 360.75C533.32 360.75 533.32 360.75 533.3 360.73L533.33 358.42C533.39 358.49 533.43 358.53 533.44 358.54C535.7 360.48 537.87 362.56 539.93 364.71C540.02 364.8 540.16 364.8 540.25 364.69C540.26 364.68 540.3 364.63 540.37 364.55C540.31 364.47 540.28 364.42 540.27 364.41C540.27 364.39 540.25 364.39 540.25 364.39C538.08 362.13 535.75 359.93 533.35 357.85C533.35 357.85 533.34 357.84 533.33 357.83L533.35 355.22L533.35 355.22L533.39 351.57C533.46 351.62 533.5 351.65 533.51 351.66C534.31 352.32 535.15 352.91 536.05 353.44C536.05 353.44 536.05 353.45 536.07 353.46L540.62 360.25C540.62 360.27 540.62 360.27 540.62 360.27C540.62 360.3 540.62 360.32 540.62 360.34C540.62 360.38 540.61 360.59 540.59 360.96C540.53 360.89 540.49 360.85 540.48 360.85C538.33 358.81 536.09 356.85 533.87 355.02C533.76 354.93 533.6 354.95 533.51 355.06C533.5 355.07 533.47 355.11 533.42 355.18C533.47 355.25 533.5 355.28 533.51 355.29C533.51 355.29 533.53 355.31 533.53 355.31C535.91 357.28 538.29 359.36 540.55 361.53C540.55 361.53 540.56 361.54 540.57 361.55C540.57 361.58 540.57 361.6 540.57 361.6C540.53 362.54 540.48 363.45 540.43 364.39C540.43 364.4 540.43 364.48 540.43 364.62L540.43 364.62C540.43 364.7 540.43 364.75 540.43 364.75C540.3 367.63 540.11 370.49 539.93 373.28C539.93 373.29 539.91 373.32 539.89 373.37C536.02 369.49 533.87 367.33 533.44 366.9ZM533.55 366.79C534.18 367.41 539.15 372.4 539.77 373.03C539.95 370.35 540.11 367.59 540.25 364.85C540.11 364.91 539.95 364.89 539.84 364.75C537.83 362.65 535.7 360.62 533.49 358.7C533.48 358.89 533.47 360.43 533.46 360.62C535.63 362.22 537.69 363.98 539.57 365.85C539.68 365.97 539.7 366.1 539.66 366.24C539.59 366.4 539.45 366.49 539.29 366.49C539.2 366.49 539.11 366.45 539.04 366.38C537.3 364.64 535.43 363.02 533.46 361.55C533.46 361.69 533.45 362.37 533.44 363.59C537.23 367.37 539.33 369.48 539.75 369.9C539.86 370.01 539.89 370.15 539.84 370.29C539.77 370.45 539.63 370.54 539.47 370.54C539.38 370.54 539.29 370.49 539.22 370.42C538.84 370.04 536.91 368.11 533.44 364.64L533.39 366.7C533.47 366.73 533.52 366.76 533.55 366.79ZM540.27 364.11C540.32 363.27 540.37 362.4 540.39 361.55C538.17 359.43 535.84 357.37 533.49 355.43C533.49 355.58 533.49 356.33 533.49 357.69C536.59 360.48 538.86 362.62 540.27 364.11ZM533.94 354.81C536.14 356.62 538.31 358.54 540.43 360.55C540.44 360.52 540.45 360.3 540.46 360.27C540.46 360.25 540.46 360.23 540.46 360.23C540.01 359.56 536.4 354.18 535.95 353.51C535.11 353.01 534.31 352.43 533.55 351.82C533.55 352.11 533.53 354.49 533.53 354.79C533.58 354.74 533.65 354.72 533.69 354.72C533.78 354.72 533.87 354.74 533.94 354.81ZM575.15 371.43C572.98 369.42 570.65 367.59 568.21 365.97C568.14 365.92 568.05 365.92 567.98 365.97C567.97 365.97 567.93 366 567.86 366.06C567.86 365.96 567.86 365.91 567.86 365.9C567.89 365.14 567.89 364.37 567.89 363.61C567.89 363.56 567.89 363.29 567.89 362.81C567.95 362.87 567.99 362.9 568 362.9C570.58 364.8 573.01 366.95 575.22 369.3C575.22 369.3 575.23 369.31 575.25 369.33L575.29 371.54C575.21 371.47 575.16 371.44 575.15 371.43ZM568.27 365.85C570.67 367.45 572.98 369.23 575.11 371.2C575.11 371.02 575.09 369.57 575.09 369.39C572.91 367.11 570.56 364.98 568.02 363.13C568.02 363.18 568.02 363.58 568.02 363.63C568.02 364.37 568 365.07 568 365.81C568.05 365.78 568.07 365.78 568.09 365.78C568.16 365.78 568.23 365.81 568.27 365.85ZM575.11 368.53C572.91 366.24 570.49 364.14 567.93 362.29C567.93 362.28 567.92 362.28 567.91 362.26C567.91 362.24 567.91 362.22 567.91 362.22C567.91 361.83 567.91 361.46 567.91 361.07C567.91 361.02 567.91 360.75 567.91 360.27C567.98 360.32 568.02 360.34 568.02 360.34C570.35 361.74 572.53 363.41 574.47 365.3C574.58 365.42 574.79 365.35 574.83 365.21C574.86 365.17 574.88 365.07 574.79 364.98C572.75 362.97 570.45 361.23 567.95 359.77C567.95 359.77 567.94 359.76 567.91 359.75C567.91 359.72 567.91 359.71 567.91 359.7C567.91 358.81 567.91 357.94 567.93 357.05C567.93 357.03 567.93 356.95 567.93 356.8C567.99 356.81 568.02 356.82 568.02 356.82C569.07 357.1 569.94 357.85 570.77 358.58C570.99 358.79 571.2 358.97 571.43 359.13C571.76 359.4 574.37 361.52 574.7 361.78C574.79 361.87 574.95 361.85 575.04 361.76C575.05 361.75 575.09 361.71 575.18 361.65L575.25 368.66C575.16 368.58 575.12 368.53 575.11 368.53ZM575.09 368.27C575.08 367.64 575.02 362.6 575.02 361.97C574.88 362.03 574.72 362.01 574.61 361.92C574.28 361.65 571.66 359.53 571.34 359.27C571.11 359.09 570.9 358.9 570.67 358.72C569.87 358.03 569.05 357.33 568.07 357.03C568.07 357.03 568.07 357.07 568.07 357.07C568.07 357.94 568.07 358.81 568.05 359.68C570.54 361.12 572.82 362.88 574.86 364.89C574.97 365.01 574.99 365.14 574.95 365.28C574.88 365.44 574.74 365.53 574.58 365.53C574.49 365.53 574.4 365.49 574.33 365.42C572.43 363.57 570.31 361.92 568.05 360.55C568.05 360.6 568.05 361.02 568.05 361.07C568.07 361.44 568.07 361.81 568.05 362.17C570.56 364 572.94 366.03 575.09 368.27ZM575.04 361.49C572.72 359.61 571.43 358.56 571.18 358.35C571.04 358.24 570.88 358.13 570.74 357.99C569.92 357.3 569.05 356.59 568 356.37C568 356.36 567.97 356.36 567.93 356.34C567.93 356.3 567.93 356.28 567.93 356.27C567.93 355.59 567.93 354.9 567.93 354.22C567.93 354.19 567.93 354.03 567.93 353.76C571.66 356.54 573.73 358.09 574.15 358.4C574.26 358.49 574.4 358.42 574.45 358.29C574.47 358.24 574.49 358.1 574.35 358.01C573.93 357.69 571.79 356.09 567.93 353.21C567.93 353.18 567.93 353.17 567.93 353.17C567.93 351.93 567.93 350.7 567.93 349.46C567.93 349.45 567.93 349.41 567.93 349.33C568 349.37 568.04 349.39 568.05 349.39C570.56 350.95 572.94 352.78 575.09 354.83C575.09 354.84 575.09 354.84 575.11 354.86L575.18 361.6L575.04 361.49ZM570.83 357.87C570.97 357.99 571.13 358.13 571.27 358.24C571.52 358.44 572.77 359.46 575.02 361.28C574.98 357.48 574.95 355.37 574.95 354.95C572.85 352.94 570.54 351.15 568.07 349.62C568.07 350.81 568.07 351.98 568.07 353.17C568.7 353.64 573.79 357.44 574.42 357.92C574.56 358.03 574.63 358.19 574.56 358.38C574.49 358.61 574.22 358.72 574.03 358.56C573.64 358.26 571.65 356.78 568.07 354.1C568.07 354.2 568.07 354.25 568.07 354.26C568.09 354.9 568.09 355.57 568.09 356.23C569.17 356.48 570.01 357.19 570.83 357.87ZM574.97 354.13C572.82 352.14 570.47 350.35 567.95 348.82C567.95 348.82 567.94 348.81 567.91 348.8C567.91 348.77 567.91 348.76 567.91 348.75C567.91 348.11 567.91 347.47 567.89 346.83C567.89 346.78 567.89 346.5 567.89 345.99C567.9 345.97 567.91 345.97 567.91 345.97C567.95 345.92 567.95 345.85 567.93 345.78C567.93 345.78 567.92 345.75 567.91 345.69C567.96 345.69 567.99 345.69 568 345.69C568 345.69 568 345.69 568 345.69C568.05 345.69 568.94 346.17 568.96 346.17C569.26 346.35 569.55 346.56 569.85 346.77C570.45 347.18 571.06 347.63 571.79 348.21C572.87 349.05 573.92 350.03 575.04 351.2C575.04 351.2 575.05 351.21 575.06 351.22L575.11 354.24C575.03 354.17 574.98 354.13 574.97 354.13ZM574.95 353.87C574.95 353.62 574.93 351.57 574.93 351.31C573.83 350.17 572.78 349.21 571.73 348.37C570.99 347.79 570.38 347.34 569.78 346.93C569.49 346.72 569.19 346.51 568.89 346.33C568.85 346.31 568.34 346.03 568.11 345.92C568.11 345.97 568.09 346.01 568.07 346.06C568.07 346.14 568.07 346.78 568.07 346.86C568.07 347.47 568.07 348.09 568.09 348.71C570.54 350.19 572.85 351.93 574.95 353.87ZM550.93 350.33C552.19 350.4 552.89 350.44 553.03 350.45C553.03 350.45 553.03 350.45 553.03 350.45C553.19 350.45 553.23 350.33 553.23 350.24C553.23 350.13 553.17 349.99 553.01 349.99C552.84 349.98 552.04 349.93 550.58 349.85L548.87 347.38C551.31 347.9 552.67 348.19 552.94 348.25C552.96 348.25 552.96 348.25 552.98 348.25C552.99 348.25 553 348.25 553.03 348.25L553.51 348.94C553.51 348.95 553.51 348.96 553.51 348.96C553.49 350.79 553.46 352.32 553.42 353.76C553.42 353.78 553.43 353.85 553.44 353.99L550.93 350.33ZM553.3 353.53C553.33 352.57 553.35 351.54 553.37 350.42C553.33 350.54 553.21 350.63 553.05 350.63C553.05 350.63 553.04 350.63 553.03 350.63L551.22 350.51C552.47 352.32 553.16 353.33 553.3 353.53ZM553.03 349.87C553.21 349.87 553.33 349.99 553.37 350.13C553.37 349.76 553.37 349.39 553.39 349.01C553.35 348.95 553.02 348.47 552.98 348.41C552.98 348.41 552.96 348.41 552.96 348.41C552.71 348.36 551.48 348.1 549.26 347.63L550.7 349.74C552.1 349.82 552.87 349.87 553.03 349.87ZM535.13 352.23C534.54 351.82 533.97 351.38 533.44 350.93C533.44 350.92 533.43 350.92 533.42 350.9L533.44 349.44L535.45 352.46C535.26 352.32 535.15 352.24 535.13 352.23ZM534.86 351.86C534.77 351.73 534.34 351.09 533.55 349.92L533.55 350.83C534.12 351.31 534.55 351.65 534.86 351.86ZM574.93 350.47C573.53 349.07 572 347.77 570.38 346.61C570.24 346.51 570.1 346.42 569.97 346.31C569.35 345.85 568.66 345.33 567.95 345.23C567.95 345.23 567.93 345.23 567.89 345.23C567.89 345.19 567.89 345.17 567.89 345.17C567.89 344.62 567.86 344.05 567.86 343.5C567.86 343.45 567.86 343.22 567.86 342.81C567.88 342.8 567.88 342.79 567.89 342.79C567.89 342.79 567.91 342.77 567.91 342.77C567.91 342.76 567.93 342.75 567.95 342.72C568 342.73 568.02 342.74 568.02 342.74C568.27 342.86 568.57 343.11 568.8 343.31C568.91 343.41 569.01 343.5 569.1 343.54C569.62 343.91 570.17 344.32 570.88 344.87C572.02 345.74 573.21 346.74 574.51 347.89C574.56 347.93 574.61 347.95 574.67 347.95C574.79 347.95 574.88 347.86 574.93 347.77C574.93 347.77 574.93 347.75 574.93 347.73C574.91 347.7 574.9 347.68 574.9 347.68C574.9 347.63 574.88 347.61 574.83 347.59C573.65 346.54 572.39 345.49 571.09 344.48C570.49 344.02 569.83 343.54 569.01 342.95C568.91 342.88 568.82 342.81 568.73 342.74C568.48 342.54 568.21 342.33 567.93 342.26C567.93 342.26 567.91 342.25 567.89 342.24C567.89 342.2 567.89 342.18 567.89 342.17C567.89 341.58 567.86 340.98 567.86 340.39C567.86 340.35 567.86 340.16 567.86 339.82C567.93 339.87 567.97 339.9 567.98 339.91C570.13 341.44 572.21 343.11 574.15 344.82C574.29 344.94 574.49 344.87 574.54 344.71C574.56 344.66 574.56 344.57 574.47 344.5C572.37 342.65 570.15 340.91 567.86 339.29C567.86 339.29 567.84 339.28 567.82 339.27C567.8 339.24 567.8 339.23 567.79 339.22C567.79 338.67 567.77 338.13 567.77 337.58C567.77 337.5 567.76 337.14 567.75 336.48C567.83 336.56 567.88 336.61 567.89 336.62C570.01 338.7 572.3 340.59 574.74 342.29C574.79 342.31 574.83 342.33 574.88 342.33C574.89 342.33 574.92 342.32 574.97 342.31L575.02 347.2L575.02 347.2L575.06 350.61C574.98 350.52 574.93 350.48 574.93 350.47ZM570.08 346.19C570.22 346.29 570.35 346.4 570.47 346.49C572.05 347.63 573.55 348.89 574.9 350.24C574.9 350.02 574.88 348.24 574.88 348.02C574.74 348.14 574.54 348.14 574.38 348C573.07 346.86 571.91 345.85 570.74 344.98C570.03 344.43 569.49 344.05 568.96 343.66C568.89 343.61 568.78 343.52 568.66 343.43C568.46 343.27 568.21 343.04 568 342.93C568 342.98 568 343.44 568 343.5C568.05 344.02 568.05 344.55 568.05 345.1C568.78 345.23 569.46 345.74 570.08 346.19ZM568.82 342.61C568.91 342.67 569.01 342.74 569.1 342.81C569.92 343.38 570.58 343.89 571.18 344.34C572.46 345.35 573.71 346.38 574.9 347.43C574.9 346.93 574.86 342.96 574.86 342.47C574.79 342.47 574.74 342.45 574.67 342.4C572.3 340.73 570.01 338.88 567.93 336.85C567.93 336.92 567.95 337.48 567.95 337.55C567.98 338.08 567.98 338.63 567.98 339.15C570.26 340.78 572.48 342.54 574.56 344.37C574.67 344.46 574.72 344.62 574.65 344.73C574.58 344.89 574.42 345.01 574.26 345.01C574.17 345.01 574.08 344.98 574.01 344.91C572.09 343.22 570.06 341.62 567.95 340.11C567.95 340.14 567.95 340.34 567.95 340.37C568 340.94 568 341.51 568.02 342.1C568.32 342.19 568.59 342.42 568.82 342.61ZM548.53 346.86L546.65 344.16C546.76 344.19 546.82 344.2 546.83 344.21C548.25 344.5 549.67 344.91 551.04 345.44C551.04 345.44 551.05 345.44 551.06 345.44L552.69 347.73L548.53 346.86ZM552.34 347.5C551.52 346.33 551.06 345.68 550.97 345.55C549.69 345.07 548.34 344.66 546.99 344.39C547.1 344.54 547.64 345.32 548.62 346.72L552.34 347.5ZM550.38 344.71C549.05 344.25 547.68 343.89 546.31 343.63C546.31 343.63 546.3 343.63 546.29 343.63L544.87 341.58C544.98 341.6 545.04 341.62 545.05 341.62C546.35 341.87 547.66 342.24 548.89 342.72C548.96 342.74 549.01 342.74 549.05 342.72C549.06 342.72 549.08 342.71 549.12 342.7L550.61 344.78C550.47 344.74 550.39 344.71 550.38 344.71ZM550.22 344.5C550.1 344.34 549.19 343.04 549.07 342.88C549.01 342.9 548.94 342.9 548.87 342.86C547.68 342.42 546.47 342.08 545.23 341.81C545.31 341.92 545.69 342.48 546.38 343.5C548.1 343.88 549.38 344.21 550.22 344.5ZM548.55 342.1C547.25 341.65 545.9 341.3 544.55 341.07C544.55 341.07 544.54 341.07 544.53 341.07L543.15 339.09C543.28 339.11 543.35 339.13 543.36 339.13C544.78 339.52 546.17 339.93 547.52 340.39C547.52 340.39 547.53 340.39 547.54 340.39L548.78 342.17C548.64 342.13 548.56 342.11 548.55 342.1ZM548.37 341.87C548.27 341.74 547.5 340.66 547.41 340.53C546.13 340.09 544.8 339.68 543.47 339.31C543.55 339.42 543.92 339.95 544.59 340.91C546.3 341.28 547.56 341.6 548.37 341.87ZM574.86 341.78C572.41 340.07 570.08 338.13 567.95 336C567.91 335.95 567.86 335.93 567.82 335.93C567.81 335.93 567.79 335.93 567.75 335.93C567.75 335.89 567.75 335.87 567.75 335.86C567.73 335.29 567.73 334.7 567.7 334.13C567.7 334.08 567.69 333.84 567.68 333.42C571.64 337.11 573.85 339.16 574.29 339.57C574.42 339.68 574.61 339.61 574.67 339.47C574.7 339.43 574.7 339.34 574.63 339.25C574.17 338.81 571.85 336.66 567.68 332.78C567.68 332.76 567.68 332.76 567.68 332.75C567.68 332.32 567.66 331.91 567.63 331.47C567.63 331.42 567.63 331.16 567.61 330.7C567.64 330.68 567.65 330.68 567.66 330.67C567.7 330.65 567.73 330.63 567.75 330.58C567.75 330.58 567.77 330.55 567.79 330.49C567.84 330.55 567.86 330.58 567.86 330.58C568.14 330.9 568.5 331.29 568.53 331.31C568.82 331.57 569.12 331.82 569.39 332.07C569.9 332.5 570.45 332.98 571.13 333.58C572.21 334.51 573.33 335.54 574.54 336.71C574.61 336.78 574.7 336.8 574.79 336.75C574.8 336.75 574.83 336.73 574.9 336.69C574.9 336.86 574.9 336.96 574.9 336.98C574.9 337.23 574.9 337.49 574.9 337.74C574.91 338.01 574.93 339.39 574.97 341.87C574.9 341.82 574.86 341.79 574.86 341.78ZM568.05 335.91C570.13 337.99 572.41 339.89 574.81 341.58C574.81 341.38 574.79 339.77 574.79 339.57C574.67 339.77 574.38 339.86 574.17 339.68C573.75 339.29 571.63 337.31 567.82 333.76C567.82 333.98 567.82 334.1 567.82 334.13C567.86 334.7 567.89 335.25 567.89 335.82C567.95 335.84 568 335.86 568.05 335.91ZM574.72 339.13C574.74 339.15 574.77 339.18 574.79 339.22C574.79 339.07 574.77 337.82 574.77 337.67C574.77 337.42 574.77 337.17 574.77 336.91C574.77 336.91 574.77 336.87 574.77 336.87C574.65 336.89 574.54 336.85 574.45 336.78C573.21 335.61 572.11 334.61 571.04 333.67C570.35 333.05 569.81 332.59 569.3 332.16C569.01 331.91 568.71 331.66 568.41 331.41C568.39 331.38 568.05 331.04 567.79 330.74C567.77 330.77 567.77 330.77 567.75 330.79C567.75 330.86 567.77 331.41 567.77 331.47C567.79 331.89 567.82 332.3 567.82 332.71C569.2 333.99 574.03 338.49 574.72 339.13ZM546.9 339.7C545.55 339.27 544.16 338.86 542.79 338.49C542.79 338.49 542.78 338.49 542.77 338.49L540.89 335.79L545.39 337.35L547.11 339.77C546.99 339.73 546.92 339.71 546.9 339.7ZM546.7 339.47C546.6 339.34 546.13 338.66 545.28 337.44L541.26 336.05L542.83 338.35C544.56 338.83 545.84 339.2 546.7 339.47ZM541.14 335.41C541.01 335.36 540.91 335.47 540.89 335.57C540.89 335.58 540.87 335.63 540.85 335.73L539.41 333.65L543.54 334.67C543.56 334.69 543.56 334.7 543.57 334.7C543.75 334.97 543.95 335.25 544.14 335.52C544.37 335.86 544.59 336.18 544.85 336.53C544.85 336.54 544.89 336.6 544.96 336.71C542.67 335.93 541.4 335.49 541.14 335.41ZM541.19 335.25C541.53 335.36 544.23 336.29 544.57 336.41C544.39 336.14 544.21 335.86 544 335.59C543.82 335.31 543.63 335.06 543.45 334.79C543.21 334.73 541.98 334.42 539.77 333.87C540.39 334.77 540.73 335.26 540.8 335.36C540.85 335.27 540.94 335.22 541.05 335.22C541.1 335.22 541.14 335.22 541.19 335.25ZM574.81 336.27C573.53 335.06 572.21 333.87 570.9 332.73C570.31 332.21 569.67 331.66 568.87 330.97C568.78 330.9 568.69 330.81 568.59 330.72C568.3 330.45 568 330.17 567.66 330.08C567.65 330.08 567.63 330.07 567.59 330.06C567.57 329.67 567.57 329.46 567.57 329.42C567.57 329.12 567.54 328.82 567.54 328.53C567.54 328.51 567.54 328.45 567.54 328.34C567.63 328.41 567.67 328.45 567.68 328.46C569.07 329.69 570.63 330.79 572.25 331.73C573.35 332.37 574.22 332.94 574.65 334.03C574.9 334.74 574.95 335.52 574.95 336.21C574.95 336.22 574.95 336.28 574.95 336.39C574.87 336.32 574.82 336.28 574.81 336.27ZM568.69 330.61C568.78 330.7 568.87 330.79 568.96 330.86C569.76 331.54 570.4 332.09 571.02 332.62C572.27 333.71 573.55 334.88 574.79 336.05C574.79 335.43 574.72 334.72 574.49 334.1C574.1 333.03 573.23 332.48 572.16 331.86C570.56 330.95 569.07 329.9 567.7 328.69C567.7 328.91 567.73 329.17 567.73 329.39C567.73 329.43 567.73 329.61 567.75 329.94C568.19 330.2 568.5 330.42 568.69 330.61ZM539.34 333.14C539.27 333.12 539.22 333.14 539.18 333.17C539.17 333.17 539.15 333.18 539.11 333.21C539.08 333.17 539.07 333.15 539.06 333.14C538.79 332.75 538.54 332.37 538.26 331.95C538.01 331.59 537.78 331.22 537.53 330.86C537.52 330.84 537.46 330.75 537.35 330.58C537.51 330.68 537.6 330.73 537.62 330.74C538.26 331.11 538.95 331.43 539.68 331.68C539.82 331.73 539.98 331.77 540.11 331.84C541.1 332.18 541.92 332.46 542.63 333.39C542.74 333.55 542.86 333.69 542.95 333.85C542.96 333.87 543.02 333.94 543.13 334.08C540.85 333.52 539.59 333.21 539.34 333.14ZM539.36 333.01C539.7 333.09 542.43 333.77 542.77 333.85C542.67 333.74 542.58 333.6 542.49 333.49C541.83 332.59 541.05 332.32 540.07 331.98C539.93 331.93 539.77 331.89 539.63 331.82C539.02 331.59 538.4 331.34 537.83 331.02C538.01 331.29 538.19 331.59 538.4 331.86C538.65 332.25 538.9 332.62 539.15 332.98C539.2 332.98 539.22 332.98 539.27 332.98C539.29 332.98 539.34 332.98 539.36 333.01Z" id="c88GpPne9"></path></defs><g><g><g><use xlink:href="#e4llqG20Ss" opacity="1" fill="#000000" fill-opacity="1"></use><g><use xlink:href="#e4llqG20Ss" opacity="1" fill-opacity="0" stroke="#000000" stroke-width="1" stroke-opacity="0"></use></g></g><g><use xlink:href="#c88GpPne9" opacity="1" fill="#180f0b" fill-opacity="1"></use><g><use xlink:href="#c88GpPne9" opacity="1" fill-opacity="0" stroke="#000000" stroke-width="1" stroke-opacity="0"></use></g></g></g></g></svg>