<?xml version="1.0" ?><svg id="图层_1" style="enable-background:new -239 241 32 32;" version="1.1" viewBox="-239 241 32 32" xml:space="preserve" xmlns="http://www.w3.org/2000/svg" xmlns:xlink="http://www.w3.org/1999/xlink"><style type="text/css">
	.st0{fill:#F42F42;}
	.st1{opacity:0.2038;fill:#332E0A;enable-background:new    ;}
	.st2{fill:none;stroke:#0A2933;stroke-linejoin:round;}
	.st3{fill:none;stroke:#FFFFFF;stroke-linecap:round;stroke-linejoin:round;stroke-dasharray:1,2,6,2,3;}
</style><path class="st0" d="M-213.1,256.6c0,1.4-0.2,2.7-0.7,3.9s-1.1,2.2-1.9,3.1c-0.8,0.9-1.8,1.5-3,2c-1.2,0.5-2.5,0.7-3.9,0.7  c-1.4,0-2.7-0.2-3.9-0.7c-1.1-0.5-2.1-1.1-3-2s-1.5-1.9-1.9-3.1c-0.4-1.2-0.7-2.5-0.7-3.9c0-1.4,0.2-2.7,0.7-3.9  c0.4-1.2,1.1-2.2,1.9-3.1s1.8-1.5,3-2c1.2-0.5,2.5-0.7,3.9-0.7c1.4,0,2.7,0.2,3.9,0.7c1.2,0.5,2.2,1.1,3,2c0.8,0.9,1.5,1.9,1.9,3.1  C-213.3,253.9-213.1,255.2-213.1,256.6z M-217.9,256.6c0-1.9-0.4-3.4-1.3-4.5c-0.9-1.1-2-1.6-3.4-1.6c-0.9,0-1.7,0.2-2.4,0.7  s-1.2,1.2-1.6,2.1c-0.4,0.9-0.6,2-0.6,3.3c0,1.2,0.2,2.3,0.6,3.2c0.4,0.9,0.9,1.6,1.6,2.1c0.7,0.5,1.5,0.7,2.5,0.7  c1.4,0,2.6-0.5,3.4-1.6C-218.3,260-217.9,258.5-217.9,256.6z"/><path class="st1" d="M-232,255.9c0.1,1.1,0.3,2.2,0.6,3.2c0.4,1.2,1.1,2.2,1.9,3.1s1.8,1.5,3,2s2.4,0.7,3.9,0.7  c1.4,0,2.7-0.2,3.9-0.7c1.2-0.5,2.2-1.1,3-2c0.8-0.9,1.5-1.9,1.9-3.1c0.4-1,0.6-2,0.6-3.2c0,0.2,0,0.5,0,0.7c0,1.4-0.2,2.7-0.7,3.9  s-1.1,2.2-1.9,3.1c-0.8,0.9-1.8,1.5-3,2c-1.2,0.5-2.5,0.7-3.9,0.7c-1.4,0-2.7-0.2-3.9-0.7c-1.1-0.5-2.1-1.1-3-2s-1.5-1.9-1.9-3.1  c-0.4-1.2-0.7-2.5-0.7-3.9C-232,256.4-232,256.1-232,255.9z" id="Combined-Shape"/><path class="st2" d="M-213.1,256.6c0,1.4-0.2,2.7-0.7,3.9s-1.1,2.2-1.9,3.1c-0.8,0.9-1.8,1.5-3,2c-1.2,0.5-2.5,0.7-3.9,0.7  c-1.4,0-2.7-0.2-3.9-0.7c-1.1-0.5-2.1-1.1-3-2s-1.5-1.9-1.9-3.1c-0.4-1.2-0.7-2.5-0.7-3.9c0-1.4,0.2-2.7,0.7-3.9  c0.4-1.2,1.1-2.2,1.9-3.1s1.8-1.5,3-2c1.2-0.5,2.5-0.7,3.9-0.7c1.4,0,2.7,0.2,3.9,0.7c1.2,0.5,2.2,1.1,3,2c0.8,0.9,1.5,1.9,1.9,3.1  C-213.3,253.9-213.1,255.2-213.1,256.6z M-217.9,256.6c0-1.9-0.4-3.4-1.3-4.5c-0.9-1.1-2-1.6-3.4-1.6c-0.9,0-1.7,0.2-2.4,0.7  s-1.2,1.2-1.6,2.1c-0.4,0.9-0.6,2-0.6,3.3c0,1.2,0.2,2.3,0.6,3.2c0.4,0.9,0.9,1.6,1.6,2.1c0.7,0.5,1.5,0.7,2.5,0.7  c1.4,0,2.6-0.5,3.4-1.6C-218.3,260-217.9,258.5-217.9,256.6z"/><path class="st3" d="M-229.8,252.2c0.5-1.5,1.7-2.7,3.7-3.7" id="Path-17"/></svg>