<?xml version="1.0" encoding="UTF-8" standalone="no"?>
<!DOCTYPE svg PUBLIC "-//W3C//DTD SVG 1.1//EN" "http://www.w3.org/Graphics/SVG/1.1/DTD/svg11.dtd">
<svg version="1.1" xmlns="http://www.w3.org/2000/svg" xmlns:xlink="http://www.w3.org/1999/xlink" preserveAspectRatio="xMidYMid meet" viewBox="75.28821830890878 419.0506785449292 65.0542733265142 60.995035740785056" width="65.05" height="61"><defs><path d="M103.68 432.82C103.61 432.66 103.47 432.53 103.22 432.55C102.29 432.59 101.35 432.75 100.46 433.01C100.44 432.99 100.33 432.84 100.32 432.82C100.09 432.53 99.7 432.89 99.86 433.19C98.24 433.74 96.73 434.61 95.45 435.7C95.22 435.59 94.97 435.84 95.04 436.07C93.81 437.23 92.8 438.65 92.11 440.25C89.97 445.28 90.13 451.84 93.21 456.43C96.18 460.89 101.58 462.08 106.63 461.76C111.41 461.46 116 459.29 118.08 454.79C120.25 450.15 120.02 443.79 117.46 439.31C114.67 434.45 108.89 433.01 103.68 432.82ZM111.34 437.26C111.57 437.55 112.09 437.26 111.86 436.96C111.36 436.32 110.86 435.66 110.38 435.02C111.93 435.59 113.39 436.37 114.61 437.46C113.03 437.26 111.45 437.51 109.94 438.01C109.17 436.64 108.25 435.36 107.22 434.19C107.93 434.31 108.64 434.47 109.35 434.67C110.01 435.54 110.67 436.39 111.34 437.26ZM109.35 438.19C108.87 438.35 108.41 438.54 107.95 438.74C106.61 437.17 105.35 435.54 104.14 433.85C104.82 433.9 105.53 433.94 106.24 434.03C107.45 435.29 108.48 436.69 109.35 438.19ZM103.31 433.76C103.31 433.76 103.31 433.76 103.31 433.78C104.57 435.59 105.92 437.33 107.36 439.02C107.25 439.06 107.13 439.11 107.04 439.18C106.56 439.41 106.08 439.63 105.6 439.89C105.65 439.77 105.65 439.66 105.55 439.54C104.07 437.67 102.61 435.77 101.12 433.9C101.78 433.71 102.45 433.62 103.13 433.58C103.18 433.65 103.25 433.71 103.31 433.76ZM105.12 439.93C105.17 439.98 105.21 440.02 105.26 440.02C103.95 440.73 102.79 441.51 101.76 442.51C101.76 442.47 101.74 442.42 101.69 442.38C101.14 441.78 96.69 437.03 96.14 436.43C97.39 435.34 98.9 434.51 100.5 434.03C102.03 436 103.59 437.97 105.12 439.93ZM99.09 444.16C99.36 444.43 99.79 444 99.52 443.73C97.76 442.03 96.02 440.37 94.26 438.67C94.24 438.65 94.22 438.63 94.17 438.63C94.42 438.26 94.67 437.92 94.97 437.6C95.2 437.35 95.43 437.1 95.68 436.87C97.53 438.86 99.38 440.85 101.26 442.83C101.3 442.88 101.35 442.9 101.39 442.93C100.82 443.52 100.32 444.18 99.86 444.94C99.7 445.19 99.57 445.44 99.43 445.71C97.35 443.95 95.25 442.19 93.17 440.41C93.39 439.93 93.62 439.52 93.85 439.13C95.59 440.8 97.35 442.49 99.09 444.16ZM99.11 446.15C99.13 446.17 99.15 446.19 99.18 446.19C98.88 446.83 98.63 447.47 98.42 448.14C96.41 446.35 94.35 444.64 92.25 442.97C92.46 442.31 92.66 441.62 92.94 440.94C94.99 442.67 97.05 444.41 99.11 446.15ZM91.98 450.47C93.65 451.2 95.22 452.14 96.66 453.28C96.96 453.51 97.39 453.1 97.1 452.85C95.5 451.59 93.76 450.56 91.89 449.76C91.79 449.01 91.75 448.23 91.75 447.45C91.75 447.27 91.75 447.11 91.77 446.93C92.31 447.33 96.59 450.53 97.12 450.93C97.44 451.15 97.74 450.63 97.42 450.4C95.54 449.01 93.67 447.59 91.79 446.19C91.86 445.35 91.98 444.48 92.14 443.66C94.22 445.33 96.27 447.04 98.26 448.8C97.85 450.33 97.62 451.91 97.55 453.46C97.51 454.35 97.53 455.29 97.67 456.21C96.09 454.97 94.42 453.85 92.66 452.85C92.62 452.82 92.59 452.82 92.57 452.82C92.32 452.07 92.11 451.29 91.98 450.47ZM97.85 457.12C97.94 457.46 98.03 457.81 98.15 458.13C97.01 457.35 95.82 456.71 94.51 456.18C94.42 456.16 94.35 456.16 94.31 456.18C93.76 455.41 93.28 454.58 92.91 453.69C94.65 454.7 96.3 455.84 97.85 457.12ZM98.65 459.22C98.77 459.45 98.9 459.66 99.06 459.86C97.44 459.25 96.09 458.26 94.99 457.03C96.3 457.62 97.51 458.35 98.65 459.22ZM101.17 460.46C101.1 460.46 101.05 460.43 100.98 460.41C100.96 460.37 100.91 460.32 100.87 460.3C98.81 458.63 98.45 455.95 98.54 453.46C98.63 450.77 99.29 448.02 100.59 445.67C102.01 443.04 104.3 441.65 106.9 440.34C109.65 438.97 112.8 437.78 115.84 438.79C116.34 439.43 116.78 440.11 117.17 440.91C118.33 443.34 118.58 446.17 118.45 448.82C118.26 451.7 117.49 454.67 115.57 456.89C112.14 460.87 105.99 461.35 101.17 460.46Z" id="dL3xV6kZh"></path><path d="M105.07 461.92C101.28 461.92 96.11 460.98 93.12 456.5C90.17 452.11 89.74 445.58 92.02 440.25C92.71 438.67 93.69 437.26 94.95 436.07C94.93 435.98 94.95 435.86 95.02 435.77C95.11 435.63 95.29 435.59 95.43 435.63C96.71 434.54 98.15 433.69 99.75 433.14C99.73 433.03 99.75 432.94 99.79 432.82C99.86 432.71 100 432.62 100.11 432.62C100.18 432.62 100.27 432.64 100.37 432.75C100.38 432.77 100.47 432.88 100.48 432.89C101.37 432.64 102.31 432.48 103.22 432.43C103.45 432.41 103.63 432.53 103.73 432.71C110.56 432.96 115.2 435.15 117.53 439.25C120.09 443.7 120.34 450.1 118.15 454.83C116.25 458.95 112.05 461.49 106.63 461.85C106.1 461.9 105.58 461.92 105.07 461.92C105.07 461.92 105.07 461.92 105.07 461.92ZM95.15 435.86C95.11 435.93 95.09 436 95.11 436.07C95.11 436.07 95.12 436.09 95.13 436.11C95.12 436.13 95.11 436.14 95.11 436.14C93.85 437.33 92.87 438.74 92.18 440.3C89.92 445.58 90.35 452.05 93.26 456.41C96.21 460.82 101.33 461.76 105.1 461.76C105.1 461.76 105.1 461.76 105.1 461.76C105.6 461.76 106.1 461.74 106.63 461.71C111.98 461.37 116.14 458.86 118.01 454.79C120.18 450.1 119.93 443.75 117.42 439.34C115.11 435.31 110.49 433.14 103.7 432.89C103.7 432.89 103.68 432.89 103.66 432.89C103.64 432.86 103.64 432.85 103.63 432.85C103.61 432.75 103.52 432.62 103.29 432.62C103.29 432.62 103.27 432.62 103.27 432.62C102.35 432.66 101.42 432.82 100.53 433.07C100.52 433.08 100.51 433.08 100.48 433.1C100.37 432.96 100.31 432.88 100.3 432.87C100.21 432.75 100.05 432.78 99.98 432.91C99.95 432.96 99.91 433.05 99.95 433.17C99.96 433.17 99.97 433.19 100 433.23C99.95 433.25 99.91 433.26 99.91 433.26C98.29 433.81 96.82 434.65 95.52 435.77C95.52 435.77 95.5 435.78 95.47 435.79C95.45 435.78 95.43 435.77 95.43 435.77C95.38 435.77 95.36 435.77 95.34 435.77C95.27 435.77 95.2 435.82 95.15 435.86ZM101.17 460.53C101.12 460.53 101.1 460.5 101.05 460.5C101.04 460.5 101.01 460.49 100.94 460.48C100.92 460.47 100.92 460.46 100.91 460.46C100.89 460.41 100.87 460.39 100.82 460.37C99.13 458.99 98.35 456.73 98.47 453.46C98.56 450.65 99.27 447.93 100.53 445.62C102.03 442.83 104.48 441.46 106.86 440.27C108.66 439.38 111.04 438.33 113.44 438.33C114.29 438.33 115.09 438.47 115.86 438.72C115.86 438.72 115.87 438.72 115.89 438.72C115.9 438.73 115.91 438.74 115.91 438.74C116.43 439.38 116.87 440.11 117.23 440.87C118.26 443.02 118.7 445.69 118.51 448.82C118.33 452.23 117.35 454.95 115.63 456.96C113.42 459.5 109.74 460.91 105.28 460.91C103.91 460.91 102.54 460.78 101.17 460.53ZM101.07 460.37C101.1 460.37 101.14 460.39 101.17 460.39C102.54 460.64 103.91 460.78 105.26 460.78C109.69 460.78 113.33 459.38 115.5 456.85C117.19 454.88 118.15 452.16 118.33 448.8C118.51 445.71 118.08 443.06 117.07 440.94C116.71 440.18 116.27 439.5 115.77 438.86C115.04 438.61 114.24 438.49 113.42 438.49C111.06 438.49 108.71 439.52 106.9 440.41C104.02 441.85 101.97 443.22 100.64 445.71C99.41 448 98.7 450.67 98.61 453.49C98.49 456.75 99.22 458.9 100.91 460.27C100.96 460.27 101.01 460.32 101.03 460.37C101.04 460.37 101.07 460.37 101.07 460.37ZM99.04 459.93C97.46 459.31 96.07 458.35 94.95 457.07C94.93 457.06 94.86 456.96 94.72 456.8C94.91 456.88 95.02 456.93 95.04 456.94C96.32 457.51 97.55 458.26 98.72 459.15C98.72 459.16 98.74 459.17 98.74 459.18C98.86 459.41 98.99 459.61 99.15 459.82C99.16 459.83 99.21 459.9 99.29 460.02C99.14 459.97 99.06 459.94 99.04 459.93ZM98.86 459.7C98.77 459.57 98.67 459.43 98.61 459.29C97.58 458.49 96.46 457.81 95.31 457.26C96.32 458.31 97.51 459.13 98.86 459.7ZM98.1 458.17C96.98 457.42 95.77 456.75 94.49 456.23C94.45 456.21 94.38 456.21 94.33 456.23C94.33 456.23 94.3 456.24 94.26 456.25C94.24 456.22 94.22 456.21 94.22 456.21C93.67 455.45 93.19 454.61 92.8 453.71C92.79 453.7 92.76 453.63 92.71 453.51C92.83 453.58 92.9 453.62 92.91 453.62C94.65 454.65 96.32 455.79 97.85 457.05C97.85 457.05 97.86 457.06 97.87 457.07C97.87 457.09 97.87 457.1 97.87 457.1C97.97 457.44 98.06 457.76 98.17 458.08C98.18 458.1 98.23 458.17 98.31 458.31C98.19 458.23 98.12 458.18 98.1 458.17ZM94.56 456.09C95.77 456.59 96.94 457.19 98.01 457.92C97.92 457.67 97.85 457.42 97.78 457.14C96.32 455.95 94.72 454.86 93.07 453.87C93.42 454.67 93.85 455.41 94.33 456.07C94.35 456.07 94.38 456.07 94.42 456.07C94.47 456.07 94.51 456.07 94.56 456.09ZM97.6 456.27C96 455.04 94.33 453.9 92.59 452.91C92.57 452.91 92.55 452.89 92.53 452.89C92.52 452.89 92.51 452.89 92.48 452.89C92.47 452.86 92.46 452.85 92.46 452.85C92.21 452.09 92 451.29 91.84 450.49C91.84 450.48 91.83 450.44 91.82 450.35C91.9 450.4 91.95 450.42 91.95 450.42C93.62 451.18 95.22 452.11 96.66 453.23C96.8 453.35 97.01 453.26 97.07 453.12C97.1 453.05 97.07 452.98 97.01 452.94C95.41 451.7 93.67 450.65 91.79 449.87C91.79 449.87 91.78 449.87 91.75 449.85C91.75 449.82 91.75 449.81 91.75 449.81C91.66 449.03 91.61 448.25 91.61 447.5C91.61 447.31 91.61 447.13 91.63 446.97C91.63 446.96 91.63 446.92 91.63 446.83C94.91 449.29 96.73 450.65 97.1 450.93C97.21 451.02 97.35 450.95 97.39 450.81C97.42 450.77 97.44 450.63 97.3 450.54C96.92 450.26 95.04 448.85 91.63 446.31C91.63 446.28 91.63 446.27 91.63 446.26C91.7 445.39 91.82 444.53 91.98 443.7C91.98 443.7 91.99 443.66 92 443.59C92.05 443.63 92.09 443.65 92.09 443.66C94.17 445.3 96.25 447.04 98.22 448.8C98.22 448.8 98.24 448.81 98.26 448.82C98.25 448.85 98.24 448.87 98.24 448.87C97.85 450.29 97.62 451.86 97.53 453.51C97.49 454.47 97.53 455.38 97.65 456.23C97.65 456.24 97.69 456.29 97.76 456.39C97.66 456.32 97.61 456.28 97.6 456.27ZM92.69 452.78C94.38 453.74 96 454.81 97.55 456.02C97.44 455.22 97.42 454.35 97.46 453.46C97.55 451.82 97.78 450.26 98.17 448.85C96.23 447.13 94.22 445.42 92.18 443.79C92.02 444.55 91.93 445.35 91.86 446.17C92.42 446.59 96.9 449.94 97.46 450.35C97.6 450.47 97.67 450.63 97.6 450.81C97.53 451.04 97.26 451.15 97.07 450.99C96.55 450.6 92.36 447.48 91.84 447.09C91.84 447.22 91.84 447.34 91.84 447.47C91.84 448.23 91.89 448.98 91.98 449.74C93.83 450.54 95.59 451.57 97.17 452.8C97.28 452.89 97.33 453.03 97.28 453.17C97.23 453.33 97.05 453.44 96.89 453.44C96.8 453.44 96.71 453.42 96.64 453.35C95.25 452.25 93.71 451.34 92.09 450.61C92.21 451.34 92.39 452.07 92.62 452.75C92.64 452.75 92.66 452.78 92.69 452.78ZM98.38 448.23C96.37 446.45 94.29 444.71 92.21 443.06C92.2 443.06 92.19 443.05 92.16 443.04C92.17 443.01 92.18 443 92.18 442.99C92.37 442.24 92.59 441.55 92.85 440.91C92.85 440.91 92.86 440.88 92.89 440.82C96.64 443.99 98.72 445.75 99.13 446.1C99.15 446.13 99.18 446.13 99.2 446.15C99.2 446.15 99.23 446.16 99.27 446.17C99.25 446.21 99.25 446.24 99.25 446.24C98.97 446.83 98.72 447.5 98.51 448.18C98.51 448.19 98.5 448.23 98.47 448.3C98.41 448.26 98.38 448.23 98.38 448.23ZM98.4 448.02C98.61 447.38 98.83 446.79 99.09 446.24C99.09 446.24 99.06 446.22 99.06 446.22C98.45 445.7 93.59 441.59 92.98 441.07C92.73 441.67 92.53 442.29 92.37 442.97C94.4 444.57 96.43 446.29 98.4 448.02ZM93.1 440.39C93.11 440.36 93.12 440.35 93.12 440.34C93.33 439.91 93.55 439.5 93.78 439.09C93.79 439.08 93.8 439.05 93.83 438.99C97.01 442.05 98.78 443.75 99.13 444.09C99.25 444.21 99.45 444.14 99.52 444C99.54 443.95 99.57 443.86 99.47 443.77C98.95 443.27 94.74 439.23 94.22 438.72C94.19 438.7 94.17 438.7 94.15 438.67C94.14 438.67 94.12 438.66 94.08 438.63C94.11 438.59 94.12 438.56 94.13 438.56C94.38 438.19 94.65 437.83 94.93 437.51C95.13 437.26 95.36 437.03 95.63 436.78C95.64 436.77 95.65 436.76 95.68 436.73C99.05 440.34 100.93 442.34 101.3 442.74C101.33 442.77 101.37 442.79 101.42 442.81C101.43 442.81 101.47 442.82 101.55 442.83C101.5 442.89 101.47 442.92 101.46 442.93C100.87 443.54 100.39 444.21 99.95 444.91C99.82 445.14 99.68 445.39 99.54 445.67C99.54 445.68 99.52 445.71 99.47 445.78L93.1 440.39ZM99.43 445.53C99.57 445.28 99.68 445.05 99.82 444.85C100.23 444.14 100.71 443.52 101.28 442.9C101.26 442.88 101.23 442.86 101.21 442.83C100.66 442.24 96.25 437.51 95.7 436.91C95.47 437.14 95.25 437.37 95.06 437.6C94.81 437.9 94.56 438.22 94.31 438.56C94.31 438.56 94.33 438.58 94.33 438.58C94.86 439.09 99.06 443.13 99.59 443.63C99.7 443.75 99.73 443.89 99.68 444.02C99.61 444.18 99.47 444.27 99.31 444.27C99.22 444.27 99.13 444.23 99.06 444.16C98.55 443.66 94.41 439.7 93.9 439.2C93.67 439.61 93.46 439.98 93.28 440.34C94.51 441.38 98.81 445.01 99.43 445.53ZM101.69 442.54C101.69 442.49 101.67 442.47 101.62 442.42C101.25 442.02 99.38 440.02 96.02 436.41C96.06 436.38 96.09 436.37 96.09 436.37C97.35 435.27 98.88 434.45 100.5 433.97C100.51 433.96 100.52 433.96 100.55 433.94L100.57 433.99C103.34 437.53 104.88 439.49 105.19 439.89C105.21 439.93 105.26 439.95 105.28 439.95C105.29 439.96 105.34 439.97 105.44 440C105.49 439.89 105.53 439.83 105.53 439.82C105.55 439.77 105.6 439.66 105.51 439.54C105.21 439.16 103.71 437.25 101.01 433.81C101.07 433.79 101.11 433.78 101.12 433.78C101.78 433.62 102.45 433.53 103.11 433.49C103.11 433.49 103.13 433.49 103.15 433.49C103.17 433.51 103.18 433.53 103.18 433.53C103.22 433.6 103.27 433.65 103.34 433.69C103.34 433.69 103.35 433.69 103.36 433.69C103.36 433.71 103.36 433.71 103.36 433.71C104.62 435.5 105.97 437.26 107.41 438.95C107.41 438.95 107.43 438.98 107.47 439.02C107.42 439.04 107.39 439.06 107.38 439.06C107.27 439.11 107.15 439.15 107.06 439.22C106.54 439.47 106.08 439.7 105.62 439.93C105.61 439.94 105.56 439.97 105.46 440.02L105.46 440.02C105.37 440.08 105.31 440.11 105.3 440.11C103.86 440.89 102.74 441.69 101.81 442.58C101.8 442.59 101.77 442.62 101.71 442.67C101.7 442.59 101.69 442.55 101.69 442.54ZM101.76 442.33C101.78 442.35 101.81 442.38 101.81 442.4C102.7 441.55 103.77 440.8 105.12 440.05C105.1 440.02 105.1 440.02 105.07 440C104.61 439.41 100.94 434.73 100.48 434.15C98.93 434.61 97.46 435.41 96.25 436.43C97.35 437.61 101.21 441.74 101.76 442.33ZM105.62 439.47C105.69 439.54 105.71 439.63 105.71 439.73C106.1 439.52 106.54 439.31 107.02 439.09C107.09 439.04 107.18 439.02 107.25 438.97C105.83 437.3 104.5 435.57 103.27 433.81C103.27 433.81 103.27 433.81 103.27 433.81C103.2 433.76 103.13 433.71 103.11 433.65C102.49 433.69 101.87 433.78 101.28 433.92C102.15 435.03 105.19 438.92 105.62 439.47ZM107.86 438.79C106.54 437.23 105.26 435.59 104.05 433.9C104.04 433.89 104.01 433.84 103.95 433.76C104.05 433.76 104.1 433.76 104.11 433.76C104.85 433.81 105.55 433.85 106.24 433.94C106.24 433.94 106.25 433.94 106.26 433.94C106.28 433.96 106.28 433.96 106.29 433.97C107.5 435.22 108.55 436.62 109.39 438.13C109.4 438.13 109.41 438.15 109.44 438.19C109.39 438.21 109.35 438.22 109.35 438.22C108.89 438.38 108.43 438.56 107.95 438.77C107.95 438.77 107.94 438.79 107.91 438.83C107.88 438.81 107.87 438.79 107.86 438.79ZM107.95 438.65C108.39 438.47 108.82 438.31 109.23 438.15C108.39 436.69 107.38 435.31 106.19 434.1C105.58 434.03 104.94 433.97 104.27 433.94C105.44 435.57 106.67 437.17 107.95 438.65ZM109.87 438.06C109.12 436.71 108.21 435.43 107.15 434.26C107.15 434.25 107.1 434.2 107.02 434.1C107.14 434.13 107.21 434.15 107.22 434.15C107.98 434.29 108.71 434.45 109.39 434.65C109.4 434.65 109.4 434.65 109.42 434.65C110.61 436.21 111.27 437.08 111.41 437.26C111.47 437.35 111.54 437.35 111.61 437.35C111.61 437.35 111.61 437.35 111.61 437.35C111.7 437.35 111.82 437.3 111.84 437.21C111.86 437.14 111.86 437.1 111.82 437.03C111.71 436.89 111.16 436.17 110.17 434.88C110.32 434.93 110.41 434.97 110.42 434.97C112.09 435.57 113.53 436.41 114.67 437.44C114.69 437.45 114.75 437.5 114.86 437.6C114.71 437.59 114.62 437.58 114.61 437.58C114.24 437.53 113.87 437.51 113.51 437.51C112.41 437.51 111.25 437.71 109.97 438.1C109.96 438.1 109.94 438.1 109.9 438.1C109.88 438.08 109.88 438.06 109.87 438.06ZM109.97 437.92C111.59 437.42 113.01 437.23 114.38 437.37C113.33 436.46 112.05 435.73 110.61 435.18C110.74 435.35 111.82 436.74 111.95 436.91C112.05 437.03 112.05 437.14 112 437.26C111.93 437.39 111.79 437.46 111.63 437.46C111.63 437.46 111.63 437.46 111.63 437.46C111.5 437.46 111.41 437.42 111.31 437.3C111.12 437.05 109.55 435 109.35 434.74C108.71 434.58 108.05 434.42 107.41 434.31C108.39 435.43 109.23 436.64 109.97 437.92Z" id="b3hrvuXL2W"></path><path d="M135.93 436.98C136.07 436.85 136.09 436.64 135.86 436.53C135.77 436.48 135.68 436.46 135.59 436.41C134.03 433.85 132.14 431.52 130.01 429.44C127.31 426.83 124.11 424.55 120.48 423.47C118.83 422.35 117.03 421.49 115.09 420.85C110.31 419.27 105.14 419.29 100.16 419.38C100.07 419.18 99.86 419.06 99.59 419.15C90.51 422.35 81.74 428.32 77.53 437.26C73.03 446.86 75.63 458.42 83.04 465.78C83.91 466.65 84.82 467.43 85.78 468.16C85.81 468.18 85.83 468.23 85.87 468.25C85.94 468.3 86.01 468.37 86.06 468.41C86.1 468.57 86.22 468.69 86.42 468.71C93.37 474.65 101.81 479.15 110.93 479.79C110.95 479.82 110.97 479.82 110.99 479.84C111.11 479.93 111.25 479.91 111.31 479.82C113.03 479.91 114.77 479.89 116.53 479.68C121.81 479.11 126.77 477.03 130.79 473.55C133.28 471.41 135.29 468.78 136.85 465.87C137.03 465.85 137.19 465.62 137.07 465.42C137.74 464.11 138.31 462.79 138.77 461.42C141.35 454.1 140.41 446.01 137.03 439.04C136.69 438.35 136.32 437.67 135.93 436.98ZM131.13 450.67C131.02 450.58 130.88 450.61 130.81 450.7C130.9 450.03 130.97 449.37 131.02 448.71C133.69 450.24 136.18 452.05 138.47 454.15C138.77 454.42 139.18 453.99 138.9 453.71C136.53 451.52 133.9 449.62 131.06 448.05C131.11 447.31 131.13 446.58 131.11 445.85C133.87 447.66 136.55 449.58 139.15 451.63C139.18 451.66 139.22 451.68 139.25 451.68C139.31 453.33 139.2 454.97 138.95 456.59C136.41 454.54 133.81 452.55 131.13 450.67ZM131.11 445.12C131.09 444.53 131.06 443.91 130.99 443.31C133.74 445.12 136.43 447.02 139.02 449.03C139.11 449.65 139.18 450.26 139.22 450.9C136.62 448.85 133.9 446.93 131.11 445.12ZM130.93 442.54C130.86 441.99 130.79 441.44 130.7 440.89C133.26 442.24 135.79 443.7 138.26 445.23C138.51 446.19 138.74 447.18 138.9 448.16C136.32 446.19 133.67 444.3 130.93 442.54ZM130.63 440.16C130.61 440.14 130.58 440.14 130.56 440.14C130.42 439.45 130.29 438.77 130.1 438.1C132.43 439.18 134.72 440.32 136.98 441.51C137.39 442.45 137.74 443.41 138.01 444.37C135.61 442.88 133.14 441.46 130.63 440.16ZM130.01 437.39C129.99 437.37 129.97 437.37 129.92 437.37C129.71 436.62 129.46 435.89 129.19 435.13C131.02 435.47 132.8 435.98 134.54 436.66C135.34 437.92 136.05 439.25 136.64 440.64C134.45 439.5 132.23 438.42 130.01 437.39ZM134.01 435.79C132.37 435.2 130.67 434.74 128.96 434.45C128.69 433.74 128.37 433.05 128.05 432.37C129.9 433.21 131.75 434.1 133.53 435.11C133.53 435.11 133.53 435.11 133.53 435.11C133.69 435.34 133.85 435.57 134.01 435.79ZM127.34 429.76C126.99 429.58 126.7 430.1 127.04 430.29C128.37 431.02 129.74 431.63 131.18 432.11C131.7 432.73 132.23 433.35 132.71 433.97C131.22 433.17 129.71 432.43 128.16 431.77C128 431.7 127.86 431.77 127.77 431.86C127.09 430.54 126.29 429.28 125.39 428.09C125.35 428.05 125.33 428 125.28 427.95C125.94 428.02 126.58 428.11 127.22 428.27C128.32 429.17 129.35 430.13 130.29 431.15C129.28 430.77 128.3 430.29 127.34 429.76ZM124.98 427.34C124.91 427.34 124.85 427.36 124.8 427.38C124.3 426.77 123.75 426.19 123.18 425.65C124.21 426.17 125.19 426.79 126.15 427.47C125.76 427.41 125.37 427.38 124.98 427.34ZM76.62 451.13C74.17 436.37 86.49 425.14 99.18 420.43C99.22 420.46 99.27 420.46 99.34 420.46C105.26 420.34 111.45 420.27 116.98 422.7C117.65 422.99 118.29 423.31 118.88 423.68C118.81 423.91 118.93 424.18 119.22 424.25C119.54 424.32 119.84 424.41 120.14 424.48C123.06 426.56 125.37 429.44 127.02 432.66C129.3 437.14 130.35 442.42 130.1 447.61C129.87 447.66 129.74 448.02 130.01 448.16C130.03 448.18 130.06 448.18 130.08 448.21C129.81 452.3 128.73 456.34 126.79 459.84C126.49 459.68 126.13 460.07 126.42 460.3C126.45 460.32 126.47 460.34 126.49 460.34C126.1 461.01 125.67 461.67 125.21 462.31C125.17 462.33 125.14 462.38 125.12 462.42C120.25 468.98 112.16 472.75 104.05 473.01C103.91 472.87 103.77 472.71 103.63 472.57C103.36 472.27 102.95 472.71 103.2 473.01C103.2 473.01 103.22 473.03 103.22 473.03C101.74 473.03 100.23 472.91 98.77 472.69C93.39 471.77 88.27 469.28 84.25 465.55C80.16 461.76 77.53 456.62 76.62 451.13ZM96.09 473.1C97.21 474.03 98.31 474.99 99.41 475.95C96.78 474.79 94.24 473.33 91.86 471.68C93.23 472.25 94.65 472.73 96.09 473.1ZM97.37 473.39C98.22 473.58 99.06 473.71 99.93 473.81C101.46 475.22 103.04 476.57 104.71 477.81C103.5 477.49 102.31 477.1 101.12 476.66C99.89 475.57 98.63 474.47 97.37 473.39ZM106.1 478.1C104.3 476.8 102.58 475.41 100.94 473.9C102.01 473.99 103.09 474.01 104.18 473.99C105.83 475.68 107.59 477.26 109.46 478.72C108.34 478.58 107.25 478.4 106.17 478.17C106.15 478.15 106.13 478.13 106.1 478.1ZM105.01 473.97C105.65 473.92 106.26 473.87 106.9 473.81C106.99 473.85 107.11 473.85 107.2 473.76C107.25 473.76 107.27 473.76 107.31 473.74C107.91 474.03 112.18 477.37 114.17 478.9C112.96 478.95 111.77 478.93 110.58 478.83C108.62 477.35 106.74 475.7 105.01 473.97ZM110.45 475.36C109.69 474.79 108.91 474.19 108.16 473.62C109.12 473.46 110.1 473.26 111.04 472.98C111.04 472.98 111.06 472.98 111.06 472.98C113.49 474.65 115.77 476.5 117.87 478.58C116.94 478.72 116 478.81 115.06 478.88C113.53 477.71 111.98 476.53 110.45 475.36ZM118.31 478.15C116.3 476.16 114.13 474.38 111.82 472.75C112.59 472.53 113.37 472.25 114.13 471.93C116.53 473.67 118.67 475.7 120.55 477.99C119.82 478.19 119.09 478.35 118.35 478.49C118.4 478.38 118.4 478.26 118.31 478.15ZM121.03 477.65C119.2 475.38 117.12 473.39 114.79 471.68C115.43 471.41 116.05 471.11 116.66 470.79C119.15 472.55 121.46 474.54 123.57 476.75C123.84 477.05 124.25 476.62 124 476.32C121.94 474.15 119.7 472.18 117.28 470.45C118.13 469.99 118.93 469.49 119.7 468.96C122.06 471.18 124.57 473.21 127.2 475.09C127.2 475.09 127.22 475.09 127.22 475.11C127.02 475.25 126.81 475.38 126.61 475.5C124.85 476.5 122.99 477.28 121.1 477.85C121.1 477.78 121.07 477.71 121.03 477.65ZM127.47 474.54C124.91 472.71 122.47 470.72 120.18 468.59C120.78 468.16 121.37 467.73 121.92 467.25C122.13 467.41 122.38 467.52 122.7 467.54C125.12 469.35 127.52 471.2 129.92 473.05C129.19 473.69 128.41 474.26 127.61 474.81C127.61 474.72 127.57 474.63 127.47 474.54ZM122.56 466.7C122.77 466.51 122.95 466.33 123.15 466.15C123.45 465.87 123.73 465.6 123.98 465.33C124.64 466.24 125.55 466.86 126.47 467.52C127.95 468.62 129.46 469.71 130.95 470.81C131.27 471.04 131.57 470.51 131.25 470.29C130.89 470.03 128.08 467.96 127.73 467.7C126.58 466.86 125.21 466.08 124.39 464.87C124.87 464.34 125.33 463.79 125.76 463.22C128.18 465.23 130.61 467.27 133.01 469.28C133.3 469.53 133.74 469.1 133.44 468.85C130.99 466.81 128.55 464.78 126.13 462.72C126.54 462.15 126.9 461.58 127.27 460.98C129.83 463.02 132.3 465.19 134.63 467.45C134.67 467.5 134.7 467.52 134.74 467.52C133.53 469.42 132.07 471.15 130.38 472.66C127.79 470.65 125.19 468.66 122.56 466.7ZM135.09 467.04C132.71 464.71 130.19 462.51 127.59 460.46C127.93 459.84 128.25 459.2 128.55 458.56C131.2 460.64 133.71 462.9 136.07 465.3C135.77 465.9 135.43 466.47 135.09 467.04C135.09 467.04 135.09 467.04 135.09 467.04ZM128.8 457.99C129.07 457.33 129.35 456.64 129.58 455.95C132.14 457.71 134.45 459.82 136.43 462.24C136.69 462.54 137.12 462.1 136.87 461.81C134.81 459.31 132.43 457.17 129.78 455.36C129.92 454.9 130.06 454.42 130.17 453.97C130.19 453.94 130.22 453.94 130.24 453.92C130.81 453.39 133.85 456.25 134.35 456.69C135.66 457.78 136.89 458.97 138.08 460.21C138.1 460.23 138.13 460.25 138.13 460.25C137.67 461.78 137.1 463.29 136.37 464.73C133.99 462.31 131.47 460.07 128.8 457.99ZM131.27 453.49C130.97 453.28 130.65 453.17 130.35 453.19C130.51 452.5 130.63 451.79 130.74 451.09C130.77 451.11 130.79 451.15 130.83 451.18C133.55 453.1 136.23 455.11 138.81 457.21C138.83 457.23 138.83 457.23 138.86 457.23C138.72 458.01 138.54 458.77 138.35 459.54C136.87 458.06 135.31 456.62 133.67 455.29C132.89 454.67 132.07 454.06 131.27 453.49Z" id="a3qlIihWJw"></path><path d="M110.97 479.98C110.97 479.97 110.93 479.96 110.93 479.95C102.7 479.36 94.22 475.52 86.42 468.85C86.24 468.8 86.1 468.69 86.03 468.5C86.03 468.5 85.97 468.44 85.97 468.43C85.92 468.41 85.9 468.37 85.85 468.34C85.83 468.32 85.78 468.27 85.76 468.25C84.78 467.5 83.84 466.7 83.02 465.87C79.38 462.24 76.8 457.46 75.79 452.39C74.74 447.13 75.34 441.9 77.51 437.23C82.56 426.45 93.53 421.23 99.59 419.09C99.84 418.99 100.09 419.09 100.23 419.31C101.14 419.29 102.15 419.29 103.13 419.29C106.81 419.29 111.09 419.47 115.13 420.8C117.07 421.44 118.88 422.33 120.53 423.43C123.75 424.39 126.95 426.38 130.06 429.39C132.25 431.52 134.13 433.85 135.63 436.34C135.64 436.35 135.72 436.38 135.73 436.39C135.77 436.41 135.84 436.43 135.89 436.46C136 436.5 136.07 436.59 136.09 436.69C136.11 436.78 136.09 436.89 136.02 436.98C136.41 437.65 136.75 438.33 137.1 438.99C140.69 446.4 141.33 454.4 138.88 461.51C138.42 462.88 137.85 464.21 137.19 465.49C137.23 465.58 137.23 465.69 137.19 465.78C137.14 465.9 137.03 465.97 136.91 466.01C135.31 469.03 133.28 471.59 130.86 473.67C126.88 477.1 121.92 479.22 116.55 479.82C115.43 479.93 114.31 480 113.19 480C113.19 480 113.19 480 113.19 480C112.57 480 111.95 479.98 111.36 479.95C111.31 480.02 111.25 480.05 111.18 480.05C111.11 480.05 111.04 480.02 110.97 479.98ZM99.66 419.25C93.6 421.37 82.7 426.58 77.65 437.33C73.33 446.54 75.59 458.24 83.13 465.78C83.95 466.61 84.89 467.41 85.87 468.16C85.88 468.16 85.89 468.18 85.9 468.18C85.92 468.21 85.94 468.23 85.97 468.25C86.01 468.27 86.03 468.32 86.08 468.34C86.09 468.35 86.12 468.38 86.17 468.43C86.17 468.45 86.17 468.46 86.17 468.46C86.19 468.55 86.29 468.69 86.47 468.71C86.47 468.71 86.48 468.71 86.49 468.71C86.51 468.72 86.51 468.73 86.51 468.73C94.31 475.41 102.77 479.22 110.97 479.82C110.97 479.82 110.98 479.82 110.99 479.82C111.04 479.86 111.06 479.88 111.06 479.89C111.15 479.95 111.25 479.91 111.29 479.89C111.29 479.88 111.3 479.88 111.31 479.86C111.33 479.86 111.34 479.86 111.34 479.86C111.95 479.91 112.57 479.91 113.19 479.91C113.19 479.91 113.19 479.91 113.19 479.91C114.31 479.91 115.43 479.84 116.53 479.73C121.87 479.15 126.79 477.03 130.74 473.62C133.14 471.54 135.18 468.98 136.78 465.97C136.78 465.96 136.79 465.96 136.8 465.94C136.83 465.94 136.84 465.94 136.85 465.94C136.91 465.94 137.01 465.87 137.03 465.81C137.05 465.76 137.07 465.69 137.03 465.6C137.03 465.6 137.02 465.58 137.01 465.55C137.02 465.53 137.03 465.51 137.03 465.51C137.69 464.23 138.26 462.88 138.72 461.51C141.14 454.45 140.5 446.49 136.94 439.11C136.62 438.42 136.25 437.74 135.86 437.07C135.86 437.07 135.85 437.06 135.84 437.03C135.87 437 135.88 436.99 135.89 436.98C135.93 436.91 135.98 436.85 135.95 436.78C135.95 436.73 135.91 436.69 135.84 436.66C135.79 436.64 135.75 436.62 135.68 436.59C135.67 436.59 135.63 436.57 135.54 436.53C135.53 436.51 135.52 436.5 135.52 436.5C134.01 434.01 132.14 431.66 129.94 429.55C126.83 426.56 123.66 424.55 120.46 423.61C120.45 423.61 120.44 423.61 120.43 423.61C118.79 422.49 116.98 421.62 115.06 420.98C111.06 419.66 106.77 419.47 103.11 419.47C102.1 419.47 101.1 419.5 100.16 419.5C100.16 419.5 100.14 419.5 100.11 419.5C100.1 419.47 100.09 419.45 100.09 419.45C100.05 419.29 99.93 419.22 99.79 419.22C99.75 419.22 99.7 419.22 99.66 419.25ZM110.58 478.9C110.58 478.9 110.57 478.9 110.56 478.9C110.55 478.89 110.54 478.88 110.54 478.88C108.57 477.39 106.7 475.75 104.94 474.01C104.93 474 104.89 473.97 104.82 473.9C104.92 473.9 104.97 473.9 104.98 473.9C105.58 473.87 106.22 473.81 106.86 473.74C106.86 473.74 106.87 473.74 106.88 473.74C106.89 473.74 106.9 473.74 106.9 473.74C106.97 473.78 107.04 473.76 107.11 473.71C107.11 473.71 107.12 473.71 107.13 473.69L107.29 473.67C107.31 473.67 107.31 473.67 107.31 473.67C107.84 473.94 111.27 476.57 114.19 478.86C114.2 478.87 114.26 478.91 114.35 478.99C114.23 478.99 114.16 478.99 114.15 478.99C113.81 478.99 113.49 479.02 113.17 479.02C112.3 479.02 111.43 478.97 110.58 478.9ZM113.92 478.83C112.11 477.44 107.91 474.15 107.25 473.81C107.24 473.81 107.18 473.81 107.18 473.81C107.09 473.87 106.95 473.9 106.86 473.85C106.29 473.92 105.71 473.97 105.17 474.01C106.88 475.73 108.71 477.3 110.61 478.74C111.7 478.83 112.8 478.86 113.92 478.83ZM107.98 473.55C108.09 473.54 108.15 473.53 108.16 473.53C109.14 473.37 110.1 473.17 111.04 472.89C111.04 472.89 111.07 472.88 111.11 472.87C111.12 472.88 111.13 472.89 111.13 472.89C113.55 474.56 115.86 476.43 117.94 478.49C117.95 478.5 117.99 478.54 118.06 478.61C117.97 478.62 117.93 478.63 117.92 478.63C116.98 478.79 116.05 478.88 115.11 478.95C115.1 478.95 115.08 478.95 115.04 478.95L107.98 473.55ZM115.09 478.79C115.95 478.74 116.85 478.63 117.71 478.51C115.66 476.5 113.44 474.67 111.06 473.05C110.17 473.3 109.26 473.51 108.34 473.65C109.69 474.67 114.41 478.27 115.09 478.79ZM109.44 478.79C108.34 478.65 107.25 478.47 106.17 478.24C106.17 478.24 106.16 478.24 106.15 478.24C106.13 478.23 106.13 478.22 106.13 478.22C106.1 478.19 106.08 478.17 106.08 478.17C104.3 476.89 102.56 475.47 100.89 473.97C100.88 473.96 100.83 473.9 100.73 473.81C100.87 473.82 100.94 473.83 100.96 473.83C102.03 473.92 103.11 473.94 104.18 473.92C104.18 473.92 104.19 473.92 104.21 473.92C104.22 473.93 104.23 473.94 104.23 473.94C105.85 475.61 107.63 477.19 109.49 478.65C109.5 478.66 109.58 478.72 109.71 478.81C109.55 478.8 109.46 478.79 109.44 478.79ZM109.19 478.61C107.41 477.19 105.71 475.66 104.14 474.06C103.13 474.08 102.13 474.06 101.14 473.99C102.74 475.43 104.43 476.8 106.15 478.03C106.17 478.06 106.19 478.08 106.22 478.1C107.2 478.31 108.18 478.49 109.19 478.61ZM118.29 478.45C118.31 478.4 118.35 478.29 118.24 478.19C116.25 476.23 114.08 474.42 111.77 472.82C111.76 472.82 111.72 472.79 111.63 472.73C111.73 472.7 111.78 472.69 111.79 472.69C112.55 472.46 113.33 472.18 114.08 471.86C114.08 471.86 114.1 471.85 114.13 471.84C114.14 471.85 114.15 471.86 114.15 471.86C116.55 473.58 118.72 475.63 120.57 477.94C120.58 477.95 120.6 477.98 120.64 478.03C120.57 478.05 120.53 478.06 120.53 478.06C119.82 478.24 119.09 478.4 118.33 478.54C118.32 478.54 118.29 478.56 118.22 478.58C118.26 478.5 118.28 478.45 118.29 478.45ZM118.38 478.08C118.47 478.17 118.49 478.26 118.49 478.38C119.15 478.26 119.79 478.1 120.43 477.94C118.61 475.7 116.48 473.69 114.15 472C113.39 472.3 112.69 472.57 112 472.78C114.26 474.38 116.41 476.16 118.38 478.08ZM104.69 477.9C103.47 477.58 102.26 477.19 101.1 476.73C101.09 476.73 101.08 476.71 101.07 476.71C99.91 475.66 98.67 474.61 97.33 473.44C97.31 473.43 97.23 473.37 97.1 473.26C97.28 473.3 97.37 473.32 97.39 473.33C98.24 473.51 99.09 473.65 99.93 473.74C99.93 473.74 99.94 473.74 99.95 473.74C99.97 473.75 99.98 473.76 99.98 473.76C101.49 475.18 103.09 476.5 104.75 477.76C104.77 477.78 104.87 477.85 105.05 477.99C104.83 477.93 104.71 477.9 104.69 477.9ZM104.34 477.65C102.79 476.46 101.3 475.2 99.89 473.9C99.13 473.81 98.38 473.69 97.65 473.55C98.93 474.61 100.07 475.61 101.17 476.59C102.19 476.98 103.27 477.35 104.34 477.65ZM121.01 477.83C121.01 477.76 120.98 477.71 120.96 477.67C119.15 475.43 117.07 473.44 114.74 471.7C114.74 471.7 114.7 471.68 114.63 471.63C114.7 471.61 114.74 471.59 114.74 471.59C115.38 471.31 116 471.02 116.62 470.7C116.62 470.7 116.64 470.69 116.66 470.67C116.69 470.69 116.71 470.7 116.71 470.7C119.2 472.46 121.53 474.47 123.61 476.69C123.73 476.8 123.91 476.75 123.98 476.59C124 476.55 124.02 476.46 123.93 476.34C121.92 474.19 119.66 472.23 117.21 470.49C117.21 470.49 117.17 470.46 117.12 470.42C117.19 470.38 117.23 470.36 117.23 470.35C118.06 469.9 118.88 469.39 119.66 468.87C119.66 468.87 119.68 468.85 119.7 468.82C119.73 468.85 119.75 468.87 119.75 468.87C122.1 471.06 124.62 473.12 127.22 474.99C127.23 475 127.27 475.02 127.34 475.06L127.25 475.13C127.2 475.16 127.18 475.17 127.18 475.18C126.99 475.29 126.81 475.41 126.61 475.52C124.91 476.53 123.09 477.33 121.1 477.9C121.09 477.9 121.06 477.92 121.01 477.94C121.01 477.87 121.01 477.84 121.01 477.83ZM121.07 477.58C121.12 477.62 121.14 477.69 121.14 477.74C121.99 477.49 122.81 477.21 123.59 476.87C123.54 476.85 123.52 476.82 123.47 476.78C121.42 474.58 119.11 472.57 116.64 470.83C116.09 471.15 115.52 471.43 114.93 471.68C117.23 473.39 119.29 475.38 121.07 477.58ZM124.05 476.25C124.16 476.37 124.18 476.5 124.11 476.66C124.96 476.3 125.76 475.86 126.54 475.41C126.72 475.29 126.88 475.2 127.06 475.09C124.48 473.26 121.99 471.22 119.68 469.05C118.95 469.55 118.17 470.01 117.39 470.45C119.79 472.16 122.03 474.13 124.05 476.25ZM99.38 476C96.85 474.88 94.31 473.44 91.82 471.73C91.78 471.7 91.58 471.56 91.22 471.31C91.63 471.48 91.86 471.57 91.91 471.59C93.26 472.16 94.67 472.64 96.14 473.01C96.14 473.01 96.16 473.03 96.16 473.03C97.17 473.87 98.26 474.81 99.47 475.89C99.5 475.91 99.62 476.01 99.84 476.21C99.57 476.08 99.41 476.01 99.38 476ZM98.99 475.68C97.94 474.74 96.98 473.92 96.07 473.17C94.86 472.87 93.65 472.48 92.5 472.02C94.65 473.46 96.82 474.7 98.99 475.68ZM127.54 474.81C127.54 474.77 127.52 474.67 127.45 474.61C124.91 472.8 122.47 470.79 120.16 468.64C120.16 468.64 120.13 468.61 120.09 468.57C120.13 468.54 120.16 468.53 120.16 468.53C120.75 468.09 121.35 467.63 121.9 467.18C121.9 467.17 121.92 467.16 121.94 467.13C121.97 467.16 121.99 467.17 121.99 467.18C122.17 467.34 122.4 467.43 122.72 467.45C122.72 467.45 122.73 467.45 122.74 467.45C122.76 467.47 122.76 467.47 122.77 467.47C125.23 469.33 127.66 471.18 129.99 472.98C129.99 472.99 130.02 473.01 130.06 473.05C130.02 473.09 129.99 473.12 129.99 473.12C129.26 473.74 128.48 474.33 127.68 474.88C127.67 474.88 127.63 474.91 127.54 474.95C127.54 474.87 127.54 474.82 127.54 474.81ZM127.54 474.47C127.61 474.51 127.66 474.58 127.68 474.67C128.41 474.17 129.14 473.62 129.81 473.05C127.5 471.25 125.12 469.42 122.67 467.61C122.38 467.57 122.13 467.5 121.94 467.34C121.42 467.77 120.87 468.21 120.32 468.59C122.61 470.72 125.03 472.71 127.54 474.47ZM98.79 472.75C93.39 471.86 88.21 469.33 84.21 465.62C80.21 461.9 77.49 456.78 76.55 451.15C75.43 444.37 77.37 437.74 82.17 431.98C86.29 427.04 92.3 422.93 99.15 420.37C99.16 420.37 99.16 420.37 99.18 420.37C99.19 420.37 99.2 420.37 99.2 420.37C99.25 420.39 99.29 420.39 99.34 420.39C100.62 420.37 101.76 420.34 102.9 420.34C107.52 420.34 112.43 420.62 117.03 422.63C117.67 422.9 118.29 423.22 118.95 423.61C118.95 423.61 118.97 423.62 118.99 423.63C118.98 423.66 118.97 423.68 118.97 423.68C118.95 423.79 118.95 423.91 119.02 424C119.06 424.09 119.15 424.14 119.27 424.16C119.57 424.23 119.86 424.3 120.21 424.41C120.21 424.41 120.23 424.41 120.23 424.41C123.02 426.38 125.39 429.21 127.13 432.62C129.37 437.03 130.47 442.35 130.24 447.61C130.24 447.62 130.24 447.64 130.24 447.68C130.21 447.69 130.2 447.7 130.19 447.7C130.1 447.73 130.01 447.82 130.01 447.91C130.01 447.95 130.01 448.05 130.13 448.11C130.13 448.12 130.17 448.14 130.24 448.18C130.24 448.21 130.24 448.23 130.24 448.23C129.97 452.46 128.82 456.5 126.93 459.91C126.92 459.91 126.91 459.94 126.88 459.98C126.84 459.96 126.82 459.96 126.81 459.95C126.67 459.89 126.49 459.98 126.45 460.09C126.42 460.16 126.45 460.23 126.51 460.27C126.52 460.28 126.56 460.31 126.63 460.37C126.61 460.41 126.61 460.43 126.61 460.43C126.19 461.14 125.76 461.78 125.33 462.4C125.28 462.45 125.26 462.47 125.26 462.49C120.53 468.89 112.64 472.85 104.11 473.12C104.11 473.12 104.11 473.12 104.09 473.12C104 473.01 103.94 472.95 103.93 472.94C103.84 472.85 103.75 472.75 103.66 472.64C103.54 472.53 103.36 472.57 103.29 472.73C103.27 472.78 103.25 472.87 103.34 472.98C103.34 472.99 103.38 473.04 103.45 473.12L103.2 473.1C101.22 473.02 99.75 472.91 98.79 472.75ZM76.71 451.09C77.62 456.66 80.34 461.78 84.32 465.46C88.3 469.17 93.46 471.68 98.81 472.57C100.21 472.8 101.65 472.91 103.11 472.91C103.06 472.82 103.06 472.71 103.11 472.62C103.18 472.48 103.31 472.37 103.47 472.37C103.57 472.37 103.66 472.41 103.73 472.48C103.82 472.57 103.91 472.66 104 472.78C104.01 472.79 104.1 472.9 104.11 472.91C112.57 472.64 120.41 468.71 125.1 462.38C125.12 462.33 125.14 462.29 125.19 462.26C125.6 461.69 126.01 461.07 126.42 460.39C126.42 460.39 126.4 460.37 126.4 460.37C126.29 460.27 126.24 460.14 126.29 460C126.35 459.82 126.58 459.68 126.79 459.75C128.64 456.39 129.76 452.41 130.03 448.25C130.03 448.25 130.01 448.23 130.01 448.23C129.87 448.16 129.81 448.02 129.83 447.89C129.85 447.75 129.94 447.61 130.08 447.57C130.31 442.35 129.21 437.07 126.99 432.71C125.28 429.33 122.9 426.51 120.14 424.55C119.82 424.46 119.52 424.39 119.22 424.32C119.06 424.3 118.95 424.21 118.88 424.09C118.81 423.98 118.79 423.84 118.81 423.7C118.17 423.34 117.58 423.02 116.96 422.74C112.41 420.75 107.52 420.48 102.9 420.48C101.76 420.48 100.62 420.5 99.34 420.53C99.34 420.53 99.34 420.53 99.34 420.53C99.27 420.5 99.22 420.5 99.18 420.48C86.26 425.3 74.31 436.64 76.71 451.09ZM130.33 472.71C127.79 470.72 125.17 468.71 122.51 466.74C122.51 466.74 122.49 466.72 122.45 466.7C122.49 466.66 122.51 466.63 122.51 466.63C122.72 466.45 122.9 466.26 123.11 466.08C123.36 465.83 123.63 465.58 123.93 465.26C123.94 465.25 123.96 465.23 124 465.19C124.03 465.23 124.04 465.25 124.05 465.26C124.62 466.06 125.44 466.65 126.22 467.22C126.69 467.57 130.52 470.37 130.99 470.72C131.11 470.81 131.25 470.74 131.29 470.61C131.31 470.56 131.34 470.42 131.2 470.33C130.85 470.07 128.03 468.01 127.68 467.75C127.43 467.57 127.18 467.41 126.93 467.22C125.97 466.56 124.98 465.87 124.32 464.91C124.32 464.91 124.31 464.9 124.3 464.87C124.32 464.84 124.34 464.83 124.34 464.82C124.8 464.32 125.26 463.77 125.71 463.18C125.72 463.17 125.73 463.15 125.76 463.11C130.15 466.77 132.59 468.8 133.07 469.21C133.21 469.33 133.42 469.26 133.46 469.1C133.49 469.05 133.49 468.96 133.39 468.89C132.9 468.48 130.44 466.42 126.01 462.72C126.04 462.68 126.05 462.66 126.06 462.65C126.45 462.1 126.83 461.51 127.2 460.91C127.2 460.91 127.22 460.89 127.25 460.85C127.29 460.87 127.31 460.89 127.31 460.89C129.87 462.93 132.34 465.1 134.67 467.38C134.7 467.41 134.72 467.43 134.77 467.43C134.77 467.43 134.8 467.44 134.86 467.45C134.83 467.51 134.81 467.54 134.81 467.54C133.55 469.46 132.07 471.2 130.42 472.69C130.42 472.69 130.4 472.71 130.38 472.75C130.35 472.73 130.33 472.71 130.33 472.71ZM130.38 472.57C131.43 471.61 132.41 470.56 133.3 469.44C133.19 469.46 133.07 469.44 132.98 469.35C132.26 468.75 126.5 463.94 125.78 463.34C125.37 463.89 124.94 464.41 124.5 464.89C125.14 465.81 126.1 466.47 127.02 467.11C127.27 467.29 127.52 467.47 127.77 467.63C128.12 467.89 130.94 469.96 131.29 470.22C131.43 470.33 131.5 470.49 131.43 470.67C131.36 470.9 131.09 471.02 130.9 470.88C130.43 470.53 126.6 467.73 126.13 467.38C125.35 466.81 124.55 466.24 123.95 465.46C123.68 465.76 123.43 466.01 123.18 466.24C123.04 466.38 122.88 466.54 122.7 466.7C125.3 468.64 127.89 470.61 130.38 472.57ZM133.53 468.8C133.6 468.87 133.65 468.94 133.65 469.01C133.99 468.55 134.33 468.07 134.65 467.57C134.63 467.54 134.61 467.54 134.58 467.52C132.27 465.28 129.83 463.11 127.29 461.1C126.97 461.67 126.63 462.19 126.26 462.72C127.72 463.94 132.8 468.19 133.53 468.8ZM135.04 467.09C132.66 464.78 130.15 462.58 127.57 460.5C127.56 460.5 127.55 460.48 127.52 460.46C127.53 460.43 127.54 460.41 127.54 460.41C127.89 459.82 128.21 459.18 128.5 458.51C128.51 458.51 128.52 458.48 128.55 458.42C128.59 458.46 128.61 458.49 128.62 458.49C131.27 460.57 133.78 462.86 136.14 465.26C136.14 465.26 136.16 465.28 136.18 465.3C136.17 465.33 136.16 465.35 136.16 465.35C135.84 465.94 135.5 466.54 135.15 467.09C135.15 467.09 135.14 467.11 135.11 467.15C135.07 467.11 135.04 467.09 135.04 467.09ZM135.09 466.9C135.41 466.4 135.7 465.85 136 465.3C133.69 462.95 131.2 460.71 128.59 458.65C128.3 459.29 128 459.89 127.7 460.43C130.26 462.47 132.75 464.64 135.09 466.9ZM136.32 464.8C133.97 462.4 131.41 460.14 128.78 458.06C128.77 458.05 128.76 458.04 128.73 458.01C128.75 457.98 128.75 457.97 128.75 457.97C129.03 457.33 129.28 456.64 129.53 455.93C129.53 455.93 129.54 455.89 129.55 455.84C129.61 455.87 129.64 455.88 129.65 455.89C132.23 457.65 134.54 459.77 136.53 462.17C136.64 462.31 136.8 462.24 136.87 462.1C136.89 462.06 136.91 461.94 136.85 461.85C134.81 459.41 132.43 457.23 129.76 455.41C129.76 455.4 129.74 455.4 129.71 455.38C129.73 455.36 129.74 455.34 129.74 455.34C129.87 454.93 129.99 454.47 130.13 453.94C130.13 453.94 130.13 453.93 130.13 453.92C130.14 453.91 130.15 453.9 130.15 453.9C130.17 453.87 130.19 453.87 130.22 453.85C130.29 453.81 130.35 453.76 130.47 453.76C131.15 453.76 132.71 455.06 134.13 456.32C134.26 456.46 134.38 456.55 134.45 456.59C135.68 457.62 136.89 458.79 138.17 460.14C138.19 460.16 138.19 460.16 138.22 460.18C138.22 460.18 138.24 460.19 138.26 460.21C138.25 460.23 138.24 460.25 138.24 460.25C137.78 461.81 137.19 463.34 136.46 464.75C136.45 464.76 136.43 464.8 136.39 464.87C136.35 464.83 136.32 464.8 136.32 464.8ZM136.37 464.62C137.05 463.25 137.62 461.78 138.06 460.27C138.06 460.27 138.03 460.25 138.03 460.25C136.75 458.9 135.54 457.76 134.33 456.73C134.26 456.69 134.15 456.57 134.01 456.46C133.23 455.77 131.18 453.92 130.45 453.92C130.38 453.92 130.33 453.94 130.31 453.97C130.29 453.99 130.26 453.99 130.24 454.01C130.1 454.51 129.99 454.93 129.87 455.34C132.53 457.17 134.9 459.31 136.94 461.78C137.03 461.9 137.05 462.06 136.98 462.19C136.91 462.33 136.78 462.42 136.64 462.42C136.57 462.42 136.48 462.4 136.39 462.29C134.42 459.91 132.16 457.83 129.62 456.07C129.39 456.73 129.17 457.35 128.91 457.97C131.52 460 134.03 462.24 136.37 464.62ZM138.26 459.63C136.8 458.1 135.22 456.66 133.6 455.36C132.89 454.79 132.11 454.22 131.2 453.55C130.9 453.35 130.61 453.26 130.35 453.28C130.35 453.28 130.31 453.29 130.24 453.3C130.25 453.23 130.26 453.2 130.26 453.19C130.4 452.53 130.54 451.82 130.65 451.09C130.65 451.07 130.66 451.01 130.67 450.9C130.74 451 130.78 451.05 130.79 451.06C130.81 451.09 130.83 451.11 130.86 451.13C133.58 453.05 136.27 455.09 138.83 457.17C138.86 457.17 138.86 457.19 138.88 457.19C138.88 457.19 138.9 457.2 138.93 457.21C138.93 457.24 138.93 457.25 138.93 457.26C138.79 458.03 138.61 458.81 138.4 459.57C138.4 459.58 138.38 459.63 138.35 459.73C138.3 459.67 138.27 459.64 138.26 459.63ZM131.29 453.42C132.21 454.06 133.01 454.65 133.71 455.22C135.31 456.5 136.85 457.92 138.29 459.41C138.47 458.72 138.63 458.01 138.77 457.3C138.77 457.3 138.77 457.3 138.74 457.3C136.18 455.22 133.51 453.19 130.79 451.27C130.7 451.91 130.56 452.55 130.45 453.12C130.45 453.12 130.45 453.12 130.45 453.12C130.72 453.12 130.99 453.23 131.29 453.42ZM138.93 456.64C136.37 454.56 133.74 452.57 131.11 450.72C131.02 450.65 130.93 450.7 130.88 450.72C130.87 450.73 130.82 450.77 130.72 450.86C130.73 450.73 130.74 450.67 130.74 450.65C130.83 450.01 130.9 449.35 130.95 448.66C130.95 448.66 130.95 448.62 130.95 448.55C131.02 448.59 131.06 448.61 131.06 448.62C133.76 450.15 136.27 451.98 138.54 454.06C138.58 454.1 138.63 454.13 138.7 454.13C138.79 454.13 138.9 454.06 138.93 453.97C138.95 453.92 138.95 453.83 138.88 453.74C136.5 451.54 133.87 449.65 131.06 448.07C131.06 448.07 131.04 448.06 131.02 448.05C131.02 448.02 131.02 448 131.02 448C131.06 447.29 131.09 446.56 131.06 445.81C131.06 445.8 131.06 445.75 131.06 445.67C131.13 445.71 131.17 445.73 131.18 445.74C133.97 447.54 136.66 449.49 139.22 451.52C139.25 451.54 139.27 451.54 139.29 451.57C139.29 451.57 139.31 451.57 139.34 451.59C139.34 451.62 139.34 451.63 139.34 451.63C139.38 453.26 139.29 454.93 139.04 456.57C139.04 456.58 139.03 456.64 139.02 456.73C138.96 456.68 138.93 456.65 138.93 456.64ZM131.18 450.61C133.78 452.43 136.39 454.4 138.9 456.46C139.13 454.88 139.22 453.3 139.18 451.73C139.15 451.7 139.13 451.7 139.11 451.68C136.59 449.69 133.94 447.77 131.2 445.99C131.2 446.67 131.18 447.34 131.15 448C133.97 449.58 136.59 451.47 138.97 453.67C139.09 453.78 139.13 453.92 139.06 454.06C138.99 454.22 138.86 454.31 138.7 454.31C138.61 454.31 138.51 454.26 138.45 454.19C136.23 452.14 133.76 450.33 131.11 448.82C131.06 449.42 130.99 449.99 130.93 450.54C130.93 450.54 130.95 450.54 130.97 450.54C131.04 450.54 131.11 450.56 131.18 450.61ZM139.18 450.95C136.57 448.89 133.83 446.95 131.06 445.17C131.06 445.16 131.05 445.16 131.04 445.14C131.04 445.12 131.04 445.1 131.04 445.1C131.02 444.55 130.99 443.95 130.93 443.29C130.92 443.28 130.92 443.23 130.9 443.13C130.99 443.19 131.03 443.22 131.04 443.22C133.81 445.03 136.5 446.95 139.09 448.94C139.09 448.94 139.09 448.95 139.11 448.96C139.11 448.97 139.11 448.98 139.11 448.98C139.2 449.6 139.25 450.24 139.29 450.88C139.29 450.89 139.3 450.95 139.31 451.06C139.23 450.99 139.19 450.96 139.18 450.95ZM139.13 450.74C139.09 450.17 139.04 449.6 138.97 449.05C136.46 447.11 133.81 445.23 131.11 443.45C131.13 444.05 131.18 444.57 131.18 445.07C133.9 446.83 136.55 448.73 139.13 450.74ZM138.86 448.23C136.27 446.24 133.58 444.37 130.88 442.61C130.88 442.6 130.87 442.6 130.86 442.58C130.86 442.56 130.86 442.54 130.86 442.54C130.81 442.01 130.72 441.49 130.63 440.89C130.63 440.88 130.62 440.83 130.61 440.73C130.69 440.77 130.73 440.8 130.74 440.8C133.33 442.17 135.86 443.63 138.31 445.14C138.31 445.14 138.32 445.15 138.33 445.17C138.33 445.18 138.33 445.19 138.33 445.19C138.58 446.17 138.81 447.15 138.97 448.14C138.97 448.15 138.99 448.22 139.02 448.34C138.92 448.27 138.87 448.24 138.86 448.23ZM138.79 447.98C138.63 447.09 138.42 446.17 138.19 445.28C135.82 443.79 133.33 442.35 130.79 441.03C130.88 441.53 130.95 442.01 130.99 442.49C133.62 444.21 136.25 446.06 138.79 447.98ZM137.99 444.41C135.54 442.9 133.07 441.49 130.61 440.21C130.58 440.21 130.56 440.18 130.56 440.18C130.56 440.18 130.54 440.17 130.51 440.16C130.51 440.13 130.51 440.12 130.51 440.11C130.4 439.45 130.24 438.79 130.06 438.08C130.05 438.07 130.04 438.02 130.01 437.92C130.09 437.96 130.14 437.98 130.15 437.99C132.46 439.06 134.79 440.21 137.05 441.39C137.05 441.4 137.06 441.4 137.07 441.42C137.07 441.43 137.07 441.44 137.07 441.44C137.46 442.38 137.81 443.36 138.08 444.3C138.08 444.31 138.11 444.39 138.15 444.53C138.05 444.46 138 444.42 137.99 444.41ZM130.7 440.09C133.1 441.35 135.52 442.72 137.92 444.21C137.65 443.34 137.35 442.45 136.98 441.58C134.77 440.41 132.53 439.29 130.26 438.24C130.4 438.86 130.54 439.47 130.65 440.07C130.67 440.07 130.67 440.07 130.7 440.09ZM136.62 440.71C134.4 439.57 132.16 438.47 129.99 437.46C129.97 437.46 129.94 437.44 129.92 437.44C129.92 437.44 129.9 437.44 129.87 437.44C129.86 437.41 129.85 437.4 129.85 437.39C129.65 436.66 129.39 435.91 129.12 435.18C129.12 435.17 129.1 435.13 129.07 435.06C129.16 435.08 129.2 435.08 129.21 435.09C131.04 435.43 132.85 435.95 134.58 436.62C134.58 436.62 134.59 436.62 134.61 436.62C134.62 436.63 134.63 436.64 134.63 436.64C135.43 437.92 136.14 439.27 136.73 440.62C136.74 440.63 136.76 440.69 136.8 440.8C136.69 440.75 136.63 440.71 136.62 440.71ZM130.03 437.3C132.16 438.29 134.33 439.34 136.48 440.46C135.91 439.18 135.25 437.92 134.49 436.71C132.82 436.05 131.09 435.54 129.3 435.22C129.58 435.91 129.78 436.59 129.99 437.28C130.01 437.28 130.03 437.3 130.03 437.3ZM133.99 435.89C132.37 435.29 130.65 434.83 128.94 434.56C128.93 434.56 128.92 434.56 128.89 434.56C128.88 434.53 128.87 434.52 128.87 434.51C128.59 433.83 128.3 433.14 127.95 432.43C127.95 432.42 127.92 432.36 127.86 432.25C127.97 432.31 128.03 432.34 128.05 432.34C129.94 433.17 131.79 434.08 133.55 435.06C133.56 435.07 133.6 435.08 133.6 435.09C133.76 435.31 133.92 435.54 134.08 435.77C134.09 435.78 134.13 435.84 134.19 435.95C134.07 435.91 134 435.89 133.99 435.89ZM133.81 435.66C133.69 435.5 133.58 435.34 133.49 435.18C131.77 434.22 129.99 433.33 128.18 432.55C128.48 433.17 128.75 433.78 129.01 434.4C130.65 434.67 132.25 435.11 133.81 435.66ZM132.66 434.03C131.15 433.23 129.65 432.5 128.11 431.84C128 431.79 127.89 431.82 127.82 431.91C127.81 431.91 127.79 431.95 127.75 432C127.72 431.95 127.71 431.91 127.7 431.91C127.02 430.56 126.22 429.3 125.33 428.16C125.3 428.14 125.28 428.11 125.26 428.09C125.25 428.08 125.19 428.01 125.1 427.89C125.21 427.9 125.27 427.91 125.28 427.91C125.94 427.98 126.61 428.07 127.25 428.23C127.25 428.23 127.27 428.25 127.27 428.25C128.32 429.1 129.35 430.06 130.33 431.11C130.35 431.13 130.42 431.21 130.56 431.36C130.37 431.29 130.26 431.25 130.24 431.25C129.23 430.86 128.23 430.38 127.29 429.85C127.13 429.76 126.99 429.9 126.95 430.01C126.93 430.06 126.93 430.17 127.04 430.24C128.34 430.97 129.74 431.59 131.15 432.07C131.16 432.07 131.16 432.07 131.18 432.07C131.19 432.08 131.2 432.09 131.2 432.09C131.73 432.69 132.23 433.33 132.73 433.97C132.75 433.98 132.83 434.06 132.98 434.19C132.79 434.1 132.68 434.04 132.66 434.03ZM128.18 431.7C129.6 432.32 131.02 432.98 132.41 433.74C132 433.21 131.57 432.69 131.11 432.18C129.67 431.7 128.3 431.09 126.99 430.35C126.99 430.35 126.99 430.35 126.97 430.35C127.25 430.81 127.52 431.29 127.77 431.77C127.86 431.7 127.93 431.68 128.02 431.68C128.07 431.68 128.14 431.68 128.18 431.7ZM127.38 429.67C128.23 430.15 129.1 430.56 129.99 430.93C129.07 429.99 128.14 429.12 127.18 428.34C126.61 428.21 126.03 428.11 125.44 428.05C125.92 428.69 126.38 429.35 126.81 430.03C126.81 429.99 126.81 429.97 126.83 429.92C126.88 429.76 127.04 429.62 127.2 429.62C127.27 429.62 127.34 429.65 127.38 429.67ZM126.13 427.54C125.74 427.47 125.35 427.45 124.96 427.41C124.96 427.41 124.94 427.41 124.94 427.41C124.89 427.41 124.85 427.41 124.82 427.43C124.82 427.43 124.8 427.45 124.78 427.47C124.75 427.45 124.73 427.43 124.73 427.43C124.23 426.81 123.68 426.24 123.11 425.71C123.08 425.69 122.96 425.58 122.74 425.37C123.02 425.51 123.17 425.58 123.2 425.6C124.21 426.1 125.19 426.72 126.17 427.43C126.19 427.44 126.28 427.49 126.45 427.59C126.25 427.56 126.15 427.55 126.13 427.54ZM124.98 427.27C125.26 427.29 125.55 427.31 125.85 427.36C125.1 426.83 124.34 426.38 123.59 425.97C124 426.38 124.41 426.83 124.8 427.29C124.85 427.27 124.89 427.27 124.96 427.27C124.96 427.27 124.98 427.27 124.98 427.27Z" id="a16EFbhC43"></path><path d="M98.9 435.04C98.65 434.74 98.22 435.18 98.47 435.47C100 437.23 101.53 438.99 103.09 440.78C103.34 441.05 103.77 440.64 103.52 440.34C101.99 438.58 100.46 436.82 98.9 435.04Z" id="d70CYG85MX"></path><path d="M103.29 440.94C103.22 440.94 103.13 440.91 103.04 440.82C102.58 440.29 98.88 436.05 98.42 435.52C98.33 435.41 98.31 435.25 98.35 435.11C98.42 434.97 98.56 434.86 98.7 434.86C98.77 434.86 98.86 434.88 98.95 434.97C99.41 435.5 103.1 439.74 103.57 440.27C103.66 440.39 103.68 440.55 103.63 440.69C103.57 440.85 103.43 440.94 103.29 440.94C103.29 440.94 103.29 440.94 103.29 440.94ZM98.51 435.18C98.49 435.22 98.47 435.34 98.56 435.43C99.02 435.96 102.69 440.2 103.15 440.73C103.2 440.78 103.25 440.8 103.29 440.8C103.29 440.8 103.29 440.8 103.29 440.8C103.38 440.8 103.45 440.73 103.5 440.64C103.52 440.59 103.54 440.48 103.45 440.39C102.99 439.86 99.3 435.62 98.83 435.09C98.81 435.04 98.77 435.02 98.72 435.02C98.63 435.02 98.56 435.09 98.51 435.18Z" id="d3Z9vCq2kJ"></path></defs><g><g><g><use xlink:href="#dL3xV6kZh" opacity="1" fill="#000000" fill-opacity="1"></use><g><use xlink:href="#dL3xV6kZh" opacity="1" fill-opacity="0" stroke="#000000" stroke-width="1" stroke-opacity="0"></use></g></g><g><use xlink:href="#b3hrvuXL2W" opacity="1" fill="#180f0b" fill-opacity="1"></use><g><use xlink:href="#b3hrvuXL2W" opacity="1" fill-opacity="0" stroke="#000000" stroke-width="1" stroke-opacity="0"></use></g></g><g><use xlink:href="#a3qlIihWJw" opacity="1" fill="#000000" fill-opacity="1"></use><g><use xlink:href="#a3qlIihWJw" opacity="1" fill-opacity="0" stroke="#000000" stroke-width="1" stroke-opacity="0"></use></g></g><g><use xlink:href="#a16EFbhC43" opacity="1" fill="#180f0b" fill-opacity="1"></use><g><use xlink:href="#a16EFbhC43" opacity="1" fill-opacity="0" stroke="#000000" stroke-width="1" stroke-opacity="0"></use></g></g><g><use xlink:href="#d70CYG85MX" opacity="1" fill="#000000" fill-opacity="1"></use><g><use xlink:href="#d70CYG85MX" opacity="1" fill-opacity="0" stroke="#000000" stroke-width="1" stroke-opacity="0"></use></g></g><g><use xlink:href="#d3Z9vCq2kJ" opacity="1" fill="#180f0b" fill-opacity="1"></use><g><use xlink:href="#d3Z9vCq2kJ" opacity="1" fill-opacity="0" stroke="#000000" stroke-width="1" stroke-opacity="0"></use></g></g></g></g></svg>