<?xml version="1.0" ?><svg id="图层_1" style="enable-background:new -239 241 32 32;" version="1.1" viewBox="-239 241 32 32" xml:space="preserve" xmlns="http://www.w3.org/2000/svg" xmlns:xlink="http://www.w3.org/1999/xlink"><style type="text/css">
	.st0{fill:#F42F42;}
	.st1{opacity:0.2038;fill:#332E0A;enable-background:new    ;}
	.st2{fill:none;stroke:#0A2933;stroke-linejoin:round;}
	.st3{fill:none;stroke:#FFFFFF;stroke-linecap:round;stroke-linejoin:round;stroke-dasharray:1,2,6,2,3;}
</style><path class="st0" d="M-227.8,249.5v0.5c0.8-1,1.7-1.8,2.6-2.3c0.9-0.5,1.9-0.7,3.1-0.7c1.4,0,2.6,0.4,3.8,1.1s2.1,1.7,2.7,3.1  c0.7,1.4,1,3,1,4.8c0,1.4-0.2,2.6-0.6,3.8c-0.4,1.1-0.9,2.1-1.6,2.9c-0.7,0.8-1.5,1.4-2.4,1.8c-0.9,0.4-1.9,0.6-3,0.6  c-1.3,0-2.3-0.3-3.2-0.8s-1.7-1.3-2.5-2.2v6.7c0,2-0.7,2.9-2.1,2.9c-0.8,0-1.4-0.3-1.7-0.8c-0.3-0.5-0.4-1.2-0.4-2.2v-19.2  c0-0.8,0.2-1.5,0.6-1.9s0.9-0.6,1.5-0.6c0.6,0,1.1,0.2,1.5,0.6C-228,248.1-227.8,248.7-227.8,249.5z M-219.1,256  c0-1.2-0.2-2.2-0.5-3c-0.4-0.8-0.9-1.5-1.5-1.9c-0.6-0.5-1.3-0.7-2.1-0.7c-1.2,0-2.3,0.5-3.1,1.4c-0.8,1-1.3,2.4-1.3,4.3  c0,1.8,0.4,3.1,1.3,4.1c0.8,1,1.9,1.5,3.1,1.5c0.7,0,1.4-0.2,2.1-0.6s1.1-1.1,1.5-1.9C-219.3,258.2-219.1,257.2-219.1,256z"/><path class="st1" d="M-214.7,255.2c0,0.3,0,0.6,0,0.8c0,1.4-0.2,2.6-0.6,3.8c-0.4,1.1-0.9,2.1-1.6,2.9  c-0.7,0.8-1.5,1.4-2.4,1.8c-0.9,0.4-1.9,0.6-3,0.6c-1.3,0-2.3-0.3-3.2-0.8s-1.7-1.3-2.5-2.2v-1.7c0.8,1,1.6,1.7,2.5,2.2  s1.9,0.8,3.2,0.8c1.1,0,2-0.2,3-0.6c0.9-0.4,1.7-1,2.4-1.8c0.7-0.8,1.2-1.7,1.6-2.9C-214.9,257.2-214.7,256.2-214.7,255.2z   M-227.8,267.1v1.7c0,2-0.7,2.9-2.1,2.9c-0.8,0-1.4-0.3-1.7-0.8c-0.3-0.5-0.4-1.2-0.4-2.2V267c0,1,0.1,1.7,0.4,2.2  c0.3,0.5,0.8,0.8,1.7,0.8C-228.5,270-227.8,269-227.8,267.1z" id="Combined-Shape"/><path class="st2" d="M-227.8,249.5v0.5c0.8-1,1.7-1.8,2.6-2.3c0.9-0.5,1.9-0.7,3.1-0.7c1.4,0,2.6,0.4,3.8,1.1s2.1,1.7,2.7,3.1  c0.7,1.4,1,3,1,4.8c0,1.4-0.2,2.6-0.6,3.8c-0.4,1.1-0.9,2.1-1.6,2.9c-0.7,0.8-1.5,1.4-2.4,1.8c-0.9,0.4-1.9,0.6-3,0.6  c-1.3,0-2.3-0.3-3.2-0.8s-1.7-1.3-2.5-2.2v6.7c0,2-0.7,2.9-2.1,2.9c-0.8,0-1.4-0.3-1.7-0.8c-0.3-0.5-0.4-1.2-0.4-2.2v-19.2  c0-0.8,0.2-1.5,0.6-1.9s0.9-0.6,1.5-0.6c0.6,0,1.1,0.2,1.5,0.6C-228,248.1-227.8,248.7-227.8,249.5z M-219.1,256  c0-1.2-0.2-2.2-0.5-3c-0.4-0.8-0.9-1.5-1.5-1.9c-0.6-0.5-1.3-0.7-2.1-0.7c-1.2,0-2.3,0.5-3.1,1.4c-0.8,1-1.3,2.4-1.3,4.3  c0,1.8,0.4,3.1,1.3,4.1c0.8,1,1.9,1.5,3.1,1.5c0.7,0,1.4-0.2,2.1-0.6s1.1-1.1,1.5-1.9C-219.3,258.2-219.1,257.2-219.1,256z"/><path class="st3" d="M-226.2,250.3c1.1-1.7,2.8-2.2,5-1.7" id="Path-18"/></svg>