<?xml version="1.0" ?><svg id="图层_1" style="enable-background:new -239 241 32 32;" version="1.1" viewBox="-239 241 32 32" xml:space="preserve" xmlns="http://www.w3.org/2000/svg" xmlns:xlink="http://www.w3.org/1999/xlink"><style type="text/css">
	.st0{fill:#F42F42;}
	.st1{opacity:0.2038;fill:#332E0A;enable-background:new    ;}
	.st2{fill:none;stroke:#0A2933;stroke-linejoin:round;}
	.st3{fill:none;stroke:#FFFFFF;stroke-linecap:round;stroke-linejoin:round;stroke-dasharray:1,2,6,2,3;}
</style><path class="letter-fill" d="M-218.9,268.5v-6.2c-0.9,0.9-1.7,1.5-2.7,1.9s-1.9,0.7-3.1,0.7c-1.4,0-2.6-0.4-3.7-1.1c-1.1-0.7-2-1.8-2.6-3.1  c-0.6-1.4-1-2.9-1-4.8c0-1.9,0.3-3.5,1-4.8c0.6-1.3,1.5-2.4,2.7-3.1s2.4-1,3.8-1c1.2,0,2.2,0.2,3.2,0.7c0.9,0.5,1.7,1.2,2.4,2.2  v-0.5c0-0.8,0.2-1.4,0.6-1.8c0.4-0.4,0.9-0.6,1.5-0.6s1.1,0.2,1.5,0.6c0.4,0.4,0.6,1,0.6,1.8v19c0,2-0.7,2.9-2.1,2.9  c-0.9,0-1.4-0.3-1.7-0.8C-218.8,270.1-218.9,269.4-218.9,268.5z M-227.6,255.9c0,1.2,0.2,2.2,0.6,3.1c0.4,0.9,0.9,1.5,1.5,1.9  c0.6,0.4,1.3,0.6,2,0.6c0.8,0,1.5-0.2,2.2-0.6c0.7-0.4,1.2-1,1.6-1.9s0.6-1.9,0.6-3.1c0-0.9-0.1-1.7-0.3-2.4  c-0.2-0.7-0.5-1.3-0.9-1.8c-0.4-0.5-0.9-0.8-1.4-1c-0.5-0.2-1.1-0.3-1.6-0.3c-1.2,0-2.2,0.5-3,1.5  C-227.2,252.7-227.6,254.1-227.6,255.9z"/><path class="st1" d="M-218.9,266.6c0,0.9,0.1,1.6,0.4,2.1c0.3,0.5,0.8,0.8,1.7,0.8c1.4,0,2.1-1,2.1-2.9v1.9  c0,2-0.7,2.9-2.1,2.9c-0.9,0-1.4-0.3-1.7-0.8c-0.3-0.5-0.4-1.2-0.4-2.1V266.6z M-218.9,262.3c-0.9,0.9-1.7,1.5-2.7,1.9  s-1.9,0.7-3.1,0.7c-1.4,0-2.6-0.4-3.7-1.1c-1.1-0.7-2-1.8-2.6-3.1c-0.6-1.4-1-2.9-1-4.8c0-0.3,0-0.7,0-1c0.1,1.4,0.4,2.7,0.9,3.8  c0.6,1.4,1.5,2.4,2.6,3.1s2.4,1.1,3.7,1.1c1.1,0,2.1-0.2,3.1-0.7s1.8-1.1,2.7-1.9V262.3z" id="Combined-Shape"/><path class="letter-border" d="M-218.9,268.5v-6.2c-0.9,0.9-1.7,1.5-2.7,1.9s-1.9,0.7-3.1,0.7c-1.4,0-2.6-0.4-3.7-1.1c-1.1-0.7-2-1.8-2.6-3.1  c-0.6-1.4-1-2.9-1-4.8c0-1.9,0.3-3.5,1-4.8c0.6-1.3,1.5-2.4,2.7-3.1s2.4-1,3.8-1c1.2,0,2.2,0.2,3.2,0.7c0.9,0.5,1.7,1.2,2.4,2.2  v-0.5c0-0.8,0.2-1.4,0.6-1.8c0.4-0.4,0.9-0.6,1.5-0.6s1.1,0.2,1.5,0.6c0.4,0.4,0.6,1,0.6,1.8v19c0,2-0.7,2.9-2.1,2.9  c-0.9,0-1.4-0.3-1.7-0.8C-218.8,270.1-218.9,269.4-218.9,268.5z M-227.6,255.9c0,1.2,0.2,2.2,0.6,3.1c0.4,0.9,0.9,1.5,1.5,1.9  c0.6,0.4,1.3,0.6,2,0.6c0.8,0,1.5-0.2,2.2-0.6c0.7-0.4,1.2-1,1.6-1.9s0.6-1.9,0.6-3.1c0-0.9-0.1-1.7-0.3-2.4  c-0.2-0.7-0.5-1.3-0.9-1.8c-0.4-0.5-0.9-0.8-1.4-1c-0.5-0.2-1.1-0.3-1.6-0.3c-1.2,0-2.2,0.5-3,1.5  C-227.2,252.7-227.6,254.1-227.6,255.9z"/><path class="st3" d="M-227.2,248.9c-1.9,1.3-2.9,2.9-2.9,4.8" id="Path-19"/></svg>