<?xml version="1.0" ?><svg id="图层_1" style="enable-background:new -239 241 32 32;" version="1.1" viewBox="-239 241 32 32" xml:space="preserve" xmlns="http://www.w3.org/2000/svg" xmlns:xlink="http://www.w3.org/1999/xlink"><style type="text/css">
	.st0{fill:#F42F42;}
	.st1{opacity:0.2038;fill:#332E0A;enable-background:new    ;}
	.st2{fill:none;stroke:#0A2933;stroke-linejoin:round;}
	.st3{fill:none;stroke:#FFFFFF;stroke-linecap:round;stroke-linejoin:round;stroke-dasharray:1,2,6,2,3;}
</style><path class="st0" d="M-225.3,259.4v4c0,1-0.2,1.7-0.7,2.2c-0.5,0.5-1,0.7-1.7,0.7c-0.7,0-1.2-0.2-1.7-0.7c-0.4-0.5-0.7-1.2-0.7-2.2  v-13.2c0-2.1,0.8-3.2,2.3-3.2c0.8,0,1.4,0.2,1.7,0.7c0.3,0.5,0.5,1.2,0.6,2.2c0.6-1,1.1-1.7,1.7-2.2c0.6-0.5,1.4-0.7,2.4-0.7  c1,0,2,0.2,2.9,0.7c0.9,0.5,1.4,1.2,1.4,2c0,0.6-0.2,1.1-0.6,1.4s-0.8,0.6-1.3,0.6c-0.2,0-0.6-0.1-1.3-0.3c-0.7-0.2-1.3-0.3-1.8-0.3  c-0.7,0-1.3,0.2-1.7,0.5c-0.4,0.4-0.8,0.9-1,1.6s-0.4,1.6-0.5,2.6C-225.2,256.8-225.3,258-225.3,259.4z"/><path class="st1" d="M-217.1,249c0.1,0.2,0.1,0.5,0.1,0.7c0,0.6-0.2,1.1-0.6,1.4s-0.8,0.6-1.3,0.6  c-0.2,0-0.6-0.1-1.3-0.3c-0.7-0.2-1.3-0.3-1.8-0.3c-0.7,0-1.3,0.2-1.7,0.5c-0.4,0.4-0.8,0.9-1,1.6c-0.2,0.5-0.3,1-0.4,1.6  c-0.1-0.2-0.1-0.3-0.1-0.5c0.1-1,0.3-1.8,0.5-2.6c0.2-0.7,0.6-1.3,1-1.6c0.4-0.4,1-0.5,1.7-0.5c0.5,0,1.1,0.1,1.8,0.3  c0.7,0.2,1.1,0.3,1.3,0.3c0.5,0,0.9-0.2,1.3-0.6C-217.4,249.5-217.2,249.3-217.1,249z M-225.3,263.7c0,0.8-0.3,1.4-0.7,1.8  c-0.5,0.5-1,0.7-1.7,0.7c-0.7,0-1.2-0.2-1.7-0.7c-0.4-0.5-0.7-1.2-0.7-2.2v-1.5c0,0.9,0.2,1.7,0.7,2.2c0.4,0.5,1,0.7,1.7,0.7  c0.7,0,1.3-0.2,1.7-0.7C-225.8,264-225.6,263.8-225.3,263.7z" id="Combined-Shape"/><path class="st2" d="M-225.3,259.4v4c0,1-0.2,1.7-0.7,2.2c-0.5,0.5-1,0.7-1.7,0.7c-0.7,0-1.2-0.2-1.7-0.7c-0.4-0.5-0.7-1.2-0.7-2.2  v-13.2c0-2.1,0.8-3.2,2.3-3.2c0.8,0,1.4,0.2,1.7,0.7c0.3,0.5,0.5,1.2,0.6,2.2c0.6-1,1.1-1.7,1.7-2.2c0.6-0.5,1.4-0.7,2.4-0.7  c1,0,2,0.2,2.9,0.7c0.9,0.5,1.4,1.2,1.4,2c0,0.6-0.2,1.1-0.6,1.4s-0.8,0.6-1.3,0.6c-0.2,0-0.6-0.1-1.3-0.3c-0.7-0.2-1.3-0.3-1.8-0.3  c-0.7,0-1.3,0.2-1.7,0.5c-0.4,0.4-0.8,0.9-1,1.6s-0.4,1.6-0.5,2.6C-225.2,256.8-225.3,258-225.3,259.4z"/><path class="st3" d="M-223.3,249.1c1-0.9,2.2-1.1,3.7-0.6" id="Path-20"/></svg>