<?xml version="1.0" encoding="UTF-8" standalone="no"?>
<!DOCTYPE svg PUBLIC "-//W3C//DTD SVG 1.1//EN" "http://www.w3.org/Graphics/SVG/1.1/DTD/svg11.dtd">
<svg version="1.1" xmlns="http://www.w3.org/2000/svg" xmlns:xlink="http://www.w3.org/1999/xlink" preserveAspectRatio="xMidYMid meet" viewBox="338.2571428571429 416.866079119449 55.63164975226857 61.48820659483658" width="55.63" height="61.49"><defs><path d="M389.97 469.55C390.29 469.71 390.54 469.21 390.24 469.01C389.99 468.82 389.71 468.66 389.46 468.48C389.13 467.78 386.46 462.21 386.13 461.51C385.49 460.18 384.87 458.88 384.23 457.55C383.98 457.05 383.75 456.55 383.47 456.09C390.97 452.87 393.26 443.84 391.04 436.43C389.01 429.6 383.27 424.07 376.43 422.1C374.01 420.48 371.18 419.47 368.27 418.88C362.63 417.71 356.73 417.76 350.99 417.46C347.15 417.26 343.34 417.07 339.5 416.87C339.25 416.85 339.11 416.98 339.04 417.17C338.88 417.23 338.74 417.37 338.74 417.62C338.31 435.43 338.22 453.23 338.47 471.02C338.29 471.22 338.24 471.61 338.56 471.79C340.3 472.82 342.03 473.85 343.77 474.9C345.21 475.75 346.74 477.05 348.46 477.23C349.07 477.3 349.71 477.23 350.35 477.19C350.47 477.28 350.58 477.35 350.7 477.44C350.93 477.6 351.15 477.37 351.13 477.14C352.11 477.12 353.1 477.12 354.08 477.12C356.18 477.14 358.26 477.3 360.37 477.53C360.59 477.55 360.73 477.46 360.8 477.3C360.87 477.3 360.91 477.3 360.98 477.28C361.12 477.39 361.3 477.44 361.49 477.39C362.06 477.23 362.08 476.43 362.17 475.98C362.24 475.57 362.31 475.13 362.35 474.72C362.4 474.77 362.45 474.79 362.47 474.83C362.77 475.11 363.18 474.67 362.9 474.4C362.74 474.26 362.58 474.13 362.42 473.97C362.54 472.8 362.56 471.61 362.58 470.42C362.58 466.99 362.29 463.54 362.06 460.11C364.18 463.57 366.29 467.02 368.41 470.47C368.69 470.9 368.94 471.31 369.26 471.63C369.21 471.84 369.26 472.05 369.46 472.18C370.01 472.52 374.38 475.21 374.93 475.54C376.5 476.53 377.92 477.71 379.86 477.65C384.09 477.46 388.32 477.51 392.53 477.87C392.55 477.9 392.55 477.94 392.57 477.97C392.69 478.24 393.03 478.24 393.26 478.15C393.27 478.14 393.34 478.11 393.35 478.1C393.42 478.08 393.49 477.99 393.53 477.9C393.71 477.81 393.81 477.55 393.69 477.3C392.46 474.72 391.22 472.14 389.97 469.55ZM383.25 467.27C382.86 466.47 382.47 465.69 382.06 464.89C382.08 464.91 382.1 464.94 382.15 464.96C384.27 466.03 386.35 467.2 388.37 468.48C388.98 469.85 389.65 471.22 390.31 472.59C388.05 470.7 385.69 468.91 383.25 467.27ZM382.42 464.43C382.17 464.3 381.94 464.55 381.97 464.75C381.76 464.32 381.53 463.91 381.3 463.5C381.35 463.43 381.35 463.36 381.33 463.27C381.35 463.34 382.51 463.79 382.65 463.86C383.13 464.11 383.61 464.34 384.09 464.59C385.12 465.12 386.15 465.62 387.18 466.15C387.22 466.24 387.44 466.67 387.84 467.45C385.46 466.05 383.66 465.04 382.42 464.43ZM383.91 459.22C383.38 458.96 379.12 456.82 378.58 456.55C378.24 456.37 377.92 456.89 378.29 457.07C380.3 458.08 382.33 459.11 384.34 460.11C384.75 460.98 385.17 461.83 385.58 462.7C383.86 461.87 382.13 461.03 380.41 460.21C380.07 460.05 379.75 460.55 380.11 460.73C382.08 461.67 384.05 462.63 386.01 463.57C386.09 463.73 386.73 465.07 386.81 465.23C385.3 464.48 383.79 463.73 382.31 462.95C381.99 462.79 381.33 462.58 380.98 462.72C379.5 459.91 377.97 457.14 376.34 454.4C378.47 455.18 380.53 456.07 382.54 457.12C382.7 457.21 382.83 457.14 382.93 457.03C383.2 457.62 383.43 458.24 383.7 458.79C383.77 458.93 383.84 459.09 383.91 459.22ZM375.86 453.69C375.66 453.33 375.43 452.96 375.22 452.62C377.33 453.58 379.45 454.54 381.53 455.59C381.76 455.7 381.94 455.84 382.13 456C382.15 456.21 382.29 456.39 382.49 456.41C382.51 456.43 382.51 456.46 382.54 456.46C380.43 455.41 378.29 454.49 376.07 453.69C375.98 453.67 375.91 453.67 375.86 453.69ZM382.31 454.86C381.23 454.13 379.86 453.67 378.67 453.12C377.49 452.57 376.3 452 375.09 451.45C375.57 451.13 376.02 450.81 376.48 450.45C379.11 451.63 381.62 453.07 384.02 454.7C383.63 454.93 383.22 455.11 382.81 455.27C382.65 455.13 382.49 454.97 382.31 454.86ZM377.03 450.03C377.49 449.65 377.92 449.23 378.35 448.8C381.05 450.19 383.77 451.59 386.47 452.98C385.9 453.51 385.28 453.97 384.62 454.38C382.22 452.71 379.68 451.25 377.03 450.03ZM378.77 448.34C378.99 448.09 379.22 447.82 379.45 447.57C379.47 447.57 379.47 447.59 379.5 447.59C379.75 447.68 379.91 447.43 379.86 447.22C380.05 447.41 380.27 447.54 380.53 447.63C380.89 447.82 381.23 447.98 381.6 448.16C382.19 448.46 382.79 448.73 383.38 449.03C384.71 449.67 386.01 450.29 387.34 450.93C387.68 451.09 388 450.56 387.63 450.4C385.37 449.3 383.09 448.23 380.82 447.13C380.69 447.06 380.39 446.88 380.09 446.77C380.39 446.38 380.64 445.99 380.91 445.58C383.68 446.79 386.4 448.11 389.07 449.55C388.5 450.63 387.77 451.66 386.9 452.55C384.18 451.15 381.49 449.76 378.77 448.34ZM382.99 442.06C382.63 441.92 382.47 442.49 382.83 442.65C385.39 443.66 387.91 444.78 390.38 445.99C390.13 447.02 389.78 448.02 389.35 448.98C386.7 447.54 384 446.24 381.23 445.03C381.46 444.64 381.69 444.23 381.87 443.84C381.97 444 382.06 444.14 382.17 444.3C382.33 444.55 382.67 444.43 382.74 444.23C385.05 445.26 387.31 446.33 389.55 447.5C389.9 447.68 390.22 447.15 389.85 446.97C387.36 445.69 384.82 444.48 382.24 443.36C382.22 443.34 382.17 443.34 382.13 443.34C382.51 442.47 382.86 441.58 383.13 440.66C383.18 440.53 383.2 440.39 383.25 440.25C383.27 440.3 383.31 440.32 383.38 440.34C385.87 441.14 388.27 442.17 390.56 443.43C390.63 443.47 390.7 443.47 390.77 443.45C390.72 444.09 390.63 444.73 390.51 445.37C388.05 444.16 385.55 443.06 382.99 442.06ZM383.54 439.73C383.47 439.7 383.41 439.7 383.36 439.73C383.47 439.15 383.59 438.61 383.63 438.03C385.85 438.65 387.95 439.59 389.9 440.85C390.22 441.05 390.54 440.53 390.19 440.32C388.18 439.02 385.99 438.06 383.68 437.42C383.7 437.01 383.73 436.59 383.73 436.18C385.9 436.91 388.11 437.49 390.35 437.92C390.74 439.52 390.9 441.19 390.81 442.86C388.5 441.58 386.08 440.55 383.54 439.73ZM388.89 433.83C387.25 433.44 385.6 433.03 383.95 432.64C383.57 432.55 383.41 433.14 383.79 433.23C385.6 433.67 387.41 434.1 389.23 434.56C389.46 435.09 389.69 435.63 389.87 436.18C390.01 436.55 390.1 436.91 390.22 437.3C388.02 436.87 385.87 436.3 383.75 435.57C383.7 434.33 383.52 433.12 383.22 431.91C384.87 431.95 386.47 432.23 388.02 432.73C388.11 432.73 388.21 432.71 388.27 432.66C388.5 433.05 388.71 433.44 388.89 433.83ZM383.04 431.29C382.9 430.81 382.74 430.33 382.54 429.85C382.56 429.85 382.61 429.87 382.63 429.87C384.11 429.92 385.53 430.17 386.93 430.67C387.29 431.11 387.59 431.57 387.89 432.05C386.31 431.59 384.69 431.34 383.04 431.29ZM386.26 429.78C385.07 429.44 383.89 429.26 382.63 429.23C382.49 429.23 382.4 429.3 382.35 429.39C382.13 428.87 381.9 428.37 381.62 427.86C382.77 427.91 383.86 428.09 384.98 428.41C385.01 428.41 385.03 428.41 385.03 428.41C385.46 428.85 385.87 429.3 386.26 429.78ZM380.82 426.47C380.69 426.24 380.53 426.03 380.37 425.81C380.98 425.87 381.58 425.94 382.19 425.99C382.88 426.47 383.54 426.99 384.16 427.57C383.22 427.38 382.26 427.27 381.3 427.25C381.14 426.97 380.98 426.72 380.82 426.47ZM380.21 425.19C380.07 425.17 380 425.23 379.95 425.3C379.61 424.87 379.25 424.48 378.86 424.09C379.63 424.43 380.37 424.85 381.07 425.28C380.78 425.26 380.5 425.21 380.21 425.19ZM340.39 471.73C341.21 471.7 342.06 471.7 342.88 471.66C342.86 471.77 342.9 471.89 343.02 471.95C343.61 472.38 348.39 475.78 348.98 476.21C347.27 476.25 345.67 474.86 344.27 474.03C342.97 473.26 341.69 472.5 340.39 471.73ZM343.59 471.63C344.48 471.61 345.37 471.57 346.26 471.52C348.39 473.05 350.51 474.58 352.64 476.11C351.75 476.11 350.86 476.14 349.97 476.18C347.84 474.67 345.71 473.17 343.59 471.63ZM353.49 475.98C351.38 474.47 349.3 472.96 347.2 471.45C348.21 471.38 349.19 471.34 350.17 471.25C352.23 472.98 354.33 474.63 356.53 476.21C355.57 476.16 354.58 476.14 353.6 476.11C353.58 476.07 353.55 476.02 353.49 475.98ZM357.55 476.16C355.31 474.58 353.17 472.91 351.06 471.18C351.84 471.11 352.59 471.04 353.35 470.97C355.34 472.87 357.42 474.7 359.54 476.43C358.93 476.37 358.29 476.32 357.65 476.27C357.62 476.23 357.6 476.21 357.55 476.16ZM356.66 455.13C357.44 455.2 358.22 455.27 358.99 455.34C359.04 455.34 359.09 455.34 359.11 455.34C359.77 456.41 360.41 457.49 361.07 458.54C360.98 458.63 360.94 458.74 360.96 458.88C360.96 458.95 360.96 459.02 360.96 459.06C359.57 457.69 358.13 456.39 356.66 455.13ZM361.12 461.53C359.89 460.53 358.65 459.52 357.42 458.51C356.71 457.94 356 457.37 355.29 456.78C354.88 456.43 354.45 455.89 353.87 455.84C353.81 455.84 353.76 455.86 353.69 455.91C353.67 455.57 353.65 455.2 353.62 454.86C354.31 454.93 354.99 454.97 355.68 455.04C355.7 455.09 355.73 455.13 355.77 455.18C357.6 456.71 359.34 458.31 361.03 459.98C361.05 460.5 361.1 461.01 361.12 461.53ZM353.97 462.03C353.94 461.23 353.92 460.41 353.87 459.61C353.99 459.68 354.15 459.68 354.24 459.57C354.24 459.57 354.26 459.54 354.26 459.54C354.77 459.82 355.31 460.41 355.68 460.71C356.21 461.12 356.71 461.51 357.23 461.92C358.54 462.9 359.89 463.86 361.23 464.78C361.26 464.78 361.26 464.8 361.28 464.8C361.33 465.46 361.35 466.1 361.39 466.77C359.11 465.1 356.75 463.5 354.33 461.97C354.19 461.87 354.06 461.92 353.97 462.03ZM361.49 467.73C361.53 468.53 361.55 469.3 361.55 470.1C360.64 469.19 359.66 468.34 358.65 467.54C358.08 467.09 357.49 466.67 356.89 466.26C356.5 465.99 356.11 465.74 355.73 465.49C355.57 465.39 354.93 465.1 354.65 464.89C354.65 464.8 354.63 464.69 354.56 464.64C354.54 464.62 354.51 464.62 354.51 464.59C354.45 464.53 354.33 464.48 354.22 464.53C354.19 464.53 354.17 464.55 354.15 464.55C354.1 464.57 354.06 464.59 354.01 464.64C354.01 463.93 353.99 463.22 353.97 462.54C354.15 462.7 354.33 462.86 354.49 463.04C354.58 463.13 354.72 463.13 354.81 463.11C357.1 464.46 359.29 465.97 361.49 467.54C361.49 467.61 361.49 467.66 361.49 467.73ZM355.54 459.82C355.09 459.47 354.65 458.93 354.08 458.81C353.99 458.79 353.92 458.81 353.85 458.83C353.83 458.08 353.78 457.35 353.74 456.59C353.74 456.59 353.76 456.59 353.76 456.59C353.77 456.6 353.82 456.61 353.83 456.62C353.99 456.64 354.1 456.57 354.15 456.48C354.17 456.55 354.19 456.62 354.24 456.71C354.45 456.87 354.65 457.03 354.86 457.21C355.15 457.46 355.47 457.71 355.77 457.94C356.39 458.45 356.98 458.93 357.6 459.43C358.79 460.41 360 461.37 361.19 462.35C361.23 462.93 361.26 463.5 361.3 464.05C360.02 463.18 358.79 462.31 357.58 461.39C356.89 460.87 356.21 460.34 355.54 459.82ZM361.17 476.23C361.1 476.23 361.05 476.25 361.01 476.27C358.61 474.35 356.27 472.32 354.06 470.19C354.06 469.49 354.08 468.78 354.08 468.07C356.64 469.87 359.11 471.79 361.44 473.87C361.39 474.03 361.39 474.17 361.37 474.31C361.33 474.65 361.33 475.68 361.17 476.23ZM361.46 473.14C359.11 471.09 356.64 469.14 354.06 467.36C354.06 467.36 354.06 467.36 354.03 467.36C354.03 466.61 354.03 465.85 354.01 465.07C354.24 465.42 354.79 465.6 355.11 465.81C355.91 466.29 356.66 466.81 357.42 467.36C358.88 468.43 360.25 469.65 361.53 470.95C361.55 471.29 361.53 471.63 361.53 472C361.53 472.39 361.51 472.75 361.46 473.14ZM368.64 468.96C365.65 464.09 362.67 459.22 359.68 454.35C359.47 454.01 359.04 454.08 358.83 454.33C356.91 454.17 354.99 453.99 353.1 453.83C352.85 453.81 352.57 454.08 352.59 454.33C352.94 459.5 353.1 464.69 353.03 469.85C352.96 469.9 352.91 469.97 352.87 470.03C348.41 470.47 343.95 470.7 339.47 470.72C339.22 453.12 339.31 435.52 339.75 417.92C346.22 418.26 352.69 418.58 359.15 418.93C364.53 419.2 370.17 419.66 374.95 422.38C374.97 422.4 374.99 422.4 375.02 422.42C374.99 422.63 375.11 422.86 375.38 422.9C375.61 422.97 375.86 423.02 376.09 423.09C380.16 425.92 382.56 430.7 382.74 435.66C382.93 440.23 380.96 444.59 377.85 447.89C377.83 447.89 377.81 447.86 377.78 447.86C377.46 447.7 377.17 448.14 377.42 448.34C377.01 448.73 376.59 449.12 376.16 449.49C376.11 449.53 376.07 449.55 376 449.6C376 449.6 376 449.6 375.98 449.6C375.7 449.49 375.45 449.76 375.52 449.97C374.95 450.4 374.33 450.79 373.71 451.13C373.49 451.27 373.39 451.59 373.53 451.82C377.37 458.03 380.85 464.48 383.93 471.09C381.28 471.13 378.63 471.18 375.98 471.22C374.63 471.25 373.28 471.27 371.95 471.29C371.22 471.31 370.4 471.45 369.85 470.88C369.35 470.35 369.03 469.58 368.64 468.96ZM375.43 474.7C374.15 473.92 372.87 473.12 371.61 472.34C371.86 472.32 372.14 472.3 372.37 472.3C372.56 472.29 374.07 472.26 374.26 472.25C374.26 472.32 374.31 472.37 374.35 472.41C376.14 473.83 377.94 475.25 379.73 476.64C379.18 476.69 378.65 476.64 378.13 476.37C377.19 475.89 376.32 475.25 375.43 474.7ZM380.64 476.64C378.79 475.18 376.94 473.74 375.09 472.27C375.86 472.25 376.66 472.25 377.44 472.23C377.42 472.48 377.74 472.73 377.94 472.5C377.94 472.5 380.85 475.2 382.35 476.59C381.92 476.57 381.46 476.59 381.03 476.62C380.89 476.62 380.78 476.64 380.64 476.64ZM379.91 473.42C379.68 473.21 379.2 472.59 378.7 472.21C379.25 472.21 379.79 472.18 380.37 472.18C381.97 473.6 383.57 475.09 385.1 476.57C384.48 476.55 383.86 476.55 383.25 476.55C382.13 475.5 381.01 474.45 379.91 473.42ZM381.23 472.16C381.81 472.16 382.38 472.14 382.95 472.14C382.97 472.18 382.99 472.23 383.04 472.27C384.71 473.65 386.29 475.09 387.79 476.64C387.18 476.59 386.58 476.57 385.97 476.57C384.41 475.06 382.83 473.6 381.23 472.16ZM383.82 472.09C383.98 472.09 384.14 472.09 384.3 472.09C385.1 472.3 385.76 472.87 386.42 473.33C387.15 473.83 387.86 474.35 388.59 474.86C389.49 475.5 390.35 476.14 391.22 476.78C390.35 476.73 389.51 476.69 388.69 476.64C387.15 475.02 385.53 473.51 383.82 472.09ZM386.9 472.46C386.33 472.07 385.78 471.61 385.14 471.34C385.14 471.29 385.12 471.25 385.1 471.18C384.66 470.24 384.21 469.3 383.75 468.37C386.03 469.94 388.23 471.63 390.33 473.44C390.45 473.53 390.58 473.53 390.7 473.46C391.13 474.35 391.57 475.27 392 476.16C391.25 475.59 390.47 475.02 389.69 474.45C388.78 473.78 387.84 473.12 386.9 472.46Z" id="d1NM1uNaBB"></path><path d="M392.48 478.03C392.48 478.03 392.46 477.99 392.46 477.99C389.85 477.76 387.15 477.65 384.48 477.65C382.97 477.65 381.42 477.69 379.86 477.76C378.24 477.83 377.01 477.03 375.7 476.18C375.43 476 375.15 475.84 374.88 475.66C374.33 475.32 369.96 472.63 369.42 472.3C369.21 472.16 369.1 471.93 369.17 471.7C368.87 471.38 368.62 471.02 368.34 470.54C367.72 469.53 362.77 461.44 362.15 460.43C362.17 460.89 362.22 461.35 362.24 461.81C362.45 464.64 362.65 467.54 362.65 470.42C362.65 471.75 362.61 472.89 362.51 473.94C362.53 473.96 362.64 474.07 362.65 474.08C362.74 474.17 362.86 474.26 362.95 474.35C363.06 474.47 363.11 474.61 363.04 474.74C362.97 474.9 362.83 474.99 362.67 474.99C362.58 474.99 362.49 474.95 362.42 474.9C362.42 474.9 362.4 474.88 362.4 474.88C362.35 475.27 362.29 475.66 362.24 476C362.22 476.07 362.22 476.14 362.22 476.23C362.15 476.69 362.06 477.33 361.51 477.49C361.33 477.53 361.12 477.51 360.96 477.39C360.91 477.39 360.89 477.42 360.85 477.42C360.75 477.58 360.57 477.67 360.37 477.65C358.13 477.39 356.09 477.28 354.1 477.23C353.71 477.23 353.33 477.23 352.91 477.23C352.32 477.23 351.75 477.23 351.2 477.26C351.2 477.35 351.15 477.44 351.09 477.49C350.97 477.62 350.79 477.62 350.65 477.53C350.63 477.52 350.52 477.44 350.33 477.3C350.22 477.32 350.16 477.32 350.15 477.33C349.58 477.37 348.96 477.42 348.46 477.35C347.13 477.21 345.92 476.41 344.75 475.66C344.41 475.43 344.07 475.2 343.75 475.02C343.23 474.71 339.06 472.22 338.54 471.91C338.35 471.79 338.29 471.63 338.26 471.52C338.24 471.36 338.29 471.18 338.4 471.04C338.15 453.33 338.24 435.36 338.67 417.67C338.67 417.44 338.79 417.26 338.99 417.17C339.09 416.98 339.25 416.87 339.47 416.87C339.48 416.87 339.49 416.87 339.52 416.87C346.42 417.23 350.25 417.42 351.02 417.46C352.3 417.53 353.6 417.58 354.88 417.62C359.34 417.78 363.93 417.97 368.32 418.88C371.5 419.54 374.26 420.64 376.5 422.13C383.38 424.09 389.12 429.74 391.13 436.5C393.23 443.57 391.31 452.87 383.61 456.23C383.84 456.62 384.05 457.03 384.25 457.46C384.78 458.57 389.02 467.42 389.55 468.53C389.81 468.69 390.06 468.87 390.33 469.05C390.47 469.14 390.54 469.33 390.49 469.49C390.45 469.65 390.31 469.76 390.17 469.76C390.54 470.52 393.46 476.61 393.83 477.37C393.94 477.62 393.9 477.9 393.67 478.08C393.62 478.19 393.53 478.26 393.44 478.31C393.43 478.31 393.36 478.35 393.35 478.35C393.19 478.31 393.07 478.31 392.96 478.31C392.73 478.31 392.55 478.19 392.48 478.03ZM392.53 477.83C392.53 477.83 392.54 477.83 392.57 477.83C392.6 477.91 392.61 477.96 392.62 477.97C392.69 478.15 392.87 478.17 392.96 478.17C393.05 478.17 393.14 478.15 393.21 478.13C393.22 478.12 393.29 478.08 393.3 478.08C393.37 478.06 393.42 477.99 393.46 477.92C393.47 477.92 393.48 477.9 393.49 477.9C393.62 477.78 393.71 477.58 393.6 477.35C393.35 476.82 392.07 474.17 389.78 469.39C389.91 469.46 389.97 469.5 389.99 469.51C390.1 469.58 390.24 469.49 390.26 469.37C390.29 469.33 390.31 469.19 390.17 469.1C389.92 468.91 389.65 468.75 389.39 468.57C389.39 468.57 389.39 468.56 389.37 468.55L389.37 468.53C386.19 461.87 384.42 458.18 384.07 457.44C383.84 456.98 383.63 456.55 383.38 456.14C383.38 456.13 383.36 456.11 383.34 456.07C383.39 456.04 383.42 456.03 383.43 456.02C391.13 452.73 393.05 443.47 390.95 436.46C388.94 429.74 383.25 424.14 376.41 422.19C376.41 422.19 376.39 422.19 376.39 422.19C374.17 420.71 371.43 419.63 368.25 418.97C363.89 418.06 359.29 417.9 354.83 417.71C353.58 417.67 352.25 417.62 350.97 417.55C349.82 417.49 340.6 417.02 339.45 416.96C339.22 416.96 339.13 417.12 339.11 417.19C339.11 417.19 339.1 417.2 339.09 417.21C339.07 417.23 339.06 417.23 339.06 417.23C338.97 417.28 338.81 417.37 338.81 417.62C338.38 435.34 338.29 453.3 338.54 471.02C338.54 471.02 338.54 471.03 338.54 471.04C338.52 471.05 338.52 471.06 338.51 471.06C338.42 471.18 338.38 471.31 338.4 471.45C338.42 471.57 338.49 471.66 338.61 471.73C339.13 472.04 343.3 474.52 343.82 474.83C344.16 475.04 344.48 475.25 344.85 475.47C345.99 476.23 347.18 477.01 348.48 477.14C348.96 477.19 349.58 477.17 350.15 477.12C350.17 477.12 350.25 477.11 350.4 477.1C350.62 477.26 350.74 477.35 350.77 477.37C350.86 477.44 350.95 477.42 351.02 477.35C351.06 477.3 351.09 477.21 351.09 477.14C351.09 477.14 351.09 477.12 351.09 477.07C351.13 477.07 351.15 477.07 351.15 477.07C351.73 477.05 352.3 477.05 352.94 477.05C353.33 477.05 353.71 477.05 354.13 477.05C356.11 477.07 358.17 477.21 360.41 477.46C360.62 477.49 360.73 477.37 360.78 477.28C360.78 477.28 360.79 477.26 360.8 477.23C360.84 477.23 360.86 477.23 360.87 477.23C360.91 477.23 360.96 477.23 361.01 477.21C361.01 477.21 361.02 477.21 361.05 477.21C361.07 477.23 361.07 477.23 361.07 477.23C361.21 477.33 361.37 477.37 361.51 477.33C361.97 477.21 362.03 476.64 362.1 476.21C362.1 476.14 362.13 476.05 362.13 475.98C362.19 475.59 362.26 475.18 362.31 474.72C362.31 474.71 362.32 474.67 362.33 474.58C362.47 474.71 362.54 474.77 362.56 474.79C362.61 474.83 362.65 474.86 362.72 474.86C362.81 474.86 362.93 474.79 362.95 474.7C362.97 474.65 362.97 474.56 362.88 474.49C362.79 474.4 362.67 474.31 362.58 474.22C362.57 474.2 362.5 474.14 362.38 474.03C362.38 474.01 362.38 473.99 362.38 473.99C362.47 472.94 362.51 471.79 362.51 470.45C362.51 467.59 362.31 464.66 362.1 461.83C362.06 461.26 362.01 460.71 361.99 460.14C361.99 460.12 361.98 460.02 361.97 459.84C365.87 466.22 368.05 469.76 368.48 470.47C368.78 470.95 369.01 471.31 369.33 471.63C369.33 471.64 369.33 471.64 369.35 471.66C369.33 471.68 369.33 471.7 369.33 471.7C369.28 471.89 369.35 472.07 369.51 472.18C370.05 472.52 374.43 475.21 374.97 475.54C375.25 475.7 375.52 475.89 375.79 476.07C377.07 476.91 378.29 477.69 379.86 477.62C381.39 477.53 382.97 477.49 384.48 477.49C387.2 477.49 389.9 477.6 392.53 477.83ZM391.18 476.87C390.38 476.8 389.53 476.75 388.66 476.73C388.66 476.73 388.65 476.73 388.64 476.73C388.63 476.72 388.62 476.71 388.62 476.71C387.11 475.13 385.46 473.6 383.75 472.16C383.74 472.15 383.68 472.11 383.59 472.02L384.27 472C384.27 472 384.27 472 384.27 472C384.94 472.16 385.51 472.59 386.06 472.98C386.17 473.07 386.31 473.17 386.42 473.26C387.06 473.69 387.75 474.19 388.59 474.79C389.37 475.34 390.19 475.95 391.22 476.71C391.24 476.72 391.31 476.78 391.43 476.89C391.28 476.88 391.19 476.87 391.18 476.87ZM390.93 476.69C390.01 476 389.23 475.43 388.5 474.93C387.66 474.31 386.97 473.83 386.33 473.39C386.22 473.3 386.08 473.21 385.97 473.12C385.44 472.73 384.87 472.32 384.25 472.16C384.23 472.16 384.03 472.16 384 472.16C385.67 473.55 387.25 475.04 388.71 476.57C389.46 476.59 390.22 476.64 390.93 476.69ZM378.1 476.43C377.46 476.11 376.87 475.7 376.27 475.34C375.98 475.15 375.7 474.97 375.41 474.79C375.14 474.62 373.8 473.8 371.38 472.32C371.64 472.31 371.79 472.3 371.82 472.3C372.02 472.27 372.21 472.27 372.39 472.27C372.52 472.27 373.17 472.26 374.35 472.23C374.35 472.27 374.35 472.29 374.35 472.3C374.35 472.34 374.38 472.39 374.42 472.41C374.79 472.7 376.64 474.16 379.98 476.78L379.63 476.75C378.9 476.69 378.39 476.59 378.1 476.43ZM375.47 474.65C375.77 474.83 376.05 475.02 376.34 475.2C376.94 475.59 377.53 475.98 378.17 476.3C378.56 476.5 378.97 476.59 379.52 476.59C379 476.19 374.83 472.91 374.31 472.5C374.26 472.46 374.22 472.41 374.19 472.34C374.01 472.35 372.55 472.36 372.37 472.37C372.21 472.39 372.02 472.41 371.86 472.41C372.59 472.86 375.11 474.43 375.47 474.65ZM374.88 472.18L377.55 472.14C377.55 472.19 377.55 472.22 377.55 472.23C377.55 472.3 377.58 472.37 377.62 472.43C377.71 472.53 377.83 472.55 377.92 472.43C377.92 472.44 377.95 472.45 377.99 472.48C378.02 472.45 378.03 472.44 378.03 472.43C378.08 472.48 379.38 473.69 380.64 474.86C380.77 474.98 381.42 475.58 382.58 476.66C382.47 476.66 382.41 476.66 382.4 476.66C381.97 476.66 381.51 476.69 381.07 476.71C380.96 476.71 380.82 476.73 380.71 476.73C380.7 476.73 380.67 476.72 380.62 476.71L374.88 472.18ZM380.69 476.57C380.8 476.57 380.91 476.55 381.03 476.55C381.42 476.53 381.81 476.53 382.17 476.53C381.83 476.21 379.07 473.65 378.72 473.33C378.29 472.91 378.08 472.73 377.97 472.62C377.9 472.69 377.81 472.69 377.76 472.69C377.67 472.69 377.55 472.64 377.49 472.55C377.42 472.48 377.39 472.39 377.37 472.32C377.23 472.32 376.55 472.33 375.31 472.34C378.54 474.88 380.33 476.29 380.69 476.57ZM387.79 476.71C387.11 476.69 386.51 476.66 385.97 476.66C385.96 476.66 385.96 476.66 385.94 476.66C385.93 476.65 385.92 476.64 385.92 476.64C384.41 475.15 382.81 473.67 381.19 472.23C381.18 472.22 381.13 472.17 381.05 472.09L383.02 472.05C383.03 472.07 383.04 472.09 383.04 472.09C383.04 472.14 383.06 472.16 383.11 472.18C384.73 473.51 386.33 474.99 387.86 476.55C387.87 476.56 387.91 476.61 387.98 476.71C387.87 476.71 387.81 476.71 387.79 476.71ZM387.61 476.55C386.13 475.04 384.57 473.62 382.99 472.32C382.95 472.27 382.93 472.25 382.9 472.21C382.76 472.21 381.59 472.23 381.44 472.23C382.99 473.62 384.53 475.06 386.01 476.5C386.49 476.5 387.02 476.53 387.61 476.55ZM379.86 473.49C379.79 473.42 379.68 473.3 379.57 473.17C379.31 472.89 378.99 472.53 378.65 472.25C378.64 472.24 378.59 472.2 378.49 472.11L380.39 472.07C380.4 472.08 380.41 472.09 380.41 472.09C381.99 473.49 383.59 474.97 385.14 476.48C385.15 476.49 385.2 476.53 385.28 476.62C385.17 476.62 385.11 476.62 385.1 476.62C384.48 476.62 383.86 476.62 383.25 476.62C383.24 476.62 383.24 476.63 383.22 476.64C381.21 474.75 380.09 473.7 379.86 473.49ZM379.66 473.07C379.77 473.21 379.86 473.3 379.93 473.37C380.26 473.68 382.91 476.17 383.25 476.48C383.79 476.48 384.32 476.48 384.87 476.48C383.36 475.02 381.83 473.6 380.3 472.25C380.2 472.25 379.73 472.26 378.88 472.27C379.26 472.64 379.52 472.91 379.66 473.07ZM359.54 476.53C358.97 476.48 358.35 476.41 357.62 476.37C357.62 476.37 357.6 476.37 357.58 476.37C357.56 476.34 357.56 476.32 357.55 476.32C357.53 476.3 357.51 476.27 357.49 476.25C355.31 474.72 353.12 473.03 350.99 471.25C350.99 471.24 350.94 471.2 350.86 471.13C350.97 471.12 351.03 471.11 351.04 471.11C351.91 471.04 352.64 470.97 353.33 470.9C353.33 470.9 353.34 470.9 353.37 470.9C353.39 470.92 353.39 470.92 353.39 470.93C355.38 472.82 357.46 474.65 359.59 476.39C359.6 476.4 359.67 476.45 359.79 476.55C359.64 476.53 359.56 476.53 359.54 476.53ZM359.31 476.34C357.28 474.67 355.27 472.89 353.33 471.06C352.69 471.13 352.02 471.18 351.25 471.25C353.33 472.98 355.45 474.63 357.58 476.11C357.62 476.14 357.67 476.18 357.69 476.21C358.31 476.25 358.83 476.3 359.31 476.34ZM391.98 476.23C391.2 475.66 390.42 475.09 389.65 474.51C388.82 473.92 387.91 473.26 386.86 472.53C386.74 472.46 386.63 472.37 386.51 472.27C386.08 471.95 385.6 471.63 385.12 471.41C385.12 471.4 385.1 471.4 385.07 471.38C385.07 471.36 385.07 471.34 385.07 471.34C385.07 471.29 385.05 471.25 385.03 471.2C384.64 470.35 384.21 469.42 383.68 468.39C383.67 468.37 383.63 468.29 383.57 468.14C383.7 468.23 383.78 468.29 383.79 468.3C386.08 469.87 388.3 471.59 390.4 473.37C390.49 473.44 390.58 473.44 390.67 473.39C390.68 473.39 390.7 473.38 390.74 473.35L392.23 476.41C392.08 476.3 391.99 476.24 391.98 476.23ZM386.63 472.14C386.74 472.23 386.86 472.3 386.97 472.39C388.02 473.12 388.94 473.76 389.76 474.38C390.45 474.88 391.15 475.41 391.84 475.91C391.73 475.67 390.83 473.79 390.72 473.55C390.58 473.6 390.45 473.58 390.35 473.49C388.34 471.77 386.19 470.13 384 468.59C384.46 469.53 384.85 470.38 385.21 471.15C385.19 471.18 385.21 471.22 385.23 471.27C385.74 471.5 386.19 471.82 386.63 472.14ZM360.94 476.37C358.54 474.45 356.18 472.41 353.97 470.29C353.96 470.28 353.96 470.28 353.94 470.26C353.94 470.25 353.94 470.24 353.94 470.24C353.94 469.53 353.97 468.82 353.97 468.11C353.97 468.11 353.97 468.06 353.97 467.98C354.03 468.03 354.07 468.06 354.08 468.07C356.64 469.85 359.13 471.82 361.46 473.87C361.46 473.88 361.47 473.88 361.49 473.9C361.49 473.92 361.49 473.94 361.49 473.94C361.46 474.08 361.46 474.22 361.44 474.38C361.44 474.47 361.42 474.58 361.42 474.74C361.39 475.2 361.35 475.89 361.21 476.32C361.21 476.32 361.2 476.34 361.19 476.37C361.16 476.37 361.15 476.37 361.14 476.37C361.1 476.37 361.05 476.39 361.01 476.41C361 476.41 361 476.4 360.98 476.39C360.96 476.37 360.94 476.37 360.94 476.37ZM361.01 476.21C361.03 476.18 361.07 476.18 361.1 476.18C361.21 475.77 361.26 475.13 361.28 474.7C361.28 474.54 361.3 474.4 361.3 474.33C361.33 474.19 361.33 474.08 361.35 473.94C359.06 471.93 356.64 470.01 354.13 468.25C354.13 468.89 354.1 469.53 354.1 470.19C356.3 472.27 358.61 474.31 361.01 476.21ZM356.57 476.27C355.59 476.23 354.61 476.18 353.62 476.18C353.62 476.18 353.6 476.18 353.58 476.18C353.56 476.16 353.56 476.14 353.55 476.14C353.53 476.09 353.51 476.07 353.46 476.05C353.03 475.73 350.88 474.18 347.02 471.38C347.14 471.37 347.21 471.36 347.22 471.36C348.23 471.29 349.23 471.22 350.19 471.15C350.2 471.15 350.2 471.15 350.22 471.15C350.23 471.17 350.24 471.18 350.24 471.18C352.27 472.91 354.42 474.58 356.59 476.14C356.61 476.15 356.69 476.2 356.82 476.3C356.67 476.28 356.59 476.28 356.57 476.27ZM356.3 476.11C354.19 474.61 352.14 473.01 350.17 471.31C349.28 471.38 348.34 471.45 347.43 471.5C348.04 471.94 352.92 475.47 353.53 475.91C353.58 475.95 353.62 476 353.65 476.05C354.54 476.05 355.43 476.09 356.3 476.11ZM345.19 474.72C344.85 474.49 344.55 474.29 344.23 474.1C343.95 473.94 342.58 473.12 340.11 471.66C340.28 471.66 340.37 471.66 340.39 471.66C341.14 471.66 341.97 471.63 342.88 471.59C342.89 471.59 342.92 471.59 342.97 471.59C342.96 471.64 342.95 471.67 342.95 471.68C342.95 471.73 342.95 471.84 343.04 471.91C343.45 472.2 345.51 473.66 349.21 476.3C349.07 476.3 349 476.3 348.98 476.3C348.96 476.3 348.94 476.3 348.91 476.3C347.59 476.3 346.33 475.45 345.19 474.72ZM344.32 473.97C344.64 474.15 344.94 474.35 345.28 474.58C346.33 475.29 347.52 476.07 348.75 476.14C348.18 475.73 343.55 472.43 342.97 472.02C342.88 471.95 342.81 471.84 342.81 471.73C342.01 471.75 341.3 471.77 340.66 471.79C341.39 472.23 343.95 473.75 344.32 473.97ZM349.94 476.25L343.36 471.57C343.5 471.57 343.57 471.57 343.59 471.57C344.43 471.54 345.3 471.5 346.26 471.45C346.26 471.45 346.27 471.45 346.29 471.45L346.31 471.47L352.87 476.21C352.73 476.21 352.66 476.21 352.64 476.21C351.73 476.21 350.83 476.23 349.97 476.25C349.96 476.25 349.96 476.25 349.94 476.25L349.94 476.25ZM349.99 476.09C350.77 476.07 351.59 476.05 352.41 476.05C351.79 475.6 346.86 472.03 346.24 471.59C345.37 471.63 344.57 471.68 343.82 471.7C345.05 472.58 349.37 475.65 349.99 476.09ZM361.42 473.21C359.06 471.15 356.57 469.21 354.01 467.43C354.01 467.43 353.99 467.42 353.97 467.41C353.95 467.38 353.94 467.36 353.94 467.36C353.94 466.67 353.94 465.94 353.92 465.07C353.92 465.06 353.92 464.96 353.92 464.8C354 464.94 354.05 465.01 354.06 465.03C354.22 465.26 354.54 465.42 354.81 465.55C354.93 465.6 355.04 465.67 355.13 465.71C355.84 466.15 356.59 466.65 357.46 467.27C358.86 468.27 360.21 469.46 361.58 470.86C361.58 470.86 361.59 470.87 361.6 470.88C361.6 470.89 361.6 470.9 361.6 470.9C361.6 471.25 361.6 471.61 361.58 471.95C361.58 472.32 361.55 472.69 361.51 473.1C361.51 473.11 361.52 473.18 361.53 473.3C361.46 473.25 361.42 473.22 361.42 473.21ZM361.42 472.96C361.44 472.62 361.46 472.27 361.46 471.98C361.46 471.63 361.49 471.29 361.49 470.95C360.11 469.55 358.79 468.41 357.39 467.41C356.53 466.77 355.79 466.29 355.09 465.85C354.99 465.81 354.9 465.74 354.79 465.69C354.56 465.58 354.31 465.44 354.13 465.28C354.13 466.03 354.13 466.7 354.13 467.29C356.64 469.03 359.09 470.95 361.42 472.96ZM390.24 472.64C387.98 470.74 385.6 468.96 383.18 467.31C383.18 467.31 383.17 467.31 383.15 467.29C383.15 467.28 383.15 467.27 383.15 467.27C382.81 466.58 382.47 465.9 382.06 465.05C382.04 465.02 381.91 464.78 381.9 464.75C381.69 464.32 381.46 463.91 381.23 463.5C381.23 463.49 381.23 463.48 381.21 463.45C381.23 463.42 381.23 463.41 381.23 463.41C381.26 463.36 381.28 463.29 381.26 463.25C381.26 463.25 381.26 463.25 381.26 463.25L381.26 463.25L381.33 463.22C381.37 463.2 381.39 463.18 381.39 463.18C381.46 463.22 382.01 463.47 382.31 463.59C382.49 463.66 382.65 463.73 382.7 463.75C383 463.9 384.52 464.66 387.25 466.03L388 467.61C387.86 467.53 387.79 467.48 387.77 467.47C386.01 466.38 384.21 465.37 382.38 464.46C382.29 464.41 382.17 464.43 382.1 464.53C382.06 464.57 382.03 464.66 382.03 464.71C382.03 464.71 382.03 464.73 382.03 464.75C382.06 464.78 382.08 464.8 382.08 464.8C382.1 464.82 382.13 464.82 382.15 464.85C384.27 465.9 386.35 467.09 388.37 468.39C388.37 468.39 388.37 468.4 388.39 468.41L390.51 472.87C390.35 472.73 390.26 472.66 390.24 472.64ZM390.08 472.3C389.9 471.92 388.45 468.9 388.27 468.53C386.31 467.27 384.3 466.1 382.22 465.07C382.63 465.87 382.97 466.56 383.29 467.2C385.62 468.78 387.91 470.49 390.08 472.3ZM382.47 464.37C384.23 465.23 385.97 466.22 387.66 467.25C387.62 467.18 387.46 466.83 387.15 466.19C384.45 464.84 382.95 464.08 382.65 463.93C382.61 463.91 382.45 463.84 382.29 463.77C381.83 463.59 381.58 463.47 381.44 463.41C381.44 463.45 381.42 463.47 381.42 463.5C381.6 463.84 381.78 464.18 381.97 464.55C381.99 464.53 381.99 464.5 382.01 464.48C382.08 464.37 382.17 464.32 382.29 464.32C382.35 464.32 382.4 464.34 382.47 464.37ZM369.78 470.93C369.44 470.56 369.17 470.06 368.89 469.58C368.78 469.37 368.66 469.17 368.55 468.98C367.65 467.52 360.48 455.84 359.59 454.38C359.47 454.22 359.34 454.17 359.25 454.17C359.11 454.17 358.97 454.24 358.88 454.35C358.88 454.36 358.87 454.36 358.86 454.38L358.81 454.38C355.37 454.08 353.46 453.91 353.07 453.87C352.96 453.87 352.85 453.92 352.78 454.01C352.71 454.1 352.66 454.19 352.66 454.31C353.01 459.43 353.17 464.66 353.1 469.85C353.1 469.85 353.1 469.87 353.1 469.9C353.08 469.91 353.08 469.92 353.07 469.92C353.03 469.97 352.98 470.01 352.94 470.08C352.94 470.08 352.93 470.1 352.91 470.13C352.89 470.13 352.87 470.13 352.87 470.13C348.43 470.56 343.91 470.79 339.47 470.81C339.47 470.81 339.45 470.81 339.41 470.81C339.41 470.77 339.41 470.75 339.41 470.74C339.15 453.21 339.27 435.45 339.68 417.94C339.68 417.94 339.68 417.92 339.68 417.87C339.72 417.87 339.74 417.87 339.75 417.87C341.81 417.99 343.84 418.08 345.9 418.19C350.24 418.42 354.74 418.65 359.15 418.88C364.82 419.18 370.29 419.66 374.99 422.33C375 422.34 375.04 422.36 375.11 422.4C375.11 422.43 375.11 422.44 375.11 422.45C375.11 422.51 375.11 422.79 375.41 422.86C375.63 422.9 375.86 422.97 376.11 423.04C376.12 423.04 376.13 423.04 376.14 423.04C380.11 425.83 382.63 430.54 382.81 435.68C382.97 440 381.19 444.48 377.9 447.95C377.89 447.96 377.88 447.97 377.85 448C377.78 447.96 377.74 447.94 377.74 447.93C377.6 447.86 377.44 447.95 377.39 448.07C377.37 448.11 377.35 448.21 377.44 448.27C377.44 448.28 377.47 448.29 377.51 448.32C377.47 448.36 377.44 448.38 377.44 448.39C377.03 448.8 376.59 449.19 376.18 449.53C376.16 449.55 376.11 449.58 376.09 449.6C376.09 449.6 376.05 449.63 376 449.67C375.97 449.65 375.96 449.65 375.95 449.65C375.91 449.62 375.86 449.62 375.84 449.62C375.77 449.62 375.68 449.67 375.63 449.74C375.59 449.81 375.57 449.87 375.59 449.92C375.59 449.92 375.6 449.94 375.61 449.97C375.58 449.98 375.57 449.99 375.57 449.99C375.04 450.38 374.45 450.77 373.76 451.18C373.67 451.22 373.6 451.34 373.55 451.45C373.53 451.57 373.53 451.68 373.6 451.77C377.42 457.94 380.91 464.43 384 471.06C384 471.07 384.02 471.11 384.05 471.18C376.78 471.31 372.74 471.39 371.93 471.41C371.82 471.41 371.73 471.41 371.61 471.41C371.5 471.41 371.36 471.41 371.2 471.41C370.72 471.41 370.19 471.34 369.78 470.93ZM359.75 454.31C360.64 455.77 367.81 467.45 368.71 468.91C368.82 469.1 368.94 469.3 369.05 469.51C369.3 469.97 369.58 470.47 369.92 470.81C370.29 471.2 370.79 471.25 371.22 471.25C371.36 471.25 371.52 471.25 371.66 471.22C371.77 471.22 371.86 471.22 371.98 471.22C373.17 471.2 382.67 471.02 383.86 470.99C380.78 464.41 377.3 457.97 373.51 451.84C373.44 451.7 373.42 451.57 373.44 451.41C373.49 451.25 373.58 451.11 373.71 451.04C374.38 450.65 374.95 450.29 375.47 449.9C375.47 449.81 375.5 449.71 375.54 449.62C375.66 449.49 375.84 449.42 376 449.46C376 449.46 376.02 449.44 376.02 449.44C376.05 449.42 376.07 449.39 376.11 449.37C376.53 449.03 376.91 448.66 377.33 448.27C377.26 448.18 377.26 448.07 377.28 447.95C377.37 447.73 377.62 447.63 377.83 447.73C377.83 447.73 377.85 447.73 377.85 447.73C381.1 444.27 382.86 439.86 382.67 435.59C382.47 430.51 380 425.83 376.07 423.09C375.82 423.02 375.59 422.95 375.38 422.9C375.13 422.83 374.97 422.63 374.97 422.38C374.97 422.37 374.95 422.36 374.95 422.35C370.29 419.7 364.82 419.22 359.18 418.93C354.77 418.7 350.26 418.47 345.92 418.24C343.91 418.15 341.87 418.03 339.86 417.92C339.43 435.38 339.34 453.1 339.59 470.56C344 470.51 348.46 470.29 352.87 469.87C352.91 469.83 352.94 469.76 353.01 469.74C353.07 464.57 352.94 459.36 352.57 454.26C352.57 454.13 352.62 453.97 352.73 453.85C352.85 453.71 353.01 453.65 353.17 453.67C353.74 453.72 358.31 454.12 358.88 454.17C358.93 454.1 359.11 454.03 359.27 454.03C359.47 454.03 359.63 454.13 359.75 454.31ZM361.49 470.13C360.55 469.21 359.59 468.34 358.58 467.57C358.08 467.18 357.53 466.77 356.85 466.29C356.46 466.01 356.05 465.74 355.68 465.51C355.63 465.49 355.52 465.42 355.41 465.37C355.15 465.23 354.79 465.05 354.61 464.91C354.6 464.91 354.6 464.91 354.58 464.89C354.58 464.86 354.58 464.85 354.58 464.85C354.58 464.78 354.56 464.69 354.51 464.66C354.51 464.66 354.47 464.62 354.47 464.62C354.4 464.55 354.31 464.53 354.24 464.55C354.23 464.55 354.18 464.57 354.17 464.57C354.13 464.59 354.1 464.62 354.06 464.64C354.05 464.65 354 464.69 353.92 464.78C353.92 464.67 353.92 464.61 353.92 464.59C353.92 463.89 353.9 463.18 353.87 462.49C353.87 462.48 353.87 462.42 353.87 462.31C354.27 462.68 354.49 462.88 354.54 462.93C354.61 462.99 354.7 462.99 354.77 462.97C354.77 462.97 354.78 462.96 354.81 462.95C354.83 462.96 354.83 462.97 354.83 462.97C357.1 464.43 359.34 465.94 361.49 467.5C361.49 467.5 361.49 467.51 361.51 467.52C361.51 467.64 361.51 467.71 361.51 467.73C361.55 468.5 361.58 469.3 361.58 470.1C361.58 470.11 361.6 470.17 361.62 470.26C361.54 470.18 361.49 470.13 361.49 470.13ZM355.47 465.21C355.61 465.28 355.7 465.33 355.77 465.37C356.14 465.6 356.55 465.87 356.94 466.15C357.62 466.63 358.19 467.04 358.7 467.43C359.66 468.18 360.59 469.01 361.49 469.87C361.49 469.14 361.46 468.41 361.42 467.7C361.42 467.69 361.42 467.58 361.42 467.57C359.29 466.03 357.07 464.53 354.83 463.09C354.72 463.13 354.58 463.09 354.47 462.99C354.43 462.96 354.1 462.67 354.06 462.63C354.08 463.22 354.08 463.82 354.1 464.41C354.1 464.41 354.13 464.41 354.13 464.39C354.13 464.39 354.19 464.37 354.19 464.37C354.31 464.32 354.45 464.37 354.56 464.46C354.56 464.46 354.6 464.5 354.61 464.5C354.67 464.59 354.72 464.71 354.72 464.8C354.9 464.94 355.22 465.1 355.47 465.21ZM361.39 466.83C359.04 465.17 356.66 463.54 354.31 462.06C354.22 462.01 354.1 462.01 354.03 462.1C354.03 462.11 353.98 462.16 353.9 462.24C353.9 462.13 353.9 462.07 353.9 462.06C353.87 461.33 353.85 460.55 353.81 459.63C353.81 459.63 353.81 459.58 353.81 459.5C353.87 459.54 353.91 459.56 353.92 459.57C354.01 459.63 354.13 459.61 354.19 459.54C354.2 459.54 354.22 459.52 354.26 459.47C354.29 459.49 354.31 459.5 354.31 459.5C354.65 459.68 354.99 460 355.31 460.3C355.47 460.43 355.61 460.57 355.75 460.69C356.3 461.12 356.87 461.55 357.3 461.9C358.51 462.81 359.84 463.75 361.3 464.75C361.33 464.75 361.33 464.78 361.35 464.78C361.35 464.78 361.37 464.79 361.39 464.8C361.39 464.83 361.39 464.84 361.39 464.85C361.44 465.51 361.46 466.15 361.51 466.81C361.51 466.82 361.52 466.86 361.53 466.93C361.45 466.87 361.4 466.84 361.39 466.83ZM354.38 461.9C356.71 463.36 359.04 464.94 361.35 466.58C361.33 465.99 361.28 465.42 361.26 464.82C361.26 464.82 361.26 464.82 361.23 464.82C359.75 463.82 358.45 462.88 357.23 461.94C356.8 461.62 356.23 461.19 355.68 460.73C355.54 460.62 355.41 460.48 355.25 460.34C354.97 460.07 354.63 459.77 354.33 459.59C354.24 459.68 354.13 459.7 353.99 459.68C354.01 460.5 354.03 461.19 354.06 461.85C354.08 461.87 354.15 461.85 354.19 461.85C354.26 461.85 354.33 461.87 354.38 461.9ZM382.24 463.02C382.03 462.9 381.58 462.74 381.23 462.74C381.12 462.74 381.03 462.77 380.96 462.79C380.96 462.79 380.93 462.8 380.89 462.81C380.88 462.77 380.87 462.75 380.87 462.74C379.41 459.98 377.85 457.19 376.23 454.42C376.22 454.41 376.18 454.35 376.11 454.24C376.24 454.28 376.31 454.3 376.32 454.31C378.45 455.09 380.53 456 382.54 457.03C382.65 457.07 382.77 457.05 382.83 456.96C382.84 456.95 382.86 456.92 382.9 456.87C382.93 456.92 382.95 456.95 382.95 456.96C383.15 457.33 383.31 457.69 383.47 458.06C383.57 458.29 383.66 458.49 383.77 458.7C383.79 458.74 383.89 458.95 384.07 459.34C380.76 457.68 378.93 456.76 378.56 456.57C378.4 456.48 378.24 456.62 378.22 456.75C378.19 456.8 378.19 456.91 378.33 456.96C378.74 457.16 380.76 458.19 384.41 460.02L385.76 462.83C382.54 461.28 380.75 460.42 380.39 460.25C380.23 460.18 380.07 460.3 380.05 460.43C380.02 460.48 380.02 460.59 380.16 460.64C380.55 460.83 382.53 461.78 386.08 463.5L386.95 465.39C384.12 463.97 382.55 463.18 382.24 463.02ZM382.31 462.88C382.6 463.02 384.04 463.75 386.63 465.05L385.94 463.61C382.42 461.91 380.46 460.97 380.07 460.78C380.02 460.75 379.98 460.73 379.95 460.69C380.3 461.33 380.64 461.99 380.98 462.63C381.05 462.63 381.14 462.61 381.23 462.61C381.58 462.61 382.03 462.74 382.31 462.88ZM380.43 460.14C380.77 460.3 382.43 461.1 385.42 462.54L384.27 460.18C380.65 458.36 378.64 457.35 378.24 457.14C378.08 457.07 378.01 456.91 378.06 456.75C378.1 456.57 378.26 456.43 378.45 456.43C378.51 456.43 378.56 456.46 378.63 456.48C378.97 456.65 380.68 457.51 383.75 459.06C383.68 458.93 383.64 458.85 383.63 458.83C383.54 458.63 383.45 458.42 383.34 458.19C383.2 457.85 383.04 457.51 382.86 457.19C382.74 457.28 382.58 457.3 382.45 457.21C380.53 456.21 378.49 455.34 376.46 454.56C377.62 456.55 378.77 458.56 379.86 460.57C379.84 460.53 379.84 460.46 379.86 460.41C379.91 460.23 380.07 460.09 380.25 460.09C380.32 460.09 380.37 460.11 380.43 460.14ZM361.23 464.11C359.98 463.25 358.72 462.35 357.53 461.46C356.94 461.01 356.27 460.5 355.5 459.89C355.38 459.79 355.27 459.7 355.15 459.59C354.81 459.29 354.47 458.97 354.06 458.9C353.99 458.9 353.94 458.9 353.87 458.93C353.87 458.93 353.83 458.94 353.76 458.97C353.76 458.9 353.76 458.86 353.76 458.86C353.74 458.1 353.69 457.37 353.65 456.62C353.65 456.61 353.65 456.57 353.65 456.5L353.76 456.55C353.8 456.56 353.82 456.57 353.83 456.57C353.97 456.59 354.06 456.5 354.08 456.46C354.09 456.45 354.12 456.4 354.17 456.32L354.31 456.66L361.23 462.31C361.25 462.5 361.26 462.61 361.26 462.63C361.28 463.09 361.33 463.57 361.35 464.02C361.35 464.04 361.36 464.1 361.37 464.21C361.29 464.15 361.24 464.12 361.23 464.11ZM354.08 458.74C354.54 458.81 354.9 459.15 355.25 459.45C355.36 459.57 355.47 459.66 355.59 459.75C356.37 460.37 357.03 460.87 357.62 461.33C358.77 462.19 359.98 463.04 361.19 463.89C361.17 463.47 361.14 463.06 361.12 462.63C361.12 462.61 361.11 462.53 361.1 462.38L354.19 456.75C354.17 456.69 354.15 456.65 354.15 456.64C354.06 456.71 353.97 456.73 353.83 456.71C353.83 456.71 353.83 456.71 353.83 456.71C353.87 457.39 353.9 458.06 353.92 458.74C353.94 458.74 353.99 458.74 354.01 458.74C354.03 458.74 354.06 458.74 354.08 458.74ZM355.25 456.85C355.15 456.75 355.04 456.66 354.95 456.57C354.63 456.27 354.29 455.95 353.87 455.93C353.87 455.93 353.87 455.93 353.87 455.93C353.83 455.93 353.78 455.95 353.74 455.98C353.73 455.98 353.69 456.01 353.62 456.07C353.61 455.79 353.6 455.64 353.6 455.61C353.58 455.36 353.58 455.13 353.55 454.88C353.55 454.87 353.55 454.84 353.55 454.79L355.77 454.99C355.79 455.02 355.79 455.04 355.79 455.04C355.79 455.09 355.82 455.11 355.86 455.13C357.65 456.64 359.41 458.24 361.1 459.93C361.1 459.93 361.11 459.94 361.12 459.95L361.21 461.69C357.63 458.78 355.64 457.17 355.25 456.85ZM355.06 456.46C355.15 456.55 355.27 456.64 355.36 456.71C355.74 457.02 357.64 458.56 361.05 461.35C361 460.54 360.97 460.09 360.96 460C359.29 458.33 357.53 456.73 355.77 455.25C355.73 455.2 355.7 455.15 355.68 455.11C355.49 455.09 353.95 454.96 353.76 454.95C353.78 455.15 353.78 455.38 353.81 455.59C353.81 455.61 353.83 455.77 353.83 455.79C353.81 455.77 353.83 455.77 353.87 455.77C354.35 455.79 354.72 456.14 355.06 456.46ZM360.91 459.13C359.52 457.78 358.08 456.46 356.62 455.2C356.6 455.19 356.54 455.14 356.43 455.04C357.97 455.18 358.82 455.25 358.99 455.27C359.04 455.27 359.06 455.27 359.11 455.27C359.11 455.27 359.13 455.27 359.15 455.27L361.19 458.58C361.16 458.61 361.15 458.63 361.14 458.63C361.07 458.7 361.03 458.81 361.05 458.93C361.05 458.95 361.05 459.06 361.05 459.27C360.97 459.19 360.92 459.14 360.91 459.13ZM360.87 458.88C360.87 458.74 360.89 458.63 360.98 458.54C360.79 458.22 359.25 455.72 359.06 455.41C359.04 455.41 358.99 455.41 358.97 455.41C358.83 455.39 358.14 455.33 356.89 455.22C358.69 456.82 360.02 458.04 360.87 458.88ZM382.49 456.55C380.41 455.5 378.24 454.56 376.05 453.78C376 453.76 375.93 453.76 375.89 453.78C375.88 453.78 375.86 453.79 375.82 453.81C375.65 453.53 375.56 453.38 375.54 453.35C375.41 453.12 375.27 452.89 375.13 452.66C375.12 452.65 375.08 452.58 374.99 452.46C375.13 452.53 375.21 452.56 375.22 452.57C375.68 452.78 376.14 453.01 376.62 453.21C378.24 453.94 379.91 454.72 381.53 455.54C381.74 455.66 381.94 455.79 382.15 455.98C382.15 455.98 382.16 455.99 382.17 456C382.17 456.01 382.17 456.02 382.17 456.02C382.19 456.18 382.31 456.34 382.47 456.39C382.47 456.39 382.48 456.39 382.49 456.39C382.51 456.4 382.51 456.41 382.51 456.41C382.51 456.41 382.54 456.43 382.54 456.43C382.55 456.45 382.63 456.53 382.77 456.69C382.6 456.6 382.51 456.56 382.49 456.55ZM376.11 453.62C378.15 454.35 380.16 455.2 382.1 456.16C382.08 456.11 382.08 456.07 382.06 456.02C381.87 455.86 381.69 455.73 381.51 455.63C379.89 454.81 378.22 454.06 376.59 453.3C376.21 453.12 375.82 452.94 375.43 452.78C375.52 452.94 375.61 453.1 375.7 453.26C375.72 453.29 375.89 453.57 375.91 453.6C375.93 453.6 375.95 453.6 375.98 453.6C376.02 453.6 376.07 453.6 376.11 453.62ZM382.74 455.31C382.58 455.15 382.42 455.02 382.24 454.9C381.51 454.4 380.62 454.03 379.75 453.67C379.38 453.51 378.97 453.35 378.63 453.17C378.38 453.05 377.15 452.47 374.93 451.43C374.99 451.39 375.03 451.36 375.04 451.36C375.52 451.06 375.98 450.72 376.43 450.38C376.44 450.38 376.45 450.37 376.48 450.35C376.51 450.37 376.52 450.38 376.53 450.38C379.15 451.57 381.69 453.01 384.07 454.65C384.08 454.66 384.11 454.68 384.18 454.72C384.11 454.76 384.08 454.78 384.07 454.79C383.66 455.02 383.25 455.2 382.83 455.36C382.83 455.36 382.82 455.36 382.79 455.36C382.76 455.33 382.75 455.32 382.74 455.31ZM378.7 453.07C379.06 453.23 379.45 453.42 379.82 453.55C380.69 453.92 381.58 454.29 382.33 454.81C382.51 454.93 382.65 455.06 382.81 455.2C383.15 455.06 383.52 454.9 383.86 454.72C381.53 453.12 379.04 451.73 376.48 450.56C376.09 450.86 375.68 451.15 375.25 451.45C375.94 451.78 378.35 452.91 378.7 453.07ZM384.57 454.45C382.17 452.78 379.61 451.31 376.98 450.1C376.98 450.1 376.94 450.08 376.87 450.06C376.92 450.02 376.95 449.99 376.96 449.99C377.39 449.62 377.85 449.21 378.29 448.78C378.29 448.77 378.3 448.76 378.33 448.73L378.38 448.75L386.58 452.98C386.54 453.02 386.52 453.05 386.51 453.05C385.94 453.58 385.3 454.06 384.66 454.45C384.66 454.45 384.64 454.45 384.62 454.47C384.59 454.45 384.57 454.45 384.57 454.45ZM384.59 454.29C385.19 453.92 385.76 453.49 386.31 453.01C385.51 452.59 379.13 449.3 378.33 448.89C377.94 449.3 377.55 449.67 377.14 450.01C379.73 451.22 382.24 452.66 384.59 454.29ZM386.88 452.62L378.65 448.37C378.69 448.32 378.72 448.3 378.72 448.3C378.95 448.05 379.18 447.79 379.41 447.52C379.41 447.52 379.42 447.5 379.45 447.47C379.49 447.49 379.52 447.5 379.52 447.5C379.57 447.52 379.59 447.52 379.61 447.52C379.68 447.52 379.73 447.47 379.75 447.45C379.79 447.38 379.82 447.31 379.79 447.22C379.79 447.21 379.77 447.12 379.73 446.97C379.84 447.08 379.9 447.14 379.91 447.15C380.09 447.34 380.3 447.47 380.55 447.54C381.23 447.87 386.68 450.48 387.36 450.81C387.52 450.88 387.68 450.77 387.7 450.63C387.73 450.58 387.73 450.47 387.59 450.42C386.91 450.1 381.46 447.48 380.78 447.15C380.73 447.13 380.66 447.11 380.59 447.06C380.46 446.99 380.25 446.88 380.05 446.79C380.04 446.79 380.01 446.77 379.95 446.74C380 446.7 380.02 446.68 380.02 446.67C380.3 446.31 380.55 445.92 380.85 445.49C380.85 445.48 380.86 445.47 380.89 445.44C380.93 445.45 380.96 445.46 380.96 445.46C383.73 446.67 386.49 448 389.12 449.44C389.12 449.44 389.15 449.46 389.19 449.49C389.16 449.53 389.15 449.55 389.14 449.55C388.55 450.7 387.82 451.73 386.95 452.59C386.95 452.6 386.94 452.61 386.93 452.64L386.88 452.62ZM386.9 452.46C387.73 451.61 388.41 450.65 388.98 449.55C386.38 448.16 383.68 446.83 380.96 445.65C380.71 446.03 380.48 446.38 380.23 446.72C380.41 446.79 380.57 446.88 380.69 446.95C380.75 446.99 380.82 447.02 380.87 447.04C381.55 447.37 387 449.98 387.68 450.31C387.84 450.38 387.91 450.54 387.86 450.7C387.82 450.95 387.52 451.09 387.29 450.97C386.61 450.64 381.16 448.03 380.48 447.7C380.27 447.63 380.09 447.52 379.91 447.38C379.89 447.45 379.86 447.5 379.84 447.54C379.75 447.66 379.61 447.7 379.47 447.63C379.29 447.89 379.09 448.11 378.9 448.32C380.5 449.15 386.1 452.04 386.9 452.46ZM389.33 449.03C386.7 447.61 383.98 446.29 381.23 445.07C381.23 445.07 381.21 445.06 381.17 445.03C381.19 444.99 381.21 444.96 381.21 444.96C381.44 444.59 381.65 444.18 381.85 443.77C381.86 443.76 381.88 443.73 381.92 443.66C382.14 444 382.26 444.19 382.29 444.23C382.33 444.32 382.42 444.34 382.47 444.34C382.58 444.34 382.67 444.27 382.7 444.18C382.7 444.18 382.71 444.16 382.72 444.11C382.76 444.13 382.78 444.14 382.79 444.14C385.12 445.19 387.41 446.29 389.6 447.41C389.76 447.5 389.92 447.36 389.94 447.25C389.97 447.2 389.97 447.09 389.83 447.02C387.34 445.74 384.8 444.53 382.24 443.41C382.22 443.41 382.19 443.38 382.15 443.38C382.14 443.38 382.1 443.38 382.03 443.38C382.06 443.33 382.08 443.3 382.08 443.29C382.49 442.42 382.81 441.53 383.06 440.64C383.11 440.5 383.13 440.37 383.18 440.23C383.18 440.22 383.2 440.17 383.22 440.09C383.28 440.16 383.31 440.2 383.31 440.21C383.34 440.23 383.38 440.25 383.43 440.27C385.92 441.07 388.32 442.1 390.61 443.38C390.65 443.41 390.72 443.43 390.77 443.41C390.77 443.4 390.8 443.4 390.86 443.38C390.86 443.45 390.86 443.49 390.86 443.5C390.81 444.16 390.72 444.82 390.58 445.44C390.58 445.45 390.57 445.48 390.56 445.53C390.51 445.5 390.47 445.49 390.47 445.49C388 444.27 385.49 443.15 382.95 442.17C382.81 442.1 382.72 442.24 382.7 442.33C382.67 442.42 382.7 442.56 382.86 442.63C385.39 443.61 387.93 444.75 390.42 445.97C390.43 445.97 390.44 445.97 390.47 445.99C390.45 446.03 390.45 446.05 390.45 446.06C390.19 447.11 389.85 448.14 389.42 449.07C389.42 449.07 389.41 449.07 389.39 449.07C389.35 449.05 389.33 449.03 389.33 449.03ZM389.3 448.87C389.51 448.43 389.67 448 389.83 447.54C389.74 447.59 389.6 447.59 389.49 447.54C387.31 446.42 385.05 445.35 382.74 444.32C382.67 444.43 382.54 444.5 382.4 444.5C382.26 444.5 382.15 444.43 382.08 444.32C382.06 444.29 381.87 444.01 381.85 443.98C381.71 444.34 381.53 444.66 381.35 444.98C384.05 446.17 386.74 447.47 389.3 448.87ZM382.29 443.25C384.85 444.37 387.41 445.58 389.9 446.88C389.97 446.9 390.01 446.95 390.03 446.99C390.13 446.67 390.22 446.35 390.31 446.01C387.84 444.8 385.33 443.68 382.81 442.7C382.7 442.65 382.63 442.56 382.58 442.47C382.47 442.74 382.38 442.99 382.26 443.25C382.27 443.25 382.28 443.25 382.29 443.25ZM383.02 441.99C385.51 442.97 388.02 444.07 390.45 445.26C390.56 444.71 390.63 444.11 390.67 443.52C390.63 443.52 390.56 443.5 390.51 443.47C388.23 442.22 385.83 441.17 383.36 440.39C383.34 440.39 383.31 440.37 383.29 440.37C383.27 440.46 383.25 440.57 383.22 440.66C383.09 441.1 382.95 441.55 382.79 441.99C382.81 441.97 382.86 441.97 382.88 441.97C382.93 441.97 382.97 441.97 383.02 441.99ZM390.77 442.9C388.46 441.62 386.01 440.59 383.52 439.79C383.47 439.77 383.43 439.77 383.38 439.79C383.37 439.8 383.33 439.81 383.25 439.84C383.26 439.76 383.27 439.71 383.27 439.7C383.38 439.15 383.5 438.58 383.54 438.01C383.54 438.01 383.54 437.97 383.54 437.92C383.6 437.93 383.63 437.94 383.63 437.94C385.85 438.56 387.98 439.52 389.92 440.75C390.06 440.85 390.19 440.73 390.24 440.62C390.26 440.57 390.26 440.43 390.15 440.37C388.14 439.09 385.97 438.1 383.66 437.46C383.65 437.46 383.63 437.45 383.59 437.44C383.59 437.4 383.59 437.38 383.59 437.37C383.61 436.98 383.63 436.59 383.63 436.14C383.63 436.13 383.63 436.09 383.63 436.02C383.69 436.04 383.72 436.04 383.73 436.05C385.87 436.78 388.11 437.35 390.33 437.78C390.33 437.78 390.35 437.78 390.38 437.78C390.38 437.81 390.38 437.83 390.38 437.83C390.74 439.45 390.9 441.12 390.81 442.79C390.82 442.8 390.84 442.86 390.88 442.97C390.81 442.93 390.77 442.91 390.77 442.9ZM383.59 439.66C386.06 440.43 388.48 441.49 390.77 442.72C390.83 441.12 390.7 439.52 390.33 437.97C388.14 437.55 385.97 436.98 383.84 436.27C383.84 436.66 383.82 437.01 383.79 437.35C386.1 437.99 388.27 438.97 390.26 440.25C390.4 440.34 390.47 440.5 390.42 440.69C390.35 440.94 390.08 441.05 389.87 440.91C387.98 439.7 385.9 438.77 383.73 438.13C383.66 438.65 383.57 439.15 383.47 439.63C383.52 439.63 383.54 439.63 383.59 439.66ZM390.19 437.35C388.02 436.91 385.83 436.34 383.7 435.61C383.7 435.61 383.68 435.6 383.66 435.59C383.66 435.56 383.66 435.55 383.66 435.54C383.61 434.33 383.43 433.12 383.13 431.91C383.13 431.9 383.12 431.87 383.11 431.82C383.16 431.82 383.19 431.82 383.2 431.82C384.85 431.86 386.47 432.14 388.02 432.64C388.09 432.66 388.16 432.66 388.21 432.62C388.21 432.61 388.23 432.6 388.27 432.57C388.3 432.61 388.32 432.64 388.32 432.64C388.57 433.07 388.78 433.44 388.96 433.81C388.96 433.81 388.99 433.86 389.03 433.94C385.97 433.2 384.27 432.79 383.93 432.71C383.77 432.66 383.66 432.8 383.66 432.91C383.66 432.96 383.66 433.1 383.82 433.14C384.18 433.23 386 433.67 389.28 434.47C389.29 434.48 389.3 434.49 389.3 434.49C389.55 435.04 389.76 435.59 389.94 436.11C390.06 436.43 390.17 436.8 390.29 437.23C390.29 437.24 390.29 437.29 390.31 437.37C390.24 437.36 390.2 437.35 390.19 437.35ZM390.1 437.17C389.99 436.78 389.9 436.48 389.81 436.18C389.62 435.66 389.42 435.13 389.19 434.61C388.65 434.48 384.33 433.43 383.79 433.3C383.68 433.28 383.61 433.21 383.57 433.14C383.7 433.92 383.79 434.7 383.82 435.47C385.87 436.16 388 436.73 390.1 437.17ZM383.98 432.57C384.45 432.69 388.28 433.62 388.75 433.74C388.62 433.44 388.43 433.14 388.25 432.8C388.18 432.82 388.09 432.82 388 432.8C386.47 432.32 384.89 432.05 383.31 432C383.38 432.3 383.45 432.59 383.52 432.91C383.54 432.71 383.68 432.55 383.89 432.55C383.91 432.55 383.95 432.55 383.98 432.57ZM387.89 432.11C386.33 431.66 384.69 431.41 383.06 431.36C383.06 431.36 383.04 431.36 383.02 431.36C383 431.33 383 431.32 382.99 431.31C382.86 430.86 382.7 430.35 382.51 429.87C382.51 429.87 382.49 429.82 382.45 429.74C382.54 429.76 382.6 429.78 382.61 429.78C382.63 429.78 382.65 429.81 382.67 429.81C384.16 429.85 385.58 430.1 386.99 430.61C387 430.61 387 430.61 387.02 430.61C387.03 430.62 387.04 430.63 387.04 430.63C387.38 431.09 387.7 431.57 387.98 432.02C387.98 432.03 388.01 432.08 388.07 432.16C387.96 432.13 387.9 432.12 387.89 432.11ZM387.73 431.91C387.47 431.52 387.2 431.11 386.9 430.72C385.51 430.22 384.14 429.97 382.67 429.92C382.83 430.35 382.97 430.79 383.11 431.2C384.66 431.25 386.22 431.47 387.73 431.91ZM386.26 429.87C385.1 429.53 383.89 429.35 382.65 429.33C382.65 429.33 382.65 429.33 382.65 429.33C382.54 429.33 382.49 429.39 382.47 429.44C382.46 429.45 382.44 429.5 382.4 429.6C382.36 429.5 382.34 429.45 382.33 429.44C382.13 428.91 381.87 428.41 381.6 427.91C381.6 427.9 381.57 427.86 381.53 427.79C381.61 427.79 381.66 427.79 381.67 427.79C382.81 427.84 383.93 428.05 385.03 428.34C385.03 428.34 385.05 428.34 385.07 428.34C385.09 428.36 385.1 428.36 385.1 428.37C385.53 428.82 385.97 429.28 386.35 429.76C386.36 429.77 386.41 429.83 386.49 429.94C386.35 429.9 386.28 429.88 386.26 429.87ZM386.06 429.67C385.71 429.28 385.37 428.87 384.98 428.5C384.98 428.5 384.98 428.5 384.96 428.5C383.91 428.21 382.83 428.02 381.76 427.95C381.99 428.39 382.19 428.82 382.38 429.26C382.47 429.19 382.54 429.17 382.63 429.17C383.79 429.19 384.94 429.37 386.06 429.67ZM384.14 427.63C383.22 427.43 382.26 427.31 381.3 427.29C381.3 427.29 381.28 427.29 381.26 427.29C381.24 427.26 381.24 427.25 381.23 427.25C381.07 426.95 380.91 426.7 380.75 426.47C380.62 426.26 380.46 426.03 380.3 425.83C380.29 425.82 380.25 425.77 380.18 425.69L382.19 425.9C382.21 425.9 382.22 425.9 382.22 425.9C382.9 426.38 383.59 426.93 384.21 427.47C384.22 427.49 384.29 427.57 384.41 427.7C384.25 427.66 384.16 427.64 384.14 427.63ZM383.89 427.43C383.34 426.95 382.77 426.49 382.15 426.06C381.99 426.04 380.69 425.89 380.53 425.87C380.64 426.06 380.78 426.22 380.89 426.4C381.03 426.65 381.19 426.9 381.35 427.15C382.19 427.18 383.06 427.27 383.89 427.43ZM379.91 425.35C379.57 424.91 379.2 424.53 378.81 424.14C378.79 424.12 378.69 424.02 378.51 423.84C378.75 423.95 378.88 424.01 378.9 424.02C379.66 424.37 380.39 424.75 381.12 425.21C381.14 425.22 381.24 425.28 381.42 425.39C380.7 425.31 380.31 425.27 380.23 425.26C380.14 425.26 380.09 425.28 380.05 425.35C380.04 425.35 380.02 425.39 379.98 425.44C379.94 425.39 379.91 425.35 379.91 425.35ZM379.98 425.19C380.05 425.12 380.14 425.1 380.25 425.12C380.3 425.12 380.72 425.16 380.78 425.17C380.25 424.87 379.73 424.59 379.22 424.34C379.47 424.62 379.73 424.89 379.98 425.19Z" id="hekRpOo3n"></path><path d="M352.98 428.05C352.64 428.14 352.46 428.64 352.75 428.89C352.75 428.89 352.78 428.91 352.78 428.91C352.66 433.35 352.55 437.78 352.41 442.22C352.41 442.51 352.64 442.7 352.91 442.72C356.64 443.15 360.46 443.47 363.98 441.9C366.81 440.64 368.91 438.01 368.91 434.83C368.96 432.09 367.22 429.33 364.66 428.27C361.03 426.79 356.69 426.95 352.98 428.05ZM363.68 429.12C365.14 430.26 366.47 431.57 367.66 433.01C367.77 433.35 367.84 433.74 367.89 434.13C367.89 434.13 367.89 434.13 367.89 434.13C367.79 434.13 367.68 434.1 367.59 434.1C365.55 432.02 363.36 430.13 361.03 428.39C361.92 428.5 362.79 428.71 363.59 429.01C363.61 429.05 363.63 429.07 363.68 429.12ZM360.64 428.82C362.79 430.4 364.8 432.14 366.67 434.01C365.9 433.97 365.12 433.9 364.34 433.85C362.03 432 359.73 430.13 357.42 428.27C358.45 428.21 359.54 428.23 360.62 428.32C360.48 428.43 360.46 428.69 360.64 428.82ZM353.51 440.32C354.29 440.87 355.09 441.44 355.86 441.99C355.06 441.94 354.26 441.85 353.46 441.76C353.47 441.47 353.5 440.46 353.51 440.32ZM356.69 441.87C355.63 441.12 354.58 440.37 353.51 439.61C353.53 438.83 353.55 438.03 353.58 437.26C355.47 438.93 357.44 440.53 359.45 442.06C358.61 442.1 357.71 442.1 356.82 442.08C356.82 442.01 356.78 441.92 356.69 441.87ZM360.07 441.99C360.09 441.87 360.07 441.74 359.95 441.65C357.81 440.02 355.7 438.31 353.67 436.53C353.65 436.5 353.65 436.5 353.62 436.48C353.65 435.68 353.67 434.88 353.69 434.08C356.07 435.93 358.35 437.85 360.59 439.86C360.57 440.48 360.55 441.1 360.53 441.71C360.5 441.78 360.53 441.85 360.55 441.92C360.39 441.94 360.23 441.97 360.07 441.99ZM360.71 436.3C358.9 434.77 357.07 433.21 355.27 431.68C354.97 431.43 354.54 431.86 354.83 432.11C356.78 433.76 358.72 435.43 360.66 437.07C360.64 437.74 360.62 438.4 360.59 439.06C358.35 437.07 356.05 435.15 353.69 433.33C353.71 432.14 353.76 430.93 353.78 429.74C356 431.5 358.33 433.07 360.8 434.47C360.8 434.51 360.78 434.56 360.78 434.63C360.75 435.18 360.73 435.75 360.71 436.3ZM356.8 428.34C356.75 428.43 356.75 428.57 356.87 428.66C358.99 430.38 361.12 432.09 363.27 433.81C362.72 433.76 362.17 433.74 361.6 433.69C361.55 433.69 361.53 433.69 361.49 433.69C358.93 432.25 356.5 430.63 354.22 428.78C355.02 428.59 355.91 428.43 356.8 428.34ZM361.51 441.71C361.51 441.71 361.51 441.71 361.51 441.71C361.53 441.33 361.53 440.91 361.55 440.53C361.74 440.46 361.85 440.21 361.67 440.05C361.65 440.02 361.6 440 361.58 439.98C361.59 439.76 361.66 438 361.67 437.78C361.87 437.74 362.03 437.46 361.83 437.28C361.81 437.27 361.71 437.18 361.69 437.17C361.71 436.39 361.76 435.63 361.78 434.86C361.85 434.83 361.92 434.79 361.97 434.74C363.93 434.88 365.92 435.02 367.89 435.13C367.91 435.13 367.93 435.13 367.95 435.13C367.93 438.13 365.39 440.32 362.79 441.33C362.38 441.49 361.94 441.62 361.51 441.71Z" id="d1BPlh8N2e"></path><path d="M357.83 443.15C356.16 443.15 354.51 442.97 352.96 442.81C352.69 442.79 352.39 442.58 352.39 442.22C352.42 440.89 352.7 430.27 352.73 428.94C352.57 428.8 352.53 428.62 352.57 428.43C352.62 428.21 352.78 428.02 352.98 427.95C354.88 427.38 356.91 427.09 358.81 427.09C360.96 427.09 362.95 427.45 364.71 428.18C367.22 429.21 369.05 432.02 369.05 434.83C369.05 437.85 367.13 440.59 364.07 441.97C362.24 442.77 360.27 443.15 357.83 443.15C357.83 443.15 357.83 443.15 357.83 443.15ZM353.03 428.11C352.87 428.16 352.75 428.3 352.71 428.48C352.69 428.57 352.69 428.71 352.82 428.85C352.83 428.85 352.85 428.86 352.89 428.89C352.67 436.9 352.55 441.35 352.53 442.24C352.53 442.49 352.73 442.65 352.96 442.67C354.51 442.86 356.16 443.02 357.83 443.02C357.83 443.02 357.83 443.02 357.83 443.02C360.25 443.02 362.22 442.65 364 441.85C367.02 440.5 368.91 437.83 368.91 434.86C368.91 432.09 367.13 429.37 364.66 428.37C362.9 427.61 360.94 427.27 358.81 427.27C356.91 427.27 354.93 427.57 353.03 428.11ZM356.82 442.15C356.82 442.15 356.8 442.15 356.75 442.15C356.75 442.11 356.75 442.08 356.75 442.08C356.75 442.01 356.71 441.97 356.66 441.92C356.45 441.77 355.38 441.01 353.46 439.63L353.53 437.07C353.6 437.14 353.64 437.18 353.65 437.19C355.54 438.83 357.51 440.46 359.52 441.97C359.53 441.97 359.58 442.01 359.68 442.08C359.56 442.09 359.49 442.1 359.47 442.1C358.99 442.15 358.49 442.17 357.97 442.17C357.6 442.17 357.21 442.17 356.82 442.15ZM359.27 441.97C357.35 440.5 355.47 438.97 353.67 437.39C353.66 437.54 353.64 438.25 353.6 439.54C355.48 440.87 356.52 441.61 356.73 441.76C356.82 441.85 356.87 441.92 356.89 441.99C357.76 442.03 358.54 442.01 359.27 441.97ZM355.86 442.08C355.02 442.01 354.19 441.92 353.46 441.85C353.46 441.85 353.44 441.85 353.39 441.85L353.44 440.21L356.14 442.1C355.97 442.09 355.88 442.08 355.86 442.08ZM355.61 441.92C355.48 441.82 354.81 441.34 353.6 440.48L353.55 441.71C354.44 441.81 355.12 441.87 355.61 441.92ZM359.98 441.94C360 441.9 360 441.76 359.89 441.69C357.76 440.07 355.63 438.35 353.6 436.55C353.58 436.53 353.58 436.53 353.55 436.53C353.55 436.52 353.54 436.52 353.51 436.5L353.58 433.9C353.65 433.95 353.68 433.98 353.69 433.99C356.05 435.82 358.35 437.76 360.59 439.77C360.6 439.77 360.6 439.78 360.62 439.79C360.58 440.93 360.55 441.56 360.55 441.69C360.55 441.76 360.55 441.81 360.57 441.87C360.57 441.88 360.59 441.91 360.62 441.97C360.56 441.98 360.53 441.99 360.53 441.99C360.37 442.01 360.21 442.03 360.05 442.06C360.04 442.06 360.01 442.06 359.95 442.06C359.97 441.99 359.98 441.95 359.98 441.94ZM353.71 436.46C355.75 438.24 357.85 439.98 360 441.58C360.09 441.65 360.16 441.76 360.16 441.9C360.25 441.87 360.37 441.87 360.46 441.85C360.46 441.81 360.43 441.76 360.43 441.69C360.44 441.51 360.5 440.07 360.5 439.89C358.31 437.9 356.05 436 353.74 434.22C353.73 434.36 353.72 435.1 353.69 436.43C353.7 436.45 353.71 436.45 353.71 436.46ZM361.44 441.71L361.49 440.46C361.51 440.44 361.53 440.44 361.53 440.43C361.6 440.41 361.67 440.32 361.69 440.25C361.69 440.18 361.67 440.14 361.62 440.07C361.62 440.06 361.58 440.03 361.51 439.98L361.6 437.69C361.63 437.68 361.64 437.67 361.65 437.67C361.74 437.65 361.83 437.58 361.83 437.49C361.85 437.42 361.83 437.35 361.76 437.3C361.75 437.29 361.7 437.25 361.6 437.17L361.69 434.77C361.72 434.75 361.73 434.74 361.74 434.74C361.78 434.72 361.85 434.7 361.9 434.65C361.9 434.65 361.91 434.64 361.92 434.63C365.49 434.88 367.47 435.01 367.86 435.04C367.89 435.04 367.89 435.04 367.91 435.04C367.91 435.04 367.95 435.04 368 435.04C368.01 435.09 368.02 435.13 368.02 435.13C368.02 438.29 365.33 440.43 362.81 441.39C362.4 441.55 361.99 441.67 361.53 441.78C361.53 441.78 361.49 441.79 361.44 441.81L361.44 441.71ZM361.6 441.62C362.01 441.51 362.4 441.39 362.77 441.26C365.21 440.32 367.82 438.24 367.86 435.2C367.28 435.16 362.58 434.85 361.99 434.81C361.94 434.83 361.9 434.88 361.85 434.9C361.85 435.05 361.81 435.79 361.76 437.12C361.83 437.17 361.87 437.21 361.87 437.21C361.99 437.3 362.01 437.42 361.99 437.53C361.97 437.65 361.85 437.76 361.74 437.81C361.73 437.95 361.71 438.66 361.67 439.93C361.71 439.96 361.73 439.97 361.74 439.98C361.83 440.07 361.87 440.18 361.85 440.3C361.83 440.39 361.74 440.48 361.65 440.55C361.64 440.76 361.6 441.52 361.6 441.62ZM360.57 439.11C358.33 437.1 356 435.18 353.67 433.37C353.67 433.37 353.66 433.36 353.65 433.35L353.74 429.55C353.81 429.61 353.84 429.64 353.85 429.65C356.05 431.41 358.4 433.01 360.87 434.38C360.87 434.38 360.89 434.39 360.91 434.4C360.9 434.44 360.89 434.46 360.89 434.47C360.87 434.51 360.87 434.56 360.87 434.61C360.86 434.73 360.84 435.34 360.8 436.43C357.47 433.6 355.62 432.02 355.25 431.7C355.11 431.59 354.9 431.66 354.86 431.82C354.83 431.86 354.83 431.95 354.93 432.02C355.32 432.36 357.28 434.02 360.8 437.01L360.69 439.22C360.62 439.15 360.58 439.12 360.57 439.11ZM360.55 438.9C360.55 438.78 360.58 438.18 360.62 437.1C357.13 434.13 355.2 432.49 354.81 432.16C354.7 432.07 354.65 431.93 354.7 431.79C354.74 431.63 354.93 431.52 355.09 431.52C355.18 431.52 355.27 431.54 355.34 431.61C355.69 431.91 357.47 433.42 360.66 436.14C360.69 435.22 360.71 434.71 360.71 434.61C360.71 434.56 360.71 434.51 360.73 434.49C358.33 433.14 356.02 431.59 353.87 429.87C353.87 430.1 353.84 431.24 353.78 433.28C356.83 435.72 359.09 437.59 360.55 438.9ZM367.54 434.17C367.53 434.16 367.52 434.15 367.52 434.15C365.51 432.09 363.29 430.17 360.96 428.46C360.95 428.45 360.88 428.39 360.75 428.3C360.69 428.35 360.65 428.38 360.64 428.39C360.59 428.43 360.55 428.53 360.55 428.59C360.55 428.64 360.57 428.71 360.64 428.78C362.74 430.33 364.78 432.09 366.67 433.97C366.68 433.97 366.73 434.02 366.81 434.1L364.25 433.92L357.14 428.21C357.25 428.19 357.31 428.18 357.33 428.18C358.45 428.11 359.54 428.11 360.55 428.23C360.56 428.23 360.59 428.24 360.66 428.25L360.66 428.25C360.84 428.28 360.94 428.29 360.96 428.3C361.9 428.41 362.77 428.64 363.54 428.91C363.54 428.91 363.55 428.91 363.57 428.91C363.58 428.93 363.59 428.94 363.59 428.94C363.61 428.96 363.61 428.98 363.66 429.01C365.12 430.15 366.47 431.45 367.63 432.89C367.64 432.89 367.65 432.91 367.66 432.91C367.77 433.28 367.84 433.67 367.91 434.06C367.91 434.07 367.94 434.11 367.98 434.19L367.54 434.17ZM367.79 434.03C367.75 433.69 367.68 433.35 367.57 433.03C366.4 431.59 365.07 430.31 363.61 429.17C363.57 429.14 363.54 429.1 363.52 429.05C362.83 428.8 362.08 428.62 361.28 428.48C363.54 430.17 365.67 432.05 367.61 434.01C367.65 434.02 367.78 434.03 367.79 434.03ZM366.47 433.92C364.62 432.09 362.63 430.4 360.59 428.89C360.5 428.82 360.43 428.71 360.43 428.59C360.43 428.53 360.46 428.43 360.48 428.37C359.57 428.27 358.58 428.25 357.6 428.32C358.05 428.68 360.3 430.51 364.34 433.78C365.62 433.87 366.33 433.91 366.47 433.92ZM361.6 433.76C361.58 433.76 361.53 433.76 361.51 433.76C361.51 433.76 361.5 433.76 361.49 433.76C361.47 433.75 361.46 433.74 361.46 433.74C358.88 432.3 356.41 430.65 354.15 428.8C354.14 428.79 354.1 428.76 354.03 428.71C354.13 428.68 354.18 428.67 354.19 428.66C355.04 428.46 355.91 428.32 356.8 428.23C356.81 428.23 356.85 428.22 356.94 428.21C356.9 428.27 356.87 428.31 356.87 428.32C356.85 428.37 356.82 428.46 356.91 428.55C357.35 428.91 359.55 430.69 363.5 433.9C362.36 433.81 361.73 433.77 361.6 433.76ZM361.62 433.6C361.72 433.61 362.19 433.64 363.04 433.69C359.32 430.69 357.26 429.02 356.85 428.69C356.75 428.62 356.71 428.5 356.71 428.41C355.91 428.5 355.13 428.62 354.4 428.8C356.62 430.58 359.02 432.21 361.53 433.6C361.53 433.6 361.55 433.6 361.58 433.6C361.6 433.6 361.6 433.6 361.62 433.6Z" id="c2gmUQt6hx"></path></defs><g><g><g><use xlink:href="#d1NM1uNaBB" opacity="1" fill="#000000" fill-opacity="1"></use><g><use xlink:href="#d1NM1uNaBB" opacity="1" fill-opacity="0" stroke="#000000" stroke-width="1" stroke-opacity="0"></use></g></g><g><use xlink:href="#hekRpOo3n" opacity="1" fill="#180f0b" fill-opacity="1"></use><g><use xlink:href="#hekRpOo3n" opacity="1" fill-opacity="0" stroke="#000000" stroke-width="1" stroke-opacity="0"></use></g></g><g><use xlink:href="#d1BPlh8N2e" opacity="1" fill="#000000" fill-opacity="1"></use><g><use xlink:href="#d1BPlh8N2e" opacity="1" fill-opacity="0" stroke="#000000" stroke-width="1" stroke-opacity="0"></use></g></g><g><use xlink:href="#c2gmUQt6hx" opacity="1" fill="#180f0b" fill-opacity="1"></use><g><use xlink:href="#c2gmUQt6hx" opacity="1" fill-opacity="0" stroke="#000000" stroke-width="1" stroke-opacity="0"></use></g></g></g></g></svg>