<?xml version="1.0" ?><svg id="图层_1" style="enable-background:new -239 241 32 32;" version="1.1" viewBox="-239 241 32 32" xml:space="preserve" xmlns="http://www.w3.org/2000/svg" xmlns:xlink="http://www.w3.org/1999/xlink"><style type="text/css">
	.st0{fill:#F42F42;}
	.st1{opacity:0.2038;fill:#332E0A;enable-background:new    ;}
	.st2{fill:none;stroke:#0A2933;stroke-linejoin:round;}
	.st3{fill:none;stroke:#FFFFFF;stroke-linecap:round;stroke-linejoin:round;stroke-dasharray:1,2,6,2,3;}
</style><path class="st0" d="M-214,260.5c0,1.3-0.3,2.4-1,3.4c-0.6,0.9-1.6,1.6-2.8,2.1c-1.2,0.5-2.8,0.7-4.5,0.7c-1.7,0-3.2-0.3-4.4-0.8  c-1.2-0.5-2.1-1.2-2.7-2s-0.9-1.6-0.9-2.4c0-0.5,0.2-1,0.6-1.3c0.4-0.4,0.8-0.6,1.4-0.6c0.5,0,0.9,0.1,1.1,0.4  c0.3,0.2,0.5,0.6,0.8,1c0.5,0.8,1.1,1.5,1.7,1.9c0.7,0.4,1.6,0.6,2.8,0.6c0.9,0,1.7-0.2,2.3-0.6s0.9-0.9,0.9-1.4  c0-0.8-0.3-1.4-0.9-1.8c-0.6-0.4-1.7-0.7-3.1-1.1c-1.6-0.4-3-0.8-4-1.3s-1.8-1-2.5-1.8c-0.6-0.7-0.9-1.6-0.9-2.7  c0-0.9,0.3-1.8,0.9-2.7c0.6-0.8,1.4-1.5,2.5-2c1.1-0.5,2.4-0.8,4-0.8c1.2,0,2.3,0.1,3.3,0.4c1,0.3,1.8,0.6,2.4,1  c0.7,0.4,1.2,0.9,1.5,1.4c0.3,0.5,0.5,1,0.5,1.5c0,0.5-0.2,1-0.5,1.3c-0.4,0.3-0.9,0.5-1.6,0.5c-0.5,0-0.9-0.1-1.2-0.4  c-0.3-0.3-0.7-0.7-1.2-1.2c-0.4-0.5-0.8-0.8-1.3-1.1c-0.5-0.3-1.1-0.4-2-0.4c-0.9,0-1.6,0.2-2.1,0.5c-0.6,0.4-0.9,0.8-0.9,1.4  c0,0.5,0.2,0.9,0.6,1.2c0.4,0.3,1,0.6,1.7,0.8s1.7,0.5,2.9,0.8c1.5,0.4,2.7,0.8,3.6,1.3c0.9,0.5,1.6,1.1,2.1,1.8  C-214.3,258.9-214,259.6-214,260.5z"/><path class="st1" d="M-230.2,261c0.1,0.5,0.4,1,0.8,1.5c0.6,0.8,1.5,1.4,2.7,2c1.2,0.5,2.7,0.8,4.4,0.8  c1.8,0,3.3-0.2,4.5-0.7c1.2-0.5,2.2-1.2,2.8-2.1c0.5-0.7,0.8-1.6,0.9-2.5c0,0.2,0,0.4,0,0.6c0,1.3-0.3,2.4-1,3.4  c-0.6,0.9-1.6,1.6-2.8,2.1c-1.2,0.5-2.8,0.7-4.5,0.7c-1.7,0-3.2-0.3-4.4-0.8c-1.2-0.5-2.1-1.2-2.7-2s-0.9-1.6-0.9-2.4  C-230.3,261.4-230.2,261.2-230.2,261z" id="Combined-Shape"/><path class="st2" d="M-214,260.5c0,1.3-0.3,2.4-1,3.4c-0.6,0.9-1.6,1.6-2.8,2.1c-1.2,0.5-2.8,0.7-4.5,0.7c-1.7,0-3.2-0.3-4.4-0.8  c-1.2-0.5-2.1-1.2-2.7-2s-0.9-1.6-0.9-2.4c0-0.5,0.2-1,0.6-1.3c0.4-0.4,0.8-0.6,1.4-0.6c0.5,0,0.9,0.1,1.1,0.4  c0.3,0.2,0.5,0.6,0.8,1c0.5,0.8,1.1,1.5,1.7,1.9c0.7,0.4,1.6,0.6,2.8,0.6c0.9,0,1.7-0.2,2.3-0.6s0.9-0.9,0.9-1.4  c0-0.8-0.3-1.4-0.9-1.8c-0.6-0.4-1.7-0.7-3.1-1.1c-1.6-0.4-3-0.8-4-1.3s-1.8-1-2.5-1.8c-0.6-0.7-0.9-1.6-0.9-2.7  c0-0.9,0.3-1.8,0.9-2.7c0.6-0.8,1.4-1.5,2.5-2c1.1-0.5,2.4-0.8,4-0.8c1.2,0,2.3,0.1,3.3,0.4c1,0.3,1.8,0.6,2.4,1  c0.7,0.4,1.2,0.9,1.5,1.4c0.3,0.5,0.5,1,0.5,1.5c0,0.5-0.2,1-0.5,1.3c-0.4,0.3-0.9,0.5-1.6,0.5c-0.5,0-0.9-0.1-1.2-0.4  c-0.3-0.3-0.7-0.7-1.2-1.2c-0.4-0.5-0.8-0.8-1.3-1.1c-0.5-0.3-1.1-0.4-2-0.4c-0.9,0-1.6,0.2-2.1,0.5c-0.6,0.4-0.9,0.8-0.9,1.4  c0,0.5,0.2,0.9,0.6,1.2c0.4,0.3,1,0.6,1.7,0.8s1.7,0.5,2.9,0.8c1.5,0.4,2.7,0.8,3.6,1.3c0.9,0.5,1.6,1.1,2.1,1.8  C-214.3,258.9-214,259.6-214,260.5z"/><path class="st3" d="M-228,250.7c1-1.5,2.5-2.2,4.4-2.2" id="Path-21"/></svg>