<?xml version="1.0" encoding="UTF-8" standalone="no"?>
<!DOCTYPE svg PUBLIC "-//W3C//DTD SVG 1.1//EN" "http://www.w3.org/Graphics/SVG/1.1/DTD/svg11.dtd">
<svg version="1.1" xmlns="http://www.w3.org/2000/svg" xmlns:xlink="http://www.w3.org/1999/xlink" preserveAspectRatio="xMidYMid meet" viewBox="434.0771428571428 414.83428571428567 51.823291896635 63.085714285714346" width="51.82" height="63.09"><defs><path d="M479.41 446.17C479.52 446.01 479.45 445.69 479.18 445.65C479.04 445.62 478.88 445.6 478.74 445.6C476.43 443.7 473.74 442.24 471.02 441.26C470.83 441.19 470.7 441.23 470.61 441.3C467.27 439.18 463.18 437.85 459.5 436.5C461.78 434.58 464.55 433.03 467.61 433.3C467.7 433.35 467.82 433.37 467.93 433.35C468 433.35 468.07 433.37 468.16 433.37C469.78 433.65 471.06 434.61 472.18 435.73C473.46 436.98 474.65 438.35 475.86 439.66C476.05 439.84 476.41 439.86 476.57 439.66C476.99 439.17 480.34 435.28 480.75 434.79C481.46 433.99 482.15 433.17 482.86 432.37C483.27 431.89 484.09 431.22 484.09 430.51C484.09 429.85 483.47 429.39 483.04 428.98C482.33 428.32 481.6 427.68 480.87 427.09C479.34 425.85 477.71 424.73 476 423.73C475.93 423.68 475.86 423.66 475.79 423.66C475.59 423.36 475.31 423.13 475.06 422.9C474.51 422.35 473.94 421.85 473.35 421.35C469.28 417.94 464.32 415.63 459.04 415.04C449.58 413.97 439.25 419.95 437.87 429.85C437.28 434.13 438.42 438.58 441.17 441.92C442.38 443.38 443.86 444.46 445.51 445.3C445.55 445.39 445.62 445.46 445.74 445.53C448.73 446.88 451.73 448.25 454.58 449.85C455.95 450.63 457.28 451.47 458.58 452.39C459.77 453.23 460.91 454.24 461.53 455.57C461.55 457.23 460.73 458.88 459.06 459.45C456.46 460.37 453.17 458.31 450.97 457.12C448.25 455.66 445.69 453.9 443.34 451.91C443.06 451.68 442.74 451.73 442.54 452C440.3 455.13 437.71 457.94 434.81 460.48C434.4 460.32 433.92 460.91 434.29 461.33C436.96 464.59 440.37 467.18 444.14 468.98C452.07 476 462.95 480.21 473.35 476.41C475.31 475.7 477.12 474.67 478.72 473.39C478.86 473.39 478.99 473.28 479.04 473.14C484.91 468.27 487.73 460.11 484.37 452.71C483.22 450.19 481.49 448 479.41 446.17ZM484.09 454.81C482.77 453.83 481.44 452.87 480.09 451.89C479.41 451.38 478.08 449.92 477.05 450.22C477.05 450.22 477.05 450.22 477.05 450.19C476.89 449.39 476.66 448.66 476.39 447.95C478.42 448.73 480.37 449.74 482.19 450.93C482.33 451.11 482.45 451.27 482.54 451.43C483.2 452.5 483.73 453.65 484.09 454.81ZM476.09 447.2C475.86 446.7 475.59 446.24 475.29 445.78C475.31 445.78 475.34 445.78 475.36 445.81C476.14 445.9 476.94 445.99 477.71 446.1C479.02 447.13 480.23 448.32 481.28 449.65C479.63 448.66 477.9 447.86 476.09 447.2ZM475.36 445.19C475.18 445.17 475.09 445.3 475.06 445.44C474.49 444.64 473.85 443.91 473.12 443.25C474.38 443.84 475.59 444.55 476.73 445.35C476.27 445.3 475.82 445.23 475.36 445.19ZM458.58 436.16C458.54 436.14 458.49 436.14 458.45 436.11C458.47 436.02 458.45 435.95 458.35 435.86C456.11 434.06 453.87 432.25 451.63 430.45C451.7 430.17 451.84 429.9 452 429.62C452.18 429.3 452.43 429.05 452.71 428.85C455.09 430.88 457.44 432.91 459.82 434.97C459.43 435.25 459.09 435.52 458.74 435.82C458.63 435.93 458.58 436.05 458.58 436.16ZM452.27 432.87C451.77 432.37 451.52 431.79 451.52 431.18C453.35 432.62 455.18 434.08 456.98 435.57C455.29 434.9 453.53 434.08 452.27 432.87ZM460.25 434.54C457.92 432.53 455.57 430.51 453.23 428.5C453.94 428.14 454.77 427.98 455.52 427.93C455.63 427.93 455.73 427.91 455.84 427.91C455.82 428.02 455.84 428.16 455.95 428.25C458.08 429.81 459.95 431.66 461.55 433.76C461.55 433.78 461.58 433.78 461.58 433.78C461.14 434.06 460.71 434.33 460.3 434.61C460.27 434.58 460.27 434.56 460.25 434.54ZM462.08 433.46C460.48 431.36 458.63 429.51 456.5 427.91C457.33 427.93 458.15 428.07 458.95 428.27C460.43 429.83 461.92 431.36 463.41 432.91C462.97 433.1 462.54 433.28 462.1 433.51C462.1 433.49 462.08 433.49 462.08 433.46ZM463.98 432.64C462.7 431.31 461.44 430.01 460.16 428.69C462.33 429.51 464.34 430.9 466.19 432.27C465.46 432.32 464.73 432.48 464.02 432.69C464 432.66 464 432.64 463.98 432.64ZM468.91 432.55C469.35 432.16 469.76 431.75 470.19 431.34C472.37 433.12 474.42 435.04 476.32 437.12C476.59 437.42 477.01 436.98 476.75 436.69C474.86 434.61 472.82 432.69 470.63 430.9C471.09 430.47 471.52 430.01 471.95 429.55C474.29 431.54 476.41 433.76 478.33 436.14C477.6 436.94 476.89 437.74 476.21 438.56C474.1 436.23 472 433.44 468.91 432.55ZM482.72 430.97C481.85 429.81 480.91 428.71 479.95 427.63C481.07 428.48 483.29 430.26 482.9 430.74C482.83 430.81 482.77 430.9 482.72 430.97ZM477.17 425.67C479.04 427.45 480.78 429.37 482.33 431.45C482.08 431.77 481.81 432.09 481.53 432.41C479.79 430.03 477.74 427.95 475.38 426.17C475.06 425.94 474.77 426.47 475.09 426.7C477.39 428.46 479.43 430.54 481.14 432.89C480.82 433.26 480.5 433.65 480.18 434.01C478.49 431.66 476.48 429.58 474.17 427.82C473.85 427.59 473.55 428.11 473.87 428.34C476.11 430.08 478.08 432.11 479.75 434.42C479.77 434.45 479.79 434.47 479.82 434.49C479.45 434.9 479.11 435.31 478.74 435.73C476.82 433.35 474.72 431.15 472.39 429.17C473.14 428.37 473.87 427.54 474.61 426.72C474.95 426.22 475.66 425.58 475.93 424.89C476.34 425.14 476.75 425.39 477.17 425.67ZM454.63 448.71C456.82 449.53 459.02 450.63 460.43 452.55C459.11 451.34 457.49 450.38 456.02 449.51C455.57 449.23 455.11 448.96 454.63 448.71ZM443.41 467.5C440.43 465.87 437.74 463.77 435.5 461.21C438.31 458.74 440.85 456 443.04 452.98C445.17 454.72 447.43 456.27 449.81 457.65C452.11 458.97 454.65 460.37 457.33 460.64C459.52 460.87 461.39 459.63 462.17 457.62C462.33 457.19 462.42 456.75 462.47 456.3C462.63 456.21 462.72 456 462.65 455.77C462.61 455.63 462.54 455.5 462.49 455.36C462.4 454.03 461.85 452.75 461.05 451.73C459.57 449.78 457.26 448.69 455.04 447.84C452.41 446.81 449.69 446.13 447.11 445.01C442.33 442.9 439.29 438.83 438.74 433.6C437.71 423.7 446.56 416.46 455.84 415.98C461.01 415.7 466.06 417.58 470.31 420.39C471.38 421.1 472.37 421.9 473.35 422.74C473.85 423.18 474.31 423.63 474.79 424.11C475.31 424.64 473.92 425.9 473.6 426.26C471.79 428.37 469.83 430.35 467.77 432.23C463.79 429.23 458.58 425.58 453.39 427.38C453.05 427.5 452.73 427.66 452.41 427.86C452.41 427.86 452.41 427.86 452.41 427.86C452.14 427.63 451.75 427.98 451.93 428.23C451.43 428.66 451.02 429.21 450.74 429.78C450.74 429.78 450.7 429.74 450.7 429.74C450.4 429.49 449.97 429.92 450.26 430.17C450.35 430.24 450.45 430.31 450.54 430.4C450.38 431.09 450.42 431.84 450.79 432.53C451.98 434.74 454.88 435.77 457.05 436.69C462.33 438.86 468.18 440.02 472.48 444.05C476.85 448.14 477.23 454.93 475.57 460.34C474.08 465.19 470.17 468.14 465.65 469.67C465.65 469.67 465.62 469.65 465.62 469.65C465.44 469.42 465.14 469.6 465.12 469.85C464.5 470.03 463.89 470.22 463.27 470.35C463.25 470.33 463.22 470.29 463.18 470.26C462.97 470.03 462.67 470.24 462.67 470.49C460.16 470.99 457.55 471.13 455.15 470.97C451.52 470.74 447.98 469.78 444.69 468.21C444.5 467.95 444.27 467.75 444.05 467.54C443.84 467.36 443.59 467.38 443.41 467.5ZM450.33 471.18C450.26 471.29 450.24 471.43 450.38 471.54C451.2 472.3 452.02 473.05 452.87 473.78C450.9 472.82 449.05 471.63 447.29 470.29C448.3 470.63 449.3 470.93 450.33 471.18ZM451.04 471.34C452 471.54 452.96 471.7 453.94 471.82C453.97 471.86 453.99 471.91 454.03 471.95C454.44 472.34 457.7 475.45 458.1 475.84C456.94 475.52 455.79 475.11 454.7 474.65C453.49 473.55 452.27 472.46 451.04 471.34ZM458.99 475.86C457.62 474.54 456.23 473.21 454.86 471.91C455.75 471.98 456.66 472.02 457.55 472C459.11 473.55 460.66 475.11 462.24 476.66C461.17 476.55 460.11 476.34 459.09 476.09C459.09 476.02 459.06 475.93 458.99 475.86ZM462.86 476.46C461.37 474.97 459.89 473.49 458.38 472C459.09 471.98 459.82 471.91 460.53 471.84C462.03 473.51 463.54 475.2 465.05 476.87C464.37 476.85 463.63 476.82 462.93 476.75C462.97 476.66 462.95 476.55 462.86 476.46ZM465.6 476.53C464.16 474.93 462.72 473.33 461.28 471.73C461.99 471.63 462.72 471.5 463.43 471.34C464.89 472.91 466.26 474.56 467.57 476.27C467.79 476.57 468.32 476.27 468.09 475.98C466.83 474.33 465.49 472.73 464.09 471.18C464.66 471.04 465.21 470.88 465.76 470.7C467.34 472.59 468.98 474.42 470.7 476.18C469.05 476.59 467.36 476.82 465.67 476.85C465.71 476.75 465.69 476.64 465.6 476.53ZM466.38 470.49C467.09 470.24 467.79 469.94 468.46 469.62C470.17 471.5 471.91 473.35 473.62 475.22C472.89 475.5 472.16 475.77 471.38 476C469.65 474.24 467.98 472.39 466.38 470.49ZM474.15 474.86C472.43 473.01 470.74 471.15 469.03 469.3C469.53 469.03 470.03 468.75 470.51 468.43C472.25 470.35 473.99 472.25 475.73 474.17C475.25 474.47 474.72 474.72 474.19 474.95C474.17 474.93 474.17 474.9 474.15 474.86ZM471.02 468.11C471.54 467.75 472.07 467.34 472.55 466.9C474.49 468.71 476.32 470.65 478.01 472.69C477.46 473.1 476.89 473.51 476.27 473.87C474.51 471.95 472.78 470.03 471.02 468.11ZM473.01 466.47C473.33 466.15 473.65 465.83 473.94 465.46C473.97 465.44 473.99 465.39 474.03 465.37C474.08 465.44 474.15 465.46 474.24 465.46C474.25 465.46 474.32 465.46 474.33 465.46C474.38 465.46 474.4 465.46 474.45 465.44C474.49 465.49 474.56 465.55 474.65 465.6C474.93 465.87 475.18 466.15 475.45 466.45C475.89 466.9 476.32 467.38 476.78 467.84C477.65 468.78 478.54 469.71 479.41 470.63C479.68 470.9 480.09 470.49 479.84 470.19C478.79 469.07 477.74 467.95 476.69 466.83C476.16 466.29 475.63 465.71 475.11 465.17C474.9 464.94 474.77 464.8 474.56 464.71C474.93 464.21 475.27 463.66 475.57 463.09C475.57 463.13 475.61 463.2 475.66 463.25C477.65 465.19 479.59 467.2 481.46 469.26C480.57 470.4 479.59 471.41 478.51 472.3C476.8 470.24 474.97 468.3 473.01 466.47ZM476.05 462.86C475.93 462.74 475.79 462.74 475.7 462.81C476 462.22 476.25 461.6 476.48 460.96C478.4 462.33 480.25 463.82 482.03 465.37C482.33 465.62 482.77 465.21 482.47 464.94C480.64 463.29 478.7 461.76 476.69 460.34C476.87 459.77 477.01 459.18 477.12 458.58C479.15 460.39 481.19 462.17 483.22 463.98C483.52 464.23 483.95 463.82 483.66 463.54C481.53 461.67 479.38 459.77 477.26 457.9C477.65 455.54 477.6 453.1 477.21 450.83C477.71 450.65 478.56 451.5 478.88 451.73C479.5 452.18 480.14 452.64 480.75 453.12C481.9 453.97 483.06 454.81 484.21 455.66C484.25 455.7 484.3 455.7 484.37 455.7C484.55 456.46 484.69 457.23 484.75 458.01C484.73 457.97 484.71 457.92 484.66 457.87C482.65 456.18 480.64 454.49 478.61 452.8C478.31 452.55 477.87 452.98 478.17 453.23C478.78 453.74 483.62 457.8 484.23 458.31C484.46 458.49 484.73 458.31 484.75 458.1C484.98 460.85 484.48 463.66 483.25 466.26C482.83 467.15 482.35 468 481.78 468.8C479.93 466.77 478.01 464.78 476.05 462.86Z" id="b1Q3fcwkl7"></path><path d="M444.09 469.05C440.25 467.2 436.82 464.55 434.22 461.37C434.06 461.19 434.03 460.94 434.15 460.73C434.26 460.46 434.56 460.32 434.81 460.39C437.71 457.85 440.3 455.02 442.49 451.95C442.72 451.63 443.11 451.59 443.41 451.84C445.83 453.87 448.41 455.63 451.04 457.05C451.25 457.17 451.47 457.28 451.7 457.42C453.46 458.4 455.66 459.61 457.69 459.61C458.19 459.61 458.65 459.54 459.06 459.38C460.55 458.86 461.49 457.37 461.49 455.59C460.82 454.19 459.59 453.17 458.56 452.43C457.26 451.52 455.93 450.65 454.58 449.9C451.82 448.34 449.05 447.09 445.74 445.58C445.62 445.53 445.53 445.44 445.49 445.35C443.66 444.41 442.24 443.29 441.14 441.97C438.42 438.67 437.21 434.26 437.83 429.85C438.42 425.55 440.8 421.67 444.53 418.9C448.05 416.27 452.41 414.83 456.87 414.83C457.62 414.83 458.35 414.88 459.09 414.97C464.25 415.57 469.21 417.76 473.42 421.3C474.1 421.87 474.65 422.38 475.13 422.86C475.18 422.9 475.25 422.97 475.29 423.02C475.47 423.2 475.68 423.38 475.84 423.61C475.91 423.63 475.98 423.66 476.02 423.68C477.81 424.73 479.45 425.85 480.89 427.04C481.76 427.75 482.45 428.34 483.09 428.94C483.15 429.01 483.2 429.05 483.27 429.12C483.68 429.51 484.16 429.92 484.16 430.54C484.16 431.13 483.63 431.68 483.22 432.11C483.11 432.23 482.99 432.34 482.9 432.46C482.27 433.19 477.25 439.02 476.62 439.75C476.53 439.86 476.37 439.93 476.21 439.93C476.05 439.93 475.89 439.86 475.79 439.75C475.43 439.34 475.04 438.95 474.67 438.54C473.85 437.62 473.01 436.69 472.11 435.82C471.15 434.88 469.85 433.76 468.14 433.49C468.07 433.49 468 433.46 467.93 433.46C467.82 433.49 467.68 433.49 467.59 433.42C465.05 433.19 462.38 434.22 459.66 436.5C460.09 436.66 460.53 436.82 460.98 436.98C464.3 438.17 467.73 439.41 470.63 441.26C470.77 441.17 470.93 441.17 471.09 441.23C473.92 442.29 476.59 443.77 478.81 445.58C478.85 445.58 479.18 445.62 479.22 445.62C479.36 445.65 479.47 445.74 479.54 445.85C479.59 445.97 479.59 446.08 479.54 446.19C481.74 448.14 483.38 450.31 484.46 452.71C486.06 456.25 486.33 460.14 485.26 463.93C484.25 467.47 482.08 470.77 479.13 473.23C479.09 473.39 478.93 473.51 478.79 473.51C477.17 474.81 475.36 475.82 473.42 476.53C470.77 477.44 468.02 477.92 465.23 477.92C458.06 477.92 450.56 474.77 444.09 469.05ZM434.29 460.78C434.22 460.94 434.24 461.12 434.35 461.26C436.96 464.41 440.37 467.06 444.18 468.91C444.19 468.92 444.2 468.93 444.21 468.94C450.63 474.63 458.1 477.76 465.26 477.76C468.05 477.76 470.77 477.28 473.35 476.34C475.27 475.63 477.07 474.63 478.7 473.35C478.7 473.35 478.71 473.34 478.72 473.33C478.73 473.33 478.74 473.33 478.74 473.33C478.74 473.33 478.74 473.33 478.74 473.33C478.86 473.33 478.95 473.23 478.97 473.12C478.97 473.12 478.97 473.11 478.97 473.1C478.99 473.08 478.99 473.08 478.99 473.07C485.3 467.84 487.45 459.66 484.3 452.71C483.22 450.33 481.55 448.14 479.36 446.22C479.36 446.21 479.34 446.2 479.31 446.17C479.34 446.14 479.36 446.13 479.36 446.13C479.41 446.06 479.41 445.97 479.38 445.87C479.36 445.83 479.31 445.74 479.18 445.74C479.15 445.73 478.99 445.72 478.72 445.69C478.71 445.68 478.7 445.67 478.7 445.67C476.48 443.86 473.83 442.38 470.99 441.33C470.86 441.28 470.74 441.3 470.65 441.37C470.65 441.37 470.63 441.38 470.61 441.39C470.58 441.38 470.56 441.37 470.56 441.37C467.66 439.52 464.23 438.29 460.91 437.1C460.43 436.91 459.95 436.75 459.47 436.57C459.47 436.57 459.43 436.55 459.36 436.53C459.41 436.47 459.45 436.44 459.45 436.43C462.26 434.06 465.01 432.98 467.61 433.23C467.61 433.23 467.63 433.23 467.63 433.23C467.7 433.28 467.79 433.28 467.89 433.26C467.89 433.26 467.89 433.26 467.91 433.26C467.92 433.26 467.93 433.26 467.93 433.26C468 433.26 468.09 433.28 468.16 433.28C469.92 433.58 471.27 434.7 472.23 435.66C473.12 436.53 473.97 437.46 474.79 438.38C475.15 438.79 475.52 439.2 475.91 439.59C476.05 439.75 476.37 439.75 476.5 439.59C477.13 438.86 482.16 433.03 482.79 432.3C482.88 432.18 482.99 432.07 483.11 431.95C483.52 431.54 484.02 431.02 484.02 430.49C484.02 429.94 483.57 429.55 483.18 429.19C483.11 429.12 483.04 429.07 482.99 429.01C482.38 428.41 481.67 427.82 480.82 427.11C479.36 425.92 477.74 424.8 475.98 423.77C475.93 423.75 475.86 423.73 475.82 423.7C475.82 423.7 475.81 423.7 475.79 423.7C475.78 423.69 475.77 423.68 475.77 423.68C475.61 423.47 475.41 423.27 475.22 423.09C475.15 423.04 475.11 422.97 475.06 422.93C474.58 422.45 474.03 421.97 473.35 421.39C469.14 417.85 464.21 415.68 459.09 415.09C458.35 414.99 457.62 414.97 456.87 414.97C448.73 414.97 439.34 420.18 437.99 429.83C437.37 434.19 438.58 438.56 441.26 441.83C442.35 443.15 443.75 444.25 445.58 445.19C445.58 445.19 445.59 445.2 445.6 445.21C445.6 445.23 445.6 445.23 445.6 445.23C445.62 445.3 445.69 445.37 445.78 445.42C449.12 446.93 451.89 448.18 454.65 449.74C456 450.49 457.35 451.36 458.65 452.27C459.7 453.01 460.96 454.06 461.65 455.5C461.65 455.5 461.65 455.52 461.65 455.52C461.67 457.39 460.69 458.95 459.13 459.47C458.7 459.63 458.22 459.7 457.69 459.7C455.63 459.7 453.42 458.47 451.63 457.49C451.41 457.35 451.18 457.23 450.97 457.12C448.34 455.7 445.76 453.94 443.31 451.91C443.09 451.73 442.81 451.75 442.63 452C440.41 455.09 437.81 457.94 434.9 460.48C434.9 460.48 434.88 460.49 434.86 460.5C434.83 460.49 434.81 460.48 434.81 460.48C434.74 460.53 434.7 460.5 434.67 460.5C434.51 460.5 434.35 460.62 434.29 460.78ZM465.07 476.94C464.37 476.94 463.63 476.89 462.93 476.82C462.92 476.82 462.89 476.82 462.83 476.82C462.86 476.77 462.88 476.74 462.88 476.73C462.9 476.69 462.9 476.59 462.83 476.5C462.53 476.2 461 474.67 458.24 471.91C458.35 471.91 458.41 471.91 458.42 471.91C459.13 471.89 459.86 471.82 460.57 471.75C460.57 471.75 460.59 471.75 460.62 471.75L465.23 476.94C465.14 476.94 465.08 476.94 465.07 476.94ZM464.89 476.78C464.45 476.29 460.94 472.4 460.5 471.91C459.86 471.98 459.2 472.02 458.56 472.07C458.99 472.5 462.47 475.98 462.9 476.41C462.99 476.48 463.04 476.57 463.02 476.69C463.63 476.73 464.27 476.78 464.89 476.78ZM465.6 476.82C465.62 476.78 465.65 476.69 465.55 476.59C465.26 476.27 463.79 474.63 461.14 471.68C461.23 471.67 461.27 471.66 461.28 471.66C461.97 471.57 462.7 471.43 463.41 471.27C463.41 471.27 463.42 471.27 463.45 471.27C463.47 471.28 463.47 471.29 463.47 471.29C464.96 472.91 466.35 474.58 467.63 476.25C467.7 476.34 467.77 476.34 467.84 476.34C467.93 476.34 468.05 476.3 468.07 476.21C468.09 476.14 468.09 476.09 468.05 476.02C466.81 474.4 465.46 472.78 464.05 471.22C464.04 471.22 464.01 471.19 463.95 471.13C464.02 471.12 464.06 471.11 464.07 471.11C464.62 470.97 465.17 470.81 465.74 470.63C465.74 470.63 465.76 470.62 465.78 470.61C465.8 470.63 465.8 470.65 465.81 470.65C467.38 472.55 469.05 474.4 470.74 476.14C470.75 476.14 470.78 476.17 470.83 476.23C470.75 476.24 470.71 476.25 470.7 476.25C469.07 476.66 467.36 476.89 465.62 476.94C465.62 476.94 465.6 476.94 465.55 476.94C465.58 476.87 465.6 476.83 465.6 476.82ZM465.67 476.48C465.74 476.57 465.78 476.66 465.76 476.78C467.41 476.73 469.03 476.53 470.58 476.14C468.91 474.42 467.29 472.64 465.76 470.79C465.26 470.95 464.75 471.11 464.25 471.22C465.62 472.75 466.95 474.33 468.16 475.93C468.25 476.05 468.25 476.16 468.21 476.27C468.14 476.41 468 476.48 467.84 476.48C467.7 476.48 467.61 476.43 467.52 476.32C466.26 474.67 464.89 473.03 463.41 471.41C462.72 471.57 462.06 471.68 461.44 471.77C462.29 472.71 465.25 476.01 465.67 476.48ZM462.22 476.75C461.17 476.62 460.09 476.43 459.06 476.18C459.06 476.18 459.04 476.17 458.99 476.16C458.99 476.12 458.99 476.1 458.99 476.09C458.99 476.02 458.97 475.98 458.93 475.91C458.64 475.63 457.21 474.26 454.63 471.79C454.75 471.81 454.82 471.82 454.83 471.82C455.73 471.89 456.62 471.93 457.53 471.91C457.53 471.91 457.54 471.91 457.55 471.91L457.58 471.93L462.45 476.78C462.31 476.76 462.23 476.76 462.22 476.75ZM462.01 476.57C461.56 476.12 457.96 472.52 457.51 472.07C456.69 472.07 455.86 472.05 455.04 471.98C455.44 472.36 458.62 475.41 459.02 475.79C459.11 475.86 459.15 475.95 459.15 476.05C460.09 476.27 461.05 476.46 462.01 476.57ZM471.34 476.05C469.62 474.31 467.93 472.46 466.33 470.54C466.33 470.53 466.3 470.5 466.26 470.45C466.32 470.42 466.35 470.4 466.35 470.4C467.06 470.15 467.77 469.85 468.43 469.53C468.44 469.53 468.45 469.52 468.48 469.51L470.19 471.36L473.76 475.22C473.71 475.25 473.67 475.27 473.67 475.27C472.94 475.57 472.18 475.84 471.41 476.07C471.4 476.07 471.39 476.07 471.36 476.07C471.35 476.05 471.34 476.05 471.34 476.05ZM471.41 475.91C472.11 475.7 472.82 475.45 473.51 475.18C473 474.63 468.96 470.24 468.46 469.69C467.82 469.99 467.18 470.26 466.51 470.51C468.09 472.39 469.74 474.22 471.41 475.91ZM458.06 475.91C456.91 475.59 455.77 475.18 454.65 474.72C454.65 474.72 454.64 474.71 454.63 474.7L450.77 471.2C450.93 471.24 451.02 471.26 451.04 471.27C452 471.47 452.96 471.63 453.92 471.75C453.92 471.75 453.94 471.75 453.97 471.75C453.98 471.78 453.99 471.79 453.99 471.79C453.99 471.84 454.01 471.86 454.06 471.89C454.34 472.16 455.78 473.53 458.35 476C458.18 475.95 458.08 475.91 458.06 475.91ZM457.83 475.68C457.44 475.31 454.37 472.37 453.99 472C453.94 471.98 453.92 471.93 453.9 471.89C453.03 471.79 452.16 471.66 451.31 471.47C451.54 471.68 452.69 472.72 454.74 474.58C456.11 475.12 457.14 475.48 457.83 475.68ZM474.15 474.99C474.13 474.97 474.13 474.95 474.1 474.93C473.76 474.55 472.03 472.68 468.91 469.3C468.97 469.28 469 469.26 469.01 469.26C469.51 469.01 469.99 468.71 470.49 468.39C470.49 468.39 470.51 468.37 470.54 468.34L470.97 468.82L475.86 474.17C475.81 474.2 475.78 474.21 475.77 474.22C475.27 474.49 474.74 474.77 474.24 474.99C474.24 475 474.21 475.02 474.17 475.06C474.16 475.02 474.15 475 474.15 474.99ZM474.19 474.83C474.19 474.86 474.22 474.86 474.22 474.88C474.67 474.67 475.13 474.45 475.59 474.19C475.08 473.63 470.98 469.15 470.47 468.59C470.06 468.85 469.6 469.1 469.14 469.35C470.15 470.45 473.69 474.29 474.19 474.83ZM452.82 473.87C450.95 472.94 449.07 471.75 447.25 470.38C447.22 470.36 447.09 470.26 446.86 470.08C447.13 470.18 447.28 470.23 447.31 470.24C448.3 470.58 449.3 470.88 450.33 471.13C450.34 471.13 450.38 471.14 450.45 471.15C450.4 471.21 450.38 471.24 450.38 471.25C450.35 471.27 450.29 471.41 450.4 471.52C450.6 471.69 451.57 472.56 453.33 474.13C453.02 473.97 452.86 473.89 452.82 473.87ZM452.39 473.46C452.18 473.28 450.54 471.8 450.33 471.61C450.22 471.5 450.17 471.36 450.24 471.25C449.37 471.04 448.53 470.79 447.73 470.51C449.23 471.66 450.81 472.64 452.39 473.46ZM476 473.69L470.9 468.09C470.94 468.06 470.97 468.05 470.97 468.05C471.52 467.66 472.02 467.27 472.5 466.83C472.51 466.83 472.52 466.82 472.55 466.79C472.58 466.82 472.59 466.83 472.59 466.83C474.54 468.64 476.37 470.58 478.06 472.62C478.06 472.62 478.08 472.64 478.1 472.69C478.06 472.71 478.04 472.73 478.03 472.73C477.46 473.17 476.87 473.58 476.27 473.92C476.27 473.92 476.27 473.94 476.25 473.97L476 473.69ZM476.27 473.76C476.82 473.42 477.37 473.05 477.9 472.64C476.23 470.65 474.42 468.75 472.55 466.97C472.11 467.38 471.63 467.77 471.13 468.11C472.16 469.24 475.76 473.2 476.27 473.76ZM478.45 472.34C476.75 470.31 474.9 468.34 472.96 466.54C472.96 466.53 472.93 466.52 472.89 466.49C472.93 466.46 472.96 466.45 472.96 466.45C473.3 466.13 473.6 465.78 473.9 465.46C473.92 465.44 473.92 465.42 473.94 465.42C473.95 465.41 473.98 465.37 474.03 465.3C474.08 465.34 474.1 465.37 474.1 465.37C474.15 465.42 474.19 465.44 474.26 465.44C474.27 465.44 474.35 465.44 474.35 465.44C474.38 465.44 474.4 465.44 474.42 465.42C474.43 465.42 474.44 465.41 474.47 465.39C474.48 465.42 474.49 465.44 474.49 465.44C474.54 465.49 474.58 465.53 474.67 465.58C474.68 465.58 474.68 465.59 474.7 465.6C477.54 468.62 479.11 470.29 479.43 470.63C479.54 470.74 479.73 470.7 479.79 470.54C479.82 470.49 479.84 470.4 479.75 470.31C479.27 469.8 475.43 465.72 474.95 465.21C474.77 465.03 474.67 464.91 474.49 464.85C474.49 464.84 474.45 464.83 474.4 464.8C474.44 464.76 474.46 464.74 474.47 464.73C474.83 464.23 475.18 463.7 475.47 463.13C475.49 463.1 475.62 462.84 475.63 462.81C475.91 462.24 476.16 461.65 476.41 460.96C476.41 460.95 476.42 460.92 476.43 460.87C476.49 460.91 476.52 460.93 476.53 460.94C478.47 462.33 480.34 463.82 482.08 465.37C482.22 465.49 482.42 465.42 482.47 465.26C482.49 465.21 482.49 465.12 482.4 465.05C480.59 463.45 478.65 461.9 476.64 460.46C476.64 460.46 476.62 460.45 476.59 460.43C476.61 460.41 476.62 460.39 476.62 460.39C476.78 459.84 476.94 459.25 477.05 458.63C477.05 458.62 477.06 458.57 477.07 458.49C480.79 461.78 482.86 463.61 483.27 463.98C483.41 464.09 483.61 464.02 483.66 463.86C483.68 463.82 483.68 463.73 483.59 463.66C483.16 463.28 481.01 461.38 477.14 457.97C477.14 457.94 477.14 457.92 477.14 457.92C477.51 455.66 477.49 453.21 477.1 450.88C477.1 450.88 477.1 450.85 477.1 450.81C477.14 450.8 477.16 450.79 477.17 450.79C477.23 450.77 477.28 450.77 477.35 450.77C477.78 450.77 478.31 451.22 478.67 451.52C478.77 451.59 478.83 451.66 478.9 451.7C479.44 452.1 483.72 455.24 484.25 455.63C484.3 455.66 484.32 455.68 484.37 455.68C484.37 455.68 484.38 455.68 484.41 455.68C484.43 455.71 484.43 455.72 484.43 455.73C484.62 456.48 484.75 457.28 484.85 458.06C484.83 458.06 484.72 458.08 484.71 458.08C484.71 458.03 484.69 458.01 484.64 457.99C484.03 457.48 479.19 453.42 478.58 452.91C478.45 452.8 478.24 452.87 478.19 453.03C478.17 453.07 478.17 453.17 478.26 453.23C478.87 453.74 483.71 457.8 484.32 458.31C484.37 458.35 484.41 458.38 484.48 458.38C484.59 458.38 484.73 458.29 484.73 458.17C484.75 458.17 484.88 458.17 484.89 458.17C485.12 460.94 484.62 463.77 483.38 466.35C482.97 467.25 482.47 468.09 481.9 468.91C481.89 468.92 481.88 468.94 481.85 468.98C481.81 468.94 481.79 468.92 481.78 468.91C479.91 466.86 477.99 464.87 476.05 462.97C475.98 462.9 475.89 462.88 475.79 462.93C475.78 462.93 475.73 462.96 475.63 463.02C475.65 463.11 475.66 463.17 475.66 463.18C475.66 463.22 475.68 463.25 475.73 463.29C477.69 465.21 479.63 467.22 481.53 469.3C481.53 469.31 481.55 469.32 481.58 469.35C481.55 469.38 481.53 469.39 481.53 469.39C480.69 470.49 479.7 471.52 478.61 472.41C478.6 472.41 478.56 472.41 478.49 472.41C478.46 472.37 478.45 472.35 478.45 472.34ZM478.51 472.18C479.57 471.31 480.5 470.33 481.33 469.28C479.45 467.22 477.51 465.21 475.57 463.31C475.54 463.29 475.54 463.29 475.52 463.27C475.25 463.77 474.95 464.25 474.63 464.69C474.79 464.78 474.9 464.89 475.04 465.05C475.15 465.17 475.7 465.75 476.69 466.79C478.58 468.8 479.63 469.92 479.84 470.15C479.95 470.26 479.98 470.42 479.91 470.56C479.84 470.7 479.7 470.81 479.54 470.81C479.45 470.81 479.36 470.77 479.29 470.7C478.82 470.19 475.03 466.17 474.56 465.67C474.47 465.62 474.42 465.58 474.38 465.53C474.35 465.53 474.33 465.53 474.31 465.53C474.3 465.53 474.23 465.53 474.22 465.53C474.15 465.53 474.08 465.51 474.01 465.46C474.01 465.49 473.99 465.49 473.99 465.51C473.74 465.85 473.44 466.17 473.12 466.47C475.04 468.25 476.85 470.17 478.51 472.18ZM476.11 462.79C478.03 464.66 479.93 466.63 481.78 468.66C482.33 467.89 482.81 467.06 483.2 466.22C484.37 463.73 484.89 461.01 484.71 458.35C484.57 458.47 484.34 458.49 484.18 458.38C483.58 457.87 478.73 453.81 478.13 453.3C478.01 453.21 477.97 453.07 478.01 452.94C478.06 452.78 478.24 452.66 478.4 452.66C478.49 452.66 478.58 452.69 478.65 452.75C479.25 453.26 484.04 457.28 484.64 457.78C484.57 457.12 484.46 456.43 484.27 455.77C484.23 455.77 484.18 455.75 484.14 455.7C483.6 455.31 479.32 452.16 478.79 451.77C478.72 451.73 478.65 451.66 478.56 451.59C478.19 451.29 477.62 450.81 477.26 450.88C477.65 453.19 477.67 455.61 477.3 457.85C477.94 458.41 483.04 462.91 483.68 463.47C483.79 463.57 483.84 463.73 483.77 463.86C483.7 464.02 483.54 464.14 483.38 464.14C483.29 464.14 483.2 464.11 483.13 464.05C482.53 463.52 477.72 459.27 477.12 458.74C477.01 459.29 476.87 459.82 476.71 460.34C478.72 461.78 480.64 463.31 482.45 464.91C482.56 465.01 482.61 465.17 482.54 465.3C482.47 465.46 482.33 465.58 482.15 465.58C482.06 465.58 481.97 465.53 481.9 465.49C480.18 463.95 478.35 462.49 476.43 461.12C476.32 461.65 476.09 462.17 475.86 462.67C475.86 462.67 475.86 462.67 475.86 462.67C475.95 462.67 476.05 462.72 476.11 462.79ZM455.2 470.99C451.59 470.77 448.07 469.83 444.71 468.23C444.71 468.23 444.69 468.21 444.69 468.21C444.46 468 444.23 467.79 443.98 467.57C443.82 467.43 443.61 467.41 443.43 467.52C443.43 467.52 443.41 467.53 443.38 467.54C443.36 467.53 443.34 467.52 443.34 467.52C440.3 465.87 437.62 463.75 435.43 461.21C435.43 461.21 435.41 461.18 435.38 461.14C435.42 461.12 435.45 461.1 435.45 461.1C438.24 458.67 440.78 455.91 442.99 452.87C443 452.86 443.01 452.84 443.04 452.8C443.08 452.83 443.1 452.84 443.11 452.85C445.23 454.58 447.52 456.16 449.85 457.49C451.84 458.63 454.56 460.18 457.35 460.46C457.51 460.48 457.69 460.48 457.85 460.48C459.77 460.48 461.39 459.34 462.13 457.49C462.29 457.07 462.38 456.64 462.42 456.18C462.42 456.18 462.42 456.16 462.42 456.14C462.44 456.12 462.44 456.12 462.45 456.11C462.51 456.07 462.67 455.93 462.58 455.68C462.54 455.57 462.49 455.43 462.42 455.27C462.42 455.27 462.42 455.25 462.42 455.25C462.33 453.99 461.83 452.71 461.01 451.66C459.52 449.71 457.14 448.62 455.04 447.79C453.92 447.36 452.75 446.97 451.63 446.61C450.13 446.1 448.57 445.6 447.11 444.96C442.29 442.86 439.22 438.67 438.7 433.51C438.26 429.39 439.5 425.53 442.26 422.31C445.53 418.51 450.61 416.07 455.86 415.79C456.18 415.77 456.53 415.77 456.85 415.77C462.49 415.77 467.31 418.19 470.35 420.23C471.34 420.89 472.32 421.65 473.39 422.58C473.83 422.95 474.26 423.38 474.83 423.95C475.34 424.46 474.42 425.39 473.87 425.97C473.78 426.06 473.69 426.15 473.65 426.22C471.91 428.23 469.97 430.24 467.82 432.21C467.81 432.21 467.8 432.22 467.77 432.25C467.74 432.22 467.73 432.21 467.73 432.21C464.32 429.62 460.37 426.88 456.25 426.88C455.27 426.88 454.31 427.04 453.42 427.36C453.1 427.47 452.78 427.63 452.46 427.84C452.45 427.84 452.44 427.85 452.41 427.86C452.38 427.84 452.37 427.82 452.37 427.82C452.23 427.7 452.05 427.77 451.98 427.89C451.95 427.93 451.93 428 452 428.07C452 428.07 452.02 428.09 452.05 428.11C452.02 428.14 452 428.16 452 428.16C451.5 428.59 451.09 429.14 450.83 429.69C450.83 429.7 450.82 429.73 450.79 429.78C450.71 429.71 450.66 429.68 450.65 429.67C450.61 429.62 450.56 429.62 450.49 429.62C450.38 429.62 450.29 429.69 450.24 429.81C450.22 429.85 450.22 429.92 450.31 430.01C450.33 430.03 450.44 430.11 450.63 430.26C450.61 430.29 450.61 430.31 450.61 430.31C450.42 431.04 450.51 431.75 450.86 432.39C451.93 434.4 454.49 435.45 456.57 436.3C456.75 436.37 456.94 436.43 457.1 436.5C458.49 437.07 459.93 437.58 461.33 438.08C465.28 439.47 469.37 440.91 472.55 443.89C477.21 448.25 477.14 455.45 475.66 460.27C473.94 465.81 469.3 468.43 465.69 469.65C465.69 469.65 465.67 469.65 465.65 469.67C465.6 469.63 465.58 469.6 465.58 469.6C465.53 469.55 465.49 469.53 465.44 469.53C465.33 469.53 465.23 469.65 465.21 469.76C465.21 469.76 465.21 469.78 465.21 469.81C465.18 469.82 465.17 469.83 465.17 469.83C464.55 470.01 463.93 470.19 463.31 470.33C463.31 470.33 463.3 470.33 463.27 470.33C463.2 470.26 463.16 470.22 463.15 470.22C463.11 470.17 463.06 470.15 463.02 470.15C462.9 470.15 462.79 470.26 462.79 470.38C462.79 470.38 462.79 470.4 462.79 470.45C462.75 470.46 462.72 470.47 462.72 470.47C460.91 470.88 459.02 471.06 457.1 471.06C456.46 471.06 455.82 471.04 455.2 470.99ZM455.2 470.86C455.82 470.9 456.46 470.93 457.1 470.93C458.99 470.93 460.87 470.74 462.65 470.38C462.7 470.19 462.86 470.06 463.04 470.06C463.13 470.06 463.22 470.1 463.29 470.17C463.3 470.18 463.33 470.23 463.34 470.24C463.93 470.1 464.53 469.94 465.1 469.76C465.14 469.58 465.3 469.44 465.46 469.44C465.53 469.44 465.62 469.46 465.71 469.55C469.28 468.34 473.87 465.74 475.54 460.3C477.01 455.52 477.1 448.39 472.48 444.07C469.33 441.12 465.26 439.68 461.33 438.31C459.93 437.81 458.47 437.3 457.07 436.73C456.91 436.66 456.73 436.59 456.55 436.53C454.47 435.68 451.86 434.63 450.77 432.55C450.42 431.89 450.31 431.15 450.49 430.4C450.47 430.38 450.29 430.24 450.26 430.22C450.15 430.13 450.1 429.99 450.15 429.85C450.19 429.69 450.38 429.58 450.54 429.58C450.61 429.58 450.7 429.6 450.77 429.65C451.02 429.12 451.41 428.62 451.89 428.18C451.84 428.09 451.84 428 451.89 427.91C452 427.7 452.27 427.61 452.46 427.75C452.75 427.54 453.07 427.38 453.39 427.29C454.31 426.97 455.29 426.81 456.27 426.81C460.39 426.81 464.37 429.55 467.79 432.11C469.92 430.17 471.86 428.18 473.55 426.19C473.6 426.13 473.69 426.03 473.78 425.94C474.22 425.49 475.13 424.55 474.74 424.16C474.17 423.59 473.74 423.18 473.3 422.81C472.25 421.87 471.25 421.12 470.29 420.46C467.25 418.45 462.47 416.02 456.85 416.02C456.53 416.02 456.18 416.02 455.86 416.05C450.65 416.32 445.6 418.72 442.38 422.49C439.66 425.67 438.42 429.51 438.86 433.58C439.38 438.7 442.42 442.83 447.18 444.91C448.64 445.55 450.19 446.06 451.68 446.56C452.8 446.93 453.97 447.31 455.11 447.75C457.23 448.57 459.63 449.69 461.14 451.66C461.99 452.75 462.49 454.06 462.58 455.31C462.65 455.47 462.7 455.59 462.74 455.73C462.83 455.95 462.77 456.18 462.56 456.32C462.51 456.78 462.4 457.21 462.26 457.62C461.53 459.54 459.84 460.73 457.85 460.73C457.67 460.73 457.51 460.73 457.33 460.71C454.51 460.41 451.77 458.86 449.76 457.71C447.43 456.39 445.17 454.83 443.04 453.1C440.85 456.09 438.33 458.81 435.59 461.23C437.76 463.73 440.39 465.81 443.38 467.43C443.61 467.29 443.89 467.31 444.07 467.5C444.32 467.68 444.55 467.91 444.78 468.11C448.11 469.69 451.61 470.63 455.2 470.86ZM480.07 451.95C479.91 451.84 479.75 451.68 479.54 451.52C478.93 450.99 478.08 450.26 477.37 450.26C477.28 450.26 477.19 450.29 477.12 450.31C477.12 450.31 477.09 450.32 477.05 450.33C477.04 450.29 477.03 450.27 477.03 450.26C476.87 449.49 476.64 448.73 476.37 448.02C476.36 448.01 476.34 447.96 476.3 447.86C476.39 447.9 476.45 447.93 476.46 447.93C478.49 448.71 480.43 449.71 482.26 450.93C482.26 450.93 482.27 450.93 482.29 450.95C482.3 450.96 482.31 450.97 482.31 450.97C482.42 451.13 482.51 451.29 482.63 451.45C483.29 452.53 483.82 453.67 484.21 454.86C484.21 454.87 484.22 454.92 484.25 455.02C481.74 453.18 480.35 452.16 480.07 451.95ZM479.66 451.41C479.86 451.59 480.02 451.73 480.18 451.84C480.56 452.12 483.6 454.35 483.98 454.63C483.61 453.53 483.11 452.48 482.49 451.5C482.4 451.34 482.29 451.18 482.17 451.02C482.17 451.02 482.17 451.02 482.17 451.02C480.39 449.85 478.51 448.89 476.55 448.11C476.8 448.75 477.01 449.44 477.14 450.13C477.21 450.1 477.28 450.1 477.37 450.1C478.15 450.1 479.02 450.86 479.66 451.41ZM456.25 449.74C456.22 449.72 456 449.59 455.98 449.58C455.57 449.33 455.13 449.07 454.61 448.78C454.61 448.76 454.67 448.65 454.67 448.64C456.59 449.35 458.99 450.45 460.5 452.5C460.5 452.51 460.46 452.54 460.39 452.59C458.54 451.22 457.17 450.27 456.25 449.74ZM456.05 449.42C456.07 449.43 456.29 449.56 456.32 449.58C457.44 450.24 458.7 450.99 459.79 451.89C458.63 450.63 457.05 449.78 455.61 449.17C455.77 449.26 455.91 449.35 456.05 449.42ZM481.23 449.71C479.59 448.75 477.85 447.93 476.05 447.27C476.04 447.27 476.04 447.27 476.02 447.27C476.01 447.25 476 447.25 476 447.25C475.77 446.77 475.52 446.31 475.2 445.85C475.19 445.84 475.15 445.78 475.09 445.67L475.09 445.67C475.02 445.57 474.98 445.52 474.97 445.51C474.42 444.73 473.78 444 473.05 443.31C473.03 443.29 472.91 443.18 472.69 442.97C472.96 443.11 473.11 443.18 473.14 443.2C474.4 443.82 475.63 444.53 476.75 445.33C476.77 445.34 476.85 445.4 477.01 445.51C476 445.39 475.45 445.32 475.34 445.3C475.15 445.28 475.13 445.44 475.13 445.49C475.13 445.5 475.13 445.57 475.13 445.69C475.24 445.72 475.3 445.73 475.31 445.74C475.34 445.74 475.34 445.74 475.36 445.74C475.52 445.76 476.31 445.86 477.74 446.03C477.75 446.05 477.76 446.06 477.76 446.06C479.13 447.13 480.32 448.34 481.35 449.62C481.36 449.64 481.44 449.74 481.58 449.92C481.37 449.8 481.26 449.73 481.23 449.71ZM480.96 449.37C480 448.21 478.9 447.13 477.67 446.17C477.45 446.14 475.67 445.92 475.45 445.9C475.7 446.31 475.93 446.72 476.14 447.13C477.81 447.75 479.43 448.5 480.96 449.37ZM475.02 445.26C475.09 445.14 475.2 445.07 475.34 445.1C475.44 445.11 476.3 445.22 476.41 445.23C475.52 444.62 474.54 444.05 473.53 443.52C474.08 444.07 474.58 444.66 475.02 445.26ZM476.14 438.61C475.86 438.29 475.57 437.97 475.29 437.65C473.44 435.54 471.54 433.37 468.89 432.62C468.88 432.61 468.84 432.6 468.75 432.57C468.81 432.52 468.84 432.49 468.85 432.48C469.21 432.14 469.62 431.75 470.13 431.27C470.13 431.27 470.14 431.25 470.17 431.22C470.2 431.25 470.21 431.27 470.22 431.27C472.41 433.05 474.47 434.99 476.34 437.05C476.46 437.17 476.64 437.12 476.71 436.96C476.73 436.91 476.75 436.82 476.66 436.71C474.79 434.65 472.73 432.71 470.54 430.95C470.53 430.95 470.51 430.93 470.47 430.9C470.51 430.86 470.53 430.84 470.54 430.83C470.95 430.45 471.36 430.01 471.86 429.49C471.87 429.48 471.88 429.47 471.91 429.44C471.94 429.47 471.95 429.48 471.95 429.49C474.29 431.47 476.41 433.69 478.33 436.09C478.33 436.09 478.35 436.11 478.38 436.14C478.31 436.21 478.27 436.24 478.26 436.25C477.58 437.03 476.89 437.81 476.23 438.58C476.23 438.59 476.22 438.62 476.21 438.67C476.16 438.63 476.14 438.61 476.14 438.61ZM475.38 437.53C475.66 437.83 475.91 438.13 476.18 438.42C476.85 437.67 477.51 436.91 478.17 436.16C478.17 436.16 478.19 436.14 478.19 436.14C476.32 433.78 474.22 431.61 471.93 429.65C471.47 430.13 471.09 430.51 470.72 430.88C472.87 432.64 474.93 434.58 476.78 436.62C476.89 436.73 476.91 436.89 476.85 437.03C476.78 437.17 476.64 437.28 476.5 437.28C476.41 437.28 476.32 437.23 476.25 437.17C474.38 435.13 472.34 433.19 470.19 431.43C469.76 431.86 469.39 432.18 469.05 432.5C471.66 433.3 473.55 435.45 475.38 437.53ZM458.35 436.16C458.37 436.12 458.38 436.1 458.38 436.09C458.4 436.02 458.35 435.98 458.31 435.93C457.86 435.57 455.6 433.76 451.54 430.49C451.56 430.46 451.56 430.45 451.57 430.45C451.63 430.17 451.77 429.87 451.93 429.6C452.11 429.3 452.37 429.03 452.66 428.8C452.67 428.8 452.68 428.78 452.71 428.75L459.93 434.97C459.89 435 459.87 435.01 459.86 435.02C459.5 435.29 459.13 435.57 458.81 435.86C458.72 435.95 458.67 436.05 458.67 436.14C458.67 436.15 458.67 436.19 458.65 436.27L458.35 436.16ZM458.38 435.79C458.45 435.86 458.49 435.93 458.51 436C458.54 435.91 458.58 435.84 458.7 435.75C459.02 435.47 459.34 435.22 459.68 434.95C458.98 434.35 453.39 429.54 452.69 428.94C452.41 429.14 452.21 429.39 452.05 429.67C451.89 429.92 451.79 430.17 451.7 430.42C453.04 431.5 457.71 435.26 458.38 435.79ZM456.96 435.63C455.36 434.99 453.53 434.17 452.23 432.91C451.73 432.43 451.45 431.82 451.45 431.18C451.45 431.17 451.45 431.11 451.45 431.02L457.42 435.82C457.14 435.71 456.99 435.65 456.96 435.63ZM452.34 432.78C453.51 433.9 455.09 434.67 456.55 435.27C456.22 435 454.57 433.69 451.61 431.31C451.81 432.02 452.05 432.5 452.34 432.78ZM478.65 435.73C476.75 433.35 474.61 431.13 472.3 429.17C472.29 429.16 472.27 429.15 472.23 429.12C472.26 429.08 472.27 429.06 472.27 429.05C473.07 428.21 473.78 427.41 474.49 426.61C474.58 426.49 474.7 426.38 474.81 426.26C475.18 425.87 475.66 425.37 475.84 424.87C475.84 424.86 475.85 424.83 475.86 424.78C475.9 424.8 475.93 424.82 475.93 424.82C476.3 425.05 476.71 425.3 477.17 425.6C479.06 427.41 480.8 429.35 482.35 431.41C482.36 431.41 482.37 431.42 482.4 431.45C482.25 431.64 482.17 431.75 482.15 431.77C481.97 432 481.78 432.23 481.58 432.46C481.57 432.46 481.55 432.48 481.51 432.53C481.48 432.48 481.47 432.46 481.46 432.46C479.73 430.1 477.65 428 475.31 426.24C475.18 426.15 475.06 426.24 475.02 426.35C474.99 426.4 474.97 426.54 475.11 426.65C477.42 428.41 479.47 430.49 481.19 432.85C481.19 432.85 481.21 432.86 481.23 432.89C481.15 433 481.11 433.06 481.1 433.07C480.82 433.42 480.53 433.74 480.25 434.08C480.25 434.08 480.22 434.11 480.18 434.15C480.16 434.11 480.14 434.08 480.14 434.08C478.45 431.75 476.43 429.67 474.15 427.89C474.01 427.79 473.9 427.89 473.85 428C473.83 428.05 473.81 428.18 473.94 428.3C476.18 430.03 478.17 432.07 479.82 434.4C479.84 434.42 479.84 434.42 479.86 434.45C479.87 434.45 479.89 434.46 479.93 434.49C479.9 434.53 479.89 434.56 479.89 434.56C479.52 434.97 479.18 435.38 478.81 435.79C478.8 435.79 478.77 435.79 478.7 435.79C478.67 435.75 478.65 435.73 478.65 435.73ZM478.7 435.54C479.02 435.18 479.34 434.81 479.66 434.45C479.66 434.45 479.66 434.42 479.63 434.42C477.99 432.11 476.02 430.08 473.78 428.37C473.62 428.23 473.6 428.05 473.65 427.91C473.74 427.68 473.99 427.57 474.17 427.73C476.46 429.49 478.45 431.54 480.14 433.87C480.41 433.58 480.66 433.26 480.94 432.96C480.94 432.95 481 432.88 481.01 432.87C479.31 430.54 477.28 428.48 474.99 426.74C474.88 426.67 474.83 426.56 474.83 426.42C474.74 426.51 474.65 426.61 474.58 426.7C473.94 427.5 473.23 428.27 472.46 429.1C474.72 431.04 476.82 433.21 478.7 435.54ZM475.43 426.1C477.74 427.86 479.79 429.94 481.53 432.27C481.69 432.07 481.87 431.86 482.03 431.66C482.05 431.63 482.2 431.45 482.22 431.43C480.69 429.39 478.97 427.47 477.1 425.69C476.66 425.42 476.3 425.19 475.95 424.98C475.82 425.37 475.52 425.71 475.25 426.03C475.31 426.03 475.36 426.06 475.43 426.1ZM460.23 434.65C460.21 434.63 460.21 434.63 460.18 434.61C459.71 434.2 457.34 432.16 453.07 428.5C453.13 428.48 453.16 428.46 453.17 428.46C453.78 428.14 454.56 427.95 455.47 427.86C455.59 427.86 455.68 427.84 455.79 427.84C455.8 427.84 455.83 427.84 455.89 427.84C455.87 427.89 455.86 427.93 455.86 427.93C455.86 427.98 455.84 428.09 455.95 428.18C458.08 429.76 459.98 431.61 461.55 433.71C461.55 433.71 461.55 433.71 461.58 433.74C461.58 433.74 461.6 433.76 461.65 433.81C461.6 433.83 461.58 433.85 461.58 433.85C461.14 434.1 460.73 434.38 460.3 434.67C460.3 434.68 460.29 434.69 460.27 434.72C460.25 434.68 460.23 434.66 460.23 434.65ZM460.3 434.49C460.3 434.49 460.3 434.49 460.32 434.51C460.71 434.24 461.1 434.01 461.46 433.78C459.89 431.7 458.01 429.87 455.91 428.32C455.79 428.25 455.75 428.14 455.75 428C455.68 428 455.59 428 455.52 428.02C454.67 428.09 453.94 428.25 453.37 428.53C454.76 429.72 459.6 433.89 460.3 434.49ZM462.01 433.53C462.01 433.51 461.99 433.51 461.99 433.49C460.41 431.41 458.54 429.53 456.43 427.95C456.42 427.95 456.36 427.9 456.25 427.82C456.39 427.82 456.46 427.82 456.48 427.82C457.28 427.84 458.1 427.95 458.95 428.18C458.95 428.18 458.96 428.18 458.97 428.18L463.54 432.91C463.47 432.94 463.44 432.96 463.43 432.96C462.99 433.12 462.54 433.33 462.13 433.55C462.12 433.56 462.1 433.57 462.06 433.6C462.03 433.56 462.01 433.54 462.01 433.53ZM462.13 433.42C462.49 433.23 462.88 433.05 463.27 432.89C462.83 432.44 459.34 428.82 458.9 428.37C458.17 428.16 457.44 428.02 456.73 428C458.77 429.55 460.57 431.38 462.13 433.42ZM463.98 432.73C463.98 432.71 463.95 432.71 463.95 432.69C463.68 432.41 462.34 431 459.91 428.48C460.1 428.55 460.21 428.59 460.23 428.59C462.45 429.44 464.53 430.88 466.29 432.18C466.3 432.19 466.35 432.23 466.45 432.3C466.32 432.31 466.25 432.32 466.24 432.32C465.53 432.37 464.82 432.5 464.09 432.75C464.09 432.76 464.05 432.76 464 432.78C463.99 432.75 463.98 432.73 463.98 432.73ZM464.05 432.59C464.05 432.59 464.07 432.62 464.07 432.62C464.73 432.41 465.37 432.27 466.01 432.23C464.39 431.02 462.49 429.71 460.48 428.89C461.19 429.63 463.69 432.22 464.05 432.59ZM482.65 431.02C481.76 429.85 480.85 428.73 479.89 427.68C479.89 427.67 479.97 427.58 479.98 427.57C481.92 429.05 482.95 430.06 483.02 430.56C483.02 430.65 483.02 430.72 482.95 430.79C482.93 430.83 482.88 430.88 482.83 430.93C482.83 430.94 482.79 430.99 482.72 431.09C482.68 431.04 482.66 431.02 482.65 431.02ZM482.74 430.86C482.75 430.85 482.76 430.84 482.77 430.83C482.81 430.79 482.83 430.74 482.86 430.72C482.88 430.7 482.88 430.65 482.88 430.61C482.83 430.19 482.01 429.35 480.57 428.21C481.33 429.05 482.03 429.94 482.74 430.86Z" id="ao8IOV0RY"></path><path d="M478.45 455.98C478.15 455.73 477.71 456.16 478.01 456.41C479.93 457.94 481.85 459.47 483.77 461.01C484.09 461.23 484.53 460.8 484.21 460.57C482.29 459.04 480.37 457.51 478.45 455.98Z" id="a4VI5C7e6"></path><path d="M483.98 461.14C483.89 461.14 483.79 461.12 483.73 461.05C483.15 460.59 478.54 456.92 477.97 456.46C477.85 456.37 477.81 456.23 477.85 456.09C477.9 455.93 478.08 455.82 478.24 455.82C478.33 455.82 478.42 455.84 478.49 455.91C479.07 456.37 483.68 460.04 484.25 460.5C484.37 460.59 484.41 460.73 484.37 460.87C484.32 461.03 484.16 461.14 483.98 461.14C483.98 461.14 483.98 461.14 483.98 461.14ZM478.01 456.16C477.99 456.21 477.99 456.27 478.08 456.34C478.66 456.8 483.26 460.48 483.84 460.94C483.89 460.98 483.93 460.98 484 460.98C484 460.98 484 460.98 484 460.98C484.11 460.98 484.21 460.91 484.25 460.8C484.27 460.75 484.27 460.69 484.18 460.62C483.61 460.16 479 456.48 478.42 456.02C478.38 456 478.33 455.98 478.26 455.98C478.15 455.98 478.06 456.05 478.01 456.16Z" id="idiyWSB6a"></path></defs><g><g><g><use xlink:href="#b1Q3fcwkl7" opacity="1" fill="#000000" fill-opacity="1"></use><g><use xlink:href="#b1Q3fcwkl7" opacity="1" fill-opacity="0" stroke="#000000" stroke-width="1" stroke-opacity="0"></use></g></g><g><use xlink:href="#ao8IOV0RY" opacity="1" fill="#180f0b" fill-opacity="1"></use><g><use xlink:href="#ao8IOV0RY" opacity="1" fill-opacity="0" stroke="#000000" stroke-width="1" stroke-opacity="0"></use></g></g><g><use xlink:href="#a4VI5C7e6" opacity="1" fill="#000000" fill-opacity="1"></use><g><use xlink:href="#a4VI5C7e6" opacity="1" fill-opacity="0" stroke="#000000" stroke-width="1" stroke-opacity="0"></use></g></g><g><use xlink:href="#idiyWSB6a" opacity="1" fill="#180f0b" fill-opacity="1"></use><g><use xlink:href="#idiyWSB6a" opacity="1" fill-opacity="0" stroke="#000000" stroke-width="1" stroke-opacity="0"></use></g></g></g></g></svg>