<?xml version="1.0" encoding="UTF-8" standalone="no"?>
<!DOCTYPE svg PUBLIC "-//W3C//DTD SVG 1.1//EN" "http://www.w3.org/Graphics/SVG/1.1/DTD/svg11.dtd">
<svg version="1.1" xmlns="http://www.w3.org/2000/svg" xmlns:xlink="http://www.w3.org/1999/xlink" preserveAspectRatio="xMidYMid meet" viewBox="512.2971428571426 416.32000000000005 52.45714285714291 61.53142857142848" width="52.46" height="61.53"><defs><path d="M563.43 421.78C563.28 421.67 562.52 421.12 561.17 420.14C558.26 418.01 556.64 416.83 556.32 416.59C556.25 416.55 556.16 416.5 556.09 416.5C556.02 416.46 555.93 416.43 555.84 416.43C541.58 416.46 527.29 416.48 513.03 416.5C512.62 416.5 512.48 416.89 512.57 417.19C512.43 417.26 512.34 417.39 512.37 417.6C512.59 421.51 512.85 425.44 513.14 429.35C512.91 429.51 512.8 429.85 513.07 430.08C515.09 431.84 517.03 433.87 519.22 435.38C521.28 436.8 523.95 435.68 526.26 435.93C526.13 447.68 525.99 459.43 525.87 471.18C525.87 471.2 525.87 471.25 525.87 471.27C525.83 471.43 525.85 471.59 525.99 471.75C528.5 474.45 531.95 475.93 535.34 477.23C536.16 477.55 537.07 477.46 537.92 477.37C539.09 477.26 540.27 477.23 541.44 477.26C543.79 477.28 546.15 477.53 548.5 477.78C548.8 477.81 548.96 477.62 548.98 477.39C549.33 477.35 549.58 476.98 549.42 476.71C549.44 476.66 549.46 476.59 549.46 476.53C549.53 475.84 549.58 475.18 549.65 474.49C549.69 474.51 549.74 474.56 549.78 474.58C550.1 474.81 550.4 474.29 550.08 474.06C549.94 473.97 549.83 473.87 549.69 473.78C549.74 473.07 549.81 472.37 549.85 471.68C549.87 471.7 549.87 471.7 549.9 471.73C550.19 471.95 550.63 471.54 550.33 471.29C550.29 471.26 549.94 470.98 549.9 470.95C550.17 467.04 550.35 463.15 550.47 459.25C550.77 459.31 550.97 458.88 550.67 458.67C550.61 458.63 550.54 458.58 550.49 458.56C550.51 457.87 550.51 457.19 550.54 456.5C550.67 456.39 550.72 456.16 550.54 456C550.58 453.05 550.61 450.1 550.56 447.15C550.63 447.04 550.65 446.88 550.56 446.74C550.54 444.75 550.49 442.77 550.42 440.78C550.47 440.69 550.49 440.55 550.42 440.46C550.38 439.04 550.31 437.62 550.24 436.21C554.72 435.68 559.27 434.93 563.79 435.02C564.09 435.22 564.59 435.09 564.59 434.63C564.64 430.74 564.64 426.83 564.64 422.93C564.64 422.4 563.77 422.03 563.43 421.78ZM563.63 425.69C561.35 424.21 558.95 422.88 556.46 421.76C556.46 421.76 556.43 421.76 556.43 421.76C556.43 420.48 556.41 419.18 556.39 417.9C558.79 419.63 561.21 421.39 563.63 423.18C563.63 424.02 563.63 424.85 563.63 425.69ZM557.92 425.3C557.62 425.1 556.94 424.46 556.41 424.46C556.41 423.77 556.41 423.09 556.41 422.42C558.9 423.57 561.3 424.89 563.59 426.4C563.59 426.4 563.61 426.4 563.61 426.42C563.63 427.27 563.63 428.11 563.63 428.98C561.74 427.75 559.82 426.51 557.92 425.3ZM517.01 432.18C516.77 431.98 514.91 430.35 514.67 430.15C515.57 430.26 516.48 430.38 517.37 430.45C517.97 431.11 518.72 431.68 519.36 432.27C520.39 433.21 521.42 434.17 522.42 435.11C521.6 435.13 520.8 435.04 520.07 434.7C518.93 434.17 517.94 433.01 517.01 432.18ZM522.99 435.11C523.04 435.02 523.04 434.88 522.93 434.77C522.64 434.5 520.33 432.38 520.05 432.11C519.5 431.59 518.83 431.09 518.24 430.54C519.15 430.61 520.07 430.67 520.98 430.72C522.19 431.84 523.25 433.05 524.18 434.42C524.41 434.74 524.94 434.45 524.71 434.13C523.89 432.91 522.95 431.79 521.9 430.77C522.47 430.79 523.04 430.79 523.63 430.81C523.66 430.86 523.68 430.9 523.73 430.95C524.69 431.73 525.55 432.62 526.29 433.62C526.31 434.03 526.29 434.49 526.29 434.95C525.21 434.88 524.09 435.06 522.99 435.11ZM524.53 430.79C525.12 430.79 525.74 430.79 526.33 430.77C526.33 431.38 526.33 432 526.31 432.62C525.76 431.95 525.17 431.34 524.53 430.79ZM520.78 429.69C520.73 429.65 520.69 429.62 520.64 429.58C520.48 429.44 520.25 429.51 520.16 429.65C519.22 429.6 518.29 429.53 517.35 429.44C517.23 429.28 517.03 429.3 516.91 429.39C516 429.3 515.06 429.19 514.15 429.05C513.87 425.23 513.62 421.42 513.39 417.6C513.39 417.58 513.39 417.53 513.37 417.51C517.57 417.5 551.16 417.45 555.36 417.44C555.43 421.35 555.43 425.28 555.41 429.19C555.41 429.26 555.41 429.3 555.43 429.37C550.93 429.44 546.4 429.49 541.9 429.55C541.71 429.55 541.6 429.62 541.51 429.74C541.3 429.78 541.14 429.94 541.14 430.22C541.28 435.86 541.35 441.49 541.33 447.13C541.19 447.25 541.14 447.5 541.33 447.63C541.3 455.29 541.17 462.93 540.89 470.58C540.85 470.63 540.8 470.7 540.78 470.77C537.28 471.13 533.78 471.22 530.29 471.02C530.17 470.93 530.03 470.86 529.92 470.77C529.71 470.63 529.53 470.79 529.49 470.97C528.62 470.9 527.75 470.83 526.9 470.74C527.06 457.33 527.2 443.89 527.36 430.47C527.5 430.15 527.34 429.71 526.93 429.71C524.87 429.78 522.83 429.78 520.78 429.69ZM546.38 441.92C547.43 442.67 548.5 443.43 549.55 444.18C549.58 444.78 549.58 445.39 549.6 445.99C547.31 444.34 544.96 442.79 542.54 441.33C542.47 441.28 542.4 441.28 542.33 441.28C542.31 439.57 542.31 437.87 542.29 436.16C544.69 437.62 547.09 439.09 549.49 440.55C549.51 441.51 549.55 442.49 549.58 443.45C548.5 442.7 547.45 441.94 546.38 441.19C545.37 440.48 544.25 439.34 542.99 439.15C542.58 439.11 542.42 439.68 542.81 439.73C544.09 439.91 545.35 441.19 546.38 441.92ZM549.62 450.06C547.2 448.23 544.75 446.4 542.33 444.59C542.33 443.7 542.33 442.81 542.31 441.9C544.8 443.43 547.25 445.05 549.6 446.74C549.62 447.84 549.62 448.96 549.62 450.06ZM542.24 435.52C542.22 434.67 542.22 433.81 542.19 432.96C544.43 434.88 546.81 436.57 549.35 438.08C549.37 438.65 549.39 439.25 549.42 439.82C548.95 439.53 546.63 438.12 542.45 435.57C542.35 435.54 542.29 435.52 542.24 435.52ZM542.17 432.5C542.17 432.09 542.15 431.66 542.15 431.25C544.53 432.87 546.88 434.47 549.26 436.09C549.28 436.53 549.3 436.94 549.33 437.37C546.95 435.93 544.71 434.31 542.58 432.5C542.45 432.39 542.29 432.41 542.17 432.5ZM533.53 475.41C532.71 475.06 531.91 474.67 531.11 474.26C529.81 473.58 528.57 472.78 527.5 471.79C528.57 471.91 529.62 471.98 530.7 472.05C532.82 473.51 534.93 474.97 537.05 476.43C536.89 476.43 536.71 476.43 536.53 476.43C535.54 476.43 534.42 475.79 533.53 475.41ZM537.81 476.23C535.82 474.86 533.83 473.49 531.84 472.09C532.73 472.11 533.6 472.14 534.49 472.11C536.41 473.42 538.29 474.81 540.07 476.3C539.36 476.34 538.65 476.39 537.94 476.41C537.92 476.34 537.9 476.27 537.81 476.23ZM540.98 476.27C539.22 474.81 537.42 473.42 535.54 472.11C536.55 472.09 537.53 472.05 538.51 471.98C538.42 472.09 538.4 472.25 538.54 472.37C540.23 473.69 541.92 475.02 543.63 476.37C543.31 476.3 542.97 476.3 542.65 476.27C542.1 476.25 541.53 476.25 540.98 476.27ZM538.99 471.93C539.63 471.89 540.27 471.82 540.91 471.75C540.91 471.75 540.94 471.75 540.94 471.75C541.1 472 541.49 472.02 541.71 471.84C543.77 473.46 545.83 475.09 547.89 476.71C546.81 476.59 545.76 476.48 544.71 476.41C542.81 474.93 540.89 473.42 538.99 471.93ZM541.87 470.7C541.9 470.15 541.92 469.6 541.92 469.05C544.18 470.63 546.42 472.21 548.69 473.81C548.66 474.51 548.59 475.22 548.53 475.93C546.31 474.19 544.09 472.43 541.87 470.7ZM541.97 468.32C541.99 467.38 542.01 466.45 542.06 465.53C542.08 465.55 542.08 465.55 542.1 465.58C544.39 467.36 546.65 469.14 548.94 470.93C548.87 471.66 548.82 472.37 548.75 473.1C546.49 471.5 544.23 469.92 541.97 468.32ZM549.12 466.74C546.95 465.12 544.82 463.43 542.79 461.65C542.49 461.39 542.06 461.83 542.35 462.08C544.46 463.89 546.61 465.62 548.82 467.27C548.96 467.36 549.07 467.34 549.17 467.25C549.12 468.23 549.05 469.21 548.98 470.19C546.83 468.5 544.69 466.83 542.54 465.14C542.38 465.03 542.17 465.07 542.08 465.19C542.13 463.25 542.17 461.28 542.22 459.31C544.46 461.07 546.72 462.81 548.96 464.57C549.07 464.66 549.19 464.66 549.3 464.62C549.26 465.35 549.21 466.08 549.19 466.79C549.17 466.77 549.14 466.74 549.12 466.74ZM542.22 458.58C542.24 457.9 542.24 457.21 542.24 456.53C542.26 456.53 542.26 456.55 542.29 456.55C542.51 456.72 544.3 458.07 544.53 458.24C546.01 459.36 547.5 460.5 548.98 461.62C549.3 461.85 549.6 461.33 549.28 461.1C548.11 460.21 546.95 459.31 545.78 458.45C545.26 458.03 544.73 457.65 544.18 457.23C543.86 456.98 543.54 456.75 543.22 456.5C543.13 456.43 542.63 456.11 542.4 455.93C542.42 455.84 542.4 455.73 542.33 455.66C542.33 455.65 542.29 455.62 542.29 455.61C542.29 455.61 542.26 455.59 542.26 455.59C542.26 455.02 542.29 454.42 542.29 453.85C544.69 455.43 547.11 457.01 549.51 458.61C549.46 460.43 549.39 462.29 549.33 464.11C546.95 462.26 544.59 460.43 542.22 458.58ZM543.22 450.58C542.9 450.35 542.61 450.88 542.93 451.11C545.12 452.78 547.31 454.42 549.58 456C549.55 456.62 549.55 457.26 549.53 457.87C547.11 456.3 544.71 454.7 542.29 453.12C542.31 451.54 542.31 449.94 542.31 448.37C544.73 450.17 547.15 452 549.58 453.81C549.6 454.31 549.6 454.79 549.58 455.27C547.43 453.74 545.33 452.18 543.22 450.58ZM542.33 447.63C542.33 446.88 542.33 446.13 542.33 445.37C544.69 447.15 547.06 448.91 549.42 450.7C549.49 450.74 549.55 450.77 549.62 450.74C549.62 451.52 549.62 452.3 549.62 453.07C547.2 451.27 544.78 449.44 542.33 447.63ZM549.83 435.25C549.14 434.77 543.62 431.01 542.93 430.54C544.18 430.51 545.42 430.51 546.67 430.49C548.57 431.89 550.38 433.39 552.07 434.99C551.31 435.09 550.58 435.18 549.85 435.27C549.85 435.26 549.83 435.25 549.83 435.25ZM547.68 430.49C548.53 430.49 549.35 430.47 550.19 430.47C551.89 431.93 553.65 433.3 555.45 434.61C554.56 434.67 553.69 434.79 552.85 434.9C551.2 433.33 549.49 431.86 547.68 430.49ZM556.21 434.38C554.45 433.14 552.73 431.82 551.09 430.42C552.07 430.4 553.05 430.4 554.01 430.38C554.03 430.45 554.06 430.51 554.13 430.56C555.63 431.68 557.03 432.91 558.35 434.24C557.67 434.31 556.98 434.38 556.3 434.47C556.27 434.45 556.25 434.4 556.21 434.38ZM554.88 430.38C555.15 430.38 555.41 430.38 555.68 430.38C555.73 430.45 555.79 430.49 555.89 430.54C558.22 431.45 560.41 432.64 562.47 434.03C561.37 434.03 560.25 434.1 559.15 434.19C557.83 432.82 556.41 431.54 554.88 430.38ZM556.37 429.39C556.39 429.33 556.41 429.28 556.41 429.19C556.41 428.75 556.41 428.32 556.41 427.89C558.65 429.58 560.87 431.27 563.11 432.98C563.43 433.21 563.73 432.69 563.41 432.46C562.71 431.92 557.11 427.66 556.41 427.13C556.41 426.54 556.41 425.94 556.41 425.37C556.55 425.28 556.59 425.07 556.46 424.91C557.42 425.9 558.81 426.58 559.98 427.34C561.19 428.11 562.4 428.91 563.61 429.69C563.61 430.99 563.61 432.3 563.61 433.58C561.46 432.05 559.13 430.77 556.66 429.76C556.64 429.6 556.55 429.44 556.37 429.39Z" id="fWMpIyO0x"></path><path d="M548.53 477.85C548.49 477.85 548.22 477.81 548.18 477.81C545.99 477.58 543.7 477.35 541.46 477.33C541.28 477.33 541.07 477.33 540.89 477.33C539.79 477.33 538.83 477.37 537.94 477.44C537.94 477.44 537.88 477.44 537.87 477.44C537.49 477.49 537.1 477.51 536.71 477.51C536.16 477.51 535.73 477.44 535.31 477.28C532.14 476.07 528.53 474.54 525.94 471.77C525.81 471.61 525.76 471.43 525.81 471.22C525.81 471.2 525.81 471.18 525.81 471.13C525.84 467.61 526.16 439.47 526.19 435.95C525.99 435.93 525.78 435.93 525.55 435.93C524.98 435.93 524.39 435.98 523.79 436.05C523.2 436.09 522.58 436.16 522.01 436.16C520.85 436.16 519.95 435.93 519.2 435.41C517.65 434.35 516.21 433.01 514.81 431.73C514.24 431.18 513.62 430.63 513.03 430.1C512.87 429.97 512.82 429.81 512.85 429.69C512.85 429.53 512.94 429.37 513.07 429.28C512.78 425.39 512.53 421.44 512.3 417.58C512.3 417.39 512.37 417.23 512.5 417.12C512.46 416.94 512.5 416.75 512.59 416.62C512.69 416.48 512.85 416.39 513.05 416.39C517.33 416.38 551.58 416.33 555.86 416.32C555.95 416.32 556.05 416.34 556.14 416.39C556.23 416.41 556.3 416.43 556.39 416.48C557.1 417 562.79 421.15 563.5 421.67C563.57 421.71 563.68 421.78 563.79 421.85C564.21 422.1 564.75 422.42 564.75 422.88C564.75 424.05 564.75 433.43 564.75 434.61C564.75 434.79 564.69 434.93 564.57 435.04C564.46 435.13 564.32 435.18 564.18 435.18C564.18 435.18 564.18 435.18 564.18 435.18C564.07 435.18 563.95 435.15 563.86 435.09C560.23 435.02 556.53 435.47 552.96 435.93C552.11 436.05 551.27 436.16 550.4 436.25C550.47 437.53 550.51 438.88 550.58 440.41C550.65 440.53 550.65 440.64 550.61 440.78C550.67 442.79 550.72 444.78 550.74 446.7C550.86 446.83 550.83 447.02 550.74 447.15C550.79 450.13 550.77 453.07 550.72 455.93C550.79 456 550.83 456.09 550.83 456.21C550.83 456.32 550.79 456.43 550.72 456.5C550.7 457.17 550.7 457.83 550.67 458.47C550.69 458.48 550.82 458.55 550.83 458.56C550.97 458.65 551.04 458.81 550.99 458.99C550.95 459.15 550.81 459.27 550.65 459.27C550.54 463.15 550.33 467.04 550.08 470.86C550.12 470.89 550.43 471.15 550.47 471.18C550.58 471.27 550.63 471.41 550.58 471.54C550.51 471.77 550.22 471.89 550.01 471.77C549.97 472.41 549.92 473.05 549.87 473.71C549.91 473.74 550.18 473.94 550.22 473.97C550.35 474.06 550.42 474.24 550.35 474.4C550.29 474.65 550.01 474.74 549.81 474.61C549.8 474.6 549.79 474.59 549.78 474.58C549.74 475.22 549.67 475.86 549.62 476.48C549.62 476.55 549.6 476.59 549.58 476.66C549.65 476.8 549.65 476.94 549.58 477.07C549.49 477.23 549.33 477.37 549.14 477.42C549.03 477.69 548.85 477.85 548.59 477.85C548.57 477.85 548.55 477.85 548.53 477.85ZM541.46 477.17C543.73 477.19 545.99 477.42 548.21 477.65C548.24 477.65 548.51 477.69 548.55 477.69C548.8 477.71 548.94 477.53 548.94 477.37C548.94 477.37 548.94 477.34 548.94 477.3C548.98 477.3 549 477.3 549.01 477.3C549.17 477.28 549.33 477.17 549.39 477.03C549.44 476.96 549.46 476.85 549.39 476.73C549.39 476.73 549.39 476.71 549.37 476.69C549.39 476.66 549.39 476.64 549.39 476.64C549.42 476.59 549.44 476.53 549.44 476.48C549.51 475.79 549.55 475.13 549.62 474.45C549.62 474.44 549.62 474.39 549.62 474.31C549.77 474.42 549.86 474.48 549.87 474.49C549.99 474.58 550.13 474.51 550.19 474.35C550.22 474.31 550.24 474.17 550.1 474.08C550.08 474.06 549.94 473.96 549.69 473.78C549.69 473.76 549.69 473.74 549.69 473.74C549.74 473.03 549.81 472.32 549.85 471.63C549.85 471.63 549.85 471.58 549.85 471.5C549.95 471.58 550 471.63 550.01 471.63C550.15 471.75 550.38 471.66 550.42 471.52C550.45 471.45 550.42 471.38 550.35 471.34C550.32 471.31 550.17 471.19 549.9 470.97C549.9 470.94 549.9 470.93 549.9 470.93C550.17 467.09 550.35 463.13 550.47 459.22C550.47 459.22 550.47 459.19 550.47 459.13C550.52 459.15 550.55 459.15 550.56 459.15C550.67 459.18 550.77 459.11 550.81 458.99C550.83 458.95 550.86 458.81 550.72 458.74C550.7 458.73 550.63 458.69 550.49 458.61C550.49 458.58 550.49 458.56 550.49 458.56C550.51 457.87 550.51 457.19 550.54 456.5C550.54 456.5 550.54 456.48 550.54 456.46C550.55 456.44 550.56 456.44 550.56 456.43C550.63 456.39 550.65 456.3 550.65 456.23C550.65 456.18 550.63 456.11 550.56 456.05C550.56 456.04 550.55 456.04 550.54 456.02C550.54 456 550.54 455.98 550.54 455.98C550.58 453.1 550.61 450.13 550.56 447.13C550.56 447.13 550.56 447.12 550.56 447.11C550.57 447.09 550.58 447.09 550.58 447.09C550.63 446.99 550.67 446.88 550.58 446.77C550.58 446.76 550.57 446.76 550.56 446.74C550.56 446.73 550.56 446.72 550.56 446.72C550.54 444.8 550.49 442.79 550.42 440.75C550.42 440.75 550.42 440.75 550.42 440.73C550.42 440.72 550.42 440.71 550.42 440.71C550.47 440.62 550.47 440.55 550.42 440.48C550.42 440.48 550.41 440.47 550.4 440.46C550.4 440.44 550.4 440.44 550.4 440.43C550.35 438.86 550.29 437.49 550.22 436.18C550.22 436.18 550.22 436.16 550.22 436.11C550.26 436.11 550.28 436.11 550.29 436.11C551.15 436 552.02 435.91 552.91 435.79C556.5 435.34 560.21 434.86 563.86 434.95C563.86 434.95 563.87 434.95 563.89 434.95C563.9 434.96 563.91 434.97 563.91 434.97C563.98 435.02 564.07 435.04 564.18 435.04C564.18 435.04 564.18 435.04 564.18 435.04C564.3 435.04 564.41 434.99 564.48 434.93C564.57 434.86 564.62 434.74 564.62 434.63C564.62 433.46 564.62 424.08 564.62 422.9C564.62 422.54 564.11 422.24 563.73 422.01C563.61 421.94 563.5 421.87 563.43 421.81C562.72 421.29 557.03 417.14 556.32 416.62C556.25 416.57 556.21 416.55 556.14 416.55C556.13 416.55 556.12 416.55 556.11 416.55C556.05 416.5 555.98 416.5 555.91 416.5C551.63 416.51 517.38 416.56 513.1 416.57C512.96 416.57 512.85 416.62 512.78 416.73C512.69 416.85 512.66 417.01 512.71 417.17C512.71 417.17 512.72 417.19 512.73 417.23C512.7 417.25 512.69 417.26 512.69 417.26C512.59 417.3 512.5 417.42 512.53 417.6C512.75 421.49 513.01 425.44 513.3 429.35C513.3 429.35 513.3 429.37 513.3 429.39C513.28 429.41 513.26 429.42 513.26 429.42C513.14 429.51 513.07 429.62 513.05 429.74C513.05 429.85 513.1 429.94 513.19 430.03C513.78 430.56 514.4 431.11 514.97 431.66C516.37 432.94 517.78 434.26 519.34 435.34C520.05 435.82 520.91 436.05 522.06 436.05C522.65 436.05 523.25 436 523.84 435.93C524.43 435.89 525.03 435.82 525.62 435.82C525.87 435.82 526.13 435.82 526.35 435.84C526.36 435.84 526.38 435.84 526.42 435.84C526.19 457.03 526.06 468.8 526.03 471.15C526.03 471.18 526.03 471.2 526.03 471.22C526.03 471.22 526.03 471.23 526.03 471.25C526.03 471.26 526.03 471.27 526.03 471.27C525.99 471.41 526.03 471.57 526.13 471.68C528.69 474.4 532.27 475.93 535.45 477.14C535.84 477.28 536.25 477.35 536.78 477.35C537.17 477.35 537.55 477.3 537.94 477.28C537.95 477.28 538 477.28 538.01 477.28C538.83 477.21 539.79 477.17 540.89 477.17C541.07 477.17 541.28 477.17 541.46 477.17ZM547.89 476.78C546.65 476.66 545.65 476.57 544.73 476.48C544.73 476.48 544.72 476.48 544.71 476.48L544.69 476.46L538.81 471.86C538.92 471.85 538.98 471.84 538.99 471.84C539.73 471.79 540.34 471.73 540.91 471.66C540.92 471.66 540.93 471.66 540.96 471.66C540.99 471.68 541 471.7 541.01 471.7C541.07 471.82 541.21 471.89 541.35 471.89C541.46 471.89 541.58 471.84 541.65 471.77C541.65 471.77 541.66 471.75 541.69 471.73L548.14 476.8C547.99 476.79 547.9 476.78 547.89 476.78ZM547.61 476.57C547.02 476.11 542.28 472.37 541.69 471.91C541.6 471.98 541.46 472.02 541.33 472.02C541.14 472.02 540.98 471.95 540.87 471.82C540.37 471.86 539.82 471.93 539.18 471.98C539.55 472.27 541.4 473.71 544.73 476.32C545.92 476.43 546.88 476.51 547.61 476.57ZM536.53 476.53C535.73 476.53 534.88 476.11 534.13 475.77C533.92 475.68 533.71 475.57 533.51 475.5C532.71 475.15 531.89 474.77 531.09 474.35C529.71 473.65 528.5 472.8 527.45 471.86C527.44 471.85 527.39 471.8 527.29 471.7C527.43 471.72 527.5 471.72 527.52 471.73C528.55 471.84 529.62 471.91 530.72 471.95C530.72 471.95 530.73 471.95 530.74 471.95L537.3 476.5C537.14 476.5 537.05 476.5 537.03 476.5C536.87 476.5 536.73 476.53 536.57 476.53C536.56 476.53 536.53 476.53 536.53 476.53ZM531.15 474.22C531.95 474.63 532.75 475.02 533.58 475.36C533.78 475.45 533.99 475.54 534.19 475.63C534.93 475.98 535.77 476.37 536.53 476.37C536.53 476.37 536.57 476.37 536.57 476.37C536.66 476.37 536.73 476.37 536.82 476.37C536.21 475.94 531.29 472.54 530.67 472.11C529.69 472.07 528.69 472 527.73 471.91C528.71 472.78 529.85 473.55 531.15 474.22ZM537.85 476.41C537.83 476.34 537.81 476.3 537.76 476.27C537.35 475.99 535.28 474.56 531.57 472C531.72 472 531.8 472 531.82 472C532.66 472.02 533.55 472.05 534.47 472.02C534.47 472.02 534.48 472.02 534.49 472.02C534.51 472.04 534.51 472.04 534.51 472.05C536.43 473.35 538.31 474.77 540.11 476.23C540.12 476.24 540.18 476.27 540.27 476.34C540.15 476.34 540.08 476.34 540.07 476.34C539.77 476.37 539.47 476.37 539.18 476.39C538.77 476.41 538.35 476.43 537.94 476.46C537.94 476.46 537.92 476.47 537.87 476.48C537.86 476.44 537.85 476.42 537.85 476.41ZM537.85 476.14C537.92 476.18 537.97 476.25 537.99 476.32C538.38 476.3 538.77 476.27 539.15 476.25C539.38 476.23 539.61 476.23 539.86 476.21C538.13 474.79 536.32 473.44 534.45 472.16C533.67 472.21 532.87 472.18 532.09 472.16C533.24 472.96 537.28 475.74 537.85 476.14ZM543.61 476.39C543.29 476.37 542.95 476.34 542.63 476.34C542.33 476.32 542.03 476.32 541.71 476.32C541.46 476.32 541.21 476.32 540.96 476.32C540.96 476.32 540.95 476.32 540.94 476.32C540.92 476.31 540.92 476.3 540.91 476.3C539.15 474.83 537.33 473.44 535.47 472.14C535.46 472.13 535.4 472.08 535.29 472C535.43 472 535.5 472 535.52 472C536.48 471.98 537.49 471.93 538.49 471.86C538.5 471.86 538.56 471.85 538.67 471.84C538.59 471.92 538.55 471.97 538.54 471.98C538.49 472.02 538.47 472.07 538.47 472.11C538.47 472.16 538.49 472.21 538.54 472.23C538.89 472.51 540.67 473.9 543.86 476.41C543.71 476.4 543.63 476.39 543.61 476.39ZM542.65 476.21C542.9 476.23 543.15 476.23 543.38 476.25C542.89 475.87 538.98 472.8 538.49 472.41C538.42 472.34 538.35 472.27 538.35 472.18C538.35 472.14 538.35 472.09 538.38 472.07C537.49 472.14 536.62 472.16 535.77 472.21C537.55 473.46 539.31 474.81 541.01 476.23C541.26 476.18 541.49 476.18 541.74 476.18C542.06 476.18 542.35 476.18 542.65 476.21ZM541.81 470.74C541.81 470.72 541.81 470.7 541.81 470.7C541.83 470.38 541.83 470.06 541.83 469.74C541.83 469.68 541.84 469.41 541.85 468.91L548.75 473.76C548.75 473.79 548.75 473.8 548.75 473.81C548.71 474.51 548.64 475.22 548.57 475.93C548.57 475.94 548.58 476 548.59 476.09L541.81 470.74ZM548.46 475.79C548.5 475.15 548.57 474.49 548.62 473.85C548.18 473.54 545.97 472 542.01 469.21C542 469.54 541.99 469.72 541.99 469.76C541.99 470.06 541.99 470.35 541.97 470.67C543.26 471.7 547.81 475.28 548.46 475.79ZM541.87 468.37C541.87 468.34 541.87 468.32 541.87 468.32C541.9 467.59 541.92 466.88 541.94 466.15C541.94 466.1 541.95 465.83 541.97 465.35L541.97 465.35C541.97 465.25 541.97 465.2 541.97 465.19C542.01 463.43 542.06 461.55 542.1 459.34C542.1 459.33 542.1 459.27 542.1 459.18C546.22 462.39 548.5 464.17 548.96 464.53C549.03 464.59 549.14 464.59 549.23 464.55C549.24 464.55 549.28 464.53 549.35 464.5C549.35 464.59 549.35 464.63 549.35 464.64C549.3 465.37 549.28 466.08 549.23 466.81C549.23 466.82 549.23 466.88 549.23 466.99C549.17 466.91 549.13 466.87 549.12 466.86C549.1 466.83 549.1 466.83 549.07 466.81C546.93 465.21 544.78 463.5 542.72 461.71C542.58 461.6 542.38 461.67 542.33 461.83C542.31 461.87 542.31 461.97 542.4 462.03C544.48 463.82 546.65 465.55 548.87 467.22C548.96 467.29 549.07 467.25 549.1 467.2C549.11 467.19 549.15 467.14 549.23 467.04C549.22 467.16 549.21 467.23 549.21 467.25C549.14 468.39 549.1 469.33 549.03 470.19C549.03 470.2 549.03 470.25 549.03 470.33C545.09 467.26 542.91 465.55 542.47 465.21C542.35 465.12 542.19 465.14 542.1 465.26C542.1 465.27 542.06 465.31 541.99 465.39C542.04 465.46 542.07 465.5 542.08 465.51C542.08 465.51 542.1 465.53 542.1 465.53C542.56 465.89 544.85 467.68 548.96 470.9C548.96 470.93 548.96 470.95 548.96 470.95C548.91 471.68 548.85 472.41 548.8 473.14C548.8 473.15 548.81 473.18 548.82 473.23L541.87 468.37ZM548.69 472.96C548.73 472.3 548.78 471.61 548.82 470.95C548.37 470.6 546.13 468.85 542.1 465.69C542.09 465.97 542.08 466.12 542.08 466.15C542.08 466.88 542.08 467.59 542.03 468.3C543.36 469.23 548.02 472.49 548.69 472.96ZM542.58 465.1C543.22 465.59 548.28 469.56 548.91 470.06C548.96 469.26 549.03 468.41 549.07 467.41C548.98 467.43 548.87 467.43 548.78 467.36C546.56 465.71 544.39 463.95 542.31 462.17C542.29 462.15 542.24 462.1 542.22 462.08C542.19 463.15 542.17 464.14 542.15 465.1C542.19 465.03 542.26 465.01 542.33 465.01C542.42 465.01 542.49 465.03 542.58 465.1ZM542.83 461.58C544.87 463.34 546.99 465.03 549.12 466.63C549.17 465.99 549.19 465.37 549.21 464.73C549.1 464.75 548.98 464.73 548.91 464.66C548.25 464.15 542.95 460.01 542.29 459.5C542.26 460.27 542.26 461.01 542.24 461.69C542.31 461.58 542.45 461.49 542.58 461.49C542.67 461.49 542.77 461.51 542.83 461.58ZM530.26 471.06C530.26 471.06 530.25 471.06 530.24 471.06C530.01 470.91 529.88 470.83 529.85 470.81C529.71 470.72 529.58 470.81 529.53 470.97C529.53 470.98 529.52 471 529.51 471.04C529.47 471.04 529.44 471.04 529.44 471.04C528.57 470.97 527.7 470.9 526.83 470.81C526.83 470.81 526.81 470.81 526.77 470.81L526.77 470.74L527.22 430.45C527.22 430.43 527.22 430.42 527.22 430.42C527.29 430.29 527.29 430.1 527.2 429.97C527.15 429.9 527.06 429.81 526.88 429.81C526.88 429.81 526.86 429.81 526.86 429.81C524.82 429.87 522.74 429.87 520.71 429.78C520.71 429.78 520.7 429.78 520.69 429.78C520.64 429.74 520.62 429.72 520.62 429.71C520.59 429.69 520.57 429.67 520.55 429.65C520.43 429.55 520.25 429.58 520.18 429.71C520.18 429.72 520.17 429.73 520.16 429.76C520.13 429.76 520.12 429.76 520.11 429.76C519.13 429.71 518.19 429.62 517.28 429.55C517.28 429.55 517.27 429.55 517.26 429.55C517.24 429.54 517.24 429.53 517.23 429.53C517.19 429.46 517.12 429.44 517.05 429.44C517.01 429.44 516.94 429.46 516.89 429.49C516.89 429.49 516.88 429.49 516.87 429.51C516.85 429.51 516.85 429.51 516.85 429.51C515.84 429.39 514.95 429.3 514.08 429.17C514.08 429.17 514.05 429.17 514.01 429.17C514.01 429.12 514.01 429.1 514.01 429.1C513.74 425.26 513.46 421.42 513.26 417.65C513.26 417.62 513.26 417.6 513.23 417.58C513.23 417.57 513.23 417.54 513.21 417.49L513.3 417.49L555.36 417.42C555.36 417.46 555.36 417.48 555.36 417.49C555.43 421.42 555.43 425.37 555.41 429.23C555.41 429.28 555.41 429.33 555.43 429.39C555.43 429.4 555.44 429.43 555.45 429.49C547.26 429.6 542.72 429.66 541.81 429.67C541.67 429.67 541.55 429.71 541.49 429.83C541.48 429.83 541.48 429.84 541.46 429.85C541.45 429.85 541.44 429.85 541.44 429.85C541.23 429.9 541.12 430.03 541.12 430.24C541.26 435.73 541.33 441.42 541.3 447.15C541.3 447.16 541.3 447.17 541.3 447.2C541.29 447.21 541.28 447.22 541.28 447.22C541.23 447.27 541.19 447.36 541.19 447.43C541.19 447.47 541.21 447.57 541.28 447.61C541.28 447.61 541.29 447.62 541.3 447.63C541.3 447.66 541.3 447.68 541.3 447.68C541.28 455.38 541.14 463.11 540.87 470.63C540.87 470.63 540.87 470.64 540.87 470.65C540.85 470.67 540.85 470.67 540.85 470.67C540.8 470.72 540.78 470.77 540.75 470.83C540.75 470.84 540.75 470.85 540.73 470.88C540.7 470.88 540.69 470.88 540.69 470.88C538.51 471.06 536.23 471.18 533.94 471.18C532.73 471.18 531.5 471.13 530.26 471.06ZM533.94 471.04C536.18 471.04 538.47 470.93 540.71 470.67C540.73 470.63 540.75 470.58 540.8 470.54C541.07 463.04 541.23 455.34 541.23 447.66C541.17 447.59 541.12 447.5 541.12 447.38C541.12 447.27 541.17 447.15 541.23 447.09C541.23 441.35 541.17 435.68 541.05 430.19C541.05 429.87 541.26 429.71 541.46 429.65C541.53 429.55 541.67 429.46 541.9 429.44C543.24 429.42 553.99 429.28 555.34 429.26C555.34 429.23 555.34 429.19 555.34 429.17C555.36 425.33 555.36 421.42 555.29 417.51C551.11 417.52 517.65 417.57 513.46 417.58C513.46 417.58 513.46 417.58 513.46 417.58C513.67 421.33 513.94 425.17 514.22 428.98C515.06 429.1 515.93 429.21 516.89 429.3C517.05 429.21 517.26 429.21 517.39 429.35C518.26 429.44 519.2 429.51 520.14 429.55C520.27 429.39 520.53 429.35 520.71 429.49C520.73 429.51 520.75 429.53 520.78 429.55C520.78 429.56 520.82 429.57 520.82 429.58C522.86 429.67 524.91 429.69 526.93 429.6C526.93 429.6 526.95 429.6 526.95 429.6C527.13 429.6 527.29 429.69 527.41 429.83C527.52 429.99 527.52 430.22 527.45 430.42C527.41 434.44 527.04 466.59 526.99 470.61C527.82 470.7 528.64 470.77 529.46 470.83C529.55 470.61 529.81 470.51 529.99 470.65C530.01 470.67 530.12 470.76 530.31 470.93C531.92 471 533.14 471.04 533.94 471.04ZM542.15 458.63C542.15 458.6 542.15 458.59 542.15 458.58C542.15 458.08 542.17 457.55 542.17 457.05C542.17 457.01 542.17 456.79 542.17 456.39L542.29 456.48L542.24 456.55L542.29 456.5L542.31 456.53C546.33 459.57 548.56 461.26 549.01 461.6C549.14 461.69 549.26 461.6 549.3 461.49C549.33 461.44 549.35 461.3 549.21 461.19C548.61 460.73 543.76 457.05 543.15 456.59C543.13 456.57 543.06 456.53 542.97 456.48C542.77 456.34 542.47 456.16 542.33 456.02C542.33 456.02 542.32 456.01 542.31 456C542.31 455.97 542.31 455.96 542.31 455.95C542.33 455.89 542.31 455.79 542.24 455.75C542.23 455.74 542.2 455.71 542.15 455.66C542.15 455.63 542.15 455.61 542.15 455.61C542.15 455.2 542.15 454.77 542.17 454.35C542.17 454.31 542.17 454.11 542.17 453.74L549.55 458.58C549.55 458.61 549.55 458.63 549.55 458.63C549.51 460.66 549.44 462.47 549.35 464.16C549.35 464.17 549.37 464.21 549.39 464.27L542.15 458.63ZM549.23 463.98C549.26 463.25 549.3 462.49 549.33 461.71C549.21 461.81 549.05 461.81 548.91 461.71C548.47 461.38 546.27 459.7 542.31 456.69C542.31 456.91 542.31 457.03 542.31 457.05C542.31 457.55 542.31 458.06 542.29 458.56C543.68 459.64 548.54 463.44 549.23 463.98ZM543.09 456.34C543.18 456.41 543.25 456.46 543.27 456.46C543.87 456.92 548.72 460.59 549.33 461.05C549.33 461.05 549.35 461.07 549.35 461.07C549.37 460.3 549.39 459.47 549.42 458.63C548.94 458.32 546.58 456.77 542.33 453.99C542.33 454.19 542.33 454.31 542.33 454.33C542.33 454.74 542.33 455.15 542.31 455.57C542.31 455.57 542.31 455.57 542.31 455.57C542.31 455.57 542.35 455.61 542.35 455.61C542.47 455.7 542.51 455.82 542.49 455.93C542.65 456.05 542.9 456.23 543.09 456.34ZM542.22 453.19C542.22 453.16 542.22 453.15 542.22 453.14C542.24 451.63 542.24 450.08 542.24 448.39C542.24 448.38 542.24 448.32 542.24 448.23L549.67 453.78C549.67 454 549.67 454.12 549.67 454.15C549.67 454.54 549.67 454.9 549.65 455.29C549.65 455.3 549.65 455.35 549.65 455.43C549.58 455.37 549.54 455.34 549.53 455.34C547.36 453.78 545.21 452.21 543.18 450.65C543.04 450.56 542.93 450.65 542.88 450.77C542.86 450.81 542.83 450.95 542.97 451.06C545.1 452.71 547.34 454.35 549.6 455.95C549.6 455.96 549.61 455.96 549.62 455.98C549.62 456.13 549.62 456.21 549.62 456.23C549.62 456.78 549.6 457.35 549.58 457.9C549.58 457.91 549.59 457.95 549.6 458.03L542.22 453.19ZM549.46 457.76C549.49 457.26 549.49 456.73 549.49 456.23C549.49 456.21 549.49 456.06 549.49 456.05C547.22 454.45 545.01 452.8 542.88 451.15C542.72 451.02 542.7 450.83 542.74 450.7C542.83 450.47 543.09 450.35 543.27 450.51C545.26 452.05 547.36 453.6 549.51 455.13C549.51 454.81 549.51 454.47 549.53 454.15C549.53 454.13 549.53 454.04 549.53 453.87C545.25 450.68 542.88 448.9 542.4 448.55C542.4 450.15 542.38 451.63 542.38 453.1C543.79 454.03 548.75 457.29 549.46 457.76ZM542.26 447.68C542.26 447.65 542.26 447.64 542.26 447.63C542.26 447.11 542.26 446.61 542.26 446.08C542.26 446.02 542.26 445.73 542.26 445.21C546.58 448.46 548.98 450.27 549.46 450.63C549.51 450.67 549.55 450.67 549.6 450.67C549.61 450.67 549.64 450.67 549.69 450.65C549.69 450.71 549.69 450.74 549.69 450.74C549.69 451.52 549.69 452.3 549.69 453.1C549.69 453.11 549.69 453.15 549.69 453.23L542.26 447.68ZM549.53 452.94C549.53 452.23 549.53 451.52 549.53 450.81C549.46 450.81 549.42 450.79 549.35 450.74C548.88 450.39 546.56 448.65 542.38 445.51C542.38 445.84 542.38 446.02 542.38 446.06C542.4 446.58 542.4 447.09 542.4 447.59C543.83 448.66 548.82 452.4 549.53 452.94ZM542.24 444.64C542.24 444.61 542.24 444.6 542.24 444.59C542.24 443.7 542.24 442.81 542.22 441.9C542.22 441.89 542.22 441.84 542.22 441.76C542.29 441.8 542.32 441.82 542.33 441.83C544.78 443.31 547.22 444.94 549.62 446.67C549.62 446.68 549.63 446.68 549.65 446.7C549.65 446.72 549.65 446.74 549.65 446.74C549.67 447.91 549.67 449.01 549.67 450.06C549.67 450.07 549.68 450.12 549.69 450.22L542.24 444.64ZM549.53 449.92C549.53 448.91 549.53 447.89 549.51 446.79C547.18 445.1 544.78 443.5 542.38 442.06C542.4 442.88 542.4 443.73 542.4 444.57C543.83 445.64 548.82 449.39 549.53 449.92ZM549.55 446.06C547.22 444.39 544.85 442.81 542.49 441.39C542.45 441.37 542.4 441.35 542.33 441.37C542.33 441.37 542.29 441.38 542.24 441.39C542.24 441.34 542.24 441.31 542.24 441.3C542.22 439.61 542.22 437.9 542.19 436.18C542.19 436.17 542.19 436.13 542.19 436.05L549.53 440.53C549.53 440.55 549.53 440.57 549.53 440.57C549.58 441.65 549.6 442.61 549.62 443.47C549.62 443.48 549.62 443.54 549.62 443.63C547.63 442.22 546.53 441.44 546.31 441.28C546.08 441.12 545.83 440.91 545.58 440.71C544.8 440.09 543.91 439.38 542.97 439.27C542.81 439.25 542.67 439.38 542.67 439.52C542.67 439.59 542.67 439.68 542.83 439.7C543.82 439.84 544.78 440.62 545.62 441.28C545.9 441.51 546.17 441.71 546.42 441.9C546.64 442.05 547.71 442.81 549.65 444.18C549.65 444.25 549.65 444.29 549.65 444.3C549.67 444.87 549.67 445.44 549.67 446.01C549.67 446.02 549.67 446.07 549.67 446.15C549.6 446.09 549.56 446.06 549.55 446.06ZM542.56 441.26C544.87 442.65 547.22 444.21 549.51 445.85C549.51 445.33 549.49 444.8 549.49 444.27C549.49 444.27 549.49 444.26 549.49 444.23C547.59 442.88 546.54 442.14 546.33 441.99C546.08 441.81 545.81 441.6 545.53 441.37C544.69 440.71 543.75 439.93 542.81 439.82C542.63 439.79 542.51 439.66 542.54 439.47C542.56 439.27 542.74 439.04 542.99 439.09C543.98 439.22 544.87 439.93 545.67 440.57C545.92 440.78 546.17 440.96 546.4 441.14C546.71 441.36 549.16 443.1 549.46 443.31C549.44 442.49 549.42 441.6 549.37 440.62C548.67 440.19 543.04 436.75 542.33 436.32C542.35 437.94 542.38 439.59 542.4 441.21C542.47 441.21 542.51 441.23 542.56 441.26ZM542.42 435.63C542.38 435.61 542.33 435.59 542.26 435.61C542.26 435.61 542.23 435.62 542.17 435.63C542.17 435.58 542.17 435.55 542.17 435.54C542.15 434.7 542.15 433.83 542.13 432.98C542.13 432.97 542.13 432.92 542.13 432.82C542.21 432.89 542.25 432.93 542.26 432.94C544.5 434.83 546.9 436.55 549.42 438.06C549.42 438.06 549.44 438.07 549.46 438.08C549.46 438.11 549.46 438.12 549.46 438.13C549.49 438.7 549.51 439.29 549.53 439.86C549.53 439.87 549.52 439.9 549.51 439.95C545.26 437.36 542.9 435.92 542.42 435.63ZM542.51 435.5C543.2 435.92 548.69 439.26 549.37 439.68C549.35 439.15 549.33 438.65 549.3 438.13C546.83 436.66 544.48 434.99 542.31 433.12C542.29 433.9 542.31 434.67 542.33 435.45C542.4 435.45 542.45 435.47 542.51 435.5ZM549.28 437.42C546.9 435.98 544.62 434.33 542.54 432.55C542.45 432.48 542.33 432.48 542.24 432.55C542.23 432.55 542.19 432.59 542.13 432.64C542.13 432.37 542.13 432.21 542.13 432.18C542.13 431.86 542.1 431.57 542.1 431.25C542.1 431.24 542.1 431.19 542.1 431.11L549.35 436.05C549.35 436.07 549.35 436.09 549.35 436.09C549.37 436.46 549.39 436.82 549.39 437.19C549.39 437.21 549.39 437.31 549.39 437.49C549.33 437.44 549.29 437.42 549.28 437.42ZM542.65 432.43C544.69 434.17 546.93 435.79 549.26 437.21C549.26 437.21 549.26 437.17 549.26 437.17C549.23 436.82 549.23 436.46 549.21 436.11C548.52 435.64 542.96 431.86 542.26 431.38C542.26 431.66 542.26 431.91 542.29 432.18C542.29 432.2 542.29 432.35 542.29 432.37C542.31 432.37 542.35 432.34 542.4 432.34C542.49 432.34 542.58 432.37 542.65 432.43ZM549.78 435.31L542.67 430.47L546.67 430.42C546.69 430.44 546.7 430.44 546.7 430.45C548.57 431.84 550.4 433.35 552.09 434.95C552.1 434.96 552.14 434.99 552.21 435.06C552.11 435.08 552.06 435.08 552.05 435.09C551.31 435.18 550.56 435.27 549.83 435.36C549.83 435.36 549.83 435.35 549.83 435.34L549.78 435.31ZM549.85 435.18C549.85 435.18 549.85 435.18 549.87 435.18C550.54 435.11 551.22 435.02 551.91 434.93C550.24 433.37 548.48 431.89 546.65 430.56C546.42 430.56 545.25 430.58 543.15 430.61C547.17 433.35 549.4 434.87 549.85 435.18ZM520.02 434.77C519.18 434.38 518.42 433.67 517.71 432.96C517.44 432.71 517.19 432.46 516.94 432.25C516.77 432.1 515.93 431.36 514.42 430.03C514.57 430.05 514.66 430.06 514.67 430.06C515.54 430.17 516.43 430.29 517.37 430.35C517.37 430.35 517.38 430.35 517.39 430.35C517.41 430.37 517.42 430.38 517.42 430.38C517.81 430.81 518.26 431.22 518.72 431.61C518.95 431.82 519.18 432 519.41 432.21C519.62 432.4 520.69 433.39 522.63 435.18L522.33 435.2C521.22 435.11 520.45 434.96 520.02 434.77ZM517.05 432.14C517.3 432.37 517.55 432.59 517.83 432.87C518.54 433.55 519.29 434.26 520.09 434.65C520.69 434.93 521.37 435.06 522.24 435.06C521.95 434.79 519.61 432.61 519.31 432.34C519.11 432.14 518.86 431.95 518.65 431.75C518.22 431.36 517.76 430.97 517.35 430.54C516.5 430.45 515.7 430.35 514.93 430.26C515.35 430.64 516.84 431.95 517.05 432.14ZM522.95 435.06C522.97 435.02 522.99 434.93 522.9 434.81C522.61 434.55 520.31 432.43 520.02 432.16C519.77 431.93 519.52 431.7 519.25 431.47C518.9 431.18 518.56 430.88 518.22 430.56C518.21 430.55 518.15 430.51 518.06 430.42C518.18 430.44 518.25 430.44 518.26 430.45C519.15 430.51 520.07 430.58 520.98 430.63C520.98 430.63 520.99 430.63 521.01 430.63C521.02 430.64 521.03 430.65 521.03 430.65C522.24 431.77 523.31 433.03 524.23 434.35C524.3 434.45 524.37 434.47 524.41 434.47C524.5 434.47 524.59 434.42 524.64 434.33C524.66 434.26 524.66 434.19 524.62 434.15C523.79 432.94 522.86 431.82 521.83 430.81C521.82 430.8 521.77 430.76 521.69 430.67C521.81 430.67 521.88 430.67 521.9 430.67C522.42 430.7 522.97 430.7 523.63 430.72C523.64 430.72 523.65 430.72 523.68 430.72C523.69 430.75 523.7 430.76 523.7 430.77C523.7 430.81 523.73 430.83 523.77 430.86C524.75 431.63 525.62 432.55 526.35 433.53C526.36 433.53 526.36 433.54 526.38 433.55L526.35 435.02C526.31 435.02 526.29 435.02 526.29 435.02C526.13 435.02 525.94 434.99 525.76 434.99C525.19 434.99 524.62 435.04 524.05 435.09C523.7 435.11 523.34 435.15 522.99 435.18C522.99 435.18 522.95 435.18 522.88 435.18C522.92 435.11 522.94 435.07 522.95 435.06ZM519.34 431.38C519.61 431.61 519.86 431.84 520.11 432.07C520.4 432.33 522.71 434.45 522.99 434.72C523.09 434.81 523.13 434.93 523.11 435.02C523.43 434.99 523.73 434.97 524.05 434.95C524.62 434.9 525.21 434.86 525.76 434.86C525.92 434.86 526.06 434.86 526.22 434.88C526.22 434.75 526.24 433.75 526.24 433.62C525.53 432.66 524.66 431.77 523.7 430.99C523.66 430.95 523.63 430.93 523.61 430.88C523.06 430.88 522.58 430.86 522.13 430.86C523.11 431.84 524.02 432.94 524.8 434.08C524.87 434.19 524.89 434.31 524.82 434.42C524.75 434.56 524.62 434.63 524.46 434.63C524.32 434.63 524.21 434.56 524.14 434.47C523.22 433.14 522.17 431.91 520.96 430.81C520.14 430.74 519.29 430.7 518.49 430.63C518.77 430.88 519.06 431.13 519.34 431.38ZM552.78 434.95C551.15 433.37 549.42 431.89 547.61 430.54C547.6 430.53 547.54 430.48 547.43 430.4L550.17 430.35C550.19 430.37 550.19 430.38 550.19 430.38C551.84 431.82 553.62 433.19 555.45 434.51C555.46 434.52 555.52 434.56 555.61 434.63C555.49 434.64 555.42 434.65 555.41 434.65C554.54 434.77 553.67 434.86 552.82 434.97C552.82 434.97 552.81 434.97 552.8 434.97C552.79 434.96 552.78 434.95 552.78 434.95ZM552.87 434.81C553.65 434.72 554.45 434.61 555.22 434.51C553.44 433.23 551.73 431.89 550.13 430.51C549.98 430.52 549.23 430.52 547.89 430.54C550.16 432.38 551.82 433.81 552.87 434.81ZM556.23 434.49C556.21 434.47 556.18 434.45 556.16 434.42C554.42 433.21 552.71 431.89 551.04 430.47C551.03 430.46 550.98 430.41 550.88 430.33L554.08 430.29C554.09 430.33 554.1 430.35 554.1 430.35C554.13 430.4 554.15 430.45 554.19 430.49C555.68 431.59 557.1 432.85 558.42 434.19C558.43 434.2 558.47 434.24 558.54 434.31C558.44 434.32 558.39 434.33 558.38 434.33C557.71 434.4 557.03 434.47 556.3 434.54C556.29 434.54 556.28 434.54 556.25 434.54C556.24 434.51 556.23 434.49 556.23 434.49ZM556.25 434.31C556.27 434.33 556.3 434.35 556.32 434.38C556.98 434.31 557.6 434.24 558.19 434.17C556.89 432.87 555.52 431.68 554.08 430.61C554.01 430.56 553.99 430.51 553.94 430.45C553.77 430.45 552.88 430.46 551.29 430.49C553.49 432.26 555.14 433.53 556.25 434.31ZM559.11 434.24C557.81 432.89 556.37 431.61 554.86 430.45C554.84 430.44 554.78 430.39 554.67 430.31L555.73 430.29C555.74 430.3 555.75 430.31 555.75 430.31C555.79 430.38 555.86 430.42 555.93 430.45C558.22 431.36 560.43 432.53 562.54 433.97C562.55 433.97 562.62 434.02 562.74 434.1C562.59 434.1 562.51 434.1 562.49 434.1C561.46 434.13 560.39 434.17 559.18 434.26C559.17 434.26 559.16 434.26 559.13 434.26C559.12 434.25 559.11 434.24 559.11 434.24ZM559.2 434.1C560.3 434.01 561.3 433.97 562.24 433.94C560.21 432.59 558.08 431.45 555.86 430.58C555.77 430.56 555.7 430.49 555.63 430.42C555.6 430.42 555.42 430.43 555.11 430.45C557 432.02 558.36 433.23 559.2 434.1ZM563.59 433.65C561.44 432.11 559.11 430.83 556.64 429.81C556.64 429.8 556.62 429.8 556.59 429.78C556.59 429.76 556.59 429.74 556.59 429.74C556.57 429.58 556.48 429.46 556.34 429.42C556.34 429.42 556.32 429.41 556.27 429.39C556.29 429.35 556.3 429.33 556.3 429.33C556.32 429.28 556.32 429.21 556.32 429.17C556.32 428.89 556.32 428.62 556.32 428.37C556.32 428.32 556.32 428.11 556.32 427.73C560.41 430.84 562.68 432.57 563.13 432.91C563.27 433.01 563.38 432.91 563.43 432.8C563.45 432.75 563.47 432.62 563.34 432.5C562.87 432.15 560.53 430.36 556.32 427.15C556.32 427.13 556.32 427.11 556.32 427.11C556.32 426.77 556.32 426.4 556.32 426.06C556.32 425.83 556.32 425.58 556.32 425.35C556.32 425.35 556.32 425.33 556.32 425.3C556.33 425.29 556.34 425.28 556.34 425.28C556.41 425.23 556.43 425.17 556.43 425.1C556.43 425.03 556.41 424.98 556.37 424.94C556.37 424.93 556.41 424.89 556.48 424.82L556.48 424.82C556.48 424.82 556.48 424.82 556.48 424.82C557.17 425.53 558.13 426.1 559.04 426.65C559.36 426.83 559.7 427.04 560 427.25C560.25 427.4 561.47 428.2 563.68 429.62L563.7 433.74C563.63 433.68 563.6 433.65 563.59 433.65ZM563.57 433.44C563.57 433.39 563.57 432.97 563.57 432.91C563.45 433.1 563.25 433.17 563.06 433.03C562.63 432.69 560.44 431.03 556.5 428.02C556.5 428.23 556.5 428.34 556.5 428.37C556.5 428.64 556.5 428.91 556.5 429.17C556.5 429.21 556.5 429.28 556.48 429.33C556.59 429.42 556.69 429.53 556.73 429.69C559.15 430.7 561.46 431.95 563.57 433.44ZM563.45 432.39C563.5 432.41 563.52 432.46 563.54 432.5C563.54 432.32 563.54 431.4 563.54 429.74C561.38 428.34 560.17 427.56 559.93 427.41C559.63 427.2 559.31 427.02 558.97 426.81C558.15 426.31 557.28 425.78 556.59 425.17C556.57 425.26 556.53 425.33 556.48 425.39C556.48 425.62 556.48 425.85 556.48 426.06C556.5 426.42 556.5 426.77 556.5 427.09C557.89 428.15 562.76 431.86 563.45 432.39ZM526.26 432.66C525.71 432 525.12 431.38 524.48 430.83C524.47 430.83 524.42 430.78 524.32 430.7C524.44 430.7 524.51 430.7 524.53 430.7C525.19 430.7 525.78 430.7 526.33 430.67C526.34 430.67 526.36 430.67 526.4 430.67L526.4 432.82C526.32 432.73 526.27 432.67 526.26 432.66ZM526.24 432.41C526.24 432.25 526.26 430.99 526.26 430.83C525.78 430.83 525.28 430.86 524.73 430.86C525.26 431.34 525.78 431.84 526.24 432.41ZM557.87 425.35C557.81 425.3 557.71 425.23 557.6 425.14C557.26 424.89 556.8 424.53 556.41 424.5C556.41 424.5 556.38 424.5 556.34 424.5C556.34 424.46 556.34 424.44 556.34 424.43C556.34 423.91 556.34 423.41 556.34 422.88C556.34 422.84 556.34 422.63 556.34 422.26C556.41 422.29 556.45 422.31 556.46 422.31C558.95 423.45 561.37 424.8 563.66 426.29C563.66 426.29 563.68 426.3 563.73 426.33L563.7 429.12C560.21 426.86 558.26 425.6 557.87 425.35ZM557.69 425.03C557.81 425.12 557.9 425.19 557.97 425.23C558.34 425.48 560.21 426.68 563.57 428.85C563.57 427.41 563.57 426.61 563.57 426.45C561.33 424.98 558.95 423.66 556.5 422.51C556.5 422.55 556.5 422.84 556.5 422.88C556.48 423.38 556.5 423.89 556.5 424.37C556.91 424.41 557.37 424.78 557.69 425.03ZM563.59 425.76C561.3 424.27 558.88 422.95 556.41 421.83C556.41 421.83 556.38 421.82 556.34 421.81C556.34 421.78 556.34 421.76 556.34 421.76C556.34 420.25 556.32 419.02 556.3 417.9C556.3 417.89 556.3 417.83 556.3 417.74L563.7 423.15L563.7 425.83C563.63 425.79 563.6 425.76 563.59 425.76ZM563.54 425.55C563.54 425.4 563.54 424.62 563.54 423.22C559.28 420.11 556.91 418.38 556.43 418.03C556.46 419.09 556.48 420.27 556.48 421.69C558.9 422.79 561.28 424.09 563.54 425.55Z" id="g1aYRlguIM"></path></defs><g><g><g><use xlink:href="#fWMpIyO0x" opacity="1" fill="#000000" fill-opacity="1"></use><g><use xlink:href="#fWMpIyO0x" opacity="1" fill-opacity="0" stroke="#000000" stroke-width="1" stroke-opacity="0"></use></g></g><g><use xlink:href="#g1aYRlguIM" opacity="1" fill="#180f0b" fill-opacity="1"></use><g><use xlink:href="#g1aYRlguIM" opacity="1" fill-opacity="0" stroke="#000000" stroke-width="1" stroke-opacity="0"></use></g></g></g></g></svg>