<?xml version="1.0" ?><svg id="图层_1" style="enable-background:new -239 241 32 32;" version="1.1" viewBox="-239 241 32 32" xml:space="preserve" xmlns="http://www.w3.org/2000/svg" xmlns:xlink="http://www.w3.org/1999/xlink"><style type="text/css">
	.st0{fill:#F42F42;}
	.st1{opacity:0.2038;fill:#332E0A;enable-background:new    ;}
	.st2{fill:none;stroke:#0A2933;stroke-linejoin:round;}
	.st3{fill:none;stroke:#FFFFFF;stroke-linecap:round;stroke-linejoin:round;stroke-dasharray:1,2,6,2,3;}
</style><path class="letter-fill" d="M-226.7,248.8h0.5v-2.6c0-0.7,0-1.3,0.1-1.7c0-0.4,0.1-0.7,0.3-1c0.2-0.3,0.4-0.5,0.7-0.7  c0.3-0.2,0.7-0.3,1.1-0.3c0.6,0,1.1,0.2,1.5,0.6c0.3,0.3,0.5,0.6,0.6,1s0.1,1,0.1,1.7v3h1.6c0.6,0,1.1,0.1,1.4,0.4  c0.3,0.3,0.5,0.7,0.5,1.1c0,0.6-0.2,1-0.7,1.2s-1.1,0.4-2,0.4h-0.8v8.1c0,0.7,0,1.2,0.1,1.6c0,0.4,0.2,0.7,0.4,0.9s0.6,0.3,1,0.3  c0.3,0,0.6,0,1-0.1c0.4-0.1,0.8-0.1,1-0.1c0.4,0,0.7,0.1,1,0.4c0.3,0.3,0.4,0.6,0.4,1.1c0,0.7-0.4,1.3-1.2,1.6  c-0.8,0.4-1.9,0.6-3.3,0.6c-1.4,0-2.4-0.2-3.1-0.7s-1.2-1.1-1.4-1.9c-0.2-0.8-0.3-1.9-0.3-3.3V252h-0.6c-0.6,0-1.1-0.2-1.4-0.5  c-0.3-0.3-0.5-0.7-0.5-1.1s0.2-0.8,0.5-1.1C-227.9,249-227.4,248.8-226.7,248.8z"/><path class="st1" d="M-217.2,263.2c0.2,0.3,0.3,0.6,0.3,0.9c0,0.7-0.4,1.3-1.2,1.6c-0.8,0.4-1.9,0.6-3.3,0.6  c-1.4,0-2.4-0.2-3.1-0.7s-1.2-1.1-1.4-1.9c-0.2-0.8-0.3-1.9-0.3-3.3v-1.9c0,1.4,0.1,2.5,0.3,3.3c0.2,0.8,0.7,1.5,1.4,1.9  c0.7,0.5,1.7,0.7,3.1,0.7c1.4,0,2.6-0.2,3.3-0.6C-217.7,263.7-217.4,263.5-217.2,263.2z" id="Combined-Shape"/><path class="letter-border" d="M-226.7,248.8h0.5v-2.6c0-0.7,0-1.3,0.1-1.7c0-0.4,0.1-0.7,0.3-1c0.2-0.3,0.4-0.5,0.7-0.7  c0.3-0.2,0.7-0.3,1.1-0.3c0.6,0,1.1,0.2,1.5,0.6c0.3,0.3,0.5,0.6,0.6,1s0.1,1,0.1,1.7v3h1.6c0.6,0,1.1,0.1,1.4,0.4  c0.3,0.3,0.5,0.7,0.5,1.1c0,0.6-0.2,1-0.7,1.2s-1.1,0.4-2,0.4h-0.8v8.1c0,0.7,0,1.2,0.1,1.6c0,0.4,0.2,0.7,0.4,0.9s0.6,0.3,1,0.3  c0.3,0,0.6,0,1-0.1c0.4-0.1,0.8-0.1,1-0.1c0.4,0,0.7,0.1,1,0.4c0.3,0.3,0.4,0.6,0.4,1.1c0,0.7-0.4,1.3-1.2,1.6  c-0.8,0.4-1.9,0.6-3.3,0.6c-1.4,0-2.4-0.2-3.1-0.7s-1.2-1.1-1.4-1.9c-0.2-0.8-0.3-1.9-0.3-3.3V252h-0.6c-0.6,0-1.1-0.2-1.4-0.5  c-0.3-0.3-0.5-0.7-0.5-1.1s0.2-0.8,0.5-1.1C-227.9,249-227.4,248.8-226.7,248.8z"/><path class="st3" d="M-225.3,253.1c0,2.5,0,4,0,4.6" id="Path-22"/></svg>