<?xml version="1.0" ?><svg id="图层_1" style="enable-background:new -239 241 32 32;" version="1.1" viewBox="-239 241 32 32" xml:space="preserve" xmlns="http://www.w3.org/2000/svg" xmlns:xlink="http://www.w3.org/1999/xlink"><style type="text/css">
	.st0{fill:#F42F42;}
	.st1{opacity:0.2038;fill:#332E0A;enable-background:new    ;}
	.st2{fill:none;stroke:#0A2933;stroke-linejoin:round;}
	.st3{fill:none;stroke:#FFFFFF;stroke-linecap:round;stroke-linejoin:round;stroke-dasharray:1,2,6,2,3;}
</style><path class="letter-fill" d="M-218.6,263.6V263c-0.6,0.7-1.2,1.3-1.8,1.8c-0.6,0.5-1.3,0.8-2,1.1c-0.7,0.2-1.6,0.4-2.5,0.4  c-1.1,0-2.2-0.2-3.1-0.7c-0.9-0.5-1.6-1.1-2.1-2c-0.6-1-0.9-2.5-0.9-4.3v-9.4c0-0.9,0.2-1.7,0.6-2.1c0.4-0.5,1-0.7,1.7-0.7  c0.7,0,1.3,0.2,1.7,0.7c0.4,0.5,0.7,1.2,0.7,2.1v7.6c0,1.1,0.1,2,0.3,2.8c0.2,0.7,0.5,1.3,1,1.8s1.1,0.6,2,0.6  c0.8,0,1.6-0.2,2.3-0.7s1.2-1.1,1.5-1.9c0.3-0.7,0.4-2.1,0.4-4.4v-5.8c0-0.9,0.2-1.6,0.7-2.1c0.4-0.5,1-0.7,1.7-0.7s1.3,0.2,1.7,0.7  s0.6,1.2,0.6,2.1v13.7c0,0.9-0.2,1.6-0.6,2c-0.4,0.5-0.9,0.7-1.6,0.7s-1.2-0.2-1.6-0.7S-218.6,264.4-218.6,263.6z"/><path class="st1" d="M-230.9,261.2c0.3,0.4,0.6,0.7,0.8,0.9c0.5,0.8,1.2,1.5,2.1,2c0.9,0.5,1.9,0.7,3.1,0.7  c0.9,0,1.8-0.1,2.5-0.4c0.7-0.2,1.4-0.6,2-1.1c0.6-0.5,1.2-1.1,1.8-1.8v0.6c0,0.8,0.2,1.5,0.6,2c0.4,0.5,1,0.7,1.6,0.7  s1.2-0.2,1.6-0.7c0.4-0.5,0.6-1.1,0.6-2v1.5c0,0.9-0.2,1.6-0.6,2c-0.4,0.5-0.9,0.7-1.6,0.7s-1.2-0.2-1.6-0.7s-0.6-1.1-0.6-2V263  c-0.6,0.7-1.2,1.3-1.8,1.8c-0.6,0.5-1.3,0.8-2,1.1c-0.7,0.2-1.6,0.4-2.5,0.4c-1.1,0-2.2-0.2-3.1-0.7c-0.9-0.5-1.6-1.1-2.1-2  C-230.5,262.9-230.7,262.1-230.9,261.2z" id="Combined-Shape"/><path class="letter-border" d="M-218.6,263.6V263c-0.6,0.7-1.2,1.3-1.8,1.8c-0.6,0.5-1.3,0.8-2,1.1c-0.7,0.2-1.6,0.4-2.5,0.4  c-1.1,0-2.2-0.2-3.1-0.7c-0.9-0.5-1.6-1.1-2.1-2c-0.6-1-0.9-2.5-0.9-4.3v-9.4c0-0.9,0.2-1.7,0.6-2.1c0.4-0.5,1-0.7,1.7-0.7  c0.7,0,1.3,0.2,1.7,0.7c0.4,0.5,0.7,1.2,0.7,2.1v7.6c0,1.1,0.1,2,0.3,2.8c0.2,0.7,0.5,1.3,1,1.8s1.1,0.6,2,0.6  c0.8,0,1.6-0.2,2.3-0.7s1.2-1.1,1.5-1.9c0.3-0.7,0.4-2.1,0.4-4.4v-5.8c0-0.9,0.2-1.6,0.7-2.1c0.4-0.5,1-0.7,1.7-0.7s1.3,0.2,1.7,0.7  s0.6,1.2,0.6,2.1v13.7c0,0.9-0.2,1.6-0.6,2c-0.4,0.5-0.9,0.7-1.6,0.7s-1.2-0.2-1.6-0.7S-218.6,264.4-218.6,263.6z"/><path class="st3" d="M-229.5,250v6.7" id="Path-23"/></svg>