<?xml version="1.0" encoding="UTF-8" standalone="no"?>
<!DOCTYPE svg PUBLIC "-//W3C//DTD SVG 1.1//EN" "http://www.w3.org/Graphics/SVG/1.1/DTD/svg11.dtd">
<svg version="1.1" xmlns="http://www.w3.org/2000/svg" xmlns:xlink="http://www.w3.org/1999/xlink" preserveAspectRatio="xMidYMid meet" viewBox="70.08762616305276 503.6342857142857 57.83484812431605 62.03428571428577" width="57.83" height="62.03"><defs><path d="M127.36 521.37C127.29 517.97 127.18 514.54 127.02 511.13C126.99 510.83 126.79 510.67 126.58 510.65C125.19 509.53 123.77 508.43 122.31 507.38C121.49 506.79 120.66 506.22 119.82 505.67C119.41 505.39 118.97 505.12 118.56 504.85C118.45 504.78 117.87 504.5 117.58 504.3C117.58 504.21 117.55 504.11 117.49 504.02C117.46 504 117.46 503.98 117.44 503.95C117.28 503.73 117.01 503.63 116.75 503.77C116.73 503.79 116.69 503.79 116.66 503.82C116.66 503.82 116.66 503.82 116.66 503.82C112.41 503.63 108.18 503.79 103.95 504.3C103.5 504.34 103.36 504.87 103.57 505.14C103.57 505.17 103.57 505.21 103.57 505.23C103.93 511.84 104.3 518.45 104.66 525.05C105.01 531.04 105.19 537.69 101.26 542.65C99.45 544.94 96.78 546.31 94.1 546.45C93.17 542.72 93.03 538.88 93.1 535.06C93.14 530.95 93.3 526.83 93.42 522.72C93.46 520.71 93.53 518.67 93.58 516.66C93.6 515.73 93.62 514.79 93.65 513.83C93.67 512.94 93.85 511.91 93.62 511.04C93.26 509.51 91.77 508.91 90.54 508.18C88.94 507.22 87.34 506.26 85.76 505.3C85.76 505.29 85.76 505.2 85.76 505.19C85.76 504.89 85.53 504.71 85.26 504.69C80.85 504.25 76.39 504.18 71.98 504.48C71.52 504.5 71.38 505.01 71.57 505.28C71.15 511.86 70.7 518.42 70.38 525.01C70.06 531.41 70.03 537.85 71.15 544.18C71.63 546.97 72.37 549.76 73.85 552.18C75.22 554.42 77.39 556.02 79.73 557.17C80.43 557.51 81.19 557.83 81.94 558.13C86.31 561.03 91.25 563.41 96.37 564.64C96.73 564.85 97.12 565.05 97.51 565.26C97.74 565.37 97.94 565.19 97.97 565.01C102.86 565.94 107.86 565.81 112.73 564.02C112.89 564.09 113.05 564 113.14 563.86C117.46 562.19 121.28 559.31 123.86 555.45C126.63 551.27 127.06 546.26 127.22 541.37C127.5 541.37 127.68 540.96 127.38 540.8C127.34 540.78 127.29 540.75 127.25 540.71C127.27 540.07 127.29 539.43 127.31 538.79C127.5 533.19 127.54 527.61 127.43 522.01C127.43 522.01 127.43 522.01 127.43 522.01C127.7 522.22 128.02 521.69 127.68 521.53C127.57 521.49 127.47 521.42 127.36 521.37ZM118.72 523.54C118.72 522.63 118.72 521.69 118.72 520.78C121.03 522.01 123.34 523.25 125.65 524.48C125.99 524.66 126.31 524.14 125.94 523.95C125.22 523.57 119.42 520.48 118.7 520.09C118.7 519.29 118.67 518.47 118.65 517.67C121.21 518.97 123.77 520.25 126.33 521.55C126.38 523.7 126.4 525.85 126.4 528.02C123.86 526.49 121.3 524.98 118.72 523.54ZM118.79 517.03C118.74 517.01 118.7 516.98 118.65 516.98C118.63 515.93 118.56 514.86 118.51 513.81C120.98 515.11 123.41 516.46 125.81 517.87C126.01 517.99 126.22 517.85 126.24 517.67C126.29 518.74 126.31 519.79 126.33 520.85C124.82 520.08 119.54 517.41 118.79 517.03ZM126.1 517.37C123.59 515.89 121.05 514.49 118.47 513.12C118.42 512.34 118.38 511.57 118.31 510.79C118.33 510.81 118.35 510.83 118.4 510.86C121.07 512.3 123.68 513.87 126.19 515.59C126.19 516.25 126.22 516.89 126.24 517.53C126.22 517.46 126.17 517.42 126.1 517.37ZM118.7 510.33C118.51 510.24 118.35 510.33 118.29 510.47C118.19 509.37 118.1 508.3 117.99 507.2C120.64 508.89 123.18 510.72 125.62 512.71C125.78 512.82 125.94 512.78 126.06 512.69C126.1 513.42 126.13 514.15 126.15 514.86C123.75 513.21 121.26 511.7 118.7 510.33ZM125.9 511.38C125.94 511.41 125.97 511.43 126.01 511.45C126.03 511.73 126.03 512 126.03 512.27C123.45 510.17 120.73 508.21 117.9 506.42C117.87 506.13 117.83 505.85 117.81 505.55C118.74 506.17 119.66 506.77 120.55 507.38C122.38 508.64 124.16 509.99 125.9 511.38ZM87.2 543.15C86.74 542.51 86.38 541.83 86.1 541.1C86.58 541.35 87.13 541.76 87.31 541.87C87.98 542.26 88.64 542.67 89.28 543.09C90.45 543.82 91.59 544.55 92.75 545.28C92.82 545.69 92.91 546.08 93.01 546.47C90.81 546.31 88.71 545.28 87.2 543.15ZM85.28 538.08C87.59 539.11 89.85 540.23 92.07 541.49C92.11 541.51 92.16 541.53 92.21 541.53C92.3 542.51 92.43 543.5 92.62 544.48C91.29 543.63 89.97 542.79 88.62 541.97C87.86 541.49 87.09 541.03 86.31 540.57C86.13 540.48 85.99 540.39 85.83 540.34C85.58 539.61 85.42 538.86 85.28 538.08ZM89.3 508.66C90.08 509.12 90.86 509.58 91.61 510.06C92.66 510.7 92.66 511.63 92.62 512.71C92.59 512.64 92.57 512.59 92.5 512.55C90.26 510.97 87.98 509.51 85.65 508.09C85.67 507.57 85.69 507.02 85.69 506.49C86.9 507.22 88.11 507.93 89.3 508.66ZM92.23 513.05C92.41 513.19 92.59 513.05 92.64 512.89C92.64 512.94 92.64 513.01 92.64 513.05C92.62 513.76 92.59 514.45 92.57 515.15C90.17 513.81 87.89 512.23 85.76 510.49C85.71 510.45 85.65 510.42 85.6 510.42C85.6 509.87 85.62 509.33 85.65 508.78C87.89 510.13 90.08 511.54 92.23 513.05ZM92.55 515.86C92.53 516.69 92.5 517.53 92.48 518.35C90.08 516.85 87.77 515.27 85.51 513.58C85.53 512.75 85.55 511.93 85.58 511.13C87.77 512.91 90.08 514.49 92.55 515.86ZM92.23 518.9C92.32 518.95 92.39 518.97 92.48 518.93C92.46 519.52 92.46 520.11 92.43 520.71C90.19 519.11 87.86 517.67 85.46 516.32C85.46 515.66 85.46 514.99 85.49 514.31C87.68 515.93 89.92 517.46 92.23 518.9ZM92.39 521.44C92.37 522.19 92.34 522.93 92.32 523.68C90.1 522.06 87.82 520.57 85.42 519.22C85.39 519.2 85.37 519.2 85.35 519.2C85.37 518.47 85.39 517.74 85.42 517.03C87.82 518.38 90.15 519.84 92.39 521.44ZM92.32 524.41C92.32 524.53 92.32 524.64 92.32 524.75C92.3 525.58 92.27 526.4 92.23 527.25C89.92 525.55 87.61 523.89 85.28 522.19C85.3 521.42 85.33 520.64 85.35 519.86C87.77 521.23 90.08 522.77 92.32 524.41ZM91.25 532.85C91.59 533.05 91.89 532.53 91.54 532.32C89.33 530.97 87.18 529.53 85.1 528C85.12 527.25 85.14 526.47 85.19 525.71C87.31 527.31 89.44 528.91 91.57 530.51C91.89 530.74 92.18 530.22 91.86 529.99C89.65 528.32 87.41 526.65 85.19 524.98C85.19 524.94 85.19 524.89 85.19 524.85C85.21 524.21 85.23 523.59 85.23 522.95C87.54 524.64 89.85 526.31 92.16 528C92.07 530.4 91.95 532.82 91.93 535.25C91.91 535.22 91.91 535.22 91.89 535.2C89.58 533.69 87.29 532.18 84.98 530.7C85.03 530.03 85.05 529.37 85.07 528.73C87.06 530.19 89.12 531.57 91.25 532.85ZM91.59 535.73C91.73 535.82 91.84 535.77 91.93 535.68C91.93 537.39 91.98 539.11 92.11 540.82C89.85 539.54 87.54 538.4 85.17 537.37C85.05 536.46 85.01 535.54 84.98 534.65C84.98 534.65 84.98 534.65 84.98 534.63C85.62 535.08 90.74 538.7 91.38 539.15C91.7 539.38 92 538.86 91.68 538.63C89.44 537.05 87.2 535.45 84.96 533.87C84.96 533.05 84.98 532.23 84.98 531.41C87.18 532.85 89.39 534.29 91.59 535.73ZM81.85 557.07C79.59 556.18 77.49 554.95 75.84 553.21C74.1 551.36 73.23 548.87 72.62 546.45C71.95 543.79 71.61 541.03 71.38 538.31C70.95 532.87 71.2 527.38 71.52 521.94C71.84 516.46 72.18 510.99 72.53 505.51C76.46 505.28 80.41 505.33 84.34 505.67C84.39 505.71 84.43 505.76 84.48 505.81C84.55 505.85 84.62 505.9 84.69 505.94C84.5 512.39 84.34 518.83 84.16 525.28C84.11 526.9 84.05 528.53 84 530.15C83.77 530.17 83.61 530.56 83.89 530.72C83.93 530.74 83.95 530.77 84 530.79C83.95 532.21 83.95 533.62 83.98 535.06C84.05 537.81 84.53 540.5 85.85 542.93C88.32 547.43 93.46 548.62 97.99 546.58C102.81 544.41 104.96 538.93 105.6 534.01C106.19 529.37 105.62 524.59 105.35 519.98C105.07 515.09 104.8 510.19 104.53 505.3C104.53 505.3 104.53 505.3 104.53 505.3C108.55 504.85 112.62 504.71 116.66 504.89C116.69 504.91 116.73 504.94 116.75 504.98C117.33 509.87 117.65 514.79 117.74 519.73C117.53 519.82 117.42 520.14 117.67 520.27C117.68 520.28 117.73 520.32 117.74 520.32C117.76 522.42 117.74 524.55 117.67 526.65C117.42 526.67 117.28 527.06 117.55 527.22C117.6 527.25 117.62 527.27 117.67 527.29C117.46 532.98 116.89 538.65 115.98 544.27C115.5 547.13 114.79 549.94 113.17 552.39C111.63 554.7 109.19 556.27 106.67 557.33C101.19 559.61 94.7 559.82 88.89 558.95C86.79 558.63 84.55 558.15 82.45 557.39C82.35 557.23 82.29 557.19 82.22 557.14C82.08 557.05 81.97 557.05 81.85 557.07ZM88.94 559.91C88.94 559.98 88.98 560.07 89.07 560.11C90.29 560.98 91.52 561.81 92.78 562.58C90.35 561.71 87.98 560.59 85.71 559.31C86.79 559.57 87.86 559.77 88.94 559.91ZM100 564.32C97.92 563.02 95.84 561.71 93.78 560.41C93.44 560.21 93.14 560.73 93.49 560.94C95.2 562.01 96.89 563.09 98.61 564.16C97.51 563.98 96.41 563.73 95.34 563.43C93.53 562.38 91.75 561.26 90.03 560.07C92.3 560.32 94.56 560.37 96.75 560.27C98.77 561.71 100.8 563.15 102.81 564.59C101.87 564.55 100.98 564.48 100.07 564.37C100.05 564.34 100.02 564.34 100 564.32ZM97.71 560.18C98.56 560.11 99.41 560.05 100.27 559.93C100.84 560.39 105.4 564.03 105.97 564.48C105.26 564.55 104.55 564.57 103.86 564.57C101.81 563.11 99.77 561.65 97.71 560.18ZM104.27 559.57C103.98 559.31 103.54 559.75 103.84 560C105.46 561.37 107.11 562.74 108.73 564.09C108.09 564.21 107.45 564.32 106.81 564.39C104.89 562.86 102.97 561.33 101.07 559.79C102.67 559.54 104.27 559.15 105.81 558.63C107.77 560.18 109.76 561.74 111.73 563.29C110.99 563.54 110.24 563.77 109.49 563.93C107.75 562.47 106.01 561.03 104.27 559.57ZM106.45 558.38C107.15 558.1 107.84 557.81 108.5 557.46C108.5 557.55 108.55 557.62 108.64 557.69C110.63 559.18 112.59 560.64 114.58 562.13C113.87 562.49 113.14 562.79 112.39 563.06C110.4 561.51 108.43 559.95 106.45 558.38ZM115.18 561.83C113.12 560.3 111.06 558.77 109.01 557.21C109.58 556.89 110.13 556.55 110.65 556.18C110.67 556.21 110.67 556.21 110.7 556.23C112.82 557.55 114.86 559.02 116.78 560.62C116.91 560.73 117.05 560.71 117.17 560.64C116.53 561.05 115.89 561.44 115.2 561.81C115.2 561.81 115.18 561.81 115.18 561.83ZM117.19 560.18C115.27 558.58 113.26 557.12 111.15 555.79C111.54 555.5 111.89 555.2 112.21 554.88C112.21 554.88 112.23 554.9 112.23 554.9C114.26 556.09 116.21 557.44 117.99 558.95C118.29 559.2 118.72 558.77 118.42 558.51C116.62 556.98 114.67 555.61 112.64 554.42C113.05 553.97 113.44 553.51 113.78 553.01C116.25 554.33 118.67 555.77 120.98 557.35C119.86 558.61 118.56 559.68 117.17 560.62C117.3 560.53 117.37 560.32 117.19 560.18ZM114.15 552.5C114.49 551.95 114.81 551.36 115.09 550.77C117.69 552.14 120.23 553.67 122.67 555.31C122.29 555.89 121.87 556.41 121.42 556.91C119.06 555.31 116.64 553.85 114.15 552.5ZM123.02 554.86C120.55 553.19 117.99 551.63 115.34 550.24C115.63 549.55 115.89 548.82 116.09 548.09C118.67 549.58 121.3 550.97 124 552.27C124.34 552.43 124.66 551.93 124.3 551.75C121.55 550.42 118.88 549.01 116.25 547.5C116.43 546.86 116.57 546.22 116.71 545.55C116.71 545.55 116.71 545.55 116.73 545.55C119.57 547.04 122.33 548.62 125.05 550.29C124.98 550.49 124.94 550.67 124.89 550.86C124.46 552.27 123.82 553.62 123.02 554.86ZM119.93 536.73C119.61 536.55 118.58 535.7 118.15 536.14C117.87 536.41 118.01 536.78 118.33 536.89C118.49 536.94 118.63 536.87 118.67 536.73C118.88 536.85 119.06 536.96 119.27 537.05C119.61 537.26 119.98 537.44 120.32 537.65C121.03 538.03 121.74 538.42 122.42 538.81C123.66 539.5 124.89 540.18 126.13 540.87C126.13 540.98 126.13 541.1 126.1 541.23C126.03 542.77 125.97 544.3 125.81 545.83C125.81 545.83 125.81 545.83 125.78 545.83C123.31 544.5 120.85 543.18 118.38 541.85C118.03 541.67 117.74 542.19 118.08 542.38C120.55 543.7 123.02 545.03 125.49 546.35C125.58 546.4 125.67 546.4 125.76 546.38C125.62 547.5 125.44 548.62 125.17 549.71C122.49 548.07 119.77 546.51 116.98 545.07C116.91 545.03 116.82 545.03 116.78 545.05C116.94 544.16 117.1 543.27 117.21 542.35C117.65 539.36 117.99 536.34 118.24 533.33C118.24 533.33 118.26 533.33 118.26 533.35C120.96 534.65 123.61 536.02 126.24 537.46C126.24 538.35 126.22 539.27 126.17 540.18C124.09 539.04 122.01 537.87 119.93 536.73ZM126.29 536.75C123.77 535.36 121.21 534.03 118.61 532.8C118.49 532.75 118.4 532.75 118.31 532.8C118.45 531.13 118.54 529.44 118.61 527.77C120.85 529.1 123.11 530.4 125.35 531.73C125.69 531.93 125.99 531.41 125.65 531.2C123.29 529.83 120.96 528.46 118.61 527.09C118.65 526.13 118.67 525.19 118.67 524.23C121.26 525.69 123.79 527.18 126.31 528.71C126.33 528.71 126.33 528.73 126.35 528.73C126.4 529.55 126.4 530.38 126.38 531.2C126.35 533.05 126.33 534.9 126.29 536.75Z" id="a2oUnc5k1V"></path><path d="M97.99 565.1C97.94 565.23 97.81 565.37 97.62 565.37C97.55 565.37 97.51 565.35 97.44 565.33C97.05 565.12 96.69 564.94 96.32 564.73C91.52 563.57 86.67 561.37 81.9 558.22C81.12 557.92 80.39 557.6 79.7 557.26C77.01 555.93 75.02 554.24 73.78 552.23C72.16 549.6 71.47 546.56 71.06 544.21C69.87 537.42 69.99 530.7 70.29 525.03C70.51 520.32 70.83 515.54 71.13 510.9C71.25 509.05 71.36 507.18 71.47 505.33C71.38 505.14 71.38 504.91 71.47 504.73C71.57 504.55 71.75 504.43 71.95 504.41C73.74 504.3 75.54 504.23 77.33 504.23C79.95 504.23 82.63 504.37 85.26 504.62C85.55 504.64 85.85 504.85 85.83 505.21C85.83 505.22 85.83 505.25 85.83 505.3C88.68 507.02 90.27 507.97 90.58 508.16C90.77 508.27 90.97 508.39 91.18 508.5C92.27 509.12 93.39 509.76 93.71 511.09C93.87 511.73 93.83 512.46 93.76 513.17C93.74 513.42 93.71 513.67 93.71 513.9C93.69 514.78 93.49 521.88 93.46 522.77C93.42 524 93.39 525.26 93.35 526.49C93.26 529.3 93.17 532.23 93.14 535.11C93.1 538.54 93.19 542.54 94.15 546.42C96.82 546.26 99.45 544.87 101.19 542.67C105.28 537.53 104.87 530.35 104.57 525.12C104.32 520.71 104.07 516.3 103.84 511.89C103.8 511.23 103.51 505.96 103.47 505.3C103.47 505.28 103.47 505.26 103.47 505.21C103.38 505.05 103.36 504.82 103.45 504.62C103.54 504.41 103.73 504.27 103.93 504.25C106.99 503.89 110.13 503.68 113.23 503.68C114.35 503.68 115.5 503.7 116.62 503.75C116.63 503.74 116.7 503.71 116.71 503.7C116.98 503.57 117.3 503.63 117.49 503.91C117.49 503.92 117.53 503.97 117.53 503.98C117.6 504.07 117.62 504.16 117.65 504.25C117.83 504.37 118.08 504.5 118.29 504.62C118.42 504.69 118.54 504.75 118.58 504.78C118.97 505.03 119.41 505.3 119.86 505.6C120.82 506.24 121.62 506.79 122.35 507.31C123.79 508.34 125.23 509.44 126.63 510.56C126.9 510.61 127.11 510.83 127.11 511.11C127.27 514.49 127.38 517.92 127.45 521.3C127.48 521.32 127.7 521.43 127.73 521.44C127.89 521.51 127.95 521.67 127.91 521.83C127.86 522.01 127.7 522.15 127.52 522.15C127.52 522.15 127.52 522.15 127.52 522.15C127.5 522.15 127.47 522.15 127.45 522.15C127.54 527.77 127.5 533.37 127.31 538.81C127.31 538.94 127.29 539.56 127.25 540.69C127.31 540.73 127.35 540.75 127.36 540.75C127.52 540.85 127.59 540.98 127.54 541.17C127.5 541.33 127.38 541.44 127.25 541.46C127.06 546.26 126.65 551.31 123.86 555.52C121.39 559.25 117.58 562.24 113.14 563.95C113.05 564.09 112.85 564.16 112.69 564.11C109.85 565.14 106.86 565.67 103.75 565.67C101.87 565.67 99.93 565.49 97.99 565.1ZM97.94 564.94C99.91 565.33 101.87 565.51 103.75 565.51C106.86 565.51 109.85 564.98 112.66 563.95C112.66 563.95 112.67 563.95 112.69 563.95C112.7 563.95 112.71 563.95 112.71 563.95C112.82 564 112.96 563.93 113.03 563.84C113.03 563.84 113.04 563.83 113.05 563.82C113.07 563.82 113.07 563.82 113.07 563.82C117.51 562.1 121.3 559.13 123.75 555.43C126.54 551.25 126.93 546.19 127.11 541.39C127.11 541.39 127.11 541.37 127.11 541.33C127.15 541.33 127.17 541.33 127.18 541.33C127.18 541.33 127.18 541.33 127.18 541.33C127.29 541.33 127.38 541.23 127.41 541.14C127.43 541.1 127.43 540.98 127.29 540.91C127.28 540.91 127.22 540.88 127.11 540.82C127.15 539.64 127.17 538.99 127.18 538.86C127.36 533.37 127.41 527.73 127.29 522.08C127.29 522.07 127.29 522.03 127.29 521.94C127.36 521.98 127.4 522.01 127.41 522.01C127.45 522.03 127.47 522.03 127.52 522.03C127.52 522.03 127.52 522.03 127.52 522.03C127.63 522.03 127.73 521.94 127.75 521.83C127.77 521.78 127.77 521.67 127.63 521.62C127.61 521.61 127.49 521.55 127.27 521.44C127.27 521.41 127.27 521.4 127.27 521.39C127.2 518.01 127.09 514.56 126.93 511.15C126.9 510.9 126.72 510.77 126.56 510.74C126.56 510.74 126.55 510.74 126.54 510.74C126.52 510.73 126.52 510.72 126.51 510.72C125.12 509.6 123.68 508.5 122.24 507.45C121.51 506.93 120.71 506.38 119.75 505.74C119.31 505.44 118.86 505.17 118.49 504.91C118.45 504.89 118.33 504.82 118.19 504.75C117.97 504.64 117.69 504.48 117.51 504.37C117.51 504.36 117.49 504.36 117.46 504.34C117.46 504.32 117.46 504.3 117.46 504.3C117.46 504.23 117.44 504.16 117.39 504.07C117.39 504.06 117.35 504.01 117.35 504C117.19 503.79 116.98 503.73 116.75 503.84C116.75 503.84 116.71 503.87 116.64 503.91C116.63 503.91 116.62 503.91 116.62 503.91C115.5 503.86 114.35 503.84 113.21 503.84C110.1 503.84 106.99 504.02 103.91 504.41C103.68 504.43 103.59 504.59 103.54 504.69C103.47 504.85 103.47 505.03 103.57 505.14C103.57 505.14 103.57 505.15 103.59 505.17C103.59 505.18 103.59 505.19 103.59 505.19C103.59 505.21 103.59 505.23 103.59 505.28C103.63 505.94 103.92 511.2 103.95 511.86C104.21 516.27 104.46 520.69 104.69 525.1C104.98 530.35 105.37 537.55 101.26 542.77C99.47 545.01 96.78 546.45 94.06 546.58C94.05 546.58 94.03 546.58 93.99 546.58C93.97 546.54 93.97 546.52 93.97 546.51C92.98 542.61 92.89 538.56 92.96 535.11C93.01 532.23 93.1 529.33 93.17 526.49C93.21 525.26 93.23 524 93.28 522.77C93.31 521.88 93.51 514.78 93.53 513.9C93.53 513.65 93.55 513.42 93.58 513.14C93.62 512.46 93.67 511.75 93.53 511.13C93.23 509.87 92.14 509.26 91.06 508.64C90.86 508.53 90.67 508.41 90.47 508.3C90.15 508.1 88.54 507.14 85.65 505.39C85.65 505.3 85.65 505.24 85.65 505.23C85.65 504.96 85.42 504.82 85.21 504.8C82.58 504.55 79.93 504.41 77.3 504.41C75.52 504.41 73.71 504.48 71.93 504.59C71.77 504.59 71.63 504.69 71.57 504.82C71.5 504.96 71.5 505.17 71.57 505.28C71.57 505.28 71.57 505.29 71.59 505.3C71.59 505.32 71.59 505.32 71.59 505.33C71.47 507.2 71.36 509.07 71.25 510.93C70.95 515.54 70.65 520.34 70.4 525.05C70.13 530.72 69.99 537.44 71.18 544.21C71.59 546.54 72.27 549.55 73.87 552.18C75.09 554.17 77.05 555.84 79.73 557.14C80.41 557.49 81.14 557.81 81.94 558.1C86.72 561.28 91.57 563.45 96.34 564.62C96.35 564.62 96.36 564.62 96.37 564.62C96.73 564.82 97.12 565.03 97.51 565.23C97.55 565.26 97.58 565.26 97.62 565.26C97.76 565.26 97.85 565.14 97.85 565.03C97.85 565.02 97.85 564.98 97.85 564.91C97.91 564.93 97.94 564.94 97.94 564.94ZM97.49 560.14C97.61 560.12 97.68 560.12 97.69 560.11C98.56 560.05 99.41 559.98 100.23 559.86C100.23 559.86 100.24 559.86 100.25 559.86L106.13 564.55C106.02 564.56 105.96 564.57 105.94 564.57C105.23 564.64 104.53 564.66 103.84 564.66C103.84 564.66 103.84 564.66 103.84 564.66L97.49 560.14ZM103.89 564.5C104.5 564.5 105.14 564.48 105.76 564.41C105.21 563.97 100.78 560.44 100.23 560C99.47 560.11 98.7 560.18 97.92 560.25C99.11 561.1 103.29 564.08 103.89 564.5ZM102.79 564.64C101.87 564.62 100.94 564.55 100.05 564.43C100.04 564.43 100.04 564.43 100.02 564.43C100.01 564.42 100 564.41 100 564.41C99.98 564.39 99.98 564.39 99.95 564.37C99.33 563.97 94.36 560.85 93.74 560.46C93.6 560.37 93.44 560.48 93.42 560.59C93.39 560.64 93.39 560.78 93.51 560.85C93.87 561.07 95.68 562.22 98.95 564.27C98.72 564.23 98.59 564.21 98.56 564.21C97.49 564.02 96.37 563.77 95.27 563.47C93.44 562.42 91.66 561.3 89.94 560.11C89.93 560.1 89.84 560.05 89.69 559.95C89.87 559.97 89.97 559.98 89.99 559.98C92.14 560.23 94.42 560.3 96.69 560.18C96.69 560.18 96.69 560.18 96.71 560.18L103.04 564.64C102.89 564.64 102.81 564.64 102.79 564.64ZM102.54 564.48C101.95 564.06 97.29 560.74 96.71 560.32C95.75 560.37 94.79 560.39 93.85 560.37C94.47 560.75 99.41 563.86 100.02 564.25C100.07 564.25 100.09 564.27 100.09 564.27C100.89 564.37 101.71 564.43 102.54 564.48ZM95.36 563.34C96.3 563.59 97.26 563.82 98.22 564C97.74 563.7 93.9 561.28 93.42 560.98C93.28 560.89 93.21 560.73 93.26 560.55C93.28 560.46 93.33 560.39 93.39 560.34C92.37 560.32 91.31 560.25 90.31 560.16C91.95 561.28 93.65 562.35 95.36 563.34ZM106.77 564.46L100.89 559.77C100.99 559.76 101.04 559.75 101.05 559.75C102.74 559.47 104.32 559.09 105.78 558.58C105.79 558.58 105.8 558.57 105.83 558.56L107.66 560L111.89 563.34C111.8 563.36 111.76 563.38 111.75 563.38C111.02 563.63 110.26 563.84 109.51 564.02C109.51 564.02 109.49 564.02 109.46 564.02L109.44 564C106.31 561.38 104.58 559.93 104.23 559.63C104.09 559.52 103.89 559.59 103.84 559.75C103.82 559.79 103.82 559.89 103.91 559.95C104.24 560.23 105.92 561.64 108.94 564.16C108.84 564.17 108.79 564.18 108.78 564.18C108.14 564.32 107.47 564.41 106.86 564.48C106.85 564.48 106.83 564.48 106.79 564.48L106.77 564.46ZM106.83 564.32C107.41 564.25 107.98 564.16 108.57 564.05C108.09 563.65 104.27 560.45 103.79 560.05C103.68 559.95 103.63 559.82 103.68 559.68C103.73 559.52 103.91 559.41 104.07 559.41C104.16 559.41 104.25 559.43 104.32 559.5C104.84 559.93 108.99 563.41 109.51 563.84C110.19 563.68 110.9 563.5 111.57 563.27C110.99 562.81 106.36 559.17 105.78 558.72C104.39 559.2 102.86 559.59 101.26 559.86C102.37 560.75 106.28 563.87 106.83 564.32ZM112.37 563.13L106.33 558.38C106.4 558.35 106.44 558.33 106.45 558.33C107.13 558.06 107.82 557.76 108.48 557.42C108.49 557.41 108.52 557.4 108.57 557.37C108.57 557.44 108.57 557.48 108.57 557.49C108.57 557.53 108.59 557.6 108.66 557.67C109.07 557.97 111.08 559.47 114.7 562.17C114.63 562.2 114.59 562.21 114.58 562.22C113.87 562.56 113.14 562.88 112.39 563.15C112.39 563.15 112.39 563.15 112.39 563.15L112.37 563.13ZM112.43 562.97C113.12 562.72 113.81 562.42 114.45 562.1C113.86 561.67 109.2 558.19 108.62 557.76C108.55 557.71 108.5 557.65 108.48 557.58C107.86 557.9 107.25 558.17 106.63 558.4C107.79 559.31 111.85 562.51 112.43 562.97ZM92.78 562.65C90.45 561.81 88.07 560.71 85.69 559.36C85.66 559.34 85.51 559.26 85.23 559.11C85.54 559.18 85.7 559.22 85.74 559.22C86.77 559.47 87.84 559.66 88.96 559.82C88.96 559.82 88.99 559.82 89.03 559.82C89.03 559.86 89.03 559.88 89.03 559.89C89.03 559.95 89.07 560 89.12 560.05C90.31 560.89 91.54 561.71 92.82 562.51C92.86 562.54 93.07 562.67 93.44 562.9C93.04 562.75 92.82 562.67 92.78 562.65ZM92.14 562.26C91.06 561.58 90.03 560.89 89.05 560.18C88.98 560.14 88.91 560.07 88.89 559.98C87.98 559.84 87.09 559.68 86.22 559.5C88.21 560.59 90.19 561.53 92.14 562.26ZM115.13 561.87L108.87 557.19C108.94 557.16 108.98 557.15 108.98 557.14C109.55 556.82 110.1 556.48 110.63 556.11C110.63 556.11 110.65 556.1 110.67 556.07C110.7 556.1 110.72 556.11 110.72 556.11C110.72 556.11 110.74 556.14 110.77 556.14C112.89 557.46 114.95 558.95 116.85 560.53C116.94 560.59 117.05 560.59 117.14 560.55C117.15 560.56 117.23 560.65 117.23 560.66C117.23 560.66 117.23 560.66 117.23 560.66C117.23 560.66 117.23 560.66 117.23 560.66C117.23 560.66 117.23 560.66 117.23 560.66C116.57 561.1 115.91 561.51 115.27 561.85C115.26 561.85 115.23 561.87 115.18 561.9L115.13 561.87ZM115.18 561.74C115.73 561.44 116.3 561.1 116.85 560.75C116.8 560.73 116.75 560.71 116.73 560.69C114.83 559.11 112.78 557.62 110.65 556.3C110.65 556.3 110.65 556.3 110.65 556.3C110.17 556.62 109.67 556.94 109.14 557.23C110.35 558.13 114.57 561.29 115.18 561.74ZM117.12 560.57C117.19 560.53 117.21 560.46 117.21 560.39C117.21 560.34 117.19 560.3 117.14 560.25C115.22 558.67 113.21 557.19 111.11 555.89C111.1 555.88 111.07 555.86 111.02 555.82C111.07 555.78 111.1 555.75 111.11 555.75C111.47 555.47 111.82 555.15 112.16 554.83C112.16 554.83 112.18 554.82 112.21 554.79C112.25 554.82 112.27 554.83 112.27 554.83C114.33 556.02 116.27 557.39 118.06 558.9C118.19 559.02 118.4 558.95 118.45 558.79C118.47 558.74 118.47 558.65 118.38 558.58C116.57 557.05 114.63 555.68 112.59 554.51C112.59 554.51 112.56 554.5 112.5 554.47C112.54 554.43 112.57 554.4 112.57 554.4C112.98 553.97 113.35 553.51 113.71 552.98C113.72 552.98 113.73 552.96 113.76 552.94C113.8 552.95 113.82 552.96 113.83 552.96C116.3 554.29 118.72 555.75 121.05 557.33C121.06 557.33 121.08 557.34 121.12 557.37C121.08 557.41 121.06 557.44 121.05 557.44C119.95 558.63 118.67 559.7 117.21 560.69C117.19 560.66 117.13 560.58 117.12 560.57ZM117.23 560.11C117.35 560.21 117.37 560.3 117.37 560.37C118.67 559.47 119.86 558.47 120.89 557.37C118.63 555.84 116.25 554.4 113.83 553.1C113.51 553.55 113.14 553.99 112.78 554.4C114.79 555.57 116.71 556.94 118.49 558.45C118.61 558.54 118.65 558.67 118.61 558.81C118.56 558.97 118.38 559.09 118.22 559.09C118.13 559.09 118.03 559.06 117.97 558.99C116.18 557.49 114.26 556.14 112.23 554.97C111.93 555.27 111.63 555.54 111.29 555.79C113.35 557.1 115.36 558.56 117.23 560.11ZM88.85 558.93C86.38 558.54 84.25 558.03 82.4 557.37C82.39 557.36 82.3 557.31 82.29 557.3C82.24 557.28 82.19 557.26 82.15 557.21C82.06 557.14 81.94 557.12 81.85 557.14C81.85 557.14 81.84 557.14 81.83 557.14C81.81 557.14 81.81 557.14 81.81 557.14C79.29 556.16 77.26 554.86 75.75 553.26C73.9 551.27 73.05 548.57 72.5 546.45C71.93 544.11 71.54 541.53 71.27 538.31C70.83 532.85 71.09 527.45 71.41 521.92C71.63 518.1 71.86 514.22 72.11 510.45C72.23 508.8 72.32 507.13 72.41 505.49C72.41 505.48 72.41 505.46 72.41 505.42C72.45 505.42 72.48 505.42 72.48 505.42C74.06 505.33 75.66 505.28 77.23 505.28C79.59 505.28 81.97 505.37 84.3 505.58C84.3 505.58 84.31 505.58 84.32 505.58C84.33 505.59 84.34 505.6 84.34 505.6C84.39 505.65 84.41 505.69 84.46 505.71C84.47 505.72 84.56 505.78 84.71 505.87C84.39 517.5 84.22 523.96 84.18 525.26C84.16 526.13 84.14 526.99 84.09 527.86C84.07 528.62 84.05 529.37 84.02 530.13C84.02 530.13 84.02 530.15 84.02 530.19C83.98 530.19 83.96 530.19 83.95 530.19C83.86 530.19 83.79 530.29 83.77 530.38C83.75 530.42 83.75 530.54 83.86 530.63C83.87 530.63 83.92 530.67 84 530.72C84 530.75 84 530.76 84 530.77C83.95 532.43 83.95 533.81 83.98 535.02C84.05 538.15 84.66 540.71 85.83 542.86C87.43 545.76 90.24 547.43 93.55 547.43C95.02 547.43 96.46 547.11 97.85 546.47C103.57 543.89 105.05 536.87 105.42 533.97C105.87 530.31 105.62 526.51 105.37 522.86C105.3 521.9 105.23 520.91 105.19 519.93C105.13 518.95 104.86 514.03 104.37 505.19C104.41 505.19 104.43 505.19 104.43 505.19C107.31 504.87 110.26 504.69 113.17 504.69C114.31 504.69 115.45 504.71 116.59 504.75C116.6 504.75 116.6 504.75 116.62 504.75C116.63 504.77 116.64 504.78 116.64 504.78C116.66 504.8 116.69 504.82 116.73 504.85C116.73 504.85 116.74 504.85 116.75 504.87C116.75 504.88 116.75 504.89 116.75 504.89C117.33 509.81 117.65 514.77 117.74 519.63C117.74 519.64 117.74 519.65 117.74 519.68C117.71 519.69 117.69 519.7 117.69 519.7C117.6 519.73 117.53 519.84 117.53 519.93C117.53 519.98 117.55 520.07 117.65 520.11C117.65 520.12 117.69 520.13 117.76 520.16C117.76 520.19 117.76 520.2 117.76 520.21C117.78 522.33 117.76 524.48 117.69 526.54C117.69 526.54 117.69 526.56 117.69 526.61C117.65 526.61 117.63 526.61 117.62 526.61C117.53 526.61 117.44 526.7 117.42 526.81C117.39 526.86 117.39 526.97 117.53 527.04C117.54 527.05 117.59 527.08 117.67 527.13C117.67 527.16 117.67 527.17 117.67 527.18C117.46 532.94 116.89 538.65 115.98 544.16C115.59 546.56 114.9 549.67 113.17 552.3C111.79 554.35 109.6 556.02 106.65 557.26C103.34 558.7 99.45 559.41 95.13 559.41C93.07 559.41 90.97 559.25 88.85 558.93ZM82.24 557.07C82.29 557.1 82.33 557.12 82.35 557.17C82.36 557.17 82.44 557.23 82.45 557.23C84.27 557.9 86.38 558.4 88.85 558.79C90.95 559.11 93.07 559.27 95.11 559.27C99.41 559.27 103.27 558.56 106.61 557.17C109.53 555.95 111.7 554.29 113.05 552.25C114.77 549.65 115.45 546.56 115.84 544.18C116.75 538.7 117.33 532.98 117.53 527.27C117.52 527.26 117.47 527.23 117.46 527.22C117.33 527.13 117.26 526.99 117.28 526.83C117.3 526.7 117.42 526.58 117.55 526.54C117.62 524.5 117.65 522.4 117.62 520.32C117.62 520.32 117.6 520.3 117.6 520.3C117.46 520.23 117.39 520.11 117.42 519.98C117.42 519.84 117.51 519.7 117.62 519.66C117.55 514.81 117.21 509.87 116.66 505.01C116.64 504.98 116.62 504.98 116.62 504.96C115.5 504.91 114.35 504.89 113.23 504.89C110.35 504.89 107.45 505.05 104.59 505.37C104.68 506.83 105.33 518.52 105.42 519.98C105.46 520.94 105.53 521.94 105.6 522.9C105.85 526.58 106.13 530.38 105.65 534.03C105.28 536.96 103.79 544.05 97.99 546.65C96.57 547.29 95.09 547.61 93.62 547.61C90.26 547.61 87.38 545.92 85.76 542.95C84.57 540.78 83.95 538.19 83.89 535.04C83.86 533.83 83.86 532.48 83.91 530.81C83.9 530.81 83.85 530.77 83.84 530.77C83.7 530.67 83.63 530.51 83.68 530.35C83.7 530.22 83.82 530.1 83.93 530.06C83.95 529.33 83.98 528.59 84 527.84C84.02 526.97 84.07 526.1 84.09 525.23C84.13 523.95 84.3 517.52 84.62 505.94C84.51 505.87 84.45 505.84 84.43 505.83C84.39 505.81 84.34 505.76 84.3 505.71C81.97 505.51 79.61 505.42 77.28 505.42C75.73 505.42 74.15 505.46 72.59 505.55C72.5 507.18 72.39 508.82 72.3 510.45C72.07 514.19 71.82 518.08 71.59 521.92C71.27 527.43 71.02 532.85 71.45 538.29C71.7 541.51 72.09 544.09 72.69 546.4C73.21 548.5 74.06 551.18 75.89 553.14C77.37 554.72 79.38 556.02 81.85 556.98C81.9 556.98 81.92 556.98 81.94 556.98C82.06 556.98 82.15 557.01 82.24 557.07ZM121.39 556.98C119.06 555.41 116.62 553.92 114.13 552.57C114.12 552.57 114.1 552.55 114.06 552.53C114.08 552.48 114.1 552.46 114.1 552.46C114.45 551.93 114.74 551.34 115.04 550.74C115.04 550.74 115.05 550.72 115.06 550.67C115.1 550.7 115.13 550.72 115.13 550.72C117.74 552.09 120.3 553.62 122.72 555.27C122.72 555.27 122.75 555.29 122.79 555.31C122.76 555.36 122.75 555.38 122.74 555.38C122.35 555.93 121.94 556.46 121.51 556.98C121.5 556.99 121.48 557 121.44 557.03C121.41 557 121.4 556.99 121.39 556.98ZM121.39 556.82C121.81 556.37 122.19 555.86 122.54 555.36C120.16 553.74 117.65 552.25 115.09 550.9C114.86 551.45 114.56 552 114.24 552.48C116.69 553.81 119.11 555.25 121.39 556.82ZM122.95 554.9C120.48 553.23 117.9 551.68 115.27 550.31C115.26 550.31 115.24 550.3 115.2 550.29C115.21 550.24 115.22 550.22 115.22 550.22C115.5 549.55 115.75 548.87 115.98 548.09C115.98 548.09 115.99 548.05 116 548C116.05 548.03 116.09 548.04 116.09 548.05C118.7 549.53 121.35 550.95 124 552.21C124.16 552.27 124.32 552.16 124.34 552.02C124.37 551.98 124.37 551.86 124.23 551.82C121.53 550.51 118.81 549.07 116.18 547.57C116.18 547.56 116.16 547.56 116.14 547.54C116.15 547.52 116.16 547.5 116.16 547.5C116.32 546.9 116.48 546.26 116.62 545.58C116.62 545.57 116.63 545.54 116.64 545.49C116.69 545.51 116.73 545.53 116.73 545.53C119.54 546.99 122.33 548.59 125.07 550.29C125.08 550.29 125.09 550.29 125.12 550.31C125.11 550.34 125.1 550.35 125.1 550.35C125.05 550.54 124.98 550.72 124.94 550.9C124.5 552.3 123.86 553.65 123.04 554.9C123.04 554.91 123.03 554.92 123.02 554.95C122.98 554.92 122.95 554.91 122.95 554.9ZM122.99 554.72C123.5 553.94 123.91 553.17 124.25 552.34C124.16 552.37 124.05 552.37 123.95 552.32C121.35 551.06 118.7 549.67 116.11 548.18C115.91 548.91 115.68 549.58 115.43 550.19C118.01 551.57 120.57 553.1 122.99 554.72ZM124.32 551.68C124.39 551.7 124.43 551.75 124.46 551.79C124.57 551.47 124.69 551.15 124.8 550.83C124.85 550.67 124.89 550.51 124.94 550.33C122.24 548.69 119.5 547.11 116.73 545.67C116.62 546.31 116.48 546.88 116.34 547.45C118.97 548.96 121.65 550.38 124.32 551.68ZM125.17 549.76C122.47 548.11 119.73 546.54 116.98 545.12C116.94 545.1 116.87 545.07 116.82 545.1C116.82 545.1 116.78 545.11 116.71 545.12C116.72 545.05 116.73 545.01 116.73 545.01C116.89 544.21 117.03 543.36 117.17 542.33C117.6 539.36 117.94 536.32 118.19 533.3C118.19 533.3 118.19 533.26 118.19 533.19L118.31 533.26L118.29 533.33L118.29 533.33C118.3 533.3 118.31 533.28 118.31 533.28C120.98 534.56 123.66 535.95 126.29 537.39C126.29 537.4 126.3 537.4 126.33 537.42C126.33 537.44 126.33 537.46 126.33 537.46C126.31 538.38 126.29 539.31 126.24 540.23C126.24 540.24 126.24 540.27 126.24 540.34C122.43 538.23 120.31 537.06 119.89 536.82C119.82 536.78 119.73 536.73 119.63 536.66C119.31 536.43 118.81 536.11 118.47 536.11C118.35 536.11 118.26 536.14 118.19 536.21C118.08 536.32 118.06 536.43 118.08 536.55C118.1 536.69 118.22 536.78 118.35 536.82C118.38 536.82 118.4 536.85 118.42 536.85C118.54 536.85 118.58 536.75 118.61 536.73C118.61 536.73 118.61 536.7 118.63 536.66L126.22 540.87C126.2 541.12 126.2 541.25 126.19 541.28C126.15 542.74 126.08 544.32 125.9 545.87C125.9 545.88 125.89 545.92 125.87 545.99L125.76 545.92C121.3 543.53 118.83 542.21 118.33 541.94C118.17 541.85 118.03 541.99 117.99 542.1C117.97 542.15 117.97 542.26 118.1 542.33C118.84 542.73 124.77 545.91 125.51 546.31C125.58 546.35 125.65 546.35 125.71 546.31C125.72 546.31 125.76 546.29 125.83 546.26C125.81 546.35 125.81 546.39 125.81 546.4C125.67 547.63 125.46 548.73 125.21 549.76C125.21 549.76 125.23 549.78 125.26 549.81C125.2 549.78 125.17 549.76 125.17 549.76ZM117.05 544.98C119.75 546.4 122.47 547.93 125.14 549.58C125.37 548.62 125.55 547.59 125.69 546.45C125.62 546.45 125.55 546.45 125.49 546.4C124.75 546 118.82 542.82 118.08 542.42C117.92 542.33 117.85 542.19 117.9 542.03C117.97 541.78 118.24 541.65 118.45 541.78C119.18 542.18 125.05 545.32 125.78 545.71C125.94 544.18 126.01 542.67 126.06 541.23C126.06 541.21 126.06 541.11 126.06 540.91C121.64 538.47 119.19 537.12 118.7 536.85C118.61 536.96 118.47 537.01 118.31 536.96C118.19 536.91 118.08 536.85 118.01 536.75C117.81 538.63 117.58 540.5 117.3 542.35C117.19 543.34 117.05 544.16 116.89 544.94C116.94 544.94 117.01 544.96 117.05 544.98ZM119.73 536.5C119.82 536.57 119.91 536.62 119.98 536.66C120.59 537 125.49 539.73 126.1 540.07C126.13 539.2 126.15 538.33 126.19 537.46C123.61 536.05 120.98 534.67 118.35 533.42C118.29 534.31 118.19 535.2 118.1 536.09C118.1 536.09 118.1 536.09 118.1 536.09C118.19 535.98 118.33 535.93 118.47 535.93C118.88 535.93 119.38 536.27 119.73 536.5ZM93.01 546.56C90.63 546.4 88.55 545.21 87.15 543.22C86.72 542.61 86.33 541.92 86.03 541.17C86.03 541.15 86.01 541.09 85.97 540.98C86.08 541.04 86.14 541.07 86.15 541.07C86.49 541.26 86.86 541.51 87.11 541.69C87.22 541.76 87.31 541.83 87.36 541.85C88.02 542.24 88.69 542.65 89.33 543.06C90.38 543.73 91.52 544.43 92.8 545.26C92.8 545.26 92.81 545.27 92.82 545.28C92.82 545.29 92.82 545.3 92.82 545.3C92.91 545.71 92.98 546.1 93.07 546.47C93.08 546.47 93.09 546.51 93.12 546.56C93.05 546.56 93.01 546.56 93.01 546.56ZM87.27 543.11C88.62 545.03 90.63 546.19 92.91 546.38C92.82 546.03 92.75 545.69 92.69 545.33C91.43 544.5 90.31 543.79 89.26 543.15C88.59 542.74 87.95 542.35 87.29 541.94C87.25 541.92 87.15 541.85 87.04 541.76C86.81 541.65 86.54 541.44 86.26 541.28C86.54 541.94 86.88 542.56 87.27 543.11ZM92.57 544.55C91.15 543.63 89.85 542.81 88.57 542.03C87.91 541.62 87.15 541.19 86.26 540.64C86.13 540.55 85.97 540.46 85.81 540.41C85.8 540.41 85.79 540.4 85.76 540.39C85.75 540.36 85.74 540.35 85.74 540.34C85.51 539.66 85.33 538.88 85.19 538.08C85.19 538.07 85.18 538.03 85.17 537.94C85.25 537.97 85.29 537.99 85.3 537.99C87.63 539.02 89.92 540.16 92.09 541.39C92.11 541.42 92.16 541.42 92.18 541.42C92.19 541.42 92.21 541.42 92.25 541.42C92.25 541.46 92.25 541.48 92.25 541.49C92.34 542.49 92.48 543.5 92.66 544.43C92.67 544.45 92.68 544.52 92.71 544.64C92.63 544.59 92.58 544.55 92.57 544.55ZM86.33 540.5C87.22 541.05 87.95 541.49 88.64 541.9C89.85 542.65 91.13 543.43 92.48 544.32C92.32 543.45 92.21 542.54 92.11 541.6C92.07 541.6 92.05 541.58 92.02 541.55C89.87 540.34 87.66 539.22 85.37 538.22C85.51 538.95 85.67 539.63 85.87 540.27C86.03 540.32 86.19 540.41 86.33 540.5ZM92.11 540.89C89.87 539.63 87.52 538.47 85.17 537.44C85.16 537.44 85.15 537.43 85.12 537.42C85.12 537.39 85.12 537.37 85.12 537.37C85.01 536.55 84.96 535.66 84.94 534.63C84.94 534.62 84.94 534.56 84.94 534.47L85.05 534.54C88.89 537.25 91.02 538.76 91.45 539.06C91.57 539.15 91.7 539.09 91.75 538.95C91.77 538.9 91.79 538.77 91.66 538.67C91.21 538.36 88.96 536.76 84.91 533.9C84.91 533.87 84.91 533.85 84.91 533.85C84.91 533.1 84.91 532.3 84.94 531.36C84.94 531.35 84.94 531.31 84.94 531.22C88.97 533.86 91.21 535.32 91.66 535.61C91.75 535.68 91.86 535.63 91.91 535.59C91.92 535.58 91.96 535.53 92.05 535.45C92.05 535.56 92.05 535.62 92.05 535.63C92.05 537.53 92.09 539.2 92.23 540.78C92.23 540.79 92.23 540.85 92.23 540.96C92.16 540.92 92.12 540.9 92.11 540.89ZM92.05 540.69C91.93 539.2 91.86 537.6 91.86 535.82C91.77 535.86 91.66 535.84 91.54 535.77C90.89 535.35 85.7 531.95 85.05 531.52C85.03 532.37 85.03 533.12 85.03 533.83C85.7 534.3 91.06 538.09 91.73 538.56C91.86 538.65 91.93 538.83 91.86 538.99C91.79 539.22 91.52 539.34 91.31 539.2C90.69 538.75 85.66 535.19 85.03 534.74C85.1 535.73 85.17 536.55 85.26 537.33C87.57 538.33 89.85 539.45 92.05 540.69ZM126.24 536.8C123.7 535.41 121.12 534.08 118.56 532.85C118.49 532.8 118.4 532.82 118.33 532.85C118.32 532.85 118.29 532.87 118.22 532.91C118.22 532.83 118.22 532.79 118.22 532.78C118.35 531.13 118.45 529.44 118.51 527.75C118.51 527.74 118.51 527.69 118.51 527.61C122.63 530.03 124.91 531.37 125.37 531.63C125.53 531.73 125.67 531.61 125.69 531.47C125.71 531.43 125.71 531.31 125.6 531.22C125.13 530.95 122.77 529.57 118.54 527.09C118.54 527.06 118.54 527.04 118.54 527.04C118.56 526.1 118.61 525.17 118.61 524.21C118.61 524.2 118.61 524.15 118.61 524.07C118.67 524.11 118.71 524.13 118.72 524.14C121.33 525.6 123.89 527.11 126.38 528.62C126.4 528.62 126.4 528.64 126.42 528.64C126.43 528.64 126.44 528.65 126.47 528.66C126.47 528.69 126.47 528.71 126.47 528.71C126.47 529.53 126.47 530.35 126.45 531.18C126.42 532.91 126.4 534.72 126.35 536.73C126.35 536.74 126.35 536.79 126.35 536.87C126.29 536.83 126.25 536.8 126.24 536.8ZM118.63 532.73C121.14 533.94 123.7 535.25 126.19 536.64C126.24 534.7 126.29 532.91 126.29 531.22C126.29 530.42 126.31 529.62 126.31 528.8C126.31 528.8 126.31 528.8 126.31 528.8C123.86 527.31 121.33 525.83 118.79 524.39C118.77 525.3 118.74 526.19 118.72 527.06C119.42 527.47 125.01 530.75 125.71 531.15C125.87 531.25 125.92 531.41 125.87 531.57C125.83 531.75 125.67 531.86 125.51 531.86C125.44 531.86 125.37 531.84 125.33 531.82C124.66 531.43 119.34 528.32 118.67 527.93C118.61 529.53 118.51 531.13 118.4 532.71C118.42 532.69 118.45 532.69 118.47 532.69C118.54 532.69 118.58 532.71 118.63 532.73ZM91.89 535.29C91.89 535.29 91.86 535.27 91.86 535.27C91.4 534.97 89.09 533.46 84.94 530.74C84.94 530.72 84.94 530.7 84.94 530.7C84.96 530.03 84.98 529.39 85.01 528.73C85.01 528.72 85.01 528.68 85.01 528.59C85.07 528.65 85.11 528.68 85.12 528.69C87.13 530.15 89.21 531.54 91.27 532.8C91.41 532.89 91.57 532.78 91.59 532.66C91.61 532.62 91.61 532.5 91.5 532.41C89.33 531.09 87.15 529.62 85.05 528.09C85.05 528.09 85.04 528.08 85.03 528.07C85.04 527.82 85.05 527.68 85.05 527.66C85.07 527.02 85.1 526.38 85.12 525.74C85.12 525.73 85.12 525.68 85.12 525.6C89.03 528.53 91.2 530.17 91.63 530.49C91.77 530.58 91.89 530.49 91.93 530.38C91.95 530.33 91.98 530.19 91.84 530.1C91.39 529.77 89.16 528.09 85.14 525.07L85.21 522.86L92.3 528C92.27 528.52 92.25 528.81 92.25 528.87C92.16 530.97 92.07 533.14 92.05 535.29C92.04 535.3 92.04 535.34 92.02 535.41C91.94 535.34 91.89 535.3 91.89 535.29ZM91.89 535.09C91.91 533.55 91.95 532 92.02 530.49C91.91 530.65 91.7 530.7 91.54 530.58C90.92 530.11 85.91 526.35 85.28 525.87C85.26 526.47 85.23 527.06 85.21 527.66C85.21 527.69 85.19 527.95 85.19 527.98C87.27 529.51 89.44 530.95 91.59 532.25C91.75 532.34 91.79 532.5 91.75 532.66C91.68 532.91 91.41 533.03 91.2 532.89C89.17 531.66 87.13 530.31 85.14 528.87C85.12 529.46 85.1 530.06 85.1 530.65C86.45 531.54 91.21 534.64 91.89 535.09ZM91.91 529.92C91.95 529.94 91.98 529.99 92.02 530.03C92.05 529.62 92.07 529.21 92.07 528.8C92.07 528.75 92.08 528.49 92.09 528.02L85.3 523.09L85.28 524.94C89.26 527.93 91.47 529.59 91.91 529.92ZM126.35 528.09C123.82 526.56 121.23 525.05 118.67 523.61C118.67 523.61 118.66 523.6 118.63 523.59C118.63 523.56 118.63 523.55 118.63 523.54C118.63 522.72 118.65 521.83 118.63 520.78C118.63 520.77 118.63 520.72 118.63 520.64C122.85 522.9 125.2 524.16 125.67 524.41C125.83 524.5 125.97 524.37 126.01 524.25C126.03 524.21 126.03 524.09 125.9 524.02C125.41 523.76 122.99 522.47 118.63 520.14C118.63 520.11 118.63 520.09 118.63 520.09C118.63 519.36 118.61 518.61 118.58 517.67C118.58 517.66 118.58 517.61 118.58 517.53L126.42 521.49C126.42 521.51 126.42 521.53 126.42 521.53C126.47 523.7 126.49 525.9 126.49 528.02C126.49 528.03 126.49 528.08 126.49 528.16C126.41 528.12 126.36 528.1 126.35 528.09ZM126.31 527.89C126.31 525.81 126.29 523.68 126.26 521.58C125.51 521.2 119.49 518.16 118.74 517.78C118.77 518.63 118.79 519.36 118.79 520.05C119.51 520.43 125.27 523.5 125.99 523.89C126.15 523.98 126.22 524.11 126.17 524.27C126.1 524.53 125.83 524.66 125.62 524.53C124.94 524.16 119.49 521.25 118.81 520.89C118.81 521.87 118.81 522.7 118.79 523.5C121.3 524.91 123.84 526.4 126.31 527.89ZM85.19 522.24L85.26 519.73C85.33 519.77 85.36 519.79 85.37 519.79C87.77 521.17 90.13 522.7 92.34 524.34C92.34 524.34 92.35 524.35 92.37 524.37C92.37 524.6 92.37 524.73 92.37 524.75C92.34 525.49 92.32 526.24 92.27 527.25C92.27 527.26 92.27 527.31 92.27 527.41L85.19 522.24ZM92.14 527.11C92.18 526.17 92.21 525.44 92.23 524.75C92.23 524.72 92.23 524.47 92.23 524.43C90.06 522.81 87.75 521.33 85.39 519.98C85.39 520.12 85.38 520.85 85.35 522.17C89.42 525.13 91.68 526.78 92.14 527.11ZM92.3 523.73C90.08 522.1 87.77 520.59 85.42 519.27C85.39 519.27 85.37 519.25 85.35 519.25C85.34 519.24 85.32 519.24 85.28 519.22L85.35 516.87C85.42 516.91 85.46 516.93 85.46 516.94C87.86 518.29 90.22 519.77 92.46 521.37C92.46 521.37 92.47 521.38 92.48 521.39L92.41 523.82C92.34 523.76 92.3 523.73 92.3 523.73ZM85.49 519.15C87.82 520.48 90.1 521.94 92.27 523.54C92.28 523.34 92.32 521.69 92.32 521.49C90.13 519.93 87.84 518.47 85.49 517.14C85.48 517.28 85.47 517.94 85.44 519.13C85.46 519.15 85.47 519.15 85.49 519.15ZM118.74 517.1C118.7 517.07 118.67 517.07 118.63 517.07C118.62 517.07 118.6 517.07 118.56 517.07C118.56 517.03 118.56 517.01 118.56 517.01C118.54 515.98 118.49 514.9 118.42 513.83C118.42 513.82 118.42 513.77 118.42 513.69C118.49 513.73 118.53 513.76 118.54 513.76C121.03 515.06 123.47 516.43 125.83 517.83C125.99 517.92 126.13 517.81 126.15 517.67C126.15 517.66 126.16 517.64 126.17 517.6C126.16 517.57 126.15 517.56 126.15 517.55C126.13 517.51 126.1 517.46 126.06 517.44C123.57 515.98 121.01 514.56 118.42 513.19C118.42 513.19 118.4 513.18 118.38 513.17C118.38 513.14 118.38 513.12 118.38 513.12C118.33 512.43 118.29 511.68 118.22 510.81C118.22 510.81 118.22 510.78 118.22 510.74L118.22 510.74C118.2 510.59 118.2 510.51 118.19 510.49C118.1 509.42 118.01 508.32 117.9 507.22C117.9 507.21 117.89 507.16 117.87 507.06C117.96 507.12 118 507.15 118.01 507.15C120.66 508.85 123.25 510.7 125.65 512.66C125.74 512.75 125.9 512.73 125.99 512.64C126 512.63 126.03 512.59 126.1 512.53C126.12 512.88 126.12 513.08 126.13 513.12C126.15 513.69 126.17 514.29 126.19 514.86C126.19 514.87 126.19 514.92 126.19 515.02C126.13 514.96 126.09 514.93 126.08 514.93C123.68 513.3 121.17 511.77 118.63 510.42C118.49 510.35 118.35 510.45 118.31 510.51C118.3 510.52 118.28 510.57 118.24 510.65C118.29 510.71 118.33 510.74 118.33 510.74C118.35 510.77 118.38 510.79 118.4 510.79C121.07 512.21 123.68 513.81 126.19 515.54C126.2 515.54 126.2 515.55 126.22 515.57C126.23 515.83 126.24 515.97 126.24 516C126.26 516.37 126.26 516.73 126.29 517.1C126.29 517.1 126.29 517.1 126.29 517.1C126.3 517.44 126.31 517.63 126.31 517.67C126.31 517.69 126.31 517.71 126.31 517.76C126.31 517.78 126.31 517.88 126.31 518.06C126.31 518.06 126.31 518.06 126.31 518.06C126.33 519.11 126.35 520 126.38 520.85C126.38 520.85 126.39 520.89 126.4 520.96C121.81 518.64 119.25 517.35 118.74 517.1ZM118.83 516.98C119.58 517.36 125.52 520.36 126.26 520.73C126.24 519.89 126.22 518.99 126.19 517.94C126.08 518.03 125.92 518.06 125.78 517.97C123.47 516.59 121.05 515.27 118.61 513.97C118.65 514.97 118.7 515.98 118.72 516.94C118.77 516.94 118.79 516.96 118.83 516.98ZM126.15 517.3C126.15 517.3 126.15 517.3 126.15 517.3C126.13 516.87 126.13 516.43 126.1 516C126.1 515.96 126.08 515.67 126.08 515.63C123.59 513.92 121.01 512.34 118.38 510.95C118.45 511.75 118.49 512.43 118.54 513.07C121.12 514.42 123.68 515.84 126.15 517.3ZM118.74 510.26C121.23 511.61 123.7 513.1 126.08 514.7C126.06 514.17 126.03 513.65 126.01 513.12C126.01 513.09 125.99 512.87 125.99 512.85C125.85 512.91 125.69 512.89 125.58 512.8C123.22 510.88 120.69 509.05 118.08 507.38C118.17 508.37 118.26 509.35 118.33 510.31C118.4 510.26 118.49 510.22 118.56 510.22C118.63 510.22 118.67 510.24 118.74 510.26ZM92.37 520.78C90.13 519.2 87.79 517.71 85.39 516.41C85.39 516.41 85.38 516.4 85.35 516.39L85.42 514.17C85.49 514.23 85.52 514.26 85.53 514.26C87.73 515.89 89.99 517.44 92.25 518.86C92.32 518.9 92.37 518.9 92.43 518.88C92.44 518.88 92.48 518.86 92.55 518.83L92.48 520.87C92.41 520.81 92.37 520.78 92.37 520.78ZM92.34 520.57C92.35 520.42 92.38 519.17 92.39 519.02C92.32 519.02 92.25 518.99 92.18 518.95C89.94 517.55 87.73 516.02 85.55 514.42C85.55 514.55 85.54 515.17 85.51 516.3C88.6 518.11 90.88 519.54 92.34 520.57ZM92.43 518.42C90.06 516.94 87.7 515.31 85.46 513.65C85.46 513.64 85.45 513.64 85.44 513.62L85.51 510.97C85.58 511.03 85.62 511.06 85.62 511.06C87.82 512.85 90.15 514.42 92.59 515.79C92.6 515.8 92.61 515.8 92.64 515.82L92.55 518.49C92.48 518.45 92.44 518.43 92.43 518.42ZM92.39 518.22C92.4 517.98 92.45 516.12 92.46 515.89C90.08 514.56 87.77 513.01 85.62 511.27C85.62 511.42 85.6 512.17 85.58 513.53C88.58 515.68 90.85 517.24 92.39 518.22ZM92.53 515.22C90.1 513.85 87.82 512.27 85.71 510.54C85.67 510.51 85.65 510.49 85.6 510.49C85.6 510.49 85.57 510.49 85.53 510.49L85.58 508.64C85.65 508.68 85.68 508.7 85.69 508.71C87.95 510.08 90.17 511.52 92.27 512.98C92.41 513.07 92.55 512.98 92.57 512.87C92.57 512.86 92.58 512.84 92.59 512.8C92.58 512.76 92.57 512.74 92.57 512.73C92.55 512.69 92.53 512.64 92.48 512.59C90.29 511.06 87.98 509.55 85.62 508.14C85.62 508.14 85.6 508.13 85.58 508.11L85.62 506.35C88.26 507.93 89.72 508.81 90.01 508.98C90.56 509.3 91.11 509.65 91.66 509.99C92.66 510.61 92.73 511.5 92.71 512.39C92.71 512.39 92.71 512.39 92.71 512.39L92.69 513.05L92.64 515.29C92.57 515.25 92.53 515.23 92.53 515.22ZM85.81 510.42C87.89 512.14 90.13 513.67 92.5 515.02C92.51 514.83 92.54 513.31 92.55 513.12C92.43 513.19 92.3 513.19 92.16 513.1C90.1 511.66 87.93 510.24 85.71 508.89C85.71 508.99 85.7 509.48 85.67 510.35C85.73 510.38 85.78 510.41 85.81 510.42ZM92.57 512.48C92.57 512.48 92.57 512.48 92.57 512.48C92.59 511.59 92.55 510.7 91.59 510.13C91.04 509.78 90.49 509.46 89.94 509.12C89.67 508.95 88.28 508.11 85.78 506.61L85.74 508.05C88.83 509.98 91.11 511.46 92.57 512.48ZM125.99 512.34C123.41 510.24 120.69 508.27 117.87 506.51C117.87 506.51 117.87 506.51 117.85 506.49C117.84 506.4 117.83 506.34 117.83 506.33C117.81 506.08 117.78 505.83 117.76 505.6C117.76 505.59 117.75 505.54 117.74 505.44C117.82 505.49 117.87 505.53 117.87 505.53C118.72 506.08 119.61 506.67 120.59 507.34C122.35 508.55 124.11 509.87 125.94 511.34C125.97 511.36 126.01 511.38 126.06 511.41C126.06 511.41 126.08 511.41 126.1 511.43C126.1 511.46 126.1 511.47 126.1 511.47C126.1 511.63 126.13 511.77 126.13 511.93C126.13 511.97 126.13 512.14 126.13 512.46C126.04 512.39 126 512.35 125.99 512.34ZM125.97 512.11C125.97 512.09 125.97 511.93 125.97 511.91C125.97 511.77 125.97 511.63 125.94 511.5C125.9 511.47 125.87 511.45 125.85 511.43C124.02 509.94 122.26 508.64 120.5 507.43C119.59 506.79 118.74 506.24 117.92 505.71C117.94 505.92 117.97 506.1 117.99 506.31C117.99 506.31 117.99 506.35 117.99 506.4C121.62 508.84 124.27 510.74 125.97 512.11Z" id="d7CADJ7u"></path><path d="M118.47 539.09C118.13 538.93 117.81 539.45 118.17 539.61C120.46 540.64 122.65 541.85 124.75 543.25C125.07 543.45 125.37 542.93 125.05 542.72C122.95 541.33 120.75 540.11 118.47 539.09Z" id="c1qTagHJUL"></path><path d="M124.91 543.36C124.85 543.36 124.78 543.34 124.71 543.29C122.63 541.92 120.41 540.69 118.15 539.66C117.99 539.59 117.92 539.45 117.94 539.29C117.99 539.13 118.13 538.97 118.33 538.97C118.38 538.97 118.45 538.99 118.49 539.02C120.78 540.05 122.99 541.28 125.07 542.65C125.21 542.74 125.28 542.93 125.23 543.09C125.21 543.25 125.05 543.36 124.91 543.36C124.91 543.36 124.91 543.36 124.91 543.36ZM118.08 539.34C118.08 539.38 118.06 539.47 118.19 539.54C120.48 540.57 122.7 541.81 124.78 543.18C124.91 543.27 125.05 543.2 125.1 543.04C125.12 542.99 125.14 542.86 125.01 542.79C122.93 541.42 120.71 540.18 118.45 539.15C118.4 539.13 118.38 539.13 118.33 539.13C118.19 539.13 118.1 539.25 118.08 539.34Z" id="arciLTc3"></path><path d="M118.97 529.55C118.65 529.33 118.35 529.85 118.67 530.08C120.91 531.7 123.27 533.12 125.78 534.31C126.13 534.47 126.45 533.94 126.08 533.78C123.59 532.59 121.21 531.18 118.97 529.55Z" id="a7rgNOOtB"></path><path d="M125.92 534.42C125.85 534.42 125.81 534.4 125.76 534.38C123.27 533.19 120.87 531.77 118.65 530.15C118.51 530.03 118.45 529.87 118.51 529.69C118.58 529.46 118.86 529.35 119.06 529.49C121.28 531.11 123.68 532.53 126.15 533.69C126.31 533.76 126.38 533.92 126.33 534.08C126.26 534.29 126.1 534.42 125.92 534.42C125.92 534.42 125.92 534.42 125.92 534.42ZM118.65 529.74C118.63 529.78 118.61 529.92 118.74 530.01C120.96 531.63 123.36 533.05 125.83 534.22C125.99 534.29 126.15 534.17 126.17 534.03C126.19 533.99 126.19 533.87 126.06 533.83C123.57 532.64 121.17 531.22 118.95 529.6C118.9 529.6 118.86 529.58 118.83 529.58C118.77 529.58 118.67 529.65 118.65 529.74Z" id="e4vI2BlTC"></path></defs><g><g><g><use xlink:href="#a2oUnc5k1V" opacity="1" fill="#000000" fill-opacity="1"></use><g><use xlink:href="#a2oUnc5k1V" opacity="1" fill-opacity="0" stroke="#000000" stroke-width="1" stroke-opacity="0"></use></g></g><g><use xlink:href="#d7CADJ7u" opacity="1" fill="#180f0b" fill-opacity="1"></use><g><use xlink:href="#d7CADJ7u" opacity="1" fill-opacity="0" stroke="#000000" stroke-width="1" stroke-opacity="0"></use></g></g><g><use xlink:href="#c1qTagHJUL" opacity="1" fill="#000000" fill-opacity="1"></use><g><use xlink:href="#c1qTagHJUL" opacity="1" fill-opacity="0" stroke="#000000" stroke-width="1" stroke-opacity="0"></use></g></g><g><use xlink:href="#arciLTc3" opacity="1" fill="#180f0b" fill-opacity="1"></use><g><use xlink:href="#arciLTc3" opacity="1" fill-opacity="0" stroke="#000000" stroke-width="1" stroke-opacity="0"></use></g></g><g><use xlink:href="#a7rgNOOtB" opacity="1" fill="#000000" fill-opacity="1"></use><g><use xlink:href="#a7rgNOOtB" opacity="1" fill-opacity="0" stroke="#000000" stroke-width="1" stroke-opacity="0"></use></g></g><g><use xlink:href="#e4vI2BlTC" opacity="1" fill="#180f0b" fill-opacity="1"></use><g><use xlink:href="#e4vI2BlTC" opacity="1" fill-opacity="0" stroke="#000000" stroke-width="1" stroke-opacity="0"></use></g></g></g></g></svg>