<?xml version="1.0" ?><svg id="图层_1" style="enable-background:new -239 241 32 32;" version="1.1" viewBox="-239 241 32 32" xml:space="preserve" xmlns="http://www.w3.org/2000/svg" xmlns:xlink="http://www.w3.org/1999/xlink"><style type="text/css">
	.st0{fill:#F42F42;}
	.st1{opacity:0.2038;fill:#332E0A;enable-background:new    ;}
	.st2{fill:none;stroke:#0A2933;stroke-linejoin:round;}
	.st3{fill:none;stroke:#FFFFFF;stroke-linecap:round;stroke-linejoin:round;stroke-dasharray:1,2,6,2,3;}
</style><path class="st0" d="M-227.2,250l3.8,10.8l4.1-11.2c0.3-0.9,0.6-1.5,1-1.9s0.8-0.6,1.4-0.6c0.6,0,1.1,0.2,1.5,0.6s0.6,0.9,0.6,1.4  c0,0.2,0,0.5-0.1,0.7c-0.1,0.3-0.2,0.5-0.3,0.8c-0.1,0.2-0.2,0.5-0.3,0.8l-4.5,11.3c-0.1,0.3-0.3,0.7-0.5,1.2  c-0.2,0.5-0.4,0.9-0.7,1.3c-0.2,0.4-0.6,0.6-0.9,0.8c-0.4,0.2-0.8,0.3-1.3,0.3c-0.7,0-1.2-0.2-1.6-0.5c-0.4-0.3-0.7-0.6-0.9-1  c-0.2-0.4-0.5-1.1-1-2.2l-4.5-11.2c-0.1-0.3-0.2-0.6-0.3-0.8c-0.1-0.3-0.2-0.6-0.3-0.9c-0.1-0.3-0.1-0.5-0.1-0.7  c0-0.3,0.1-0.6,0.3-1s0.5-0.6,0.8-0.8c0.3-0.2,0.7-0.3,1.1-0.3c0.8,0,1.3,0.2,1.6,0.7C-227.8,248.1-227.5,248.9-227.2,250z"/><path class="st1" d="M-214.8,248.3c0.1,0.2,0.1,0.4,0.1,0.7c0,0.2,0,0.5-0.1,0.7c-0.1,0.3-0.2,0.5-0.3,0.8  c-0.1,0.2-0.2,0.5-0.3,0.8l-4.5,11.3c-0.1,0.3-0.3,0.7-0.5,1.2c-0.2,0.5-0.4,0.9-0.7,1.3c-0.2,0.4-0.6,0.6-0.9,0.8  c-0.4,0.2-0.8,0.3-1.3,0.3c-0.7,0-1.2-0.2-1.6-0.5c-0.4-0.3-0.7-0.6-0.9-1c-0.2-0.4-0.5-1.1-1-2.2l-4.5-11.2  c-0.1-0.3-0.2-0.6-0.3-0.8c-0.1-0.3-0.2-0.6-0.3-0.9c-0.1-0.3-0.1-0.5-0.1-0.7c0-0.2,0-0.4,0.1-0.7c0.1,0.3,0.2,0.5,0.3,0.8  c0.1,0.3,0.2,0.6,0.3,0.8l4.5,11.2c0.5,1.1,0.8,1.8,1,2.2c0.2,0.4,0.5,0.7,0.9,1s0.9,0.5,1.6,0.5c0.5,0,1-0.1,1.3-0.3  c0.4-0.2,0.7-0.5,0.9-0.8c0.2-0.4,0.5-0.8,0.7-1.3c0.2-0.5,0.4-0.9,0.5-1.2l4.5-11.3c0.1-0.3,0.2-0.6,0.3-0.8  C-214.9,248.8-214.8,248.6-214.8,248.3z" id="Combined-Shape"/><path class="st2" d="M-227.2,250l3.8,10.8l4.1-11.2c0.3-0.9,0.6-1.5,1-1.9s0.8-0.6,1.4-0.6c0.6,0,1.1,0.2,1.5,0.6s0.6,0.9,0.6,1.4  c0,0.2,0,0.5-0.1,0.7c-0.1,0.3-0.2,0.5-0.3,0.8c-0.1,0.2-0.2,0.5-0.3,0.8l-4.5,11.3c-0.1,0.3-0.3,0.7-0.5,1.2  c-0.2,0.5-0.4,0.9-0.7,1.3c-0.2,0.4-0.6,0.6-0.9,0.8c-0.4,0.2-0.8,0.3-1.3,0.3c-0.7,0-1.2-0.2-1.6-0.5c-0.4-0.3-0.7-0.6-0.9-1  c-0.2-0.4-0.5-1.1-1-2.2l-4.5-11.2c-0.1-0.3-0.2-0.6-0.3-0.8c-0.1-0.3-0.2-0.6-0.3-0.9c-0.1-0.3-0.1-0.5-0.1-0.7  c0-0.3,0.1-0.6,0.3-1s0.5-0.6,0.8-0.8c0.3-0.2,0.7-0.3,1.1-0.3c0.8,0,1.3,0.2,1.6,0.7C-227.8,248.1-227.5,248.9-227.2,250z"/><path class="st3" d="M-217.9,249.2l-2.2,5.9" id="Path-24"/></svg>