<?xml version="1.0" ?><svg id="图层_1" style="enable-background:new -239 241 32 32;" version="1.1" viewBox="-239 241 32 32" xml:space="preserve" xmlns="http://www.w3.org/2000/svg" xmlns:xlink="http://www.w3.org/1999/xlink"><style type="text/css">
	.st0{fill:#F42F42;}
	.st1{opacity:0.2038;fill:#332E0A;enable-background:new    ;}
	.st2{fill:none;stroke:#0A2933;stroke-linejoin:round;}
	.st3{fill:none;stroke:#FFFFFF;stroke-linecap:round;stroke-linejoin:round;stroke-dasharray:1,2,6,2,3;}
</style><path class="st0" d="M-219,264.7l-3.4-5.1l-3.5,5.1c-0.5,0.7-0.9,1.2-1.3,1.5c-0.4,0.3-0.8,0.5-1.3,0.5c-0.6,0-1.1-0.2-1.5-0.6  c-0.4-0.4-0.6-0.8-0.6-1.3c0-0.5,0.3-1.2,1-2.1l4.3-6.1l-3.8-5.1c-0.7-0.8-1-1.6-1-2.2c0-0.5,0.2-0.9,0.6-1.3s0.9-0.5,1.5-0.5  c0.6,0,1,0.2,1.4,0.5c0.4,0.3,0.8,0.8,1.3,1.5l3.1,4.2l3-4.2c0.5-0.7,0.9-1.2,1.3-1.5c0.4-0.3,0.8-0.5,1.4-0.5  c0.6,0,1.1,0.2,1.6,0.5c0.4,0.4,0.6,0.8,0.6,1.3c0,0.4-0.1,0.7-0.3,1c-0.2,0.3-0.4,0.7-0.8,1.2l-3.8,5.1l4.3,6.1c0.7,1,1,1.7,1,2.2  c0,0.5-0.2,0.9-0.6,1.3s-0.9,0.5-1.5,0.5c-0.5,0-1-0.2-1.4-0.5S-218.5,265.4-219,264.7z"/><path class="st1" d="M-230.6,264.1c0.1,0.2,0.3,0.4,0.5,0.6c0.4,0.4,0.9,0.6,1.5,0.6c0.5,0,1-0.2,1.3-0.5  c0.4-0.3,0.8-0.8,1.3-1.5l3.5-5.1l3.4,5.1c0.5,0.7,0.9,1.2,1.3,1.5s0.8,0.5,1.4,0.5c0.6,0,1.1-0.2,1.5-0.5c0.2-0.2,0.3-0.3,0.4-0.5  c0.1,0.3,0.2,0.5,0.2,0.7c0,0.5-0.2,0.9-0.6,1.3s-0.9,0.5-1.5,0.5c-0.5,0-1-0.2-1.4-0.5s-0.8-0.8-1.3-1.5l-3.4-5.1l-3.5,5.1  c-0.5,0.7-0.9,1.2-1.3,1.5c-0.4,0.3-0.8,0.5-1.3,0.5c-0.6,0-1.1-0.2-1.5-0.6c-0.4-0.4-0.6-0.8-0.6-1.3  C-230.8,264.6-230.7,264.4-230.6,264.1z" id="Combined-Shape"/><path class="st2" d="M-219,264.7l-3.4-5.1l-3.5,5.1c-0.5,0.7-0.9,1.2-1.3,1.5c-0.4,0.3-0.8,0.5-1.3,0.5c-0.6,0-1.1-0.2-1.5-0.6  c-0.4-0.4-0.6-0.8-0.6-1.3c0-0.5,0.3-1.2,1-2.1l4.3-6.1l-3.8-5.1c-0.7-0.8-1-1.6-1-2.2c0-0.5,0.2-0.9,0.6-1.3s0.9-0.5,1.5-0.5  c0.6,0,1,0.2,1.4,0.5c0.4,0.3,0.8,0.8,1.3,1.5l3.1,4.2l3-4.2c0.5-0.7,0.9-1.2,1.3-1.5c0.4-0.3,0.8-0.5,1.4-0.5  c0.6,0,1.1,0.2,1.6,0.5c0.4,0.4,0.6,0.8,0.6,1.3c0,0.4-0.1,0.7-0.3,1c-0.2,0.3-0.4,0.7-0.8,1.2l-3.8,5.1l4.3,6.1c0.7,1,1,1.7,1,2.2  c0,0.5-0.2,0.9-0.6,1.3s-0.9,0.5-1.5,0.5c-0.5,0-1-0.2-1.4-0.5S-218.5,265.4-219,264.7z"/><path class="st3" d="M-217.7,249.2l-2.2,3" id="Path-26"/></svg>