<?xml version="1.0" encoding="UTF-8" standalone="no"?>
<!DOCTYPE svg PUBLIC "-//W3C//DTD SVG 1.1//EN" "http://www.w3.org/Graphics/SVG/1.1/DTD/svg11.dtd">
<svg version="1.1" xmlns="http://www.w3.org/2000/svg" xmlns:xlink="http://www.w3.org/1999/xlink" preserveAspectRatio="xMidYMid meet" viewBox="513.7371428571429 508.00000000000006 56.20037501324953 62.605714285714214" width="56.2" height="62.61"><defs><path d="M568.82 515.22C568.89 515.02 568.87 514.74 568.64 514.58C565.92 512.55 563.22 510.54 560.5 508.5C560.43 508.32 560.25 508.16 560.05 508.16C559.89 508.07 559.73 508.07 559.61 508.16C544.8 508.27 529.99 508.41 515.15 508.53C514.97 508.34 514.61 508.34 514.4 508.53C514.35 508.53 514.33 508.53 514.29 508.53C513.65 508.53 513.65 509.51 514.26 509.53C514.19 513.44 514.33 517.35 514.63 521.26C514.24 521.46 514.33 522.17 514.88 522.22C514.9 522.22 514.95 522.22 514.97 522.22C517.65 524 520.25 525.9 522.77 527.89C522.93 528.02 523.13 528.02 523.29 527.95C523.36 528 523.45 528.02 523.57 528C527.61 527.68 531.66 527.61 535.7 527.77C531.68 532.64 527.68 537.51 523.66 542.38C522.35 543.95 521.07 545.55 519.73 547.09C518.4 548.62 516.82 549.83 515.43 551.27C514.15 552.59 514.42 554.49 514.51 556.18C514.63 558.08 514.74 559.98 514.86 561.87C514.74 561.94 514.63 562.03 514.61 562.17C514.6 562.19 514.59 562.29 514.58 562.31C514.54 562.56 514.61 562.74 514.81 562.88C514.86 562.9 514.9 562.95 514.95 562.97C515.02 563.15 515.18 563.27 515.38 563.29C518.13 565.21 520.8 567.18 523.43 569.26C523.61 569.39 523.82 569.42 523.98 569.35C524.05 569.46 524.18 569.55 524.37 569.55C538.99 569.87 553.62 570.19 568.25 570.54C568.43 570.54 568.55 570.47 568.64 570.35C568.89 570.24 569.05 569.9 568.91 569.67C568.91 569.67 568.91 569.67 568.91 569.67C569.05 567.7 569.14 565.74 569.17 563.77C569.19 562.72 569.19 561.67 569.17 560.62C569.17 560.09 569.14 559.57 569.14 559.04C569.14 558.74 569.21 558.29 569.05 557.99C568.66 557.35 567.77 556.75 567.22 556.25C566.99 556.03 565.12 554.28 564.89 554.06C563.34 552.59 561.78 551.13 560.23 549.67C559.98 549.44 559.66 549.53 559.5 549.71C556.18 549.37 552.85 549.12 549.51 548.96C556.53 541.3 563.25 533.39 569.69 525.26C569.97 524.98 569.85 524.64 569.62 524.48C569.42 521.39 569.14 518.31 568.82 515.22ZM567.82 515.2C567.89 515.79 567.93 516.39 568 516.98C566.54 516.21 565.07 515.41 563.61 514.63C562.81 514.19 561.42 513.03 560.46 513.62C560.46 513.37 560.48 512.08 560.53 509.76C563.77 512.18 566.2 514 567.82 515.2ZM560.46 514.19C560.55 514.24 560.64 514.24 560.75 514.17C561.28 513.83 562.17 514.56 562.63 514.79C563.2 515.09 563.77 515.41 564.34 515.7C565.49 516.32 566.65 516.94 567.79 517.55C567.89 517.6 567.98 517.6 568.07 517.55C568.21 518.99 568.32 520.41 568.43 521.85C568.43 521.85 568.43 521.85 568.41 521.85C566.63 520.94 564.87 520 563.09 519.09C562.38 518.72 561.3 517.87 560.43 518.13C560.43 517.76 560.43 517.37 560.43 517.01C560.57 517.01 560.73 516.91 560.73 516.71C560.73 516.46 562.13 517.19 562.19 517.21C562.37 517.3 563.74 517.99 563.91 518.08C565.05 518.65 566.19 519.25 567.34 519.82C567.68 520 568 519.47 567.63 519.29C565.92 518.42 564.21 517.55 562.47 516.69C562.06 516.48 560.94 515.79 560.39 516.05C560.43 515.93 560.43 515.79 560.43 515.66C560.43 515.18 560.46 514.67 560.46 514.19ZM523.38 527.09C521.3 525.44 519.18 523.86 516.98 522.38C517.49 522.4 517.97 522.45 518.47 522.47C518.42 522.63 518.51 522.88 518.74 522.9C520.09 523.02 521.12 524.07 522.13 524.87C522.99 525.55 523.86 526.26 524.75 526.95C524.37 526.95 523.98 526.99 523.59 527.02C523.52 527.02 523.43 527.04 523.38 527.09ZM525.65 526.88C524.3 525.81 522.97 524.73 521.65 523.68C521.05 523.22 520.48 522.79 519.82 522.51C520.69 522.56 521.53 522.61 522.4 522.65C522.4 522.67 522.4 522.7 522.4 522.72C522.42 522.81 522.51 522.9 522.61 522.93C522.63 522.93 522.67 522.95 522.7 522.95C522.86 522.99 522.97 522.9 523.04 522.81C523.15 522.99 523.29 523.13 523.47 523.25C523.68 523.41 523.86 523.57 524.07 523.73C524.19 523.82 525.14 524.61 525.26 524.71C526.06 525.37 526.83 526.01 527.63 526.67C527.93 526.93 528.37 526.49 528.07 526.24C526.65 525.05 525.21 523.89 523.79 522.7C524.43 522.72 525.07 522.74 525.71 522.77C527.25 524.07 528.78 525.39 530.33 526.7C528.75 526.74 527.2 526.79 525.65 526.88C525.65 526.88 525.65 526.86 525.65 526.88ZM530.9 526.42C529.49 525.21 528.07 524 526.65 522.79C527.5 522.81 528.34 522.83 529.19 522.86C530.65 524.14 532.11 525.42 533.6 526.7C532.75 526.7 531.86 526.7 530.99 526.7C531.02 526.61 530.99 526.51 530.9 526.42ZM534.08 526.31C532.78 525.17 531.47 524.02 530.15 522.88C531.09 522.9 532.02 522.9 532.98 522.93C534.29 524.07 535.59 525.23 536.89 526.38C536.78 526.51 536.66 526.65 536.55 526.79C535.73 526.77 534.9 526.74 534.08 526.72C534.19 526.61 534.22 526.45 534.08 526.31ZM537.28 525.92C536.16 524.91 535.04 523.93 533.92 522.93C534.65 522.93 535.36 522.93 536.09 522.93C536.87 523.45 537.6 524.05 538.26 524.73C537.94 525.12 537.6 525.53 537.28 525.92ZM539.73 522.93C539.36 523.36 538.99 523.82 538.63 524.25C538.19 523.77 537.69 523.34 537.14 522.95C538.01 522.95 538.88 522.95 539.73 522.93ZM524.21 568.59C524.21 568.59 524.18 568.57 524.18 568.57C524.05 568.43 523.93 568.3 523.79 568.16C523.68 568.05 523.57 568 523.45 568C521.39 566.38 519.29 564.82 517.17 563.31C517.74 563.31 518.29 563.31 518.86 563.29C521.69 565.05 524.5 566.79 527.34 568.55C527.68 568.75 527.98 568.23 527.63 568.02C525.07 566.45 522.54 564.87 519.98 563.29C521.3 563.27 522.61 563.25 523.93 563.22C525.94 565.23 528.16 567.02 530.54 568.57C530.86 568.78 531.18 568.25 530.83 568.05C528.66 566.63 526.63 565.01 524.75 563.2C525.76 563.18 526.77 563.15 527.77 563.11C527.77 563.11 527.77 563.11 527.79 563.13C530.03 564.87 532.27 566.61 534.49 568.34C534.79 568.57 535.22 568.16 534.93 567.91C532.85 566.31 530.79 564.69 528.71 563.09C529.6 563.06 530.49 563.02 531.41 562.99C533.51 565.12 535.77 567.09 538.17 568.87C533.62 568.75 529.01 568.66 524.41 568.55C524.34 568.55 524.27 568.57 524.21 568.59ZM539.15 568.85C536.71 567.06 534.4 565.1 532.25 562.97C533.1 562.95 533.94 562.9 534.79 562.86C536.96 564.89 539.13 566.9 541.3 568.94C540.62 568.91 539.93 568.89 539.22 568.89C539.2 568.87 539.18 568.85 539.15 568.85ZM535.68 562.79C536.39 562.77 537.07 562.72 537.78 562.7C540.09 564.71 542.33 566.81 544.48 568.98C543.73 568.98 542.97 568.96 542.24 568.94C540.05 566.88 537.87 564.85 535.68 562.79ZM538.65 562.65C539.47 562.61 540.32 562.56 541.14 562.51C543.25 564.69 545.37 566.86 547.47 569.05C546.77 569.05 546.06 569.03 545.35 569.01C543.2 566.79 540.96 564.69 538.65 562.65ZM548.23 568.98C546.13 566.81 544.02 564.64 541.92 562.49C542.86 562.45 543.79 562.38 544.73 562.31C546.77 564.78 549.01 567.06 551.45 569.14C550.42 569.12 549.35 569.1 548.3 569.07C548.27 569.05 548.27 569.01 548.23 568.98ZM552.37 569.1C549.87 567.04 547.59 564.75 545.51 562.26C546.4 562.22 547.29 562.15 548.18 562.08C548.18 562.1 548.21 562.1 548.21 562.13C550.33 564.71 552.69 567.09 555.27 569.23C554.31 569.21 553.37 569.19 552.41 569.17C552.39 569.14 552.39 569.12 552.37 569.1ZM548.89 562.03C549.65 561.99 550.4 561.92 551.18 561.87C551.18 561.9 551.2 561.92 551.22 561.94C553.35 564.5 555.59 566.95 557.94 569.3C557.37 569.28 556.8 569.28 556.23 569.26C553.55 567.09 551.11 564.69 548.89 562.03ZM551.93 561.83C552.69 561.78 553.44 561.71 554.17 561.65C554.03 561.74 553.94 561.97 554.1 562.13C556.3 564.64 558.61 567.04 561.01 569.37C560.27 569.35 559.54 569.33 558.83 569.33C556.41 566.95 554.1 564.43 551.93 561.83ZM561.83 569.35C559.27 566.9 556.85 564.34 554.51 561.69C554.49 561.67 554.45 561.65 554.42 561.62C555.31 561.55 556.18 561.49 557.07 561.39C557.1 561.46 557.14 561.51 557.21 561.55C559.13 562.54 560.3 564.34 561.55 565.99C562.56 567.29 563.73 568.43 565.01 569.44C563.98 569.44 562.93 569.42 561.87 569.39C561.87 569.37 561.85 569.37 561.83 569.35ZM564.57 564.94C563.2 563.18 561.83 561.42 560.46 559.68C560.48 559.31 560.48 558.93 560.5 558.56C560.8 558.88 561.14 559.18 561.44 559.47C561.63 559.68 563.19 561.31 563.38 561.51C564.78 562.95 566.17 564.41 567.57 565.85C567.84 566.13 568.27 565.71 568 565.42C566.79 564.16 565.58 562.9 564.39 561.65C564.19 561.44 562.64 559.81 562.45 559.61C561.92 559.06 561.19 558.49 560.71 557.87C560.71 557.85 560.71 557.85 560.73 557.83C560.73 557.81 560.73 557.78 560.75 557.76C560.78 557.62 560.73 557.44 560.57 557.39C560.59 556.75 560.59 556.14 560.59 555.5C563.22 558.31 565.78 561.19 568.27 564.11C568.18 565.78 568.11 567.41 568 569.03C566.61 568.02 565.58 566.24 564.57 564.94ZM568.23 561.01C568.23 561.74 568.23 562.49 568.23 563.22C565.74 560.3 563.18 557.42 560.55 554.63C560.55 554.17 560.53 553.71 560.53 553.23C563.02 555.2 565.28 557.39 567.34 559.82C567.59 560.11 568.02 559.68 567.77 559.38C565.67 556.89 563.31 554.63 560.75 552.62C560.69 552.55 560.59 552.55 560.53 552.55C560.5 552.09 560.5 551.63 560.46 551.18C562.97 553.58 565.49 555.95 568.02 558.33C568.48 558.77 568.23 560.41 568.23 561.01ZM564.11 565.99C564.98 567.11 565.85 568.5 566.97 569.51C566.88 569.51 566.17 569.49 566.08 569.49C564.3 568.23 562.83 566.7 561.53 564.96C560.5 563.59 559.47 562.24 558.01 561.33C558.77 561.26 559.52 561.19 560.3 561.12C561.58 562.74 562.83 564.37 564.11 565.99ZM559.41 560.18C551.15 560.94 542.88 561.49 534.61 561.85C534.51 561.81 534.42 561.83 534.33 561.85C528.21 562.1 522.08 562.26 515.95 562.29C515.95 562.22 515.93 562.13 515.89 562.06C515.79 560.37 515.68 558.67 515.59 556.98C515.52 556 515.45 555.02 515.45 554.03C515.45 552.85 516 552.09 516.87 551.34C519.91 548.71 522.35 545.58 524.89 542.49C526.3 540.78 537.6 527.06 539.02 525.35C539.11 525.3 539.18 525.21 539.22 525.12C539.42 524.88 540.97 523 541.17 522.77C541.44 522.45 541.28 521.9 540.8 521.9C538.1 521.94 535.43 521.94 532.73 521.92C532.71 521.9 532.69 521.87 532.64 521.85C532.48 521.71 532.27 521.78 532.16 521.92C526.65 521.85 521.12 521.62 515.61 521.26C515.29 517.35 515.18 513.44 515.25 509.53C529.99 509.42 544.75 509.28 559.5 509.17C559.45 511.2 559.43 513.23 559.38 515.27C559.36 516.96 559.54 518.79 558.97 520.37C558.93 520.39 558.9 520.43 558.86 520.46C558.74 520.59 558.72 520.75 558.74 520.89C558.58 521.21 558.4 521.53 558.17 521.81C556.96 523.31 555.27 524.53 553.85 525.83C552.37 527.22 550.9 528.64 549.46 530.1C546.86 532.73 544.39 535.5 542.01 538.33C541.87 538.19 541.74 538.06 541.6 537.92C541.33 537.65 540.89 538.08 541.17 538.35C541.33 538.49 541.46 538.65 541.62 538.79C541.23 539.25 540.87 539.73 540.48 540.18C540.3 540.18 540.14 540.37 540.16 540.57C537.97 543.31 535.86 546.17 533.85 549.07C533.65 549.39 533.92 549.85 534.29 549.83C542.7 549.58 551.06 549.85 559.38 550.72C559.57 553.87 559.57 557.03 559.41 560.18ZM536.69 546.93C537.1 546.38 537.51 545.81 537.92 545.26C538.99 546.49 540.18 547.57 541.49 548.55C541.81 548.78 542.1 548.25 541.78 548.02C540.48 547.06 539.31 545.99 538.29 544.75C538.65 544.25 539.04 543.77 539.43 543.27C541.1 544.82 542.7 546.45 544.23 548.14C544.5 548.43 544.91 548 544.66 547.7C543.11 545.99 541.49 544.37 539.82 542.79C540.18 542.33 540.55 541.87 540.91 541.42C543.15 543.98 545.46 546.47 547.84 548.89C543.68 548.73 539.52 548.71 535.38 548.82C535.7 548.37 536.05 547.89 536.37 547.43C536.85 547.95 537.46 548.34 538.15 548.59C538.47 548.73 538.63 548.14 538.26 548C537.65 547.77 537.12 547.41 536.69 546.93ZM548.5 548.75C546.01 546.24 543.59 543.63 541.26 540.96C541.65 540.48 542.01 540.02 542.4 539.57C544.94 542.06 547.36 544.66 549.67 547.36C549.33 547.7 548.98 548.09 548.64 548.48C548.57 548.57 548.53 548.66 548.5 548.75ZM542.79 539.06C543.31 538.45 543.84 537.83 544.37 537.21C546.74 539.84 549.12 542.47 551.54 545.05C551.59 545.1 551.61 545.12 551.66 545.12C551.13 545.71 550.61 546.31 550.08 546.88C547.77 544.16 545.35 541.55 542.79 539.06ZM553.55 542.95C551.45 540.18 549.1 537.65 546.51 535.31C546.22 535.06 545.78 535.47 546.08 535.75C548.64 538.03 550.95 540.53 553.03 543.25C553.07 543.31 553.14 543.36 553.23 543.36C552.82 543.82 552.43 544.27 552.02 544.73C552 544.71 552 544.66 551.95 544.64C549.53 542.03 547.13 539.41 544.75 536.78C545.71 535.68 546.67 534.61 547.68 533.53C550.17 535.95 552.69 538.4 555.18 540.82C555.25 540.89 555.34 540.91 555.41 540.91C554.81 541.58 554.19 542.26 553.58 542.97C553.57 542.97 553.56 542.95 553.55 542.95ZM555.61 540.37C553.1 537.92 550.61 535.5 548.09 533.05C548.46 532.66 548.85 532.25 549.21 531.86C551.77 534.29 554.33 536.71 556.91 539.13C556.5 539.61 556.11 540.09 555.7 540.55C555.7 540.48 555.68 540.43 555.61 540.37ZM549.62 531.45C550.06 530.99 550.51 530.54 550.97 530.08C551.09 529.97 551.22 529.85 551.34 529.71C551.38 529.87 551.45 530.01 551.59 530.15C552.3 530.9 553.1 531.54 553.87 532.23C554.35 532.66 558.15 536.1 558.63 536.53C558.93 536.78 559.34 536.37 559.06 536.09C557.87 535.02 556.69 533.94 555.5 532.87C554.9 532.32 554.31 531.79 553.71 531.25C553.37 530.93 551.77 529.85 551.98 529.26C552 529.17 552 529.1 551.98 529.05C552.32 528.71 552.66 528.39 553.03 528.05C553.05 528.07 553.05 528.09 553.07 528.11C555.47 530.42 557.94 532.69 560.46 534.88C560.48 534.9 560.48 534.9 560.5 534.9C559.45 536.21 558.38 537.44 557.3 538.7C554.74 536.27 552.18 533.87 549.62 531.45ZM555.82 526.01C555.52 525.76 555.09 526.19 555.38 526.45C557.85 528.41 560.11 530.58 562.19 532.94C561.76 533.46 561.33 533.99 560.89 534.49C560.89 534.49 560.89 534.49 560.89 534.49C558.38 532.3 555.91 530.03 553.51 527.73C553.49 527.7 553.46 527.68 553.44 527.68C554.08 527.06 554.74 526.45 555.41 525.83C556.02 525.26 556.69 524.71 557.33 524.14C557.3 524.23 557.3 524.34 557.42 524.41C559.7 526.42 561.92 528.53 564.02 530.72C563.54 531.31 563.06 531.89 562.58 532.46C560.5 530.13 558.24 527.95 555.82 526.01ZM557.81 524C557.71 523.93 557.62 523.91 557.53 523.93C558.06 523.45 558.56 522.95 559.02 522.4C561.17 524.3 563.34 526.17 565.49 528.07C565.78 528.32 566.22 527.91 565.92 527.63C563.75 525.74 561.55 523.82 559.38 521.92C559.45 521.83 559.5 521.74 559.57 521.65C559.66 521.51 559.73 521.37 559.79 521.23C560.57 521.55 563.45 523.2 563.79 523.38C565.23 524.14 566.67 524.89 568.11 525.65C566.9 527.2 565.65 528.73 564.39 530.26C562.29 528.09 560.09 526.01 557.81 524ZM560.18 520.34C560.18 520.34 560.16 520.34 560.16 520.32C560.3 519.84 560.37 519.34 560.41 518.81C560.43 518.81 560.43 518.79 560.46 518.79C560.94 518.38 562.03 519.2 562.45 519.43C563.04 519.73 563.63 520.05 564.23 520.34C564.62 520.55 567.75 522.17 568.14 522.38C568.27 522.45 568.41 522.4 568.5 522.33C568.55 523.02 568.59 523.7 568.64 524.39C568.64 524.41 568.64 524.43 568.64 524.46C568.64 524.57 568.66 524.69 568.66 524.78C568.3 524.59 566.51 523.65 563.29 521.97C561.92 521.25 560.88 520.71 560.18 520.34Z" id="e3fXAYGooN"></path><path d="M568.32 570.61C541.97 570.02 527.34 569.69 524.41 569.62C524.23 569.62 524.09 569.55 523.98 569.42C523.79 569.49 523.59 569.44 523.41 569.3C520.87 567.29 518.17 565.28 515.38 563.36C515.18 563.34 514.99 563.22 514.9 563.02C514.89 563.01 514.8 562.93 514.79 562.93C514.56 562.77 514.49 562.56 514.51 562.29C514.52 562.27 514.53 562.16 514.54 562.15C514.56 562.01 514.65 561.9 514.79 561.81C514.75 561.24 514.48 556.72 514.45 556.16C514.45 556 514.42 555.82 514.42 555.66C514.31 554.06 514.19 552.41 515.38 551.2C515.98 550.58 516.62 550.01 517.21 549.44C518.03 548.69 518.9 547.89 519.68 547.02C520.71 545.85 521.69 544.62 522.67 543.43C522.99 543.04 523.29 542.67 523.61 542.29C524.81 540.84 534.37 529.24 535.57 527.79C534.26 527.75 532.96 527.73 531.66 527.73C528.96 527.73 526.26 527.84 523.59 528.05C523.47 528.05 523.38 528.05 523.31 528C523.11 528.07 522.9 528.02 522.74 527.91C520.27 525.94 517.67 524.05 514.97 522.26C514.96 522.26 514.91 522.26 514.9 522.26C514.56 522.24 514.4 521.99 514.35 521.78C514.31 521.53 514.4 521.3 514.56 521.19C514.26 517.35 514.13 513.44 514.19 509.58C513.9 509.53 513.74 509.26 513.74 509.01C513.74 508.73 513.92 508.43 514.31 508.43C514.32 508.43 514.39 508.43 514.4 508.43C514.61 508.25 514.99 508.25 515.2 508.43C519.64 508.4 555.15 508.11 559.59 508.07C559.75 507.98 559.91 507.98 560.07 508.07C560.3 508.09 560.5 508.23 560.57 508.43C561.38 509.04 567.87 513.89 568.69 514.49C568.91 514.65 568.98 514.93 568.89 515.2C569.21 518.24 569.49 521.33 569.69 524.41C569.81 524.5 569.87 524.64 569.92 524.78C569.97 524.96 569.92 525.12 569.81 525.28C563.43 533.35 556.66 541.28 549.71 548.87C552.96 549.03 556.25 549.28 559.5 549.62C559.73 549.39 560.09 549.37 560.32 549.6C561.02 550.26 566.64 555.52 567.34 556.18C567.5 556.34 567.7 556.5 567.91 556.69C568.37 557.07 568.89 557.49 569.17 557.97C569.3 558.19 569.28 558.51 569.28 558.79C569.28 558.88 569.28 558.97 569.28 559.04C569.3 559.57 569.3 560.09 569.3 560.62C569.33 561.83 569.33 562.83 569.3 563.77C569.26 565.74 569.19 567.7 569.05 569.67C569.1 569.78 569.12 569.92 569.07 570.03C569.03 570.19 568.89 570.33 568.75 570.42C568.66 570.51 568.53 570.61 568.32 570.61C568.32 570.61 568.32 570.61 568.32 570.61ZM524.09 569.3C524.14 569.37 524.25 569.49 524.43 569.49C527.36 569.55 541.99 569.88 568.32 570.47L568.34 570.54C568.34 570.5 568.34 570.47 568.34 570.47C568.48 570.47 568.59 570.42 568.66 570.31C568.67 570.31 568.68 570.29 568.69 570.29C568.8 570.22 568.91 570.1 568.96 569.99C568.98 569.9 568.98 569.78 568.94 569.71C568.94 569.71 568.94 569.67 568.94 569.67C569.07 567.7 569.17 565.71 569.19 563.75C569.21 562.81 569.21 561.81 569.19 560.59C569.19 560.07 569.17 559.54 569.17 559.02C569.17 558.93 569.17 558.86 569.17 558.74C569.17 558.49 569.19 558.19 569.07 557.99C568.82 557.55 568.32 557.14 567.84 556.75C567.63 556.57 567.43 556.41 567.25 556.25C566.54 555.6 560.93 550.37 560.23 549.71C560.05 549.53 559.77 549.58 559.59 549.76C559.59 549.76 559.58 549.77 559.57 549.78C559.54 549.78 559.52 549.78 559.52 549.78C556.21 549.44 552.85 549.19 549.55 549.03C549.54 549.03 549.49 549.03 549.39 549.03C549.46 548.96 549.5 548.92 549.51 548.91C556.5 541.28 563.29 533.3 569.69 525.21C569.81 525.07 569.81 524.94 569.78 524.85C569.76 524.73 569.69 524.62 569.6 524.55C569.6 524.55 569.59 524.54 569.58 524.53C569.58 524.51 569.58 524.5 569.58 524.5C569.37 521.42 569.1 518.29 568.78 515.25C568.78 515.24 568.78 515.24 568.78 515.22C568.78 515.21 568.78 515.2 568.78 515.2C568.85 515.04 568.82 514.81 568.62 514.65C568.07 514.24 565.35 512.21 560.46 508.55C560.46 508.53 560.46 508.53 560.46 508.53C560.39 508.37 560.23 508.23 560.07 508.23C560.07 508.23 560.06 508.23 560.05 508.23C560.03 508.23 560.02 508.23 560.02 508.23C559.91 508.16 559.77 508.16 559.66 508.23C559.66 508.23 559.65 508.24 559.63 508.25L515.13 508.62C515.12 508.6 515.11 508.6 515.11 508.59C514.95 508.43 514.63 508.43 514.47 508.59C514.47 508.6 514.46 508.6 514.45 508.62C514.35 508.62 514.3 508.62 514.29 508.62C514.01 508.62 513.87 508.82 513.87 509.05C513.87 509.26 513.99 509.46 514.26 509.49C514.27 509.49 514.29 509.49 514.33 509.49C514.33 509.53 514.33 509.55 514.33 509.55C514.26 513.46 514.4 517.39 514.7 521.26C514.7 521.26 514.7 521.28 514.7 521.3C514.67 521.32 514.65 521.32 514.65 521.33C514.51 521.39 514.42 521.6 514.47 521.78C514.49 521.94 514.63 522.13 514.88 522.15C514.89 522.15 514.93 522.15 514.99 522.15C515.01 522.15 515.02 522.15 515.02 522.15C517.71 523.95 520.34 525.85 522.83 527.82C522.97 527.93 523.13 527.95 523.29 527.89C523.29 527.88 523.3 527.88 523.31 527.86C523.33 527.88 523.34 527.88 523.34 527.89C523.41 527.93 523.47 527.93 523.57 527.93C526.24 527.73 528.96 527.61 531.66 527.61C533.01 527.61 534.38 527.63 535.73 527.68C535.74 527.68 535.79 527.68 535.89 527.68C528.6 536.51 524.56 541.42 523.75 542.4C523.43 542.77 523.13 543.15 522.81 543.54C521.85 544.73 520.85 545.94 519.82 547.13C519.04 548.02 518.19 548.8 517.35 549.58C516.73 550.13 516.11 550.72 515.52 551.31C514.38 552.48 514.49 554.1 514.61 555.66C514.63 555.82 514.63 556 514.63 556.16C514.65 556.54 514.77 558.45 514.97 561.9C514.94 561.91 514.93 561.92 514.93 561.92C514.86 561.97 514.74 562.03 514.72 562.17C514.72 562.19 514.7 562.29 514.7 562.31C514.67 562.54 514.72 562.7 514.9 562.81C514.91 562.82 514.97 562.86 515.06 562.93C515.06 562.94 515.06 562.95 515.06 562.95C515.13 563.11 515.27 563.2 515.43 563.22C515.43 563.22 515.44 563.22 515.45 563.22C515.47 563.24 515.47 563.24 515.47 563.25C518.26 565.19 520.96 567.2 523.52 569.21C523.66 569.33 523.84 569.35 524 569.28C524 569.28 524.02 569.27 524.05 569.26C524.07 569.28 524.09 569.3 524.09 569.3ZM566.03 569.55C566.02 569.54 566.01 569.53 566.01 569.53C564.34 568.37 562.86 566.88 561.44 564.98C560.43 563.66 559.41 562.26 557.94 561.37C557.93 561.36 557.87 561.33 557.76 561.26C557.9 561.24 557.97 561.24 557.99 561.23C558.74 561.17 559.52 561.1 560.27 561.03C560.28 561.03 560.29 561.03 560.32 561.03C562.62 563.96 563.9 565.59 564.16 565.92C564.41 566.24 564.66 566.58 564.91 566.93C565.55 567.82 566.22 568.71 567.02 569.42C567.03 569.43 567.07 569.48 567.15 569.58L566.03 569.55ZM566.77 569.42C566.01 568.73 565.39 567.86 564.8 567.04C564.55 566.7 564.3 566.35 564.05 566.03C563.67 565.55 560.63 561.67 560.25 561.19C559.59 561.26 558.9 561.3 558.24 561.37C559.61 562.29 560.62 563.61 561.58 564.91C562.99 566.77 564.46 568.23 566.1 569.39C566.24 569.4 566.7 569.41 566.77 569.42ZM561.85 569.46C561.84 569.45 561.83 569.44 561.83 569.44C561.83 569.44 561.81 569.42 561.81 569.42C559.27 566.97 556.8 564.41 554.47 561.76C554.45 561.74 554.42 561.71 554.4 561.71C554.39 561.71 554.36 561.7 554.31 561.67C554.25 561.71 554.22 561.73 554.22 561.74C554.15 561.78 554.1 561.85 554.1 561.92C554.1 561.99 554.13 562.06 554.17 562.1C556.34 564.57 558.65 566.99 561.07 569.35C561.08 569.36 561.13 569.4 561.21 569.49L558.81 569.44C558.8 569.43 558.79 569.42 558.79 569.42C556.37 567.04 554.06 564.53 551.89 561.92C551.88 561.91 551.85 561.87 551.79 561.81C551.88 561.81 551.92 561.81 551.93 561.81C552.46 561.76 552.96 561.71 553.49 561.69C553.58 561.68 554.35 561.63 554.45 561.62C555.34 561.55 556.21 561.49 557.1 561.39C557.1 561.39 557.12 561.39 557.17 561.39C557.18 561.44 557.19 561.46 557.19 561.46C557.21 561.51 557.23 561.55 557.3 561.58C558.97 562.42 560.07 563.91 561.17 565.35C561.35 565.58 561.51 565.81 561.69 566.03C562.67 567.31 563.84 568.46 565.14 569.46C565.15 569.47 565.19 569.49 565.26 569.53L561.85 569.46ZM564.8 569.37C563.57 568.39 562.45 567.27 561.51 566.03C561.33 565.81 561.17 565.58 560.98 565.35C559.91 563.93 558.81 562.47 557.19 561.62C557.12 561.58 557.07 561.53 557.03 561.46C556.23 561.53 555.43 561.6 554.63 561.67C556.91 564.32 559.36 566.86 561.92 569.3C561.9 569.3 561.9 569.3 561.92 569.3C562.5 569.32 564.51 569.36 564.8 569.37ZM560.8 569.28C558.42 566.97 556.16 564.59 554.03 562.17C553.97 562.08 553.92 561.99 553.94 561.87C553.94 561.83 553.97 561.78 553.99 561.74C553.94 561.74 553.54 561.78 553.49 561.78C553.03 561.83 552.55 561.85 552.09 561.9C554.22 564.43 556.48 566.9 558.86 569.23C559.25 569.24 560.61 569.28 560.8 569.28ZM556.21 569.33C556.19 569.31 556.18 569.3 556.18 569.3C553.51 567.15 551.04 564.71 548.85 562.08C548.84 562.07 548.81 562.03 548.75 561.97C548.84 561.97 548.88 561.97 548.89 561.97C549.65 561.92 550.4 561.85 551.18 561.81C551.18 561.81 551.2 561.81 551.22 561.81C551.24 561.83 551.24 561.85 551.25 561.85C551.25 561.87 551.27 561.9 551.27 561.9C553.37 564.43 555.63 566.9 557.97 569.26C557.98 569.26 558.03 569.3 558.13 569.37L556.21 569.33ZM557.76 569.21C555.45 566.9 553.23 564.48 551.18 561.99C551.18 561.99 551.15 561.97 551.15 561.97C550.47 562.01 549.76 562.08 549.07 562.13C551.22 564.69 553.65 567.06 556.27 569.19C556.57 569.19 557.61 569.21 557.76 569.21ZM552.37 569.26C552.35 569.24 552.34 569.24 552.34 569.23C552.32 569.21 552.32 569.21 552.3 569.19C549.81 567.13 547.5 564.82 545.42 562.33C545.41 562.32 545.38 562.29 545.33 562.22C545.42 562.22 545.48 562.22 545.49 562.22C546.31 562.17 547.13 562.1 547.95 562.06C547.97 562.06 548.05 562.05 548.21 562.03C548.22 562.06 548.23 562.08 548.23 562.08C548.23 562.1 548.25 562.1 548.25 562.13C550.35 564.69 552.73 567.09 555.29 569.21C555.3 569.22 555.36 569.26 555.47 569.33L552.37 569.26ZM555.04 569.17C552.53 567.06 550.19 564.71 548.14 562.19C548.14 562.19 548.14 562.19 548.11 562.17C548.1 562.17 547.97 562.17 547.95 562.17C547.18 562.22 546.42 562.29 545.65 562.33C547.7 564.78 549.97 567.02 552.41 569.05C552.43 569.07 552.43 569.07 552.46 569.1C552.97 569.11 554.78 569.16 555.04 569.17ZM548.25 569.17C548.24 569.14 548.23 569.12 548.23 569.12C548.21 569.1 548.21 569.07 548.18 569.05C547.75 568.61 545.61 566.4 541.76 562.42C541.86 562.42 541.91 562.42 541.92 562.42C542.65 562.38 543.36 562.33 544.09 562.29C544.14 562.28 544.37 562.27 544.78 562.24C544.79 562.25 544.8 562.26 544.8 562.26C546.81 564.73 549.07 567.02 551.52 569.1C551.53 569.11 551.58 569.15 551.68 569.23L548.25 569.17ZM551.27 569.07C548.89 567.04 546.7 564.8 544.73 562.4C544.67 562.4 544.18 562.44 544.11 562.45C543.45 562.49 542.77 562.54 542.1 562.56C542.72 563.2 547.68 568.3 548.3 568.94C548.32 568.96 548.32 568.98 548.34 569.01C548.93 569.02 550.98 569.07 551.27 569.07ZM567.95 569.12C566.9 568.37 566.1 567.22 565.3 566.13C565.03 565.74 564.75 565.35 564.48 565.03C564.2 564.68 562.83 562.92 560.34 559.75C560.34 559.73 560.34 559.73 560.34 559.73C560.37 559.36 560.37 558.97 560.39 558.61C560.39 558.59 560.39 558.53 560.39 558.42C560.46 558.51 560.5 558.55 560.5 558.56C560.64 558.72 560.8 558.86 560.96 558.99C561.12 559.15 561.28 559.31 561.44 559.45C562.05 560.09 566.95 565.19 567.57 565.83C567.68 565.94 567.86 565.9 567.93 565.74C567.95 565.69 567.98 565.6 567.89 565.51C567.33 564.93 562.87 560.28 562.31 559.7C562.13 559.5 561.9 559.29 561.67 559.09C561.28 558.72 560.87 558.35 560.57 557.94C560.57 557.94 560.56 557.93 560.55 557.92C560.56 557.89 560.57 557.88 560.57 557.87C560.57 557.85 560.57 557.85 560.57 557.85C560.57 557.84 560.59 557.79 560.59 557.78C560.62 557.67 560.57 557.55 560.46 557.51C560.45 557.51 560.44 557.5 560.41 557.49C560.41 557.46 560.41 557.44 560.41 557.44C560.43 556.87 560.43 556.27 560.43 555.54C560.43 555.53 560.43 555.47 560.43 555.36C560.52 555.44 560.56 555.49 560.57 555.5C563.2 558.33 565.78 561.23 568.25 564.11C568.25 564.12 568.26 564.12 568.27 564.14C568.27 564.15 568.27 564.16 568.27 564.16C568.25 565.74 568.18 567.34 568.07 569.05C568.07 569.06 568.07 569.11 568.07 569.19C568 569.15 567.96 569.12 567.95 569.12ZM564.62 564.89C564.89 565.23 565.14 565.6 565.44 566.01C566.19 567.06 566.97 568.16 567.93 568.89C568 567.82 568.05 566.81 568.09 565.83C568.02 565.94 567.89 566.03 567.75 566.03C567.66 566.03 567.57 565.99 567.5 565.92C566.88 565.28 561.98 560.18 561.37 559.54C561.23 559.38 561.07 559.25 560.89 559.09C560.78 558.97 560.66 558.88 560.55 558.77C560.55 559.04 560.55 559.36 560.53 559.66C561.34 560.7 564.21 564.37 564.62 564.89ZM561.81 558.95C562.03 559.15 562.26 559.36 562.45 559.57C563 560.15 567.47 564.79 568.02 565.37C568.05 565.39 568.07 565.44 568.09 565.46C568.11 565.03 568.11 564.59 568.11 564.16C565.71 561.33 563.18 558.47 560.59 555.7C560.59 556.32 560.59 556.85 560.57 557.35C560.73 557.44 560.78 557.62 560.75 557.78C560.75 557.79 560.75 557.87 560.75 557.87C560.78 557.87 560.75 557.87 560.75 557.87C561.05 558.26 561.44 558.61 561.81 558.95ZM545.33 569.1C545.31 569.08 545.3 569.08 545.3 569.07C543.18 566.9 540.94 564.75 538.61 562.72C538.6 562.71 538.55 562.67 538.47 562.61C538.58 562.61 538.64 562.61 538.65 562.61C539.47 562.56 540.32 562.51 541.14 562.47C541.15 562.47 541.16 562.47 541.19 562.47L547.66 569.14L545.33 569.1ZM547.27 568.98C543.57 565.16 541.51 563.03 541.1 562.61C540.34 562.65 539.59 562.7 538.83 562.72C541.1 564.73 543.29 566.81 545.37 568.94C545.62 568.94 546.26 568.96 547.27 568.98ZM542.22 569.03L541.97 568.8L535.5 562.74C535.61 562.74 535.67 562.74 535.68 562.74C536.3 562.72 536.94 562.67 537.55 562.65C537.57 562.65 537.65 562.64 537.81 562.63C537.82 562.64 537.83 562.65 537.83 562.65C540.09 564.62 542.35 566.74 544.53 568.94C544.53 568.95 544.58 568.99 544.66 569.07L542.22 569.03ZM544.27 568.91C542.15 566.77 539.95 564.71 537.74 562.79C537.72 562.79 537.55 562.79 537.53 562.79C536.96 562.81 536.41 562.83 535.84 562.88C536.27 563.28 538.41 565.28 542.26 568.87C543.47 568.9 544.14 568.91 544.27 568.91ZM539.2 568.96C539.19 568.95 539.18 568.94 539.18 568.94C539.15 568.91 539.15 568.91 539.13 568.89C536.71 567.13 534.38 565.14 532.23 562.99C532.22 562.99 532.18 562.95 532.11 562.88C532.22 562.88 532.28 562.88 532.3 562.88C533.12 562.86 533.92 562.81 534.74 562.79C534.75 562.79 534.8 562.79 534.88 562.79L535.29 563.18L541.53 569.01L539.2 568.96ZM541.12 568.85L534.79 562.93C534.75 562.93 534.72 562.93 534.72 562.93C533.97 562.95 533.21 562.99 532.46 563.02C534.58 565.1 536.85 567.04 539.22 568.78C539.25 568.78 539.25 568.8 539.27 568.8C539.52 568.81 540.13 568.82 541.12 568.85ZM524.41 568.62C524.41 568.62 524.41 568.62 524.41 568.62C524.34 568.62 524.3 568.62 524.23 568.64C524.23 568.64 524.21 568.65 524.18 568.66L524.14 568.59C523.9 568.33 523.77 568.19 523.75 568.16C523.66 568.07 523.57 568.02 523.47 568.02C523.47 568.02 523.47 568.02 523.45 568.02C523.44 568.01 523.43 568 523.43 568C521.35 566.38 519.25 564.8 517.14 563.31C517.13 563.31 517.07 563.26 516.96 563.18C517.1 563.18 517.17 563.18 517.19 563.18C517.6 563.18 518.03 563.18 518.45 563.15C518.48 563.15 518.63 563.15 518.9 563.15L518.93 563.18C524.01 566.33 526.84 568.08 527.41 568.43C527.54 568.53 527.7 568.41 527.73 568.3C527.75 568.25 527.75 568.14 527.63 568.05C527.11 567.72 524.48 566.1 519.75 563.18C519.9 563.18 519.98 563.18 520 563.18C521.19 563.15 522.49 563.13 523.95 563.11C523.96 563.11 523.96 563.11 523.98 563.11C523.99 563.12 524 563.13 524 563.13C526.01 565.12 528.23 566.93 530.61 568.48C530.65 568.5 530.67 568.53 530.72 568.53C530.83 568.53 530.9 568.43 530.93 568.34C530.95 568.3 530.97 568.16 530.83 568.09C528.66 566.67 526.63 565.05 524.75 563.25C524.75 563.24 524.7 563.19 524.62 563.11C524.73 563.11 524.79 563.11 524.8 563.11C525.65 563.09 526.49 563.06 527.34 563.04C527.37 563.04 527.54 563.03 527.84 563.02L527.86 563.04C531.89 566.18 534.13 567.93 534.58 568.27C534.72 568.39 534.93 568.3 534.99 568.16C535.02 568.09 534.99 568.02 534.93 567.98C534.5 567.65 532.37 565.99 528.55 563.02C528.67 563.02 528.74 563.02 528.75 563.02C529.53 562.99 530.31 562.97 531.09 562.93C531.11 562.92 531.24 562.92 531.47 562.9C531.49 562.92 531.5 562.92 531.5 562.93C533.6 565.03 535.86 567.02 538.26 568.8C538.28 568.81 538.34 568.85 538.45 568.94C530.03 568.75 525.35 568.64 524.41 568.62ZM537.99 568.78C535.68 567.02 533.46 565.1 531.43 563.06C531.4 563.06 531.14 563.06 531.11 563.06C530.4 563.09 529.69 563.11 528.98 563.13C529.59 563.6 534.41 567.37 535.02 567.84C535.13 567.93 535.18 568.07 535.13 568.21C535.09 568.37 534.9 568.48 534.74 568.48C534.65 568.48 534.56 568.46 534.49 568.39C534.04 568.04 531.81 566.3 527.79 563.18C527.53 563.19 527.39 563.2 527.36 563.2C526.58 563.22 525.78 563.25 525.01 563.27C526.83 565.03 528.82 566.61 530.93 567.98C531.06 568.07 531.13 568.23 531.09 568.41C531.04 568.48 530.97 568.57 530.9 568.62C532.32 568.65 537.28 568.76 537.99 568.78ZM530.54 568.62C530.54 568.62 530.54 568.62 530.54 568.62C528.16 567.06 525.94 565.28 523.93 563.27C522.58 563.29 521.37 563.31 520.27 563.34C521.02 563.8 526.96 567.47 527.7 567.93C527.86 568.02 527.91 568.18 527.86 568.34C527.84 568.43 527.79 568.5 527.75 568.55C528.31 568.56 530.26 568.61 530.54 568.62ZM527.22 568.55L518.83 563.36C518.59 563.36 518.45 563.36 518.42 563.36C518.08 563.36 517.74 563.36 517.39 563.36C519.43 564.8 521.46 566.33 523.47 567.91C523.61 567.91 523.75 567.98 523.84 568.09C523.88 568.13 524.19 568.46 524.23 568.5C524.3 568.48 524.34 568.48 524.41 568.48C524.79 568.49 525.72 568.51 527.22 568.55ZM568.16 563.27C565.67 560.34 563.06 557.44 560.48 554.67C560.48 554.67 560.47 554.67 560.46 554.65C560.46 554.64 560.46 554.63 560.46 554.63C560.46 554.17 560.43 553.71 560.43 553.23C560.43 553.22 560.43 553.17 560.43 553.07C560.52 553.13 560.56 553.16 560.57 553.17C563.06 555.13 565.35 557.35 567.41 559.77C567.52 559.89 567.68 559.84 567.75 559.7C567.77 559.66 567.79 559.54 567.7 559.45C565.6 556.98 563.25 554.7 560.69 552.71C560.64 552.66 560.57 552.64 560.5 552.66C560.5 552.66 560.47 552.66 560.41 552.66C560.41 552.61 560.41 552.58 560.41 552.57C560.39 552.11 560.39 551.66 560.37 551.2C560.37 551.19 560.37 551.13 560.37 551.02C565 555.38 567.58 557.8 568.09 558.29C568.46 558.63 568.39 559.7 568.34 560.46C568.32 560.69 568.32 560.87 568.32 561.01C568.32 561.83 568.32 562.63 568.32 563.22C568.32 563.24 568.31 563.31 568.3 563.43C568.21 563.33 568.17 563.28 568.16 563.27ZM568.16 563.04C568.16 562.47 568.16 561.74 568.16 561.03C568.16 560.89 568.16 560.69 568.18 560.46C568.23 559.75 568.3 558.7 567.98 558.4C567.23 557.7 561.27 552.11 560.53 551.41C560.55 551.77 560.55 552.14 560.57 552.53C560.64 552.53 560.71 552.57 560.78 552.62C563.34 554.63 565.71 556.91 567.82 559.38C567.91 559.5 567.93 559.66 567.86 559.79C567.79 559.93 567.66 560.02 567.52 560.02C567.45 560.02 567.36 560 567.27 559.89C565.26 557.53 563.02 555.36 560.59 553.42C560.59 553.81 560.62 554.19 560.62 554.61C563.15 557.33 565.69 560.16 568.16 563.04ZM515.91 562.29C515.91 562.22 515.89 562.15 515.86 562.1C515.86 562.1 515.86 562.09 515.86 562.08C515.68 559.04 515.59 557.34 515.57 557.01C515.54 556.75 515.54 556.53 515.52 556.27C515.47 555.54 515.43 554.79 515.43 554.06C515.43 552.75 516.11 551.95 516.87 551.31C519.54 548.98 521.81 546.22 524 543.54C524.3 543.18 524.59 542.83 524.89 542.47C525.83 541.33 530.55 535.61 539.04 525.33C539.05 525.33 539.06 525.33 539.06 525.33C539.13 525.3 539.2 525.21 539.22 525.14C539.22 525.14 539.23 525.13 539.25 525.12C540.41 523.71 541.06 522.92 541.19 522.77C541.3 522.63 541.33 522.4 541.26 522.24C541.21 522.15 541.12 522.01 540.89 522.01C540.89 522.01 540.89 521.98 540.89 521.94C540.89 521.98 540.89 522.01 540.89 522.01C539.31 522.03 537.69 522.06 536.05 522.06C534.99 522.06 533.9 522.06 532.82 522.03C532.82 522.03 532.81 522.03 532.8 522.03C532.75 521.98 532.71 521.95 532.71 521.94C532.59 521.85 532.43 521.87 532.34 521.99C532.34 521.99 532.33 522 532.32 522.01C532.29 522.01 532.28 522.01 532.27 522.01C526.74 521.94 521.19 521.71 515.73 521.35C515.72 521.35 515.7 521.35 515.66 521.35C515.66 521.31 515.66 521.28 515.66 521.28C515.34 517.39 515.22 513.46 515.29 509.55C515.29 509.55 515.29 509.53 515.29 509.49L559.7 509.12C559.63 512.82 559.6 514.88 559.59 515.29C559.59 515.66 559.59 516.05 559.59 516.43C559.61 517.78 559.61 519.18 559.18 520.41C559.18 520.41 559.18 520.42 559.18 520.43C559.16 520.45 559.16 520.46 559.15 520.46C559.13 520.48 559.09 520.5 559.06 520.55C558.95 520.69 558.95 520.82 558.97 520.91C558.97 520.92 558.97 520.92 558.97 520.94C558.97 520.95 558.97 520.96 558.97 520.96C558.81 521.3 558.61 521.62 558.38 521.9C557.55 522.9 556.5 523.79 555.5 524.66C555.02 525.07 554.51 525.51 554.06 525.94C552.64 527.27 551.22 528.66 549.69 530.22C547.15 532.8 544.64 535.57 542.24 538.45C542.24 538.45 542.22 538.47 542.19 538.51C542.06 538.38 541.98 538.3 541.97 538.29C541.87 538.22 541.81 538.13 541.71 538.06C541.6 537.94 541.39 538.01 541.33 538.15C541.3 538.19 541.28 538.29 541.37 538.38C541.46 538.47 541.55 538.56 541.67 538.65C541.68 538.67 541.75 538.73 541.87 538.86C541.85 538.88 541.83 538.9 541.83 538.9C541.44 539.36 541.07 539.84 540.69 540.3C540.68 540.3 540.68 540.31 540.66 540.32C540.64 540.32 540.62 540.32 540.62 540.32C540.62 540.32 540.62 540.32 540.62 540.32C540.55 540.32 540.48 540.34 540.43 540.41C540.39 540.48 540.37 540.55 540.39 540.62C540.39 540.62 540.39 540.64 540.39 540.66C540.37 540.68 540.37 540.68 540.37 540.69C538.17 543.41 536.07 546.26 534.06 549.19C533.99 549.3 533.97 549.46 534.06 549.6C534.13 549.74 534.29 549.85 534.42 549.85C536.53 549.78 538.65 549.74 540.75 549.74C546.99 549.74 553.28 550.06 559.5 550.7C559.5 550.7 559.52 550.7 559.57 550.7C559.57 550.74 559.57 550.76 559.57 550.77C559.75 553.92 559.75 557.1 559.59 560.25C559.59 560.26 559.59 560.28 559.59 560.32C559.55 560.32 559.52 560.32 559.52 560.32C551.31 561.07 542.97 561.62 534.72 561.99C534.72 561.99 534.71 561.99 534.7 561.99C534.68 561.99 534.68 561.99 534.67 561.99C534.61 561.97 534.54 561.97 534.47 561.99C534.47 561.99 534.45 561.99 534.45 561.99C528.32 562.24 522.15 562.4 516.07 562.42C516.06 562.42 516 562.4 515.91 562.35C515.91 562.31 515.91 562.29 515.91 562.29ZM516.05 562.22C522.08 562.19 528.25 562.03 534.33 561.78C534.42 561.74 534.54 561.74 534.63 561.76C542.86 561.42 551.15 560.85 559.34 560.11C559.5 557.03 559.5 553.87 559.31 550.79C553.14 550.15 546.86 549.83 540.64 549.83C538.54 549.83 536.43 549.87 534.33 549.94C534.33 549.94 534.33 549.94 534.33 549.94C534.1 549.94 533.92 549.81 533.81 549.62C533.71 549.44 533.71 549.23 533.83 549.07C535.82 546.17 537.94 543.31 540.11 540.59C540.11 540.5 540.14 540.39 540.21 540.3C540.27 540.21 540.37 540.16 540.46 540.16C540.82 539.73 541.17 539.27 541.53 538.83C541.52 538.82 541.43 538.73 541.42 538.72C541.33 538.63 541.23 538.54 541.12 538.45C541.01 538.33 540.98 538.19 541.03 538.06C541.1 537.9 541.23 537.81 541.39 537.81C541.49 537.81 541.58 537.85 541.65 537.92C541.74 537.99 541.81 538.08 541.9 538.15C541.91 538.16 542 538.25 542.01 538.26C544.39 535.41 546.88 532.66 549.42 530.1C550.95 528.55 552.39 527.15 553.81 525.83C554.26 525.39 554.77 524.96 555.27 524.55C556.27 523.7 557.3 522.81 558.13 521.81C558.33 521.53 558.51 521.26 558.7 520.91C558.67 520.8 558.7 520.62 558.83 520.46C558.86 520.41 558.9 520.39 558.93 520.37C559.34 519.15 559.34 517.78 559.31 516.46C559.31 516.07 559.31 515.68 559.31 515.31C559.32 514.91 559.36 512.91 559.43 509.3C532.97 509.52 518.28 509.64 515.34 509.67C515.27 513.53 515.41 517.42 515.7 521.23C521.12 521.6 526.65 521.83 532.14 521.9C532.27 521.74 532.53 521.69 532.71 521.85C532.72 521.86 532.77 521.89 532.78 521.9C533.85 521.9 534.93 521.92 535.98 521.92C537.62 521.92 539.25 521.9 540.82 521.87C540.83 521.87 540.84 521.87 540.85 521.87C541.07 521.87 541.26 521.99 541.35 522.17C541.44 522.4 541.42 522.67 541.26 522.86C541.06 523.09 539.51 524.98 539.31 525.21C539.29 525.33 539.2 525.42 539.11 525.46C537.7 527.17 526.4 540.87 524.98 542.58C524.69 542.95 524.39 543.29 524.09 543.66C521.9 546.33 519.61 549.12 516.94 551.45C516.21 552.09 515.54 552.85 515.54 554.08C515.54 554.81 515.59 555.57 515.63 556.3C515.66 556.55 515.66 556.78 515.68 557.03C515.7 557.36 515.81 559.04 516 562.06C516.03 562.13 516.05 562.19 516.05 562.22ZM547.82 548.96C545.42 548.87 542.99 548.82 540.64 548.82C538.88 548.82 537.12 548.85 535.36 548.89C535.35 548.89 535.3 548.89 535.2 548.89C535.25 548.82 535.29 548.78 535.29 548.78C535.61 548.32 535.95 547.84 536.27 547.38C536.28 547.38 536.29 547.36 536.32 547.31C536.36 547.36 536.38 547.38 536.39 547.38C536.87 547.89 537.44 548.27 538.13 548.53C538.26 548.57 538.38 548.48 538.4 548.37C538.42 548.27 538.38 548.14 538.24 548.09C537.62 547.86 537.07 547.5 536.64 546.99C536.64 546.99 536.62 546.98 536.59 546.95C536.62 546.92 536.64 546.91 536.64 546.9C537.05 546.33 537.46 545.78 537.87 545.23C537.88 545.23 537.89 545.21 537.92 545.17C537.96 545.21 537.98 545.23 537.99 545.23C539.04 546.45 540.23 547.54 541.55 548.5C541.67 548.59 541.81 548.53 541.85 548.39C541.87 548.34 541.9 548.21 541.76 548.11C540.48 547.18 539.31 546.08 538.24 544.85C538.24 544.84 538.22 544.83 538.19 544.8C538.22 544.77 538.24 544.76 538.24 544.75C538.61 544.27 538.97 543.79 539.38 543.27C539.39 543.26 539.4 543.24 539.43 543.2C539.47 543.23 539.49 543.24 539.5 543.25C541.17 544.8 542.79 546.45 544.3 548.11C544.41 548.23 544.59 548.18 544.66 548.02C544.69 547.98 544.71 547.89 544.62 547.77C543.09 546.08 541.46 544.43 539.77 542.86C539.77 542.85 539.75 542.84 539.73 542.81C539.75 542.78 539.77 542.77 539.77 542.77C540.14 542.31 540.5 541.85 540.87 541.39C540.87 541.39 540.89 541.37 540.91 541.33C540.96 541.37 540.98 541.39 540.98 541.39C543.22 543.95 545.55 546.47 547.91 548.87C547.91 548.87 547.95 548.91 548 548.96C547.89 548.96 547.83 548.96 547.82 548.96ZM547.61 548.8C545.3 546.47 543.04 544.02 540.87 541.53C540.53 541.94 540.21 542.35 539.89 542.79C541.55 544.34 543.18 545.99 544.69 547.66C544.8 547.77 544.82 547.93 544.75 548.07C544.69 548.21 544.55 548.32 544.41 548.32C544.32 548.32 544.23 548.27 544.16 548.21C542.67 546.56 541.07 544.96 539.43 543.41C539.06 543.89 538.72 544.32 538.38 544.78C539.43 545.99 540.59 547.06 541.83 547.98C541.97 548.09 542.03 548.25 541.97 548.43C541.92 548.55 541.83 548.64 541.71 548.66C543.68 548.69 545.65 548.71 547.61 548.8ZM535.47 548.73C537.17 548.69 538.9 548.66 540.59 548.66C540.91 548.66 541.23 548.66 541.53 548.66C541.49 548.66 541.44 548.64 541.39 548.59C540.11 547.63 538.93 546.56 537.87 545.37C537.51 545.87 537.12 546.4 536.73 546.9C537.17 547.36 537.67 547.7 538.24 547.91C538.45 547.98 538.51 548.18 538.49 548.34C538.47 548.53 538.33 548.66 538.15 548.66C538.15 548.66 538.15 548.66 538.15 548.66C538.1 548.66 538.06 548.66 538.01 548.64C537.39 548.41 536.8 548.05 536.32 547.54C536.05 547.93 535.75 548.34 535.47 548.73ZM548.46 548.78C545.99 546.31 543.57 543.68 541.21 540.98C541.21 540.98 541.19 540.96 541.17 540.94C541.19 540.91 541.21 540.89 541.21 540.89C541.6 540.41 541.97 539.95 542.35 539.5C542.36 539.49 542.37 539.47 542.4 539.43C542.44 539.47 542.46 539.49 542.47 539.5C544.98 541.99 547.43 544.62 549.74 547.29C549.74 547.29 549.76 547.31 549.78 547.34C549.52 547.63 549.38 547.79 549.35 547.82C549.14 548.05 548.91 548.3 548.71 548.53C548.64 548.59 548.62 548.66 548.59 548.75C548.59 548.76 548.59 548.81 548.57 548.89C548.5 548.82 548.46 548.78 548.46 548.78ZM548.46 548.59C548.48 548.53 548.53 548.48 548.57 548.41C548.78 548.18 549.01 547.95 549.21 547.7C549.25 547.66 549.52 547.35 549.55 547.31C547.29 544.66 544.89 542.08 542.4 539.63C542.06 540.07 541.71 540.5 541.35 540.94C543.66 543.59 546.06 546.17 548.46 548.59ZM550.03 546.93C547.73 544.23 545.28 541.6 542.77 539.11C542.76 539.11 542.75 539.09 542.72 539.06C542.75 539.04 542.76 539.02 542.77 539.02C543.25 538.45 543.75 537.85 544.34 537.17C544.35 537.16 544.36 537.14 544.39 537.1C544.43 537.14 544.45 537.16 544.46 537.17C546.83 539.79 549.23 542.45 551.63 545.01C551.66 545.03 551.68 545.05 551.73 545.07C551.73 545.08 551.76 545.09 551.82 545.12C551.6 545.37 551.48 545.5 551.45 545.53C551.02 546.01 550.61 546.47 550.17 546.95C550.17 546.95 550.13 546.97 550.08 546.99C550.05 546.95 550.04 546.93 550.03 546.93ZM550.08 546.77C550.49 546.31 550.88 545.87 551.29 545.42C551.32 545.39 551.52 545.17 551.54 545.14C551.52 545.12 551.52 545.12 551.5 545.1C549.12 542.56 546.74 539.93 544.39 537.33C543.82 537.97 543.34 538.54 542.9 539.06C545.39 541.51 547.79 544.11 550.08 546.77ZM551.95 544.73C551.93 544.71 551.93 544.69 551.91 544.66C549.51 542.08 547.09 539.43 544.71 536.8C544.71 536.8 544.69 536.78 544.66 536.75C544.69 536.73 544.71 536.71 544.71 536.71C545.65 535.63 546.63 534.54 547.63 533.46C547.64 533.46 547.65 533.44 547.68 533.42C552.21 537.82 554.72 540.27 555.22 540.75C555.27 540.8 555.31 540.82 555.38 540.82C555.4 540.82 555.46 540.81 555.57 540.8C555.5 540.88 555.46 540.93 555.45 540.94C554.86 541.62 554.24 542.31 553.62 542.99C553.62 543 553.6 543.02 553.55 543.06C553.51 542.99 553.49 542.96 553.49 542.95C551.38 540.18 549.01 537.62 546.45 535.34C546.31 535.22 546.13 535.29 546.06 535.45C546.03 535.5 546.03 535.59 546.13 535.66C548.69 537.94 551.04 540.48 553.07 543.18C553.12 543.22 553.17 543.27 553.23 543.27C553.24 543.27 553.29 543.28 553.37 543.29C553.11 543.58 552.97 543.74 552.94 543.77C552.64 544.09 552.37 544.41 552.07 544.75C552.06 544.76 552.04 544.79 552 544.85C551.97 544.78 551.96 544.74 551.95 544.73ZM552.02 544.57C552.02 544.57 552.02 544.57 552.05 544.59C552.32 544.3 552.57 544 552.85 543.7C552.87 543.67 553.09 543.44 553.12 543.41C553.07 543.38 553.03 543.34 553.01 543.29C550.95 540.59 548.62 538.08 546.08 535.79C546.01 535.73 545.97 535.66 545.97 535.57C545.58 535.95 545.21 536.37 544.87 536.75C547.22 539.38 549.65 542.01 552.02 544.57ZM546.58 535.22C549.14 537.51 551.5 540.07 553.6 542.81C554.15 542.17 554.72 541.55 555.27 540.91C555.22 540.89 555.18 540.87 555.13 540.82C554.39 540.1 548.45 534.3 547.7 533.58C547.25 534.08 546.77 534.58 546.31 535.11C546.31 535.15 546.31 535.13 546.33 535.13C546.42 535.13 546.51 535.18 546.58 535.22ZM555.61 540.55C555.61 540.5 555.59 540.46 555.54 540.41C555.04 539.92 552.52 537.47 547.98 533.05C548 533.02 548.02 533.01 548.02 533.01C548.39 532.62 548.78 532.21 549.14 531.82C549.15 531.81 549.16 531.8 549.19 531.77L556.98 539.13C556.96 539.16 556.94 539.17 556.94 539.18C556.78 539.36 556.62 539.54 556.46 539.73C556.21 540 555.98 540.3 555.73 540.57C555.72 540.58 555.69 540.64 555.63 540.73C555.62 540.62 555.61 540.56 555.61 540.55ZM555.66 540.32C555.68 540.34 555.7 540.37 555.73 540.41C555.95 540.16 556.16 539.91 556.37 539.66C556.5 539.5 556.66 539.31 556.8 539.15C556.04 538.44 549.97 532.72 549.21 532C548.89 532.34 548.55 532.71 548.21 533.07C549.7 534.52 554.91 539.6 555.66 540.32ZM557.26 538.74L549.53 531.45C549.56 531.42 549.57 531.41 549.58 531.41C550.08 530.88 550.51 530.45 550.93 530.03C550.99 529.97 551.06 529.9 551.13 529.83C551.15 529.81 551.22 529.74 551.36 529.6C551.37 529.68 551.38 529.73 551.38 529.74C551.43 529.87 551.5 530.01 551.61 530.15C552.11 530.67 552.66 531.15 553.21 531.63C553.44 531.84 553.67 532.02 553.9 532.23C554.37 532.66 558.18 536.1 558.65 536.53C558.79 536.64 558.97 536.57 559.04 536.43C559.06 536.39 559.06 536.3 558.97 536.23C558.44 535.74 554.16 531.87 553.62 531.38C553.55 531.31 553.44 531.25 553.3 531.13C552.48 530.47 551.68 529.81 551.86 529.33C551.89 529.28 551.89 529.21 551.86 529.17C551.86 529.16 551.85 529.15 551.84 529.12C551.87 529.09 551.88 529.08 551.89 529.07C552.14 528.82 552.41 528.57 552.69 528.3C552.71 528.28 552.81 528.18 553.01 528C553.03 528.05 553.05 528.09 553.05 528.09C553.07 528.11 553.07 528.14 553.1 528.14C555.5 530.45 557.99 532.71 560.48 534.9C560.48 534.9 560.5 534.93 560.53 534.93C560.53 534.93 560.55 534.94 560.59 534.97C560.57 535.01 560.55 535.04 560.55 535.04C559.38 536.43 558.33 537.65 557.37 538.77C557.37 538.77 557.35 538.77 557.33 538.79L557.26 538.74ZM557.33 538.58C557.85 537.99 558.38 537.35 558.95 536.69C558.83 536.71 558.7 536.69 558.61 536.59C558.13 536.16 554.33 532.73 553.85 532.3C553.62 532.09 553.39 531.89 553.17 531.7C552.62 531.22 552.07 530.74 551.57 530.22C551.45 530.1 551.38 529.99 551.34 529.85C551.33 529.86 551.3 529.89 551.29 529.9C551.22 529.97 551.15 530.03 551.09 530.1C550.65 530.51 550.22 530.95 549.76 531.45C551.27 532.88 556.57 537.87 557.33 538.58ZM552.05 529.33C551.89 529.74 552.94 530.56 553.44 530.97C553.58 531.09 553.69 531.18 553.76 531.22C554.29 531.71 558.57 535.58 559.11 536.07C559.2 536.14 559.25 536.25 559.22 536.34C559.59 535.91 559.98 535.45 560.39 534.97C557.9 532.8 555.41 530.51 553.01 528.23C553.01 528.23 553.01 528.23 553.01 528.23C552.99 528.25 552.84 528.39 552.82 528.41C552.57 528.62 552.32 528.87 552.07 529.12C552.09 529.19 552.09 529.26 552.05 529.33ZM560.82 534.54C558.33 532.37 555.84 530.08 553.44 527.77C553.42 527.75 553.42 527.75 553.39 527.73C553.39 527.72 553.36 527.71 553.3 527.68C553.34 527.64 553.37 527.62 553.37 527.61C554.08 526.93 554.72 526.33 555.34 525.76C555.7 525.44 556.07 525.1 556.43 524.8C556.71 524.57 556.98 524.32 557.26 524.09C557.28 524.07 557.46 523.91 557.49 523.89C558.1 523.31 558.56 522.83 558.97 522.35C558.97 522.35 558.99 522.33 559.02 522.29C562.94 525.71 565.12 527.62 565.55 528C565.69 528.11 565.9 528.05 565.94 527.89C565.97 527.84 565.97 527.75 565.87 527.68C565.44 527.3 563.24 525.38 559.29 521.92C559.32 521.89 559.33 521.88 559.34 521.87C559.41 521.78 559.45 521.69 559.52 521.62C559.59 521.51 559.66 521.37 559.75 521.21C559.75 521.21 559.76 521.18 559.77 521.14C559.81 521.16 559.84 521.16 559.84 521.17C560.43 521.42 562.24 522.42 563.2 522.97C563.52 523.15 563.75 523.29 563.84 523.31C564.13 523.47 565.6 524.24 568.25 525.62C568.21 525.66 568.19 525.69 568.18 525.69C567.09 527.06 565.9 528.53 564.43 530.31C564.43 530.31 564.42 530.34 564.39 530.38C564.35 530.34 564.32 530.31 564.32 530.31C562.22 528.14 560 526.03 557.76 524.05C557.69 524 557.62 523.98 557.55 524C557.55 524 557.5 524.02 557.42 524.05C557.39 524.13 557.37 524.17 557.37 524.18C557.35 524.23 557.35 524.32 557.44 524.39C559.73 526.4 561.94 528.53 564.07 530.7C564.07 530.7 564.09 530.72 564.11 530.74C563.8 531.13 563.62 531.34 563.59 531.38C563.27 531.77 562.95 532.16 562.63 532.55C562.63 532.55 562.61 532.58 562.58 532.62C562.54 532.58 562.52 532.55 562.51 532.55C560.46 530.22 558.17 528.05 555.75 526.1C555.61 525.99 555.41 526.08 555.34 526.22C555.31 526.26 555.31 526.33 555.41 526.4C557.85 528.34 560.14 530.54 562.22 532.89C562.22 532.89 562.24 532.91 562.26 532.94C562.18 533.03 562.13 533.09 562.13 533.1C561.71 533.58 561.33 534.06 560.91 534.54C560.91 534.54 560.91 534.56 560.89 534.58C560.85 534.56 560.83 534.54 560.82 534.54ZM560.89 534.4C561.28 533.94 561.67 533.49 562.06 533.03C562.06 533.02 562.12 532.97 562.13 532.96C560.07 530.63 557.78 528.46 555.36 526.54C555.25 526.45 555.2 526.31 555.25 526.17C555.25 526.15 555.27 526.13 555.27 526.1C554.7 526.58 554.15 527.11 553.55 527.68C555.93 529.97 558.4 532.23 560.89 534.4ZM555.86 525.97C558.26 527.89 560.53 530.03 562.58 532.37C562.88 532 563.18 531.63 563.47 531.27C563.52 531.22 563.87 530.8 563.91 530.74C561.81 528.59 559.61 526.49 557.35 524.5C557.3 524.46 557.26 524.39 557.23 524.34C557.01 524.55 556.78 524.75 556.55 524.94C556.18 525.26 555.82 525.58 555.45 525.9C555.45 525.9 555.43 525.92 555.43 525.92C555.47 525.87 555.54 525.87 555.61 525.87C555.7 525.87 555.79 525.9 555.86 525.97ZM557.87 523.95C560.11 525.92 562.31 528 564.39 530.15C565.81 528.43 566.97 526.99 568.02 525.67C567.6 525.45 564.2 523.67 563.77 523.45C563.68 523.41 563.45 523.27 563.13 523.09C562.19 522.56 560.48 521.6 559.84 521.33C559.77 521.46 559.7 521.58 559.63 521.69C559.59 521.76 559.54 521.83 559.5 521.9C560.15 522.46 565.34 527 565.99 527.57C566.1 527.66 566.15 527.82 566.1 527.93C566.03 528.09 565.87 528.21 565.71 528.21C565.62 528.21 565.53 528.18 565.46 528.11C564.82 527.55 559.68 523.07 559.04 522.51C558.67 522.93 558.26 523.38 557.74 523.86C557.78 523.89 557.83 523.91 557.87 523.95ZM523.34 527.13C521.28 525.51 519.13 523.91 516.94 522.42C516.92 522.41 516.85 522.36 516.71 522.26C516.87 522.28 516.96 522.28 516.98 522.29C517.33 522.31 517.67 522.33 518.01 522.35C518.05 522.36 518.23 522.36 518.56 522.38C518.55 522.43 518.54 522.46 518.54 522.47C518.51 522.54 518.54 522.63 518.58 522.7C518.61 522.74 518.67 522.79 518.77 522.79C519.93 522.9 520.85 523.66 521.71 524.39C521.87 524.53 522.03 524.66 522.19 524.78C522.38 524.92 523.3 525.66 524.96 526.99C524.84 527.01 524.77 527.02 524.75 527.02C524.37 527.04 523.98 527.06 523.59 527.11C523.52 527.11 523.45 527.13 523.41 527.15C523.4 527.15 523.4 527.15 523.38 527.15C523.36 527.14 523.34 527.13 523.34 527.13ZM523.41 526.97C523.47 526.95 523.52 526.93 523.59 526.93C523.91 526.9 524.23 526.88 524.57 526.86C524.32 526.66 522.35 525.09 522.1 524.89C521.94 524.75 521.78 524.64 521.62 524.5C520.75 523.79 519.86 523.04 518.74 522.95C518.63 522.95 518.51 522.88 518.45 522.79C518.4 522.72 518.38 522.63 518.38 522.51C518.34 522.51 518.03 522.49 517.99 522.49C517.76 522.47 517.51 522.47 517.26 522.45C519.36 523.89 521.42 525.42 523.41 526.97ZM525.6 526.93L525.65 526.86L525.6 526.9C523.21 525 521.89 523.94 521.62 523.73C520.98 523.22 520.43 522.83 519.82 522.58C519.79 522.57 519.64 522.52 519.38 522.42C519.66 522.44 519.81 522.44 519.84 522.45C520.71 522.49 521.55 522.54 522.42 522.58C522.43 522.58 522.45 522.58 522.49 522.58C522.51 522.64 522.51 522.67 522.51 522.67C522.51 522.67 522.51 522.7 522.51 522.7C522.54 522.77 522.61 522.83 522.67 522.86C522.68 522.86 522.76 522.88 522.77 522.88C522.79 522.88 522.81 522.88 522.83 522.88C522.95 522.88 522.99 522.79 523.02 522.77C523.02 522.76 523.04 522.72 523.09 522.65C523.13 522.72 523.15 522.76 523.15 522.77C523.27 522.95 523.38 523.09 523.57 523.18C523.98 523.52 527.31 526.28 527.73 526.63C527.86 526.74 528.07 526.67 528.11 526.51C528.14 526.47 528.14 526.38 528.05 526.31C527.75 526.06 526.26 524.84 523.59 522.63C523.73 522.63 523.8 522.63 523.82 522.63C524.46 522.65 525.1 522.67 525.74 522.7C525.74 522.7 525.75 522.7 525.76 522.7L530.54 526.79C530.41 526.79 530.35 526.79 530.33 526.79C528.75 526.81 527.2 526.86 525.69 526.95C525.69 526.95 525.66 526.95 525.62 526.95L525.6 526.93ZM521.71 523.63C522.11 523.95 525.29 526.49 525.69 526.81C526.31 526.77 526.93 526.74 527.57 526.72C527.15 526.38 523.86 523.65 523.45 523.31C523.29 523.22 523.18 523.11 523.06 522.95C522.97 523.04 522.83 523.06 522.72 523.04C522.71 523.04 522.64 523.02 522.63 523.02C522.49 522.97 522.4 522.88 522.35 522.74C522.35 522.74 522.35 522.74 522.35 522.74C521.62 522.7 520.94 522.65 520.23 522.63C520.73 522.88 521.19 523.22 521.71 523.63ZM528.11 526.19C528.23 526.29 528.27 526.42 528.23 526.56C528.21 526.61 528.18 526.65 528.16 526.7C528.8 526.67 529.46 526.65 530.13 526.65C529.68 526.27 526.13 523.24 525.69 522.86C525.12 522.83 524.55 522.81 524 522.79C524.82 523.47 527.7 525.85 528.11 526.19ZM536.53 526.88C535.75 526.83 534.95 526.81 534.06 526.79C534.04 526.79 533.98 526.79 533.87 526.79C533.96 526.71 534 526.66 534.01 526.65C534.06 526.61 534.08 526.54 534.08 526.49C534.08 526.45 534.06 526.4 534.01 526.35C533.74 526.12 532.38 524.93 529.94 522.79C530.07 522.79 530.13 522.79 530.15 522.79C531.02 522.81 531.95 522.81 532.98 522.83C532.98 522.83 532.99 522.83 533.01 522.83L536.98 526.35L536.57 526.88C536.54 526.88 536.53 526.88 536.53 526.88ZM536.5 526.72C536.52 526.7 536.61 526.59 536.78 526.4C534.49 524.37 533.21 523.24 532.96 523.02C532.02 523.02 531.18 522.99 530.38 522.97C530.75 523.3 533.77 525.93 534.15 526.26C534.22 526.33 534.26 526.42 534.26 526.51C534.26 526.56 534.24 526.61 534.22 526.65C535.02 526.67 535.77 526.7 536.5 526.72ZM533.62 526.81C532.73 526.79 531.86 526.79 531.02 526.79C531.01 526.79 530.98 526.79 530.93 526.79C530.94 526.73 530.95 526.7 530.95 526.7C530.97 526.63 530.95 526.56 530.88 526.51C530.59 526.26 529.12 525.01 526.47 522.74C526.59 522.74 526.66 522.74 526.67 522.74C527.52 522.77 528.37 522.79 529.21 522.81C529.21 522.81 529.22 522.81 529.23 522.81L529.26 522.83L533.83 526.81C533.71 526.81 533.64 526.81 533.62 526.81ZM533.39 526.65C532.97 526.28 529.59 523.34 529.17 522.97C528.39 522.95 527.63 522.93 526.86 522.9C527.27 523.25 530.54 526.05 530.95 526.4C531.04 526.47 531.06 526.56 531.09 526.65C531.29 526.63 531.5 526.63 531.68 526.63C532.25 526.63 532.82 526.63 533.39 526.65ZM533.71 522.86C533.84 522.86 533.91 522.86 533.92 522.86C534.63 522.86 535.36 522.86 536.07 522.86C536.07 522.86 536.08 522.86 536.09 522.86C536.11 522.86 536.11 522.86 536.11 522.86C536.94 523.34 537.67 523.95 538.33 524.66C538.33 524.67 538.35 524.68 538.38 524.71L537.28 526.03L533.71 522.86ZM537.26 525.83C537.79 525.17 538.09 524.8 538.15 524.73C537.51 524.07 536.8 523.5 536.05 523.02C535.38 523.02 534.74 523.02 534.1 523.02C534.52 523.39 535.57 524.33 537.26 525.83ZM560.07 520.34C560.08 520.3 560.09 520.28 560.09 520.27C560.21 519.84 560.3 519.36 560.32 518.79C560.32 518.79 560.32 518.77 560.32 518.74C560.33 518.73 560.34 518.72 560.34 518.72C560.37 518.72 560.37 518.7 560.37 518.7C560.46 518.61 560.59 518.56 560.75 518.56C561.19 518.56 561.74 518.9 562.15 519.13C562.26 519.2 562.35 519.27 562.45 519.29C563.01 519.59 567.57 521.95 568.14 522.24C568.23 522.29 568.34 522.26 568.41 522.19C568.42 522.19 568.46 522.15 568.53 522.08C568.54 522.18 568.55 522.23 568.55 522.24C568.59 522.93 568.64 523.61 568.69 524.3C568.69 524.3 568.69 524.3 568.69 524.3C568.69 524.31 568.69 524.32 568.69 524.32C568.69 524.34 568.69 524.34 568.69 524.37C568.69 524.4 568.7 524.58 568.73 524.89L560.07 520.34ZM568.55 524.64C568.53 524.53 568.53 524.47 568.53 524.46C568.53 524.43 568.53 524.41 568.53 524.39C568.48 523.75 568.43 523.11 568.39 522.47C568.3 522.51 568.16 522.51 568.07 522.45C567.5 522.15 562.95 519.79 562.38 519.5C562.31 519.45 562.19 519.38 562.08 519.31C561.71 519.09 561.17 518.74 560.78 518.74C560.66 518.74 560.57 518.77 560.48 518.83C560.48 518.83 560.46 518.83 560.46 518.86C560.43 519.41 560.37 519.86 560.25 520.27C561.36 520.86 564.12 522.31 568.55 524.64ZM538.58 524.3C538.13 523.82 537.62 523.38 537.1 522.99C537.08 522.99 537.02 522.94 536.91 522.86C537.05 522.86 537.13 522.86 537.14 522.86C538.15 522.86 538.97 522.86 539.73 522.83C539.74 522.83 539.79 522.83 539.89 522.83L538.65 524.37C538.61 524.32 538.59 524.3 538.58 524.3ZM538.63 524.14C538.72 524.02 539.47 523.11 539.57 522.99C538.93 523.02 538.22 523.02 537.37 523.02C537.83 523.36 538.24 523.73 538.63 524.14ZM568.39 521.92C565.19 520.25 563.42 519.32 563.06 519.13C562.9 519.06 562.74 518.95 562.58 518.86C562.06 518.54 561.37 518.15 560.8 518.15C560.69 518.15 560.57 518.17 560.48 518.19C560.47 518.2 560.44 518.2 560.39 518.22C560.39 518.15 560.39 518.11 560.39 518.1C560.39 517.71 560.39 517.35 560.39 516.98C560.39 516.98 560.39 516.96 560.39 516.91C560.43 516.91 560.45 516.91 560.46 516.91C560.55 516.91 560.69 516.85 560.69 516.69C560.69 516.66 560.69 516.55 560.85 516.55C561.1 516.55 561.74 516.85 562.24 517.12C562.24 517.12 562.25 517.12 562.26 517.12C565.36 518.68 567.08 519.55 567.43 519.73C567.59 519.79 567.75 519.68 567.77 519.57C567.79 519.52 567.79 519.41 567.66 519.34C567.14 519.08 563.01 516.99 562.49 516.73C562.45 516.71 562.38 516.66 562.29 516.62C561.87 516.41 561.21 516.05 560.73 516.05C560.64 516.05 560.55 516.07 560.48 516.09C560.47 516.09 560.43 516.11 560.37 516.14C560.37 516.01 560.37 515.95 560.37 515.93C560.37 515.82 560.37 515.7 560.37 515.59C560.37 515.48 560.37 514.95 560.39 513.99C560.46 514.03 560.5 514.05 560.5 514.06C560.57 514.1 560.64 514.1 560.71 514.03C560.82 513.97 560.94 513.92 561.07 513.92C561.49 513.92 561.97 514.22 562.33 514.45C562.45 514.51 562.56 514.58 562.65 514.63C563.17 514.91 567.3 517.12 567.82 517.39C567.89 517.44 567.95 517.44 568.02 517.39C568.03 517.39 568.06 517.38 568.11 517.35C568.11 517.42 568.11 517.46 568.11 517.46C568.25 518.93 568.39 520.37 568.48 521.76C568.48 521.78 568.5 521.86 568.53 522.01L568.39 521.92ZM562.65 518.74C562.81 518.83 562.99 518.95 563.13 519.02C563.65 519.29 567.82 521.47 568.34 521.74C568.23 520.41 568.11 519.06 568 517.67C567.91 517.69 567.84 517.67 567.75 517.62C567.23 517.35 563.1 515.13 562.58 514.86C562.49 514.81 562.38 514.74 562.26 514.67C561.9 514.45 561.44 514.17 561.07 514.17C560.96 514.17 560.87 514.19 560.78 514.26C560.69 514.31 560.62 514.33 560.53 514.33C560.52 514.47 560.51 515.55 560.5 515.68C560.5 515.79 560.5 515.89 560.5 516C560.57 515.98 560.64 515.98 560.71 515.98C561.23 515.98 561.92 516.34 562.33 516.57C562.4 516.62 562.47 516.64 562.51 516.66C563.03 516.92 567.16 519.01 567.68 519.27C567.84 519.34 567.91 519.5 567.86 519.66C567.82 519.82 567.68 519.98 567.47 519.98C567.41 519.98 567.36 519.95 567.29 519.93C566.77 519.67 562.64 517.57 562.13 517.3C561.46 516.96 560.96 516.75 560.8 516.75C560.8 516.75 560.8 516.75 560.8 516.75C560.8 516.96 560.66 517.05 560.5 517.1C560.5 517.39 560.5 517.71 560.5 518.06C560.59 518.01 560.69 518.01 560.78 518.01C561.39 518.01 562.08 518.42 562.65 518.74ZM563.57 514.7C563.41 514.61 563.22 514.49 563.02 514.35C562.42 513.99 561.69 513.53 561.07 513.53C560.87 513.53 560.69 513.58 560.5 513.69C560.5 513.7 560.46 513.72 560.39 513.76L560.46 509.6L567.89 515.15C567.89 515.17 567.89 515.18 567.89 515.18C567.95 515.77 568 516.37 568.07 516.96C568.07 516.97 568.08 517.02 568.09 517.12C565.38 515.67 563.87 514.86 563.57 514.7ZM563.11 514.24C563.31 514.35 563.5 514.49 563.66 514.56C564.08 514.79 567.5 516.62 567.93 516.85C567.89 516.32 567.82 515.77 567.77 515.25C567.3 514.89 564.92 513.11 560.64 509.9C560.6 512.05 560.58 513.25 560.57 513.49C560.71 513.42 560.87 513.39 561.07 513.39C561.76 513.39 562.49 513.87 563.11 514.24Z" id="a4gOGg4Myq"></path></defs><g><g><g><use xlink:href="#e3fXAYGooN" opacity="1" fill="#000000" fill-opacity="1"></use><g><use xlink:href="#e3fXAYGooN" opacity="1" fill-opacity="0" stroke="#000000" stroke-width="1" stroke-opacity="0"></use></g></g><g><use xlink:href="#a4gOGg4Myq" opacity="1" fill="#180f0b" fill-opacity="1"></use><g><use xlink:href="#a4gOGg4Myq" opacity="1" fill-opacity="0" stroke="#000000" stroke-width="1" stroke-opacity="0"></use></g></g></g></g></svg>