<?xml version="1.0" ?><svg id="图层_1" version="1.1" viewBox="-239 241 32 32" xml:space="preserve" xmlns="http://www.w3.org/2000/svg" xmlns:xlink="http://www.w3.org/1999/xlink"><style type="text/css">
	.st0{fill:#F42F42;}
	.st1{opacity:0.2038;fill:#332E0A;enable-background:new    ;}
	.st2{fill:none;stroke:#0A2933;stroke-linejoin:round;}
	.st3{fill:none;stroke:#FFFFFF;stroke-linecap:round;stroke-linejoin:round;stroke-dasharray:1,2,6,2,3;}
</style><path class="letter-fill" d="M-216.4,252.5l-9.4,10.5h10c0.8,0,1.4,0.2,1.8,0.6c0.4,0.4,0.6,0.9,0.6,1.5c0,0.6-0.2,1-0.6,1.4  c-0.4,0.4-1,0.5-1.8,0.5h-13.9c-1,0-1.7-0.2-2.2-0.6c-0.5-0.4-0.7-1-0.7-1.7c0-0.4,0.2-0.9,0.5-1.3s1-1.3,2.1-2.4  c1.1-1.2,2.1-2.4,3.1-3.4c0.9-1,1.8-2,2.6-2.8c0.8-0.9,1.4-1.6,2-2.2s0.9-1.1,1.2-1.6h-7.6c-1.1,0-1.8-0.1-2.4-0.3s-0.8-0.7-0.8-1.5  c0-0.6,0.2-1.1,0.6-1.4c0.4-0.4,1-0.5,1.7-0.5h11.8c1.1,0,1.9,0.2,2.5,0.5c0.6,0.3,0.9,0.9,0.9,1.7c0,0.3-0.1,0.6-0.2,0.9  s-0.2,0.5-0.4,0.7s-0.3,0.4-0.6,0.7S-216.1,252.1-216.4,252.5z"/><path class="st1" d="M-213.5,264.2c0.1,0.2,0.2,0.5,0.2,0.8c0,0.6-0.2,1-0.6,1.4c-0.4,0.4-1,0.5-1.8,0.5h-13.9  c-1,0-1.7-0.2-2.2-0.6c-0.5-0.4-0.7-1-0.7-1.7c0-0.2,0-0.5,0.1-0.7c0.1,0.3,0.3,0.6,0.6,0.8c0.5,0.4,1.2,0.6,2.2,0.6h13.9  c0.8,0,1.4-0.2,1.8-0.5C-213.7,264.7-213.6,264.5-213.5,264.2z" id="Combined-Shape"/><path class="st3" d="M-221,252.6l-4,4.8" id="Path-28"/><path class="letter-border" d="M-216.4,252.5l-9.4,10.5h10c0.8,0,1.4,0.2,1.8,0.6c0.4,0.4,0.6,0.9,0.6,1.5c0,0.6-0.2,1-0.6,1.4  c-0.4,0.4-1,0.5-1.8,0.5h-13.9c-1,0-1.7-0.2-2.2-0.6c-0.5-0.4-0.7-1-0.7-1.7c0-0.4,0.2-0.9,0.5-1.3s1-1.3,2.1-2.4  c1.1-1.2,2.1-2.4,3.1-3.4c0.9-1,1.8-2,2.6-2.8c0.8-0.9,1.4-1.6,2-2.2s0.9-1.1,1.2-1.6h-7.6c-1.1,0-1.8-0.1-2.4-0.3s-0.8-0.7-0.8-1.5  c0-0.6,0.2-1.1,0.6-1.4c0.4-0.4,1-0.5,1.7-0.5h11.8c1.1,0,1.9,0.2,2.5,0.5c0.6,0.3,0.9,0.9,0.9,1.7c0,0.3-0.1,0.6-0.2,0.9  s-0.2,0.5-0.4,0.7s-0.3,0.4-0.6,0.7S-216.1,252.1-216.4,252.5z"/></svg>